%TF.GenerationSoftware,KiCad,Pcbnew,5.1.10*%
%TF.CreationDate,2021-06-01T18:34:17+02:00*%
%TF.ProjectId,ptm-60nrf,70746d2d-3630-46e7-9266-2e6b69636164,rev?*%
%TF.SameCoordinates,Original*%
%TF.FileFunction,Paste,Bot*%
%TF.FilePolarity,Positive*%
%FSLAX46Y46*%
G04 Gerber Fmt 4.6, Leading zero omitted, Abs format (unit mm)*
G04 Created by KiCad (PCBNEW 5.1.10) date 2021-06-01 18:34:17*
%MOMM*%
%LPD*%
G01*
G04 APERTURE LIST*
%ADD10R,1.800000X1.100000*%
%ADD11R,0.650000X1.060000*%
%ADD12R,0.600000X1.200000*%
%ADD13C,0.100000*%
%ADD14R,1.060000X0.650000*%
%ADD15R,0.800000X0.900000*%
%ADD16R,0.600000X1.450000*%
%ADD17R,0.300000X1.450000*%
%ADD18R,0.900000X1.200000*%
G04 APERTURE END LIST*
D10*
%TO.C,Reset1*%
X182230000Y-106020000D03*
X176030000Y-106020000D03*
X182230000Y-109720000D03*
X176030000Y-109720000D03*
%TD*%
%TO.C,D71*%
G36*
G01*
X293118250Y-108362000D02*
X292605750Y-108362000D01*
G75*
G02*
X292387000Y-108143250I0J218750D01*
G01*
X292387000Y-107705750D01*
G75*
G02*
X292605750Y-107487000I218750J0D01*
G01*
X293118250Y-107487000D01*
G75*
G02*
X293337000Y-107705750I0J-218750D01*
G01*
X293337000Y-108143250D01*
G75*
G02*
X293118250Y-108362000I-218750J0D01*
G01*
G37*
G36*
G01*
X293118250Y-109937000D02*
X292605750Y-109937000D01*
G75*
G02*
X292387000Y-109718250I0J218750D01*
G01*
X292387000Y-109280750D01*
G75*
G02*
X292605750Y-109062000I218750J0D01*
G01*
X293118250Y-109062000D01*
G75*
G02*
X293337000Y-109280750I0J-218750D01*
G01*
X293337000Y-109718250D01*
G75*
G02*
X293118250Y-109937000I-218750J0D01*
G01*
G37*
%TD*%
%TO.C,D70*%
G36*
G01*
X269242250Y-108489000D02*
X268729750Y-108489000D01*
G75*
G02*
X268511000Y-108270250I0J218750D01*
G01*
X268511000Y-107832750D01*
G75*
G02*
X268729750Y-107614000I218750J0D01*
G01*
X269242250Y-107614000D01*
G75*
G02*
X269461000Y-107832750I0J-218750D01*
G01*
X269461000Y-108270250D01*
G75*
G02*
X269242250Y-108489000I-218750J0D01*
G01*
G37*
G36*
G01*
X269242250Y-110064000D02*
X268729750Y-110064000D01*
G75*
G02*
X268511000Y-109845250I0J218750D01*
G01*
X268511000Y-109407750D01*
G75*
G02*
X268729750Y-109189000I218750J0D01*
G01*
X269242250Y-109189000D01*
G75*
G02*
X269461000Y-109407750I0J-218750D01*
G01*
X269461000Y-109845250D01*
G75*
G02*
X269242250Y-110064000I-218750J0D01*
G01*
G37*
%TD*%
%TO.C,D69*%
G36*
G01*
X245366250Y-108616000D02*
X244853750Y-108616000D01*
G75*
G02*
X244635000Y-108397250I0J218750D01*
G01*
X244635000Y-107959750D01*
G75*
G02*
X244853750Y-107741000I218750J0D01*
G01*
X245366250Y-107741000D01*
G75*
G02*
X245585000Y-107959750I0J-218750D01*
G01*
X245585000Y-108397250D01*
G75*
G02*
X245366250Y-108616000I-218750J0D01*
G01*
G37*
G36*
G01*
X245366250Y-110191000D02*
X244853750Y-110191000D01*
G75*
G02*
X244635000Y-109972250I0J218750D01*
G01*
X244635000Y-109534750D01*
G75*
G02*
X244853750Y-109316000I218750J0D01*
G01*
X245366250Y-109316000D01*
G75*
G02*
X245585000Y-109534750I0J-218750D01*
G01*
X245585000Y-109972250D01*
G75*
G02*
X245366250Y-110191000I-218750J0D01*
G01*
G37*
%TD*%
%TO.C,D68*%
G36*
G01*
X164467250Y-108616000D02*
X163954750Y-108616000D01*
G75*
G02*
X163736000Y-108397250I0J218750D01*
G01*
X163736000Y-107959750D01*
G75*
G02*
X163954750Y-107741000I218750J0D01*
G01*
X164467250Y-107741000D01*
G75*
G02*
X164686000Y-107959750I0J-218750D01*
G01*
X164686000Y-108397250D01*
G75*
G02*
X164467250Y-108616000I-218750J0D01*
G01*
G37*
G36*
G01*
X164467250Y-110191000D02*
X163954750Y-110191000D01*
G75*
G02*
X163736000Y-109972250I0J218750D01*
G01*
X163736000Y-109534750D01*
G75*
G02*
X163954750Y-109316000I218750J0D01*
G01*
X164467250Y-109316000D01*
G75*
G02*
X164686000Y-109534750I0J-218750D01*
G01*
X164686000Y-109972250D01*
G75*
G02*
X164467250Y-110191000I-218750J0D01*
G01*
G37*
%TD*%
%TO.C,D67*%
G36*
G01*
X83568250Y-108616000D02*
X83055750Y-108616000D01*
G75*
G02*
X82837000Y-108397250I0J218750D01*
G01*
X82837000Y-107959750D01*
G75*
G02*
X83055750Y-107741000I218750J0D01*
G01*
X83568250Y-107741000D01*
G75*
G02*
X83787000Y-107959750I0J-218750D01*
G01*
X83787000Y-108397250D01*
G75*
G02*
X83568250Y-108616000I-218750J0D01*
G01*
G37*
G36*
G01*
X83568250Y-110191000D02*
X83055750Y-110191000D01*
G75*
G02*
X82837000Y-109972250I0J218750D01*
G01*
X82837000Y-109534750D01*
G75*
G02*
X83055750Y-109316000I218750J0D01*
G01*
X83568250Y-109316000D01*
G75*
G02*
X83787000Y-109534750I0J-218750D01*
G01*
X83787000Y-109972250D01*
G75*
G02*
X83568250Y-110191000I-218750J0D01*
G01*
G37*
%TD*%
%TO.C,D66*%
G36*
G01*
X59692250Y-108616000D02*
X59179750Y-108616000D01*
G75*
G02*
X58961000Y-108397250I0J218750D01*
G01*
X58961000Y-107959750D01*
G75*
G02*
X59179750Y-107741000I218750J0D01*
G01*
X59692250Y-107741000D01*
G75*
G02*
X59911000Y-107959750I0J-218750D01*
G01*
X59911000Y-108397250D01*
G75*
G02*
X59692250Y-108616000I-218750J0D01*
G01*
G37*
G36*
G01*
X59692250Y-110191000D02*
X59179750Y-110191000D01*
G75*
G02*
X58961000Y-109972250I0J218750D01*
G01*
X58961000Y-109534750D01*
G75*
G02*
X59179750Y-109316000I218750J0D01*
G01*
X59692250Y-109316000D01*
G75*
G02*
X59911000Y-109534750I0J-218750D01*
G01*
X59911000Y-109972250D01*
G75*
G02*
X59692250Y-110191000I-218750J0D01*
G01*
G37*
%TD*%
%TO.C,D65*%
G36*
G01*
X35816250Y-108616000D02*
X35303750Y-108616000D01*
G75*
G02*
X35085000Y-108397250I0J218750D01*
G01*
X35085000Y-107959750D01*
G75*
G02*
X35303750Y-107741000I218750J0D01*
G01*
X35816250Y-107741000D01*
G75*
G02*
X36035000Y-107959750I0J-218750D01*
G01*
X36035000Y-108397250D01*
G75*
G02*
X35816250Y-108616000I-218750J0D01*
G01*
G37*
G36*
G01*
X35816250Y-110191000D02*
X35303750Y-110191000D01*
G75*
G02*
X35085000Y-109972250I0J218750D01*
G01*
X35085000Y-109534750D01*
G75*
G02*
X35303750Y-109316000I218750J0D01*
G01*
X35816250Y-109316000D01*
G75*
G02*
X36035000Y-109534750I0J-218750D01*
G01*
X36035000Y-109972250D01*
G75*
G02*
X35816250Y-110191000I-218750J0D01*
G01*
G37*
%TD*%
%TO.C,D64*%
G36*
G01*
X297944250Y-90455000D02*
X297431750Y-90455000D01*
G75*
G02*
X297213000Y-90236250I0J218750D01*
G01*
X297213000Y-89798750D01*
G75*
G02*
X297431750Y-89580000I218750J0D01*
G01*
X297944250Y-89580000D01*
G75*
G02*
X298163000Y-89798750I0J-218750D01*
G01*
X298163000Y-90236250D01*
G75*
G02*
X297944250Y-90455000I-218750J0D01*
G01*
G37*
G36*
G01*
X297944250Y-92030000D02*
X297431750Y-92030000D01*
G75*
G02*
X297213000Y-91811250I0J218750D01*
G01*
X297213000Y-91373750D01*
G75*
G02*
X297431750Y-91155000I218750J0D01*
G01*
X297944250Y-91155000D01*
G75*
G02*
X298163000Y-91373750I0J-218750D01*
G01*
X298163000Y-91811250D01*
G75*
G02*
X297944250Y-92030000I-218750J0D01*
G01*
G37*
%TD*%
%TO.C,D62*%
G36*
G01*
X260098250Y-90455000D02*
X259585750Y-90455000D01*
G75*
G02*
X259367000Y-90236250I0J218750D01*
G01*
X259367000Y-89798750D01*
G75*
G02*
X259585750Y-89580000I218750J0D01*
G01*
X260098250Y-89580000D01*
G75*
G02*
X260317000Y-89798750I0J-218750D01*
G01*
X260317000Y-90236250D01*
G75*
G02*
X260098250Y-90455000I-218750J0D01*
G01*
G37*
G36*
G01*
X260098250Y-92030000D02*
X259585750Y-92030000D01*
G75*
G02*
X259367000Y-91811250I0J218750D01*
G01*
X259367000Y-91373750D01*
G75*
G02*
X259585750Y-91155000I218750J0D01*
G01*
X260098250Y-91155000D01*
G75*
G02*
X260317000Y-91373750I0J-218750D01*
G01*
X260317000Y-91811250D01*
G75*
G02*
X260098250Y-92030000I-218750J0D01*
G01*
G37*
%TD*%
%TO.C,D61*%
G36*
G01*
X245366250Y-90455000D02*
X244853750Y-90455000D01*
G75*
G02*
X244635000Y-90236250I0J218750D01*
G01*
X244635000Y-89798750D01*
G75*
G02*
X244853750Y-89580000I218750J0D01*
G01*
X245366250Y-89580000D01*
G75*
G02*
X245585000Y-89798750I0J-218750D01*
G01*
X245585000Y-90236250D01*
G75*
G02*
X245366250Y-90455000I-218750J0D01*
G01*
G37*
G36*
G01*
X245366250Y-92030000D02*
X244853750Y-92030000D01*
G75*
G02*
X244635000Y-91811250I0J218750D01*
G01*
X244635000Y-91373750D01*
G75*
G02*
X244853750Y-91155000I218750J0D01*
G01*
X245366250Y-91155000D01*
G75*
G02*
X245585000Y-91373750I0J-218750D01*
G01*
X245585000Y-91811250D01*
G75*
G02*
X245366250Y-92030000I-218750J0D01*
G01*
G37*
%TD*%
%TO.C,D60*%
G36*
G01*
X226316250Y-90455000D02*
X225803750Y-90455000D01*
G75*
G02*
X225585000Y-90236250I0J218750D01*
G01*
X225585000Y-89798750D01*
G75*
G02*
X225803750Y-89580000I218750J0D01*
G01*
X226316250Y-89580000D01*
G75*
G02*
X226535000Y-89798750I0J-218750D01*
G01*
X226535000Y-90236250D01*
G75*
G02*
X226316250Y-90455000I-218750J0D01*
G01*
G37*
G36*
G01*
X226316250Y-92030000D02*
X225803750Y-92030000D01*
G75*
G02*
X225585000Y-91811250I0J218750D01*
G01*
X225585000Y-91373750D01*
G75*
G02*
X225803750Y-91155000I218750J0D01*
G01*
X226316250Y-91155000D01*
G75*
G02*
X226535000Y-91373750I0J-218750D01*
G01*
X226535000Y-91811250D01*
G75*
G02*
X226316250Y-92030000I-218750J0D01*
G01*
G37*
%TD*%
%TO.C,D59*%
G36*
G01*
X208916250Y-90350000D02*
X208403750Y-90350000D01*
G75*
G02*
X208185000Y-90131250I0J218750D01*
G01*
X208185000Y-89693750D01*
G75*
G02*
X208403750Y-89475000I218750J0D01*
G01*
X208916250Y-89475000D01*
G75*
G02*
X209135000Y-89693750I0J-218750D01*
G01*
X209135000Y-90131250D01*
G75*
G02*
X208916250Y-90350000I-218750J0D01*
G01*
G37*
G36*
G01*
X208916250Y-91925000D02*
X208403750Y-91925000D01*
G75*
G02*
X208185000Y-91706250I0J218750D01*
G01*
X208185000Y-91268750D01*
G75*
G02*
X208403750Y-91050000I218750J0D01*
G01*
X208916250Y-91050000D01*
G75*
G02*
X209135000Y-91268750I0J-218750D01*
G01*
X209135000Y-91706250D01*
G75*
G02*
X208916250Y-91925000I-218750J0D01*
G01*
G37*
%TD*%
%TO.C,D58*%
G36*
G01*
X188216250Y-90455000D02*
X187703750Y-90455000D01*
G75*
G02*
X187485000Y-90236250I0J218750D01*
G01*
X187485000Y-89798750D01*
G75*
G02*
X187703750Y-89580000I218750J0D01*
G01*
X188216250Y-89580000D01*
G75*
G02*
X188435000Y-89798750I0J-218750D01*
G01*
X188435000Y-90236250D01*
G75*
G02*
X188216250Y-90455000I-218750J0D01*
G01*
G37*
G36*
G01*
X188216250Y-92030000D02*
X187703750Y-92030000D01*
G75*
G02*
X187485000Y-91811250I0J218750D01*
G01*
X187485000Y-91373750D01*
G75*
G02*
X187703750Y-91155000I218750J0D01*
G01*
X188216250Y-91155000D01*
G75*
G02*
X188435000Y-91373750I0J-218750D01*
G01*
X188435000Y-91811250D01*
G75*
G02*
X188216250Y-92030000I-218750J0D01*
G01*
G37*
%TD*%
%TO.C,D57*%
G36*
G01*
X169166250Y-90455000D02*
X168653750Y-90455000D01*
G75*
G02*
X168435000Y-90236250I0J218750D01*
G01*
X168435000Y-89798750D01*
G75*
G02*
X168653750Y-89580000I218750J0D01*
G01*
X169166250Y-89580000D01*
G75*
G02*
X169385000Y-89798750I0J-218750D01*
G01*
X169385000Y-90236250D01*
G75*
G02*
X169166250Y-90455000I-218750J0D01*
G01*
G37*
G36*
G01*
X169166250Y-92030000D02*
X168653750Y-92030000D01*
G75*
G02*
X168435000Y-91811250I0J218750D01*
G01*
X168435000Y-91373750D01*
G75*
G02*
X168653750Y-91155000I218750J0D01*
G01*
X169166250Y-91155000D01*
G75*
G02*
X169385000Y-91373750I0J-218750D01*
G01*
X169385000Y-91811250D01*
G75*
G02*
X169166250Y-92030000I-218750J0D01*
G01*
G37*
%TD*%
%TO.C,D56*%
G36*
G01*
X150116250Y-90455000D02*
X149603750Y-90455000D01*
G75*
G02*
X149385000Y-90236250I0J218750D01*
G01*
X149385000Y-89798750D01*
G75*
G02*
X149603750Y-89580000I218750J0D01*
G01*
X150116250Y-89580000D01*
G75*
G02*
X150335000Y-89798750I0J-218750D01*
G01*
X150335000Y-90236250D01*
G75*
G02*
X150116250Y-90455000I-218750J0D01*
G01*
G37*
G36*
G01*
X150116250Y-92030000D02*
X149603750Y-92030000D01*
G75*
G02*
X149385000Y-91811250I0J218750D01*
G01*
X149385000Y-91373750D01*
G75*
G02*
X149603750Y-91155000I218750J0D01*
G01*
X150116250Y-91155000D01*
G75*
G02*
X150335000Y-91373750I0J-218750D01*
G01*
X150335000Y-91811250D01*
G75*
G02*
X150116250Y-92030000I-218750J0D01*
G01*
G37*
%TD*%
%TO.C,D55*%
G36*
G01*
X131066250Y-90455000D02*
X130553750Y-90455000D01*
G75*
G02*
X130335000Y-90236250I0J218750D01*
G01*
X130335000Y-89798750D01*
G75*
G02*
X130553750Y-89580000I218750J0D01*
G01*
X131066250Y-89580000D01*
G75*
G02*
X131285000Y-89798750I0J-218750D01*
G01*
X131285000Y-90236250D01*
G75*
G02*
X131066250Y-90455000I-218750J0D01*
G01*
G37*
G36*
G01*
X131066250Y-92030000D02*
X130553750Y-92030000D01*
G75*
G02*
X130335000Y-91811250I0J218750D01*
G01*
X130335000Y-91373750D01*
G75*
G02*
X130553750Y-91155000I218750J0D01*
G01*
X131066250Y-91155000D01*
G75*
G02*
X131285000Y-91373750I0J-218750D01*
G01*
X131285000Y-91811250D01*
G75*
G02*
X131066250Y-92030000I-218750J0D01*
G01*
G37*
%TD*%
%TO.C,D54*%
G36*
G01*
X112016250Y-90455000D02*
X111503750Y-90455000D01*
G75*
G02*
X111285000Y-90236250I0J218750D01*
G01*
X111285000Y-89798750D01*
G75*
G02*
X111503750Y-89580000I218750J0D01*
G01*
X112016250Y-89580000D01*
G75*
G02*
X112235000Y-89798750I0J-218750D01*
G01*
X112235000Y-90236250D01*
G75*
G02*
X112016250Y-90455000I-218750J0D01*
G01*
G37*
G36*
G01*
X112016250Y-92030000D02*
X111503750Y-92030000D01*
G75*
G02*
X111285000Y-91811250I0J218750D01*
G01*
X111285000Y-91373750D01*
G75*
G02*
X111503750Y-91155000I218750J0D01*
G01*
X112016250Y-91155000D01*
G75*
G02*
X112235000Y-91373750I0J-218750D01*
G01*
X112235000Y-91811250D01*
G75*
G02*
X112016250Y-92030000I-218750J0D01*
G01*
G37*
%TD*%
%TO.C,D53*%
G36*
G01*
X92966250Y-90455000D02*
X92453750Y-90455000D01*
G75*
G02*
X92235000Y-90236250I0J218750D01*
G01*
X92235000Y-89798750D01*
G75*
G02*
X92453750Y-89580000I218750J0D01*
G01*
X92966250Y-89580000D01*
G75*
G02*
X93185000Y-89798750I0J-218750D01*
G01*
X93185000Y-90236250D01*
G75*
G02*
X92966250Y-90455000I-218750J0D01*
G01*
G37*
G36*
G01*
X92966250Y-92030000D02*
X92453750Y-92030000D01*
G75*
G02*
X92235000Y-91811250I0J218750D01*
G01*
X92235000Y-91373750D01*
G75*
G02*
X92453750Y-91155000I218750J0D01*
G01*
X92966250Y-91155000D01*
G75*
G02*
X93185000Y-91373750I0J-218750D01*
G01*
X93185000Y-91811250D01*
G75*
G02*
X92966250Y-92030000I-218750J0D01*
G01*
G37*
%TD*%
%TO.C,D52*%
G36*
G01*
X73916250Y-90455000D02*
X73403750Y-90455000D01*
G75*
G02*
X73185000Y-90236250I0J218750D01*
G01*
X73185000Y-89798750D01*
G75*
G02*
X73403750Y-89580000I218750J0D01*
G01*
X73916250Y-89580000D01*
G75*
G02*
X74135000Y-89798750I0J-218750D01*
G01*
X74135000Y-90236250D01*
G75*
G02*
X73916250Y-90455000I-218750J0D01*
G01*
G37*
G36*
G01*
X73916250Y-92030000D02*
X73403750Y-92030000D01*
G75*
G02*
X73185000Y-91811250I0J218750D01*
G01*
X73185000Y-91373750D01*
G75*
G02*
X73403750Y-91155000I218750J0D01*
G01*
X73916250Y-91155000D01*
G75*
G02*
X74135000Y-91373750I0J-218750D01*
G01*
X74135000Y-91811250D01*
G75*
G02*
X73916250Y-92030000I-218750J0D01*
G01*
G37*
%TD*%
%TO.C,D51*%
G36*
G01*
X59311250Y-90455000D02*
X58798750Y-90455000D01*
G75*
G02*
X58580000Y-90236250I0J218750D01*
G01*
X58580000Y-89798750D01*
G75*
G02*
X58798750Y-89580000I218750J0D01*
G01*
X59311250Y-89580000D01*
G75*
G02*
X59530000Y-89798750I0J-218750D01*
G01*
X59530000Y-90236250D01*
G75*
G02*
X59311250Y-90455000I-218750J0D01*
G01*
G37*
G36*
G01*
X59311250Y-92030000D02*
X58798750Y-92030000D01*
G75*
G02*
X58580000Y-91811250I0J218750D01*
G01*
X58580000Y-91373750D01*
G75*
G02*
X58798750Y-91155000I218750J0D01*
G01*
X59311250Y-91155000D01*
G75*
G02*
X59530000Y-91373750I0J-218750D01*
G01*
X59530000Y-91811250D01*
G75*
G02*
X59311250Y-92030000I-218750J0D01*
G01*
G37*
%TD*%
%TO.C,D49*%
G36*
G01*
X35562250Y-90328000D02*
X35049750Y-90328000D01*
G75*
G02*
X34831000Y-90109250I0J218750D01*
G01*
X34831000Y-89671750D01*
G75*
G02*
X35049750Y-89453000I218750J0D01*
G01*
X35562250Y-89453000D01*
G75*
G02*
X35781000Y-89671750I0J-218750D01*
G01*
X35781000Y-90109250D01*
G75*
G02*
X35562250Y-90328000I-218750J0D01*
G01*
G37*
G36*
G01*
X35562250Y-91903000D02*
X35049750Y-91903000D01*
G75*
G02*
X34831000Y-91684250I0J218750D01*
G01*
X34831000Y-91246750D01*
G75*
G02*
X35049750Y-91028000I218750J0D01*
G01*
X35562250Y-91028000D01*
G75*
G02*
X35781000Y-91246750I0J-218750D01*
G01*
X35781000Y-91684250D01*
G75*
G02*
X35562250Y-91903000I-218750J0D01*
G01*
G37*
%TD*%
%TO.C,D47*%
G36*
G01*
X293626250Y-66833000D02*
X293113750Y-66833000D01*
G75*
G02*
X292895000Y-66614250I0J218750D01*
G01*
X292895000Y-66176750D01*
G75*
G02*
X293113750Y-65958000I218750J0D01*
G01*
X293626250Y-65958000D01*
G75*
G02*
X293845000Y-66176750I0J-218750D01*
G01*
X293845000Y-66614250D01*
G75*
G02*
X293626250Y-66833000I-218750J0D01*
G01*
G37*
G36*
G01*
X293626250Y-68408000D02*
X293113750Y-68408000D01*
G75*
G02*
X292895000Y-68189250I0J218750D01*
G01*
X292895000Y-67751750D01*
G75*
G02*
X293113750Y-67533000I218750J0D01*
G01*
X293626250Y-67533000D01*
G75*
G02*
X293845000Y-67751750I0J-218750D01*
G01*
X293845000Y-68189250D01*
G75*
G02*
X293626250Y-68408000I-218750J0D01*
G01*
G37*
%TD*%
%TO.C,D46*%
G36*
G01*
X276608250Y-71405000D02*
X276095750Y-71405000D01*
G75*
G02*
X275877000Y-71186250I0J218750D01*
G01*
X275877000Y-70748750D01*
G75*
G02*
X276095750Y-70530000I218750J0D01*
G01*
X276608250Y-70530000D01*
G75*
G02*
X276827000Y-70748750I0J-218750D01*
G01*
X276827000Y-71186250D01*
G75*
G02*
X276608250Y-71405000I-218750J0D01*
G01*
G37*
G36*
G01*
X276608250Y-72980000D02*
X276095750Y-72980000D01*
G75*
G02*
X275877000Y-72761250I0J218750D01*
G01*
X275877000Y-72323750D01*
G75*
G02*
X276095750Y-72105000I218750J0D01*
G01*
X276608250Y-72105000D01*
G75*
G02*
X276827000Y-72323750I0J-218750D01*
G01*
X276827000Y-72761250D01*
G75*
G02*
X276608250Y-72980000I-218750J0D01*
G01*
G37*
%TD*%
%TO.C,D45*%
G36*
G01*
X255018250Y-71660000D02*
X254505750Y-71660000D01*
G75*
G02*
X254287000Y-71441250I0J218750D01*
G01*
X254287000Y-71003750D01*
G75*
G02*
X254505750Y-70785000I218750J0D01*
G01*
X255018250Y-70785000D01*
G75*
G02*
X255237000Y-71003750I0J-218750D01*
G01*
X255237000Y-71441250D01*
G75*
G02*
X255018250Y-71660000I-218750J0D01*
G01*
G37*
G36*
G01*
X255018250Y-73235000D02*
X254505750Y-73235000D01*
G75*
G02*
X254287000Y-73016250I0J218750D01*
G01*
X254287000Y-72578750D01*
G75*
G02*
X254505750Y-72360000I218750J0D01*
G01*
X255018250Y-72360000D01*
G75*
G02*
X255237000Y-72578750I0J-218750D01*
G01*
X255237000Y-73016250D01*
G75*
G02*
X255018250Y-73235000I-218750J0D01*
G01*
G37*
%TD*%
%TO.C,D44*%
G36*
G01*
X235968250Y-71660000D02*
X235455750Y-71660000D01*
G75*
G02*
X235237000Y-71441250I0J218750D01*
G01*
X235237000Y-71003750D01*
G75*
G02*
X235455750Y-70785000I218750J0D01*
G01*
X235968250Y-70785000D01*
G75*
G02*
X236187000Y-71003750I0J-218750D01*
G01*
X236187000Y-71441250D01*
G75*
G02*
X235968250Y-71660000I-218750J0D01*
G01*
G37*
G36*
G01*
X235968250Y-73235000D02*
X235455750Y-73235000D01*
G75*
G02*
X235237000Y-73016250I0J218750D01*
G01*
X235237000Y-72578750D01*
G75*
G02*
X235455750Y-72360000I218750J0D01*
G01*
X235968250Y-72360000D01*
G75*
G02*
X236187000Y-72578750I0J-218750D01*
G01*
X236187000Y-73016250D01*
G75*
G02*
X235968250Y-73235000I-218750J0D01*
G01*
G37*
%TD*%
%TO.C,D43*%
G36*
G01*
X216918250Y-71660000D02*
X216405750Y-71660000D01*
G75*
G02*
X216187000Y-71441250I0J218750D01*
G01*
X216187000Y-71003750D01*
G75*
G02*
X216405750Y-70785000I218750J0D01*
G01*
X216918250Y-70785000D01*
G75*
G02*
X217137000Y-71003750I0J-218750D01*
G01*
X217137000Y-71441250D01*
G75*
G02*
X216918250Y-71660000I-218750J0D01*
G01*
G37*
G36*
G01*
X216918250Y-73235000D02*
X216405750Y-73235000D01*
G75*
G02*
X216187000Y-73016250I0J218750D01*
G01*
X216187000Y-72578750D01*
G75*
G02*
X216405750Y-72360000I218750J0D01*
G01*
X216918250Y-72360000D01*
G75*
G02*
X217137000Y-72578750I0J-218750D01*
G01*
X217137000Y-73016250D01*
G75*
G02*
X216918250Y-73235000I-218750J0D01*
G01*
G37*
%TD*%
%TO.C,D42*%
G36*
G01*
X197868250Y-71660000D02*
X197355750Y-71660000D01*
G75*
G02*
X197137000Y-71441250I0J218750D01*
G01*
X197137000Y-71003750D01*
G75*
G02*
X197355750Y-70785000I218750J0D01*
G01*
X197868250Y-70785000D01*
G75*
G02*
X198087000Y-71003750I0J-218750D01*
G01*
X198087000Y-71441250D01*
G75*
G02*
X197868250Y-71660000I-218750J0D01*
G01*
G37*
G36*
G01*
X197868250Y-73235000D02*
X197355750Y-73235000D01*
G75*
G02*
X197137000Y-73016250I0J218750D01*
G01*
X197137000Y-72578750D01*
G75*
G02*
X197355750Y-72360000I218750J0D01*
G01*
X197868250Y-72360000D01*
G75*
G02*
X198087000Y-72578750I0J-218750D01*
G01*
X198087000Y-73016250D01*
G75*
G02*
X197868250Y-73235000I-218750J0D01*
G01*
G37*
%TD*%
%TO.C,D41*%
G36*
G01*
X178818250Y-71660000D02*
X178305750Y-71660000D01*
G75*
G02*
X178087000Y-71441250I0J218750D01*
G01*
X178087000Y-71003750D01*
G75*
G02*
X178305750Y-70785000I218750J0D01*
G01*
X178818250Y-70785000D01*
G75*
G02*
X179037000Y-71003750I0J-218750D01*
G01*
X179037000Y-71441250D01*
G75*
G02*
X178818250Y-71660000I-218750J0D01*
G01*
G37*
G36*
G01*
X178818250Y-73235000D02*
X178305750Y-73235000D01*
G75*
G02*
X178087000Y-73016250I0J218750D01*
G01*
X178087000Y-72578750D01*
G75*
G02*
X178305750Y-72360000I218750J0D01*
G01*
X178818250Y-72360000D01*
G75*
G02*
X179037000Y-72578750I0J-218750D01*
G01*
X179037000Y-73016250D01*
G75*
G02*
X178818250Y-73235000I-218750J0D01*
G01*
G37*
%TD*%
%TO.C,D40*%
G36*
G01*
X159768250Y-71660000D02*
X159255750Y-71660000D01*
G75*
G02*
X159037000Y-71441250I0J218750D01*
G01*
X159037000Y-71003750D01*
G75*
G02*
X159255750Y-70785000I218750J0D01*
G01*
X159768250Y-70785000D01*
G75*
G02*
X159987000Y-71003750I0J-218750D01*
G01*
X159987000Y-71441250D01*
G75*
G02*
X159768250Y-71660000I-218750J0D01*
G01*
G37*
G36*
G01*
X159768250Y-73235000D02*
X159255750Y-73235000D01*
G75*
G02*
X159037000Y-73016250I0J218750D01*
G01*
X159037000Y-72578750D01*
G75*
G02*
X159255750Y-72360000I218750J0D01*
G01*
X159768250Y-72360000D01*
G75*
G02*
X159987000Y-72578750I0J-218750D01*
G01*
X159987000Y-73016250D01*
G75*
G02*
X159768250Y-73235000I-218750J0D01*
G01*
G37*
%TD*%
%TO.C,D39*%
G36*
G01*
X140718250Y-71660000D02*
X140205750Y-71660000D01*
G75*
G02*
X139987000Y-71441250I0J218750D01*
G01*
X139987000Y-71003750D01*
G75*
G02*
X140205750Y-70785000I218750J0D01*
G01*
X140718250Y-70785000D01*
G75*
G02*
X140937000Y-71003750I0J-218750D01*
G01*
X140937000Y-71441250D01*
G75*
G02*
X140718250Y-71660000I-218750J0D01*
G01*
G37*
G36*
G01*
X140718250Y-73235000D02*
X140205750Y-73235000D01*
G75*
G02*
X139987000Y-73016250I0J218750D01*
G01*
X139987000Y-72578750D01*
G75*
G02*
X140205750Y-72360000I218750J0D01*
G01*
X140718250Y-72360000D01*
G75*
G02*
X140937000Y-72578750I0J-218750D01*
G01*
X140937000Y-73016250D01*
G75*
G02*
X140718250Y-73235000I-218750J0D01*
G01*
G37*
%TD*%
%TO.C,D38*%
G36*
G01*
X121668250Y-71660000D02*
X121155750Y-71660000D01*
G75*
G02*
X120937000Y-71441250I0J218750D01*
G01*
X120937000Y-71003750D01*
G75*
G02*
X121155750Y-70785000I218750J0D01*
G01*
X121668250Y-70785000D01*
G75*
G02*
X121887000Y-71003750I0J-218750D01*
G01*
X121887000Y-71441250D01*
G75*
G02*
X121668250Y-71660000I-218750J0D01*
G01*
G37*
G36*
G01*
X121668250Y-73235000D02*
X121155750Y-73235000D01*
G75*
G02*
X120937000Y-73016250I0J218750D01*
G01*
X120937000Y-72578750D01*
G75*
G02*
X121155750Y-72360000I218750J0D01*
G01*
X121668250Y-72360000D01*
G75*
G02*
X121887000Y-72578750I0J-218750D01*
G01*
X121887000Y-73016250D01*
G75*
G02*
X121668250Y-73235000I-218750J0D01*
G01*
G37*
%TD*%
%TO.C,D37*%
G36*
G01*
X102618250Y-71660000D02*
X102105750Y-71660000D01*
G75*
G02*
X101887000Y-71441250I0J218750D01*
G01*
X101887000Y-71003750D01*
G75*
G02*
X102105750Y-70785000I218750J0D01*
G01*
X102618250Y-70785000D01*
G75*
G02*
X102837000Y-71003750I0J-218750D01*
G01*
X102837000Y-71441250D01*
G75*
G02*
X102618250Y-71660000I-218750J0D01*
G01*
G37*
G36*
G01*
X102618250Y-73235000D02*
X102105750Y-73235000D01*
G75*
G02*
X101887000Y-73016250I0J218750D01*
G01*
X101887000Y-72578750D01*
G75*
G02*
X102105750Y-72360000I218750J0D01*
G01*
X102618250Y-72360000D01*
G75*
G02*
X102837000Y-72578750I0J-218750D01*
G01*
X102837000Y-73016250D01*
G75*
G02*
X102618250Y-73235000I-218750J0D01*
G01*
G37*
%TD*%
%TO.C,D36*%
G36*
G01*
X83568250Y-71660000D02*
X83055750Y-71660000D01*
G75*
G02*
X82837000Y-71441250I0J218750D01*
G01*
X82837000Y-71003750D01*
G75*
G02*
X83055750Y-70785000I218750J0D01*
G01*
X83568250Y-70785000D01*
G75*
G02*
X83787000Y-71003750I0J-218750D01*
G01*
X83787000Y-71441250D01*
G75*
G02*
X83568250Y-71660000I-218750J0D01*
G01*
G37*
G36*
G01*
X83568250Y-73235000D02*
X83055750Y-73235000D01*
G75*
G02*
X82837000Y-73016250I0J218750D01*
G01*
X82837000Y-72578750D01*
G75*
G02*
X83055750Y-72360000I218750J0D01*
G01*
X83568250Y-72360000D01*
G75*
G02*
X83787000Y-72578750I0J-218750D01*
G01*
X83787000Y-73016250D01*
G75*
G02*
X83568250Y-73235000I-218750J0D01*
G01*
G37*
%TD*%
%TO.C,D35*%
G36*
G01*
X64518250Y-71660000D02*
X64005750Y-71660000D01*
G75*
G02*
X63787000Y-71441250I0J218750D01*
G01*
X63787000Y-71003750D01*
G75*
G02*
X64005750Y-70785000I218750J0D01*
G01*
X64518250Y-70785000D01*
G75*
G02*
X64737000Y-71003750I0J-218750D01*
G01*
X64737000Y-71441250D01*
G75*
G02*
X64518250Y-71660000I-218750J0D01*
G01*
G37*
G36*
G01*
X64518250Y-73235000D02*
X64005750Y-73235000D01*
G75*
G02*
X63787000Y-73016250I0J218750D01*
G01*
X63787000Y-72578750D01*
G75*
G02*
X64005750Y-72360000I218750J0D01*
G01*
X64518250Y-72360000D01*
G75*
G02*
X64737000Y-72578750I0J-218750D01*
G01*
X64737000Y-73016250D01*
G75*
G02*
X64518250Y-73235000I-218750J0D01*
G01*
G37*
%TD*%
%TO.C,D33*%
G36*
G01*
X38286250Y-71640000D02*
X37773750Y-71640000D01*
G75*
G02*
X37555000Y-71421250I0J218750D01*
G01*
X37555000Y-70983750D01*
G75*
G02*
X37773750Y-70765000I218750J0D01*
G01*
X38286250Y-70765000D01*
G75*
G02*
X38505000Y-70983750I0J-218750D01*
G01*
X38505000Y-71421250D01*
G75*
G02*
X38286250Y-71640000I-218750J0D01*
G01*
G37*
G36*
G01*
X38286250Y-73215000D02*
X37773750Y-73215000D01*
G75*
G02*
X37555000Y-72996250I0J218750D01*
G01*
X37555000Y-72558750D01*
G75*
G02*
X37773750Y-72340000I218750J0D01*
G01*
X38286250Y-72340000D01*
G75*
G02*
X38505000Y-72558750I0J-218750D01*
G01*
X38505000Y-72996250D01*
G75*
G02*
X38286250Y-73215000I-218750J0D01*
G01*
G37*
%TD*%
%TO.C,D32*%
G36*
G01*
X281815250Y-52482000D02*
X281302750Y-52482000D01*
G75*
G02*
X281084000Y-52263250I0J218750D01*
G01*
X281084000Y-51825750D01*
G75*
G02*
X281302750Y-51607000I218750J0D01*
G01*
X281815250Y-51607000D01*
G75*
G02*
X282034000Y-51825750I0J-218750D01*
G01*
X282034000Y-52263250D01*
G75*
G02*
X281815250Y-52482000I-218750J0D01*
G01*
G37*
G36*
G01*
X281815250Y-54057000D02*
X281302750Y-54057000D01*
G75*
G02*
X281084000Y-53838250I0J218750D01*
G01*
X281084000Y-53400750D01*
G75*
G02*
X281302750Y-53182000I218750J0D01*
G01*
X281815250Y-53182000D01*
G75*
G02*
X282034000Y-53400750I0J-218750D01*
G01*
X282034000Y-53838250D01*
G75*
G02*
X281815250Y-54057000I-218750J0D01*
G01*
G37*
%TD*%
%TO.C,D31*%
G36*
G01*
X269242250Y-52482000D02*
X268729750Y-52482000D01*
G75*
G02*
X268511000Y-52263250I0J218750D01*
G01*
X268511000Y-51825750D01*
G75*
G02*
X268729750Y-51607000I218750J0D01*
G01*
X269242250Y-51607000D01*
G75*
G02*
X269461000Y-51825750I0J-218750D01*
G01*
X269461000Y-52263250D01*
G75*
G02*
X269242250Y-52482000I-218750J0D01*
G01*
G37*
G36*
G01*
X269242250Y-54057000D02*
X268729750Y-54057000D01*
G75*
G02*
X268511000Y-53838250I0J218750D01*
G01*
X268511000Y-53400750D01*
G75*
G02*
X268729750Y-53182000I218750J0D01*
G01*
X269242250Y-53182000D01*
G75*
G02*
X269461000Y-53400750I0J-218750D01*
G01*
X269461000Y-53838250D01*
G75*
G02*
X269242250Y-54057000I-218750J0D01*
G01*
G37*
%TD*%
%TO.C,D30*%
G36*
G01*
X250192250Y-52482000D02*
X249679750Y-52482000D01*
G75*
G02*
X249461000Y-52263250I0J218750D01*
G01*
X249461000Y-51825750D01*
G75*
G02*
X249679750Y-51607000I218750J0D01*
G01*
X250192250Y-51607000D01*
G75*
G02*
X250411000Y-51825750I0J-218750D01*
G01*
X250411000Y-52263250D01*
G75*
G02*
X250192250Y-52482000I-218750J0D01*
G01*
G37*
G36*
G01*
X250192250Y-54057000D02*
X249679750Y-54057000D01*
G75*
G02*
X249461000Y-53838250I0J218750D01*
G01*
X249461000Y-53400750D01*
G75*
G02*
X249679750Y-53182000I218750J0D01*
G01*
X250192250Y-53182000D01*
G75*
G02*
X250411000Y-53400750I0J-218750D01*
G01*
X250411000Y-53838250D01*
G75*
G02*
X250192250Y-54057000I-218750J0D01*
G01*
G37*
%TD*%
%TO.C,D29*%
G36*
G01*
X231142250Y-52482000D02*
X230629750Y-52482000D01*
G75*
G02*
X230411000Y-52263250I0J218750D01*
G01*
X230411000Y-51825750D01*
G75*
G02*
X230629750Y-51607000I218750J0D01*
G01*
X231142250Y-51607000D01*
G75*
G02*
X231361000Y-51825750I0J-218750D01*
G01*
X231361000Y-52263250D01*
G75*
G02*
X231142250Y-52482000I-218750J0D01*
G01*
G37*
G36*
G01*
X231142250Y-54057000D02*
X230629750Y-54057000D01*
G75*
G02*
X230411000Y-53838250I0J218750D01*
G01*
X230411000Y-53400750D01*
G75*
G02*
X230629750Y-53182000I218750J0D01*
G01*
X231142250Y-53182000D01*
G75*
G02*
X231361000Y-53400750I0J-218750D01*
G01*
X231361000Y-53838250D01*
G75*
G02*
X231142250Y-54057000I-218750J0D01*
G01*
G37*
%TD*%
%TO.C,D28*%
G36*
G01*
X212092250Y-52482000D02*
X211579750Y-52482000D01*
G75*
G02*
X211361000Y-52263250I0J218750D01*
G01*
X211361000Y-51825750D01*
G75*
G02*
X211579750Y-51607000I218750J0D01*
G01*
X212092250Y-51607000D01*
G75*
G02*
X212311000Y-51825750I0J-218750D01*
G01*
X212311000Y-52263250D01*
G75*
G02*
X212092250Y-52482000I-218750J0D01*
G01*
G37*
G36*
G01*
X212092250Y-54057000D02*
X211579750Y-54057000D01*
G75*
G02*
X211361000Y-53838250I0J218750D01*
G01*
X211361000Y-53400750D01*
G75*
G02*
X211579750Y-53182000I218750J0D01*
G01*
X212092250Y-53182000D01*
G75*
G02*
X212311000Y-53400750I0J-218750D01*
G01*
X212311000Y-53838250D01*
G75*
G02*
X212092250Y-54057000I-218750J0D01*
G01*
G37*
%TD*%
%TO.C,D27*%
G36*
G01*
X193042250Y-52482000D02*
X192529750Y-52482000D01*
G75*
G02*
X192311000Y-52263250I0J218750D01*
G01*
X192311000Y-51825750D01*
G75*
G02*
X192529750Y-51607000I218750J0D01*
G01*
X193042250Y-51607000D01*
G75*
G02*
X193261000Y-51825750I0J-218750D01*
G01*
X193261000Y-52263250D01*
G75*
G02*
X193042250Y-52482000I-218750J0D01*
G01*
G37*
G36*
G01*
X193042250Y-54057000D02*
X192529750Y-54057000D01*
G75*
G02*
X192311000Y-53838250I0J218750D01*
G01*
X192311000Y-53400750D01*
G75*
G02*
X192529750Y-53182000I218750J0D01*
G01*
X193042250Y-53182000D01*
G75*
G02*
X193261000Y-53400750I0J-218750D01*
G01*
X193261000Y-53838250D01*
G75*
G02*
X193042250Y-54057000I-218750J0D01*
G01*
G37*
%TD*%
%TO.C,D26*%
G36*
G01*
X173992250Y-52482000D02*
X173479750Y-52482000D01*
G75*
G02*
X173261000Y-52263250I0J218750D01*
G01*
X173261000Y-51825750D01*
G75*
G02*
X173479750Y-51607000I218750J0D01*
G01*
X173992250Y-51607000D01*
G75*
G02*
X174211000Y-51825750I0J-218750D01*
G01*
X174211000Y-52263250D01*
G75*
G02*
X173992250Y-52482000I-218750J0D01*
G01*
G37*
G36*
G01*
X173992250Y-54057000D02*
X173479750Y-54057000D01*
G75*
G02*
X173261000Y-53838250I0J218750D01*
G01*
X173261000Y-53400750D01*
G75*
G02*
X173479750Y-53182000I218750J0D01*
G01*
X173992250Y-53182000D01*
G75*
G02*
X174211000Y-53400750I0J-218750D01*
G01*
X174211000Y-53838250D01*
G75*
G02*
X173992250Y-54057000I-218750J0D01*
G01*
G37*
%TD*%
%TO.C,D25*%
G36*
G01*
X154942250Y-52482000D02*
X154429750Y-52482000D01*
G75*
G02*
X154211000Y-52263250I0J218750D01*
G01*
X154211000Y-51825750D01*
G75*
G02*
X154429750Y-51607000I218750J0D01*
G01*
X154942250Y-51607000D01*
G75*
G02*
X155161000Y-51825750I0J-218750D01*
G01*
X155161000Y-52263250D01*
G75*
G02*
X154942250Y-52482000I-218750J0D01*
G01*
G37*
G36*
G01*
X154942250Y-54057000D02*
X154429750Y-54057000D01*
G75*
G02*
X154211000Y-53838250I0J218750D01*
G01*
X154211000Y-53400750D01*
G75*
G02*
X154429750Y-53182000I218750J0D01*
G01*
X154942250Y-53182000D01*
G75*
G02*
X155161000Y-53400750I0J-218750D01*
G01*
X155161000Y-53838250D01*
G75*
G02*
X154942250Y-54057000I-218750J0D01*
G01*
G37*
%TD*%
%TO.C,D24*%
G36*
G01*
X135892250Y-52482000D02*
X135379750Y-52482000D01*
G75*
G02*
X135161000Y-52263250I0J218750D01*
G01*
X135161000Y-51825750D01*
G75*
G02*
X135379750Y-51607000I218750J0D01*
G01*
X135892250Y-51607000D01*
G75*
G02*
X136111000Y-51825750I0J-218750D01*
G01*
X136111000Y-52263250D01*
G75*
G02*
X135892250Y-52482000I-218750J0D01*
G01*
G37*
G36*
G01*
X135892250Y-54057000D02*
X135379750Y-54057000D01*
G75*
G02*
X135161000Y-53838250I0J218750D01*
G01*
X135161000Y-53400750D01*
G75*
G02*
X135379750Y-53182000I218750J0D01*
G01*
X135892250Y-53182000D01*
G75*
G02*
X136111000Y-53400750I0J-218750D01*
G01*
X136111000Y-53838250D01*
G75*
G02*
X135892250Y-54057000I-218750J0D01*
G01*
G37*
%TD*%
%TO.C,D23*%
G36*
G01*
X116842250Y-52482000D02*
X116329750Y-52482000D01*
G75*
G02*
X116111000Y-52263250I0J218750D01*
G01*
X116111000Y-51825750D01*
G75*
G02*
X116329750Y-51607000I218750J0D01*
G01*
X116842250Y-51607000D01*
G75*
G02*
X117061000Y-51825750I0J-218750D01*
G01*
X117061000Y-52263250D01*
G75*
G02*
X116842250Y-52482000I-218750J0D01*
G01*
G37*
G36*
G01*
X116842250Y-54057000D02*
X116329750Y-54057000D01*
G75*
G02*
X116111000Y-53838250I0J218750D01*
G01*
X116111000Y-53400750D01*
G75*
G02*
X116329750Y-53182000I218750J0D01*
G01*
X116842250Y-53182000D01*
G75*
G02*
X117061000Y-53400750I0J-218750D01*
G01*
X117061000Y-53838250D01*
G75*
G02*
X116842250Y-54057000I-218750J0D01*
G01*
G37*
%TD*%
%TO.C,D22*%
G36*
G01*
X97792250Y-52482000D02*
X97279750Y-52482000D01*
G75*
G02*
X97061000Y-52263250I0J218750D01*
G01*
X97061000Y-51825750D01*
G75*
G02*
X97279750Y-51607000I218750J0D01*
G01*
X97792250Y-51607000D01*
G75*
G02*
X98011000Y-51825750I0J-218750D01*
G01*
X98011000Y-52263250D01*
G75*
G02*
X97792250Y-52482000I-218750J0D01*
G01*
G37*
G36*
G01*
X97792250Y-54057000D02*
X97279750Y-54057000D01*
G75*
G02*
X97061000Y-53838250I0J218750D01*
G01*
X97061000Y-53400750D01*
G75*
G02*
X97279750Y-53182000I218750J0D01*
G01*
X97792250Y-53182000D01*
G75*
G02*
X98011000Y-53400750I0J-218750D01*
G01*
X98011000Y-53838250D01*
G75*
G02*
X97792250Y-54057000I-218750J0D01*
G01*
G37*
%TD*%
%TO.C,D21*%
G36*
G01*
X78742250Y-52482000D02*
X78229750Y-52482000D01*
G75*
G02*
X78011000Y-52263250I0J218750D01*
G01*
X78011000Y-51825750D01*
G75*
G02*
X78229750Y-51607000I218750J0D01*
G01*
X78742250Y-51607000D01*
G75*
G02*
X78961000Y-51825750I0J-218750D01*
G01*
X78961000Y-52263250D01*
G75*
G02*
X78742250Y-52482000I-218750J0D01*
G01*
G37*
G36*
G01*
X78742250Y-54057000D02*
X78229750Y-54057000D01*
G75*
G02*
X78011000Y-53838250I0J218750D01*
G01*
X78011000Y-53400750D01*
G75*
G02*
X78229750Y-53182000I218750J0D01*
G01*
X78742250Y-53182000D01*
G75*
G02*
X78961000Y-53400750I0J-218750D01*
G01*
X78961000Y-53838250D01*
G75*
G02*
X78742250Y-54057000I-218750J0D01*
G01*
G37*
%TD*%
%TO.C,D20*%
G36*
G01*
X59692250Y-52482000D02*
X59179750Y-52482000D01*
G75*
G02*
X58961000Y-52263250I0J218750D01*
G01*
X58961000Y-51825750D01*
G75*
G02*
X59179750Y-51607000I218750J0D01*
G01*
X59692250Y-51607000D01*
G75*
G02*
X59911000Y-51825750I0J-218750D01*
G01*
X59911000Y-52263250D01*
G75*
G02*
X59692250Y-52482000I-218750J0D01*
G01*
G37*
G36*
G01*
X59692250Y-54057000D02*
X59179750Y-54057000D01*
G75*
G02*
X58961000Y-53838250I0J218750D01*
G01*
X58961000Y-53400750D01*
G75*
G02*
X59179750Y-53182000I218750J0D01*
G01*
X59692250Y-53182000D01*
G75*
G02*
X59911000Y-53400750I0J-218750D01*
G01*
X59911000Y-53838250D01*
G75*
G02*
X59692250Y-54057000I-218750J0D01*
G01*
G37*
%TD*%
%TO.C,D19*%
G36*
G01*
X35886250Y-52470000D02*
X35373750Y-52470000D01*
G75*
G02*
X35155000Y-52251250I0J218750D01*
G01*
X35155000Y-51813750D01*
G75*
G02*
X35373750Y-51595000I218750J0D01*
G01*
X35886250Y-51595000D01*
G75*
G02*
X36105000Y-51813750I0J-218750D01*
G01*
X36105000Y-52251250D01*
G75*
G02*
X35886250Y-52470000I-218750J0D01*
G01*
G37*
G36*
G01*
X35886250Y-54045000D02*
X35373750Y-54045000D01*
G75*
G02*
X35155000Y-53826250I0J218750D01*
G01*
X35155000Y-53388750D01*
G75*
G02*
X35373750Y-53170000I218750J0D01*
G01*
X35886250Y-53170000D01*
G75*
G02*
X36105000Y-53388750I0J-218750D01*
G01*
X36105000Y-53826250D01*
G75*
G02*
X35886250Y-54045000I-218750J0D01*
G01*
G37*
%TD*%
%TO.C,D18*%
G36*
G01*
X290070250Y-33305000D02*
X289557750Y-33305000D01*
G75*
G02*
X289339000Y-33086250I0J218750D01*
G01*
X289339000Y-32648750D01*
G75*
G02*
X289557750Y-32430000I218750J0D01*
G01*
X290070250Y-32430000D01*
G75*
G02*
X290289000Y-32648750I0J-218750D01*
G01*
X290289000Y-33086250D01*
G75*
G02*
X290070250Y-33305000I-218750J0D01*
G01*
G37*
G36*
G01*
X290070250Y-34880000D02*
X289557750Y-34880000D01*
G75*
G02*
X289339000Y-34661250I0J218750D01*
G01*
X289339000Y-34223750D01*
G75*
G02*
X289557750Y-34005000I218750J0D01*
G01*
X290070250Y-34005000D01*
G75*
G02*
X290289000Y-34223750I0J-218750D01*
G01*
X290289000Y-34661250D01*
G75*
G02*
X290070250Y-34880000I-218750J0D01*
G01*
G37*
%TD*%
%TO.C,D16*%
G36*
G01*
X281307250Y-33305000D02*
X280794750Y-33305000D01*
G75*
G02*
X280576000Y-33086250I0J218750D01*
G01*
X280576000Y-32648750D01*
G75*
G02*
X280794750Y-32430000I218750J0D01*
G01*
X281307250Y-32430000D01*
G75*
G02*
X281526000Y-32648750I0J-218750D01*
G01*
X281526000Y-33086250D01*
G75*
G02*
X281307250Y-33305000I-218750J0D01*
G01*
G37*
G36*
G01*
X281307250Y-34880000D02*
X280794750Y-34880000D01*
G75*
G02*
X280576000Y-34661250I0J218750D01*
G01*
X280576000Y-34223750D01*
G75*
G02*
X280794750Y-34005000I218750J0D01*
G01*
X281307250Y-34005000D01*
G75*
G02*
X281526000Y-34223750I0J-218750D01*
G01*
X281526000Y-34661250D01*
G75*
G02*
X281307250Y-34880000I-218750J0D01*
G01*
G37*
%TD*%
%TO.C,D15*%
G36*
G01*
X259717250Y-33305000D02*
X259204750Y-33305000D01*
G75*
G02*
X258986000Y-33086250I0J218750D01*
G01*
X258986000Y-32648750D01*
G75*
G02*
X259204750Y-32430000I218750J0D01*
G01*
X259717250Y-32430000D01*
G75*
G02*
X259936000Y-32648750I0J-218750D01*
G01*
X259936000Y-33086250D01*
G75*
G02*
X259717250Y-33305000I-218750J0D01*
G01*
G37*
G36*
G01*
X259717250Y-34880000D02*
X259204750Y-34880000D01*
G75*
G02*
X258986000Y-34661250I0J218750D01*
G01*
X258986000Y-34223750D01*
G75*
G02*
X259204750Y-34005000I218750J0D01*
G01*
X259717250Y-34005000D01*
G75*
G02*
X259936000Y-34223750I0J-218750D01*
G01*
X259936000Y-34661250D01*
G75*
G02*
X259717250Y-34880000I-218750J0D01*
G01*
G37*
%TD*%
%TO.C,D14*%
G36*
G01*
X240667250Y-33305000D02*
X240154750Y-33305000D01*
G75*
G02*
X239936000Y-33086250I0J218750D01*
G01*
X239936000Y-32648750D01*
G75*
G02*
X240154750Y-32430000I218750J0D01*
G01*
X240667250Y-32430000D01*
G75*
G02*
X240886000Y-32648750I0J-218750D01*
G01*
X240886000Y-33086250D01*
G75*
G02*
X240667250Y-33305000I-218750J0D01*
G01*
G37*
G36*
G01*
X240667250Y-34880000D02*
X240154750Y-34880000D01*
G75*
G02*
X239936000Y-34661250I0J218750D01*
G01*
X239936000Y-34223750D01*
G75*
G02*
X240154750Y-34005000I218750J0D01*
G01*
X240667250Y-34005000D01*
G75*
G02*
X240886000Y-34223750I0J-218750D01*
G01*
X240886000Y-34661250D01*
G75*
G02*
X240667250Y-34880000I-218750J0D01*
G01*
G37*
%TD*%
%TO.C,D13*%
G36*
G01*
X221617250Y-33305000D02*
X221104750Y-33305000D01*
G75*
G02*
X220886000Y-33086250I0J218750D01*
G01*
X220886000Y-32648750D01*
G75*
G02*
X221104750Y-32430000I218750J0D01*
G01*
X221617250Y-32430000D01*
G75*
G02*
X221836000Y-32648750I0J-218750D01*
G01*
X221836000Y-33086250D01*
G75*
G02*
X221617250Y-33305000I-218750J0D01*
G01*
G37*
G36*
G01*
X221617250Y-34880000D02*
X221104750Y-34880000D01*
G75*
G02*
X220886000Y-34661250I0J218750D01*
G01*
X220886000Y-34223750D01*
G75*
G02*
X221104750Y-34005000I218750J0D01*
G01*
X221617250Y-34005000D01*
G75*
G02*
X221836000Y-34223750I0J-218750D01*
G01*
X221836000Y-34661250D01*
G75*
G02*
X221617250Y-34880000I-218750J0D01*
G01*
G37*
%TD*%
%TO.C,D12*%
G36*
G01*
X202567250Y-33305000D02*
X202054750Y-33305000D01*
G75*
G02*
X201836000Y-33086250I0J218750D01*
G01*
X201836000Y-32648750D01*
G75*
G02*
X202054750Y-32430000I218750J0D01*
G01*
X202567250Y-32430000D01*
G75*
G02*
X202786000Y-32648750I0J-218750D01*
G01*
X202786000Y-33086250D01*
G75*
G02*
X202567250Y-33305000I-218750J0D01*
G01*
G37*
G36*
G01*
X202567250Y-34880000D02*
X202054750Y-34880000D01*
G75*
G02*
X201836000Y-34661250I0J218750D01*
G01*
X201836000Y-34223750D01*
G75*
G02*
X202054750Y-34005000I218750J0D01*
G01*
X202567250Y-34005000D01*
G75*
G02*
X202786000Y-34223750I0J-218750D01*
G01*
X202786000Y-34661250D01*
G75*
G02*
X202567250Y-34880000I-218750J0D01*
G01*
G37*
%TD*%
%TO.C,D11*%
G36*
G01*
X183517250Y-33305000D02*
X183004750Y-33305000D01*
G75*
G02*
X182786000Y-33086250I0J218750D01*
G01*
X182786000Y-32648750D01*
G75*
G02*
X183004750Y-32430000I218750J0D01*
G01*
X183517250Y-32430000D01*
G75*
G02*
X183736000Y-32648750I0J-218750D01*
G01*
X183736000Y-33086250D01*
G75*
G02*
X183517250Y-33305000I-218750J0D01*
G01*
G37*
G36*
G01*
X183517250Y-34880000D02*
X183004750Y-34880000D01*
G75*
G02*
X182786000Y-34661250I0J218750D01*
G01*
X182786000Y-34223750D01*
G75*
G02*
X183004750Y-34005000I218750J0D01*
G01*
X183517250Y-34005000D01*
G75*
G02*
X183736000Y-34223750I0J-218750D01*
G01*
X183736000Y-34661250D01*
G75*
G02*
X183517250Y-34880000I-218750J0D01*
G01*
G37*
%TD*%
%TO.C,D10*%
G36*
G01*
X164467250Y-33305000D02*
X163954750Y-33305000D01*
G75*
G02*
X163736000Y-33086250I0J218750D01*
G01*
X163736000Y-32648750D01*
G75*
G02*
X163954750Y-32430000I218750J0D01*
G01*
X164467250Y-32430000D01*
G75*
G02*
X164686000Y-32648750I0J-218750D01*
G01*
X164686000Y-33086250D01*
G75*
G02*
X164467250Y-33305000I-218750J0D01*
G01*
G37*
G36*
G01*
X164467250Y-34880000D02*
X163954750Y-34880000D01*
G75*
G02*
X163736000Y-34661250I0J218750D01*
G01*
X163736000Y-34223750D01*
G75*
G02*
X163954750Y-34005000I218750J0D01*
G01*
X164467250Y-34005000D01*
G75*
G02*
X164686000Y-34223750I0J-218750D01*
G01*
X164686000Y-34661250D01*
G75*
G02*
X164467250Y-34880000I-218750J0D01*
G01*
G37*
%TD*%
%TO.C,D9*%
G36*
G01*
X145417250Y-33305000D02*
X144904750Y-33305000D01*
G75*
G02*
X144686000Y-33086250I0J218750D01*
G01*
X144686000Y-32648750D01*
G75*
G02*
X144904750Y-32430000I218750J0D01*
G01*
X145417250Y-32430000D01*
G75*
G02*
X145636000Y-32648750I0J-218750D01*
G01*
X145636000Y-33086250D01*
G75*
G02*
X145417250Y-33305000I-218750J0D01*
G01*
G37*
G36*
G01*
X145417250Y-34880000D02*
X144904750Y-34880000D01*
G75*
G02*
X144686000Y-34661250I0J218750D01*
G01*
X144686000Y-34223750D01*
G75*
G02*
X144904750Y-34005000I218750J0D01*
G01*
X145417250Y-34005000D01*
G75*
G02*
X145636000Y-34223750I0J-218750D01*
G01*
X145636000Y-34661250D01*
G75*
G02*
X145417250Y-34880000I-218750J0D01*
G01*
G37*
%TD*%
%TO.C,D8*%
G36*
G01*
X126367250Y-33305000D02*
X125854750Y-33305000D01*
G75*
G02*
X125636000Y-33086250I0J218750D01*
G01*
X125636000Y-32648750D01*
G75*
G02*
X125854750Y-32430000I218750J0D01*
G01*
X126367250Y-32430000D01*
G75*
G02*
X126586000Y-32648750I0J-218750D01*
G01*
X126586000Y-33086250D01*
G75*
G02*
X126367250Y-33305000I-218750J0D01*
G01*
G37*
G36*
G01*
X126367250Y-34880000D02*
X125854750Y-34880000D01*
G75*
G02*
X125636000Y-34661250I0J218750D01*
G01*
X125636000Y-34223750D01*
G75*
G02*
X125854750Y-34005000I218750J0D01*
G01*
X126367250Y-34005000D01*
G75*
G02*
X126586000Y-34223750I0J-218750D01*
G01*
X126586000Y-34661250D01*
G75*
G02*
X126367250Y-34880000I-218750J0D01*
G01*
G37*
%TD*%
%TO.C,D7*%
G36*
G01*
X107317250Y-33305000D02*
X106804750Y-33305000D01*
G75*
G02*
X106586000Y-33086250I0J218750D01*
G01*
X106586000Y-32648750D01*
G75*
G02*
X106804750Y-32430000I218750J0D01*
G01*
X107317250Y-32430000D01*
G75*
G02*
X107536000Y-32648750I0J-218750D01*
G01*
X107536000Y-33086250D01*
G75*
G02*
X107317250Y-33305000I-218750J0D01*
G01*
G37*
G36*
G01*
X107317250Y-34880000D02*
X106804750Y-34880000D01*
G75*
G02*
X106586000Y-34661250I0J218750D01*
G01*
X106586000Y-34223750D01*
G75*
G02*
X106804750Y-34005000I218750J0D01*
G01*
X107317250Y-34005000D01*
G75*
G02*
X107536000Y-34223750I0J-218750D01*
G01*
X107536000Y-34661250D01*
G75*
G02*
X107317250Y-34880000I-218750J0D01*
G01*
G37*
%TD*%
%TO.C,D6*%
G36*
G01*
X88267250Y-33305000D02*
X87754750Y-33305000D01*
G75*
G02*
X87536000Y-33086250I0J218750D01*
G01*
X87536000Y-32648750D01*
G75*
G02*
X87754750Y-32430000I218750J0D01*
G01*
X88267250Y-32430000D01*
G75*
G02*
X88486000Y-32648750I0J-218750D01*
G01*
X88486000Y-33086250D01*
G75*
G02*
X88267250Y-33305000I-218750J0D01*
G01*
G37*
G36*
G01*
X88267250Y-34880000D02*
X87754750Y-34880000D01*
G75*
G02*
X87536000Y-34661250I0J218750D01*
G01*
X87536000Y-34223750D01*
G75*
G02*
X87754750Y-34005000I218750J0D01*
G01*
X88267250Y-34005000D01*
G75*
G02*
X88486000Y-34223750I0J-218750D01*
G01*
X88486000Y-34661250D01*
G75*
G02*
X88267250Y-34880000I-218750J0D01*
G01*
G37*
%TD*%
%TO.C,D5*%
G36*
G01*
X69217250Y-33305000D02*
X68704750Y-33305000D01*
G75*
G02*
X68486000Y-33086250I0J218750D01*
G01*
X68486000Y-32648750D01*
G75*
G02*
X68704750Y-32430000I218750J0D01*
G01*
X69217250Y-32430000D01*
G75*
G02*
X69436000Y-32648750I0J-218750D01*
G01*
X69436000Y-33086250D01*
G75*
G02*
X69217250Y-33305000I-218750J0D01*
G01*
G37*
G36*
G01*
X69217250Y-34880000D02*
X68704750Y-34880000D01*
G75*
G02*
X68486000Y-34661250I0J218750D01*
G01*
X68486000Y-34223750D01*
G75*
G02*
X68704750Y-34005000I218750J0D01*
G01*
X69217250Y-34005000D01*
G75*
G02*
X69436000Y-34223750I0J-218750D01*
G01*
X69436000Y-34661250D01*
G75*
G02*
X69217250Y-34880000I-218750J0D01*
G01*
G37*
%TD*%
%TO.C,D4*%
G36*
G01*
X50167250Y-33305000D02*
X49654750Y-33305000D01*
G75*
G02*
X49436000Y-33086250I0J218750D01*
G01*
X49436000Y-32648750D01*
G75*
G02*
X49654750Y-32430000I218750J0D01*
G01*
X50167250Y-32430000D01*
G75*
G02*
X50386000Y-32648750I0J-218750D01*
G01*
X50386000Y-33086250D01*
G75*
G02*
X50167250Y-33305000I-218750J0D01*
G01*
G37*
G36*
G01*
X50167250Y-34880000D02*
X49654750Y-34880000D01*
G75*
G02*
X49436000Y-34661250I0J218750D01*
G01*
X49436000Y-34223750D01*
G75*
G02*
X49654750Y-34005000I218750J0D01*
G01*
X50167250Y-34005000D01*
G75*
G02*
X50386000Y-34223750I0J-218750D01*
G01*
X50386000Y-34661250D01*
G75*
G02*
X50167250Y-34880000I-218750J0D01*
G01*
G37*
%TD*%
%TO.C,D3*%
G36*
G01*
X31117250Y-33305000D02*
X30604750Y-33305000D01*
G75*
G02*
X30386000Y-33086250I0J218750D01*
G01*
X30386000Y-32648750D01*
G75*
G02*
X30604750Y-32430000I218750J0D01*
G01*
X31117250Y-32430000D01*
G75*
G02*
X31336000Y-32648750I0J-218750D01*
G01*
X31336000Y-33086250D01*
G75*
G02*
X31117250Y-33305000I-218750J0D01*
G01*
G37*
G36*
G01*
X31117250Y-34880000D02*
X30604750Y-34880000D01*
G75*
G02*
X30386000Y-34661250I0J218750D01*
G01*
X30386000Y-34223750D01*
G75*
G02*
X30604750Y-34005000I218750J0D01*
G01*
X31117250Y-34005000D01*
G75*
G02*
X31336000Y-34223750I0J-218750D01*
G01*
X31336000Y-34661250D01*
G75*
G02*
X31117250Y-34880000I-218750J0D01*
G01*
G37*
%TD*%
%TO.C,R7*%
G36*
G01*
X205705000Y-103935000D02*
X205705000Y-103385000D01*
G75*
G02*
X205905000Y-103185000I200000J0D01*
G01*
X206305000Y-103185000D01*
G75*
G02*
X206505000Y-103385000I0J-200000D01*
G01*
X206505000Y-103935000D01*
G75*
G02*
X206305000Y-104135000I-200000J0D01*
G01*
X205905000Y-104135000D01*
G75*
G02*
X205705000Y-103935000I0J200000D01*
G01*
G37*
G36*
G01*
X204055000Y-103935000D02*
X204055000Y-103385000D01*
G75*
G02*
X204255000Y-103185000I200000J0D01*
G01*
X204655000Y-103185000D01*
G75*
G02*
X204855000Y-103385000I0J-200000D01*
G01*
X204855000Y-103935000D01*
G75*
G02*
X204655000Y-104135000I-200000J0D01*
G01*
X204255000Y-104135000D01*
G75*
G02*
X204055000Y-103935000I0J200000D01*
G01*
G37*
%TD*%
%TO.C,R6*%
G36*
G01*
X204875000Y-105105000D02*
X204875000Y-105655000D01*
G75*
G02*
X204675000Y-105855000I-200000J0D01*
G01*
X204275000Y-105855000D01*
G75*
G02*
X204075000Y-105655000I0J200000D01*
G01*
X204075000Y-105105000D01*
G75*
G02*
X204275000Y-104905000I200000J0D01*
G01*
X204675000Y-104905000D01*
G75*
G02*
X204875000Y-105105000I0J-200000D01*
G01*
G37*
G36*
G01*
X206525000Y-105105000D02*
X206525000Y-105655000D01*
G75*
G02*
X206325000Y-105855000I-200000J0D01*
G01*
X205925000Y-105855000D01*
G75*
G02*
X205725000Y-105655000I0J200000D01*
G01*
X205725000Y-105105000D01*
G75*
G02*
X205925000Y-104905000I200000J0D01*
G01*
X206325000Y-104905000D01*
G75*
G02*
X206525000Y-105105000I0J-200000D01*
G01*
G37*
%TD*%
%TO.C,R5*%
G36*
G01*
X33888000Y-31223000D02*
X34438000Y-31223000D01*
G75*
G02*
X34638000Y-31423000I0J-200000D01*
G01*
X34638000Y-31823000D01*
G75*
G02*
X34438000Y-32023000I-200000J0D01*
G01*
X33888000Y-32023000D01*
G75*
G02*
X33688000Y-31823000I0J200000D01*
G01*
X33688000Y-31423000D01*
G75*
G02*
X33888000Y-31223000I200000J0D01*
G01*
G37*
G36*
G01*
X33888000Y-29573000D02*
X34438000Y-29573000D01*
G75*
G02*
X34638000Y-29773000I0J-200000D01*
G01*
X34638000Y-30173000D01*
G75*
G02*
X34438000Y-30373000I-200000J0D01*
G01*
X33888000Y-30373000D01*
G75*
G02*
X33688000Y-30173000I0J200000D01*
G01*
X33688000Y-29773000D01*
G75*
G02*
X33888000Y-29573000I200000J0D01*
G01*
G37*
%TD*%
%TO.C,R4*%
G36*
G01*
X41381000Y-31159000D02*
X41931000Y-31159000D01*
G75*
G02*
X42131000Y-31359000I0J-200000D01*
G01*
X42131000Y-31759000D01*
G75*
G02*
X41931000Y-31959000I-200000J0D01*
G01*
X41381000Y-31959000D01*
G75*
G02*
X41181000Y-31759000I0J200000D01*
G01*
X41181000Y-31359000D01*
G75*
G02*
X41381000Y-31159000I200000J0D01*
G01*
G37*
G36*
G01*
X41381000Y-29509000D02*
X41931000Y-29509000D01*
G75*
G02*
X42131000Y-29709000I0J-200000D01*
G01*
X42131000Y-30109000D01*
G75*
G02*
X41931000Y-30309000I-200000J0D01*
G01*
X41381000Y-30309000D01*
G75*
G02*
X41181000Y-30109000I0J200000D01*
G01*
X41181000Y-29709000D01*
G75*
G02*
X41381000Y-29509000I200000J0D01*
G01*
G37*
%TD*%
%TO.C,R3*%
G36*
G01*
X134133000Y-96222000D02*
X133583000Y-96222000D01*
G75*
G02*
X133383000Y-96022000I0J200000D01*
G01*
X133383000Y-95622000D01*
G75*
G02*
X133583000Y-95422000I200000J0D01*
G01*
X134133000Y-95422000D01*
G75*
G02*
X134333000Y-95622000I0J-200000D01*
G01*
X134333000Y-96022000D01*
G75*
G02*
X134133000Y-96222000I-200000J0D01*
G01*
G37*
G36*
G01*
X134133000Y-97872000D02*
X133583000Y-97872000D01*
G75*
G02*
X133383000Y-97672000I0J200000D01*
G01*
X133383000Y-97272000D01*
G75*
G02*
X133583000Y-97072000I200000J0D01*
G01*
X134133000Y-97072000D01*
G75*
G02*
X134333000Y-97272000I0J-200000D01*
G01*
X134333000Y-97672000D01*
G75*
G02*
X134133000Y-97872000I-200000J0D01*
G01*
G37*
%TD*%
%TO.C,R2*%
G36*
G01*
X154411000Y-94405000D02*
X154961000Y-94405000D01*
G75*
G02*
X155161000Y-94605000I0J-200000D01*
G01*
X155161000Y-95005000D01*
G75*
G02*
X154961000Y-95205000I-200000J0D01*
G01*
X154411000Y-95205000D01*
G75*
G02*
X154211000Y-95005000I0J200000D01*
G01*
X154211000Y-94605000D01*
G75*
G02*
X154411000Y-94405000I200000J0D01*
G01*
G37*
G36*
G01*
X154411000Y-92755000D02*
X154961000Y-92755000D01*
G75*
G02*
X155161000Y-92955000I0J-200000D01*
G01*
X155161000Y-93355000D01*
G75*
G02*
X154961000Y-93555000I-200000J0D01*
G01*
X154411000Y-93555000D01*
G75*
G02*
X154211000Y-93355000I0J200000D01*
G01*
X154211000Y-92955000D01*
G75*
G02*
X154411000Y-92755000I200000J0D01*
G01*
G37*
%TD*%
%TO.C,R1*%
G36*
G01*
X148126000Y-100478000D02*
X148126000Y-99928000D01*
G75*
G02*
X148326000Y-99728000I200000J0D01*
G01*
X148726000Y-99728000D01*
G75*
G02*
X148926000Y-99928000I0J-200000D01*
G01*
X148926000Y-100478000D01*
G75*
G02*
X148726000Y-100678000I-200000J0D01*
G01*
X148326000Y-100678000D01*
G75*
G02*
X148126000Y-100478000I0J200000D01*
G01*
G37*
G36*
G01*
X146476000Y-100478000D02*
X146476000Y-99928000D01*
G75*
G02*
X146676000Y-99728000I200000J0D01*
G01*
X147076000Y-99728000D01*
G75*
G02*
X147276000Y-99928000I0J-200000D01*
G01*
X147276000Y-100478000D01*
G75*
G02*
X147076000Y-100678000I-200000J0D01*
G01*
X146676000Y-100678000D01*
G75*
G02*
X146476000Y-100478000I0J200000D01*
G01*
G37*
%TD*%
D11*
%TO.C,U4*%
X37846000Y-29507000D03*
X38796000Y-29507000D03*
X36896000Y-29507000D03*
X36896000Y-31707000D03*
X37846000Y-31707000D03*
X38796000Y-31707000D03*
%TD*%
D12*
%TO.C,Y1*%
X184058000Y-92964000D03*
X185258000Y-92964000D03*
%TD*%
D13*
%TO.C,U3*%
G36*
X193797235Y-90981193D02*
G01*
X194292210Y-90486218D01*
X195369841Y-91563849D01*
X194874866Y-92058824D01*
X193797235Y-90981193D01*
G37*
G36*
X193019417Y-91759010D02*
G01*
X193514392Y-91264035D01*
X194592023Y-92341666D01*
X194097048Y-92836641D01*
X193019417Y-91759010D01*
G37*
G36*
X192241600Y-92536827D02*
G01*
X192736575Y-92041852D01*
X193814206Y-93119483D01*
X193319231Y-93614458D01*
X192241600Y-92536827D01*
G37*
G36*
X191463783Y-93314645D02*
G01*
X191958758Y-92819670D01*
X193036389Y-93897301D01*
X192541414Y-94392276D01*
X191463783Y-93314645D01*
G37*
G36*
X190685965Y-94092462D02*
G01*
X191180940Y-93597487D01*
X192258571Y-94675118D01*
X191763596Y-95170093D01*
X190685965Y-94092462D01*
G37*
G36*
X189908148Y-94870280D02*
G01*
X190403123Y-94375305D01*
X191480754Y-95452936D01*
X190985779Y-95947911D01*
X189908148Y-94870280D01*
G37*
G36*
X189130330Y-95648097D02*
G01*
X189625305Y-95153122D01*
X190702936Y-96230753D01*
X190207961Y-96725728D01*
X189130330Y-95648097D01*
G37*
G36*
X188352513Y-96425915D02*
G01*
X188847488Y-95930940D01*
X189925119Y-97008571D01*
X189430144Y-97503546D01*
X188352513Y-96425915D01*
G37*
G36*
X187574695Y-97203732D02*
G01*
X188069670Y-96708757D01*
X189147301Y-97786388D01*
X188652326Y-98281363D01*
X187574695Y-97203732D01*
G37*
G36*
X186796878Y-97981550D02*
G01*
X187291853Y-97486575D01*
X188369484Y-98564206D01*
X187874509Y-99059181D01*
X186796878Y-97981550D01*
G37*
G36*
X186019060Y-98759367D02*
G01*
X186514035Y-98264392D01*
X187591666Y-99342023D01*
X187096691Y-99836998D01*
X186019060Y-98759367D01*
G37*
G36*
X185241243Y-99537185D02*
G01*
X185736218Y-99042210D01*
X186813849Y-100119841D01*
X186318874Y-100614816D01*
X185241243Y-99537185D01*
G37*
G36*
X184463425Y-100315002D02*
G01*
X184958400Y-99820027D01*
X186036031Y-100897658D01*
X185541056Y-101392633D01*
X184463425Y-100315002D01*
G37*
G36*
X184781624Y-103337177D02*
G01*
X184286649Y-102842202D01*
X185364280Y-101764571D01*
X185859255Y-102259546D01*
X184781624Y-103337177D01*
G37*
G36*
X185559441Y-104114994D02*
G01*
X185064466Y-103620019D01*
X186142097Y-102542388D01*
X186637072Y-103037363D01*
X185559441Y-104114994D01*
G37*
G36*
X186337259Y-104892812D02*
G01*
X185842284Y-104397837D01*
X186919915Y-103320206D01*
X187414890Y-103815181D01*
X186337259Y-104892812D01*
G37*
G36*
X187115076Y-105670629D02*
G01*
X186620101Y-105175654D01*
X187697732Y-104098023D01*
X188192707Y-104592998D01*
X187115076Y-105670629D01*
G37*
G36*
X187892894Y-106448447D02*
G01*
X187397919Y-105953472D01*
X188475550Y-104875841D01*
X188970525Y-105370816D01*
X187892894Y-106448447D01*
G37*
G36*
X188670711Y-107226264D02*
G01*
X188175736Y-106731289D01*
X189253367Y-105653658D01*
X189748342Y-106148633D01*
X188670711Y-107226264D01*
G37*
G36*
X189448528Y-108004081D02*
G01*
X188953553Y-107509106D01*
X190031184Y-106431475D01*
X190526159Y-106926450D01*
X189448528Y-108004081D01*
G37*
G36*
X190226346Y-108781899D02*
G01*
X189731371Y-108286924D01*
X190809002Y-107209293D01*
X191303977Y-107704268D01*
X190226346Y-108781899D01*
G37*
G36*
X191004163Y-109559716D02*
G01*
X190509188Y-109064741D01*
X191586819Y-107987110D01*
X192081794Y-108482085D01*
X191004163Y-109559716D01*
G37*
G36*
X191781981Y-110337534D02*
G01*
X191287006Y-109842559D01*
X192364637Y-108764928D01*
X192859612Y-109259903D01*
X191781981Y-110337534D01*
G37*
G36*
X192559798Y-111115351D02*
G01*
X192064823Y-110620376D01*
X193142454Y-109542745D01*
X193637429Y-110037720D01*
X192559798Y-111115351D01*
G37*
G36*
X195581973Y-110443600D02*
G01*
X195086998Y-110938575D01*
X194009367Y-109860944D01*
X194504342Y-109365969D01*
X195581973Y-110443600D01*
G37*
G36*
X196359790Y-109665782D02*
G01*
X195864815Y-110160757D01*
X194787184Y-109083126D01*
X195282159Y-108588151D01*
X196359790Y-109665782D01*
G37*
G36*
X197137608Y-108887965D02*
G01*
X196642633Y-109382940D01*
X195565002Y-108305309D01*
X196059977Y-107810334D01*
X197137608Y-108887965D01*
G37*
G36*
X197915425Y-108110147D02*
G01*
X197420450Y-108605122D01*
X196342819Y-107527491D01*
X196837794Y-107032516D01*
X197915425Y-108110147D01*
G37*
G36*
X198693243Y-107332330D02*
G01*
X198198268Y-107827305D01*
X197120637Y-106749674D01*
X197615612Y-106254699D01*
X198693243Y-107332330D01*
G37*
G36*
X199471060Y-106554512D02*
G01*
X198976085Y-107049487D01*
X197898454Y-105971856D01*
X198393429Y-105476881D01*
X199471060Y-106554512D01*
G37*
G36*
X200248878Y-105776695D02*
G01*
X199753903Y-106271670D01*
X198676272Y-105194039D01*
X199171247Y-104699064D01*
X200248878Y-105776695D01*
G37*
G36*
X201026695Y-104998877D02*
G01*
X200531720Y-105493852D01*
X199454089Y-104416221D01*
X199949064Y-103921246D01*
X201026695Y-104998877D01*
G37*
G36*
X201804513Y-104221060D02*
G01*
X201309538Y-104716035D01*
X200231907Y-103638404D01*
X200726882Y-103143429D01*
X201804513Y-104221060D01*
G37*
G36*
X202582330Y-103443242D02*
G01*
X202087355Y-103938217D01*
X201009724Y-102860586D01*
X201504699Y-102365611D01*
X202582330Y-103443242D01*
G37*
G36*
X203360148Y-102665425D02*
G01*
X202865173Y-103160400D01*
X201787542Y-102082769D01*
X202282517Y-101587794D01*
X203360148Y-102665425D01*
G37*
G36*
X204137965Y-101887608D02*
G01*
X203642990Y-102382583D01*
X202565359Y-101304952D01*
X203060334Y-100809977D01*
X204137965Y-101887608D01*
G37*
G36*
X204915782Y-101109790D02*
G01*
X204420807Y-101604765D01*
X203343176Y-100527134D01*
X203838151Y-100032159D01*
X204915782Y-101109790D01*
G37*
%TD*%
D14*
%TO.C,U2*%
X139362000Y-96205000D03*
X139362000Y-98105000D03*
X141562000Y-98105000D03*
X141562000Y-97155000D03*
X141562000Y-96205000D03*
%TD*%
D11*
%TO.C,U1*%
X152461000Y-96055000D03*
X150561000Y-96055000D03*
X150561000Y-98255000D03*
X151511000Y-98255000D03*
X152461000Y-98255000D03*
%TD*%
D15*
%TO.C,Q1*%
X140589000Y-102219000D03*
X141539000Y-100219000D03*
X139639000Y-100219000D03*
%TD*%
D16*
%TO.C,J1*%
X40842000Y-23603000D03*
X40042000Y-23603000D03*
X35142000Y-23603000D03*
X34342000Y-23603000D03*
X34342000Y-23603000D03*
X35142000Y-23603000D03*
X40042000Y-23603000D03*
X40842000Y-23603000D03*
D17*
X35842000Y-23603000D03*
X36342000Y-23603000D03*
X36842000Y-23603000D03*
X37842000Y-23603000D03*
X38342000Y-23603000D03*
X38842000Y-23603000D03*
X39342000Y-23603000D03*
X37342000Y-23603000D03*
%TD*%
D18*
%TO.C,D2*%
X133859000Y-99949000D03*
X137159000Y-99949000D03*
%TD*%
%TO.C,D1*%
G36*
G01*
X148030250Y-96578000D02*
X147117750Y-96578000D01*
G75*
G02*
X146874000Y-96334250I0J243750D01*
G01*
X146874000Y-95846750D01*
G75*
G02*
X147117750Y-95603000I243750J0D01*
G01*
X148030250Y-95603000D01*
G75*
G02*
X148274000Y-95846750I0J-243750D01*
G01*
X148274000Y-96334250D01*
G75*
G02*
X148030250Y-96578000I-243750J0D01*
G01*
G37*
G36*
G01*
X148030250Y-98453000D02*
X147117750Y-98453000D01*
G75*
G02*
X146874000Y-98209250I0J243750D01*
G01*
X146874000Y-97721750D01*
G75*
G02*
X147117750Y-97478000I243750J0D01*
G01*
X148030250Y-97478000D01*
G75*
G02*
X148274000Y-97721750I0J-243750D01*
G01*
X148274000Y-98209250D01*
G75*
G02*
X148030250Y-98453000I-243750J0D01*
G01*
G37*
%TD*%
%TO.C,C1*%
G36*
G01*
X145255000Y-96578000D02*
X144305000Y-96578000D01*
G75*
G02*
X144055000Y-96328000I0J250000D01*
G01*
X144055000Y-95828000D01*
G75*
G02*
X144305000Y-95578000I250000J0D01*
G01*
X145255000Y-95578000D01*
G75*
G02*
X145505000Y-95828000I0J-250000D01*
G01*
X145505000Y-96328000D01*
G75*
G02*
X145255000Y-96578000I-250000J0D01*
G01*
G37*
G36*
G01*
X145255000Y-98478000D02*
X144305000Y-98478000D01*
G75*
G02*
X144055000Y-98228000I0J250000D01*
G01*
X144055000Y-97728000D01*
G75*
G02*
X144305000Y-97478000I250000J0D01*
G01*
X145255000Y-97478000D01*
G75*
G02*
X145505000Y-97728000I0J-250000D01*
G01*
X145505000Y-98228000D01*
G75*
G02*
X145255000Y-98478000I-250000J0D01*
G01*
G37*
%TD*%
M02*
