%TF.GenerationSoftware,KiCad,Pcbnew,5.1.10*%
%TF.CreationDate,2021-12-20T21:46:25+01:00*%
%TF.ProjectId,ptm-60nrf,70746d2d-3630-46e7-9266-2e6b69636164,rev?*%
%TF.SameCoordinates,Original*%
%TF.FileFunction,Soldermask,Top*%
%TF.FilePolarity,Negative*%
%FSLAX46Y46*%
G04 Gerber Fmt 4.6, Leading zero omitted, Abs format (unit mm)*
G04 Created by KiCad (PCBNEW 5.1.10) date 2021-12-20 21:46:25*
%MOMM*%
%LPD*%
G01*
G04 APERTURE LIST*
%ADD10C,0.180000*%
%ADD11C,0.100000*%
%ADD12C,0.150000*%
%ADD13C,3.987800*%
%ADD14C,1.750000*%
%ADD15C,3.048000*%
%ADD16C,1.400000*%
%ADD17R,2.000000X2.000000*%
%ADD18C,2.000000*%
%ADD19R,2.000000X3.200000*%
%ADD20O,1.700000X1.700000*%
%ADD21R,1.700000X1.700000*%
%ADD22O,9.999980X5.001260*%
%ADD23C,7.000240*%
%ADD24O,1.000000X2.100000*%
%ADD25C,0.650000*%
%ADD26O,1.000000X1.600000*%
%ADD27R,1.524000X0.700000*%
G04 APERTURE END LIST*
D10*
X295598571Y-111242857D02*
X295198571Y-110671428D01*
X294912857Y-111242857D02*
X294912857Y-110042857D01*
X295370000Y-110042857D01*
X295484285Y-110100000D01*
X295541428Y-110157142D01*
X295598571Y-110271428D01*
X295598571Y-110442857D01*
X295541428Y-110557142D01*
X295484285Y-110614285D01*
X295370000Y-110671428D01*
X294912857Y-110671428D01*
X296570000Y-111185714D02*
X296455714Y-111242857D01*
X296227142Y-111242857D01*
X296112857Y-111185714D01*
X296055714Y-111071428D01*
X296055714Y-110614285D01*
X296112857Y-110500000D01*
X296227142Y-110442857D01*
X296455714Y-110442857D01*
X296570000Y-110500000D01*
X296627142Y-110614285D01*
X296627142Y-110728571D01*
X296055714Y-110842857D01*
X297027142Y-110442857D02*
X297312857Y-111242857D01*
X297598571Y-110442857D01*
X298055714Y-111128571D02*
X298112857Y-111185714D01*
X298055714Y-111242857D01*
X297998571Y-111185714D01*
X298055714Y-111128571D01*
X298055714Y-111242857D01*
X299770000Y-110042857D02*
X299884285Y-110042857D01*
X299998571Y-110100000D01*
X300055714Y-110157142D01*
X300112857Y-110271428D01*
X300170000Y-110500000D01*
X300170000Y-110785714D01*
X300112857Y-111014285D01*
X300055714Y-111128571D01*
X299998571Y-111185714D01*
X299884285Y-111242857D01*
X299770000Y-111242857D01*
X299655714Y-111185714D01*
X299598571Y-111128571D01*
X299541428Y-111014285D01*
X299484285Y-110785714D01*
X299484285Y-110500000D01*
X299541428Y-110271428D01*
X299598571Y-110157142D01*
X299655714Y-110100000D01*
X299770000Y-110042857D01*
X300684285Y-111128571D02*
X300741428Y-111185714D01*
X300684285Y-111242857D01*
X300627142Y-111185714D01*
X300684285Y-111128571D01*
X300684285Y-111242857D01*
X301770000Y-110442857D02*
X301770000Y-111242857D01*
X301484285Y-109985714D02*
X301198571Y-110842857D01*
X301941428Y-110842857D01*
D11*
X20229047Y-21298184D02*
X20629047Y-21348184D01*
X20343333Y-21445803D01*
X20629047Y-21614851D01*
X20229047Y-21564851D01*
X20229047Y-21755327D02*
X20495714Y-21788660D01*
X20629047Y-21805327D02*
X20610000Y-21783898D01*
X20590952Y-21800565D01*
X20610000Y-21821994D01*
X20629047Y-21805327D01*
X20590952Y-21800565D01*
X20229047Y-22002946D02*
X20248095Y-21967232D01*
X20286190Y-21952946D01*
X20629047Y-21995803D01*
X20229047Y-22212470D02*
X20248095Y-22176755D01*
X20286190Y-22162470D01*
X20629047Y-22205327D01*
X20229047Y-22421994D02*
X20248095Y-22386279D01*
X20267142Y-22369613D01*
X20305238Y-22355327D01*
X20419523Y-22369613D01*
X20457619Y-22393422D01*
X20476666Y-22414851D01*
X20495714Y-22455327D01*
X20495714Y-22512470D01*
X20476666Y-22548184D01*
X20457619Y-22564851D01*
X20419523Y-22579136D01*
X20305238Y-22564851D01*
X20267142Y-22541041D01*
X20248095Y-22519613D01*
X20229047Y-22479136D01*
X20229047Y-22421994D01*
X20229047Y-22726755D02*
X20495714Y-22760089D01*
X20457619Y-22755327D02*
X20476666Y-22776755D01*
X20495714Y-22817232D01*
X20495714Y-22874375D01*
X20476666Y-22910089D01*
X20438571Y-22924375D01*
X20229047Y-22898184D01*
X20438571Y-22924375D02*
X20476666Y-22948184D01*
X20495714Y-22988660D01*
X20495714Y-23045803D01*
X20476666Y-23081517D01*
X20438571Y-23095803D01*
X20229047Y-23069613D01*
X20438571Y-23724375D02*
X20419523Y-23779136D01*
X20400476Y-23795803D01*
X20362380Y-23810089D01*
X20305238Y-23802946D01*
X20267142Y-23779136D01*
X20248095Y-23757708D01*
X20229047Y-23717232D01*
X20229047Y-23564851D01*
X20629047Y-23614851D01*
X20629047Y-23748184D01*
X20610000Y-23783898D01*
X20590952Y-23800565D01*
X20552857Y-23814851D01*
X20514761Y-23810089D01*
X20476666Y-23786279D01*
X20457619Y-23764851D01*
X20438571Y-23724375D01*
X20438571Y-23591041D01*
X20229047Y-24136279D02*
X20438571Y-24162470D01*
X20476666Y-24148184D01*
X20495714Y-24112470D01*
X20495714Y-24036279D01*
X20476666Y-23995803D01*
X20248095Y-24138660D02*
X20229047Y-24098184D01*
X20229047Y-24002946D01*
X20248095Y-23967232D01*
X20286190Y-23952946D01*
X20324285Y-23957708D01*
X20362380Y-23981517D01*
X20381428Y-24021994D01*
X20381428Y-24117232D01*
X20400476Y-24157708D01*
X20229047Y-24326755D02*
X20629047Y-24376755D01*
X20381428Y-24383898D02*
X20229047Y-24479136D01*
X20495714Y-24512470D02*
X20343333Y-24341041D01*
X20229047Y-24650565D02*
X20629047Y-24700565D01*
X20381428Y-24707708D02*
X20229047Y-24802946D01*
X20495714Y-24836279D02*
X20343333Y-24664851D01*
X20229047Y-25145803D02*
X20438571Y-25171994D01*
X20476666Y-25157708D01*
X20495714Y-25121994D01*
X20495714Y-25045803D01*
X20476666Y-25005327D01*
X20248095Y-25148184D02*
X20229047Y-25107708D01*
X20229047Y-25012470D01*
X20248095Y-24976755D01*
X20286190Y-24962470D01*
X20324285Y-24967232D01*
X20362380Y-24991041D01*
X20381428Y-25031517D01*
X20381428Y-25126755D01*
X20400476Y-25167232D01*
X20229047Y-25336279D02*
X20495714Y-25369613D01*
X20419523Y-25360089D02*
X20457619Y-25383898D01*
X20476666Y-25405327D01*
X20495714Y-25445803D01*
X20495714Y-25483898D01*
X20229047Y-25945803D02*
X20248095Y-25910089D01*
X20267142Y-25893422D01*
X20305238Y-25879136D01*
X20419523Y-25893422D01*
X20457619Y-25917232D01*
X20476666Y-25938660D01*
X20495714Y-25979136D01*
X20495714Y-26036279D01*
X20476666Y-26071994D01*
X20457619Y-26088660D01*
X20419523Y-26102946D01*
X20305238Y-26088660D01*
X20267142Y-26064851D01*
X20248095Y-26043422D01*
X20229047Y-26002946D01*
X20229047Y-25945803D01*
X20495714Y-26455327D02*
X20171904Y-26414851D01*
X20133809Y-26391041D01*
X20114761Y-26369613D01*
X20095714Y-26329136D01*
X20095714Y-26271994D01*
X20114761Y-26236279D01*
X20248095Y-26424375D02*
X20229047Y-26383898D01*
X20229047Y-26307708D01*
X20248095Y-26271994D01*
X20267142Y-26255327D01*
X20305238Y-26241041D01*
X20419523Y-26255327D01*
X20457619Y-26279136D01*
X20476666Y-26300565D01*
X20495714Y-26341041D01*
X20495714Y-26417232D01*
X20476666Y-26452946D01*
X20438571Y-27076755D02*
X20419523Y-27131517D01*
X20400476Y-27148184D01*
X20362380Y-27162470D01*
X20305238Y-27155327D01*
X20267142Y-27131517D01*
X20248095Y-27110089D01*
X20229047Y-27069613D01*
X20229047Y-26917232D01*
X20629047Y-26967232D01*
X20629047Y-27100565D01*
X20610000Y-27136279D01*
X20590952Y-27152946D01*
X20552857Y-27167232D01*
X20514761Y-27162470D01*
X20476666Y-27138660D01*
X20457619Y-27117232D01*
X20438571Y-27076755D01*
X20438571Y-26943422D01*
X20248095Y-27471994D02*
X20229047Y-27431517D01*
X20229047Y-27355327D01*
X20248095Y-27319613D01*
X20286190Y-27305327D01*
X20438571Y-27324375D01*
X20476666Y-27348184D01*
X20495714Y-27388660D01*
X20495714Y-27464851D01*
X20476666Y-27500565D01*
X20438571Y-27514851D01*
X20400476Y-27510089D01*
X20362380Y-27314851D01*
X20229047Y-27660089D02*
X20495714Y-27693422D01*
X20419523Y-27683898D02*
X20457619Y-27707708D01*
X20476666Y-27729136D01*
X20495714Y-27769613D01*
X20495714Y-27807708D01*
X20495714Y-28112470D02*
X20171904Y-28071994D01*
X20133809Y-28048184D01*
X20114761Y-28026755D01*
X20095714Y-27986279D01*
X20095714Y-27929136D01*
X20114761Y-27893422D01*
X20248095Y-28081517D02*
X20229047Y-28041041D01*
X20229047Y-27964851D01*
X20248095Y-27929136D01*
X20267142Y-27912470D01*
X20305238Y-27898184D01*
X20419523Y-27912470D01*
X20457619Y-27936279D01*
X20476666Y-27957708D01*
X20495714Y-27998184D01*
X20495714Y-28074375D01*
X20476666Y-28110089D01*
X20267142Y-28579136D02*
X20248095Y-28595803D01*
X20229047Y-28574375D01*
X20248095Y-28557708D01*
X20267142Y-28579136D01*
X20229047Y-28574375D01*
X20267142Y-28769613D02*
X20248095Y-28786279D01*
X20229047Y-28764851D01*
X20248095Y-28748184D01*
X20267142Y-28769613D01*
X20229047Y-28764851D01*
X20267142Y-28960089D02*
X20248095Y-28976755D01*
X20229047Y-28955327D01*
X20248095Y-28938660D01*
X20267142Y-28960089D01*
X20229047Y-28955327D01*
D12*
X122344285Y-95210714D02*
X122344285Y-96210714D01*
X122344285Y-95258333D02*
X122439523Y-95210714D01*
X122630000Y-95210714D01*
X122725238Y-95258333D01*
X122772857Y-95305952D01*
X122820476Y-95401190D01*
X122820476Y-95686904D01*
X122772857Y-95782142D01*
X122725238Y-95829761D01*
X122630000Y-95877380D01*
X122439523Y-95877380D01*
X122344285Y-95829761D01*
X123106190Y-95210714D02*
X123487142Y-95210714D01*
X123249047Y-94877380D02*
X123249047Y-95734523D01*
X123296666Y-95829761D01*
X123391904Y-95877380D01*
X123487142Y-95877380D01*
X123820476Y-95877380D02*
X123820476Y-95210714D01*
X123820476Y-95305952D02*
X123868095Y-95258333D01*
X123963333Y-95210714D01*
X124106190Y-95210714D01*
X124201428Y-95258333D01*
X124249047Y-95353571D01*
X124249047Y-95877380D01*
X124249047Y-95353571D02*
X124296666Y-95258333D01*
X124391904Y-95210714D01*
X124534761Y-95210714D01*
X124630000Y-95258333D01*
X124677619Y-95353571D01*
X124677619Y-95877380D01*
X125153809Y-95496428D02*
X125915714Y-95496428D01*
X126820476Y-94877380D02*
X126630000Y-94877380D01*
X126534761Y-94925000D01*
X126487142Y-94972619D01*
X126391904Y-95115476D01*
X126344285Y-95305952D01*
X126344285Y-95686904D01*
X126391904Y-95782142D01*
X126439523Y-95829761D01*
X126534761Y-95877380D01*
X126725238Y-95877380D01*
X126820476Y-95829761D01*
X126868095Y-95782142D01*
X126915714Y-95686904D01*
X126915714Y-95448809D01*
X126868095Y-95353571D01*
X126820476Y-95305952D01*
X126725238Y-95258333D01*
X126534761Y-95258333D01*
X126439523Y-95305952D01*
X126391904Y-95353571D01*
X126344285Y-95448809D01*
X127534761Y-94877380D02*
X127630000Y-94877380D01*
X127725238Y-94925000D01*
X127772857Y-94972619D01*
X127820476Y-95067857D01*
X127868095Y-95258333D01*
X127868095Y-95496428D01*
X127820476Y-95686904D01*
X127772857Y-95782142D01*
X127725238Y-95829761D01*
X127630000Y-95877380D01*
X127534761Y-95877380D01*
X127439523Y-95829761D01*
X127391904Y-95782142D01*
X127344285Y-95686904D01*
X127296666Y-95496428D01*
X127296666Y-95258333D01*
X127344285Y-95067857D01*
X127391904Y-94972619D01*
X127439523Y-94925000D01*
X127534761Y-94877380D01*
X128296666Y-95210714D02*
X128296666Y-95877380D01*
X128296666Y-95305952D02*
X128344285Y-95258333D01*
X128439523Y-95210714D01*
X128582380Y-95210714D01*
X128677619Y-95258333D01*
X128725238Y-95353571D01*
X128725238Y-95877380D01*
X129201428Y-95877380D02*
X129201428Y-95210714D01*
X129201428Y-95401190D02*
X129249047Y-95305952D01*
X129296666Y-95258333D01*
X129391904Y-95210714D01*
X129487142Y-95210714D01*
X129677619Y-95210714D02*
X130058571Y-95210714D01*
X129820476Y-95877380D02*
X129820476Y-95020238D01*
X129868095Y-94925000D01*
X129963333Y-94877380D01*
X130058571Y-94877380D01*
X112249047Y-97003571D02*
X112391904Y-97051190D01*
X112439523Y-97098809D01*
X112487142Y-97194047D01*
X112487142Y-97336904D01*
X112439523Y-97432142D01*
X112391904Y-97479761D01*
X112296666Y-97527380D01*
X111915714Y-97527380D01*
X111915714Y-96527380D01*
X112249047Y-96527380D01*
X112344285Y-96575000D01*
X112391904Y-96622619D01*
X112439523Y-96717857D01*
X112439523Y-96813095D01*
X112391904Y-96908333D01*
X112344285Y-96955952D01*
X112249047Y-97003571D01*
X111915714Y-97003571D01*
X113058571Y-97527380D02*
X112963333Y-97479761D01*
X112915714Y-97384523D01*
X112915714Y-96527380D01*
X113868095Y-96860714D02*
X113868095Y-97527380D01*
X113439523Y-96860714D02*
X113439523Y-97384523D01*
X113487142Y-97479761D01*
X113582380Y-97527380D01*
X113725238Y-97527380D01*
X113820476Y-97479761D01*
X113868095Y-97432142D01*
X114725238Y-97479761D02*
X114630000Y-97527380D01*
X114439523Y-97527380D01*
X114344285Y-97479761D01*
X114296666Y-97384523D01*
X114296666Y-97003571D01*
X114344285Y-96908333D01*
X114439523Y-96860714D01*
X114630000Y-96860714D01*
X114725238Y-96908333D01*
X114772857Y-97003571D01*
X114772857Y-97098809D01*
X114296666Y-97194047D01*
X115058571Y-96860714D02*
X115439523Y-96860714D01*
X115201428Y-96527380D02*
X115201428Y-97384523D01*
X115249047Y-97479761D01*
X115344285Y-97527380D01*
X115439523Y-97527380D01*
X115915714Y-97527380D02*
X115820476Y-97479761D01*
X115772857Y-97432142D01*
X115725238Y-97336904D01*
X115725238Y-97051190D01*
X115772857Y-96955952D01*
X115820476Y-96908333D01*
X115915714Y-96860714D01*
X116058571Y-96860714D01*
X116153809Y-96908333D01*
X116201428Y-96955952D01*
X116249047Y-97051190D01*
X116249047Y-97336904D01*
X116201428Y-97432142D01*
X116153809Y-97479761D01*
X116058571Y-97527380D01*
X115915714Y-97527380D01*
X116820476Y-97527380D02*
X116725238Y-97479761D01*
X116677619Y-97432142D01*
X116630000Y-97336904D01*
X116630000Y-97051190D01*
X116677619Y-96955952D01*
X116725238Y-96908333D01*
X116820476Y-96860714D01*
X116963333Y-96860714D01*
X117058571Y-96908333D01*
X117106190Y-96955952D01*
X117153809Y-97051190D01*
X117153809Y-97336904D01*
X117106190Y-97432142D01*
X117058571Y-97479761D01*
X116963333Y-97527380D01*
X116820476Y-97527380D01*
X117439523Y-96860714D02*
X117820476Y-96860714D01*
X117582380Y-96527380D02*
X117582380Y-97384523D01*
X117630000Y-97479761D01*
X117725238Y-97527380D01*
X117820476Y-97527380D01*
X118153809Y-97527380D02*
X118153809Y-96527380D01*
X118582380Y-97527380D02*
X118582380Y-97003571D01*
X118534761Y-96908333D01*
X118439523Y-96860714D01*
X118296666Y-96860714D01*
X118201428Y-96908333D01*
X118153809Y-96955952D01*
X120249047Y-97479761D02*
X120153809Y-97527380D01*
X119963333Y-97527380D01*
X119868095Y-97479761D01*
X119820476Y-97432142D01*
X119772857Y-97336904D01*
X119772857Y-97051190D01*
X119820476Y-96955952D01*
X119868095Y-96908333D01*
X119963333Y-96860714D01*
X120153809Y-96860714D01*
X120249047Y-96908333D01*
X120820476Y-97527380D02*
X120725238Y-97479761D01*
X120677619Y-97432142D01*
X120630000Y-97336904D01*
X120630000Y-97051190D01*
X120677619Y-96955952D01*
X120725238Y-96908333D01*
X120820476Y-96860714D01*
X120963333Y-96860714D01*
X121058571Y-96908333D01*
X121106190Y-96955952D01*
X121153809Y-97051190D01*
X121153809Y-97336904D01*
X121106190Y-97432142D01*
X121058571Y-97479761D01*
X120963333Y-97527380D01*
X120820476Y-97527380D01*
X121582380Y-97527380D02*
X121582380Y-96860714D01*
X121582380Y-96955952D02*
X121630000Y-96908333D01*
X121725238Y-96860714D01*
X121868095Y-96860714D01*
X121963333Y-96908333D01*
X122010952Y-97003571D01*
X122010952Y-97527380D01*
X122010952Y-97003571D02*
X122058571Y-96908333D01*
X122153809Y-96860714D01*
X122296666Y-96860714D01*
X122391904Y-96908333D01*
X122439523Y-97003571D01*
X122439523Y-97527380D01*
X122915714Y-96860714D02*
X122915714Y-97860714D01*
X122915714Y-96908333D02*
X123010952Y-96860714D01*
X123201428Y-96860714D01*
X123296666Y-96908333D01*
X123344285Y-96955952D01*
X123391904Y-97051190D01*
X123391904Y-97336904D01*
X123344285Y-97432142D01*
X123296666Y-97479761D01*
X123201428Y-97527380D01*
X123010952Y-97527380D01*
X122915714Y-97479761D01*
X124249047Y-97527380D02*
X124249047Y-97003571D01*
X124201428Y-96908333D01*
X124106190Y-96860714D01*
X123915714Y-96860714D01*
X123820476Y-96908333D01*
X124249047Y-97479761D02*
X124153809Y-97527380D01*
X123915714Y-97527380D01*
X123820476Y-97479761D01*
X123772857Y-97384523D01*
X123772857Y-97289285D01*
X123820476Y-97194047D01*
X123915714Y-97146428D01*
X124153809Y-97146428D01*
X124249047Y-97098809D01*
X124582380Y-96860714D02*
X124963333Y-96860714D01*
X124725238Y-96527380D02*
X124725238Y-97384523D01*
X124772857Y-97479761D01*
X124868095Y-97527380D01*
X124963333Y-97527380D01*
X125296666Y-97527380D02*
X125296666Y-96860714D01*
X125296666Y-96527380D02*
X125249047Y-96575000D01*
X125296666Y-96622619D01*
X125344285Y-96575000D01*
X125296666Y-96527380D01*
X125296666Y-96622619D01*
X125772857Y-97527380D02*
X125772857Y-96527380D01*
X125772857Y-96908333D02*
X125868095Y-96860714D01*
X126058571Y-96860714D01*
X126153809Y-96908333D01*
X126201428Y-96955952D01*
X126249047Y-97051190D01*
X126249047Y-97336904D01*
X126201428Y-97432142D01*
X126153809Y-97479761D01*
X126058571Y-97527380D01*
X125868095Y-97527380D01*
X125772857Y-97479761D01*
X126820476Y-97527380D02*
X126725238Y-97479761D01*
X126677619Y-97384523D01*
X126677619Y-96527380D01*
X127582380Y-97479761D02*
X127487142Y-97527380D01*
X127296666Y-97527380D01*
X127201428Y-97479761D01*
X127153809Y-97384523D01*
X127153809Y-97003571D01*
X127201428Y-96908333D01*
X127296666Y-96860714D01*
X127487142Y-96860714D01*
X127582380Y-96908333D01*
X127630000Y-97003571D01*
X127630000Y-97098809D01*
X127153809Y-97194047D01*
X128677619Y-96860714D02*
X129058571Y-96860714D01*
X128820476Y-96527380D02*
X128820476Y-97384523D01*
X128868095Y-97479761D01*
X128963333Y-97527380D01*
X129058571Y-97527380D01*
X129391904Y-97527380D02*
X129391904Y-96860714D01*
X129391904Y-97051190D02*
X129439523Y-96955952D01*
X129487142Y-96908333D01*
X129582380Y-96860714D01*
X129677619Y-96860714D01*
X130439523Y-97527380D02*
X130439523Y-97003571D01*
X130391904Y-96908333D01*
X130296666Y-96860714D01*
X130106190Y-96860714D01*
X130010952Y-96908333D01*
X130439523Y-97479761D02*
X130344285Y-97527380D01*
X130106190Y-97527380D01*
X130010952Y-97479761D01*
X129963333Y-97384523D01*
X129963333Y-97289285D01*
X130010952Y-97194047D01*
X130106190Y-97146428D01*
X130344285Y-97146428D01*
X130439523Y-97098809D01*
X130820476Y-96860714D02*
X131058571Y-97527380D01*
X131296666Y-96860714D02*
X131058571Y-97527380D01*
X130963333Y-97765476D01*
X130915714Y-97813095D01*
X130820476Y-97860714D01*
X132439523Y-97527380D02*
X132439523Y-96860714D01*
X132439523Y-96955952D02*
X132487142Y-96908333D01*
X132582380Y-96860714D01*
X132725238Y-96860714D01*
X132820476Y-96908333D01*
X132868095Y-97003571D01*
X132868095Y-97527380D01*
X132868095Y-97003571D02*
X132915714Y-96908333D01*
X133010952Y-96860714D01*
X133153809Y-96860714D01*
X133249047Y-96908333D01*
X133296666Y-97003571D01*
X133296666Y-97527380D01*
X133915714Y-97527380D02*
X133820476Y-97479761D01*
X133772857Y-97432142D01*
X133725238Y-97336904D01*
X133725238Y-97051190D01*
X133772857Y-96955952D01*
X133820476Y-96908333D01*
X133915714Y-96860714D01*
X134058571Y-96860714D01*
X134153809Y-96908333D01*
X134201428Y-96955952D01*
X134249047Y-97051190D01*
X134249047Y-97336904D01*
X134201428Y-97432142D01*
X134153809Y-97479761D01*
X134058571Y-97527380D01*
X133915714Y-97527380D01*
X135106190Y-96860714D02*
X135106190Y-97527380D01*
X134677619Y-96860714D02*
X134677619Y-97384523D01*
X134725238Y-97479761D01*
X134820476Y-97527380D01*
X134963333Y-97527380D01*
X135058571Y-97479761D01*
X135106190Y-97432142D01*
X135582380Y-96860714D02*
X135582380Y-97527380D01*
X135582380Y-96955952D02*
X135630000Y-96908333D01*
X135725238Y-96860714D01*
X135868095Y-96860714D01*
X135963333Y-96908333D01*
X136010952Y-97003571D01*
X136010952Y-97527380D01*
X136344285Y-96860714D02*
X136725238Y-96860714D01*
X136487142Y-96527380D02*
X136487142Y-97384523D01*
X136534761Y-97479761D01*
X136630000Y-97527380D01*
X136725238Y-97527380D01*
X137820476Y-97527380D02*
X137820476Y-96527380D01*
X138201428Y-96527380D01*
X138296666Y-96575000D01*
X138344285Y-96622619D01*
X138391904Y-96717857D01*
X138391904Y-96860714D01*
X138344285Y-96955952D01*
X138296666Y-97003571D01*
X138201428Y-97051190D01*
X137820476Y-97051190D01*
X139391904Y-97432142D02*
X139344285Y-97479761D01*
X139201428Y-97527380D01*
X139106190Y-97527380D01*
X138963333Y-97479761D01*
X138868095Y-97384523D01*
X138820476Y-97289285D01*
X138772857Y-97098809D01*
X138772857Y-96955952D01*
X138820476Y-96765476D01*
X138868095Y-96670238D01*
X138963333Y-96575000D01*
X139106190Y-96527380D01*
X139201428Y-96527380D01*
X139344285Y-96575000D01*
X139391904Y-96622619D01*
X140153809Y-97003571D02*
X140296666Y-97051190D01*
X140344285Y-97098809D01*
X140391904Y-97194047D01*
X140391904Y-97336904D01*
X140344285Y-97432142D01*
X140296666Y-97479761D01*
X140201428Y-97527380D01*
X139820476Y-97527380D01*
X139820476Y-96527380D01*
X140153809Y-96527380D01*
X140249047Y-96575000D01*
X140296666Y-96622619D01*
X140344285Y-96717857D01*
X140344285Y-96813095D01*
X140296666Y-96908333D01*
X140249047Y-96955952D01*
X140153809Y-97003571D01*
X139820476Y-97003571D01*
D13*
%TO.C,MX66*%
X161671000Y-103505000D03*
D14*
X156591000Y-103505000D03*
X166751000Y-103505000D03*
D15*
X104521000Y-110490000D03*
X218821000Y-110490000D03*
D13*
X104521000Y-95250000D03*
X218821000Y-95250000D03*
%TD*%
%TO.C,MX46*%
X284358054Y-43935542D03*
X284358054Y-67811542D03*
D15*
X299598054Y-43935542D03*
X299598054Y-67811542D03*
D14*
X297693054Y-55873542D03*
X287533054Y-55873542D03*
D13*
X292613054Y-55873542D03*
%TD*%
D16*
%TO.C,Reset1*%
X181300000Y-92320000D03*
X179300000Y-92320000D03*
%TD*%
D17*
%TO.C,SW1*%
X25820000Y-34820000D03*
D18*
X28320000Y-34820000D03*
X30820000Y-34820000D03*
D19*
X22720000Y-27320000D03*
X33920000Y-27320000D03*
D18*
X25820000Y-20320000D03*
X30820000Y-20320000D03*
%TD*%
D13*
%TO.C,MX19*%
X75925554Y-46348542D03*
D14*
X70845554Y-46348542D03*
X81005554Y-46348542D03*
%TD*%
D13*
%TO.C,MX18*%
X56896000Y-46355000D03*
D14*
X51816000Y-46355000D03*
X61976000Y-46355000D03*
%TD*%
D13*
%TO.C,MX56*%
X185463054Y-84448542D03*
D14*
X180383054Y-84448542D03*
X190543054Y-84448542D03*
%TD*%
D20*
%TO.C,J4*%
X228375000Y-98395000D03*
X228375000Y-100935000D03*
X228375000Y-103475000D03*
D21*
X228375000Y-106015000D03*
%TD*%
D22*
%TO.C,HOLE*%
X303440000Y-75000000D03*
%TD*%
D23*
%TO.C,HOLE*%
X277860000Y-46210000D03*
%TD*%
%TO.C,HOLE*%
X147360000Y-65380000D03*
%TD*%
%TO.C,HOLE*%
X45220000Y-46460000D03*
%TD*%
D22*
%TO.C,HOLE*%
X19650000Y-75070000D03*
%TD*%
%TO.C,J2*%
G36*
G01*
X150080000Y-104675001D02*
X150080000Y-103374999D01*
G75*
G02*
X150329999Y-103125000I249999J0D01*
G01*
X151030001Y-103125000D01*
G75*
G02*
X151280000Y-103374999I0J-249999D01*
G01*
X151280000Y-104675001D01*
G75*
G02*
X151030001Y-104925000I-249999J0D01*
G01*
X150329999Y-104925000D01*
G75*
G02*
X150080000Y-104675001I0J249999D01*
G01*
G37*
G36*
G01*
X146480000Y-104675001D02*
X146480000Y-103374999D01*
G75*
G02*
X146729999Y-103125000I249999J0D01*
G01*
X147430001Y-103125000D01*
G75*
G02*
X147680000Y-103374999I0J-249999D01*
G01*
X147680000Y-104675001D01*
G75*
G02*
X147430001Y-104925000I-249999J0D01*
G01*
X146729999Y-104925000D01*
G75*
G02*
X146480000Y-104675001I0J249999D01*
G01*
G37*
G36*
G01*
X149080000Y-100775000D02*
X149080000Y-99525000D01*
G75*
G02*
X149230000Y-99375000I150000J0D01*
G01*
X149530000Y-99375000D01*
G75*
G02*
X149680000Y-99525000I0J-150000D01*
G01*
X149680000Y-100775000D01*
G75*
G02*
X149530000Y-100925000I-150000J0D01*
G01*
X149230000Y-100925000D01*
G75*
G02*
X149080000Y-100775000I0J150000D01*
G01*
G37*
G36*
G01*
X148080000Y-100775000D02*
X148080000Y-99525000D01*
G75*
G02*
X148230000Y-99375000I150000J0D01*
G01*
X148530000Y-99375000D01*
G75*
G02*
X148680000Y-99525000I0J-150000D01*
G01*
X148680000Y-100775000D01*
G75*
G02*
X148530000Y-100925000I-150000J0D01*
G01*
X148230000Y-100925000D01*
G75*
G02*
X148080000Y-100775000I0J150000D01*
G01*
G37*
%TD*%
D24*
%TO.C,J1*%
X41912000Y-22688000D03*
X33272000Y-22688000D03*
D25*
X34702000Y-22158000D03*
D26*
X33272000Y-18508000D03*
D25*
X40482000Y-22158000D03*
D26*
X41912000Y-18508000D03*
%TD*%
D13*
%TO.C,MX68*%
X266446000Y-103505000D03*
D14*
X261366000Y-103505000D03*
X271526000Y-103505000D03*
%TD*%
D13*
%TO.C,MX43*%
X252138054Y-65398542D03*
D14*
X247058054Y-65398542D03*
X257218054Y-65398542D03*
%TD*%
D13*
%TO.C,MX39*%
X175938054Y-65398542D03*
D14*
X170858054Y-65398542D03*
X181018054Y-65398542D03*
%TD*%
D13*
%TO.C,MX35*%
X99738054Y-65398542D03*
D14*
X94658054Y-65398542D03*
X104818054Y-65398542D03*
%TD*%
D13*
%TO.C,MX50*%
X71163054Y-84448542D03*
D14*
X66083054Y-84448542D03*
X76243054Y-84448542D03*
%TD*%
D13*
%TO.C,MX28*%
X247375554Y-46348542D03*
D14*
X242295554Y-46348542D03*
X252455554Y-46348542D03*
%TD*%
D13*
%TO.C,MX55*%
X166413054Y-84448542D03*
D14*
X161333054Y-84448542D03*
X171493054Y-84448542D03*
%TD*%
D13*
%TO.C,MX22*%
X133075554Y-46348542D03*
D14*
X127995554Y-46348542D03*
X138155554Y-46348542D03*
%TD*%
D13*
%TO.C,MX53*%
X128313054Y-84448542D03*
D14*
X123233054Y-84448542D03*
X133393054Y-84448542D03*
%TD*%
D13*
%TO.C,MX38*%
X156888054Y-65398542D03*
D14*
X151808054Y-65398542D03*
X161968054Y-65398542D03*
%TD*%
D13*
%TO.C,MX48*%
X40259250Y-84454500D03*
D14*
X35179250Y-84454500D03*
X45339250Y-84454500D03*
D15*
X28353000Y-77469500D03*
X52165500Y-77469500D03*
D13*
X28353000Y-92709500D03*
X52165500Y-92709500D03*
%TD*%
%TO.C,MX47*%
X30709250Y-84454500D03*
D14*
X25629250Y-84454500D03*
X35789250Y-84454500D03*
%TD*%
D13*
%TO.C,MX69*%
X290259500Y-103505000D03*
D14*
X285179500Y-103505000D03*
X295339500Y-103505000D03*
%TD*%
D13*
%TO.C,MX67*%
X242632500Y-103505000D03*
D14*
X237552500Y-103505000D03*
X247712500Y-103505000D03*
%TD*%
D13*
%TO.C,MX65*%
X80707500Y-103504500D03*
D14*
X75627500Y-103504500D03*
X85787500Y-103504500D03*
%TD*%
D13*
%TO.C,MX64*%
X56896000Y-103505000D03*
D14*
X51816000Y-103505000D03*
X61976000Y-103505000D03*
%TD*%
D13*
%TO.C,MX63*%
X33084250Y-103504500D03*
D14*
X28004250Y-103504500D03*
X38164250Y-103504500D03*
%TD*%
D13*
%TO.C,MX62*%
X295021000Y-84455000D03*
D14*
X289941000Y-84455000D03*
X300101000Y-84455000D03*
%TD*%
D13*
%TO.C,MX61*%
X278384000Y-84455000D03*
D14*
X273304000Y-84455000D03*
X283464000Y-84455000D03*
D15*
X266477750Y-77470000D03*
X290290250Y-77470000D03*
D13*
X266477750Y-92710000D03*
X290290250Y-92710000D03*
%TD*%
%TO.C,MX60*%
X268859000Y-84455000D03*
D14*
X263779000Y-84455000D03*
X273939000Y-84455000D03*
%TD*%
D13*
%TO.C,MX59*%
X242613054Y-84448542D03*
D14*
X237533054Y-84448542D03*
X247693054Y-84448542D03*
%TD*%
D13*
%TO.C,MX58*%
X223563054Y-84448542D03*
D14*
X218483054Y-84448542D03*
X228643054Y-84448542D03*
%TD*%
D13*
%TO.C,MX57*%
X204513054Y-84448542D03*
D14*
X199433054Y-84448542D03*
X209593054Y-84448542D03*
%TD*%
D13*
%TO.C,MX54*%
X147363054Y-84448542D03*
D14*
X142283054Y-84448542D03*
X152443054Y-84448542D03*
%TD*%
D13*
%TO.C,MX52*%
X109263054Y-84448542D03*
D14*
X104183054Y-84448542D03*
X114343054Y-84448542D03*
%TD*%
D13*
%TO.C,MX51*%
X90213054Y-84448542D03*
D14*
X85133054Y-84448542D03*
X95293054Y-84448542D03*
%TD*%
D13*
%TO.C,MX49*%
X52133500Y-84455000D03*
D14*
X47053500Y-84455000D03*
X57213500Y-84455000D03*
%TD*%
D13*
%TO.C,MX45*%
X283063054Y-65398542D03*
D14*
X277983054Y-65398542D03*
X288143054Y-65398542D03*
D15*
X271156804Y-58413542D03*
X294969304Y-58413542D03*
D13*
X271156804Y-73653542D03*
X294969304Y-73653542D03*
%TD*%
%TO.C,MX44*%
X271188054Y-65398542D03*
D14*
X266108054Y-65398542D03*
X276268054Y-65398542D03*
%TD*%
D13*
%TO.C,MX42*%
X233088054Y-65398542D03*
D14*
X228008054Y-65398542D03*
X238168054Y-65398542D03*
%TD*%
D13*
%TO.C,MX41*%
X214038054Y-65398542D03*
D14*
X208958054Y-65398542D03*
X219118054Y-65398542D03*
%TD*%
D13*
%TO.C,MX40*%
X194988054Y-65398542D03*
D14*
X189908054Y-65398542D03*
X200068054Y-65398542D03*
%TD*%
D13*
%TO.C,MX37*%
X137838054Y-65398542D03*
D14*
X132758054Y-65398542D03*
X142918054Y-65398542D03*
%TD*%
D13*
%TO.C,MX36*%
X118788054Y-65398542D03*
D14*
X113708054Y-65398542D03*
X123868054Y-65398542D03*
%TD*%
D13*
%TO.C,MX34*%
X80688054Y-65398542D03*
D14*
X75608054Y-65398542D03*
X85768054Y-65398542D03*
%TD*%
D13*
%TO.C,MX33*%
X61658500Y-65405000D03*
D14*
X56578500Y-65405000D03*
X66738500Y-65405000D03*
%TD*%
D13*
%TO.C,MX32*%
X35478000Y-65404500D03*
D14*
X30398000Y-65404500D03*
X40558000Y-65404500D03*
%TD*%
D13*
%TO.C,MX31*%
X30709250Y-65404500D03*
D14*
X25629250Y-65404500D03*
X35789250Y-65404500D03*
%TD*%
D13*
%TO.C,MX30*%
X290225554Y-46348542D03*
D14*
X285145554Y-46348542D03*
X295305554Y-46348542D03*
%TD*%
D13*
%TO.C,MX29*%
X266425554Y-46348542D03*
D14*
X261345554Y-46348542D03*
X271505554Y-46348542D03*
%TD*%
D13*
%TO.C,MX27*%
X228325554Y-46348542D03*
D14*
X223245554Y-46348542D03*
X233405554Y-46348542D03*
%TD*%
D13*
%TO.C,MX26*%
X209275554Y-46348542D03*
D14*
X204195554Y-46348542D03*
X214355554Y-46348542D03*
%TD*%
D13*
%TO.C,MX25*%
X190225554Y-46348542D03*
D14*
X185145554Y-46348542D03*
X195305554Y-46348542D03*
%TD*%
D13*
%TO.C,MX24*%
X171175554Y-46348542D03*
D14*
X166095554Y-46348542D03*
X176255554Y-46348542D03*
%TD*%
D13*
%TO.C,MX23*%
X152125554Y-46348542D03*
D14*
X147045554Y-46348542D03*
X157205554Y-46348542D03*
%TD*%
D13*
%TO.C,MX21*%
X114025554Y-46348542D03*
D14*
X108945554Y-46348542D03*
X119105554Y-46348542D03*
%TD*%
D13*
%TO.C,MX20*%
X94975554Y-46348542D03*
D14*
X89895554Y-46348542D03*
X100055554Y-46348542D03*
%TD*%
D13*
%TO.C,MX17*%
X33084250Y-46354500D03*
D14*
X28004250Y-46354500D03*
X38164250Y-46354500D03*
%TD*%
D13*
%TO.C,MX16*%
X295021000Y-27305000D03*
D14*
X289941000Y-27305000D03*
X300101000Y-27305000D03*
%TD*%
D13*
%TO.C,MX15*%
X285496000Y-27305000D03*
D14*
X280416000Y-27305000D03*
X290576000Y-27305000D03*
D15*
X273589750Y-20320000D03*
X297402250Y-20320000D03*
D13*
X273589750Y-35560000D03*
X297402250Y-35560000D03*
%TD*%
%TO.C,MX14*%
X275971000Y-27305000D03*
D14*
X270891000Y-27305000D03*
X281051000Y-27305000D03*
%TD*%
D13*
%TO.C,MX13*%
X256921000Y-27305000D03*
D14*
X251841000Y-27305000D03*
X262001000Y-27305000D03*
%TD*%
D13*
%TO.C,MX12*%
X237871000Y-27305000D03*
D14*
X232791000Y-27305000D03*
X242951000Y-27305000D03*
%TD*%
D13*
%TO.C,MX11*%
X218821000Y-27305000D03*
D14*
X213741000Y-27305000D03*
X223901000Y-27305000D03*
%TD*%
D13*
%TO.C,MX10*%
X199771000Y-27305000D03*
D14*
X194691000Y-27305000D03*
X204851000Y-27305000D03*
%TD*%
D13*
%TO.C,MX9*%
X180721000Y-27305000D03*
D14*
X175641000Y-27305000D03*
X185801000Y-27305000D03*
%TD*%
D13*
%TO.C,MX8*%
X161671000Y-27305000D03*
D14*
X156591000Y-27305000D03*
X166751000Y-27305000D03*
%TD*%
D13*
%TO.C,MX7*%
X142621000Y-27305000D03*
D14*
X137541000Y-27305000D03*
X147701000Y-27305000D03*
%TD*%
D13*
%TO.C,MX6*%
X123571000Y-27305000D03*
D14*
X118491000Y-27305000D03*
X128651000Y-27305000D03*
%TD*%
D13*
%TO.C,MX5*%
X104521000Y-27305000D03*
D14*
X99441000Y-27305000D03*
X109601000Y-27305000D03*
%TD*%
D13*
%TO.C,MX4*%
X85471000Y-27305000D03*
D14*
X80391000Y-27305000D03*
X90551000Y-27305000D03*
%TD*%
D13*
%TO.C,MX3*%
X66421000Y-27305000D03*
D14*
X61341000Y-27305000D03*
X71501000Y-27305000D03*
%TD*%
D13*
%TO.C,MX2*%
X47371000Y-27305000D03*
D14*
X42291000Y-27305000D03*
X52451000Y-27305000D03*
%TD*%
D13*
%TO.C,MX1*%
X28321000Y-27305000D03*
D14*
X23241000Y-27305000D03*
X33401000Y-27305000D03*
%TD*%
D27*
%TO.C,U3*%
X205175000Y-96200000D03*
X205175000Y-97300000D03*
X205175000Y-98400000D03*
X205175000Y-99500000D03*
X205175000Y-100600000D03*
X205175000Y-101700000D03*
X205175000Y-102800000D03*
X205175000Y-103900000D03*
X205175000Y-105000000D03*
X196675000Y-96200000D03*
X196675000Y-97300000D03*
X196675000Y-98400000D03*
X196675000Y-99500000D03*
X196675000Y-100600000D03*
X196675000Y-101700000D03*
X196675000Y-102800000D03*
X196675000Y-103900000D03*
X196675000Y-105000000D03*
%TD*%
M02*
