%TF.GenerationSoftware,KiCad,Pcbnew,5.1.10*%
%TF.CreationDate,2021-06-03T11:27:09+02:00*%
%TF.ProjectId,ptm-60nrf,70746d2d-3630-46e7-9266-2e6b69636164,rev?*%
%TF.SameCoordinates,Original*%
%TF.FileFunction,Soldermask,Bot*%
%TF.FilePolarity,Negative*%
%FSLAX46Y46*%
G04 Gerber Fmt 4.6, Leading zero omitted, Abs format (unit mm)*
G04 Created by KiCad (PCBNEW 5.1.10) date 2021-06-03 11:27:09*
%MOMM*%
%LPD*%
G01*
G04 APERTURE LIST*
%ADD10C,0.040000*%
%ADD11C,0.090000*%
%ADD12C,0.050000*%
%ADD13C,0.150000*%
%ADD14O,1.700000X1.700000*%
%ADD15R,1.700000X1.700000*%
%ADD16O,9.999980X5.001260*%
%ADD17C,7.000240*%
%ADD18R,1.800000X1.100000*%
%ADD19C,2.250000*%
%ADD20C,3.987800*%
%ADD21C,1.750000*%
%ADD22C,3.048000*%
%ADD23R,0.650000X1.060000*%
%ADD24R,1.905000X1.905000*%
%ADD25C,1.905000*%
%ADD26C,0.100000*%
%ADD27R,0.800000X0.900000*%
%ADD28R,0.600000X1.450000*%
%ADD29R,0.300000X1.450000*%
%ADD30O,1.000000X2.100000*%
%ADD31C,0.650000*%
%ADD32O,1.000000X1.600000*%
%ADD33R,1.200000X0.900000*%
G04 APERTURE END LIST*
D10*
X301915000Y-109081666D02*
X301931666Y-109131666D01*
X301948333Y-109148333D01*
X301981666Y-109165000D01*
X302031666Y-109165000D01*
X302065000Y-109148333D01*
X302081666Y-109131666D01*
X302098333Y-109098333D01*
X302098333Y-108965000D01*
X301748333Y-108965000D01*
X301748333Y-109081666D01*
X301765000Y-109115000D01*
X301781666Y-109131666D01*
X301815000Y-109148333D01*
X301848333Y-109148333D01*
X301881666Y-109131666D01*
X301898333Y-109115000D01*
X301915000Y-109081666D01*
X301915000Y-108965000D01*
X301748333Y-109265000D02*
X301748333Y-109465000D01*
X302098333Y-109365000D02*
X301748333Y-109365000D01*
X301748333Y-109548333D02*
X302098333Y-109631666D01*
X301848333Y-109698333D01*
X302098333Y-109765000D01*
X301748333Y-109848333D01*
D11*
X300611785Y-100668571D02*
X299861785Y-100668571D01*
X300397500Y-100918571D01*
X299861785Y-101168571D01*
X300611785Y-101168571D01*
X300611785Y-101847142D02*
X300218928Y-101847142D01*
X300147500Y-101811428D01*
X300111785Y-101740000D01*
X300111785Y-101597142D01*
X300147500Y-101525714D01*
X300576071Y-101847142D02*
X300611785Y-101775714D01*
X300611785Y-101597142D01*
X300576071Y-101525714D01*
X300504642Y-101490000D01*
X300433214Y-101490000D01*
X300361785Y-101525714D01*
X300326071Y-101597142D01*
X300326071Y-101775714D01*
X300290357Y-101847142D01*
X300611785Y-102525714D02*
X299861785Y-102525714D01*
X300576071Y-102525714D02*
X300611785Y-102454285D01*
X300611785Y-102311428D01*
X300576071Y-102240000D01*
X300540357Y-102204285D01*
X300468928Y-102168571D01*
X300254642Y-102168571D01*
X300183214Y-102204285D01*
X300147500Y-102240000D01*
X300111785Y-102311428D01*
X300111785Y-102454285D01*
X300147500Y-102525714D01*
X300576071Y-103168571D02*
X300611785Y-103097142D01*
X300611785Y-102954285D01*
X300576071Y-102882857D01*
X300504642Y-102847142D01*
X300218928Y-102847142D01*
X300147500Y-102882857D01*
X300111785Y-102954285D01*
X300111785Y-103097142D01*
X300147500Y-103168571D01*
X300218928Y-103204285D01*
X300290357Y-103204285D01*
X300361785Y-102847142D01*
X300111785Y-104025714D02*
X300611785Y-104168571D01*
X300254642Y-104311428D01*
X300611785Y-104454285D01*
X300111785Y-104597142D01*
X300611785Y-104882857D02*
X300111785Y-104882857D01*
X299861785Y-104882857D02*
X299897500Y-104847142D01*
X299933214Y-104882857D01*
X299897500Y-104918571D01*
X299861785Y-104882857D01*
X299933214Y-104882857D01*
X300111785Y-105132857D02*
X300111785Y-105418571D01*
X299861785Y-105240000D02*
X300504642Y-105240000D01*
X300576071Y-105275714D01*
X300611785Y-105347142D01*
X300611785Y-105418571D01*
X300611785Y-105668571D02*
X299861785Y-105668571D01*
X300611785Y-105990000D02*
X300218928Y-105990000D01*
X300147500Y-105954285D01*
X300111785Y-105882857D01*
X300111785Y-105775714D01*
X300147500Y-105704285D01*
X300183214Y-105668571D01*
X300611785Y-106918571D02*
X299861785Y-106918571D01*
X300611785Y-107347142D02*
X300183214Y-107025714D01*
X299861785Y-107347142D02*
X300290357Y-106918571D01*
X300611785Y-107668571D02*
X300111785Y-107668571D01*
X299861785Y-107668571D02*
X299897500Y-107632857D01*
X299933214Y-107668571D01*
X299897500Y-107704285D01*
X299861785Y-107668571D01*
X299933214Y-107668571D01*
X300540357Y-108454285D02*
X300576071Y-108418571D01*
X300611785Y-108311428D01*
X300611785Y-108240000D01*
X300576071Y-108132857D01*
X300504642Y-108061428D01*
X300433214Y-108025714D01*
X300290357Y-107990000D01*
X300183214Y-107990000D01*
X300040357Y-108025714D01*
X299968928Y-108061428D01*
X299897500Y-108132857D01*
X299861785Y-108240000D01*
X299861785Y-108311428D01*
X299897500Y-108418571D01*
X299933214Y-108454285D01*
X300397500Y-108740000D02*
X300397500Y-109097142D01*
X300611785Y-108668571D02*
X299861785Y-108918571D01*
X300611785Y-109168571D01*
X300611785Y-109418571D02*
X299861785Y-109418571D01*
X299861785Y-109597142D01*
X299897500Y-109704285D01*
X299968928Y-109775714D01*
X300040357Y-109811428D01*
X300183214Y-109847142D01*
X300290357Y-109847142D01*
X300433214Y-109811428D01*
X300504642Y-109775714D01*
X300576071Y-109704285D01*
X300611785Y-109597142D01*
X300611785Y-109418571D01*
X301076785Y-101865000D02*
X301076785Y-102007857D01*
X301112500Y-102079285D01*
X301183928Y-102150714D01*
X301326785Y-102186428D01*
X301576785Y-102186428D01*
X301719642Y-102150714D01*
X301791071Y-102079285D01*
X301826785Y-102007857D01*
X301826785Y-101865000D01*
X301791071Y-101793571D01*
X301719642Y-101722142D01*
X301576785Y-101686428D01*
X301326785Y-101686428D01*
X301183928Y-101722142D01*
X301112500Y-101793571D01*
X301076785Y-101865000D01*
X301326785Y-102507857D02*
X301826785Y-102507857D01*
X301398214Y-102507857D02*
X301362500Y-102543571D01*
X301326785Y-102615000D01*
X301326785Y-102722142D01*
X301362500Y-102793571D01*
X301433928Y-102829285D01*
X301826785Y-102829285D01*
X301612500Y-103722142D02*
X301612500Y-104079285D01*
X301826785Y-103650714D02*
X301076785Y-103900714D01*
X301826785Y-104150714D01*
X301826785Y-104400714D02*
X301326785Y-104400714D01*
X301469642Y-104400714D02*
X301398214Y-104436428D01*
X301362500Y-104472142D01*
X301326785Y-104543571D01*
X301326785Y-104615000D01*
X301791071Y-105186428D02*
X301826785Y-105115000D01*
X301826785Y-104972142D01*
X301791071Y-104900714D01*
X301755357Y-104865000D01*
X301683928Y-104829285D01*
X301469642Y-104829285D01*
X301398214Y-104865000D01*
X301362500Y-104900714D01*
X301326785Y-104972142D01*
X301326785Y-105115000D01*
X301362500Y-105186428D01*
X301826785Y-105507857D02*
X301076785Y-105507857D01*
X301826785Y-105829285D02*
X301433928Y-105829285D01*
X301362500Y-105793571D01*
X301326785Y-105722142D01*
X301326785Y-105615000D01*
X301362500Y-105543571D01*
X301398214Y-105507857D01*
X301826785Y-106543571D02*
X301826785Y-106186428D01*
X301076785Y-106186428D01*
X301826785Y-106793571D02*
X301326785Y-106793571D01*
X301076785Y-106793571D02*
X301112500Y-106757857D01*
X301148214Y-106793571D01*
X301112500Y-106829285D01*
X301076785Y-106793571D01*
X301148214Y-106793571D01*
X301326785Y-107150714D02*
X301826785Y-107150714D01*
X301398214Y-107150714D02*
X301362500Y-107186428D01*
X301326785Y-107257857D01*
X301326785Y-107365000D01*
X301362500Y-107436428D01*
X301433928Y-107472142D01*
X301826785Y-107472142D01*
X301326785Y-108150714D02*
X301826785Y-108150714D01*
X301326785Y-107829285D02*
X301719642Y-107829285D01*
X301791071Y-107865000D01*
X301826785Y-107936428D01*
X301826785Y-108043571D01*
X301791071Y-108115000D01*
X301755357Y-108150714D01*
X301826785Y-108436428D02*
X301326785Y-108829285D01*
X301326785Y-108436428D02*
X301826785Y-108829285D01*
D12*
X20320714Y-27532083D02*
X20308809Y-27521666D01*
X20296904Y-27535059D01*
X20308809Y-27545476D01*
X20320714Y-27532083D01*
X20296904Y-27535059D01*
X20320714Y-27413035D02*
X20308809Y-27402619D01*
X20296904Y-27416011D01*
X20308809Y-27426428D01*
X20320714Y-27413035D01*
X20296904Y-27416011D01*
X20320714Y-27293988D02*
X20308809Y-27283571D01*
X20296904Y-27296964D01*
X20308809Y-27307380D01*
X20320714Y-27293988D01*
X20296904Y-27296964D01*
X20296904Y-26987440D02*
X20463571Y-26966607D01*
X20546904Y-26956190D02*
X20535000Y-26969583D01*
X20523095Y-26959166D01*
X20535000Y-26945773D01*
X20546904Y-26956190D01*
X20523095Y-26959166D01*
X20463571Y-26847559D02*
X20296904Y-26868392D01*
X20439761Y-26850535D02*
X20451666Y-26837142D01*
X20463571Y-26811845D01*
X20463571Y-26776130D01*
X20451666Y-26753809D01*
X20427857Y-26744880D01*
X20296904Y-26761250D01*
X20463571Y-26514226D02*
X20261190Y-26539523D01*
X20237380Y-26554404D01*
X20225476Y-26567797D01*
X20213571Y-26593095D01*
X20213571Y-26628809D01*
X20225476Y-26651130D01*
X20308809Y-26533571D02*
X20296904Y-26558869D01*
X20296904Y-26606488D01*
X20308809Y-26628809D01*
X20320714Y-26639226D01*
X20344523Y-26648154D01*
X20415952Y-26639226D01*
X20439761Y-26624345D01*
X20451666Y-26610952D01*
X20463571Y-26585654D01*
X20463571Y-26538035D01*
X20451666Y-26515714D01*
X20308809Y-26319285D02*
X20296904Y-26344583D01*
X20296904Y-26392202D01*
X20308809Y-26414523D01*
X20332619Y-26423452D01*
X20427857Y-26411547D01*
X20451666Y-26396666D01*
X20463571Y-26371369D01*
X20463571Y-26323750D01*
X20451666Y-26301428D01*
X20427857Y-26292500D01*
X20404047Y-26295476D01*
X20380238Y-26417500D01*
X20463571Y-26180892D02*
X20296904Y-26201726D01*
X20439761Y-26183869D02*
X20451666Y-26170476D01*
X20463571Y-26145178D01*
X20463571Y-26109464D01*
X20451666Y-26087142D01*
X20427857Y-26078214D01*
X20296904Y-26094583D01*
X20308809Y-25985952D02*
X20296904Y-25963630D01*
X20296904Y-25916011D01*
X20308809Y-25890714D01*
X20332619Y-25875833D01*
X20344523Y-25874345D01*
X20368333Y-25883273D01*
X20380238Y-25905595D01*
X20380238Y-25941309D01*
X20392142Y-25963630D01*
X20415952Y-25972559D01*
X20427857Y-25971071D01*
X20451666Y-25956190D01*
X20463571Y-25930892D01*
X20463571Y-25895178D01*
X20451666Y-25872857D01*
X20463571Y-25788035D02*
X20463571Y-25692797D01*
X20546904Y-25741904D02*
X20332619Y-25768690D01*
X20308809Y-25759761D01*
X20296904Y-25737440D01*
X20296904Y-25713630D01*
X20296904Y-25523154D02*
X20427857Y-25506785D01*
X20451666Y-25515714D01*
X20463571Y-25538035D01*
X20463571Y-25585654D01*
X20451666Y-25610952D01*
X20308809Y-25521666D02*
X20296904Y-25546964D01*
X20296904Y-25606488D01*
X20308809Y-25628809D01*
X20332619Y-25637738D01*
X20356428Y-25634761D01*
X20380238Y-25619880D01*
X20392142Y-25594583D01*
X20392142Y-25535059D01*
X20404047Y-25509761D01*
X20296904Y-25296964D02*
X20546904Y-25265714D01*
X20308809Y-25295476D02*
X20296904Y-25320773D01*
X20296904Y-25368392D01*
X20308809Y-25390714D01*
X20320714Y-25401130D01*
X20344523Y-25410059D01*
X20415952Y-25401130D01*
X20439761Y-25386250D01*
X20451666Y-25372857D01*
X20463571Y-25347559D01*
X20463571Y-25299940D01*
X20451666Y-25277619D01*
X20463571Y-24990416D02*
X20296904Y-24951726D01*
X20463571Y-24871369D01*
X20451666Y-24777619D02*
X20463571Y-24752321D01*
X20463571Y-24704702D01*
X20451666Y-24682380D01*
X20427857Y-24673452D01*
X20308809Y-24581190D02*
X20296904Y-24606488D01*
X20296904Y-24654107D01*
X20308809Y-24676428D01*
X20332619Y-24685357D01*
X20427857Y-24673452D01*
X20451666Y-24658571D01*
X20463571Y-24633273D01*
X20463571Y-24585654D01*
X20451666Y-24563333D01*
X20427857Y-24554404D01*
X20404047Y-24557380D01*
X20392142Y-24677916D01*
X20392142Y-24761250D01*
X20380238Y-24786547D01*
X20356428Y-24801428D01*
X20332619Y-24804404D01*
X20308809Y-24795476D01*
X20296904Y-24773154D01*
X20296904Y-24725535D01*
X20308809Y-24700238D01*
X20332619Y-24685357D01*
X20463571Y-24442797D02*
X20296904Y-24463630D01*
X20439761Y-24445773D02*
X20451666Y-24432380D01*
X20463571Y-24407083D01*
X20463571Y-24371369D01*
X20451666Y-24349047D01*
X20427857Y-24340119D01*
X20296904Y-24356488D01*
X20296904Y-24130297D02*
X20427857Y-24113928D01*
X20451666Y-24122857D01*
X20463571Y-24145178D01*
X20463571Y-24192797D01*
X20451666Y-24218095D01*
X20308809Y-24128809D02*
X20296904Y-24154107D01*
X20296904Y-24213630D01*
X20308809Y-24235952D01*
X20332619Y-24244880D01*
X20356428Y-24241904D01*
X20380238Y-24227023D01*
X20392142Y-24201726D01*
X20392142Y-24142202D01*
X20404047Y-24116904D01*
X20296904Y-24011250D02*
X20463571Y-23990416D01*
X20415952Y-23996369D02*
X20439761Y-23981488D01*
X20451666Y-23968095D01*
X20463571Y-23942797D01*
X20463571Y-23918988D01*
X20308809Y-23759761D02*
X20296904Y-23785059D01*
X20296904Y-23832678D01*
X20308809Y-23855000D01*
X20332619Y-23863928D01*
X20427857Y-23852023D01*
X20451666Y-23837142D01*
X20463571Y-23811845D01*
X20463571Y-23764226D01*
X20451666Y-23741904D01*
X20427857Y-23732976D01*
X20404047Y-23735952D01*
X20380238Y-23857976D01*
X20308809Y-23462142D02*
X20296904Y-23439821D01*
X20296904Y-23392202D01*
X20308809Y-23366904D01*
X20332619Y-23352023D01*
X20344523Y-23350535D01*
X20368333Y-23359464D01*
X20380238Y-23381785D01*
X20380238Y-23417500D01*
X20392142Y-23439821D01*
X20415952Y-23448750D01*
X20427857Y-23447261D01*
X20451666Y-23432380D01*
X20463571Y-23407083D01*
X20463571Y-23371369D01*
X20451666Y-23349047D01*
X20463571Y-23228511D02*
X20249285Y-23255297D01*
X20225476Y-23270178D01*
X20213571Y-23295476D01*
X20213571Y-23307380D01*
X20546904Y-23218095D02*
X20535000Y-23231488D01*
X20523095Y-23221071D01*
X20535000Y-23207678D01*
X20546904Y-23218095D01*
X20523095Y-23221071D01*
X20296904Y-23023154D02*
X20427857Y-23006785D01*
X20451666Y-23015714D01*
X20463571Y-23038035D01*
X20463571Y-23085654D01*
X20451666Y-23110952D01*
X20308809Y-23021666D02*
X20296904Y-23046964D01*
X20296904Y-23106488D01*
X20308809Y-23128809D01*
X20332619Y-23137738D01*
X20356428Y-23134761D01*
X20380238Y-23119880D01*
X20392142Y-23094583D01*
X20392142Y-23035059D01*
X20404047Y-23009761D01*
X20296904Y-22796964D02*
X20427857Y-22780595D01*
X20451666Y-22789523D01*
X20463571Y-22811845D01*
X20463571Y-22859464D01*
X20451666Y-22884761D01*
X20308809Y-22795476D02*
X20296904Y-22820773D01*
X20296904Y-22880297D01*
X20308809Y-22902619D01*
X20332619Y-22911547D01*
X20356428Y-22908571D01*
X20380238Y-22893690D01*
X20392142Y-22868392D01*
X20392142Y-22808869D01*
X20404047Y-22783571D01*
D13*
X137376190Y-107252380D02*
X137376190Y-106252380D01*
X136995238Y-106252380D01*
X136900000Y-106300000D01*
X136852380Y-106347619D01*
X136804761Y-106442857D01*
X136804761Y-106585714D01*
X136852380Y-106680952D01*
X136900000Y-106728571D01*
X136995238Y-106776190D01*
X137376190Y-106776190D01*
X136233333Y-107252380D02*
X136328571Y-107204761D01*
X136376190Y-107157142D01*
X136423809Y-107061904D01*
X136423809Y-106776190D01*
X136376190Y-106680952D01*
X136328571Y-106633333D01*
X136233333Y-106585714D01*
X136090476Y-106585714D01*
X135995238Y-106633333D01*
X135947619Y-106680952D01*
X135900000Y-106776190D01*
X135900000Y-107061904D01*
X135947619Y-107157142D01*
X135995238Y-107204761D01*
X136090476Y-107252380D01*
X136233333Y-107252380D01*
X135566666Y-106585714D02*
X135376190Y-107252380D01*
X135185714Y-106776190D01*
X134995238Y-107252380D01*
X134804761Y-106585714D01*
X134042857Y-107204761D02*
X134138095Y-107252380D01*
X134328571Y-107252380D01*
X134423809Y-107204761D01*
X134471428Y-107109523D01*
X134471428Y-106728571D01*
X134423809Y-106633333D01*
X134328571Y-106585714D01*
X134138095Y-106585714D01*
X134042857Y-106633333D01*
X133995238Y-106728571D01*
X133995238Y-106823809D01*
X134471428Y-106919047D01*
X133566666Y-107252380D02*
X133566666Y-106585714D01*
X133566666Y-106776190D02*
X133519047Y-106680952D01*
X133471428Y-106633333D01*
X133376190Y-106585714D01*
X133280952Y-106585714D01*
%TO.C,D30*%
G36*
G01*
X255193750Y-35855000D02*
X255706250Y-35855000D01*
G75*
G02*
X255925000Y-36073750I0J-218750D01*
G01*
X255925000Y-36511250D01*
G75*
G02*
X255706250Y-36730000I-218750J0D01*
G01*
X255193750Y-36730000D01*
G75*
G02*
X254975000Y-36511250I0J218750D01*
G01*
X254975000Y-36073750D01*
G75*
G02*
X255193750Y-35855000I218750J0D01*
G01*
G37*
G36*
G01*
X255193750Y-37430000D02*
X255706250Y-37430000D01*
G75*
G02*
X255925000Y-37648750I0J-218750D01*
G01*
X255925000Y-38086250D01*
G75*
G02*
X255706250Y-38305000I-218750J0D01*
G01*
X255193750Y-38305000D01*
G75*
G02*
X254975000Y-38086250I0J218750D01*
G01*
X254975000Y-37648750D01*
G75*
G02*
X255193750Y-37430000I218750J0D01*
G01*
G37*
%TD*%
%TO.C,D58*%
G36*
G01*
X193518750Y-75200000D02*
X194031250Y-75200000D01*
G75*
G02*
X194250000Y-75418750I0J-218750D01*
G01*
X194250000Y-75856250D01*
G75*
G02*
X194031250Y-76075000I-218750J0D01*
G01*
X193518750Y-76075000D01*
G75*
G02*
X193300000Y-75856250I0J218750D01*
G01*
X193300000Y-75418750D01*
G75*
G02*
X193518750Y-75200000I218750J0D01*
G01*
G37*
G36*
G01*
X193518750Y-73625000D02*
X194031250Y-73625000D01*
G75*
G02*
X194250000Y-73843750I0J-218750D01*
G01*
X194250000Y-74281250D01*
G75*
G02*
X194031250Y-74500000I-218750J0D01*
G01*
X193518750Y-74500000D01*
G75*
G02*
X193300000Y-74281250I0J218750D01*
G01*
X193300000Y-73843750D01*
G75*
G02*
X193518750Y-73625000I218750J0D01*
G01*
G37*
%TD*%
%TO.C,D51*%
G36*
G01*
X46753750Y-75280000D02*
X47266250Y-75280000D01*
G75*
G02*
X47485000Y-75498750I0J-218750D01*
G01*
X47485000Y-75936250D01*
G75*
G02*
X47266250Y-76155000I-218750J0D01*
G01*
X46753750Y-76155000D01*
G75*
G02*
X46535000Y-75936250I0J218750D01*
G01*
X46535000Y-75498750D01*
G75*
G02*
X46753750Y-75280000I218750J0D01*
G01*
G37*
G36*
G01*
X46753750Y-73705000D02*
X47266250Y-73705000D01*
G75*
G02*
X47485000Y-73923750I0J-218750D01*
G01*
X47485000Y-74361250D01*
G75*
G02*
X47266250Y-74580000I-218750J0D01*
G01*
X46753750Y-74580000D01*
G75*
G02*
X46535000Y-74361250I0J218750D01*
G01*
X46535000Y-73923750D01*
G75*
G02*
X46753750Y-73705000I218750J0D01*
G01*
G37*
%TD*%
D14*
%TO.C,J4*%
X173430000Y-94540000D03*
X173430000Y-97080000D03*
X173430000Y-99620000D03*
D15*
X173430000Y-102160000D03*
%TD*%
%TO.C,D28*%
G36*
G01*
X217143750Y-37450000D02*
X217656250Y-37450000D01*
G75*
G02*
X217875000Y-37668750I0J-218750D01*
G01*
X217875000Y-38106250D01*
G75*
G02*
X217656250Y-38325000I-218750J0D01*
G01*
X217143750Y-38325000D01*
G75*
G02*
X216925000Y-38106250I0J218750D01*
G01*
X216925000Y-37668750D01*
G75*
G02*
X217143750Y-37450000I218750J0D01*
G01*
G37*
G36*
G01*
X217143750Y-35875000D02*
X217656250Y-35875000D01*
G75*
G02*
X217875000Y-36093750I0J-218750D01*
G01*
X217875000Y-36531250D01*
G75*
G02*
X217656250Y-36750000I-218750J0D01*
G01*
X217143750Y-36750000D01*
G75*
G02*
X216925000Y-36531250I0J218750D01*
G01*
X216925000Y-36093750D01*
G75*
G02*
X217143750Y-35875000I218750J0D01*
G01*
G37*
%TD*%
D16*
%TO.C,HOLE*%
X303440000Y-75000000D03*
%TD*%
D17*
%TO.C,HOLE*%
X277860000Y-46210000D03*
%TD*%
%TO.C,HOLE*%
X147360000Y-65380000D03*
%TD*%
%TO.C,HOLE*%
X45220000Y-46460000D03*
%TD*%
D16*
%TO.C,HOLE*%
X19650000Y-75070000D03*
%TD*%
D18*
%TO.C,Reset1*%
X182230000Y-106020000D03*
X176030000Y-106020000D03*
X182230000Y-109720000D03*
X176030000Y-109720000D03*
%TD*%
D19*
%TO.C,MX66*%
X164211000Y-98425000D03*
D20*
X161671000Y-103505000D03*
D19*
X157861000Y-100965000D03*
D21*
X156591000Y-103505000D03*
X166751000Y-103505000D03*
D22*
X104521000Y-110490000D03*
X218821000Y-110490000D03*
D20*
X104521000Y-95250000D03*
X218821000Y-95250000D03*
%TD*%
%TO.C,D71*%
G36*
G01*
X277531250Y-108375000D02*
X277018750Y-108375000D01*
G75*
G02*
X276800000Y-108156250I0J218750D01*
G01*
X276800000Y-107718750D01*
G75*
G02*
X277018750Y-107500000I218750J0D01*
G01*
X277531250Y-107500000D01*
G75*
G02*
X277750000Y-107718750I0J-218750D01*
G01*
X277750000Y-108156250D01*
G75*
G02*
X277531250Y-108375000I-218750J0D01*
G01*
G37*
G36*
G01*
X277531250Y-109950000D02*
X277018750Y-109950000D01*
G75*
G02*
X276800000Y-109731250I0J218750D01*
G01*
X276800000Y-109293750D01*
G75*
G02*
X277018750Y-109075000I218750J0D01*
G01*
X277531250Y-109075000D01*
G75*
G02*
X277750000Y-109293750I0J-218750D01*
G01*
X277750000Y-109731250D01*
G75*
G02*
X277531250Y-109950000I-218750J0D01*
G01*
G37*
%TD*%
%TO.C,D70*%
G36*
G01*
X274931250Y-108375000D02*
X274418750Y-108375000D01*
G75*
G02*
X274200000Y-108156250I0J218750D01*
G01*
X274200000Y-107718750D01*
G75*
G02*
X274418750Y-107500000I218750J0D01*
G01*
X274931250Y-107500000D01*
G75*
G02*
X275150000Y-107718750I0J-218750D01*
G01*
X275150000Y-108156250D01*
G75*
G02*
X274931250Y-108375000I-218750J0D01*
G01*
G37*
G36*
G01*
X274931250Y-109950000D02*
X274418750Y-109950000D01*
G75*
G02*
X274200000Y-109731250I0J218750D01*
G01*
X274200000Y-109293750D01*
G75*
G02*
X274418750Y-109075000I218750J0D01*
G01*
X274931250Y-109075000D01*
G75*
G02*
X275150000Y-109293750I0J-218750D01*
G01*
X275150000Y-109731250D01*
G75*
G02*
X274931250Y-109950000I-218750J0D01*
G01*
G37*
%TD*%
%TO.C,D69*%
G36*
G01*
X255656250Y-108475000D02*
X255143750Y-108475000D01*
G75*
G02*
X254925000Y-108256250I0J218750D01*
G01*
X254925000Y-107818750D01*
G75*
G02*
X255143750Y-107600000I218750J0D01*
G01*
X255656250Y-107600000D01*
G75*
G02*
X255875000Y-107818750I0J-218750D01*
G01*
X255875000Y-108256250D01*
G75*
G02*
X255656250Y-108475000I-218750J0D01*
G01*
G37*
G36*
G01*
X255656250Y-110050000D02*
X255143750Y-110050000D01*
G75*
G02*
X254925000Y-109831250I0J218750D01*
G01*
X254925000Y-109393750D01*
G75*
G02*
X255143750Y-109175000I218750J0D01*
G01*
X255656250Y-109175000D01*
G75*
G02*
X255875000Y-109393750I0J-218750D01*
G01*
X255875000Y-109831250D01*
G75*
G02*
X255656250Y-110050000I-218750J0D01*
G01*
G37*
%TD*%
%TO.C,D68*%
G36*
G01*
X159643750Y-94325000D02*
X160156250Y-94325000D01*
G75*
G02*
X160375000Y-94543750I0J-218750D01*
G01*
X160375000Y-94981250D01*
G75*
G02*
X160156250Y-95200000I-218750J0D01*
G01*
X159643750Y-95200000D01*
G75*
G02*
X159425000Y-94981250I0J218750D01*
G01*
X159425000Y-94543750D01*
G75*
G02*
X159643750Y-94325000I218750J0D01*
G01*
G37*
G36*
G01*
X159643750Y-92750000D02*
X160156250Y-92750000D01*
G75*
G02*
X160375000Y-92968750I0J-218750D01*
G01*
X160375000Y-93406250D01*
G75*
G02*
X160156250Y-93625000I-218750J0D01*
G01*
X159643750Y-93625000D01*
G75*
G02*
X159425000Y-93406250I0J218750D01*
G01*
X159425000Y-92968750D01*
G75*
G02*
X159643750Y-92750000I218750J0D01*
G01*
G37*
%TD*%
%TO.C,D67*%
G36*
G01*
X90256250Y-103525000D02*
X89743750Y-103525000D01*
G75*
G02*
X89525000Y-103306250I0J218750D01*
G01*
X89525000Y-102868750D01*
G75*
G02*
X89743750Y-102650000I218750J0D01*
G01*
X90256250Y-102650000D01*
G75*
G02*
X90475000Y-102868750I0J-218750D01*
G01*
X90475000Y-103306250D01*
G75*
G02*
X90256250Y-103525000I-218750J0D01*
G01*
G37*
G36*
G01*
X90256250Y-105100000D02*
X89743750Y-105100000D01*
G75*
G02*
X89525000Y-104881250I0J218750D01*
G01*
X89525000Y-104443750D01*
G75*
G02*
X89743750Y-104225000I218750J0D01*
G01*
X90256250Y-104225000D01*
G75*
G02*
X90475000Y-104443750I0J-218750D01*
G01*
X90475000Y-104881250D01*
G75*
G02*
X90256250Y-105100000I-218750J0D01*
G01*
G37*
%TD*%
%TO.C,D66*%
G36*
G01*
X48906250Y-108600000D02*
X48393750Y-108600000D01*
G75*
G02*
X48175000Y-108381250I0J218750D01*
G01*
X48175000Y-107943750D01*
G75*
G02*
X48393750Y-107725000I218750J0D01*
G01*
X48906250Y-107725000D01*
G75*
G02*
X49125000Y-107943750I0J-218750D01*
G01*
X49125000Y-108381250D01*
G75*
G02*
X48906250Y-108600000I-218750J0D01*
G01*
G37*
G36*
G01*
X48906250Y-110175000D02*
X48393750Y-110175000D01*
G75*
G02*
X48175000Y-109956250I0J218750D01*
G01*
X48175000Y-109518750D01*
G75*
G02*
X48393750Y-109300000I218750J0D01*
G01*
X48906250Y-109300000D01*
G75*
G02*
X49125000Y-109518750I0J-218750D01*
G01*
X49125000Y-109956250D01*
G75*
G02*
X48906250Y-110175000I-218750J0D01*
G01*
G37*
%TD*%
%TO.C,D65*%
G36*
G01*
X46281250Y-108600000D02*
X45768750Y-108600000D01*
G75*
G02*
X45550000Y-108381250I0J218750D01*
G01*
X45550000Y-107943750D01*
G75*
G02*
X45768750Y-107725000I218750J0D01*
G01*
X46281250Y-107725000D01*
G75*
G02*
X46500000Y-107943750I0J-218750D01*
G01*
X46500000Y-108381250D01*
G75*
G02*
X46281250Y-108600000I-218750J0D01*
G01*
G37*
G36*
G01*
X46281250Y-110175000D02*
X45768750Y-110175000D01*
G75*
G02*
X45550000Y-109956250I0J218750D01*
G01*
X45550000Y-109518750D01*
G75*
G02*
X45768750Y-109300000I218750J0D01*
G01*
X46281250Y-109300000D01*
G75*
G02*
X46500000Y-109518750I0J-218750D01*
G01*
X46500000Y-109956250D01*
G75*
G02*
X46281250Y-110175000I-218750J0D01*
G01*
G37*
%TD*%
%TO.C,D64*%
G36*
G01*
X285868750Y-75200000D02*
X286381250Y-75200000D01*
G75*
G02*
X286600000Y-75418750I0J-218750D01*
G01*
X286600000Y-75856250D01*
G75*
G02*
X286381250Y-76075000I-218750J0D01*
G01*
X285868750Y-76075000D01*
G75*
G02*
X285650000Y-75856250I0J218750D01*
G01*
X285650000Y-75418750D01*
G75*
G02*
X285868750Y-75200000I218750J0D01*
G01*
G37*
G36*
G01*
X285868750Y-73625000D02*
X286381250Y-73625000D01*
G75*
G02*
X286600000Y-73843750I0J-218750D01*
G01*
X286600000Y-74281250D01*
G75*
G02*
X286381250Y-74500000I-218750J0D01*
G01*
X285868750Y-74500000D01*
G75*
G02*
X285650000Y-74281250I0J218750D01*
G01*
X285650000Y-73843750D01*
G75*
G02*
X285868750Y-73625000I218750J0D01*
G01*
G37*
%TD*%
%TO.C,D62*%
G36*
G01*
X283868750Y-75200000D02*
X284381250Y-75200000D01*
G75*
G02*
X284600000Y-75418750I0J-218750D01*
G01*
X284600000Y-75856250D01*
G75*
G02*
X284381250Y-76075000I-218750J0D01*
G01*
X283868750Y-76075000D01*
G75*
G02*
X283650000Y-75856250I0J218750D01*
G01*
X283650000Y-75418750D01*
G75*
G02*
X283868750Y-75200000I218750J0D01*
G01*
G37*
G36*
G01*
X283868750Y-73625000D02*
X284381250Y-73625000D01*
G75*
G02*
X284600000Y-73843750I0J-218750D01*
G01*
X284600000Y-74281250D01*
G75*
G02*
X284381250Y-74500000I-218750J0D01*
G01*
X283868750Y-74500000D01*
G75*
G02*
X283650000Y-74281250I0J218750D01*
G01*
X283650000Y-73843750D01*
G75*
G02*
X283868750Y-73625000I218750J0D01*
G01*
G37*
%TD*%
%TO.C,D61*%
G36*
G01*
X234143750Y-75200000D02*
X234656250Y-75200000D01*
G75*
G02*
X234875000Y-75418750I0J-218750D01*
G01*
X234875000Y-75856250D01*
G75*
G02*
X234656250Y-76075000I-218750J0D01*
G01*
X234143750Y-76075000D01*
G75*
G02*
X233925000Y-75856250I0J218750D01*
G01*
X233925000Y-75418750D01*
G75*
G02*
X234143750Y-75200000I218750J0D01*
G01*
G37*
G36*
G01*
X234143750Y-73625000D02*
X234656250Y-73625000D01*
G75*
G02*
X234875000Y-73843750I0J-218750D01*
G01*
X234875000Y-74281250D01*
G75*
G02*
X234656250Y-74500000I-218750J0D01*
G01*
X234143750Y-74500000D01*
G75*
G02*
X233925000Y-74281250I0J218750D01*
G01*
X233925000Y-73843750D01*
G75*
G02*
X234143750Y-73625000I218750J0D01*
G01*
G37*
%TD*%
%TO.C,D60*%
G36*
G01*
X231568750Y-75200000D02*
X232081250Y-75200000D01*
G75*
G02*
X232300000Y-75418750I0J-218750D01*
G01*
X232300000Y-75856250D01*
G75*
G02*
X232081250Y-76075000I-218750J0D01*
G01*
X231568750Y-76075000D01*
G75*
G02*
X231350000Y-75856250I0J218750D01*
G01*
X231350000Y-75418750D01*
G75*
G02*
X231568750Y-75200000I218750J0D01*
G01*
G37*
G36*
G01*
X231568750Y-73625000D02*
X232081250Y-73625000D01*
G75*
G02*
X232300000Y-73843750I0J-218750D01*
G01*
X232300000Y-74281250D01*
G75*
G02*
X232081250Y-74500000I-218750J0D01*
G01*
X231568750Y-74500000D01*
G75*
G02*
X231350000Y-74281250I0J218750D01*
G01*
X231350000Y-73843750D01*
G75*
G02*
X231568750Y-73625000I218750J0D01*
G01*
G37*
%TD*%
%TO.C,D59*%
G36*
G01*
X195968750Y-75200000D02*
X196481250Y-75200000D01*
G75*
G02*
X196700000Y-75418750I0J-218750D01*
G01*
X196700000Y-75856250D01*
G75*
G02*
X196481250Y-76075000I-218750J0D01*
G01*
X195968750Y-76075000D01*
G75*
G02*
X195750000Y-75856250I0J218750D01*
G01*
X195750000Y-75418750D01*
G75*
G02*
X195968750Y-75200000I218750J0D01*
G01*
G37*
G36*
G01*
X195968750Y-73625000D02*
X196481250Y-73625000D01*
G75*
G02*
X196700000Y-73843750I0J-218750D01*
G01*
X196700000Y-74281250D01*
G75*
G02*
X196481250Y-74500000I-218750J0D01*
G01*
X195968750Y-74500000D01*
G75*
G02*
X195750000Y-74281250I0J218750D01*
G01*
X195750000Y-73843750D01*
G75*
G02*
X195968750Y-73625000I218750J0D01*
G01*
G37*
%TD*%
%TO.C,D57*%
G36*
G01*
X157943750Y-75225000D02*
X158456250Y-75225000D01*
G75*
G02*
X158675000Y-75443750I0J-218750D01*
G01*
X158675000Y-75881250D01*
G75*
G02*
X158456250Y-76100000I-218750J0D01*
G01*
X157943750Y-76100000D01*
G75*
G02*
X157725000Y-75881250I0J218750D01*
G01*
X157725000Y-75443750D01*
G75*
G02*
X157943750Y-75225000I218750J0D01*
G01*
G37*
G36*
G01*
X157943750Y-73650000D02*
X158456250Y-73650000D01*
G75*
G02*
X158675000Y-73868750I0J-218750D01*
G01*
X158675000Y-74306250D01*
G75*
G02*
X158456250Y-74525000I-218750J0D01*
G01*
X157943750Y-74525000D01*
G75*
G02*
X157725000Y-74306250I0J218750D01*
G01*
X157725000Y-73868750D01*
G75*
G02*
X157943750Y-73650000I218750J0D01*
G01*
G37*
%TD*%
%TO.C,D56*%
G36*
G01*
X155368750Y-75225000D02*
X155881250Y-75225000D01*
G75*
G02*
X156100000Y-75443750I0J-218750D01*
G01*
X156100000Y-75881250D01*
G75*
G02*
X155881250Y-76100000I-218750J0D01*
G01*
X155368750Y-76100000D01*
G75*
G02*
X155150000Y-75881250I0J218750D01*
G01*
X155150000Y-75443750D01*
G75*
G02*
X155368750Y-75225000I218750J0D01*
G01*
G37*
G36*
G01*
X155368750Y-73650000D02*
X155881250Y-73650000D01*
G75*
G02*
X156100000Y-73868750I0J-218750D01*
G01*
X156100000Y-74306250D01*
G75*
G02*
X155881250Y-74525000I-218750J0D01*
G01*
X155368750Y-74525000D01*
G75*
G02*
X155150000Y-74306250I0J218750D01*
G01*
X155150000Y-73868750D01*
G75*
G02*
X155368750Y-73650000I218750J0D01*
G01*
G37*
%TD*%
%TO.C,D55*%
G36*
G01*
X119743750Y-75200000D02*
X120256250Y-75200000D01*
G75*
G02*
X120475000Y-75418750I0J-218750D01*
G01*
X120475000Y-75856250D01*
G75*
G02*
X120256250Y-76075000I-218750J0D01*
G01*
X119743750Y-76075000D01*
G75*
G02*
X119525000Y-75856250I0J218750D01*
G01*
X119525000Y-75418750D01*
G75*
G02*
X119743750Y-75200000I218750J0D01*
G01*
G37*
G36*
G01*
X119743750Y-73625000D02*
X120256250Y-73625000D01*
G75*
G02*
X120475000Y-73843750I0J-218750D01*
G01*
X120475000Y-74281250D01*
G75*
G02*
X120256250Y-74500000I-218750J0D01*
G01*
X119743750Y-74500000D01*
G75*
G02*
X119525000Y-74281250I0J218750D01*
G01*
X119525000Y-73843750D01*
G75*
G02*
X119743750Y-73625000I218750J0D01*
G01*
G37*
%TD*%
%TO.C,D54*%
G36*
G01*
X117268750Y-75200000D02*
X117781250Y-75200000D01*
G75*
G02*
X118000000Y-75418750I0J-218750D01*
G01*
X118000000Y-75856250D01*
G75*
G02*
X117781250Y-76075000I-218750J0D01*
G01*
X117268750Y-76075000D01*
G75*
G02*
X117050000Y-75856250I0J218750D01*
G01*
X117050000Y-75418750D01*
G75*
G02*
X117268750Y-75200000I218750J0D01*
G01*
G37*
G36*
G01*
X117268750Y-73625000D02*
X117781250Y-73625000D01*
G75*
G02*
X118000000Y-73843750I0J-218750D01*
G01*
X118000000Y-74281250D01*
G75*
G02*
X117781250Y-74500000I-218750J0D01*
G01*
X117268750Y-74500000D01*
G75*
G02*
X117050000Y-74281250I0J218750D01*
G01*
X117050000Y-73843750D01*
G75*
G02*
X117268750Y-73625000I218750J0D01*
G01*
G37*
%TD*%
%TO.C,D53*%
G36*
G01*
X81443750Y-75225000D02*
X81956250Y-75225000D01*
G75*
G02*
X82175000Y-75443750I0J-218750D01*
G01*
X82175000Y-75881250D01*
G75*
G02*
X81956250Y-76100000I-218750J0D01*
G01*
X81443750Y-76100000D01*
G75*
G02*
X81225000Y-75881250I0J218750D01*
G01*
X81225000Y-75443750D01*
G75*
G02*
X81443750Y-75225000I218750J0D01*
G01*
G37*
G36*
G01*
X81443750Y-73650000D02*
X81956250Y-73650000D01*
G75*
G02*
X82175000Y-73868750I0J-218750D01*
G01*
X82175000Y-74306250D01*
G75*
G02*
X81956250Y-74525000I-218750J0D01*
G01*
X81443750Y-74525000D01*
G75*
G02*
X81225000Y-74306250I0J218750D01*
G01*
X81225000Y-73868750D01*
G75*
G02*
X81443750Y-73650000I218750J0D01*
G01*
G37*
%TD*%
%TO.C,D52*%
G36*
G01*
X79423750Y-75220000D02*
X79936250Y-75220000D01*
G75*
G02*
X80155000Y-75438750I0J-218750D01*
G01*
X80155000Y-75876250D01*
G75*
G02*
X79936250Y-76095000I-218750J0D01*
G01*
X79423750Y-76095000D01*
G75*
G02*
X79205000Y-75876250I0J218750D01*
G01*
X79205000Y-75438750D01*
G75*
G02*
X79423750Y-75220000I218750J0D01*
G01*
G37*
G36*
G01*
X79423750Y-73645000D02*
X79936250Y-73645000D01*
G75*
G02*
X80155000Y-73863750I0J-218750D01*
G01*
X80155000Y-74301250D01*
G75*
G02*
X79936250Y-74520000I-218750J0D01*
G01*
X79423750Y-74520000D01*
G75*
G02*
X79205000Y-74301250I0J218750D01*
G01*
X79205000Y-73863750D01*
G75*
G02*
X79423750Y-73645000I218750J0D01*
G01*
G37*
%TD*%
%TO.C,D49*%
G36*
G01*
X44113750Y-75280000D02*
X44626250Y-75280000D01*
G75*
G02*
X44845000Y-75498750I0J-218750D01*
G01*
X44845000Y-75936250D01*
G75*
G02*
X44626250Y-76155000I-218750J0D01*
G01*
X44113750Y-76155000D01*
G75*
G02*
X43895000Y-75936250I0J218750D01*
G01*
X43895000Y-75498750D01*
G75*
G02*
X44113750Y-75280000I218750J0D01*
G01*
G37*
G36*
G01*
X44113750Y-73705000D02*
X44626250Y-73705000D01*
G75*
G02*
X44845000Y-73923750I0J-218750D01*
G01*
X44845000Y-74361250D01*
G75*
G02*
X44626250Y-74580000I-218750J0D01*
G01*
X44113750Y-74580000D01*
G75*
G02*
X43895000Y-74361250I0J218750D01*
G01*
X43895000Y-73923750D01*
G75*
G02*
X44113750Y-73705000I218750J0D01*
G01*
G37*
%TD*%
%TO.C,D47*%
G36*
G01*
X293626250Y-66833000D02*
X293113750Y-66833000D01*
G75*
G02*
X292895000Y-66614250I0J218750D01*
G01*
X292895000Y-66176750D01*
G75*
G02*
X293113750Y-65958000I218750J0D01*
G01*
X293626250Y-65958000D01*
G75*
G02*
X293845000Y-66176750I0J-218750D01*
G01*
X293845000Y-66614250D01*
G75*
G02*
X293626250Y-66833000I-218750J0D01*
G01*
G37*
G36*
G01*
X293626250Y-68408000D02*
X293113750Y-68408000D01*
G75*
G02*
X292895000Y-68189250I0J218750D01*
G01*
X292895000Y-67751750D01*
G75*
G02*
X293113750Y-67533000I218750J0D01*
G01*
X293626250Y-67533000D01*
G75*
G02*
X293845000Y-67751750I0J-218750D01*
G01*
X293845000Y-68189250D01*
G75*
G02*
X293626250Y-68408000I-218750J0D01*
G01*
G37*
%TD*%
%TO.C,D46*%
G36*
G01*
X260531250Y-71675000D02*
X260018750Y-71675000D01*
G75*
G02*
X259800000Y-71456250I0J218750D01*
G01*
X259800000Y-71018750D01*
G75*
G02*
X260018750Y-70800000I218750J0D01*
G01*
X260531250Y-70800000D01*
G75*
G02*
X260750000Y-71018750I0J-218750D01*
G01*
X260750000Y-71456250D01*
G75*
G02*
X260531250Y-71675000I-218750J0D01*
G01*
G37*
G36*
G01*
X260531250Y-73250000D02*
X260018750Y-73250000D01*
G75*
G02*
X259800000Y-73031250I0J218750D01*
G01*
X259800000Y-72593750D01*
G75*
G02*
X260018750Y-72375000I218750J0D01*
G01*
X260531250Y-72375000D01*
G75*
G02*
X260750000Y-72593750I0J-218750D01*
G01*
X260750000Y-73031250D01*
G75*
G02*
X260531250Y-73250000I-218750J0D01*
G01*
G37*
%TD*%
%TO.C,D45*%
G36*
G01*
X244156250Y-71675000D02*
X243643750Y-71675000D01*
G75*
G02*
X243425000Y-71456250I0J218750D01*
G01*
X243425000Y-71018750D01*
G75*
G02*
X243643750Y-70800000I218750J0D01*
G01*
X244156250Y-70800000D01*
G75*
G02*
X244375000Y-71018750I0J-218750D01*
G01*
X244375000Y-71456250D01*
G75*
G02*
X244156250Y-71675000I-218750J0D01*
G01*
G37*
G36*
G01*
X244156250Y-73250000D02*
X243643750Y-73250000D01*
G75*
G02*
X243425000Y-73031250I0J218750D01*
G01*
X243425000Y-72593750D01*
G75*
G02*
X243643750Y-72375000I218750J0D01*
G01*
X244156250Y-72375000D01*
G75*
G02*
X244375000Y-72593750I0J-218750D01*
G01*
X244375000Y-73031250D01*
G75*
G02*
X244156250Y-73250000I-218750J0D01*
G01*
G37*
%TD*%
%TO.C,D44*%
G36*
G01*
X241581250Y-71675000D02*
X241068750Y-71675000D01*
G75*
G02*
X240850000Y-71456250I0J218750D01*
G01*
X240850000Y-71018750D01*
G75*
G02*
X241068750Y-70800000I218750J0D01*
G01*
X241581250Y-70800000D01*
G75*
G02*
X241800000Y-71018750I0J-218750D01*
G01*
X241800000Y-71456250D01*
G75*
G02*
X241581250Y-71675000I-218750J0D01*
G01*
G37*
G36*
G01*
X241581250Y-73250000D02*
X241068750Y-73250000D01*
G75*
G02*
X240850000Y-73031250I0J218750D01*
G01*
X240850000Y-72593750D01*
G75*
G02*
X241068750Y-72375000I218750J0D01*
G01*
X241581250Y-72375000D01*
G75*
G02*
X241800000Y-72593750I0J-218750D01*
G01*
X241800000Y-73031250D01*
G75*
G02*
X241581250Y-73250000I-218750J0D01*
G01*
G37*
%TD*%
%TO.C,D43*%
G36*
G01*
X206031250Y-71650000D02*
X205518750Y-71650000D01*
G75*
G02*
X205300000Y-71431250I0J218750D01*
G01*
X205300000Y-70993750D01*
G75*
G02*
X205518750Y-70775000I218750J0D01*
G01*
X206031250Y-70775000D01*
G75*
G02*
X206250000Y-70993750I0J-218750D01*
G01*
X206250000Y-71431250D01*
G75*
G02*
X206031250Y-71650000I-218750J0D01*
G01*
G37*
G36*
G01*
X206031250Y-73225000D02*
X205518750Y-73225000D01*
G75*
G02*
X205300000Y-73006250I0J218750D01*
G01*
X205300000Y-72568750D01*
G75*
G02*
X205518750Y-72350000I218750J0D01*
G01*
X206031250Y-72350000D01*
G75*
G02*
X206250000Y-72568750I0J-218750D01*
G01*
X206250000Y-73006250D01*
G75*
G02*
X206031250Y-73225000I-218750J0D01*
G01*
G37*
%TD*%
%TO.C,D42*%
G36*
G01*
X203506250Y-71650000D02*
X202993750Y-71650000D01*
G75*
G02*
X202775000Y-71431250I0J218750D01*
G01*
X202775000Y-70993750D01*
G75*
G02*
X202993750Y-70775000I218750J0D01*
G01*
X203506250Y-70775000D01*
G75*
G02*
X203725000Y-70993750I0J-218750D01*
G01*
X203725000Y-71431250D01*
G75*
G02*
X203506250Y-71650000I-218750J0D01*
G01*
G37*
G36*
G01*
X203506250Y-73225000D02*
X202993750Y-73225000D01*
G75*
G02*
X202775000Y-73006250I0J218750D01*
G01*
X202775000Y-72568750D01*
G75*
G02*
X202993750Y-72350000I218750J0D01*
G01*
X203506250Y-72350000D01*
G75*
G02*
X203725000Y-72568750I0J-218750D01*
G01*
X203725000Y-73006250D01*
G75*
G02*
X203506250Y-73225000I-218750J0D01*
G01*
G37*
%TD*%
%TO.C,D41*%
G36*
G01*
X167906250Y-71650000D02*
X167393750Y-71650000D01*
G75*
G02*
X167175000Y-71431250I0J218750D01*
G01*
X167175000Y-70993750D01*
G75*
G02*
X167393750Y-70775000I218750J0D01*
G01*
X167906250Y-70775000D01*
G75*
G02*
X168125000Y-70993750I0J-218750D01*
G01*
X168125000Y-71431250D01*
G75*
G02*
X167906250Y-71650000I-218750J0D01*
G01*
G37*
G36*
G01*
X167906250Y-73225000D02*
X167393750Y-73225000D01*
G75*
G02*
X167175000Y-73006250I0J218750D01*
G01*
X167175000Y-72568750D01*
G75*
G02*
X167393750Y-72350000I218750J0D01*
G01*
X167906250Y-72350000D01*
G75*
G02*
X168125000Y-72568750I0J-218750D01*
G01*
X168125000Y-73006250D01*
G75*
G02*
X167906250Y-73225000I-218750J0D01*
G01*
G37*
%TD*%
%TO.C,D40*%
G36*
G01*
X165381250Y-71660000D02*
X164868750Y-71660000D01*
G75*
G02*
X164650000Y-71441250I0J218750D01*
G01*
X164650000Y-71003750D01*
G75*
G02*
X164868750Y-70785000I218750J0D01*
G01*
X165381250Y-70785000D01*
G75*
G02*
X165600000Y-71003750I0J-218750D01*
G01*
X165600000Y-71441250D01*
G75*
G02*
X165381250Y-71660000I-218750J0D01*
G01*
G37*
G36*
G01*
X165381250Y-73235000D02*
X164868750Y-73235000D01*
G75*
G02*
X164650000Y-73016250I0J218750D01*
G01*
X164650000Y-72578750D01*
G75*
G02*
X164868750Y-72360000I218750J0D01*
G01*
X165381250Y-72360000D01*
G75*
G02*
X165600000Y-72578750I0J-218750D01*
G01*
X165600000Y-73016250D01*
G75*
G02*
X165381250Y-73235000I-218750J0D01*
G01*
G37*
%TD*%
%TO.C,D39*%
G36*
G01*
X129806250Y-71660000D02*
X129293750Y-71660000D01*
G75*
G02*
X129075000Y-71441250I0J218750D01*
G01*
X129075000Y-71003750D01*
G75*
G02*
X129293750Y-70785000I218750J0D01*
G01*
X129806250Y-70785000D01*
G75*
G02*
X130025000Y-71003750I0J-218750D01*
G01*
X130025000Y-71441250D01*
G75*
G02*
X129806250Y-71660000I-218750J0D01*
G01*
G37*
G36*
G01*
X129806250Y-73235000D02*
X129293750Y-73235000D01*
G75*
G02*
X129075000Y-73016250I0J218750D01*
G01*
X129075000Y-72578750D01*
G75*
G02*
X129293750Y-72360000I218750J0D01*
G01*
X129806250Y-72360000D01*
G75*
G02*
X130025000Y-72578750I0J-218750D01*
G01*
X130025000Y-73016250D01*
G75*
G02*
X129806250Y-73235000I-218750J0D01*
G01*
G37*
%TD*%
%TO.C,D38*%
G36*
G01*
X110781250Y-71660000D02*
X110268750Y-71660000D01*
G75*
G02*
X110050000Y-71441250I0J218750D01*
G01*
X110050000Y-71003750D01*
G75*
G02*
X110268750Y-70785000I218750J0D01*
G01*
X110781250Y-70785000D01*
G75*
G02*
X111000000Y-71003750I0J-218750D01*
G01*
X111000000Y-71441250D01*
G75*
G02*
X110781250Y-71660000I-218750J0D01*
G01*
G37*
G36*
G01*
X110781250Y-73235000D02*
X110268750Y-73235000D01*
G75*
G02*
X110050000Y-73016250I0J218750D01*
G01*
X110050000Y-72578750D01*
G75*
G02*
X110268750Y-72360000I218750J0D01*
G01*
X110781250Y-72360000D01*
G75*
G02*
X111000000Y-72578750I0J-218750D01*
G01*
X111000000Y-73016250D01*
G75*
G02*
X110781250Y-73235000I-218750J0D01*
G01*
G37*
%TD*%
%TO.C,D37*%
G36*
G01*
X108256250Y-71660000D02*
X107743750Y-71660000D01*
G75*
G02*
X107525000Y-71441250I0J218750D01*
G01*
X107525000Y-71003750D01*
G75*
G02*
X107743750Y-70785000I218750J0D01*
G01*
X108256250Y-70785000D01*
G75*
G02*
X108475000Y-71003750I0J-218750D01*
G01*
X108475000Y-71441250D01*
G75*
G02*
X108256250Y-71660000I-218750J0D01*
G01*
G37*
G36*
G01*
X108256250Y-73235000D02*
X107743750Y-73235000D01*
G75*
G02*
X107525000Y-73016250I0J218750D01*
G01*
X107525000Y-72578750D01*
G75*
G02*
X107743750Y-72360000I218750J0D01*
G01*
X108256250Y-72360000D01*
G75*
G02*
X108475000Y-72578750I0J-218750D01*
G01*
X108475000Y-73016250D01*
G75*
G02*
X108256250Y-73235000I-218750J0D01*
G01*
G37*
%TD*%
%TO.C,D36*%
G36*
G01*
X72656250Y-71625000D02*
X72143750Y-71625000D01*
G75*
G02*
X71925000Y-71406250I0J218750D01*
G01*
X71925000Y-70968750D01*
G75*
G02*
X72143750Y-70750000I218750J0D01*
G01*
X72656250Y-70750000D01*
G75*
G02*
X72875000Y-70968750I0J-218750D01*
G01*
X72875000Y-71406250D01*
G75*
G02*
X72656250Y-71625000I-218750J0D01*
G01*
G37*
G36*
G01*
X72656250Y-73200000D02*
X72143750Y-73200000D01*
G75*
G02*
X71925000Y-72981250I0J218750D01*
G01*
X71925000Y-72543750D01*
G75*
G02*
X72143750Y-72325000I218750J0D01*
G01*
X72656250Y-72325000D01*
G75*
G02*
X72875000Y-72543750I0J-218750D01*
G01*
X72875000Y-72981250D01*
G75*
G02*
X72656250Y-73200000I-218750J0D01*
G01*
G37*
%TD*%
%TO.C,D35*%
G36*
G01*
X70256250Y-71650000D02*
X69743750Y-71650000D01*
G75*
G02*
X69525000Y-71431250I0J218750D01*
G01*
X69525000Y-70993750D01*
G75*
G02*
X69743750Y-70775000I218750J0D01*
G01*
X70256250Y-70775000D01*
G75*
G02*
X70475000Y-70993750I0J-218750D01*
G01*
X70475000Y-71431250D01*
G75*
G02*
X70256250Y-71650000I-218750J0D01*
G01*
G37*
G36*
G01*
X70256250Y-73225000D02*
X69743750Y-73225000D01*
G75*
G02*
X69525000Y-73006250I0J218750D01*
G01*
X69525000Y-72568750D01*
G75*
G02*
X69743750Y-72350000I218750J0D01*
G01*
X70256250Y-72350000D01*
G75*
G02*
X70475000Y-72568750I0J-218750D01*
G01*
X70475000Y-73006250D01*
G75*
G02*
X70256250Y-73225000I-218750J0D01*
G01*
G37*
%TD*%
%TO.C,D33*%
G36*
G01*
X38286250Y-71640000D02*
X37773750Y-71640000D01*
G75*
G02*
X37555000Y-71421250I0J218750D01*
G01*
X37555000Y-70983750D01*
G75*
G02*
X37773750Y-70765000I218750J0D01*
G01*
X38286250Y-70765000D01*
G75*
G02*
X38505000Y-70983750I0J-218750D01*
G01*
X38505000Y-71421250D01*
G75*
G02*
X38286250Y-71640000I-218750J0D01*
G01*
G37*
G36*
G01*
X38286250Y-73215000D02*
X37773750Y-73215000D01*
G75*
G02*
X37555000Y-72996250I0J218750D01*
G01*
X37555000Y-72558750D01*
G75*
G02*
X37773750Y-72340000I218750J0D01*
G01*
X38286250Y-72340000D01*
G75*
G02*
X38505000Y-72558750I0J-218750D01*
G01*
X38505000Y-72996250D01*
G75*
G02*
X38286250Y-73215000I-218750J0D01*
G01*
G37*
%TD*%
%TO.C,D32*%
G36*
G01*
X282143750Y-35712500D02*
X282656250Y-35712500D01*
G75*
G02*
X282875000Y-35931250I0J-218750D01*
G01*
X282875000Y-36368750D01*
G75*
G02*
X282656250Y-36587500I-218750J0D01*
G01*
X282143750Y-36587500D01*
G75*
G02*
X281925000Y-36368750I0J218750D01*
G01*
X281925000Y-35931250D01*
G75*
G02*
X282143750Y-35712500I218750J0D01*
G01*
G37*
G36*
G01*
X282143750Y-37287500D02*
X282656250Y-37287500D01*
G75*
G02*
X282875000Y-37506250I0J-218750D01*
G01*
X282875000Y-37943750D01*
G75*
G02*
X282656250Y-38162500I-218750J0D01*
G01*
X282143750Y-38162500D01*
G75*
G02*
X281925000Y-37943750I0J218750D01*
G01*
X281925000Y-37506250D01*
G75*
G02*
X282143750Y-37287500I218750J0D01*
G01*
G37*
%TD*%
%TO.C,D31*%
G36*
G01*
X258218750Y-35855000D02*
X258731250Y-35855000D01*
G75*
G02*
X258950000Y-36073750I0J-218750D01*
G01*
X258950000Y-36511250D01*
G75*
G02*
X258731250Y-36730000I-218750J0D01*
G01*
X258218750Y-36730000D01*
G75*
G02*
X258000000Y-36511250I0J218750D01*
G01*
X258000000Y-36073750D01*
G75*
G02*
X258218750Y-35855000I218750J0D01*
G01*
G37*
G36*
G01*
X258218750Y-37430000D02*
X258731250Y-37430000D01*
G75*
G02*
X258950000Y-37648750I0J-218750D01*
G01*
X258950000Y-38086250D01*
G75*
G02*
X258731250Y-38305000I-218750J0D01*
G01*
X258218750Y-38305000D01*
G75*
G02*
X258000000Y-38086250I0J218750D01*
G01*
X258000000Y-37648750D01*
G75*
G02*
X258218750Y-37430000I218750J0D01*
G01*
G37*
%TD*%
%TO.C,D29*%
G36*
G01*
X220168750Y-37450000D02*
X220681250Y-37450000D01*
G75*
G02*
X220900000Y-37668750I0J-218750D01*
G01*
X220900000Y-38106250D01*
G75*
G02*
X220681250Y-38325000I-218750J0D01*
G01*
X220168750Y-38325000D01*
G75*
G02*
X219950000Y-38106250I0J218750D01*
G01*
X219950000Y-37668750D01*
G75*
G02*
X220168750Y-37450000I218750J0D01*
G01*
G37*
G36*
G01*
X220168750Y-35875000D02*
X220681250Y-35875000D01*
G75*
G02*
X220900000Y-36093750I0J-218750D01*
G01*
X220900000Y-36531250D01*
G75*
G02*
X220681250Y-36750000I-218750J0D01*
G01*
X220168750Y-36750000D01*
G75*
G02*
X219950000Y-36531250I0J218750D01*
G01*
X219950000Y-36093750D01*
G75*
G02*
X220168750Y-35875000I218750J0D01*
G01*
G37*
%TD*%
%TO.C,D27*%
G36*
G01*
X181918750Y-37475000D02*
X182431250Y-37475000D01*
G75*
G02*
X182650000Y-37693750I0J-218750D01*
G01*
X182650000Y-38131250D01*
G75*
G02*
X182431250Y-38350000I-218750J0D01*
G01*
X181918750Y-38350000D01*
G75*
G02*
X181700000Y-38131250I0J218750D01*
G01*
X181700000Y-37693750D01*
G75*
G02*
X181918750Y-37475000I218750J0D01*
G01*
G37*
G36*
G01*
X181918750Y-35900000D02*
X182431250Y-35900000D01*
G75*
G02*
X182650000Y-36118750I0J-218750D01*
G01*
X182650000Y-36556250D01*
G75*
G02*
X182431250Y-36775000I-218750J0D01*
G01*
X181918750Y-36775000D01*
G75*
G02*
X181700000Y-36556250I0J218750D01*
G01*
X181700000Y-36118750D01*
G75*
G02*
X181918750Y-35900000I218750J0D01*
G01*
G37*
%TD*%
%TO.C,D26*%
G36*
G01*
X179143750Y-37450000D02*
X179656250Y-37450000D01*
G75*
G02*
X179875000Y-37668750I0J-218750D01*
G01*
X179875000Y-38106250D01*
G75*
G02*
X179656250Y-38325000I-218750J0D01*
G01*
X179143750Y-38325000D01*
G75*
G02*
X178925000Y-38106250I0J218750D01*
G01*
X178925000Y-37668750D01*
G75*
G02*
X179143750Y-37450000I218750J0D01*
G01*
G37*
G36*
G01*
X179143750Y-35875000D02*
X179656250Y-35875000D01*
G75*
G02*
X179875000Y-36093750I0J-218750D01*
G01*
X179875000Y-36531250D01*
G75*
G02*
X179656250Y-36750000I-218750J0D01*
G01*
X179143750Y-36750000D01*
G75*
G02*
X178925000Y-36531250I0J218750D01*
G01*
X178925000Y-36093750D01*
G75*
G02*
X179143750Y-35875000I218750J0D01*
G01*
G37*
%TD*%
%TO.C,D25*%
G36*
G01*
X143793750Y-37450000D02*
X144306250Y-37450000D01*
G75*
G02*
X144525000Y-37668750I0J-218750D01*
G01*
X144525000Y-38106250D01*
G75*
G02*
X144306250Y-38325000I-218750J0D01*
G01*
X143793750Y-38325000D01*
G75*
G02*
X143575000Y-38106250I0J218750D01*
G01*
X143575000Y-37668750D01*
G75*
G02*
X143793750Y-37450000I218750J0D01*
G01*
G37*
G36*
G01*
X143793750Y-35875000D02*
X144306250Y-35875000D01*
G75*
G02*
X144525000Y-36093750I0J-218750D01*
G01*
X144525000Y-36531250D01*
G75*
G02*
X144306250Y-36750000I-218750J0D01*
G01*
X143793750Y-36750000D01*
G75*
G02*
X143575000Y-36531250I0J218750D01*
G01*
X143575000Y-36093750D01*
G75*
G02*
X143793750Y-35875000I218750J0D01*
G01*
G37*
%TD*%
%TO.C,D24*%
G36*
G01*
X141018750Y-37450000D02*
X141531250Y-37450000D01*
G75*
G02*
X141750000Y-37668750I0J-218750D01*
G01*
X141750000Y-38106250D01*
G75*
G02*
X141531250Y-38325000I-218750J0D01*
G01*
X141018750Y-38325000D01*
G75*
G02*
X140800000Y-38106250I0J218750D01*
G01*
X140800000Y-37668750D01*
G75*
G02*
X141018750Y-37450000I218750J0D01*
G01*
G37*
G36*
G01*
X141018750Y-35875000D02*
X141531250Y-35875000D01*
G75*
G02*
X141750000Y-36093750I0J-218750D01*
G01*
X141750000Y-36531250D01*
G75*
G02*
X141531250Y-36750000I-218750J0D01*
G01*
X141018750Y-36750000D01*
G75*
G02*
X140800000Y-36531250I0J218750D01*
G01*
X140800000Y-36093750D01*
G75*
G02*
X141018750Y-35875000I218750J0D01*
G01*
G37*
%TD*%
%TO.C,D23*%
G36*
G01*
X105768750Y-37430000D02*
X106281250Y-37430000D01*
G75*
G02*
X106500000Y-37648750I0J-218750D01*
G01*
X106500000Y-38086250D01*
G75*
G02*
X106281250Y-38305000I-218750J0D01*
G01*
X105768750Y-38305000D01*
G75*
G02*
X105550000Y-38086250I0J218750D01*
G01*
X105550000Y-37648750D01*
G75*
G02*
X105768750Y-37430000I218750J0D01*
G01*
G37*
G36*
G01*
X105768750Y-35855000D02*
X106281250Y-35855000D01*
G75*
G02*
X106500000Y-36073750I0J-218750D01*
G01*
X106500000Y-36511250D01*
G75*
G02*
X106281250Y-36730000I-218750J0D01*
G01*
X105768750Y-36730000D01*
G75*
G02*
X105550000Y-36511250I0J218750D01*
G01*
X105550000Y-36073750D01*
G75*
G02*
X105768750Y-35855000I218750J0D01*
G01*
G37*
%TD*%
%TO.C,D22*%
G36*
G01*
X103018750Y-37425000D02*
X103531250Y-37425000D01*
G75*
G02*
X103750000Y-37643750I0J-218750D01*
G01*
X103750000Y-38081250D01*
G75*
G02*
X103531250Y-38300000I-218750J0D01*
G01*
X103018750Y-38300000D01*
G75*
G02*
X102800000Y-38081250I0J218750D01*
G01*
X102800000Y-37643750D01*
G75*
G02*
X103018750Y-37425000I218750J0D01*
G01*
G37*
G36*
G01*
X103018750Y-35850000D02*
X103531250Y-35850000D01*
G75*
G02*
X103750000Y-36068750I0J-218750D01*
G01*
X103750000Y-36506250D01*
G75*
G02*
X103531250Y-36725000I-218750J0D01*
G01*
X103018750Y-36725000D01*
G75*
G02*
X102800000Y-36506250I0J218750D01*
G01*
X102800000Y-36068750D01*
G75*
G02*
X103018750Y-35850000I218750J0D01*
G01*
G37*
%TD*%
%TO.C,D21*%
G36*
G01*
X67618750Y-37450000D02*
X68131250Y-37450000D01*
G75*
G02*
X68350000Y-37668750I0J-218750D01*
G01*
X68350000Y-38106250D01*
G75*
G02*
X68131250Y-38325000I-218750J0D01*
G01*
X67618750Y-38325000D01*
G75*
G02*
X67400000Y-38106250I0J218750D01*
G01*
X67400000Y-37668750D01*
G75*
G02*
X67618750Y-37450000I218750J0D01*
G01*
G37*
G36*
G01*
X67618750Y-35875000D02*
X68131250Y-35875000D01*
G75*
G02*
X68350000Y-36093750I0J-218750D01*
G01*
X68350000Y-36531250D01*
G75*
G02*
X68131250Y-36750000I-218750J0D01*
G01*
X67618750Y-36750000D01*
G75*
G02*
X67400000Y-36531250I0J218750D01*
G01*
X67400000Y-36093750D01*
G75*
G02*
X67618750Y-35875000I218750J0D01*
G01*
G37*
%TD*%
%TO.C,D20*%
G36*
G01*
X64893750Y-37425000D02*
X65406250Y-37425000D01*
G75*
G02*
X65625000Y-37643750I0J-218750D01*
G01*
X65625000Y-38081250D01*
G75*
G02*
X65406250Y-38300000I-218750J0D01*
G01*
X64893750Y-38300000D01*
G75*
G02*
X64675000Y-38081250I0J218750D01*
G01*
X64675000Y-37643750D01*
G75*
G02*
X64893750Y-37425000I218750J0D01*
G01*
G37*
G36*
G01*
X64893750Y-35850000D02*
X65406250Y-35850000D01*
G75*
G02*
X65625000Y-36068750I0J-218750D01*
G01*
X65625000Y-36506250D01*
G75*
G02*
X65406250Y-36725000I-218750J0D01*
G01*
X64893750Y-36725000D01*
G75*
G02*
X64675000Y-36506250I0J218750D01*
G01*
X64675000Y-36068750D01*
G75*
G02*
X64893750Y-35850000I218750J0D01*
G01*
G37*
%TD*%
%TO.C,D19*%
G36*
G01*
X32233750Y-39440000D02*
X32746250Y-39440000D01*
G75*
G02*
X32965000Y-39658750I0J-218750D01*
G01*
X32965000Y-40096250D01*
G75*
G02*
X32746250Y-40315000I-218750J0D01*
G01*
X32233750Y-40315000D01*
G75*
G02*
X32015000Y-40096250I0J218750D01*
G01*
X32015000Y-39658750D01*
G75*
G02*
X32233750Y-39440000I218750J0D01*
G01*
G37*
G36*
G01*
X32233750Y-37865000D02*
X32746250Y-37865000D01*
G75*
G02*
X32965000Y-38083750I0J-218750D01*
G01*
X32965000Y-38521250D01*
G75*
G02*
X32746250Y-38740000I-218750J0D01*
G01*
X32233750Y-38740000D01*
G75*
G02*
X32015000Y-38521250I0J218750D01*
G01*
X32015000Y-38083750D01*
G75*
G02*
X32233750Y-37865000I218750J0D01*
G01*
G37*
%TD*%
%TO.C,D18*%
G36*
G01*
X287106250Y-33305000D02*
X286593750Y-33305000D01*
G75*
G02*
X286375000Y-33086250I0J218750D01*
G01*
X286375000Y-32648750D01*
G75*
G02*
X286593750Y-32430000I218750J0D01*
G01*
X287106250Y-32430000D01*
G75*
G02*
X287325000Y-32648750I0J-218750D01*
G01*
X287325000Y-33086250D01*
G75*
G02*
X287106250Y-33305000I-218750J0D01*
G01*
G37*
G36*
G01*
X287106250Y-34880000D02*
X286593750Y-34880000D01*
G75*
G02*
X286375000Y-34661250I0J218750D01*
G01*
X286375000Y-34223750D01*
G75*
G02*
X286593750Y-34005000I218750J0D01*
G01*
X287106250Y-34005000D01*
G75*
G02*
X287325000Y-34223750I0J-218750D01*
G01*
X287325000Y-34661250D01*
G75*
G02*
X287106250Y-34880000I-218750J0D01*
G01*
G37*
%TD*%
%TO.C,D16*%
G36*
G01*
X284456250Y-33300000D02*
X283943750Y-33300000D01*
G75*
G02*
X283725000Y-33081250I0J218750D01*
G01*
X283725000Y-32643750D01*
G75*
G02*
X283943750Y-32425000I218750J0D01*
G01*
X284456250Y-32425000D01*
G75*
G02*
X284675000Y-32643750I0J-218750D01*
G01*
X284675000Y-33081250D01*
G75*
G02*
X284456250Y-33300000I-218750J0D01*
G01*
G37*
G36*
G01*
X284456250Y-34875000D02*
X283943750Y-34875000D01*
G75*
G02*
X283725000Y-34656250I0J218750D01*
G01*
X283725000Y-34218750D01*
G75*
G02*
X283943750Y-34000000I218750J0D01*
G01*
X284456250Y-34000000D01*
G75*
G02*
X284675000Y-34218750I0J-218750D01*
G01*
X284675000Y-34656250D01*
G75*
G02*
X284456250Y-34875000I-218750J0D01*
G01*
G37*
%TD*%
%TO.C,D15*%
G36*
G01*
X248956250Y-33300000D02*
X248443750Y-33300000D01*
G75*
G02*
X248225000Y-33081250I0J218750D01*
G01*
X248225000Y-32643750D01*
G75*
G02*
X248443750Y-32425000I218750J0D01*
G01*
X248956250Y-32425000D01*
G75*
G02*
X249175000Y-32643750I0J-218750D01*
G01*
X249175000Y-33081250D01*
G75*
G02*
X248956250Y-33300000I-218750J0D01*
G01*
G37*
G36*
G01*
X248956250Y-34875000D02*
X248443750Y-34875000D01*
G75*
G02*
X248225000Y-34656250I0J218750D01*
G01*
X248225000Y-34218750D01*
G75*
G02*
X248443750Y-34000000I218750J0D01*
G01*
X248956250Y-34000000D01*
G75*
G02*
X249175000Y-34218750I0J-218750D01*
G01*
X249175000Y-34656250D01*
G75*
G02*
X248956250Y-34875000I-218750J0D01*
G01*
G37*
%TD*%
%TO.C,D14*%
G36*
G01*
X246381250Y-33305000D02*
X245868750Y-33305000D01*
G75*
G02*
X245650000Y-33086250I0J218750D01*
G01*
X245650000Y-32648750D01*
G75*
G02*
X245868750Y-32430000I218750J0D01*
G01*
X246381250Y-32430000D01*
G75*
G02*
X246600000Y-32648750I0J-218750D01*
G01*
X246600000Y-33086250D01*
G75*
G02*
X246381250Y-33305000I-218750J0D01*
G01*
G37*
G36*
G01*
X246381250Y-34880000D02*
X245868750Y-34880000D01*
G75*
G02*
X245650000Y-34661250I0J218750D01*
G01*
X245650000Y-34223750D01*
G75*
G02*
X245868750Y-34005000I218750J0D01*
G01*
X246381250Y-34005000D01*
G75*
G02*
X246600000Y-34223750I0J-218750D01*
G01*
X246600000Y-34661250D01*
G75*
G02*
X246381250Y-34880000I-218750J0D01*
G01*
G37*
%TD*%
%TO.C,D13*%
G36*
G01*
X210781250Y-33305000D02*
X210268750Y-33305000D01*
G75*
G02*
X210050000Y-33086250I0J218750D01*
G01*
X210050000Y-32648750D01*
G75*
G02*
X210268750Y-32430000I218750J0D01*
G01*
X210781250Y-32430000D01*
G75*
G02*
X211000000Y-32648750I0J-218750D01*
G01*
X211000000Y-33086250D01*
G75*
G02*
X210781250Y-33305000I-218750J0D01*
G01*
G37*
G36*
G01*
X210781250Y-34880000D02*
X210268750Y-34880000D01*
G75*
G02*
X210050000Y-34661250I0J218750D01*
G01*
X210050000Y-34223750D01*
G75*
G02*
X210268750Y-34005000I218750J0D01*
G01*
X210781250Y-34005000D01*
G75*
G02*
X211000000Y-34223750I0J-218750D01*
G01*
X211000000Y-34661250D01*
G75*
G02*
X210781250Y-34880000I-218750J0D01*
G01*
G37*
%TD*%
%TO.C,D12*%
G36*
G01*
X208281250Y-33305000D02*
X207768750Y-33305000D01*
G75*
G02*
X207550000Y-33086250I0J218750D01*
G01*
X207550000Y-32648750D01*
G75*
G02*
X207768750Y-32430000I218750J0D01*
G01*
X208281250Y-32430000D01*
G75*
G02*
X208500000Y-32648750I0J-218750D01*
G01*
X208500000Y-33086250D01*
G75*
G02*
X208281250Y-33305000I-218750J0D01*
G01*
G37*
G36*
G01*
X208281250Y-34880000D02*
X207768750Y-34880000D01*
G75*
G02*
X207550000Y-34661250I0J218750D01*
G01*
X207550000Y-34223750D01*
G75*
G02*
X207768750Y-34005000I218750J0D01*
G01*
X208281250Y-34005000D01*
G75*
G02*
X208500000Y-34223750I0J-218750D01*
G01*
X208500000Y-34661250D01*
G75*
G02*
X208281250Y-34880000I-218750J0D01*
G01*
G37*
%TD*%
%TO.C,D11*%
G36*
G01*
X172731250Y-33300000D02*
X172218750Y-33300000D01*
G75*
G02*
X172000000Y-33081250I0J218750D01*
G01*
X172000000Y-32643750D01*
G75*
G02*
X172218750Y-32425000I218750J0D01*
G01*
X172731250Y-32425000D01*
G75*
G02*
X172950000Y-32643750I0J-218750D01*
G01*
X172950000Y-33081250D01*
G75*
G02*
X172731250Y-33300000I-218750J0D01*
G01*
G37*
G36*
G01*
X172731250Y-34875000D02*
X172218750Y-34875000D01*
G75*
G02*
X172000000Y-34656250I0J218750D01*
G01*
X172000000Y-34218750D01*
G75*
G02*
X172218750Y-34000000I218750J0D01*
G01*
X172731250Y-34000000D01*
G75*
G02*
X172950000Y-34218750I0J-218750D01*
G01*
X172950000Y-34656250D01*
G75*
G02*
X172731250Y-34875000I-218750J0D01*
G01*
G37*
%TD*%
%TO.C,D10*%
G36*
G01*
X170181250Y-33300000D02*
X169668750Y-33300000D01*
G75*
G02*
X169450000Y-33081250I0J218750D01*
G01*
X169450000Y-32643750D01*
G75*
G02*
X169668750Y-32425000I218750J0D01*
G01*
X170181250Y-32425000D01*
G75*
G02*
X170400000Y-32643750I0J-218750D01*
G01*
X170400000Y-33081250D01*
G75*
G02*
X170181250Y-33300000I-218750J0D01*
G01*
G37*
G36*
G01*
X170181250Y-34875000D02*
X169668750Y-34875000D01*
G75*
G02*
X169450000Y-34656250I0J218750D01*
G01*
X169450000Y-34218750D01*
G75*
G02*
X169668750Y-34000000I218750J0D01*
G01*
X170181250Y-34000000D01*
G75*
G02*
X170400000Y-34218750I0J-218750D01*
G01*
X170400000Y-34656250D01*
G75*
G02*
X170181250Y-34875000I-218750J0D01*
G01*
G37*
%TD*%
%TO.C,D9*%
G36*
G01*
X134631250Y-33300000D02*
X134118750Y-33300000D01*
G75*
G02*
X133900000Y-33081250I0J218750D01*
G01*
X133900000Y-32643750D01*
G75*
G02*
X134118750Y-32425000I218750J0D01*
G01*
X134631250Y-32425000D01*
G75*
G02*
X134850000Y-32643750I0J-218750D01*
G01*
X134850000Y-33081250D01*
G75*
G02*
X134631250Y-33300000I-218750J0D01*
G01*
G37*
G36*
G01*
X134631250Y-34875000D02*
X134118750Y-34875000D01*
G75*
G02*
X133900000Y-34656250I0J218750D01*
G01*
X133900000Y-34218750D01*
G75*
G02*
X134118750Y-34000000I218750J0D01*
G01*
X134631250Y-34000000D01*
G75*
G02*
X134850000Y-34218750I0J-218750D01*
G01*
X134850000Y-34656250D01*
G75*
G02*
X134631250Y-34875000I-218750J0D01*
G01*
G37*
%TD*%
%TO.C,D8*%
G36*
G01*
X132056250Y-33300000D02*
X131543750Y-33300000D01*
G75*
G02*
X131325000Y-33081250I0J218750D01*
G01*
X131325000Y-32643750D01*
G75*
G02*
X131543750Y-32425000I218750J0D01*
G01*
X132056250Y-32425000D01*
G75*
G02*
X132275000Y-32643750I0J-218750D01*
G01*
X132275000Y-33081250D01*
G75*
G02*
X132056250Y-33300000I-218750J0D01*
G01*
G37*
G36*
G01*
X132056250Y-34875000D02*
X131543750Y-34875000D01*
G75*
G02*
X131325000Y-34656250I0J218750D01*
G01*
X131325000Y-34218750D01*
G75*
G02*
X131543750Y-34000000I218750J0D01*
G01*
X132056250Y-34000000D01*
G75*
G02*
X132275000Y-34218750I0J-218750D01*
G01*
X132275000Y-34656250D01*
G75*
G02*
X132056250Y-34875000I-218750J0D01*
G01*
G37*
%TD*%
%TO.C,D7*%
G36*
G01*
X96531250Y-33300000D02*
X96018750Y-33300000D01*
G75*
G02*
X95800000Y-33081250I0J218750D01*
G01*
X95800000Y-32643750D01*
G75*
G02*
X96018750Y-32425000I218750J0D01*
G01*
X96531250Y-32425000D01*
G75*
G02*
X96750000Y-32643750I0J-218750D01*
G01*
X96750000Y-33081250D01*
G75*
G02*
X96531250Y-33300000I-218750J0D01*
G01*
G37*
G36*
G01*
X96531250Y-34875000D02*
X96018750Y-34875000D01*
G75*
G02*
X95800000Y-34656250I0J218750D01*
G01*
X95800000Y-34218750D01*
G75*
G02*
X96018750Y-34000000I218750J0D01*
G01*
X96531250Y-34000000D01*
G75*
G02*
X96750000Y-34218750I0J-218750D01*
G01*
X96750000Y-34656250D01*
G75*
G02*
X96531250Y-34875000I-218750J0D01*
G01*
G37*
%TD*%
%TO.C,D6*%
G36*
G01*
X94031250Y-33300000D02*
X93518750Y-33300000D01*
G75*
G02*
X93300000Y-33081250I0J218750D01*
G01*
X93300000Y-32643750D01*
G75*
G02*
X93518750Y-32425000I218750J0D01*
G01*
X94031250Y-32425000D01*
G75*
G02*
X94250000Y-32643750I0J-218750D01*
G01*
X94250000Y-33081250D01*
G75*
G02*
X94031250Y-33300000I-218750J0D01*
G01*
G37*
G36*
G01*
X94031250Y-34875000D02*
X93518750Y-34875000D01*
G75*
G02*
X93300000Y-34656250I0J218750D01*
G01*
X93300000Y-34218750D01*
G75*
G02*
X93518750Y-34000000I218750J0D01*
G01*
X94031250Y-34000000D01*
G75*
G02*
X94250000Y-34218750I0J-218750D01*
G01*
X94250000Y-34656250D01*
G75*
G02*
X94031250Y-34875000I-218750J0D01*
G01*
G37*
%TD*%
%TO.C,D5*%
G36*
G01*
X58431250Y-33305000D02*
X57918750Y-33305000D01*
G75*
G02*
X57700000Y-33086250I0J218750D01*
G01*
X57700000Y-32648750D01*
G75*
G02*
X57918750Y-32430000I218750J0D01*
G01*
X58431250Y-32430000D01*
G75*
G02*
X58650000Y-32648750I0J-218750D01*
G01*
X58650000Y-33086250D01*
G75*
G02*
X58431250Y-33305000I-218750J0D01*
G01*
G37*
G36*
G01*
X58431250Y-34880000D02*
X57918750Y-34880000D01*
G75*
G02*
X57700000Y-34661250I0J218750D01*
G01*
X57700000Y-34223750D01*
G75*
G02*
X57918750Y-34005000I218750J0D01*
G01*
X58431250Y-34005000D01*
G75*
G02*
X58650000Y-34223750I0J-218750D01*
G01*
X58650000Y-34661250D01*
G75*
G02*
X58431250Y-34880000I-218750J0D01*
G01*
G37*
%TD*%
%TO.C,D4*%
G36*
G01*
X55906250Y-33305000D02*
X55393750Y-33305000D01*
G75*
G02*
X55175000Y-33086250I0J218750D01*
G01*
X55175000Y-32648750D01*
G75*
G02*
X55393750Y-32430000I218750J0D01*
G01*
X55906250Y-32430000D01*
G75*
G02*
X56125000Y-32648750I0J-218750D01*
G01*
X56125000Y-33086250D01*
G75*
G02*
X55906250Y-33305000I-218750J0D01*
G01*
G37*
G36*
G01*
X55906250Y-34880000D02*
X55393750Y-34880000D01*
G75*
G02*
X55175000Y-34661250I0J218750D01*
G01*
X55175000Y-34223750D01*
G75*
G02*
X55393750Y-34005000I218750J0D01*
G01*
X55906250Y-34005000D01*
G75*
G02*
X56125000Y-34223750I0J-218750D01*
G01*
X56125000Y-34661250D01*
G75*
G02*
X55906250Y-34880000I-218750J0D01*
G01*
G37*
%TD*%
%TO.C,D3*%
G36*
G01*
X31117250Y-33305000D02*
X30604750Y-33305000D01*
G75*
G02*
X30386000Y-33086250I0J218750D01*
G01*
X30386000Y-32648750D01*
G75*
G02*
X30604750Y-32430000I218750J0D01*
G01*
X31117250Y-32430000D01*
G75*
G02*
X31336000Y-32648750I0J-218750D01*
G01*
X31336000Y-33086250D01*
G75*
G02*
X31117250Y-33305000I-218750J0D01*
G01*
G37*
G36*
G01*
X31117250Y-34880000D02*
X30604750Y-34880000D01*
G75*
G02*
X30386000Y-34661250I0J218750D01*
G01*
X30386000Y-34223750D01*
G75*
G02*
X30604750Y-34005000I218750J0D01*
G01*
X31117250Y-34005000D01*
G75*
G02*
X31336000Y-34223750I0J-218750D01*
G01*
X31336000Y-34661250D01*
G75*
G02*
X31117250Y-34880000I-218750J0D01*
G01*
G37*
%TD*%
%TO.C,R7*%
G36*
G01*
X205705000Y-103935000D02*
X205705000Y-103385000D01*
G75*
G02*
X205905000Y-103185000I200000J0D01*
G01*
X206305000Y-103185000D01*
G75*
G02*
X206505000Y-103385000I0J-200000D01*
G01*
X206505000Y-103935000D01*
G75*
G02*
X206305000Y-104135000I-200000J0D01*
G01*
X205905000Y-104135000D01*
G75*
G02*
X205705000Y-103935000I0J200000D01*
G01*
G37*
G36*
G01*
X204055000Y-103935000D02*
X204055000Y-103385000D01*
G75*
G02*
X204255000Y-103185000I200000J0D01*
G01*
X204655000Y-103185000D01*
G75*
G02*
X204855000Y-103385000I0J-200000D01*
G01*
X204855000Y-103935000D01*
G75*
G02*
X204655000Y-104135000I-200000J0D01*
G01*
X204255000Y-104135000D01*
G75*
G02*
X204055000Y-103935000I0J200000D01*
G01*
G37*
%TD*%
%TO.C,R6*%
G36*
G01*
X204875000Y-105105000D02*
X204875000Y-105655000D01*
G75*
G02*
X204675000Y-105855000I-200000J0D01*
G01*
X204275000Y-105855000D01*
G75*
G02*
X204075000Y-105655000I0J200000D01*
G01*
X204075000Y-105105000D01*
G75*
G02*
X204275000Y-104905000I200000J0D01*
G01*
X204675000Y-104905000D01*
G75*
G02*
X204875000Y-105105000I0J-200000D01*
G01*
G37*
G36*
G01*
X206525000Y-105105000D02*
X206525000Y-105655000D01*
G75*
G02*
X206325000Y-105855000I-200000J0D01*
G01*
X205925000Y-105855000D01*
G75*
G02*
X205725000Y-105655000I0J200000D01*
G01*
X205725000Y-105105000D01*
G75*
G02*
X205925000Y-104905000I200000J0D01*
G01*
X206325000Y-104905000D01*
G75*
G02*
X206525000Y-105105000I0J-200000D01*
G01*
G37*
%TD*%
%TO.C,R5*%
G36*
G01*
X33888000Y-31223000D02*
X34438000Y-31223000D01*
G75*
G02*
X34638000Y-31423000I0J-200000D01*
G01*
X34638000Y-31823000D01*
G75*
G02*
X34438000Y-32023000I-200000J0D01*
G01*
X33888000Y-32023000D01*
G75*
G02*
X33688000Y-31823000I0J200000D01*
G01*
X33688000Y-31423000D01*
G75*
G02*
X33888000Y-31223000I200000J0D01*
G01*
G37*
G36*
G01*
X33888000Y-29573000D02*
X34438000Y-29573000D01*
G75*
G02*
X34638000Y-29773000I0J-200000D01*
G01*
X34638000Y-30173000D01*
G75*
G02*
X34438000Y-30373000I-200000J0D01*
G01*
X33888000Y-30373000D01*
G75*
G02*
X33688000Y-30173000I0J200000D01*
G01*
X33688000Y-29773000D01*
G75*
G02*
X33888000Y-29573000I200000J0D01*
G01*
G37*
%TD*%
%TO.C,R4*%
G36*
G01*
X41381000Y-31159000D02*
X41931000Y-31159000D01*
G75*
G02*
X42131000Y-31359000I0J-200000D01*
G01*
X42131000Y-31759000D01*
G75*
G02*
X41931000Y-31959000I-200000J0D01*
G01*
X41381000Y-31959000D01*
G75*
G02*
X41181000Y-31759000I0J200000D01*
G01*
X41181000Y-31359000D01*
G75*
G02*
X41381000Y-31159000I200000J0D01*
G01*
G37*
G36*
G01*
X41381000Y-29509000D02*
X41931000Y-29509000D01*
G75*
G02*
X42131000Y-29709000I0J-200000D01*
G01*
X42131000Y-30109000D01*
G75*
G02*
X41931000Y-30309000I-200000J0D01*
G01*
X41381000Y-30309000D01*
G75*
G02*
X41181000Y-30109000I0J200000D01*
G01*
X41181000Y-29709000D01*
G75*
G02*
X41381000Y-29509000I200000J0D01*
G01*
G37*
%TD*%
%TO.C,R3*%
G36*
G01*
X134305000Y-97015000D02*
X134855000Y-97015000D01*
G75*
G02*
X135055000Y-97215000I0J-200000D01*
G01*
X135055000Y-97615000D01*
G75*
G02*
X134855000Y-97815000I-200000J0D01*
G01*
X134305000Y-97815000D01*
G75*
G02*
X134105000Y-97615000I0J200000D01*
G01*
X134105000Y-97215000D01*
G75*
G02*
X134305000Y-97015000I200000J0D01*
G01*
G37*
G36*
G01*
X134305000Y-95365000D02*
X134855000Y-95365000D01*
G75*
G02*
X135055000Y-95565000I0J-200000D01*
G01*
X135055000Y-95965000D01*
G75*
G02*
X134855000Y-96165000I-200000J0D01*
G01*
X134305000Y-96165000D01*
G75*
G02*
X134105000Y-95965000I0J200000D01*
G01*
X134105000Y-95565000D01*
G75*
G02*
X134305000Y-95365000I200000J0D01*
G01*
G37*
%TD*%
%TO.C,R2*%
G36*
G01*
X154411000Y-94405000D02*
X154961000Y-94405000D01*
G75*
G02*
X155161000Y-94605000I0J-200000D01*
G01*
X155161000Y-95005000D01*
G75*
G02*
X154961000Y-95205000I-200000J0D01*
G01*
X154411000Y-95205000D01*
G75*
G02*
X154211000Y-95005000I0J200000D01*
G01*
X154211000Y-94605000D01*
G75*
G02*
X154411000Y-94405000I200000J0D01*
G01*
G37*
G36*
G01*
X154411000Y-92755000D02*
X154961000Y-92755000D01*
G75*
G02*
X155161000Y-92955000I0J-200000D01*
G01*
X155161000Y-93355000D01*
G75*
G02*
X154961000Y-93555000I-200000J0D01*
G01*
X154411000Y-93555000D01*
G75*
G02*
X154211000Y-93355000I0J200000D01*
G01*
X154211000Y-92955000D01*
G75*
G02*
X154411000Y-92755000I200000J0D01*
G01*
G37*
%TD*%
%TO.C,R1*%
G36*
G01*
X148126000Y-100478000D02*
X148126000Y-99928000D01*
G75*
G02*
X148326000Y-99728000I200000J0D01*
G01*
X148726000Y-99728000D01*
G75*
G02*
X148926000Y-99928000I0J-200000D01*
G01*
X148926000Y-100478000D01*
G75*
G02*
X148726000Y-100678000I-200000J0D01*
G01*
X148326000Y-100678000D01*
G75*
G02*
X148126000Y-100478000I0J200000D01*
G01*
G37*
G36*
G01*
X146476000Y-100478000D02*
X146476000Y-99928000D01*
G75*
G02*
X146676000Y-99728000I200000J0D01*
G01*
X147076000Y-99728000D01*
G75*
G02*
X147276000Y-99928000I0J-200000D01*
G01*
X147276000Y-100478000D01*
G75*
G02*
X147076000Y-100678000I-200000J0D01*
G01*
X146676000Y-100678000D01*
G75*
G02*
X146476000Y-100478000I0J200000D01*
G01*
G37*
%TD*%
D23*
%TO.C,U4*%
X37846000Y-29507000D03*
X38796000Y-29507000D03*
X36896000Y-29507000D03*
X36896000Y-31707000D03*
X37846000Y-31707000D03*
X38796000Y-31707000D03*
%TD*%
D20*
%TO.C,MX46*%
X284358054Y-43935542D03*
X284358054Y-67811542D03*
D22*
X299598054Y-43935542D03*
X299598054Y-67811542D03*
D21*
X297693054Y-55873542D03*
X287533054Y-55873542D03*
D24*
X293883054Y-60953542D03*
D25*
X291343054Y-60953542D03*
D19*
X288803054Y-53333542D03*
D20*
X292613054Y-55873542D03*
D19*
X295153054Y-50793542D03*
%TD*%
%TO.C,MX48*%
X42799250Y-79374500D03*
D20*
X40259250Y-84454500D03*
D19*
X36449250Y-81914500D03*
D21*
X35179250Y-84454500D03*
X45339250Y-84454500D03*
D22*
X28353000Y-77469500D03*
X52165500Y-77469500D03*
D20*
X28353000Y-92709500D03*
X52165500Y-92709500D03*
%TD*%
D19*
%TO.C,MX47*%
X33249250Y-79374500D03*
D20*
X30709250Y-84454500D03*
D19*
X26899250Y-81914500D03*
D21*
X25629250Y-84454500D03*
X35789250Y-84454500D03*
%TD*%
D19*
%TO.C,MX69*%
X292799500Y-98425000D03*
D20*
X290259500Y-103505000D03*
D19*
X286449500Y-100965000D03*
D21*
X285179500Y-103505000D03*
X295339500Y-103505000D03*
%TD*%
D19*
%TO.C,MX68*%
X268986000Y-98425000D03*
D20*
X266446000Y-103505000D03*
D19*
X262636000Y-100965000D03*
D21*
X261366000Y-103505000D03*
X271526000Y-103505000D03*
%TD*%
D19*
%TO.C,MX67*%
X245172500Y-98425000D03*
D20*
X242632500Y-103505000D03*
D19*
X238822500Y-100965000D03*
D21*
X237552500Y-103505000D03*
X247712500Y-103505000D03*
%TD*%
D19*
%TO.C,MX65*%
X83247500Y-98424500D03*
D20*
X80707500Y-103504500D03*
D19*
X76897500Y-100964500D03*
D21*
X75627500Y-103504500D03*
X85787500Y-103504500D03*
%TD*%
D19*
%TO.C,MX64*%
X59436000Y-98425000D03*
D20*
X56896000Y-103505000D03*
D19*
X53086000Y-100965000D03*
D21*
X51816000Y-103505000D03*
X61976000Y-103505000D03*
%TD*%
D19*
%TO.C,MX63*%
X35624250Y-98424500D03*
D20*
X33084250Y-103504500D03*
D19*
X29274250Y-100964500D03*
D21*
X28004250Y-103504500D03*
X38164250Y-103504500D03*
%TD*%
D19*
%TO.C,MX62*%
X297561000Y-79375000D03*
D20*
X295021000Y-84455000D03*
D19*
X291211000Y-81915000D03*
D21*
X289941000Y-84455000D03*
X300101000Y-84455000D03*
%TD*%
D19*
%TO.C,MX61*%
X280924000Y-79375000D03*
D20*
X278384000Y-84455000D03*
D19*
X274574000Y-81915000D03*
D21*
X273304000Y-84455000D03*
X283464000Y-84455000D03*
D22*
X266477750Y-77470000D03*
X290290250Y-77470000D03*
D20*
X266477750Y-92710000D03*
X290290250Y-92710000D03*
%TD*%
D19*
%TO.C,MX60*%
X271399000Y-79375000D03*
D20*
X268859000Y-84455000D03*
D19*
X265049000Y-81915000D03*
D21*
X263779000Y-84455000D03*
X273939000Y-84455000D03*
%TD*%
D19*
%TO.C,MX59*%
X245153054Y-79368542D03*
D20*
X242613054Y-84448542D03*
D19*
X238803054Y-81908542D03*
D21*
X237533054Y-84448542D03*
X247693054Y-84448542D03*
%TD*%
D19*
%TO.C,MX58*%
X226103054Y-79368542D03*
D20*
X223563054Y-84448542D03*
D19*
X219753054Y-81908542D03*
D21*
X218483054Y-84448542D03*
X228643054Y-84448542D03*
%TD*%
D19*
%TO.C,MX57*%
X207053054Y-79368542D03*
D20*
X204513054Y-84448542D03*
D19*
X200703054Y-81908542D03*
D21*
X199433054Y-84448542D03*
X209593054Y-84448542D03*
%TD*%
D19*
%TO.C,MX56*%
X188003054Y-79368542D03*
D20*
X185463054Y-84448542D03*
D19*
X181653054Y-81908542D03*
D21*
X180383054Y-84448542D03*
X190543054Y-84448542D03*
%TD*%
D19*
%TO.C,MX55*%
X168953054Y-79368542D03*
D20*
X166413054Y-84448542D03*
D19*
X162603054Y-81908542D03*
D21*
X161333054Y-84448542D03*
X171493054Y-84448542D03*
%TD*%
D19*
%TO.C,MX54*%
X149903054Y-79368542D03*
D20*
X147363054Y-84448542D03*
D19*
X143553054Y-81908542D03*
D21*
X142283054Y-84448542D03*
X152443054Y-84448542D03*
%TD*%
D19*
%TO.C,MX53*%
X130853054Y-79368542D03*
D20*
X128313054Y-84448542D03*
D19*
X124503054Y-81908542D03*
D21*
X123233054Y-84448542D03*
X133393054Y-84448542D03*
%TD*%
D19*
%TO.C,MX52*%
X111803054Y-79368542D03*
D20*
X109263054Y-84448542D03*
D19*
X105453054Y-81908542D03*
D21*
X104183054Y-84448542D03*
X114343054Y-84448542D03*
%TD*%
D19*
%TO.C,MX51*%
X92753054Y-79368542D03*
D20*
X90213054Y-84448542D03*
D19*
X86403054Y-81908542D03*
D21*
X85133054Y-84448542D03*
X95293054Y-84448542D03*
%TD*%
D19*
%TO.C,MX50*%
X73703054Y-79368542D03*
D20*
X71163054Y-84448542D03*
D19*
X67353054Y-81908542D03*
D21*
X66083054Y-84448542D03*
X76243054Y-84448542D03*
%TD*%
D19*
%TO.C,MX49*%
X54673500Y-79375000D03*
D20*
X52133500Y-84455000D03*
D19*
X48323500Y-81915000D03*
D21*
X47053500Y-84455000D03*
X57213500Y-84455000D03*
%TD*%
D19*
%TO.C,MX45*%
X285603054Y-60318542D03*
D20*
X283063054Y-65398542D03*
D19*
X279253054Y-62858542D03*
D21*
X277983054Y-65398542D03*
X288143054Y-65398542D03*
D22*
X271156804Y-58413542D03*
X294969304Y-58413542D03*
D20*
X271156804Y-73653542D03*
X294969304Y-73653542D03*
%TD*%
D19*
%TO.C,MX44*%
X273728054Y-60318542D03*
D20*
X271188054Y-65398542D03*
D19*
X267378054Y-62858542D03*
D21*
X266108054Y-65398542D03*
X276268054Y-65398542D03*
%TD*%
D19*
%TO.C,MX43*%
X254678054Y-60318542D03*
D20*
X252138054Y-65398542D03*
D19*
X248328054Y-62858542D03*
D21*
X247058054Y-65398542D03*
X257218054Y-65398542D03*
%TD*%
D19*
%TO.C,MX42*%
X235628054Y-60318542D03*
D20*
X233088054Y-65398542D03*
D19*
X229278054Y-62858542D03*
D21*
X228008054Y-65398542D03*
X238168054Y-65398542D03*
%TD*%
D19*
%TO.C,MX41*%
X216578054Y-60318542D03*
D20*
X214038054Y-65398542D03*
D19*
X210228054Y-62858542D03*
D21*
X208958054Y-65398542D03*
X219118054Y-65398542D03*
%TD*%
D19*
%TO.C,MX40*%
X197528054Y-60318542D03*
D20*
X194988054Y-65398542D03*
D19*
X191178054Y-62858542D03*
D21*
X189908054Y-65398542D03*
X200068054Y-65398542D03*
%TD*%
D19*
%TO.C,MX39*%
X178478054Y-60318542D03*
D20*
X175938054Y-65398542D03*
D19*
X172128054Y-62858542D03*
D21*
X170858054Y-65398542D03*
X181018054Y-65398542D03*
%TD*%
D19*
%TO.C,MX38*%
X159428054Y-60318542D03*
D20*
X156888054Y-65398542D03*
D19*
X153078054Y-62858542D03*
D21*
X151808054Y-65398542D03*
X161968054Y-65398542D03*
%TD*%
D19*
%TO.C,MX37*%
X140378054Y-60318542D03*
D20*
X137838054Y-65398542D03*
D19*
X134028054Y-62858542D03*
D21*
X132758054Y-65398542D03*
X142918054Y-65398542D03*
%TD*%
D19*
%TO.C,MX36*%
X121328054Y-60318542D03*
D20*
X118788054Y-65398542D03*
D19*
X114978054Y-62858542D03*
D21*
X113708054Y-65398542D03*
X123868054Y-65398542D03*
%TD*%
D19*
%TO.C,MX35*%
X102278054Y-60318542D03*
D20*
X99738054Y-65398542D03*
D19*
X95928054Y-62858542D03*
D21*
X94658054Y-65398542D03*
X104818054Y-65398542D03*
%TD*%
D19*
%TO.C,MX34*%
X83228054Y-60318542D03*
D20*
X80688054Y-65398542D03*
D19*
X76878054Y-62858542D03*
D21*
X75608054Y-65398542D03*
X85768054Y-65398542D03*
%TD*%
D19*
%TO.C,MX33*%
X64198500Y-60325000D03*
D20*
X61658500Y-65405000D03*
D19*
X57848500Y-62865000D03*
D21*
X56578500Y-65405000D03*
X66738500Y-65405000D03*
%TD*%
D19*
%TO.C,MX32*%
X38018000Y-60324500D03*
D20*
X35478000Y-65404500D03*
D19*
X31668000Y-62864500D03*
D21*
X30398000Y-65404500D03*
X40558000Y-65404500D03*
%TD*%
D19*
%TO.C,MX31*%
X33249250Y-60324500D03*
D20*
X30709250Y-65404500D03*
D19*
X26899250Y-62864500D03*
D21*
X25629250Y-65404500D03*
X35789250Y-65404500D03*
%TD*%
D19*
%TO.C,MX30*%
X292765554Y-41268542D03*
D20*
X290225554Y-46348542D03*
D19*
X286415554Y-43808542D03*
D21*
X285145554Y-46348542D03*
X295305554Y-46348542D03*
%TD*%
D19*
%TO.C,MX29*%
X268965554Y-41268542D03*
D20*
X266425554Y-46348542D03*
D19*
X262615554Y-43808542D03*
D21*
X261345554Y-46348542D03*
X271505554Y-46348542D03*
%TD*%
D19*
%TO.C,MX28*%
X249915554Y-41268542D03*
D20*
X247375554Y-46348542D03*
D19*
X243565554Y-43808542D03*
D21*
X242295554Y-46348542D03*
X252455554Y-46348542D03*
%TD*%
D19*
%TO.C,MX27*%
X230865554Y-41268542D03*
D20*
X228325554Y-46348542D03*
D19*
X224515554Y-43808542D03*
D21*
X223245554Y-46348542D03*
X233405554Y-46348542D03*
%TD*%
D19*
%TO.C,MX26*%
X211815554Y-41268542D03*
D20*
X209275554Y-46348542D03*
D19*
X205465554Y-43808542D03*
D21*
X204195554Y-46348542D03*
X214355554Y-46348542D03*
%TD*%
D19*
%TO.C,MX25*%
X192765554Y-41268542D03*
D20*
X190225554Y-46348542D03*
D19*
X186415554Y-43808542D03*
D21*
X185145554Y-46348542D03*
X195305554Y-46348542D03*
%TD*%
D19*
%TO.C,MX24*%
X173715554Y-41268542D03*
D20*
X171175554Y-46348542D03*
D19*
X167365554Y-43808542D03*
D21*
X166095554Y-46348542D03*
X176255554Y-46348542D03*
%TD*%
D19*
%TO.C,MX23*%
X154665554Y-41268542D03*
D20*
X152125554Y-46348542D03*
D19*
X148315554Y-43808542D03*
D21*
X147045554Y-46348542D03*
X157205554Y-46348542D03*
%TD*%
D19*
%TO.C,MX22*%
X135615554Y-41268542D03*
D20*
X133075554Y-46348542D03*
D19*
X129265554Y-43808542D03*
D21*
X127995554Y-46348542D03*
X138155554Y-46348542D03*
%TD*%
D19*
%TO.C,MX21*%
X116565554Y-41268542D03*
D20*
X114025554Y-46348542D03*
D19*
X110215554Y-43808542D03*
D21*
X108945554Y-46348542D03*
X119105554Y-46348542D03*
%TD*%
D19*
%TO.C,MX20*%
X97515554Y-41268542D03*
D20*
X94975554Y-46348542D03*
D19*
X91165554Y-43808542D03*
D21*
X89895554Y-46348542D03*
X100055554Y-46348542D03*
%TD*%
D19*
%TO.C,MX19*%
X78465554Y-41268542D03*
D20*
X75925554Y-46348542D03*
D19*
X72115554Y-43808542D03*
D21*
X70845554Y-46348542D03*
X81005554Y-46348542D03*
%TD*%
D19*
%TO.C,MX18*%
X59436000Y-41275000D03*
D20*
X56896000Y-46355000D03*
D19*
X53086000Y-43815000D03*
D21*
X51816000Y-46355000D03*
X61976000Y-46355000D03*
%TD*%
D19*
%TO.C,MX17*%
X35624250Y-41274500D03*
D20*
X33084250Y-46354500D03*
D19*
X29274250Y-43814500D03*
D21*
X28004250Y-46354500D03*
X38164250Y-46354500D03*
%TD*%
D19*
%TO.C,MX16*%
X297561000Y-22225000D03*
D20*
X295021000Y-27305000D03*
D19*
X291211000Y-24765000D03*
D21*
X289941000Y-27305000D03*
X300101000Y-27305000D03*
%TD*%
D19*
%TO.C,MX15*%
X288036000Y-22225000D03*
D20*
X285496000Y-27305000D03*
D19*
X281686000Y-24765000D03*
D21*
X280416000Y-27305000D03*
X290576000Y-27305000D03*
D22*
X273589750Y-20320000D03*
X297402250Y-20320000D03*
D20*
X273589750Y-35560000D03*
X297402250Y-35560000D03*
%TD*%
D19*
%TO.C,MX14*%
X278511000Y-22225000D03*
D20*
X275971000Y-27305000D03*
D19*
X272161000Y-24765000D03*
D21*
X270891000Y-27305000D03*
X281051000Y-27305000D03*
%TD*%
D19*
%TO.C,MX13*%
X259461000Y-22225000D03*
D20*
X256921000Y-27305000D03*
D19*
X253111000Y-24765000D03*
D21*
X251841000Y-27305000D03*
X262001000Y-27305000D03*
%TD*%
D19*
%TO.C,MX12*%
X240411000Y-22225000D03*
D20*
X237871000Y-27305000D03*
D19*
X234061000Y-24765000D03*
D21*
X232791000Y-27305000D03*
X242951000Y-27305000D03*
%TD*%
D19*
%TO.C,MX11*%
X221361000Y-22225000D03*
D20*
X218821000Y-27305000D03*
D19*
X215011000Y-24765000D03*
D21*
X213741000Y-27305000D03*
X223901000Y-27305000D03*
%TD*%
D19*
%TO.C,MX10*%
X202311000Y-22225000D03*
D20*
X199771000Y-27305000D03*
D19*
X195961000Y-24765000D03*
D21*
X194691000Y-27305000D03*
X204851000Y-27305000D03*
%TD*%
D19*
%TO.C,MX9*%
X183261000Y-22225000D03*
D20*
X180721000Y-27305000D03*
D19*
X176911000Y-24765000D03*
D21*
X175641000Y-27305000D03*
X185801000Y-27305000D03*
%TD*%
D19*
%TO.C,MX8*%
X164211000Y-22225000D03*
D20*
X161671000Y-27305000D03*
D19*
X157861000Y-24765000D03*
D21*
X156591000Y-27305000D03*
X166751000Y-27305000D03*
%TD*%
D19*
%TO.C,MX7*%
X145161000Y-22225000D03*
D20*
X142621000Y-27305000D03*
D19*
X138811000Y-24765000D03*
D21*
X137541000Y-27305000D03*
X147701000Y-27305000D03*
%TD*%
D19*
%TO.C,MX6*%
X126111000Y-22225000D03*
D20*
X123571000Y-27305000D03*
D19*
X119761000Y-24765000D03*
D21*
X118491000Y-27305000D03*
X128651000Y-27305000D03*
%TD*%
D19*
%TO.C,MX5*%
X107061000Y-22225000D03*
D20*
X104521000Y-27305000D03*
D19*
X100711000Y-24765000D03*
D21*
X99441000Y-27305000D03*
X109601000Y-27305000D03*
%TD*%
D19*
%TO.C,MX4*%
X88011000Y-22225000D03*
D20*
X85471000Y-27305000D03*
D19*
X81661000Y-24765000D03*
D21*
X80391000Y-27305000D03*
X90551000Y-27305000D03*
%TD*%
D19*
%TO.C,MX3*%
X68961000Y-22225000D03*
D20*
X66421000Y-27305000D03*
D19*
X62611000Y-24765000D03*
D21*
X61341000Y-27305000D03*
X71501000Y-27305000D03*
%TD*%
D19*
%TO.C,MX2*%
X49911000Y-22225000D03*
D20*
X47371000Y-27305000D03*
D19*
X43561000Y-24765000D03*
D21*
X42291000Y-27305000D03*
X52451000Y-27305000D03*
%TD*%
D19*
%TO.C,MX1*%
X30861000Y-22225000D03*
D20*
X28321000Y-27305000D03*
D19*
X24511000Y-24765000D03*
D21*
X23241000Y-27305000D03*
X33401000Y-27305000D03*
%TD*%
D26*
%TO.C,U3*%
G36*
X187786827Y-100527134D02*
G01*
X188281802Y-100032159D01*
X189359433Y-101109790D01*
X188864458Y-101604765D01*
X187786827Y-100527134D01*
G37*
G36*
X188564645Y-99749317D02*
G01*
X189059620Y-99254342D01*
X190137251Y-100331973D01*
X189642276Y-100826948D01*
X188564645Y-99749317D01*
G37*
G36*
X189342462Y-98971499D02*
G01*
X189837437Y-98476524D01*
X190915068Y-99554155D01*
X190420093Y-100049130D01*
X189342462Y-98971499D01*
G37*
G36*
X190120280Y-98193682D02*
G01*
X190615255Y-97698707D01*
X191692886Y-98776338D01*
X191197911Y-99271313D01*
X190120280Y-98193682D01*
G37*
G36*
X190898097Y-97415864D02*
G01*
X191393072Y-96920889D01*
X192470703Y-97998520D01*
X191975728Y-98493495D01*
X190898097Y-97415864D01*
G37*
G36*
X191675915Y-96638047D02*
G01*
X192170890Y-96143072D01*
X193248521Y-97220703D01*
X192753546Y-97715678D01*
X191675915Y-96638047D01*
G37*
G36*
X192453732Y-95860229D02*
G01*
X192948707Y-95365254D01*
X194026338Y-96442885D01*
X193531363Y-96937860D01*
X192453732Y-95860229D01*
G37*
G36*
X193231549Y-95082412D02*
G01*
X193726524Y-94587437D01*
X194804155Y-95665068D01*
X194309180Y-96160043D01*
X193231549Y-95082412D01*
G37*
G36*
X194009367Y-94304594D02*
G01*
X194504342Y-93809619D01*
X195581973Y-94887250D01*
X195086998Y-95382225D01*
X194009367Y-94304594D01*
G37*
G36*
X193797235Y-106537542D02*
G01*
X194292210Y-106042567D01*
X195369841Y-107120198D01*
X194874866Y-107615173D01*
X193797235Y-106537542D01*
G37*
G36*
X194575052Y-105759724D02*
G01*
X195070027Y-105264749D01*
X196147658Y-106342380D01*
X195652683Y-106837355D01*
X194575052Y-105759724D01*
G37*
G36*
X195352870Y-104981907D02*
G01*
X195847845Y-104486932D01*
X196925476Y-105564563D01*
X196430501Y-106059538D01*
X195352870Y-104981907D01*
G37*
G36*
X196130687Y-104204089D02*
G01*
X196625662Y-103709114D01*
X197703293Y-104786745D01*
X197208318Y-105281720D01*
X196130687Y-104204089D01*
G37*
G36*
X196908505Y-103426272D02*
G01*
X197403480Y-102931297D01*
X198481111Y-104008928D01*
X197986136Y-104503903D01*
X196908505Y-103426272D01*
G37*
G36*
X197686322Y-102648454D02*
G01*
X198181297Y-102153479D01*
X199258928Y-103231110D01*
X198763953Y-103726085D01*
X197686322Y-102648454D01*
G37*
G36*
X198464140Y-101870637D02*
G01*
X198959115Y-101375662D01*
X200036746Y-102453293D01*
X199541771Y-102948268D01*
X198464140Y-101870637D01*
G37*
G36*
X199241957Y-101092820D02*
G01*
X199736932Y-100597845D01*
X200814563Y-101675476D01*
X200319588Y-102170451D01*
X199241957Y-101092820D01*
G37*
G36*
X200019775Y-100315002D02*
G01*
X200514750Y-99820027D01*
X201592381Y-100897658D01*
X201097406Y-101392633D01*
X200019775Y-100315002D01*
G37*
G36*
X193797235Y-90981193D02*
G01*
X194292210Y-90486218D01*
X195369841Y-91563849D01*
X194874866Y-92058824D01*
X193797235Y-90981193D01*
G37*
G36*
X193019417Y-91759010D02*
G01*
X193514392Y-91264035D01*
X194592023Y-92341666D01*
X194097048Y-92836641D01*
X193019417Y-91759010D01*
G37*
G36*
X192241600Y-92536827D02*
G01*
X192736575Y-92041852D01*
X193814206Y-93119483D01*
X193319231Y-93614458D01*
X192241600Y-92536827D01*
G37*
G36*
X191463783Y-93314645D02*
G01*
X191958758Y-92819670D01*
X193036389Y-93897301D01*
X192541414Y-94392276D01*
X191463783Y-93314645D01*
G37*
G36*
X190685965Y-94092462D02*
G01*
X191180940Y-93597487D01*
X192258571Y-94675118D01*
X191763596Y-95170093D01*
X190685965Y-94092462D01*
G37*
G36*
X189908148Y-94870280D02*
G01*
X190403123Y-94375305D01*
X191480754Y-95452936D01*
X190985779Y-95947911D01*
X189908148Y-94870280D01*
G37*
G36*
X189130330Y-95648097D02*
G01*
X189625305Y-95153122D01*
X190702936Y-96230753D01*
X190207961Y-96725728D01*
X189130330Y-95648097D01*
G37*
G36*
X188352513Y-96425915D02*
G01*
X188847488Y-95930940D01*
X189925119Y-97008571D01*
X189430144Y-97503546D01*
X188352513Y-96425915D01*
G37*
G36*
X187574695Y-97203732D02*
G01*
X188069670Y-96708757D01*
X189147301Y-97786388D01*
X188652326Y-98281363D01*
X187574695Y-97203732D01*
G37*
G36*
X186796878Y-97981550D02*
G01*
X187291853Y-97486575D01*
X188369484Y-98564206D01*
X187874509Y-99059181D01*
X186796878Y-97981550D01*
G37*
G36*
X186019060Y-98759367D02*
G01*
X186514035Y-98264392D01*
X187591666Y-99342023D01*
X187096691Y-99836998D01*
X186019060Y-98759367D01*
G37*
G36*
X185241243Y-99537185D02*
G01*
X185736218Y-99042210D01*
X186813849Y-100119841D01*
X186318874Y-100614816D01*
X185241243Y-99537185D01*
G37*
G36*
X184463425Y-100315002D02*
G01*
X184958400Y-99820027D01*
X186036031Y-100897658D01*
X185541056Y-101392633D01*
X184463425Y-100315002D01*
G37*
G36*
X184781624Y-103337177D02*
G01*
X184286649Y-102842202D01*
X185364280Y-101764571D01*
X185859255Y-102259546D01*
X184781624Y-103337177D01*
G37*
G36*
X185559441Y-104114994D02*
G01*
X185064466Y-103620019D01*
X186142097Y-102542388D01*
X186637072Y-103037363D01*
X185559441Y-104114994D01*
G37*
G36*
X186337259Y-104892812D02*
G01*
X185842284Y-104397837D01*
X186919915Y-103320206D01*
X187414890Y-103815181D01*
X186337259Y-104892812D01*
G37*
G36*
X187115076Y-105670629D02*
G01*
X186620101Y-105175654D01*
X187697732Y-104098023D01*
X188192707Y-104592998D01*
X187115076Y-105670629D01*
G37*
G36*
X187892894Y-106448447D02*
G01*
X187397919Y-105953472D01*
X188475550Y-104875841D01*
X188970525Y-105370816D01*
X187892894Y-106448447D01*
G37*
G36*
X188670711Y-107226264D02*
G01*
X188175736Y-106731289D01*
X189253367Y-105653658D01*
X189748342Y-106148633D01*
X188670711Y-107226264D01*
G37*
G36*
X189448528Y-108004081D02*
G01*
X188953553Y-107509106D01*
X190031184Y-106431475D01*
X190526159Y-106926450D01*
X189448528Y-108004081D01*
G37*
G36*
X190226346Y-108781899D02*
G01*
X189731371Y-108286924D01*
X190809002Y-107209293D01*
X191303977Y-107704268D01*
X190226346Y-108781899D01*
G37*
G36*
X191004163Y-109559716D02*
G01*
X190509188Y-109064741D01*
X191586819Y-107987110D01*
X192081794Y-108482085D01*
X191004163Y-109559716D01*
G37*
G36*
X191781981Y-110337534D02*
G01*
X191287006Y-109842559D01*
X192364637Y-108764928D01*
X192859612Y-109259903D01*
X191781981Y-110337534D01*
G37*
G36*
X192559798Y-111115351D02*
G01*
X192064823Y-110620376D01*
X193142454Y-109542745D01*
X193637429Y-110037720D01*
X192559798Y-111115351D01*
G37*
G36*
X195581973Y-110443600D02*
G01*
X195086998Y-110938575D01*
X194009367Y-109860944D01*
X194504342Y-109365969D01*
X195581973Y-110443600D01*
G37*
G36*
X196359790Y-109665782D02*
G01*
X195864815Y-110160757D01*
X194787184Y-109083126D01*
X195282159Y-108588151D01*
X196359790Y-109665782D01*
G37*
G36*
X197137608Y-108887965D02*
G01*
X196642633Y-109382940D01*
X195565002Y-108305309D01*
X196059977Y-107810334D01*
X197137608Y-108887965D01*
G37*
G36*
X197915425Y-108110147D02*
G01*
X197420450Y-108605122D01*
X196342819Y-107527491D01*
X196837794Y-107032516D01*
X197915425Y-108110147D01*
G37*
G36*
X198693243Y-107332330D02*
G01*
X198198268Y-107827305D01*
X197120637Y-106749674D01*
X197615612Y-106254699D01*
X198693243Y-107332330D01*
G37*
G36*
X199471060Y-106554512D02*
G01*
X198976085Y-107049487D01*
X197898454Y-105971856D01*
X198393429Y-105476881D01*
X199471060Y-106554512D01*
G37*
G36*
X200248878Y-105776695D02*
G01*
X199753903Y-106271670D01*
X198676272Y-105194039D01*
X199171247Y-104699064D01*
X200248878Y-105776695D01*
G37*
G36*
X201026695Y-104998877D02*
G01*
X200531720Y-105493852D01*
X199454089Y-104416221D01*
X199949064Y-103921246D01*
X201026695Y-104998877D01*
G37*
G36*
X201804513Y-104221060D02*
G01*
X201309538Y-104716035D01*
X200231907Y-103638404D01*
X200726882Y-103143429D01*
X201804513Y-104221060D01*
G37*
G36*
X202582330Y-103443242D02*
G01*
X202087355Y-103938217D01*
X201009724Y-102860586D01*
X201504699Y-102365611D01*
X202582330Y-103443242D01*
G37*
G36*
X203360148Y-102665425D02*
G01*
X202865173Y-103160400D01*
X201787542Y-102082769D01*
X202282517Y-101587794D01*
X203360148Y-102665425D01*
G37*
G36*
X204137965Y-101887608D02*
G01*
X203642990Y-102382583D01*
X202565359Y-101304952D01*
X203060334Y-100809977D01*
X204137965Y-101887608D01*
G37*
G36*
X204915782Y-101109790D02*
G01*
X204420807Y-101604765D01*
X203343176Y-100527134D01*
X203838151Y-100032159D01*
X204915782Y-101109790D01*
G37*
%TD*%
D23*
%TO.C,U2*%
X136810000Y-103330000D03*
X138710000Y-103330000D03*
X138710000Y-101130000D03*
X137760000Y-101130000D03*
X136810000Y-101130000D03*
%TD*%
%TO.C,U1*%
X152461000Y-96055000D03*
X150561000Y-96055000D03*
X150561000Y-98255000D03*
X151511000Y-98255000D03*
X152461000Y-98255000D03*
%TD*%
D27*
%TO.C,Q1*%
X139680000Y-97070000D03*
X138730000Y-99070000D03*
X140630000Y-99070000D03*
%TD*%
D28*
%TO.C,J1*%
X40842000Y-23603000D03*
X40042000Y-23603000D03*
X35142000Y-23603000D03*
X34342000Y-23603000D03*
X34342000Y-23603000D03*
X35142000Y-23603000D03*
X40042000Y-23603000D03*
X40842000Y-23603000D03*
D29*
X35842000Y-23603000D03*
X36342000Y-23603000D03*
X36842000Y-23603000D03*
X37842000Y-23603000D03*
X38342000Y-23603000D03*
X38842000Y-23603000D03*
X39342000Y-23603000D03*
X37342000Y-23603000D03*
D30*
X41912000Y-22688000D03*
X33272000Y-22688000D03*
D31*
X34702000Y-22158000D03*
D32*
X33272000Y-18508000D03*
D31*
X40482000Y-22158000D03*
D32*
X41912000Y-18508000D03*
%TD*%
D33*
%TO.C,D2*%
X136660000Y-95770000D03*
X136660000Y-99070000D03*
%TD*%
%TO.C,D1*%
G36*
G01*
X148030250Y-96578000D02*
X147117750Y-96578000D01*
G75*
G02*
X146874000Y-96334250I0J243750D01*
G01*
X146874000Y-95846750D01*
G75*
G02*
X147117750Y-95603000I243750J0D01*
G01*
X148030250Y-95603000D01*
G75*
G02*
X148274000Y-95846750I0J-243750D01*
G01*
X148274000Y-96334250D01*
G75*
G02*
X148030250Y-96578000I-243750J0D01*
G01*
G37*
G36*
G01*
X148030250Y-98453000D02*
X147117750Y-98453000D01*
G75*
G02*
X146874000Y-98209250I0J243750D01*
G01*
X146874000Y-97721750D01*
G75*
G02*
X147117750Y-97478000I243750J0D01*
G01*
X148030250Y-97478000D01*
G75*
G02*
X148274000Y-97721750I0J-243750D01*
G01*
X148274000Y-98209250D01*
G75*
G02*
X148030250Y-98453000I-243750J0D01*
G01*
G37*
%TD*%
%TO.C,C1*%
G36*
G01*
X148670000Y-94245000D02*
X148670000Y-93295000D01*
G75*
G02*
X148920000Y-93045000I250000J0D01*
G01*
X149420000Y-93045000D01*
G75*
G02*
X149670000Y-93295000I0J-250000D01*
G01*
X149670000Y-94245000D01*
G75*
G02*
X149420000Y-94495000I-250000J0D01*
G01*
X148920000Y-94495000D01*
G75*
G02*
X148670000Y-94245000I0J250000D01*
G01*
G37*
G36*
G01*
X146770000Y-94245000D02*
X146770000Y-93295000D01*
G75*
G02*
X147020000Y-93045000I250000J0D01*
G01*
X147520000Y-93045000D01*
G75*
G02*
X147770000Y-93295000I0J-250000D01*
G01*
X147770000Y-94245000D01*
G75*
G02*
X147520000Y-94495000I-250000J0D01*
G01*
X147020000Y-94495000D01*
G75*
G02*
X146770000Y-94245000I0J250000D01*
G01*
G37*
%TD*%
M02*
