%TF.GenerationSoftware,KiCad,Pcbnew,5.1.10*%
%TF.CreationDate,2021-06-02T11:23:11+02:00*%
%TF.ProjectId,ptm-60nrf,70746d2d-3630-46e7-9266-2e6b69636164,rev?*%
%TF.SameCoordinates,Original*%
%TF.FileFunction,Soldermask,Top*%
%TF.FilePolarity,Negative*%
%FSLAX46Y46*%
G04 Gerber Fmt 4.6, Leading zero omitted, Abs format (unit mm)*
G04 Created by KiCad (PCBNEW 5.1.10) date 2021-06-02 11:23:11*
%MOMM*%
%LPD*%
G01*
G04 APERTURE LIST*
%ADD10C,0.150000*%
%ADD11C,0.050000*%
%ADD12C,3.987800*%
%ADD13C,1.750000*%
%ADD14C,3.048000*%
%ADD15O,1.700000X1.700000*%
%ADD16R,1.700000X1.700000*%
%ADD17C,7.000240*%
%ADD18O,9.999980X5.001260*%
%ADD19C,0.100000*%
%ADD20O,1.000000X2.100000*%
%ADD21C,0.650000*%
%ADD22O,1.000000X1.600000*%
G04 APERTURE END LIST*
D10*
X296000476Y-109832380D02*
X295667142Y-109356190D01*
X295429047Y-109832380D02*
X295429047Y-108832380D01*
X295810000Y-108832380D01*
X295905238Y-108880000D01*
X295952857Y-108927619D01*
X296000476Y-109022857D01*
X296000476Y-109165714D01*
X295952857Y-109260952D01*
X295905238Y-109308571D01*
X295810000Y-109356190D01*
X295429047Y-109356190D01*
X296810000Y-109784761D02*
X296714761Y-109832380D01*
X296524285Y-109832380D01*
X296429047Y-109784761D01*
X296381428Y-109689523D01*
X296381428Y-109308571D01*
X296429047Y-109213333D01*
X296524285Y-109165714D01*
X296714761Y-109165714D01*
X296810000Y-109213333D01*
X296857619Y-109308571D01*
X296857619Y-109403809D01*
X296381428Y-109499047D01*
X297190952Y-109165714D02*
X297429047Y-109832380D01*
X297667142Y-109165714D01*
X298048095Y-109737142D02*
X298095714Y-109784761D01*
X298048095Y-109832380D01*
X298000476Y-109784761D01*
X298048095Y-109737142D01*
X298048095Y-109832380D01*
X299476666Y-108832380D02*
X299571904Y-108832380D01*
X299667142Y-108880000D01*
X299714761Y-108927619D01*
X299762380Y-109022857D01*
X299810000Y-109213333D01*
X299810000Y-109451428D01*
X299762380Y-109641904D01*
X299714761Y-109737142D01*
X299667142Y-109784761D01*
X299571904Y-109832380D01*
X299476666Y-109832380D01*
X299381428Y-109784761D01*
X299333809Y-109737142D01*
X299286190Y-109641904D01*
X299238571Y-109451428D01*
X299238571Y-109213333D01*
X299286190Y-109022857D01*
X299333809Y-108927619D01*
X299381428Y-108880000D01*
X299476666Y-108832380D01*
X300238571Y-109737142D02*
X300286190Y-109784761D01*
X300238571Y-109832380D01*
X300190952Y-109784761D01*
X300238571Y-109737142D01*
X300238571Y-109832380D01*
X301238571Y-109832380D02*
X300667142Y-109832380D01*
X300952857Y-109832380D02*
X300952857Y-108832380D01*
X300857619Y-108975238D01*
X300762380Y-109070476D01*
X300667142Y-109118095D01*
D11*
X20296904Y-22751130D02*
X20546904Y-22782380D01*
X20368333Y-22843392D01*
X20546904Y-22949047D01*
X20296904Y-22917797D01*
X20296904Y-23036845D02*
X20463571Y-23057678D01*
X20546904Y-23068095D02*
X20535000Y-23054702D01*
X20523095Y-23065119D01*
X20535000Y-23078511D01*
X20546904Y-23068095D01*
X20523095Y-23065119D01*
X20296904Y-23191607D02*
X20308809Y-23169285D01*
X20332619Y-23160357D01*
X20546904Y-23187142D01*
X20296904Y-23322559D02*
X20308809Y-23300238D01*
X20332619Y-23291309D01*
X20546904Y-23318095D01*
X20296904Y-23453511D02*
X20308809Y-23431190D01*
X20320714Y-23420773D01*
X20344523Y-23411845D01*
X20415952Y-23420773D01*
X20439761Y-23435654D01*
X20451666Y-23449047D01*
X20463571Y-23474345D01*
X20463571Y-23510059D01*
X20451666Y-23532380D01*
X20439761Y-23542797D01*
X20415952Y-23551726D01*
X20344523Y-23542797D01*
X20320714Y-23527916D01*
X20308809Y-23514523D01*
X20296904Y-23489226D01*
X20296904Y-23453511D01*
X20296904Y-23643988D02*
X20463571Y-23664821D01*
X20439761Y-23661845D02*
X20451666Y-23675238D01*
X20463571Y-23700535D01*
X20463571Y-23736250D01*
X20451666Y-23758571D01*
X20427857Y-23767500D01*
X20296904Y-23751130D01*
X20427857Y-23767500D02*
X20451666Y-23782380D01*
X20463571Y-23807678D01*
X20463571Y-23843392D01*
X20451666Y-23865714D01*
X20427857Y-23874642D01*
X20296904Y-23858273D01*
X20427857Y-24267500D02*
X20415952Y-24301726D01*
X20404047Y-24312142D01*
X20380238Y-24321071D01*
X20344523Y-24316607D01*
X20320714Y-24301726D01*
X20308809Y-24288333D01*
X20296904Y-24263035D01*
X20296904Y-24167797D01*
X20546904Y-24199047D01*
X20546904Y-24282380D01*
X20535000Y-24304702D01*
X20523095Y-24315119D01*
X20499285Y-24324047D01*
X20475476Y-24321071D01*
X20451666Y-24306190D01*
X20439761Y-24292797D01*
X20427857Y-24267500D01*
X20427857Y-24184166D01*
X20296904Y-24524940D02*
X20427857Y-24541309D01*
X20451666Y-24532380D01*
X20463571Y-24510059D01*
X20463571Y-24462440D01*
X20451666Y-24437142D01*
X20308809Y-24526428D02*
X20296904Y-24501130D01*
X20296904Y-24441607D01*
X20308809Y-24419285D01*
X20332619Y-24410357D01*
X20356428Y-24413333D01*
X20380238Y-24428214D01*
X20392142Y-24453511D01*
X20392142Y-24513035D01*
X20404047Y-24538333D01*
X20296904Y-24643988D02*
X20546904Y-24675238D01*
X20392142Y-24679702D02*
X20296904Y-24739226D01*
X20463571Y-24760059D02*
X20368333Y-24652916D01*
X20296904Y-24846369D02*
X20546904Y-24877619D01*
X20392142Y-24882083D02*
X20296904Y-24941607D01*
X20463571Y-24962440D02*
X20368333Y-24855297D01*
X20296904Y-25155892D02*
X20427857Y-25172261D01*
X20451666Y-25163333D01*
X20463571Y-25141011D01*
X20463571Y-25093392D01*
X20451666Y-25068095D01*
X20308809Y-25157380D02*
X20296904Y-25132083D01*
X20296904Y-25072559D01*
X20308809Y-25050238D01*
X20332619Y-25041309D01*
X20356428Y-25044285D01*
X20380238Y-25059166D01*
X20392142Y-25084464D01*
X20392142Y-25143988D01*
X20404047Y-25169285D01*
X20296904Y-25274940D02*
X20463571Y-25295773D01*
X20415952Y-25289821D02*
X20439761Y-25304702D01*
X20451666Y-25318095D01*
X20463571Y-25343392D01*
X20463571Y-25367202D01*
X20296904Y-25655892D02*
X20308809Y-25633571D01*
X20320714Y-25623154D01*
X20344523Y-25614226D01*
X20415952Y-25623154D01*
X20439761Y-25638035D01*
X20451666Y-25651428D01*
X20463571Y-25676726D01*
X20463571Y-25712440D01*
X20451666Y-25734761D01*
X20439761Y-25745178D01*
X20415952Y-25754107D01*
X20344523Y-25745178D01*
X20320714Y-25730297D01*
X20308809Y-25716904D01*
X20296904Y-25691607D01*
X20296904Y-25655892D01*
X20463571Y-25974345D02*
X20261190Y-25949047D01*
X20237380Y-25934166D01*
X20225476Y-25920773D01*
X20213571Y-25895476D01*
X20213571Y-25859761D01*
X20225476Y-25837440D01*
X20308809Y-25955000D02*
X20296904Y-25929702D01*
X20296904Y-25882083D01*
X20308809Y-25859761D01*
X20320714Y-25849345D01*
X20344523Y-25840416D01*
X20415952Y-25849345D01*
X20439761Y-25864226D01*
X20451666Y-25877619D01*
X20463571Y-25902916D01*
X20463571Y-25950535D01*
X20451666Y-25972857D01*
X20427857Y-26362738D02*
X20415952Y-26396964D01*
X20404047Y-26407380D01*
X20380238Y-26416309D01*
X20344523Y-26411845D01*
X20320714Y-26396964D01*
X20308809Y-26383571D01*
X20296904Y-26358273D01*
X20296904Y-26263035D01*
X20546904Y-26294285D01*
X20546904Y-26377619D01*
X20535000Y-26399940D01*
X20523095Y-26410357D01*
X20499285Y-26419285D01*
X20475476Y-26416309D01*
X20451666Y-26401428D01*
X20439761Y-26388035D01*
X20427857Y-26362738D01*
X20427857Y-26279404D01*
X20308809Y-26609761D02*
X20296904Y-26584464D01*
X20296904Y-26536845D01*
X20308809Y-26514523D01*
X20332619Y-26505595D01*
X20427857Y-26517500D01*
X20451666Y-26532380D01*
X20463571Y-26557678D01*
X20463571Y-26605297D01*
X20451666Y-26627619D01*
X20427857Y-26636547D01*
X20404047Y-26633571D01*
X20380238Y-26511547D01*
X20296904Y-26727321D02*
X20463571Y-26748154D01*
X20415952Y-26742202D02*
X20439761Y-26757083D01*
X20451666Y-26770476D01*
X20463571Y-26795773D01*
X20463571Y-26819583D01*
X20463571Y-27010059D02*
X20261190Y-26984761D01*
X20237380Y-26969880D01*
X20225476Y-26956488D01*
X20213571Y-26931190D01*
X20213571Y-26895476D01*
X20225476Y-26873154D01*
X20308809Y-26990714D02*
X20296904Y-26965416D01*
X20296904Y-26917797D01*
X20308809Y-26895476D01*
X20320714Y-26885059D01*
X20344523Y-26876130D01*
X20415952Y-26885059D01*
X20439761Y-26899940D01*
X20451666Y-26913333D01*
X20463571Y-26938630D01*
X20463571Y-26986250D01*
X20451666Y-27008571D01*
X20320714Y-27301726D02*
X20308809Y-27312142D01*
X20296904Y-27298750D01*
X20308809Y-27288333D01*
X20320714Y-27301726D01*
X20296904Y-27298750D01*
X20320714Y-27420773D02*
X20308809Y-27431190D01*
X20296904Y-27417797D01*
X20308809Y-27407380D01*
X20320714Y-27420773D01*
X20296904Y-27417797D01*
X20320714Y-27539821D02*
X20308809Y-27550238D01*
X20296904Y-27536845D01*
X20308809Y-27526428D01*
X20320714Y-27539821D01*
X20296904Y-27536845D01*
D12*
%TO.C,MX66*%
X161671000Y-103505000D03*
D13*
X156591000Y-103505000D03*
X166751000Y-103505000D03*
D14*
X104521000Y-110490000D03*
X218821000Y-110490000D03*
D12*
X104521000Y-95250000D03*
X218821000Y-95250000D03*
%TD*%
D15*
%TO.C,J4*%
X177673000Y-102616000D03*
X177673000Y-100076000D03*
D16*
X177673000Y-97536000D03*
%TD*%
D17*
%TO.C,HOLE*%
X45212000Y-46482000D03*
%TD*%
%TO.C,HOLE*%
X210566000Y-103632000D03*
%TD*%
%TO.C,HOLE*%
X277876000Y-46228000D03*
%TD*%
%TO.C,HOLE*%
X147347000Y-65405000D03*
%TD*%
D18*
%TO.C,HOLE*%
X303403000Y-74930000D03*
%TD*%
%TO.C,HOLE*%
X19685000Y-75057000D03*
%TD*%
D12*
%TO.C,MX46*%
X284358054Y-43935542D03*
X284358054Y-67811542D03*
D14*
X299598054Y-43935542D03*
X299598054Y-67811542D03*
D13*
X297693054Y-55873542D03*
X287533054Y-55873542D03*
D12*
X292613054Y-55873542D03*
%TD*%
%TO.C,MX48*%
X40259250Y-84454500D03*
D13*
X35179250Y-84454500D03*
X45339250Y-84454500D03*
D14*
X28353000Y-77469500D03*
X52165500Y-77469500D03*
D12*
X28353000Y-92709500D03*
X52165500Y-92709500D03*
%TD*%
%TO.C,MX47*%
X30709250Y-84454500D03*
D13*
X25629250Y-84454500D03*
X35789250Y-84454500D03*
%TD*%
D12*
%TO.C,MX69*%
X290259500Y-103505000D03*
D13*
X285179500Y-103505000D03*
X295339500Y-103505000D03*
%TD*%
D12*
%TO.C,MX68*%
X266446000Y-103505000D03*
D13*
X261366000Y-103505000D03*
X271526000Y-103505000D03*
%TD*%
D12*
%TO.C,MX67*%
X242632500Y-103505000D03*
D13*
X237552500Y-103505000D03*
X247712500Y-103505000D03*
%TD*%
D12*
%TO.C,MX65*%
X80707500Y-103504500D03*
D13*
X75627500Y-103504500D03*
X85787500Y-103504500D03*
%TD*%
D12*
%TO.C,MX64*%
X56896000Y-103505000D03*
D13*
X51816000Y-103505000D03*
X61976000Y-103505000D03*
%TD*%
D12*
%TO.C,MX63*%
X33084250Y-103504500D03*
D13*
X28004250Y-103504500D03*
X38164250Y-103504500D03*
%TD*%
D12*
%TO.C,MX62*%
X295021000Y-84455000D03*
D13*
X289941000Y-84455000D03*
X300101000Y-84455000D03*
%TD*%
D12*
%TO.C,MX61*%
X278384000Y-84455000D03*
D13*
X273304000Y-84455000D03*
X283464000Y-84455000D03*
D14*
X266477750Y-77470000D03*
X290290250Y-77470000D03*
D12*
X266477750Y-92710000D03*
X290290250Y-92710000D03*
%TD*%
%TO.C,MX60*%
X268859000Y-84455000D03*
D13*
X263779000Y-84455000D03*
X273939000Y-84455000D03*
%TD*%
D12*
%TO.C,MX59*%
X242613054Y-84448542D03*
D13*
X237533054Y-84448542D03*
X247693054Y-84448542D03*
%TD*%
D12*
%TO.C,MX58*%
X223563054Y-84448542D03*
D13*
X218483054Y-84448542D03*
X228643054Y-84448542D03*
%TD*%
D12*
%TO.C,MX57*%
X204513054Y-84448542D03*
D13*
X199433054Y-84448542D03*
X209593054Y-84448542D03*
%TD*%
D12*
%TO.C,MX56*%
X185463054Y-84448542D03*
D13*
X180383054Y-84448542D03*
X190543054Y-84448542D03*
%TD*%
D12*
%TO.C,MX55*%
X166413054Y-84448542D03*
D13*
X161333054Y-84448542D03*
X171493054Y-84448542D03*
%TD*%
D12*
%TO.C,MX54*%
X147363054Y-84448542D03*
D13*
X142283054Y-84448542D03*
X152443054Y-84448542D03*
%TD*%
D12*
%TO.C,MX53*%
X128313054Y-84448542D03*
D13*
X123233054Y-84448542D03*
X133393054Y-84448542D03*
%TD*%
D12*
%TO.C,MX52*%
X109263054Y-84448542D03*
D13*
X104183054Y-84448542D03*
X114343054Y-84448542D03*
%TD*%
D12*
%TO.C,MX51*%
X90213054Y-84448542D03*
D13*
X85133054Y-84448542D03*
X95293054Y-84448542D03*
%TD*%
D12*
%TO.C,MX50*%
X71163054Y-84448542D03*
D13*
X66083054Y-84448542D03*
X76243054Y-84448542D03*
%TD*%
D12*
%TO.C,MX49*%
X52133500Y-84455000D03*
D13*
X47053500Y-84455000D03*
X57213500Y-84455000D03*
%TD*%
D12*
%TO.C,MX45*%
X283063054Y-65398542D03*
D13*
X277983054Y-65398542D03*
X288143054Y-65398542D03*
D14*
X271156804Y-58413542D03*
X294969304Y-58413542D03*
D12*
X271156804Y-73653542D03*
X294969304Y-73653542D03*
%TD*%
%TO.C,MX44*%
X271188054Y-65398542D03*
D13*
X266108054Y-65398542D03*
X276268054Y-65398542D03*
%TD*%
D12*
%TO.C,MX43*%
X252138054Y-65398542D03*
D13*
X247058054Y-65398542D03*
X257218054Y-65398542D03*
%TD*%
D12*
%TO.C,MX42*%
X233088054Y-65398542D03*
D13*
X228008054Y-65398542D03*
X238168054Y-65398542D03*
%TD*%
D12*
%TO.C,MX41*%
X214038054Y-65398542D03*
D13*
X208958054Y-65398542D03*
X219118054Y-65398542D03*
%TD*%
D12*
%TO.C,MX40*%
X194988054Y-65398542D03*
D13*
X189908054Y-65398542D03*
X200068054Y-65398542D03*
%TD*%
D12*
%TO.C,MX39*%
X175938054Y-65398542D03*
D13*
X170858054Y-65398542D03*
X181018054Y-65398542D03*
%TD*%
D12*
%TO.C,MX38*%
X156888054Y-65398542D03*
D13*
X151808054Y-65398542D03*
X161968054Y-65398542D03*
%TD*%
D12*
%TO.C,MX37*%
X137838054Y-65398542D03*
D13*
X132758054Y-65398542D03*
X142918054Y-65398542D03*
%TD*%
D12*
%TO.C,MX36*%
X118788054Y-65398542D03*
D13*
X113708054Y-65398542D03*
X123868054Y-65398542D03*
%TD*%
D12*
%TO.C,MX35*%
X99738054Y-65398542D03*
D13*
X94658054Y-65398542D03*
X104818054Y-65398542D03*
%TD*%
D12*
%TO.C,MX34*%
X80688054Y-65398542D03*
D13*
X75608054Y-65398542D03*
X85768054Y-65398542D03*
%TD*%
D12*
%TO.C,MX33*%
X61658500Y-65405000D03*
D13*
X56578500Y-65405000D03*
X66738500Y-65405000D03*
%TD*%
D12*
%TO.C,MX32*%
X35478000Y-65404500D03*
D13*
X30398000Y-65404500D03*
X40558000Y-65404500D03*
%TD*%
D12*
%TO.C,MX31*%
X30709250Y-65404500D03*
D13*
X25629250Y-65404500D03*
X35789250Y-65404500D03*
%TD*%
D12*
%TO.C,MX30*%
X290225554Y-46348542D03*
D13*
X285145554Y-46348542D03*
X295305554Y-46348542D03*
%TD*%
D12*
%TO.C,MX29*%
X266425554Y-46348542D03*
D13*
X261345554Y-46348542D03*
X271505554Y-46348542D03*
%TD*%
D12*
%TO.C,MX28*%
X247375554Y-46348542D03*
D13*
X242295554Y-46348542D03*
X252455554Y-46348542D03*
%TD*%
D12*
%TO.C,MX27*%
X228325554Y-46348542D03*
D13*
X223245554Y-46348542D03*
X233405554Y-46348542D03*
%TD*%
D12*
%TO.C,MX26*%
X209275554Y-46348542D03*
D13*
X204195554Y-46348542D03*
X214355554Y-46348542D03*
%TD*%
D12*
%TO.C,MX25*%
X190225554Y-46348542D03*
D13*
X185145554Y-46348542D03*
X195305554Y-46348542D03*
%TD*%
D12*
%TO.C,MX24*%
X171175554Y-46348542D03*
D13*
X166095554Y-46348542D03*
X176255554Y-46348542D03*
%TD*%
D12*
%TO.C,MX23*%
X152125554Y-46348542D03*
D13*
X147045554Y-46348542D03*
X157205554Y-46348542D03*
%TD*%
D12*
%TO.C,MX22*%
X133075554Y-46348542D03*
D13*
X127995554Y-46348542D03*
X138155554Y-46348542D03*
%TD*%
D12*
%TO.C,MX21*%
X114025554Y-46348542D03*
D13*
X108945554Y-46348542D03*
X119105554Y-46348542D03*
%TD*%
D12*
%TO.C,MX20*%
X94975554Y-46348542D03*
D13*
X89895554Y-46348542D03*
X100055554Y-46348542D03*
%TD*%
D12*
%TO.C,MX19*%
X75925554Y-46348542D03*
D13*
X70845554Y-46348542D03*
X81005554Y-46348542D03*
%TD*%
D12*
%TO.C,MX18*%
X56896000Y-46355000D03*
D13*
X51816000Y-46355000D03*
X61976000Y-46355000D03*
%TD*%
D12*
%TO.C,MX17*%
X33084250Y-46354500D03*
D13*
X28004250Y-46354500D03*
X38164250Y-46354500D03*
%TD*%
D12*
%TO.C,MX16*%
X295021000Y-27305000D03*
D13*
X289941000Y-27305000D03*
X300101000Y-27305000D03*
%TD*%
D12*
%TO.C,MX15*%
X285496000Y-27305000D03*
D13*
X280416000Y-27305000D03*
X290576000Y-27305000D03*
D14*
X273589750Y-20320000D03*
X297402250Y-20320000D03*
D12*
X273589750Y-35560000D03*
X297402250Y-35560000D03*
%TD*%
%TO.C,MX14*%
X275971000Y-27305000D03*
D13*
X270891000Y-27305000D03*
X281051000Y-27305000D03*
%TD*%
D12*
%TO.C,MX13*%
X256921000Y-27305000D03*
D13*
X251841000Y-27305000D03*
X262001000Y-27305000D03*
%TD*%
D12*
%TO.C,MX12*%
X237871000Y-27305000D03*
D13*
X232791000Y-27305000D03*
X242951000Y-27305000D03*
%TD*%
D12*
%TO.C,MX11*%
X218821000Y-27305000D03*
D13*
X213741000Y-27305000D03*
X223901000Y-27305000D03*
%TD*%
D12*
%TO.C,MX10*%
X199771000Y-27305000D03*
D13*
X194691000Y-27305000D03*
X204851000Y-27305000D03*
%TD*%
D12*
%TO.C,MX9*%
X180721000Y-27305000D03*
D13*
X175641000Y-27305000D03*
X185801000Y-27305000D03*
%TD*%
D12*
%TO.C,MX8*%
X161671000Y-27305000D03*
D13*
X156591000Y-27305000D03*
X166751000Y-27305000D03*
%TD*%
D12*
%TO.C,MX7*%
X142621000Y-27305000D03*
D13*
X137541000Y-27305000D03*
X147701000Y-27305000D03*
%TD*%
D12*
%TO.C,MX6*%
X123571000Y-27305000D03*
D13*
X118491000Y-27305000D03*
X128651000Y-27305000D03*
%TD*%
D12*
%TO.C,MX5*%
X104521000Y-27305000D03*
D13*
X99441000Y-27305000D03*
X109601000Y-27305000D03*
%TD*%
D12*
%TO.C,MX4*%
X85471000Y-27305000D03*
D13*
X80391000Y-27305000D03*
X90551000Y-27305000D03*
%TD*%
D12*
%TO.C,MX3*%
X66421000Y-27305000D03*
D13*
X61341000Y-27305000D03*
X71501000Y-27305000D03*
%TD*%
D12*
%TO.C,MX2*%
X47371000Y-27305000D03*
D13*
X42291000Y-27305000D03*
X52451000Y-27305000D03*
%TD*%
D12*
%TO.C,MX1*%
X28321000Y-27305000D03*
D13*
X23241000Y-27305000D03*
X33401000Y-27305000D03*
%TD*%
D19*
%TO.C,U3*%
G36*
X187786827Y-100527134D02*
G01*
X188281802Y-100032159D01*
X189359433Y-101109790D01*
X188864458Y-101604765D01*
X187786827Y-100527134D01*
G37*
G36*
X188564645Y-99749317D02*
G01*
X189059620Y-99254342D01*
X190137251Y-100331973D01*
X189642276Y-100826948D01*
X188564645Y-99749317D01*
G37*
G36*
X189342462Y-98971499D02*
G01*
X189837437Y-98476524D01*
X190915068Y-99554155D01*
X190420093Y-100049130D01*
X189342462Y-98971499D01*
G37*
G36*
X190120280Y-98193682D02*
G01*
X190615255Y-97698707D01*
X191692886Y-98776338D01*
X191197911Y-99271313D01*
X190120280Y-98193682D01*
G37*
G36*
X190898097Y-97415864D02*
G01*
X191393072Y-96920889D01*
X192470703Y-97998520D01*
X191975728Y-98493495D01*
X190898097Y-97415864D01*
G37*
G36*
X191675915Y-96638047D02*
G01*
X192170890Y-96143072D01*
X193248521Y-97220703D01*
X192753546Y-97715678D01*
X191675915Y-96638047D01*
G37*
G36*
X192453732Y-95860229D02*
G01*
X192948707Y-95365254D01*
X194026338Y-96442885D01*
X193531363Y-96937860D01*
X192453732Y-95860229D01*
G37*
G36*
X193231549Y-95082412D02*
G01*
X193726524Y-94587437D01*
X194804155Y-95665068D01*
X194309180Y-96160043D01*
X193231549Y-95082412D01*
G37*
G36*
X194009367Y-94304594D02*
G01*
X194504342Y-93809619D01*
X195581973Y-94887250D01*
X195086998Y-95382225D01*
X194009367Y-94304594D01*
G37*
G36*
X193797235Y-106537542D02*
G01*
X194292210Y-106042567D01*
X195369841Y-107120198D01*
X194874866Y-107615173D01*
X193797235Y-106537542D01*
G37*
G36*
X194575052Y-105759724D02*
G01*
X195070027Y-105264749D01*
X196147658Y-106342380D01*
X195652683Y-106837355D01*
X194575052Y-105759724D01*
G37*
G36*
X195352870Y-104981907D02*
G01*
X195847845Y-104486932D01*
X196925476Y-105564563D01*
X196430501Y-106059538D01*
X195352870Y-104981907D01*
G37*
G36*
X196130687Y-104204089D02*
G01*
X196625662Y-103709114D01*
X197703293Y-104786745D01*
X197208318Y-105281720D01*
X196130687Y-104204089D01*
G37*
G36*
X196908505Y-103426272D02*
G01*
X197403480Y-102931297D01*
X198481111Y-104008928D01*
X197986136Y-104503903D01*
X196908505Y-103426272D01*
G37*
G36*
X197686322Y-102648454D02*
G01*
X198181297Y-102153479D01*
X199258928Y-103231110D01*
X198763953Y-103726085D01*
X197686322Y-102648454D01*
G37*
G36*
X198464140Y-101870637D02*
G01*
X198959115Y-101375662D01*
X200036746Y-102453293D01*
X199541771Y-102948268D01*
X198464140Y-101870637D01*
G37*
G36*
X199241957Y-101092820D02*
G01*
X199736932Y-100597845D01*
X200814563Y-101675476D01*
X200319588Y-102170451D01*
X199241957Y-101092820D01*
G37*
G36*
X200019775Y-100315002D02*
G01*
X200514750Y-99820027D01*
X201592381Y-100897658D01*
X201097406Y-101392633D01*
X200019775Y-100315002D01*
G37*
%TD*%
%TO.C,J2*%
G36*
G01*
X151180000Y-106465001D02*
X151180000Y-105164999D01*
G75*
G02*
X151429999Y-104915000I249999J0D01*
G01*
X152130001Y-104915000D01*
G75*
G02*
X152380000Y-105164999I0J-249999D01*
G01*
X152380000Y-106465001D01*
G75*
G02*
X152130001Y-106715000I-249999J0D01*
G01*
X151429999Y-106715000D01*
G75*
G02*
X151180000Y-106465001I0J249999D01*
G01*
G37*
G36*
G01*
X147580000Y-106465001D02*
X147580000Y-105164999D01*
G75*
G02*
X147829999Y-104915000I249999J0D01*
G01*
X148530001Y-104915000D01*
G75*
G02*
X148780000Y-105164999I0J-249999D01*
G01*
X148780000Y-106465001D01*
G75*
G02*
X148530001Y-106715000I-249999J0D01*
G01*
X147829999Y-106715000D01*
G75*
G02*
X147580000Y-106465001I0J249999D01*
G01*
G37*
G36*
G01*
X150180000Y-102565000D02*
X150180000Y-101315000D01*
G75*
G02*
X150330000Y-101165000I150000J0D01*
G01*
X150630000Y-101165000D01*
G75*
G02*
X150780000Y-101315000I0J-150000D01*
G01*
X150780000Y-102565000D01*
G75*
G02*
X150630000Y-102715000I-150000J0D01*
G01*
X150330000Y-102715000D01*
G75*
G02*
X150180000Y-102565000I0J150000D01*
G01*
G37*
G36*
G01*
X149180000Y-102565000D02*
X149180000Y-101315000D01*
G75*
G02*
X149330000Y-101165000I150000J0D01*
G01*
X149630000Y-101165000D01*
G75*
G02*
X149780000Y-101315000I0J-150000D01*
G01*
X149780000Y-102565000D01*
G75*
G02*
X149630000Y-102715000I-150000J0D01*
G01*
X149330000Y-102715000D01*
G75*
G02*
X149180000Y-102565000I0J150000D01*
G01*
G37*
%TD*%
D20*
%TO.C,J1*%
X41912000Y-22688000D03*
X33272000Y-22688000D03*
D21*
X34702000Y-22158000D03*
D22*
X33272000Y-18508000D03*
D21*
X40482000Y-22158000D03*
D22*
X41912000Y-18508000D03*
%TD*%
M02*
