%TF.GenerationSoftware,KiCad,Pcbnew,5.1.10*%
%TF.CreationDate,2021-06-04T10:33:09+02:00*%
%TF.ProjectId,ptm-60nrf,70746d2d-3630-46e7-9266-2e6b69636164,rev?*%
%TF.SameCoordinates,Original*%
%TF.FileFunction,Legend,Top*%
%TF.FilePolarity,Positive*%
%FSLAX46Y46*%
G04 Gerber Fmt 4.6, Leading zero omitted, Abs format (unit mm)*
G04 Created by KiCad (PCBNEW 5.1.10) date 2021-06-04 10:33:09*
%MOMM*%
%LPD*%
G01*
G04 APERTURE LIST*
%ADD10C,0.150000*%
%ADD11C,0.120000*%
G04 APERTURE END LIST*
D10*
X230686666Y-97862380D02*
X231020000Y-98862380D01*
X231353333Y-97862380D01*
X231686666Y-98862380D02*
X231686666Y-97862380D01*
X231924761Y-97862380D01*
X232067619Y-97910000D01*
X232162857Y-98005238D01*
X232210476Y-98100476D01*
X232258095Y-98290952D01*
X232258095Y-98433809D01*
X232210476Y-98624285D01*
X232162857Y-98719523D01*
X232067619Y-98814761D01*
X231924761Y-98862380D01*
X231686666Y-98862380D01*
X232686666Y-98862380D02*
X232686666Y-97862380D01*
X232924761Y-97862380D01*
X233067619Y-97910000D01*
X233162857Y-98005238D01*
X233210476Y-98100476D01*
X233258095Y-98290952D01*
X233258095Y-98433809D01*
X233210476Y-98624285D01*
X233162857Y-98719523D01*
X233067619Y-98814761D01*
X232924761Y-98862380D01*
X232686666Y-98862380D01*
X231188095Y-105530000D02*
X231092857Y-105482380D01*
X230950000Y-105482380D01*
X230807142Y-105530000D01*
X230711904Y-105625238D01*
X230664285Y-105720476D01*
X230616666Y-105910952D01*
X230616666Y-106053809D01*
X230664285Y-106244285D01*
X230711904Y-106339523D01*
X230807142Y-106434761D01*
X230950000Y-106482380D01*
X231045238Y-106482380D01*
X231188095Y-106434761D01*
X231235714Y-106387142D01*
X231235714Y-106053809D01*
X231045238Y-106053809D01*
X231664285Y-106482380D02*
X231664285Y-105482380D01*
X232235714Y-106482380D01*
X232235714Y-105482380D01*
X232711904Y-106482380D02*
X232711904Y-105482380D01*
X232950000Y-105482380D01*
X233092857Y-105530000D01*
X233188095Y-105625238D01*
X233235714Y-105720476D01*
X233283333Y-105910952D01*
X233283333Y-106053809D01*
X233235714Y-106244285D01*
X233188095Y-106339523D01*
X233092857Y-106434761D01*
X232950000Y-106482380D01*
X232711904Y-106482380D01*
X230642857Y-101334761D02*
X230785714Y-101382380D01*
X231023809Y-101382380D01*
X231119047Y-101334761D01*
X231166666Y-101287142D01*
X231214285Y-101191904D01*
X231214285Y-101096666D01*
X231166666Y-101001428D01*
X231119047Y-100953809D01*
X231023809Y-100906190D01*
X230833333Y-100858571D01*
X230738095Y-100810952D01*
X230690476Y-100763333D01*
X230642857Y-100668095D01*
X230642857Y-100572857D01*
X230690476Y-100477619D01*
X230738095Y-100430000D01*
X230833333Y-100382380D01*
X231071428Y-100382380D01*
X231214285Y-100430000D01*
X231547619Y-100382380D02*
X231785714Y-101382380D01*
X231976190Y-100668095D01*
X232166666Y-101382380D01*
X232404761Y-100382380D01*
X233357142Y-101287142D02*
X233309523Y-101334761D01*
X233166666Y-101382380D01*
X233071428Y-101382380D01*
X232928571Y-101334761D01*
X232833333Y-101239523D01*
X232785714Y-101144285D01*
X232738095Y-100953809D01*
X232738095Y-100810952D01*
X232785714Y-100620476D01*
X232833333Y-100525238D01*
X232928571Y-100430000D01*
X233071428Y-100382380D01*
X233166666Y-100382380D01*
X233309523Y-100430000D01*
X233357142Y-100477619D01*
X230632857Y-103904761D02*
X230775714Y-103952380D01*
X231013809Y-103952380D01*
X231109047Y-103904761D01*
X231156666Y-103857142D01*
X231204285Y-103761904D01*
X231204285Y-103666666D01*
X231156666Y-103571428D01*
X231109047Y-103523809D01*
X231013809Y-103476190D01*
X230823333Y-103428571D01*
X230728095Y-103380952D01*
X230680476Y-103333333D01*
X230632857Y-103238095D01*
X230632857Y-103142857D01*
X230680476Y-103047619D01*
X230728095Y-103000000D01*
X230823333Y-102952380D01*
X231061428Y-102952380D01*
X231204285Y-103000000D01*
X231537619Y-102952380D02*
X231775714Y-103952380D01*
X231966190Y-103238095D01*
X232156666Y-103952380D01*
X232394761Y-102952380D01*
X232775714Y-103952380D02*
X232775714Y-102952380D01*
X233013809Y-102952380D01*
X233156666Y-103000000D01*
X233251904Y-103095238D01*
X233299523Y-103190476D01*
X233347142Y-103380952D01*
X233347142Y-103523809D01*
X233299523Y-103714285D01*
X233251904Y-103809523D01*
X233156666Y-103904761D01*
X233013809Y-103952380D01*
X232775714Y-103952380D01*
X124422380Y-104197380D02*
X124422380Y-103197380D01*
X124803333Y-103197380D01*
X124898571Y-103245000D01*
X124946190Y-103292619D01*
X124993809Y-103387857D01*
X124993809Y-103530714D01*
X124946190Y-103625952D01*
X124898571Y-103673571D01*
X124803333Y-103721190D01*
X124422380Y-103721190D01*
X125898571Y-104197380D02*
X125422380Y-104197380D01*
X125422380Y-103197380D01*
X126184285Y-103911666D02*
X126660476Y-103911666D01*
X126089047Y-104197380D02*
X126422380Y-103197380D01*
X126755714Y-104197380D01*
X127660476Y-104102142D02*
X127612857Y-104149761D01*
X127470000Y-104197380D01*
X127374761Y-104197380D01*
X127231904Y-104149761D01*
X127136666Y-104054523D01*
X127089047Y-103959285D01*
X127041428Y-103768809D01*
X127041428Y-103625952D01*
X127089047Y-103435476D01*
X127136666Y-103340238D01*
X127231904Y-103245000D01*
X127374761Y-103197380D01*
X127470000Y-103197380D01*
X127612857Y-103245000D01*
X127660476Y-103292619D01*
X128089047Y-103673571D02*
X128422380Y-103673571D01*
X128565238Y-104197380D02*
X128089047Y-104197380D01*
X128089047Y-103197380D01*
X128565238Y-103197380D01*
X121660476Y-105323571D02*
X121803333Y-105371190D01*
X121850952Y-105418809D01*
X121898571Y-105514047D01*
X121898571Y-105656904D01*
X121850952Y-105752142D01*
X121803333Y-105799761D01*
X121708095Y-105847380D01*
X121327142Y-105847380D01*
X121327142Y-104847380D01*
X121660476Y-104847380D01*
X121755714Y-104895000D01*
X121803333Y-104942619D01*
X121850952Y-105037857D01*
X121850952Y-105133095D01*
X121803333Y-105228333D01*
X121755714Y-105275952D01*
X121660476Y-105323571D01*
X121327142Y-105323571D01*
X122279523Y-105561666D02*
X122755714Y-105561666D01*
X122184285Y-105847380D02*
X122517619Y-104847380D01*
X122850952Y-105847380D01*
X123041428Y-104847380D02*
X123612857Y-104847380D01*
X123327142Y-105847380D02*
X123327142Y-104847380D01*
X123803333Y-104847380D02*
X124374761Y-104847380D01*
X124089047Y-105847380D02*
X124089047Y-104847380D01*
X124708095Y-105323571D02*
X125041428Y-105323571D01*
X125184285Y-105847380D02*
X124708095Y-105847380D01*
X124708095Y-104847380D01*
X125184285Y-104847380D01*
X126184285Y-105847380D02*
X125850952Y-105371190D01*
X125612857Y-105847380D02*
X125612857Y-104847380D01*
X125993809Y-104847380D01*
X126089047Y-104895000D01*
X126136666Y-104942619D01*
X126184285Y-105037857D01*
X126184285Y-105180714D01*
X126136666Y-105275952D01*
X126089047Y-105323571D01*
X125993809Y-105371190D01*
X125612857Y-105371190D01*
X126803333Y-105371190D02*
X126803333Y-105847380D01*
X126470000Y-104847380D02*
X126803333Y-105371190D01*
X127136666Y-104847380D01*
X128231904Y-105847380D02*
X128231904Y-104847380D01*
X128231904Y-105323571D02*
X128803333Y-105323571D01*
X128803333Y-105847380D02*
X128803333Y-104847380D01*
X129279523Y-105323571D02*
X129612857Y-105323571D01*
X129755714Y-105847380D02*
X129279523Y-105847380D01*
X129279523Y-104847380D01*
X129755714Y-104847380D01*
X130755714Y-105847380D02*
X130422380Y-105371190D01*
X130184285Y-105847380D02*
X130184285Y-104847380D01*
X130565238Y-104847380D01*
X130660476Y-104895000D01*
X130708095Y-104942619D01*
X130755714Y-105037857D01*
X130755714Y-105180714D01*
X130708095Y-105275952D01*
X130660476Y-105323571D01*
X130565238Y-105371190D01*
X130184285Y-105371190D01*
X131184285Y-105323571D02*
X131517619Y-105323571D01*
X131660476Y-105847380D02*
X131184285Y-105847380D01*
X131184285Y-104847380D01*
X131660476Y-104847380D01*
D11*
X142060000Y-110360000D02*
X110780000Y-110360000D01*
X142080000Y-98050000D02*
X142070000Y-110370000D01*
X110770000Y-98050000D02*
X142080000Y-98050000D01*
D10*
X110780000Y-98060000D02*
X110790000Y-110340000D01*
D11*
%TO.C,J4*%
X229705000Y-104745000D02*
X227045000Y-104745000D01*
X229705000Y-104745000D02*
X229705000Y-97065000D01*
X229705000Y-97065000D02*
X227045000Y-97065000D01*
X227045000Y-104745000D02*
X227045000Y-97065000D01*
X227045000Y-107345000D02*
X227045000Y-106015000D01*
X228375000Y-107345000D02*
X227045000Y-107345000D01*
%TO.C,J2*%
X147870000Y-104655000D02*
X147870000Y-102155000D01*
X147870000Y-102155000D02*
X148920000Y-102155000D01*
X148920000Y-102155000D02*
X148920000Y-101165000D01*
X152090000Y-104655000D02*
X152090000Y-102155000D01*
X152090000Y-102155000D02*
X151040000Y-102155000D01*
X149040000Y-106625000D02*
X150920000Y-106625000D01*
%TO.C,J4*%
D10*
X228041666Y-108237380D02*
X228041666Y-108951666D01*
X227994047Y-109094523D01*
X227898809Y-109189761D01*
X227755952Y-109237380D01*
X227660714Y-109237380D01*
X228946428Y-108570714D02*
X228946428Y-109237380D01*
X228708333Y-108189761D02*
X228470238Y-108904047D01*
X229089285Y-108904047D01*
%TO.C,J2*%
X149646666Y-99412380D02*
X149646666Y-100126666D01*
X149599047Y-100269523D01*
X149503809Y-100364761D01*
X149360952Y-100412380D01*
X149265714Y-100412380D01*
X150075238Y-99507619D02*
X150122857Y-99460000D01*
X150218095Y-99412380D01*
X150456190Y-99412380D01*
X150551428Y-99460000D01*
X150599047Y-99507619D01*
X150646666Y-99602857D01*
X150646666Y-99698095D01*
X150599047Y-99840952D01*
X150027619Y-100412380D01*
X150646666Y-100412380D01*
%TD*%
M02*
