M48
; DRILL file {KiCad 6.0.0} date Sat 01 Jan 2022 04:03:41 PM CET
; FORMAT={-:-/ absolute / inch / decimal}
; #@! TF.CreationDate,2022-01-01T16:03:41+01:00
; #@! TF.GenerationSoftware,Kicad,Pcbnew,6.0.0
; #@! TF.FileFunction,Plated,1,2,PTH
FMAT,2
INCH
; #@! TA.AperFunction,Plated,PTH,ViaDrill
T1C0.0157
; #@! TA.AperFunction,Plated,PTH,ComponentDrill
T2C0.0157
; #@! TA.AperFunction,Plated,PTH,ComponentDrill
T3C0.0236
; #@! TA.AperFunction,Plated,PTH,ComponentDrill
T4C0.0276
; #@! TA.AperFunction,Plated,PTH,ComponentDrill
T5C0.0394
; #@! TA.AperFunction,Plated,PTH,ComponentDrill
T6C0.0579
; #@! TA.AperFunction,Plated,PTH,ComponentDrill
T7C0.0984
; #@! TA.AperFunction,Plated,PTH,ComponentDrill
T8C0.1024
%
G90
G05
T1
X0.9083Y-0.7949
X0.9724Y-2.0992
X1.2736Y-2.1181
X1.274Y-2.0787
X1.327Y-1.3846
X1.3509Y-1.31
X1.3984Y-2.4642
X1.4291Y-1.5248
X1.4791Y-1.0957
X1.4799Y-0.8583
X1.4803Y-1.3118
X1.5953Y-2.6744
X1.6106Y-1.3106
X1.6516Y-1.5244
X1.6524Y-1.3846
X1.7571Y-2.0787
X1.7571Y-2.1181
X3.174Y-3.2028
X4.676Y-3.2
X5.2401Y-3.8713
X5.3248Y-4.0236
X5.5209Y-4.0087
X5.6512Y-2.702
X5.6735Y-3.8808
X5.7138Y-4.0228
X5.8Y-2.4
X6.3799Y-2.1181
X6.3819Y-2.0787
X6.6531Y-3.9441
X6.8031Y-4.0933
X6.8874Y-2.4004
X6.985Y-4.0345
X7.0386Y-4.089
X7.0921Y-4.0345
X7.165Y-4.387
X7.185Y-3.7004
X7.2136Y-3.7437
X7.2421Y-3.787
X7.2717Y-3.8303
X7.3012Y-3.8736
X7.3024Y-4.2122
X7.3297Y-3.9169
X7.3374Y-3.624
X7.3618Y-3.9606
X7.3653Y-4.0919
X7.5159Y-3.7114
X7.5592Y-3.7114
X7.5886Y-4.1794
X7.6025Y-3.7114
X7.6458Y-3.7114
X7.6697Y-2.7913
X7.6892Y-3.7124
X7.7315Y-3.7134
X7.8606Y-3.7225
X7.9055Y-2.9071
X7.9185Y-2.8531
X8.031Y-1.416
X8.0382Y-3.5039
X8.0555Y-4.0854
X8.17Y-3.35
X8.1957Y-1.3677
X8.213Y-2.8764
X8.213Y-2.9161
X8.3441Y-3.5035
X8.3524Y-2.8764
X8.3524Y-2.9161
X8.3756Y-3.5343
X8.4017Y-3.5637
X8.4213Y-4.0835
X8.426Y-2.7846
X8.7622Y-4.2531
X8.7898Y-4.2251
X8.8177Y-4.1973
X8.8452Y-4.1692
X10.4917Y-3.7803
X10.9728Y-1.4622
X11.1094Y-2.0094
X11.115Y-2.25
X11.476Y-2.3154
T2
X7.5222Y-3.7869
X7.5222Y-3.8302
X7.5222Y-3.8735
X7.5222Y-3.9169
X7.5222Y-3.9602
X7.5222Y-4.0035
X7.5222Y-4.0468
X7.5222Y-4.0901
X7.5222Y-4.1334
X7.8569Y-3.7869
X7.8569Y-3.8302
X7.8569Y-3.8735
X7.8569Y-3.9169
X7.8569Y-3.9602
X7.8569Y-4.0035
X7.8569Y-4.0468
X7.8569Y-4.0901
X7.8569Y-4.1334
T4
X7.0677Y-3.624
X7.1465Y-3.624
T5
X1.0165Y-0.8
X1.0165Y-1.3709
X1.115Y-1.3709
X1.2134Y-0.8
X1.2134Y-1.3709
X8.9911Y-3.8738
X8.9911Y-3.9738
X8.9911Y-4.0738
X8.9911Y-4.1738
T6
X0.965Y-0.975
X1.059Y-2.475
X1.059Y-3.225
X1.1525Y-1.725
X1.1525Y-3.975
X1.215Y-0.875
X1.2468Y-2.475
X1.309Y-2.375
X1.309Y-3.125
X1.4025Y-1.625
X1.4025Y-3.875
X1.435Y-3.225
X1.4968Y-2.375
X1.685Y-3.125
X1.715Y-0.975
X1.9025Y-3.225
X1.965Y-0.875
X2.09Y-1.725
X2.09Y-3.975
X2.1525Y-3.125
X2.2775Y-2.475
X2.34Y-1.625
X2.34Y-3.875
X2.465Y-0.975
X2.5275Y-2.375
X2.6517Y-3.2247
X2.715Y-0.875
X2.8392Y-1.7247
X2.9017Y-3.1247
X3.0267Y-2.4747
X3.0275Y-3.975
X3.0892Y-1.6247
X3.215Y-0.975
X3.2767Y-2.3747
X3.2775Y-3.875
X3.4017Y-3.2247
X3.465Y-0.875
X3.5892Y-1.7247
X3.6517Y-3.1247
X3.7767Y-2.4747
X3.8392Y-1.6247
X3.965Y-0.975
X4.0267Y-2.3747
X4.1517Y-3.2247
X4.215Y-0.875
X4.3392Y-1.7247
X4.4017Y-3.1247
X4.5267Y-2.4747
X4.5892Y-1.6247
X4.715Y-0.975
X4.7767Y-2.3747
X4.9017Y-3.2247
X4.965Y-0.875
X5.0892Y-1.7247
X5.1517Y-3.1247
X5.2767Y-2.4747
X5.3392Y-1.6247
X5.465Y-0.975
X5.5267Y-2.3747
X5.6517Y-3.2247
X5.715Y-0.875
X5.8392Y-1.7247
X5.9017Y-3.1247
X6.0267Y-2.4747
X6.0892Y-1.6247
X6.215Y-0.975
X6.2154Y-3.974
X6.2767Y-2.3747
X6.4017Y-3.2247
X6.465Y-0.875
X6.4654Y-3.874
X6.5892Y-1.7247
X6.6517Y-3.1247
X6.7767Y-2.4747
X6.8392Y-1.6247
X6.965Y-0.975
X7.0267Y-2.3747
X7.1517Y-3.2247
X7.215Y-0.875
X7.3392Y-1.7247
X7.4017Y-3.1247
X7.5267Y-2.4747
X7.5892Y-1.6247
X7.715Y-0.975
X7.7767Y-2.3747
X7.9017Y-3.2247
X7.965Y-0.875
X8.0892Y-1.7247
X8.1517Y-3.1247
X8.2767Y-2.4747
X8.3392Y-1.6247
X8.465Y-0.975
X8.5267Y-2.3747
X8.6517Y-3.2247
X8.715Y-0.875
X8.8392Y-1.7247
X8.9017Y-3.1247
X9.0267Y-2.4747
X9.0892Y-1.6247
X9.215Y-0.975
X9.2767Y-2.3747
X9.4017Y-3.2247
X9.4025Y-3.975
X9.465Y-0.875
X9.5892Y-1.7247
X9.6517Y-3.1247
X9.6525Y-3.875
X9.7767Y-2.4747
X9.8392Y-1.6247
X9.965Y-0.975
X10.0267Y-2.3747
X10.215Y-0.875
X10.3392Y-1.7247
X10.34Y-3.975
X10.435Y-3.225
X10.5267Y-2.4747
X10.5892Y-1.6247
X10.59Y-3.875
X10.685Y-3.125
X10.715Y-0.975
X10.7767Y-2.3747
X10.81Y-3.225
X10.965Y-0.875
X10.9942Y-2.4747
X11.06Y-3.125
X11.09Y-0.975
X11.2442Y-2.3747
X11.2762Y-1.7247
X11.2775Y-3.975
X11.34Y-0.875
X11.3702Y-2.0997
X11.465Y-0.975
X11.465Y-3.225
X11.5262Y-1.6247
X11.5275Y-3.875
X11.6202Y-1.9997
X11.715Y-0.875
X11.715Y-3.125
T8
X0.8945Y-1.0756
X1.3354Y-1.0756
T3
G00X1.3099Y-0.7169
M15
G01X1.3099Y-0.7405
M16
G05
G00X1.3099Y-0.8716
M15
G01X1.3099Y-0.9149
M16
G05
G00X1.6501Y-0.7169
M15
G01X1.6501Y-0.7405
M16
G05
G00X1.6501Y-0.8716
M15
G01X1.6501Y-0.9149
M16
G05
T7
G00X0.685Y-2.9555
M15
G01X0.8622Y-2.9555
M16
G05
G00X1.7311Y-1.8291
M15
G01X1.8296Y-1.8291
M16
G05
G00X5.7527Y-2.5756
M15
G01X5.8512Y-2.5756
M16
G05
G00X8.1858Y-4.0835
M15
G01X8.2843Y-4.0835
M16
G05
G00X8.1858Y-4.0835
M15
G01X8.2843Y-4.0835
M16
G05
G00X10.8901Y-1.8193
M15
G01X10.9886Y-1.8193
M16
G05
G00X11.8579Y-2.9528
M15
G01X12.0351Y-2.9528
M16
G05
T0
M30
