%TF.GenerationSoftware,KiCad,Pcbnew,5.1.10*%
%TF.CreationDate,2021-06-02T18:01:17+02:00*%
%TF.ProjectId,ptm-60nrf,70746d2d-3630-46e7-9266-2e6b69636164,rev?*%
%TF.SameCoordinates,Original*%
%TF.FileFunction,Legend,Bot*%
%TF.FilePolarity,Positive*%
%FSLAX46Y46*%
G04 Gerber Fmt 4.6, Leading zero omitted, Abs format (unit mm)*
G04 Created by KiCad (PCBNEW 5.1.10) date 2021-06-02 18:01:17*
%MOMM*%
%LPD*%
G01*
G04 APERTURE LIST*
%ADD10C,0.150000*%
%ADD11C,0.050000*%
%ADD12C,0.120000*%
G04 APERTURE END LIST*
D10*
X177913333Y-94012380D02*
X177580000Y-95012380D01*
X177246666Y-94012380D01*
X176913333Y-95012380D02*
X176913333Y-94012380D01*
X176675238Y-94012380D01*
X176532380Y-94060000D01*
X176437142Y-94155238D01*
X176389523Y-94250476D01*
X176341904Y-94440952D01*
X176341904Y-94583809D01*
X176389523Y-94774285D01*
X176437142Y-94869523D01*
X176532380Y-94964761D01*
X176675238Y-95012380D01*
X176913333Y-95012380D01*
X175913333Y-95012380D02*
X175913333Y-94012380D01*
X175675238Y-94012380D01*
X175532380Y-94060000D01*
X175437142Y-94155238D01*
X175389523Y-94250476D01*
X175341904Y-94440952D01*
X175341904Y-94583809D01*
X175389523Y-94774285D01*
X175437142Y-94869523D01*
X175532380Y-94964761D01*
X175675238Y-95012380D01*
X175913333Y-95012380D01*
X178017142Y-97524761D02*
X177874285Y-97572380D01*
X177636190Y-97572380D01*
X177540952Y-97524761D01*
X177493333Y-97477142D01*
X177445714Y-97381904D01*
X177445714Y-97286666D01*
X177493333Y-97191428D01*
X177540952Y-97143809D01*
X177636190Y-97096190D01*
X177826666Y-97048571D01*
X177921904Y-97000952D01*
X177969523Y-96953333D01*
X178017142Y-96858095D01*
X178017142Y-96762857D01*
X177969523Y-96667619D01*
X177921904Y-96620000D01*
X177826666Y-96572380D01*
X177588571Y-96572380D01*
X177445714Y-96620000D01*
X177112380Y-96572380D02*
X176874285Y-97572380D01*
X176683809Y-96858095D01*
X176493333Y-97572380D01*
X176255238Y-96572380D01*
X175302857Y-97477142D02*
X175350476Y-97524761D01*
X175493333Y-97572380D01*
X175588571Y-97572380D01*
X175731428Y-97524761D01*
X175826666Y-97429523D01*
X175874285Y-97334285D01*
X175921904Y-97143809D01*
X175921904Y-97000952D01*
X175874285Y-96810476D01*
X175826666Y-96715238D01*
X175731428Y-96620000D01*
X175588571Y-96572380D01*
X175493333Y-96572380D01*
X175350476Y-96620000D01*
X175302857Y-96667619D01*
X177987142Y-100064761D02*
X177844285Y-100112380D01*
X177606190Y-100112380D01*
X177510952Y-100064761D01*
X177463333Y-100017142D01*
X177415714Y-99921904D01*
X177415714Y-99826666D01*
X177463333Y-99731428D01*
X177510952Y-99683809D01*
X177606190Y-99636190D01*
X177796666Y-99588571D01*
X177891904Y-99540952D01*
X177939523Y-99493333D01*
X177987142Y-99398095D01*
X177987142Y-99302857D01*
X177939523Y-99207619D01*
X177891904Y-99160000D01*
X177796666Y-99112380D01*
X177558571Y-99112380D01*
X177415714Y-99160000D01*
X177082380Y-99112380D02*
X176844285Y-100112380D01*
X176653809Y-99398095D01*
X176463333Y-100112380D01*
X176225238Y-99112380D01*
X175844285Y-100112380D02*
X175844285Y-99112380D01*
X175606190Y-99112380D01*
X175463333Y-99160000D01*
X175368095Y-99255238D01*
X175320476Y-99350476D01*
X175272857Y-99540952D01*
X175272857Y-99683809D01*
X175320476Y-99874285D01*
X175368095Y-99969523D01*
X175463333Y-100064761D01*
X175606190Y-100112380D01*
X175844285Y-100112380D01*
X177421904Y-101690000D02*
X177517142Y-101642380D01*
X177660000Y-101642380D01*
X177802857Y-101690000D01*
X177898095Y-101785238D01*
X177945714Y-101880476D01*
X177993333Y-102070952D01*
X177993333Y-102213809D01*
X177945714Y-102404285D01*
X177898095Y-102499523D01*
X177802857Y-102594761D01*
X177660000Y-102642380D01*
X177564761Y-102642380D01*
X177421904Y-102594761D01*
X177374285Y-102547142D01*
X177374285Y-102213809D01*
X177564761Y-102213809D01*
X176945714Y-102642380D02*
X176945714Y-101642380D01*
X176374285Y-102642380D01*
X176374285Y-101642380D01*
X175898095Y-102642380D02*
X175898095Y-101642380D01*
X175660000Y-101642380D01*
X175517142Y-101690000D01*
X175421904Y-101785238D01*
X175374285Y-101880476D01*
X175326666Y-102070952D01*
X175326666Y-102213809D01*
X175374285Y-102404285D01*
X175421904Y-102499523D01*
X175517142Y-102594761D01*
X175660000Y-102642380D01*
X175898095Y-102642380D01*
D11*
X135935238Y-107513095D02*
X135935238Y-107263095D01*
X135625714Y-107513095D02*
X135625714Y-107263095D01*
X135518571Y-107513095D02*
X135518571Y-107382142D01*
X135530476Y-107358333D01*
X135554285Y-107346428D01*
X135590000Y-107346428D01*
X135613809Y-107358333D01*
X135625714Y-107370238D01*
X135292380Y-107513095D02*
X135292380Y-107382142D01*
X135304285Y-107358333D01*
X135328095Y-107346428D01*
X135375714Y-107346428D01*
X135399523Y-107358333D01*
X135292380Y-107501190D02*
X135316190Y-107513095D01*
X135375714Y-107513095D01*
X135399523Y-107501190D01*
X135411428Y-107477380D01*
X135411428Y-107453571D01*
X135399523Y-107429761D01*
X135375714Y-107417857D01*
X135316190Y-107417857D01*
X135292380Y-107405952D01*
X135197142Y-107346428D02*
X135137619Y-107513095D01*
X135078095Y-107346428D01*
X134887619Y-107501190D02*
X134911428Y-107513095D01*
X134959047Y-107513095D01*
X134982857Y-107501190D01*
X134994761Y-107477380D01*
X134994761Y-107382142D01*
X134982857Y-107358333D01*
X134959047Y-107346428D01*
X134911428Y-107346428D01*
X134887619Y-107358333D01*
X134875714Y-107382142D01*
X134875714Y-107405952D01*
X134994761Y-107429761D01*
X134578095Y-107346428D02*
X134578095Y-107513095D01*
X134578095Y-107370238D02*
X134566190Y-107358333D01*
X134542380Y-107346428D01*
X134506666Y-107346428D01*
X134482857Y-107358333D01*
X134470952Y-107382142D01*
X134470952Y-107513095D01*
X134316190Y-107513095D02*
X134340000Y-107501190D01*
X134351904Y-107489285D01*
X134363809Y-107465476D01*
X134363809Y-107394047D01*
X134351904Y-107370238D01*
X134340000Y-107358333D01*
X134316190Y-107346428D01*
X134280476Y-107346428D01*
X134256666Y-107358333D01*
X134244761Y-107370238D01*
X134232857Y-107394047D01*
X134232857Y-107465476D01*
X134244761Y-107489285D01*
X134256666Y-107501190D01*
X134280476Y-107513095D01*
X134316190Y-107513095D01*
X133935238Y-107513095D02*
X133935238Y-107346428D01*
X133935238Y-107263095D02*
X133947142Y-107275000D01*
X133935238Y-107286904D01*
X133923333Y-107275000D01*
X133935238Y-107263095D01*
X133935238Y-107286904D01*
X133709047Y-107513095D02*
X133709047Y-107263095D01*
X133709047Y-107501190D02*
X133732857Y-107513095D01*
X133780476Y-107513095D01*
X133804285Y-107501190D01*
X133816190Y-107489285D01*
X133828095Y-107465476D01*
X133828095Y-107394047D01*
X133816190Y-107370238D01*
X133804285Y-107358333D01*
X133780476Y-107346428D01*
X133732857Y-107346428D01*
X133709047Y-107358333D01*
X133494761Y-107501190D02*
X133518571Y-107513095D01*
X133566190Y-107513095D01*
X133590000Y-107501190D01*
X133601904Y-107477380D01*
X133601904Y-107382142D01*
X133590000Y-107358333D01*
X133566190Y-107346428D01*
X133518571Y-107346428D01*
X133494761Y-107358333D01*
X133482857Y-107382142D01*
X133482857Y-107405952D01*
X133601904Y-107429761D01*
X133268571Y-107513095D02*
X133268571Y-107382142D01*
X133280476Y-107358333D01*
X133304285Y-107346428D01*
X133351904Y-107346428D01*
X133375714Y-107358333D01*
X133268571Y-107501190D02*
X133292380Y-107513095D01*
X133351904Y-107513095D01*
X133375714Y-107501190D01*
X133387619Y-107477380D01*
X133387619Y-107453571D01*
X133375714Y-107429761D01*
X133351904Y-107417857D01*
X133292380Y-107417857D01*
X133268571Y-107405952D01*
X132982857Y-107346428D02*
X132935238Y-107513095D01*
X132887619Y-107394047D01*
X132840000Y-107513095D01*
X132792380Y-107346428D01*
X132697142Y-107513095D02*
X132697142Y-107263095D01*
X132590000Y-107513095D02*
X132590000Y-107382142D01*
X132601904Y-107358333D01*
X132625714Y-107346428D01*
X132661428Y-107346428D01*
X132685238Y-107358333D01*
X132697142Y-107370238D01*
X132363809Y-107513095D02*
X132363809Y-107382142D01*
X132375714Y-107358333D01*
X132399523Y-107346428D01*
X132447142Y-107346428D01*
X132470952Y-107358333D01*
X132363809Y-107501190D02*
X132387619Y-107513095D01*
X132447142Y-107513095D01*
X132470952Y-107501190D01*
X132482857Y-107477380D01*
X132482857Y-107453571D01*
X132470952Y-107429761D01*
X132447142Y-107417857D01*
X132387619Y-107417857D01*
X132363809Y-107405952D01*
X132280476Y-107346428D02*
X132185238Y-107346428D01*
X132244761Y-107263095D02*
X132244761Y-107477380D01*
X132232857Y-107501190D01*
X132209047Y-107513095D01*
X132185238Y-107513095D01*
X131911428Y-107513095D02*
X131911428Y-107263095D01*
X131780476Y-107263095D02*
X131804285Y-107310714D01*
X131673333Y-107513095D02*
X131673333Y-107346428D01*
X131673333Y-107370238D02*
X131661428Y-107358333D01*
X131637619Y-107346428D01*
X131601904Y-107346428D01*
X131578095Y-107358333D01*
X131566190Y-107382142D01*
X131566190Y-107513095D01*
X131566190Y-107382142D02*
X131554285Y-107358333D01*
X131530476Y-107346428D01*
X131494761Y-107346428D01*
X131470952Y-107358333D01*
X131459047Y-107382142D01*
X131459047Y-107513095D01*
X131042380Y-107513095D02*
X131042380Y-107263095D01*
X131042380Y-107501190D02*
X131066190Y-107513095D01*
X131113809Y-107513095D01*
X131137619Y-107501190D01*
X131149523Y-107489285D01*
X131161428Y-107465476D01*
X131161428Y-107394047D01*
X131149523Y-107370238D01*
X131137619Y-107358333D01*
X131113809Y-107346428D01*
X131066190Y-107346428D01*
X131042380Y-107358333D01*
X130887619Y-107513095D02*
X130911428Y-107501190D01*
X130923333Y-107489285D01*
X130935238Y-107465476D01*
X130935238Y-107394047D01*
X130923333Y-107370238D01*
X130911428Y-107358333D01*
X130887619Y-107346428D01*
X130851904Y-107346428D01*
X130828095Y-107358333D01*
X130816190Y-107370238D01*
X130804285Y-107394047D01*
X130804285Y-107465476D01*
X130816190Y-107489285D01*
X130828095Y-107501190D01*
X130851904Y-107513095D01*
X130887619Y-107513095D01*
X130697142Y-107513095D02*
X130697142Y-107346428D01*
X130697142Y-107263095D02*
X130709047Y-107275000D01*
X130697142Y-107286904D01*
X130685238Y-107275000D01*
X130697142Y-107263095D01*
X130697142Y-107286904D01*
X130578095Y-107346428D02*
X130578095Y-107513095D01*
X130578095Y-107370238D02*
X130566190Y-107358333D01*
X130542380Y-107346428D01*
X130506666Y-107346428D01*
X130482857Y-107358333D01*
X130470952Y-107382142D01*
X130470952Y-107513095D01*
X130244761Y-107346428D02*
X130244761Y-107548809D01*
X130256666Y-107572619D01*
X130268571Y-107584523D01*
X130292380Y-107596428D01*
X130328095Y-107596428D01*
X130351904Y-107584523D01*
X130244761Y-107501190D02*
X130268571Y-107513095D01*
X130316190Y-107513095D01*
X130340000Y-107501190D01*
X130351904Y-107489285D01*
X130363809Y-107465476D01*
X130363809Y-107394047D01*
X130351904Y-107370238D01*
X130340000Y-107358333D01*
X130316190Y-107346428D01*
X130268571Y-107346428D01*
X130244761Y-107358333D01*
D12*
X130020000Y-92470000D02*
X130040000Y-93940000D01*
X155590000Y-92350000D02*
X130020000Y-92470000D01*
X155630000Y-108000000D02*
X155590000Y-92350000D01*
X129870000Y-108000000D02*
X155630000Y-108000000D01*
X130040000Y-93940000D02*
X129870000Y-108000000D01*
D10*
X197926231Y-97066805D02*
X197219125Y-96359698D01*
X197555842Y-96696416D02*
X197151781Y-97100477D01*
X197522170Y-97470866D02*
X196815064Y-96763759D01*
X197084438Y-97908599D02*
X197118109Y-97807583D01*
X197118109Y-97740240D01*
X197084438Y-97639225D01*
X196882407Y-97437194D01*
X196781392Y-97403522D01*
X196714048Y-97403522D01*
X196613033Y-97437194D01*
X196512018Y-97538209D01*
X196478346Y-97639225D01*
X196478346Y-97706568D01*
X196512018Y-97807583D01*
X196714048Y-98009614D01*
X196815064Y-98043286D01*
X196882407Y-98043286D01*
X196983422Y-98009614D01*
X197084438Y-97908599D01*
X196444674Y-98548362D02*
X196478346Y-98447347D01*
X196444674Y-98346331D01*
X195838583Y-97740240D01*
X195771239Y-98278988D02*
X196074285Y-98918751D01*
X195434522Y-98615705D02*
X196074285Y-98918751D01*
X196309987Y-99019766D01*
X196377331Y-99019766D01*
X196478346Y-98986095D01*
X195636552Y-99356484D02*
X195165148Y-98885079D01*
X194929446Y-98649377D02*
X194996789Y-98649377D01*
X194996789Y-98716721D01*
X194929446Y-98716721D01*
X194929446Y-98649377D01*
X194996789Y-98716721D01*
X195198820Y-99794217D02*
X195232491Y-99693201D01*
X195232491Y-99625858D01*
X195198820Y-99524843D01*
X194996789Y-99322812D01*
X194895774Y-99289140D01*
X194828430Y-99289140D01*
X194727415Y-99322812D01*
X194626400Y-99423827D01*
X194592728Y-99524843D01*
X194592728Y-99592186D01*
X194626400Y-99693201D01*
X194828430Y-99895232D01*
X194929446Y-99928904D01*
X194996789Y-99928904D01*
X195097804Y-99895232D01*
X195198820Y-99794217D01*
X194289682Y-99760545D02*
X194020308Y-100029919D01*
X193952965Y-99625858D02*
X194559056Y-100231949D01*
X194592728Y-100332965D01*
X194559056Y-100433980D01*
X194491713Y-100501324D01*
X193346873Y-101646163D02*
X193750934Y-101242102D01*
X193548904Y-101444133D02*
X192841797Y-100737026D01*
X193010156Y-100770698D01*
X193144843Y-100770698D01*
X193245858Y-100737026D01*
X192538751Y-101646163D02*
X192572423Y-101545148D01*
X192572423Y-101477804D01*
X192538751Y-101376789D01*
X192505079Y-101343117D01*
X192404064Y-101309446D01*
X192336721Y-101309446D01*
X192235705Y-101343117D01*
X192101018Y-101477804D01*
X192067347Y-101578820D01*
X192067347Y-101646163D01*
X192101018Y-101747178D01*
X192134690Y-101780850D01*
X192235705Y-101814522D01*
X192303049Y-101814522D01*
X192404064Y-101780850D01*
X192538751Y-101646163D01*
X192639766Y-101612491D01*
X192707110Y-101612491D01*
X192808125Y-101646163D01*
X192942812Y-101780850D01*
X192976484Y-101881865D01*
X192976484Y-101949209D01*
X192942812Y-102050224D01*
X192808125Y-102184911D01*
X192707110Y-102218583D01*
X192639766Y-102218583D01*
X192538751Y-102184911D01*
X192404064Y-102050224D01*
X192370392Y-101949209D01*
X192370392Y-101881865D01*
X192404064Y-101780850D01*
X191528599Y-102050224D02*
X191461255Y-102117568D01*
X191427583Y-102218583D01*
X191427583Y-102285926D01*
X191461255Y-102386942D01*
X191562270Y-102555300D01*
X191730629Y-102723659D01*
X191898988Y-102824674D01*
X192000003Y-102858346D01*
X192067347Y-102858346D01*
X192168362Y-102824674D01*
X192235705Y-102757331D01*
X192269377Y-102656316D01*
X192269377Y-102588972D01*
X192235705Y-102487957D01*
X192134690Y-102319598D01*
X191966331Y-102151239D01*
X191797973Y-102050224D01*
X191696957Y-102016552D01*
X191629614Y-102016552D01*
X191528599Y-102050224D01*
X191326568Y-103666468D02*
X191730629Y-103262407D01*
X191528599Y-103464438D02*
X190821492Y-102757331D01*
X190989851Y-102791003D01*
X191124538Y-102791003D01*
X191225553Y-102757331D01*
X190181729Y-103397094D02*
X190114385Y-103464438D01*
X190080713Y-103565453D01*
X190080713Y-103632796D01*
X190114385Y-103733812D01*
X190215400Y-103902170D01*
X190383759Y-104070529D01*
X190552118Y-104171544D01*
X190653133Y-104205216D01*
X190720477Y-104205216D01*
X190821492Y-104171544D01*
X190888835Y-104104201D01*
X190922507Y-104003186D01*
X190922507Y-103935842D01*
X190888835Y-103834827D01*
X190787820Y-103666468D01*
X190619461Y-103498109D01*
X190451103Y-103397094D01*
X190350087Y-103363422D01*
X190282744Y-103363422D01*
X190181729Y-103397094D01*
X196937965Y-99041653D02*
X196971637Y-98940638D01*
X197072652Y-98839622D01*
X197207339Y-98772279D01*
X197342026Y-98772279D01*
X197443042Y-98805951D01*
X197611400Y-98906966D01*
X197712416Y-99007981D01*
X197813431Y-99176340D01*
X197847103Y-99277355D01*
X197847103Y-99412042D01*
X197779759Y-99546729D01*
X197712416Y-99614073D01*
X197577729Y-99681416D01*
X197510385Y-99681416D01*
X197274683Y-99445714D01*
X197409370Y-99311027D01*
X197173668Y-100152821D02*
X197207339Y-100051805D01*
X197207339Y-99984462D01*
X197173668Y-99883447D01*
X196971637Y-99681416D01*
X196870622Y-99647744D01*
X196803278Y-99647744D01*
X196702263Y-99681416D01*
X196601248Y-99782431D01*
X196567576Y-99883447D01*
X196567576Y-99950790D01*
X196601248Y-100051805D01*
X196803278Y-100253836D01*
X196904294Y-100287508D01*
X196971637Y-100287508D01*
X197072652Y-100253836D01*
X197173668Y-100152821D01*
X196331874Y-100927271D02*
X196432889Y-100893599D01*
X196567576Y-100758912D01*
X196601248Y-100657897D01*
X196567576Y-100556882D01*
X196298202Y-100287508D01*
X196197187Y-100253836D01*
X196096172Y-100287508D01*
X195961485Y-100422195D01*
X195927813Y-100523210D01*
X195961485Y-100624225D01*
X196028828Y-100691569D01*
X196432889Y-100422195D01*
X196028828Y-101230317D02*
X195995156Y-101331332D01*
X195860469Y-101466019D01*
X195759454Y-101499691D01*
X195658439Y-101466019D01*
X195624767Y-101432347D01*
X195591095Y-101331332D01*
X195624767Y-101230317D01*
X195725782Y-101129301D01*
X195759454Y-101028286D01*
X195725782Y-100927271D01*
X195692111Y-100893599D01*
X195591095Y-100859927D01*
X195490080Y-100893599D01*
X195389065Y-100994614D01*
X195355393Y-101095630D01*
X194917660Y-102408828D02*
X194210553Y-101701721D01*
X194614614Y-102711874D02*
X194244225Y-102341485D01*
X194210553Y-102240469D01*
X194244225Y-102139454D01*
X194345240Y-102038439D01*
X194446256Y-102004767D01*
X194513599Y-102004767D01*
X193974851Y-103284294D02*
X194075866Y-103250622D01*
X194210553Y-103115935D01*
X194244225Y-103014920D01*
X194210553Y-102913904D01*
X193941179Y-102644530D01*
X193840164Y-102610859D01*
X193739149Y-102644530D01*
X193604462Y-102779217D01*
X193570790Y-102880233D01*
X193604462Y-102981248D01*
X193671805Y-103048591D01*
X194075866Y-102779217D01*
X193671805Y-103654683D02*
X193200401Y-103183278D01*
X193335088Y-103317965D02*
X193234073Y-103284294D01*
X193166729Y-103284294D01*
X193065714Y-103317965D01*
X192998370Y-103385309D01*
X192931027Y-104328118D02*
X193032042Y-104294446D01*
X193166729Y-104159759D01*
X193200401Y-104058744D01*
X193166729Y-103957729D01*
X192897355Y-103688355D01*
X192796340Y-103654683D01*
X192695325Y-103688355D01*
X192560638Y-103823042D01*
X192526966Y-103924057D01*
X192560638Y-104025072D01*
X192627981Y-104092416D01*
X193032042Y-103823042D01*
D12*
%TO.C,D28*%
X212625000Y-35595000D02*
X212625000Y-37880000D01*
X211155000Y-35595000D02*
X212625000Y-35595000D01*
X211155000Y-37880000D02*
X211155000Y-35595000D01*
%TO.C,Reset1*%
X180580000Y-105150000D02*
X181070000Y-105640000D01*
X177680000Y-105150000D02*
X180580000Y-105150000D01*
X177680000Y-105150000D02*
X177190000Y-105640000D01*
X177680000Y-110590000D02*
X180580000Y-110590000D01*
X177680000Y-110590000D02*
X177190000Y-110100000D01*
X181850000Y-106830000D02*
X181850000Y-108910000D01*
X180580000Y-110590000D02*
X181070000Y-110100000D01*
X176410000Y-106830000D02*
X176410000Y-108910000D01*
%TO.C,D71*%
X292127000Y-110197000D02*
X292127000Y-107912000D01*
X293597000Y-110197000D02*
X292127000Y-110197000D01*
X293597000Y-107912000D02*
X293597000Y-110197000D01*
%TO.C,D70*%
X268251000Y-110324000D02*
X268251000Y-108039000D01*
X269721000Y-110324000D02*
X268251000Y-110324000D01*
X269721000Y-108039000D02*
X269721000Y-110324000D01*
%TO.C,D69*%
X244375000Y-110451000D02*
X244375000Y-108166000D01*
X245845000Y-110451000D02*
X244375000Y-110451000D01*
X245845000Y-108166000D02*
X245845000Y-110451000D01*
%TO.C,D68*%
X163476000Y-110451000D02*
X163476000Y-108166000D01*
X164946000Y-110451000D02*
X163476000Y-110451000D01*
X164946000Y-108166000D02*
X164946000Y-110451000D01*
%TO.C,D67*%
X82577000Y-110451000D02*
X82577000Y-108166000D01*
X84047000Y-110451000D02*
X82577000Y-110451000D01*
X84047000Y-108166000D02*
X84047000Y-110451000D01*
%TO.C,D66*%
X58701000Y-110451000D02*
X58701000Y-108166000D01*
X60171000Y-110451000D02*
X58701000Y-110451000D01*
X60171000Y-108166000D02*
X60171000Y-110451000D01*
%TO.C,D65*%
X34825000Y-110451000D02*
X34825000Y-108166000D01*
X36295000Y-110451000D02*
X34825000Y-110451000D01*
X36295000Y-108166000D02*
X36295000Y-110451000D01*
%TO.C,D64*%
X296953000Y-92290000D02*
X296953000Y-90005000D01*
X298423000Y-92290000D02*
X296953000Y-92290000D01*
X298423000Y-90005000D02*
X298423000Y-92290000D01*
%TO.C,D62*%
X259107000Y-92290000D02*
X259107000Y-90005000D01*
X260577000Y-92290000D02*
X259107000Y-92290000D01*
X260577000Y-90005000D02*
X260577000Y-92290000D01*
%TO.C,D61*%
X244375000Y-92290000D02*
X244375000Y-90005000D01*
X245845000Y-92290000D02*
X244375000Y-92290000D01*
X245845000Y-90005000D02*
X245845000Y-92290000D01*
%TO.C,D60*%
X225325000Y-92290000D02*
X225325000Y-90005000D01*
X226795000Y-92290000D02*
X225325000Y-92290000D01*
X226795000Y-90005000D02*
X226795000Y-92290000D01*
%TO.C,D59*%
X207785000Y-74225000D02*
X207785000Y-76510000D01*
X206315000Y-74225000D02*
X207785000Y-74225000D01*
X206315000Y-76510000D02*
X206315000Y-74225000D01*
%TO.C,D58*%
X187225000Y-92290000D02*
X187225000Y-90005000D01*
X188695000Y-92290000D02*
X187225000Y-92290000D01*
X188695000Y-90005000D02*
X188695000Y-92290000D01*
%TO.C,D57*%
X168175000Y-92290000D02*
X168175000Y-90005000D01*
X169645000Y-92290000D02*
X168175000Y-92290000D01*
X169645000Y-90005000D02*
X169645000Y-92290000D01*
%TO.C,D56*%
X149125000Y-92290000D02*
X149125000Y-90005000D01*
X150595000Y-92290000D02*
X149125000Y-92290000D01*
X150595000Y-90005000D02*
X150595000Y-92290000D01*
%TO.C,D55*%
X130075000Y-92290000D02*
X130075000Y-90005000D01*
X131545000Y-92290000D02*
X130075000Y-92290000D01*
X131545000Y-90005000D02*
X131545000Y-92290000D01*
%TO.C,D54*%
X111025000Y-92290000D02*
X111025000Y-90005000D01*
X112495000Y-92290000D02*
X111025000Y-92290000D01*
X112495000Y-90005000D02*
X112495000Y-92290000D01*
%TO.C,D53*%
X91975000Y-92290000D02*
X91975000Y-90005000D01*
X93445000Y-92290000D02*
X91975000Y-92290000D01*
X93445000Y-90005000D02*
X93445000Y-92290000D01*
%TO.C,D52*%
X72925000Y-92290000D02*
X72925000Y-90005000D01*
X74395000Y-92290000D02*
X72925000Y-92290000D01*
X74395000Y-90005000D02*
X74395000Y-92290000D01*
%TO.C,D51*%
X58320000Y-92290000D02*
X58320000Y-90005000D01*
X59790000Y-92290000D02*
X58320000Y-92290000D01*
X59790000Y-90005000D02*
X59790000Y-92290000D01*
%TO.C,D49*%
X34571000Y-92163000D02*
X34571000Y-89878000D01*
X36041000Y-92163000D02*
X34571000Y-92163000D01*
X36041000Y-89878000D02*
X36041000Y-92163000D01*
%TO.C,D47*%
X292635000Y-68668000D02*
X292635000Y-66383000D01*
X294105000Y-68668000D02*
X292635000Y-68668000D01*
X294105000Y-66383000D02*
X294105000Y-68668000D01*
%TO.C,D46*%
X275617000Y-73240000D02*
X275617000Y-70955000D01*
X277087000Y-73240000D02*
X275617000Y-73240000D01*
X277087000Y-70955000D02*
X277087000Y-73240000D01*
%TO.C,D45*%
X254027000Y-73495000D02*
X254027000Y-71210000D01*
X255497000Y-73495000D02*
X254027000Y-73495000D01*
X255497000Y-71210000D02*
X255497000Y-73495000D01*
%TO.C,D44*%
X234977000Y-73495000D02*
X234977000Y-71210000D01*
X236447000Y-73495000D02*
X234977000Y-73495000D01*
X236447000Y-71210000D02*
X236447000Y-73495000D01*
%TO.C,D43*%
X215927000Y-73495000D02*
X215927000Y-71210000D01*
X217397000Y-73495000D02*
X215927000Y-73495000D01*
X217397000Y-71210000D02*
X217397000Y-73495000D01*
%TO.C,D42*%
X196877000Y-73495000D02*
X196877000Y-71210000D01*
X198347000Y-73495000D02*
X196877000Y-73495000D01*
X198347000Y-71210000D02*
X198347000Y-73495000D01*
%TO.C,D41*%
X177827000Y-73495000D02*
X177827000Y-71210000D01*
X179297000Y-73495000D02*
X177827000Y-73495000D01*
X179297000Y-71210000D02*
X179297000Y-73495000D01*
%TO.C,D40*%
X158777000Y-73495000D02*
X158777000Y-71210000D01*
X160247000Y-73495000D02*
X158777000Y-73495000D01*
X160247000Y-71210000D02*
X160247000Y-73495000D01*
%TO.C,D39*%
X139727000Y-73495000D02*
X139727000Y-71210000D01*
X141197000Y-73495000D02*
X139727000Y-73495000D01*
X141197000Y-71210000D02*
X141197000Y-73495000D01*
%TO.C,D38*%
X120677000Y-73495000D02*
X120677000Y-71210000D01*
X122147000Y-73495000D02*
X120677000Y-73495000D01*
X122147000Y-71210000D02*
X122147000Y-73495000D01*
%TO.C,D37*%
X101627000Y-73495000D02*
X101627000Y-71210000D01*
X103097000Y-73495000D02*
X101627000Y-73495000D01*
X103097000Y-71210000D02*
X103097000Y-73495000D01*
%TO.C,D36*%
X82577000Y-73495000D02*
X82577000Y-71210000D01*
X84047000Y-73495000D02*
X82577000Y-73495000D01*
X84047000Y-71210000D02*
X84047000Y-73495000D01*
%TO.C,D35*%
X63527000Y-73495000D02*
X63527000Y-71210000D01*
X64997000Y-73495000D02*
X63527000Y-73495000D01*
X64997000Y-71210000D02*
X64997000Y-73495000D01*
%TO.C,D33*%
X37295000Y-73475000D02*
X37295000Y-71190000D01*
X38765000Y-73475000D02*
X37295000Y-73475000D01*
X38765000Y-71190000D02*
X38765000Y-73475000D01*
%TO.C,D32*%
X281750000Y-39195000D02*
X279465000Y-39195000D01*
X279465000Y-39195000D02*
X279465000Y-37725000D01*
X279465000Y-37725000D02*
X281750000Y-37725000D01*
%TO.C,D31*%
X264305000Y-37880000D02*
X264305000Y-35595000D01*
X264305000Y-35595000D02*
X265775000Y-35595000D01*
X265775000Y-35595000D02*
X265775000Y-37880000D01*
%TO.C,D30*%
X249255000Y-37880000D02*
X249255000Y-35595000D01*
X249255000Y-35595000D02*
X250725000Y-35595000D01*
X250725000Y-35595000D02*
X250725000Y-37880000D01*
%TO.C,D29*%
X231675000Y-35595000D02*
X231675000Y-37880000D01*
X230205000Y-35595000D02*
X231675000Y-35595000D01*
X230205000Y-37880000D02*
X230205000Y-35595000D01*
%TO.C,D27*%
X193575000Y-35595000D02*
X193575000Y-37880000D01*
X192105000Y-35595000D02*
X193575000Y-35595000D01*
X192105000Y-37880000D02*
X192105000Y-35595000D01*
%TO.C,D26*%
X174525000Y-35595000D02*
X174525000Y-37880000D01*
X173055000Y-35595000D02*
X174525000Y-35595000D01*
X173055000Y-37880000D02*
X173055000Y-35595000D01*
%TO.C,D25*%
X155475000Y-35595000D02*
X155475000Y-37880000D01*
X154005000Y-35595000D02*
X155475000Y-35595000D01*
X154005000Y-37880000D02*
X154005000Y-35595000D01*
%TO.C,D24*%
X136425000Y-35595000D02*
X136425000Y-37880000D01*
X134955000Y-35595000D02*
X136425000Y-35595000D01*
X134955000Y-37880000D02*
X134955000Y-35595000D01*
%TO.C,D23*%
X117375000Y-35595000D02*
X117375000Y-37880000D01*
X115905000Y-35595000D02*
X117375000Y-35595000D01*
X115905000Y-37880000D02*
X115905000Y-35595000D01*
%TO.C,D22*%
X98325000Y-35595000D02*
X98325000Y-37880000D01*
X96855000Y-35595000D02*
X98325000Y-35595000D01*
X96855000Y-37880000D02*
X96855000Y-35595000D01*
%TO.C,D21*%
X79275000Y-35595000D02*
X79275000Y-37880000D01*
X77805000Y-35595000D02*
X79275000Y-35595000D01*
X77805000Y-37880000D02*
X77805000Y-35595000D01*
%TO.C,D20*%
X60225000Y-35595000D02*
X60225000Y-37880000D01*
X58755000Y-35595000D02*
X60225000Y-35595000D01*
X58755000Y-37880000D02*
X58755000Y-35595000D01*
%TO.C,D19*%
X33225000Y-37605000D02*
X33225000Y-39890000D01*
X31755000Y-37605000D02*
X33225000Y-37605000D01*
X31755000Y-39890000D02*
X31755000Y-37605000D01*
%TO.C,D18*%
X289079000Y-35140000D02*
X289079000Y-32855000D01*
X290549000Y-35140000D02*
X289079000Y-35140000D01*
X290549000Y-32855000D02*
X290549000Y-35140000D01*
%TO.C,D16*%
X280316000Y-35140000D02*
X280316000Y-32855000D01*
X281786000Y-35140000D02*
X280316000Y-35140000D01*
X281786000Y-32855000D02*
X281786000Y-35140000D01*
%TO.C,D15*%
X258726000Y-35140000D02*
X258726000Y-32855000D01*
X260196000Y-35140000D02*
X258726000Y-35140000D01*
X260196000Y-32855000D02*
X260196000Y-35140000D01*
%TO.C,D14*%
X239676000Y-35140000D02*
X239676000Y-32855000D01*
X241146000Y-35140000D02*
X239676000Y-35140000D01*
X241146000Y-32855000D02*
X241146000Y-35140000D01*
%TO.C,D13*%
X220626000Y-35140000D02*
X220626000Y-32855000D01*
X222096000Y-35140000D02*
X220626000Y-35140000D01*
X222096000Y-32855000D02*
X222096000Y-35140000D01*
%TO.C,D12*%
X201576000Y-35140000D02*
X201576000Y-32855000D01*
X203046000Y-35140000D02*
X201576000Y-35140000D01*
X203046000Y-32855000D02*
X203046000Y-35140000D01*
%TO.C,D11*%
X182526000Y-35140000D02*
X182526000Y-32855000D01*
X183996000Y-35140000D02*
X182526000Y-35140000D01*
X183996000Y-32855000D02*
X183996000Y-35140000D01*
%TO.C,D10*%
X163476000Y-35140000D02*
X163476000Y-32855000D01*
X164946000Y-35140000D02*
X163476000Y-35140000D01*
X164946000Y-32855000D02*
X164946000Y-35140000D01*
%TO.C,D9*%
X144426000Y-35140000D02*
X144426000Y-32855000D01*
X145896000Y-35140000D02*
X144426000Y-35140000D01*
X145896000Y-32855000D02*
X145896000Y-35140000D01*
%TO.C,D8*%
X125376000Y-35140000D02*
X125376000Y-32855000D01*
X126846000Y-35140000D02*
X125376000Y-35140000D01*
X126846000Y-32855000D02*
X126846000Y-35140000D01*
%TO.C,D7*%
X106326000Y-35140000D02*
X106326000Y-32855000D01*
X107796000Y-35140000D02*
X106326000Y-35140000D01*
X107796000Y-32855000D02*
X107796000Y-35140000D01*
%TO.C,D6*%
X87276000Y-35140000D02*
X87276000Y-32855000D01*
X88746000Y-35140000D02*
X87276000Y-35140000D01*
X88746000Y-32855000D02*
X88746000Y-35140000D01*
%TO.C,D5*%
X68226000Y-35140000D02*
X68226000Y-32855000D01*
X69696000Y-35140000D02*
X68226000Y-35140000D01*
X69696000Y-32855000D02*
X69696000Y-35140000D01*
%TO.C,D4*%
X49176000Y-35140000D02*
X49176000Y-32855000D01*
X50646000Y-35140000D02*
X49176000Y-35140000D01*
X50646000Y-32855000D02*
X50646000Y-35140000D01*
%TO.C,D3*%
X30126000Y-35140000D02*
X30126000Y-32855000D01*
X31596000Y-35140000D02*
X30126000Y-35140000D01*
X31596000Y-32855000D02*
X31596000Y-35140000D01*
%TO.C,R7*%
X205042742Y-104182500D02*
X205517258Y-104182500D01*
X205042742Y-103137500D02*
X205517258Y-103137500D01*
%TO.C,R6*%
X205537258Y-104857500D02*
X205062742Y-104857500D01*
X205537258Y-105902500D02*
X205062742Y-105902500D01*
%TO.C,R5*%
X33640500Y-30560742D02*
X33640500Y-31035258D01*
X34685500Y-30560742D02*
X34685500Y-31035258D01*
%TO.C,R4*%
X41133500Y-30496742D02*
X41133500Y-30971258D01*
X42178500Y-30496742D02*
X42178500Y-30971258D01*
%TO.C,R3*%
X134380500Y-96884258D02*
X134380500Y-96409742D01*
X133335500Y-96884258D02*
X133335500Y-96409742D01*
%TO.C,R2*%
X154163500Y-93742742D02*
X154163500Y-94217258D01*
X155208500Y-93742742D02*
X155208500Y-94217258D01*
%TO.C,R1*%
X147463742Y-100725500D02*
X147938258Y-100725500D01*
X147463742Y-99680500D02*
X147938258Y-99680500D01*
%TO.C,U4*%
X36236000Y-31507000D02*
X36236000Y-29707000D01*
X39456000Y-29707000D02*
X39456000Y-32157000D01*
%TO.C,U3*%
X207170039Y-98485010D02*
X206462932Y-97777903D01*
X207170039Y-98485010D02*
X206462932Y-99192117D01*
X197624097Y-88939068D02*
X196916990Y-88231961D01*
X196916990Y-88231961D02*
X196209883Y-88939068D01*
X194442117Y-111212932D02*
X193735010Y-111920039D01*
X184189068Y-100959883D02*
X183481961Y-101666990D01*
X184189068Y-102374097D02*
X183481961Y-101666990D01*
X193027903Y-111212932D02*
X193735010Y-111920039D01*
%TO.C,U2*%
X141362000Y-98765000D02*
X139562000Y-98765000D01*
X139562000Y-95545000D02*
X142012000Y-95545000D01*
%TO.C,U1*%
X149901000Y-98055000D02*
X149901000Y-96255000D01*
X153121000Y-96255000D02*
X153121000Y-98705000D01*
%TO.C,Q1*%
X142169000Y-101979000D02*
X141239000Y-101979000D01*
X139009000Y-101979000D02*
X139939000Y-101979000D01*
X139009000Y-101979000D02*
X139009000Y-99819000D01*
X142169000Y-101979000D02*
X142169000Y-100519000D01*
%TO.C,J1*%
X32892000Y-17558000D02*
X32892000Y-15658000D01*
X32892000Y-21458000D02*
X32892000Y-19458000D01*
X42292000Y-17558000D02*
X42292000Y-15658000D01*
X42292000Y-21458000D02*
X42292000Y-19458000D01*
X32892000Y-15658000D02*
X42292000Y-15658000D01*
%TO.C,D2*%
X137759000Y-98949000D02*
X137759000Y-100949000D01*
X137759000Y-100949000D02*
X133859000Y-100949000D01*
X137759000Y-98949000D02*
X133859000Y-98949000D01*
%TO.C,D1*%
X148534000Y-96028000D02*
X148534000Y-98713000D01*
X148534000Y-98713000D02*
X146614000Y-98713000D01*
X146614000Y-98713000D02*
X146614000Y-96028000D01*
%TO.C,C1*%
X145515000Y-97289252D02*
X145515000Y-96766748D01*
X144045000Y-97289252D02*
X144045000Y-96766748D01*
%TO.C,D28*%
D10*
X210912380Y-35865714D02*
X209912380Y-35865714D01*
X209912380Y-36103809D01*
X209960000Y-36246666D01*
X210055238Y-36341904D01*
X210150476Y-36389523D01*
X210340952Y-36437142D01*
X210483809Y-36437142D01*
X210674285Y-36389523D01*
X210769523Y-36341904D01*
X210864761Y-36246666D01*
X210912380Y-36103809D01*
X210912380Y-35865714D01*
X210007619Y-36818095D02*
X209960000Y-36865714D01*
X209912380Y-36960952D01*
X209912380Y-37199047D01*
X209960000Y-37294285D01*
X210007619Y-37341904D01*
X210102857Y-37389523D01*
X210198095Y-37389523D01*
X210340952Y-37341904D01*
X210912380Y-36770476D01*
X210912380Y-37389523D01*
X210340952Y-37960952D02*
X210293333Y-37865714D01*
X210245714Y-37818095D01*
X210150476Y-37770476D01*
X210102857Y-37770476D01*
X210007619Y-37818095D01*
X209960000Y-37865714D01*
X209912380Y-37960952D01*
X209912380Y-38151428D01*
X209960000Y-38246666D01*
X210007619Y-38294285D01*
X210102857Y-38341904D01*
X210150476Y-38341904D01*
X210245714Y-38294285D01*
X210293333Y-38246666D01*
X210340952Y-38151428D01*
X210340952Y-37960952D01*
X210388571Y-37865714D01*
X210436190Y-37818095D01*
X210531428Y-37770476D01*
X210721904Y-37770476D01*
X210817142Y-37818095D01*
X210864761Y-37865714D01*
X210912380Y-37960952D01*
X210912380Y-38151428D01*
X210864761Y-38246666D01*
X210817142Y-38294285D01*
X210721904Y-38341904D01*
X210531428Y-38341904D01*
X210436190Y-38294285D01*
X210388571Y-38246666D01*
X210340952Y-38151428D01*
%TO.C,Reset1*%
X180844285Y-111922380D02*
X181177619Y-111446190D01*
X181415714Y-111922380D02*
X181415714Y-110922380D01*
X181034761Y-110922380D01*
X180939523Y-110970000D01*
X180891904Y-111017619D01*
X180844285Y-111112857D01*
X180844285Y-111255714D01*
X180891904Y-111350952D01*
X180939523Y-111398571D01*
X181034761Y-111446190D01*
X181415714Y-111446190D01*
X180034761Y-111874761D02*
X180130000Y-111922380D01*
X180320476Y-111922380D01*
X180415714Y-111874761D01*
X180463333Y-111779523D01*
X180463333Y-111398571D01*
X180415714Y-111303333D01*
X180320476Y-111255714D01*
X180130000Y-111255714D01*
X180034761Y-111303333D01*
X179987142Y-111398571D01*
X179987142Y-111493809D01*
X180463333Y-111589047D01*
X179606190Y-111874761D02*
X179510952Y-111922380D01*
X179320476Y-111922380D01*
X179225238Y-111874761D01*
X179177619Y-111779523D01*
X179177619Y-111731904D01*
X179225238Y-111636666D01*
X179320476Y-111589047D01*
X179463333Y-111589047D01*
X179558571Y-111541428D01*
X179606190Y-111446190D01*
X179606190Y-111398571D01*
X179558571Y-111303333D01*
X179463333Y-111255714D01*
X179320476Y-111255714D01*
X179225238Y-111303333D01*
X178368095Y-111874761D02*
X178463333Y-111922380D01*
X178653809Y-111922380D01*
X178749047Y-111874761D01*
X178796666Y-111779523D01*
X178796666Y-111398571D01*
X178749047Y-111303333D01*
X178653809Y-111255714D01*
X178463333Y-111255714D01*
X178368095Y-111303333D01*
X178320476Y-111398571D01*
X178320476Y-111493809D01*
X178796666Y-111589047D01*
X178034761Y-111255714D02*
X177653809Y-111255714D01*
X177891904Y-110922380D02*
X177891904Y-111779523D01*
X177844285Y-111874761D01*
X177749047Y-111922380D01*
X177653809Y-111922380D01*
X176796666Y-111922380D02*
X177368095Y-111922380D01*
X177082380Y-111922380D02*
X177082380Y-110922380D01*
X177177619Y-111065238D01*
X177272857Y-111160476D01*
X177368095Y-111208095D01*
%TO.C,D71*%
X294744380Y-107497714D02*
X293744380Y-107497714D01*
X293744380Y-107735809D01*
X293792000Y-107878666D01*
X293887238Y-107973904D01*
X293982476Y-108021523D01*
X294172952Y-108069142D01*
X294315809Y-108069142D01*
X294506285Y-108021523D01*
X294601523Y-107973904D01*
X294696761Y-107878666D01*
X294744380Y-107735809D01*
X294744380Y-107497714D01*
X293744380Y-108402476D02*
X293744380Y-109069142D01*
X294744380Y-108640571D01*
X294744380Y-109973904D02*
X294744380Y-109402476D01*
X294744380Y-109688190D02*
X293744380Y-109688190D01*
X293887238Y-109592952D01*
X293982476Y-109497714D01*
X294030095Y-109402476D01*
%TO.C,D70*%
X270868380Y-107624714D02*
X269868380Y-107624714D01*
X269868380Y-107862809D01*
X269916000Y-108005666D01*
X270011238Y-108100904D01*
X270106476Y-108148523D01*
X270296952Y-108196142D01*
X270439809Y-108196142D01*
X270630285Y-108148523D01*
X270725523Y-108100904D01*
X270820761Y-108005666D01*
X270868380Y-107862809D01*
X270868380Y-107624714D01*
X269868380Y-108529476D02*
X269868380Y-109196142D01*
X270868380Y-108767571D01*
X269868380Y-109767571D02*
X269868380Y-109862809D01*
X269916000Y-109958047D01*
X269963619Y-110005666D01*
X270058857Y-110053285D01*
X270249333Y-110100904D01*
X270487428Y-110100904D01*
X270677904Y-110053285D01*
X270773142Y-110005666D01*
X270820761Y-109958047D01*
X270868380Y-109862809D01*
X270868380Y-109767571D01*
X270820761Y-109672333D01*
X270773142Y-109624714D01*
X270677904Y-109577095D01*
X270487428Y-109529476D01*
X270249333Y-109529476D01*
X270058857Y-109577095D01*
X269963619Y-109624714D01*
X269916000Y-109672333D01*
X269868380Y-109767571D01*
%TO.C,D69*%
X246992380Y-107751714D02*
X245992380Y-107751714D01*
X245992380Y-107989809D01*
X246040000Y-108132666D01*
X246135238Y-108227904D01*
X246230476Y-108275523D01*
X246420952Y-108323142D01*
X246563809Y-108323142D01*
X246754285Y-108275523D01*
X246849523Y-108227904D01*
X246944761Y-108132666D01*
X246992380Y-107989809D01*
X246992380Y-107751714D01*
X245992380Y-109180285D02*
X245992380Y-108989809D01*
X246040000Y-108894571D01*
X246087619Y-108846952D01*
X246230476Y-108751714D01*
X246420952Y-108704095D01*
X246801904Y-108704095D01*
X246897142Y-108751714D01*
X246944761Y-108799333D01*
X246992380Y-108894571D01*
X246992380Y-109085047D01*
X246944761Y-109180285D01*
X246897142Y-109227904D01*
X246801904Y-109275523D01*
X246563809Y-109275523D01*
X246468571Y-109227904D01*
X246420952Y-109180285D01*
X246373333Y-109085047D01*
X246373333Y-108894571D01*
X246420952Y-108799333D01*
X246468571Y-108751714D01*
X246563809Y-108704095D01*
X246992380Y-109751714D02*
X246992380Y-109942190D01*
X246944761Y-110037428D01*
X246897142Y-110085047D01*
X246754285Y-110180285D01*
X246563809Y-110227904D01*
X246182857Y-110227904D01*
X246087619Y-110180285D01*
X246040000Y-110132666D01*
X245992380Y-110037428D01*
X245992380Y-109846952D01*
X246040000Y-109751714D01*
X246087619Y-109704095D01*
X246182857Y-109656476D01*
X246420952Y-109656476D01*
X246516190Y-109704095D01*
X246563809Y-109751714D01*
X246611428Y-109846952D01*
X246611428Y-110037428D01*
X246563809Y-110132666D01*
X246516190Y-110180285D01*
X246420952Y-110227904D01*
%TO.C,D68*%
X166093380Y-107751714D02*
X165093380Y-107751714D01*
X165093380Y-107989809D01*
X165141000Y-108132666D01*
X165236238Y-108227904D01*
X165331476Y-108275523D01*
X165521952Y-108323142D01*
X165664809Y-108323142D01*
X165855285Y-108275523D01*
X165950523Y-108227904D01*
X166045761Y-108132666D01*
X166093380Y-107989809D01*
X166093380Y-107751714D01*
X165093380Y-109180285D02*
X165093380Y-108989809D01*
X165141000Y-108894571D01*
X165188619Y-108846952D01*
X165331476Y-108751714D01*
X165521952Y-108704095D01*
X165902904Y-108704095D01*
X165998142Y-108751714D01*
X166045761Y-108799333D01*
X166093380Y-108894571D01*
X166093380Y-109085047D01*
X166045761Y-109180285D01*
X165998142Y-109227904D01*
X165902904Y-109275523D01*
X165664809Y-109275523D01*
X165569571Y-109227904D01*
X165521952Y-109180285D01*
X165474333Y-109085047D01*
X165474333Y-108894571D01*
X165521952Y-108799333D01*
X165569571Y-108751714D01*
X165664809Y-108704095D01*
X165521952Y-109846952D02*
X165474333Y-109751714D01*
X165426714Y-109704095D01*
X165331476Y-109656476D01*
X165283857Y-109656476D01*
X165188619Y-109704095D01*
X165141000Y-109751714D01*
X165093380Y-109846952D01*
X165093380Y-110037428D01*
X165141000Y-110132666D01*
X165188619Y-110180285D01*
X165283857Y-110227904D01*
X165331476Y-110227904D01*
X165426714Y-110180285D01*
X165474333Y-110132666D01*
X165521952Y-110037428D01*
X165521952Y-109846952D01*
X165569571Y-109751714D01*
X165617190Y-109704095D01*
X165712428Y-109656476D01*
X165902904Y-109656476D01*
X165998142Y-109704095D01*
X166045761Y-109751714D01*
X166093380Y-109846952D01*
X166093380Y-110037428D01*
X166045761Y-110132666D01*
X165998142Y-110180285D01*
X165902904Y-110227904D01*
X165712428Y-110227904D01*
X165617190Y-110180285D01*
X165569571Y-110132666D01*
X165521952Y-110037428D01*
%TO.C,D67*%
X85194380Y-107751714D02*
X84194380Y-107751714D01*
X84194380Y-107989809D01*
X84242000Y-108132666D01*
X84337238Y-108227904D01*
X84432476Y-108275523D01*
X84622952Y-108323142D01*
X84765809Y-108323142D01*
X84956285Y-108275523D01*
X85051523Y-108227904D01*
X85146761Y-108132666D01*
X85194380Y-107989809D01*
X85194380Y-107751714D01*
X84194380Y-109180285D02*
X84194380Y-108989809D01*
X84242000Y-108894571D01*
X84289619Y-108846952D01*
X84432476Y-108751714D01*
X84622952Y-108704095D01*
X85003904Y-108704095D01*
X85099142Y-108751714D01*
X85146761Y-108799333D01*
X85194380Y-108894571D01*
X85194380Y-109085047D01*
X85146761Y-109180285D01*
X85099142Y-109227904D01*
X85003904Y-109275523D01*
X84765809Y-109275523D01*
X84670571Y-109227904D01*
X84622952Y-109180285D01*
X84575333Y-109085047D01*
X84575333Y-108894571D01*
X84622952Y-108799333D01*
X84670571Y-108751714D01*
X84765809Y-108704095D01*
X84194380Y-109608857D02*
X84194380Y-110275523D01*
X85194380Y-109846952D01*
%TO.C,D66*%
X61318380Y-107751714D02*
X60318380Y-107751714D01*
X60318380Y-107989809D01*
X60366000Y-108132666D01*
X60461238Y-108227904D01*
X60556476Y-108275523D01*
X60746952Y-108323142D01*
X60889809Y-108323142D01*
X61080285Y-108275523D01*
X61175523Y-108227904D01*
X61270761Y-108132666D01*
X61318380Y-107989809D01*
X61318380Y-107751714D01*
X60318380Y-109180285D02*
X60318380Y-108989809D01*
X60366000Y-108894571D01*
X60413619Y-108846952D01*
X60556476Y-108751714D01*
X60746952Y-108704095D01*
X61127904Y-108704095D01*
X61223142Y-108751714D01*
X61270761Y-108799333D01*
X61318380Y-108894571D01*
X61318380Y-109085047D01*
X61270761Y-109180285D01*
X61223142Y-109227904D01*
X61127904Y-109275523D01*
X60889809Y-109275523D01*
X60794571Y-109227904D01*
X60746952Y-109180285D01*
X60699333Y-109085047D01*
X60699333Y-108894571D01*
X60746952Y-108799333D01*
X60794571Y-108751714D01*
X60889809Y-108704095D01*
X60318380Y-110132666D02*
X60318380Y-109942190D01*
X60366000Y-109846952D01*
X60413619Y-109799333D01*
X60556476Y-109704095D01*
X60746952Y-109656476D01*
X61127904Y-109656476D01*
X61223142Y-109704095D01*
X61270761Y-109751714D01*
X61318380Y-109846952D01*
X61318380Y-110037428D01*
X61270761Y-110132666D01*
X61223142Y-110180285D01*
X61127904Y-110227904D01*
X60889809Y-110227904D01*
X60794571Y-110180285D01*
X60746952Y-110132666D01*
X60699333Y-110037428D01*
X60699333Y-109846952D01*
X60746952Y-109751714D01*
X60794571Y-109704095D01*
X60889809Y-109656476D01*
%TO.C,D65*%
X37442380Y-107751714D02*
X36442380Y-107751714D01*
X36442380Y-107989809D01*
X36490000Y-108132666D01*
X36585238Y-108227904D01*
X36680476Y-108275523D01*
X36870952Y-108323142D01*
X37013809Y-108323142D01*
X37204285Y-108275523D01*
X37299523Y-108227904D01*
X37394761Y-108132666D01*
X37442380Y-107989809D01*
X37442380Y-107751714D01*
X36442380Y-109180285D02*
X36442380Y-108989809D01*
X36490000Y-108894571D01*
X36537619Y-108846952D01*
X36680476Y-108751714D01*
X36870952Y-108704095D01*
X37251904Y-108704095D01*
X37347142Y-108751714D01*
X37394761Y-108799333D01*
X37442380Y-108894571D01*
X37442380Y-109085047D01*
X37394761Y-109180285D01*
X37347142Y-109227904D01*
X37251904Y-109275523D01*
X37013809Y-109275523D01*
X36918571Y-109227904D01*
X36870952Y-109180285D01*
X36823333Y-109085047D01*
X36823333Y-108894571D01*
X36870952Y-108799333D01*
X36918571Y-108751714D01*
X37013809Y-108704095D01*
X36442380Y-110180285D02*
X36442380Y-109704095D01*
X36918571Y-109656476D01*
X36870952Y-109704095D01*
X36823333Y-109799333D01*
X36823333Y-110037428D01*
X36870952Y-110132666D01*
X36918571Y-110180285D01*
X37013809Y-110227904D01*
X37251904Y-110227904D01*
X37347142Y-110180285D01*
X37394761Y-110132666D01*
X37442380Y-110037428D01*
X37442380Y-109799333D01*
X37394761Y-109704095D01*
X37347142Y-109656476D01*
%TO.C,D64*%
X299570380Y-89590714D02*
X298570380Y-89590714D01*
X298570380Y-89828809D01*
X298618000Y-89971666D01*
X298713238Y-90066904D01*
X298808476Y-90114523D01*
X298998952Y-90162142D01*
X299141809Y-90162142D01*
X299332285Y-90114523D01*
X299427523Y-90066904D01*
X299522761Y-89971666D01*
X299570380Y-89828809D01*
X299570380Y-89590714D01*
X298570380Y-91019285D02*
X298570380Y-90828809D01*
X298618000Y-90733571D01*
X298665619Y-90685952D01*
X298808476Y-90590714D01*
X298998952Y-90543095D01*
X299379904Y-90543095D01*
X299475142Y-90590714D01*
X299522761Y-90638333D01*
X299570380Y-90733571D01*
X299570380Y-90924047D01*
X299522761Y-91019285D01*
X299475142Y-91066904D01*
X299379904Y-91114523D01*
X299141809Y-91114523D01*
X299046571Y-91066904D01*
X298998952Y-91019285D01*
X298951333Y-90924047D01*
X298951333Y-90733571D01*
X298998952Y-90638333D01*
X299046571Y-90590714D01*
X299141809Y-90543095D01*
X298903714Y-91971666D02*
X299570380Y-91971666D01*
X298522761Y-91733571D02*
X299237047Y-91495476D01*
X299237047Y-92114523D01*
%TO.C,D62*%
X261724380Y-89590714D02*
X260724380Y-89590714D01*
X260724380Y-89828809D01*
X260772000Y-89971666D01*
X260867238Y-90066904D01*
X260962476Y-90114523D01*
X261152952Y-90162142D01*
X261295809Y-90162142D01*
X261486285Y-90114523D01*
X261581523Y-90066904D01*
X261676761Y-89971666D01*
X261724380Y-89828809D01*
X261724380Y-89590714D01*
X260724380Y-91019285D02*
X260724380Y-90828809D01*
X260772000Y-90733571D01*
X260819619Y-90685952D01*
X260962476Y-90590714D01*
X261152952Y-90543095D01*
X261533904Y-90543095D01*
X261629142Y-90590714D01*
X261676761Y-90638333D01*
X261724380Y-90733571D01*
X261724380Y-90924047D01*
X261676761Y-91019285D01*
X261629142Y-91066904D01*
X261533904Y-91114523D01*
X261295809Y-91114523D01*
X261200571Y-91066904D01*
X261152952Y-91019285D01*
X261105333Y-90924047D01*
X261105333Y-90733571D01*
X261152952Y-90638333D01*
X261200571Y-90590714D01*
X261295809Y-90543095D01*
X260819619Y-91495476D02*
X260772000Y-91543095D01*
X260724380Y-91638333D01*
X260724380Y-91876428D01*
X260772000Y-91971666D01*
X260819619Y-92019285D01*
X260914857Y-92066904D01*
X261010095Y-92066904D01*
X261152952Y-92019285D01*
X261724380Y-91447857D01*
X261724380Y-92066904D01*
%TO.C,D61*%
X246992380Y-89590714D02*
X245992380Y-89590714D01*
X245992380Y-89828809D01*
X246040000Y-89971666D01*
X246135238Y-90066904D01*
X246230476Y-90114523D01*
X246420952Y-90162142D01*
X246563809Y-90162142D01*
X246754285Y-90114523D01*
X246849523Y-90066904D01*
X246944761Y-89971666D01*
X246992380Y-89828809D01*
X246992380Y-89590714D01*
X245992380Y-91019285D02*
X245992380Y-90828809D01*
X246040000Y-90733571D01*
X246087619Y-90685952D01*
X246230476Y-90590714D01*
X246420952Y-90543095D01*
X246801904Y-90543095D01*
X246897142Y-90590714D01*
X246944761Y-90638333D01*
X246992380Y-90733571D01*
X246992380Y-90924047D01*
X246944761Y-91019285D01*
X246897142Y-91066904D01*
X246801904Y-91114523D01*
X246563809Y-91114523D01*
X246468571Y-91066904D01*
X246420952Y-91019285D01*
X246373333Y-90924047D01*
X246373333Y-90733571D01*
X246420952Y-90638333D01*
X246468571Y-90590714D01*
X246563809Y-90543095D01*
X246992380Y-92066904D02*
X246992380Y-91495476D01*
X246992380Y-91781190D02*
X245992380Y-91781190D01*
X246135238Y-91685952D01*
X246230476Y-91590714D01*
X246278095Y-91495476D01*
%TO.C,D60*%
X227942380Y-89590714D02*
X226942380Y-89590714D01*
X226942380Y-89828809D01*
X226990000Y-89971666D01*
X227085238Y-90066904D01*
X227180476Y-90114523D01*
X227370952Y-90162142D01*
X227513809Y-90162142D01*
X227704285Y-90114523D01*
X227799523Y-90066904D01*
X227894761Y-89971666D01*
X227942380Y-89828809D01*
X227942380Y-89590714D01*
X226942380Y-91019285D02*
X226942380Y-90828809D01*
X226990000Y-90733571D01*
X227037619Y-90685952D01*
X227180476Y-90590714D01*
X227370952Y-90543095D01*
X227751904Y-90543095D01*
X227847142Y-90590714D01*
X227894761Y-90638333D01*
X227942380Y-90733571D01*
X227942380Y-90924047D01*
X227894761Y-91019285D01*
X227847142Y-91066904D01*
X227751904Y-91114523D01*
X227513809Y-91114523D01*
X227418571Y-91066904D01*
X227370952Y-91019285D01*
X227323333Y-90924047D01*
X227323333Y-90733571D01*
X227370952Y-90638333D01*
X227418571Y-90590714D01*
X227513809Y-90543095D01*
X226942380Y-91733571D02*
X226942380Y-91828809D01*
X226990000Y-91924047D01*
X227037619Y-91971666D01*
X227132857Y-92019285D01*
X227323333Y-92066904D01*
X227561428Y-92066904D01*
X227751904Y-92019285D01*
X227847142Y-91971666D01*
X227894761Y-91924047D01*
X227942380Y-91828809D01*
X227942380Y-91733571D01*
X227894761Y-91638333D01*
X227847142Y-91590714D01*
X227751904Y-91543095D01*
X227561428Y-91495476D01*
X227323333Y-91495476D01*
X227132857Y-91543095D01*
X227037619Y-91590714D01*
X226990000Y-91638333D01*
X226942380Y-91733571D01*
%TO.C,D59*%
X206072380Y-74495714D02*
X205072380Y-74495714D01*
X205072380Y-74733809D01*
X205120000Y-74876666D01*
X205215238Y-74971904D01*
X205310476Y-75019523D01*
X205500952Y-75067142D01*
X205643809Y-75067142D01*
X205834285Y-75019523D01*
X205929523Y-74971904D01*
X206024761Y-74876666D01*
X206072380Y-74733809D01*
X206072380Y-74495714D01*
X205072380Y-75971904D02*
X205072380Y-75495714D01*
X205548571Y-75448095D01*
X205500952Y-75495714D01*
X205453333Y-75590952D01*
X205453333Y-75829047D01*
X205500952Y-75924285D01*
X205548571Y-75971904D01*
X205643809Y-76019523D01*
X205881904Y-76019523D01*
X205977142Y-75971904D01*
X206024761Y-75924285D01*
X206072380Y-75829047D01*
X206072380Y-75590952D01*
X206024761Y-75495714D01*
X205977142Y-75448095D01*
X206072380Y-76495714D02*
X206072380Y-76686190D01*
X206024761Y-76781428D01*
X205977142Y-76829047D01*
X205834285Y-76924285D01*
X205643809Y-76971904D01*
X205262857Y-76971904D01*
X205167619Y-76924285D01*
X205120000Y-76876666D01*
X205072380Y-76781428D01*
X205072380Y-76590952D01*
X205120000Y-76495714D01*
X205167619Y-76448095D01*
X205262857Y-76400476D01*
X205500952Y-76400476D01*
X205596190Y-76448095D01*
X205643809Y-76495714D01*
X205691428Y-76590952D01*
X205691428Y-76781428D01*
X205643809Y-76876666D01*
X205596190Y-76924285D01*
X205500952Y-76971904D01*
%TO.C,D58*%
X189842380Y-89590714D02*
X188842380Y-89590714D01*
X188842380Y-89828809D01*
X188890000Y-89971666D01*
X188985238Y-90066904D01*
X189080476Y-90114523D01*
X189270952Y-90162142D01*
X189413809Y-90162142D01*
X189604285Y-90114523D01*
X189699523Y-90066904D01*
X189794761Y-89971666D01*
X189842380Y-89828809D01*
X189842380Y-89590714D01*
X188842380Y-91066904D02*
X188842380Y-90590714D01*
X189318571Y-90543095D01*
X189270952Y-90590714D01*
X189223333Y-90685952D01*
X189223333Y-90924047D01*
X189270952Y-91019285D01*
X189318571Y-91066904D01*
X189413809Y-91114523D01*
X189651904Y-91114523D01*
X189747142Y-91066904D01*
X189794761Y-91019285D01*
X189842380Y-90924047D01*
X189842380Y-90685952D01*
X189794761Y-90590714D01*
X189747142Y-90543095D01*
X189270952Y-91685952D02*
X189223333Y-91590714D01*
X189175714Y-91543095D01*
X189080476Y-91495476D01*
X189032857Y-91495476D01*
X188937619Y-91543095D01*
X188890000Y-91590714D01*
X188842380Y-91685952D01*
X188842380Y-91876428D01*
X188890000Y-91971666D01*
X188937619Y-92019285D01*
X189032857Y-92066904D01*
X189080476Y-92066904D01*
X189175714Y-92019285D01*
X189223333Y-91971666D01*
X189270952Y-91876428D01*
X189270952Y-91685952D01*
X189318571Y-91590714D01*
X189366190Y-91543095D01*
X189461428Y-91495476D01*
X189651904Y-91495476D01*
X189747142Y-91543095D01*
X189794761Y-91590714D01*
X189842380Y-91685952D01*
X189842380Y-91876428D01*
X189794761Y-91971666D01*
X189747142Y-92019285D01*
X189651904Y-92066904D01*
X189461428Y-92066904D01*
X189366190Y-92019285D01*
X189318571Y-91971666D01*
X189270952Y-91876428D01*
%TO.C,D57*%
X170792380Y-89590714D02*
X169792380Y-89590714D01*
X169792380Y-89828809D01*
X169840000Y-89971666D01*
X169935238Y-90066904D01*
X170030476Y-90114523D01*
X170220952Y-90162142D01*
X170363809Y-90162142D01*
X170554285Y-90114523D01*
X170649523Y-90066904D01*
X170744761Y-89971666D01*
X170792380Y-89828809D01*
X170792380Y-89590714D01*
X169792380Y-91066904D02*
X169792380Y-90590714D01*
X170268571Y-90543095D01*
X170220952Y-90590714D01*
X170173333Y-90685952D01*
X170173333Y-90924047D01*
X170220952Y-91019285D01*
X170268571Y-91066904D01*
X170363809Y-91114523D01*
X170601904Y-91114523D01*
X170697142Y-91066904D01*
X170744761Y-91019285D01*
X170792380Y-90924047D01*
X170792380Y-90685952D01*
X170744761Y-90590714D01*
X170697142Y-90543095D01*
X169792380Y-91447857D02*
X169792380Y-92114523D01*
X170792380Y-91685952D01*
%TO.C,D56*%
X151742380Y-89590714D02*
X150742380Y-89590714D01*
X150742380Y-89828809D01*
X150790000Y-89971666D01*
X150885238Y-90066904D01*
X150980476Y-90114523D01*
X151170952Y-90162142D01*
X151313809Y-90162142D01*
X151504285Y-90114523D01*
X151599523Y-90066904D01*
X151694761Y-89971666D01*
X151742380Y-89828809D01*
X151742380Y-89590714D01*
X150742380Y-91066904D02*
X150742380Y-90590714D01*
X151218571Y-90543095D01*
X151170952Y-90590714D01*
X151123333Y-90685952D01*
X151123333Y-90924047D01*
X151170952Y-91019285D01*
X151218571Y-91066904D01*
X151313809Y-91114523D01*
X151551904Y-91114523D01*
X151647142Y-91066904D01*
X151694761Y-91019285D01*
X151742380Y-90924047D01*
X151742380Y-90685952D01*
X151694761Y-90590714D01*
X151647142Y-90543095D01*
X150742380Y-91971666D02*
X150742380Y-91781190D01*
X150790000Y-91685952D01*
X150837619Y-91638333D01*
X150980476Y-91543095D01*
X151170952Y-91495476D01*
X151551904Y-91495476D01*
X151647142Y-91543095D01*
X151694761Y-91590714D01*
X151742380Y-91685952D01*
X151742380Y-91876428D01*
X151694761Y-91971666D01*
X151647142Y-92019285D01*
X151551904Y-92066904D01*
X151313809Y-92066904D01*
X151218571Y-92019285D01*
X151170952Y-91971666D01*
X151123333Y-91876428D01*
X151123333Y-91685952D01*
X151170952Y-91590714D01*
X151218571Y-91543095D01*
X151313809Y-91495476D01*
%TO.C,D55*%
X132692380Y-89590714D02*
X131692380Y-89590714D01*
X131692380Y-89828809D01*
X131740000Y-89971666D01*
X131835238Y-90066904D01*
X131930476Y-90114523D01*
X132120952Y-90162142D01*
X132263809Y-90162142D01*
X132454285Y-90114523D01*
X132549523Y-90066904D01*
X132644761Y-89971666D01*
X132692380Y-89828809D01*
X132692380Y-89590714D01*
X131692380Y-91066904D02*
X131692380Y-90590714D01*
X132168571Y-90543095D01*
X132120952Y-90590714D01*
X132073333Y-90685952D01*
X132073333Y-90924047D01*
X132120952Y-91019285D01*
X132168571Y-91066904D01*
X132263809Y-91114523D01*
X132501904Y-91114523D01*
X132597142Y-91066904D01*
X132644761Y-91019285D01*
X132692380Y-90924047D01*
X132692380Y-90685952D01*
X132644761Y-90590714D01*
X132597142Y-90543095D01*
X131692380Y-92019285D02*
X131692380Y-91543095D01*
X132168571Y-91495476D01*
X132120952Y-91543095D01*
X132073333Y-91638333D01*
X132073333Y-91876428D01*
X132120952Y-91971666D01*
X132168571Y-92019285D01*
X132263809Y-92066904D01*
X132501904Y-92066904D01*
X132597142Y-92019285D01*
X132644761Y-91971666D01*
X132692380Y-91876428D01*
X132692380Y-91638333D01*
X132644761Y-91543095D01*
X132597142Y-91495476D01*
%TO.C,D54*%
X113642380Y-89590714D02*
X112642380Y-89590714D01*
X112642380Y-89828809D01*
X112690000Y-89971666D01*
X112785238Y-90066904D01*
X112880476Y-90114523D01*
X113070952Y-90162142D01*
X113213809Y-90162142D01*
X113404285Y-90114523D01*
X113499523Y-90066904D01*
X113594761Y-89971666D01*
X113642380Y-89828809D01*
X113642380Y-89590714D01*
X112642380Y-91066904D02*
X112642380Y-90590714D01*
X113118571Y-90543095D01*
X113070952Y-90590714D01*
X113023333Y-90685952D01*
X113023333Y-90924047D01*
X113070952Y-91019285D01*
X113118571Y-91066904D01*
X113213809Y-91114523D01*
X113451904Y-91114523D01*
X113547142Y-91066904D01*
X113594761Y-91019285D01*
X113642380Y-90924047D01*
X113642380Y-90685952D01*
X113594761Y-90590714D01*
X113547142Y-90543095D01*
X112975714Y-91971666D02*
X113642380Y-91971666D01*
X112594761Y-91733571D02*
X113309047Y-91495476D01*
X113309047Y-92114523D01*
%TO.C,D53*%
X94592380Y-89590714D02*
X93592380Y-89590714D01*
X93592380Y-89828809D01*
X93640000Y-89971666D01*
X93735238Y-90066904D01*
X93830476Y-90114523D01*
X94020952Y-90162142D01*
X94163809Y-90162142D01*
X94354285Y-90114523D01*
X94449523Y-90066904D01*
X94544761Y-89971666D01*
X94592380Y-89828809D01*
X94592380Y-89590714D01*
X93592380Y-91066904D02*
X93592380Y-90590714D01*
X94068571Y-90543095D01*
X94020952Y-90590714D01*
X93973333Y-90685952D01*
X93973333Y-90924047D01*
X94020952Y-91019285D01*
X94068571Y-91066904D01*
X94163809Y-91114523D01*
X94401904Y-91114523D01*
X94497142Y-91066904D01*
X94544761Y-91019285D01*
X94592380Y-90924047D01*
X94592380Y-90685952D01*
X94544761Y-90590714D01*
X94497142Y-90543095D01*
X93592380Y-91447857D02*
X93592380Y-92066904D01*
X93973333Y-91733571D01*
X93973333Y-91876428D01*
X94020952Y-91971666D01*
X94068571Y-92019285D01*
X94163809Y-92066904D01*
X94401904Y-92066904D01*
X94497142Y-92019285D01*
X94544761Y-91971666D01*
X94592380Y-91876428D01*
X94592380Y-91590714D01*
X94544761Y-91495476D01*
X94497142Y-91447857D01*
%TO.C,D52*%
X75542380Y-89590714D02*
X74542380Y-89590714D01*
X74542380Y-89828809D01*
X74590000Y-89971666D01*
X74685238Y-90066904D01*
X74780476Y-90114523D01*
X74970952Y-90162142D01*
X75113809Y-90162142D01*
X75304285Y-90114523D01*
X75399523Y-90066904D01*
X75494761Y-89971666D01*
X75542380Y-89828809D01*
X75542380Y-89590714D01*
X74542380Y-91066904D02*
X74542380Y-90590714D01*
X75018571Y-90543095D01*
X74970952Y-90590714D01*
X74923333Y-90685952D01*
X74923333Y-90924047D01*
X74970952Y-91019285D01*
X75018571Y-91066904D01*
X75113809Y-91114523D01*
X75351904Y-91114523D01*
X75447142Y-91066904D01*
X75494761Y-91019285D01*
X75542380Y-90924047D01*
X75542380Y-90685952D01*
X75494761Y-90590714D01*
X75447142Y-90543095D01*
X74637619Y-91495476D02*
X74590000Y-91543095D01*
X74542380Y-91638333D01*
X74542380Y-91876428D01*
X74590000Y-91971666D01*
X74637619Y-92019285D01*
X74732857Y-92066904D01*
X74828095Y-92066904D01*
X74970952Y-92019285D01*
X75542380Y-91447857D01*
X75542380Y-92066904D01*
%TO.C,D51*%
X60937380Y-89590714D02*
X59937380Y-89590714D01*
X59937380Y-89828809D01*
X59985000Y-89971666D01*
X60080238Y-90066904D01*
X60175476Y-90114523D01*
X60365952Y-90162142D01*
X60508809Y-90162142D01*
X60699285Y-90114523D01*
X60794523Y-90066904D01*
X60889761Y-89971666D01*
X60937380Y-89828809D01*
X60937380Y-89590714D01*
X59937380Y-91066904D02*
X59937380Y-90590714D01*
X60413571Y-90543095D01*
X60365952Y-90590714D01*
X60318333Y-90685952D01*
X60318333Y-90924047D01*
X60365952Y-91019285D01*
X60413571Y-91066904D01*
X60508809Y-91114523D01*
X60746904Y-91114523D01*
X60842142Y-91066904D01*
X60889761Y-91019285D01*
X60937380Y-90924047D01*
X60937380Y-90685952D01*
X60889761Y-90590714D01*
X60842142Y-90543095D01*
X60937380Y-92066904D02*
X60937380Y-91495476D01*
X60937380Y-91781190D02*
X59937380Y-91781190D01*
X60080238Y-91685952D01*
X60175476Y-91590714D01*
X60223095Y-91495476D01*
%TO.C,D49*%
X37188380Y-89463714D02*
X36188380Y-89463714D01*
X36188380Y-89701809D01*
X36236000Y-89844666D01*
X36331238Y-89939904D01*
X36426476Y-89987523D01*
X36616952Y-90035142D01*
X36759809Y-90035142D01*
X36950285Y-89987523D01*
X37045523Y-89939904D01*
X37140761Y-89844666D01*
X37188380Y-89701809D01*
X37188380Y-89463714D01*
X36521714Y-90892285D02*
X37188380Y-90892285D01*
X36140761Y-90654190D02*
X36855047Y-90416095D01*
X36855047Y-91035142D01*
X37188380Y-91463714D02*
X37188380Y-91654190D01*
X37140761Y-91749428D01*
X37093142Y-91797047D01*
X36950285Y-91892285D01*
X36759809Y-91939904D01*
X36378857Y-91939904D01*
X36283619Y-91892285D01*
X36236000Y-91844666D01*
X36188380Y-91749428D01*
X36188380Y-91558952D01*
X36236000Y-91463714D01*
X36283619Y-91416095D01*
X36378857Y-91368476D01*
X36616952Y-91368476D01*
X36712190Y-91416095D01*
X36759809Y-91463714D01*
X36807428Y-91558952D01*
X36807428Y-91749428D01*
X36759809Y-91844666D01*
X36712190Y-91892285D01*
X36616952Y-91939904D01*
%TO.C,D47*%
X295252380Y-65968714D02*
X294252380Y-65968714D01*
X294252380Y-66206809D01*
X294300000Y-66349666D01*
X294395238Y-66444904D01*
X294490476Y-66492523D01*
X294680952Y-66540142D01*
X294823809Y-66540142D01*
X295014285Y-66492523D01*
X295109523Y-66444904D01*
X295204761Y-66349666D01*
X295252380Y-66206809D01*
X295252380Y-65968714D01*
X294585714Y-67397285D02*
X295252380Y-67397285D01*
X294204761Y-67159190D02*
X294919047Y-66921095D01*
X294919047Y-67540142D01*
X294252380Y-67825857D02*
X294252380Y-68492523D01*
X295252380Y-68063952D01*
%TO.C,D46*%
X278234380Y-70540714D02*
X277234380Y-70540714D01*
X277234380Y-70778809D01*
X277282000Y-70921666D01*
X277377238Y-71016904D01*
X277472476Y-71064523D01*
X277662952Y-71112142D01*
X277805809Y-71112142D01*
X277996285Y-71064523D01*
X278091523Y-71016904D01*
X278186761Y-70921666D01*
X278234380Y-70778809D01*
X278234380Y-70540714D01*
X277567714Y-71969285D02*
X278234380Y-71969285D01*
X277186761Y-71731190D02*
X277901047Y-71493095D01*
X277901047Y-72112142D01*
X277234380Y-72921666D02*
X277234380Y-72731190D01*
X277282000Y-72635952D01*
X277329619Y-72588333D01*
X277472476Y-72493095D01*
X277662952Y-72445476D01*
X278043904Y-72445476D01*
X278139142Y-72493095D01*
X278186761Y-72540714D01*
X278234380Y-72635952D01*
X278234380Y-72826428D01*
X278186761Y-72921666D01*
X278139142Y-72969285D01*
X278043904Y-73016904D01*
X277805809Y-73016904D01*
X277710571Y-72969285D01*
X277662952Y-72921666D01*
X277615333Y-72826428D01*
X277615333Y-72635952D01*
X277662952Y-72540714D01*
X277710571Y-72493095D01*
X277805809Y-72445476D01*
%TO.C,D45*%
X256644380Y-70795714D02*
X255644380Y-70795714D01*
X255644380Y-71033809D01*
X255692000Y-71176666D01*
X255787238Y-71271904D01*
X255882476Y-71319523D01*
X256072952Y-71367142D01*
X256215809Y-71367142D01*
X256406285Y-71319523D01*
X256501523Y-71271904D01*
X256596761Y-71176666D01*
X256644380Y-71033809D01*
X256644380Y-70795714D01*
X255977714Y-72224285D02*
X256644380Y-72224285D01*
X255596761Y-71986190D02*
X256311047Y-71748095D01*
X256311047Y-72367142D01*
X255644380Y-73224285D02*
X255644380Y-72748095D01*
X256120571Y-72700476D01*
X256072952Y-72748095D01*
X256025333Y-72843333D01*
X256025333Y-73081428D01*
X256072952Y-73176666D01*
X256120571Y-73224285D01*
X256215809Y-73271904D01*
X256453904Y-73271904D01*
X256549142Y-73224285D01*
X256596761Y-73176666D01*
X256644380Y-73081428D01*
X256644380Y-72843333D01*
X256596761Y-72748095D01*
X256549142Y-72700476D01*
%TO.C,D44*%
X237594380Y-70795714D02*
X236594380Y-70795714D01*
X236594380Y-71033809D01*
X236642000Y-71176666D01*
X236737238Y-71271904D01*
X236832476Y-71319523D01*
X237022952Y-71367142D01*
X237165809Y-71367142D01*
X237356285Y-71319523D01*
X237451523Y-71271904D01*
X237546761Y-71176666D01*
X237594380Y-71033809D01*
X237594380Y-70795714D01*
X236927714Y-72224285D02*
X237594380Y-72224285D01*
X236546761Y-71986190D02*
X237261047Y-71748095D01*
X237261047Y-72367142D01*
X236927714Y-73176666D02*
X237594380Y-73176666D01*
X236546761Y-72938571D02*
X237261047Y-72700476D01*
X237261047Y-73319523D01*
%TO.C,D43*%
X218544380Y-70795714D02*
X217544380Y-70795714D01*
X217544380Y-71033809D01*
X217592000Y-71176666D01*
X217687238Y-71271904D01*
X217782476Y-71319523D01*
X217972952Y-71367142D01*
X218115809Y-71367142D01*
X218306285Y-71319523D01*
X218401523Y-71271904D01*
X218496761Y-71176666D01*
X218544380Y-71033809D01*
X218544380Y-70795714D01*
X217877714Y-72224285D02*
X218544380Y-72224285D01*
X217496761Y-71986190D02*
X218211047Y-71748095D01*
X218211047Y-72367142D01*
X217544380Y-72652857D02*
X217544380Y-73271904D01*
X217925333Y-72938571D01*
X217925333Y-73081428D01*
X217972952Y-73176666D01*
X218020571Y-73224285D01*
X218115809Y-73271904D01*
X218353904Y-73271904D01*
X218449142Y-73224285D01*
X218496761Y-73176666D01*
X218544380Y-73081428D01*
X218544380Y-72795714D01*
X218496761Y-72700476D01*
X218449142Y-72652857D01*
%TO.C,D42*%
X199494380Y-70795714D02*
X198494380Y-70795714D01*
X198494380Y-71033809D01*
X198542000Y-71176666D01*
X198637238Y-71271904D01*
X198732476Y-71319523D01*
X198922952Y-71367142D01*
X199065809Y-71367142D01*
X199256285Y-71319523D01*
X199351523Y-71271904D01*
X199446761Y-71176666D01*
X199494380Y-71033809D01*
X199494380Y-70795714D01*
X198827714Y-72224285D02*
X199494380Y-72224285D01*
X198446761Y-71986190D02*
X199161047Y-71748095D01*
X199161047Y-72367142D01*
X198589619Y-72700476D02*
X198542000Y-72748095D01*
X198494380Y-72843333D01*
X198494380Y-73081428D01*
X198542000Y-73176666D01*
X198589619Y-73224285D01*
X198684857Y-73271904D01*
X198780095Y-73271904D01*
X198922952Y-73224285D01*
X199494380Y-72652857D01*
X199494380Y-73271904D01*
%TO.C,D41*%
X180444380Y-70795714D02*
X179444380Y-70795714D01*
X179444380Y-71033809D01*
X179492000Y-71176666D01*
X179587238Y-71271904D01*
X179682476Y-71319523D01*
X179872952Y-71367142D01*
X180015809Y-71367142D01*
X180206285Y-71319523D01*
X180301523Y-71271904D01*
X180396761Y-71176666D01*
X180444380Y-71033809D01*
X180444380Y-70795714D01*
X179777714Y-72224285D02*
X180444380Y-72224285D01*
X179396761Y-71986190D02*
X180111047Y-71748095D01*
X180111047Y-72367142D01*
X180444380Y-73271904D02*
X180444380Y-72700476D01*
X180444380Y-72986190D02*
X179444380Y-72986190D01*
X179587238Y-72890952D01*
X179682476Y-72795714D01*
X179730095Y-72700476D01*
%TO.C,D40*%
X161394380Y-70795714D02*
X160394380Y-70795714D01*
X160394380Y-71033809D01*
X160442000Y-71176666D01*
X160537238Y-71271904D01*
X160632476Y-71319523D01*
X160822952Y-71367142D01*
X160965809Y-71367142D01*
X161156285Y-71319523D01*
X161251523Y-71271904D01*
X161346761Y-71176666D01*
X161394380Y-71033809D01*
X161394380Y-70795714D01*
X160727714Y-72224285D02*
X161394380Y-72224285D01*
X160346761Y-71986190D02*
X161061047Y-71748095D01*
X161061047Y-72367142D01*
X160394380Y-72938571D02*
X160394380Y-73033809D01*
X160442000Y-73129047D01*
X160489619Y-73176666D01*
X160584857Y-73224285D01*
X160775333Y-73271904D01*
X161013428Y-73271904D01*
X161203904Y-73224285D01*
X161299142Y-73176666D01*
X161346761Y-73129047D01*
X161394380Y-73033809D01*
X161394380Y-72938571D01*
X161346761Y-72843333D01*
X161299142Y-72795714D01*
X161203904Y-72748095D01*
X161013428Y-72700476D01*
X160775333Y-72700476D01*
X160584857Y-72748095D01*
X160489619Y-72795714D01*
X160442000Y-72843333D01*
X160394380Y-72938571D01*
%TO.C,D39*%
X142344380Y-70795714D02*
X141344380Y-70795714D01*
X141344380Y-71033809D01*
X141392000Y-71176666D01*
X141487238Y-71271904D01*
X141582476Y-71319523D01*
X141772952Y-71367142D01*
X141915809Y-71367142D01*
X142106285Y-71319523D01*
X142201523Y-71271904D01*
X142296761Y-71176666D01*
X142344380Y-71033809D01*
X142344380Y-70795714D01*
X141344380Y-71700476D02*
X141344380Y-72319523D01*
X141725333Y-71986190D01*
X141725333Y-72129047D01*
X141772952Y-72224285D01*
X141820571Y-72271904D01*
X141915809Y-72319523D01*
X142153904Y-72319523D01*
X142249142Y-72271904D01*
X142296761Y-72224285D01*
X142344380Y-72129047D01*
X142344380Y-71843333D01*
X142296761Y-71748095D01*
X142249142Y-71700476D01*
X142344380Y-72795714D02*
X142344380Y-72986190D01*
X142296761Y-73081428D01*
X142249142Y-73129047D01*
X142106285Y-73224285D01*
X141915809Y-73271904D01*
X141534857Y-73271904D01*
X141439619Y-73224285D01*
X141392000Y-73176666D01*
X141344380Y-73081428D01*
X141344380Y-72890952D01*
X141392000Y-72795714D01*
X141439619Y-72748095D01*
X141534857Y-72700476D01*
X141772952Y-72700476D01*
X141868190Y-72748095D01*
X141915809Y-72795714D01*
X141963428Y-72890952D01*
X141963428Y-73081428D01*
X141915809Y-73176666D01*
X141868190Y-73224285D01*
X141772952Y-73271904D01*
%TO.C,D38*%
X123294380Y-70795714D02*
X122294380Y-70795714D01*
X122294380Y-71033809D01*
X122342000Y-71176666D01*
X122437238Y-71271904D01*
X122532476Y-71319523D01*
X122722952Y-71367142D01*
X122865809Y-71367142D01*
X123056285Y-71319523D01*
X123151523Y-71271904D01*
X123246761Y-71176666D01*
X123294380Y-71033809D01*
X123294380Y-70795714D01*
X122294380Y-71700476D02*
X122294380Y-72319523D01*
X122675333Y-71986190D01*
X122675333Y-72129047D01*
X122722952Y-72224285D01*
X122770571Y-72271904D01*
X122865809Y-72319523D01*
X123103904Y-72319523D01*
X123199142Y-72271904D01*
X123246761Y-72224285D01*
X123294380Y-72129047D01*
X123294380Y-71843333D01*
X123246761Y-71748095D01*
X123199142Y-71700476D01*
X122722952Y-72890952D02*
X122675333Y-72795714D01*
X122627714Y-72748095D01*
X122532476Y-72700476D01*
X122484857Y-72700476D01*
X122389619Y-72748095D01*
X122342000Y-72795714D01*
X122294380Y-72890952D01*
X122294380Y-73081428D01*
X122342000Y-73176666D01*
X122389619Y-73224285D01*
X122484857Y-73271904D01*
X122532476Y-73271904D01*
X122627714Y-73224285D01*
X122675333Y-73176666D01*
X122722952Y-73081428D01*
X122722952Y-72890952D01*
X122770571Y-72795714D01*
X122818190Y-72748095D01*
X122913428Y-72700476D01*
X123103904Y-72700476D01*
X123199142Y-72748095D01*
X123246761Y-72795714D01*
X123294380Y-72890952D01*
X123294380Y-73081428D01*
X123246761Y-73176666D01*
X123199142Y-73224285D01*
X123103904Y-73271904D01*
X122913428Y-73271904D01*
X122818190Y-73224285D01*
X122770571Y-73176666D01*
X122722952Y-73081428D01*
%TO.C,D37*%
X104244380Y-70795714D02*
X103244380Y-70795714D01*
X103244380Y-71033809D01*
X103292000Y-71176666D01*
X103387238Y-71271904D01*
X103482476Y-71319523D01*
X103672952Y-71367142D01*
X103815809Y-71367142D01*
X104006285Y-71319523D01*
X104101523Y-71271904D01*
X104196761Y-71176666D01*
X104244380Y-71033809D01*
X104244380Y-70795714D01*
X103244380Y-71700476D02*
X103244380Y-72319523D01*
X103625333Y-71986190D01*
X103625333Y-72129047D01*
X103672952Y-72224285D01*
X103720571Y-72271904D01*
X103815809Y-72319523D01*
X104053904Y-72319523D01*
X104149142Y-72271904D01*
X104196761Y-72224285D01*
X104244380Y-72129047D01*
X104244380Y-71843333D01*
X104196761Y-71748095D01*
X104149142Y-71700476D01*
X103244380Y-72652857D02*
X103244380Y-73319523D01*
X104244380Y-72890952D01*
%TO.C,D36*%
X85194380Y-70795714D02*
X84194380Y-70795714D01*
X84194380Y-71033809D01*
X84242000Y-71176666D01*
X84337238Y-71271904D01*
X84432476Y-71319523D01*
X84622952Y-71367142D01*
X84765809Y-71367142D01*
X84956285Y-71319523D01*
X85051523Y-71271904D01*
X85146761Y-71176666D01*
X85194380Y-71033809D01*
X85194380Y-70795714D01*
X84194380Y-71700476D02*
X84194380Y-72319523D01*
X84575333Y-71986190D01*
X84575333Y-72129047D01*
X84622952Y-72224285D01*
X84670571Y-72271904D01*
X84765809Y-72319523D01*
X85003904Y-72319523D01*
X85099142Y-72271904D01*
X85146761Y-72224285D01*
X85194380Y-72129047D01*
X85194380Y-71843333D01*
X85146761Y-71748095D01*
X85099142Y-71700476D01*
X84194380Y-73176666D02*
X84194380Y-72986190D01*
X84242000Y-72890952D01*
X84289619Y-72843333D01*
X84432476Y-72748095D01*
X84622952Y-72700476D01*
X85003904Y-72700476D01*
X85099142Y-72748095D01*
X85146761Y-72795714D01*
X85194380Y-72890952D01*
X85194380Y-73081428D01*
X85146761Y-73176666D01*
X85099142Y-73224285D01*
X85003904Y-73271904D01*
X84765809Y-73271904D01*
X84670571Y-73224285D01*
X84622952Y-73176666D01*
X84575333Y-73081428D01*
X84575333Y-72890952D01*
X84622952Y-72795714D01*
X84670571Y-72748095D01*
X84765809Y-72700476D01*
%TO.C,D35*%
X66144380Y-70795714D02*
X65144380Y-70795714D01*
X65144380Y-71033809D01*
X65192000Y-71176666D01*
X65287238Y-71271904D01*
X65382476Y-71319523D01*
X65572952Y-71367142D01*
X65715809Y-71367142D01*
X65906285Y-71319523D01*
X66001523Y-71271904D01*
X66096761Y-71176666D01*
X66144380Y-71033809D01*
X66144380Y-70795714D01*
X65144380Y-71700476D02*
X65144380Y-72319523D01*
X65525333Y-71986190D01*
X65525333Y-72129047D01*
X65572952Y-72224285D01*
X65620571Y-72271904D01*
X65715809Y-72319523D01*
X65953904Y-72319523D01*
X66049142Y-72271904D01*
X66096761Y-72224285D01*
X66144380Y-72129047D01*
X66144380Y-71843333D01*
X66096761Y-71748095D01*
X66049142Y-71700476D01*
X65144380Y-73224285D02*
X65144380Y-72748095D01*
X65620571Y-72700476D01*
X65572952Y-72748095D01*
X65525333Y-72843333D01*
X65525333Y-73081428D01*
X65572952Y-73176666D01*
X65620571Y-73224285D01*
X65715809Y-73271904D01*
X65953904Y-73271904D01*
X66049142Y-73224285D01*
X66096761Y-73176666D01*
X66144380Y-73081428D01*
X66144380Y-72843333D01*
X66096761Y-72748095D01*
X66049142Y-72700476D01*
%TO.C,D33*%
X39912380Y-70775714D02*
X38912380Y-70775714D01*
X38912380Y-71013809D01*
X38960000Y-71156666D01*
X39055238Y-71251904D01*
X39150476Y-71299523D01*
X39340952Y-71347142D01*
X39483809Y-71347142D01*
X39674285Y-71299523D01*
X39769523Y-71251904D01*
X39864761Y-71156666D01*
X39912380Y-71013809D01*
X39912380Y-70775714D01*
X38912380Y-71680476D02*
X38912380Y-72299523D01*
X39293333Y-71966190D01*
X39293333Y-72109047D01*
X39340952Y-72204285D01*
X39388571Y-72251904D01*
X39483809Y-72299523D01*
X39721904Y-72299523D01*
X39817142Y-72251904D01*
X39864761Y-72204285D01*
X39912380Y-72109047D01*
X39912380Y-71823333D01*
X39864761Y-71728095D01*
X39817142Y-71680476D01*
X38912380Y-72632857D02*
X38912380Y-73251904D01*
X39293333Y-72918571D01*
X39293333Y-73061428D01*
X39340952Y-73156666D01*
X39388571Y-73204285D01*
X39483809Y-73251904D01*
X39721904Y-73251904D01*
X39817142Y-73204285D01*
X39864761Y-73156666D01*
X39912380Y-73061428D01*
X39912380Y-72775714D01*
X39864761Y-72680476D01*
X39817142Y-72632857D01*
%TO.C,D32*%
X282164285Y-40342380D02*
X282164285Y-39342380D01*
X281926190Y-39342380D01*
X281783333Y-39390000D01*
X281688095Y-39485238D01*
X281640476Y-39580476D01*
X281592857Y-39770952D01*
X281592857Y-39913809D01*
X281640476Y-40104285D01*
X281688095Y-40199523D01*
X281783333Y-40294761D01*
X281926190Y-40342380D01*
X282164285Y-40342380D01*
X281259523Y-39342380D02*
X280640476Y-39342380D01*
X280973809Y-39723333D01*
X280830952Y-39723333D01*
X280735714Y-39770952D01*
X280688095Y-39818571D01*
X280640476Y-39913809D01*
X280640476Y-40151904D01*
X280688095Y-40247142D01*
X280735714Y-40294761D01*
X280830952Y-40342380D01*
X281116666Y-40342380D01*
X281211904Y-40294761D01*
X281259523Y-40247142D01*
X280259523Y-39437619D02*
X280211904Y-39390000D01*
X280116666Y-39342380D01*
X279878571Y-39342380D01*
X279783333Y-39390000D01*
X279735714Y-39437619D01*
X279688095Y-39532857D01*
X279688095Y-39628095D01*
X279735714Y-39770952D01*
X280307142Y-40342380D01*
X279688095Y-40342380D01*
%TO.C,D31*%
X264062380Y-35865714D02*
X263062380Y-35865714D01*
X263062380Y-36103809D01*
X263110000Y-36246666D01*
X263205238Y-36341904D01*
X263300476Y-36389523D01*
X263490952Y-36437142D01*
X263633809Y-36437142D01*
X263824285Y-36389523D01*
X263919523Y-36341904D01*
X264014761Y-36246666D01*
X264062380Y-36103809D01*
X264062380Y-35865714D01*
X263062380Y-36770476D02*
X263062380Y-37389523D01*
X263443333Y-37056190D01*
X263443333Y-37199047D01*
X263490952Y-37294285D01*
X263538571Y-37341904D01*
X263633809Y-37389523D01*
X263871904Y-37389523D01*
X263967142Y-37341904D01*
X264014761Y-37294285D01*
X264062380Y-37199047D01*
X264062380Y-36913333D01*
X264014761Y-36818095D01*
X263967142Y-36770476D01*
X264062380Y-38341904D02*
X264062380Y-37770476D01*
X264062380Y-38056190D02*
X263062380Y-38056190D01*
X263205238Y-37960952D01*
X263300476Y-37865714D01*
X263348095Y-37770476D01*
%TO.C,D30*%
X249012380Y-35865714D02*
X248012380Y-35865714D01*
X248012380Y-36103809D01*
X248060000Y-36246666D01*
X248155238Y-36341904D01*
X248250476Y-36389523D01*
X248440952Y-36437142D01*
X248583809Y-36437142D01*
X248774285Y-36389523D01*
X248869523Y-36341904D01*
X248964761Y-36246666D01*
X249012380Y-36103809D01*
X249012380Y-35865714D01*
X248012380Y-36770476D02*
X248012380Y-37389523D01*
X248393333Y-37056190D01*
X248393333Y-37199047D01*
X248440952Y-37294285D01*
X248488571Y-37341904D01*
X248583809Y-37389523D01*
X248821904Y-37389523D01*
X248917142Y-37341904D01*
X248964761Y-37294285D01*
X249012380Y-37199047D01*
X249012380Y-36913333D01*
X248964761Y-36818095D01*
X248917142Y-36770476D01*
X248012380Y-38008571D02*
X248012380Y-38103809D01*
X248060000Y-38199047D01*
X248107619Y-38246666D01*
X248202857Y-38294285D01*
X248393333Y-38341904D01*
X248631428Y-38341904D01*
X248821904Y-38294285D01*
X248917142Y-38246666D01*
X248964761Y-38199047D01*
X249012380Y-38103809D01*
X249012380Y-38008571D01*
X248964761Y-37913333D01*
X248917142Y-37865714D01*
X248821904Y-37818095D01*
X248631428Y-37770476D01*
X248393333Y-37770476D01*
X248202857Y-37818095D01*
X248107619Y-37865714D01*
X248060000Y-37913333D01*
X248012380Y-38008571D01*
%TO.C,D29*%
X229962380Y-35865714D02*
X228962380Y-35865714D01*
X228962380Y-36103809D01*
X229010000Y-36246666D01*
X229105238Y-36341904D01*
X229200476Y-36389523D01*
X229390952Y-36437142D01*
X229533809Y-36437142D01*
X229724285Y-36389523D01*
X229819523Y-36341904D01*
X229914761Y-36246666D01*
X229962380Y-36103809D01*
X229962380Y-35865714D01*
X229057619Y-36818095D02*
X229010000Y-36865714D01*
X228962380Y-36960952D01*
X228962380Y-37199047D01*
X229010000Y-37294285D01*
X229057619Y-37341904D01*
X229152857Y-37389523D01*
X229248095Y-37389523D01*
X229390952Y-37341904D01*
X229962380Y-36770476D01*
X229962380Y-37389523D01*
X229962380Y-37865714D02*
X229962380Y-38056190D01*
X229914761Y-38151428D01*
X229867142Y-38199047D01*
X229724285Y-38294285D01*
X229533809Y-38341904D01*
X229152857Y-38341904D01*
X229057619Y-38294285D01*
X229010000Y-38246666D01*
X228962380Y-38151428D01*
X228962380Y-37960952D01*
X229010000Y-37865714D01*
X229057619Y-37818095D01*
X229152857Y-37770476D01*
X229390952Y-37770476D01*
X229486190Y-37818095D01*
X229533809Y-37865714D01*
X229581428Y-37960952D01*
X229581428Y-38151428D01*
X229533809Y-38246666D01*
X229486190Y-38294285D01*
X229390952Y-38341904D01*
%TO.C,D27*%
X191862380Y-35865714D02*
X190862380Y-35865714D01*
X190862380Y-36103809D01*
X190910000Y-36246666D01*
X191005238Y-36341904D01*
X191100476Y-36389523D01*
X191290952Y-36437142D01*
X191433809Y-36437142D01*
X191624285Y-36389523D01*
X191719523Y-36341904D01*
X191814761Y-36246666D01*
X191862380Y-36103809D01*
X191862380Y-35865714D01*
X190957619Y-36818095D02*
X190910000Y-36865714D01*
X190862380Y-36960952D01*
X190862380Y-37199047D01*
X190910000Y-37294285D01*
X190957619Y-37341904D01*
X191052857Y-37389523D01*
X191148095Y-37389523D01*
X191290952Y-37341904D01*
X191862380Y-36770476D01*
X191862380Y-37389523D01*
X190862380Y-37722857D02*
X190862380Y-38389523D01*
X191862380Y-37960952D01*
%TO.C,D26*%
X172812380Y-35865714D02*
X171812380Y-35865714D01*
X171812380Y-36103809D01*
X171860000Y-36246666D01*
X171955238Y-36341904D01*
X172050476Y-36389523D01*
X172240952Y-36437142D01*
X172383809Y-36437142D01*
X172574285Y-36389523D01*
X172669523Y-36341904D01*
X172764761Y-36246666D01*
X172812380Y-36103809D01*
X172812380Y-35865714D01*
X171907619Y-36818095D02*
X171860000Y-36865714D01*
X171812380Y-36960952D01*
X171812380Y-37199047D01*
X171860000Y-37294285D01*
X171907619Y-37341904D01*
X172002857Y-37389523D01*
X172098095Y-37389523D01*
X172240952Y-37341904D01*
X172812380Y-36770476D01*
X172812380Y-37389523D01*
X171812380Y-38246666D02*
X171812380Y-38056190D01*
X171860000Y-37960952D01*
X171907619Y-37913333D01*
X172050476Y-37818095D01*
X172240952Y-37770476D01*
X172621904Y-37770476D01*
X172717142Y-37818095D01*
X172764761Y-37865714D01*
X172812380Y-37960952D01*
X172812380Y-38151428D01*
X172764761Y-38246666D01*
X172717142Y-38294285D01*
X172621904Y-38341904D01*
X172383809Y-38341904D01*
X172288571Y-38294285D01*
X172240952Y-38246666D01*
X172193333Y-38151428D01*
X172193333Y-37960952D01*
X172240952Y-37865714D01*
X172288571Y-37818095D01*
X172383809Y-37770476D01*
%TO.C,D25*%
X153762380Y-35865714D02*
X152762380Y-35865714D01*
X152762380Y-36103809D01*
X152810000Y-36246666D01*
X152905238Y-36341904D01*
X153000476Y-36389523D01*
X153190952Y-36437142D01*
X153333809Y-36437142D01*
X153524285Y-36389523D01*
X153619523Y-36341904D01*
X153714761Y-36246666D01*
X153762380Y-36103809D01*
X153762380Y-35865714D01*
X152857619Y-36818095D02*
X152810000Y-36865714D01*
X152762380Y-36960952D01*
X152762380Y-37199047D01*
X152810000Y-37294285D01*
X152857619Y-37341904D01*
X152952857Y-37389523D01*
X153048095Y-37389523D01*
X153190952Y-37341904D01*
X153762380Y-36770476D01*
X153762380Y-37389523D01*
X152762380Y-38294285D02*
X152762380Y-37818095D01*
X153238571Y-37770476D01*
X153190952Y-37818095D01*
X153143333Y-37913333D01*
X153143333Y-38151428D01*
X153190952Y-38246666D01*
X153238571Y-38294285D01*
X153333809Y-38341904D01*
X153571904Y-38341904D01*
X153667142Y-38294285D01*
X153714761Y-38246666D01*
X153762380Y-38151428D01*
X153762380Y-37913333D01*
X153714761Y-37818095D01*
X153667142Y-37770476D01*
%TO.C,D24*%
X134712380Y-35865714D02*
X133712380Y-35865714D01*
X133712380Y-36103809D01*
X133760000Y-36246666D01*
X133855238Y-36341904D01*
X133950476Y-36389523D01*
X134140952Y-36437142D01*
X134283809Y-36437142D01*
X134474285Y-36389523D01*
X134569523Y-36341904D01*
X134664761Y-36246666D01*
X134712380Y-36103809D01*
X134712380Y-35865714D01*
X133807619Y-36818095D02*
X133760000Y-36865714D01*
X133712380Y-36960952D01*
X133712380Y-37199047D01*
X133760000Y-37294285D01*
X133807619Y-37341904D01*
X133902857Y-37389523D01*
X133998095Y-37389523D01*
X134140952Y-37341904D01*
X134712380Y-36770476D01*
X134712380Y-37389523D01*
X134045714Y-38246666D02*
X134712380Y-38246666D01*
X133664761Y-38008571D02*
X134379047Y-37770476D01*
X134379047Y-38389523D01*
%TO.C,D23*%
X115662380Y-35865714D02*
X114662380Y-35865714D01*
X114662380Y-36103809D01*
X114710000Y-36246666D01*
X114805238Y-36341904D01*
X114900476Y-36389523D01*
X115090952Y-36437142D01*
X115233809Y-36437142D01*
X115424285Y-36389523D01*
X115519523Y-36341904D01*
X115614761Y-36246666D01*
X115662380Y-36103809D01*
X115662380Y-35865714D01*
X114757619Y-36818095D02*
X114710000Y-36865714D01*
X114662380Y-36960952D01*
X114662380Y-37199047D01*
X114710000Y-37294285D01*
X114757619Y-37341904D01*
X114852857Y-37389523D01*
X114948095Y-37389523D01*
X115090952Y-37341904D01*
X115662380Y-36770476D01*
X115662380Y-37389523D01*
X114662380Y-37722857D02*
X114662380Y-38341904D01*
X115043333Y-38008571D01*
X115043333Y-38151428D01*
X115090952Y-38246666D01*
X115138571Y-38294285D01*
X115233809Y-38341904D01*
X115471904Y-38341904D01*
X115567142Y-38294285D01*
X115614761Y-38246666D01*
X115662380Y-38151428D01*
X115662380Y-37865714D01*
X115614761Y-37770476D01*
X115567142Y-37722857D01*
%TO.C,D22*%
X96612380Y-35865714D02*
X95612380Y-35865714D01*
X95612380Y-36103809D01*
X95660000Y-36246666D01*
X95755238Y-36341904D01*
X95850476Y-36389523D01*
X96040952Y-36437142D01*
X96183809Y-36437142D01*
X96374285Y-36389523D01*
X96469523Y-36341904D01*
X96564761Y-36246666D01*
X96612380Y-36103809D01*
X96612380Y-35865714D01*
X95707619Y-36818095D02*
X95660000Y-36865714D01*
X95612380Y-36960952D01*
X95612380Y-37199047D01*
X95660000Y-37294285D01*
X95707619Y-37341904D01*
X95802857Y-37389523D01*
X95898095Y-37389523D01*
X96040952Y-37341904D01*
X96612380Y-36770476D01*
X96612380Y-37389523D01*
X95707619Y-37770476D02*
X95660000Y-37818095D01*
X95612380Y-37913333D01*
X95612380Y-38151428D01*
X95660000Y-38246666D01*
X95707619Y-38294285D01*
X95802857Y-38341904D01*
X95898095Y-38341904D01*
X96040952Y-38294285D01*
X96612380Y-37722857D01*
X96612380Y-38341904D01*
%TO.C,D21*%
X77562380Y-35865714D02*
X76562380Y-35865714D01*
X76562380Y-36103809D01*
X76610000Y-36246666D01*
X76705238Y-36341904D01*
X76800476Y-36389523D01*
X76990952Y-36437142D01*
X77133809Y-36437142D01*
X77324285Y-36389523D01*
X77419523Y-36341904D01*
X77514761Y-36246666D01*
X77562380Y-36103809D01*
X77562380Y-35865714D01*
X76657619Y-36818095D02*
X76610000Y-36865714D01*
X76562380Y-36960952D01*
X76562380Y-37199047D01*
X76610000Y-37294285D01*
X76657619Y-37341904D01*
X76752857Y-37389523D01*
X76848095Y-37389523D01*
X76990952Y-37341904D01*
X77562380Y-36770476D01*
X77562380Y-37389523D01*
X77562380Y-38341904D02*
X77562380Y-37770476D01*
X77562380Y-38056190D02*
X76562380Y-38056190D01*
X76705238Y-37960952D01*
X76800476Y-37865714D01*
X76848095Y-37770476D01*
%TO.C,D20*%
X58512380Y-35865714D02*
X57512380Y-35865714D01*
X57512380Y-36103809D01*
X57560000Y-36246666D01*
X57655238Y-36341904D01*
X57750476Y-36389523D01*
X57940952Y-36437142D01*
X58083809Y-36437142D01*
X58274285Y-36389523D01*
X58369523Y-36341904D01*
X58464761Y-36246666D01*
X58512380Y-36103809D01*
X58512380Y-35865714D01*
X57607619Y-36818095D02*
X57560000Y-36865714D01*
X57512380Y-36960952D01*
X57512380Y-37199047D01*
X57560000Y-37294285D01*
X57607619Y-37341904D01*
X57702857Y-37389523D01*
X57798095Y-37389523D01*
X57940952Y-37341904D01*
X58512380Y-36770476D01*
X58512380Y-37389523D01*
X57512380Y-38008571D02*
X57512380Y-38103809D01*
X57560000Y-38199047D01*
X57607619Y-38246666D01*
X57702857Y-38294285D01*
X57893333Y-38341904D01*
X58131428Y-38341904D01*
X58321904Y-38294285D01*
X58417142Y-38246666D01*
X58464761Y-38199047D01*
X58512380Y-38103809D01*
X58512380Y-38008571D01*
X58464761Y-37913333D01*
X58417142Y-37865714D01*
X58321904Y-37818095D01*
X58131428Y-37770476D01*
X57893333Y-37770476D01*
X57702857Y-37818095D01*
X57607619Y-37865714D01*
X57560000Y-37913333D01*
X57512380Y-38008571D01*
%TO.C,D19*%
X31512380Y-37875714D02*
X30512380Y-37875714D01*
X30512380Y-38113809D01*
X30560000Y-38256666D01*
X30655238Y-38351904D01*
X30750476Y-38399523D01*
X30940952Y-38447142D01*
X31083809Y-38447142D01*
X31274285Y-38399523D01*
X31369523Y-38351904D01*
X31464761Y-38256666D01*
X31512380Y-38113809D01*
X31512380Y-37875714D01*
X31512380Y-39399523D02*
X31512380Y-38828095D01*
X31512380Y-39113809D02*
X30512380Y-39113809D01*
X30655238Y-39018571D01*
X30750476Y-38923333D01*
X30798095Y-38828095D01*
X31512380Y-39875714D02*
X31512380Y-40066190D01*
X31464761Y-40161428D01*
X31417142Y-40209047D01*
X31274285Y-40304285D01*
X31083809Y-40351904D01*
X30702857Y-40351904D01*
X30607619Y-40304285D01*
X30560000Y-40256666D01*
X30512380Y-40161428D01*
X30512380Y-39970952D01*
X30560000Y-39875714D01*
X30607619Y-39828095D01*
X30702857Y-39780476D01*
X30940952Y-39780476D01*
X31036190Y-39828095D01*
X31083809Y-39875714D01*
X31131428Y-39970952D01*
X31131428Y-40161428D01*
X31083809Y-40256666D01*
X31036190Y-40304285D01*
X30940952Y-40351904D01*
%TO.C,D18*%
X291696380Y-32440714D02*
X290696380Y-32440714D01*
X290696380Y-32678809D01*
X290744000Y-32821666D01*
X290839238Y-32916904D01*
X290934476Y-32964523D01*
X291124952Y-33012142D01*
X291267809Y-33012142D01*
X291458285Y-32964523D01*
X291553523Y-32916904D01*
X291648761Y-32821666D01*
X291696380Y-32678809D01*
X291696380Y-32440714D01*
X291696380Y-33964523D02*
X291696380Y-33393095D01*
X291696380Y-33678809D02*
X290696380Y-33678809D01*
X290839238Y-33583571D01*
X290934476Y-33488333D01*
X290982095Y-33393095D01*
X291124952Y-34535952D02*
X291077333Y-34440714D01*
X291029714Y-34393095D01*
X290934476Y-34345476D01*
X290886857Y-34345476D01*
X290791619Y-34393095D01*
X290744000Y-34440714D01*
X290696380Y-34535952D01*
X290696380Y-34726428D01*
X290744000Y-34821666D01*
X290791619Y-34869285D01*
X290886857Y-34916904D01*
X290934476Y-34916904D01*
X291029714Y-34869285D01*
X291077333Y-34821666D01*
X291124952Y-34726428D01*
X291124952Y-34535952D01*
X291172571Y-34440714D01*
X291220190Y-34393095D01*
X291315428Y-34345476D01*
X291505904Y-34345476D01*
X291601142Y-34393095D01*
X291648761Y-34440714D01*
X291696380Y-34535952D01*
X291696380Y-34726428D01*
X291648761Y-34821666D01*
X291601142Y-34869285D01*
X291505904Y-34916904D01*
X291315428Y-34916904D01*
X291220190Y-34869285D01*
X291172571Y-34821666D01*
X291124952Y-34726428D01*
%TO.C,D16*%
X282933380Y-32440714D02*
X281933380Y-32440714D01*
X281933380Y-32678809D01*
X281981000Y-32821666D01*
X282076238Y-32916904D01*
X282171476Y-32964523D01*
X282361952Y-33012142D01*
X282504809Y-33012142D01*
X282695285Y-32964523D01*
X282790523Y-32916904D01*
X282885761Y-32821666D01*
X282933380Y-32678809D01*
X282933380Y-32440714D01*
X282933380Y-33964523D02*
X282933380Y-33393095D01*
X282933380Y-33678809D02*
X281933380Y-33678809D01*
X282076238Y-33583571D01*
X282171476Y-33488333D01*
X282219095Y-33393095D01*
X281933380Y-34821666D02*
X281933380Y-34631190D01*
X281981000Y-34535952D01*
X282028619Y-34488333D01*
X282171476Y-34393095D01*
X282361952Y-34345476D01*
X282742904Y-34345476D01*
X282838142Y-34393095D01*
X282885761Y-34440714D01*
X282933380Y-34535952D01*
X282933380Y-34726428D01*
X282885761Y-34821666D01*
X282838142Y-34869285D01*
X282742904Y-34916904D01*
X282504809Y-34916904D01*
X282409571Y-34869285D01*
X282361952Y-34821666D01*
X282314333Y-34726428D01*
X282314333Y-34535952D01*
X282361952Y-34440714D01*
X282409571Y-34393095D01*
X282504809Y-34345476D01*
%TO.C,D15*%
X261343380Y-32440714D02*
X260343380Y-32440714D01*
X260343380Y-32678809D01*
X260391000Y-32821666D01*
X260486238Y-32916904D01*
X260581476Y-32964523D01*
X260771952Y-33012142D01*
X260914809Y-33012142D01*
X261105285Y-32964523D01*
X261200523Y-32916904D01*
X261295761Y-32821666D01*
X261343380Y-32678809D01*
X261343380Y-32440714D01*
X261343380Y-33964523D02*
X261343380Y-33393095D01*
X261343380Y-33678809D02*
X260343380Y-33678809D01*
X260486238Y-33583571D01*
X260581476Y-33488333D01*
X260629095Y-33393095D01*
X260343380Y-34869285D02*
X260343380Y-34393095D01*
X260819571Y-34345476D01*
X260771952Y-34393095D01*
X260724333Y-34488333D01*
X260724333Y-34726428D01*
X260771952Y-34821666D01*
X260819571Y-34869285D01*
X260914809Y-34916904D01*
X261152904Y-34916904D01*
X261248142Y-34869285D01*
X261295761Y-34821666D01*
X261343380Y-34726428D01*
X261343380Y-34488333D01*
X261295761Y-34393095D01*
X261248142Y-34345476D01*
%TO.C,D14*%
X242293380Y-32440714D02*
X241293380Y-32440714D01*
X241293380Y-32678809D01*
X241341000Y-32821666D01*
X241436238Y-32916904D01*
X241531476Y-32964523D01*
X241721952Y-33012142D01*
X241864809Y-33012142D01*
X242055285Y-32964523D01*
X242150523Y-32916904D01*
X242245761Y-32821666D01*
X242293380Y-32678809D01*
X242293380Y-32440714D01*
X242293380Y-33964523D02*
X242293380Y-33393095D01*
X242293380Y-33678809D02*
X241293380Y-33678809D01*
X241436238Y-33583571D01*
X241531476Y-33488333D01*
X241579095Y-33393095D01*
X241626714Y-34821666D02*
X242293380Y-34821666D01*
X241245761Y-34583571D02*
X241960047Y-34345476D01*
X241960047Y-34964523D01*
%TO.C,D13*%
X223243380Y-32440714D02*
X222243380Y-32440714D01*
X222243380Y-32678809D01*
X222291000Y-32821666D01*
X222386238Y-32916904D01*
X222481476Y-32964523D01*
X222671952Y-33012142D01*
X222814809Y-33012142D01*
X223005285Y-32964523D01*
X223100523Y-32916904D01*
X223195761Y-32821666D01*
X223243380Y-32678809D01*
X223243380Y-32440714D01*
X223243380Y-33964523D02*
X223243380Y-33393095D01*
X223243380Y-33678809D02*
X222243380Y-33678809D01*
X222386238Y-33583571D01*
X222481476Y-33488333D01*
X222529095Y-33393095D01*
X222243380Y-34297857D02*
X222243380Y-34916904D01*
X222624333Y-34583571D01*
X222624333Y-34726428D01*
X222671952Y-34821666D01*
X222719571Y-34869285D01*
X222814809Y-34916904D01*
X223052904Y-34916904D01*
X223148142Y-34869285D01*
X223195761Y-34821666D01*
X223243380Y-34726428D01*
X223243380Y-34440714D01*
X223195761Y-34345476D01*
X223148142Y-34297857D01*
%TO.C,D12*%
X204193380Y-32440714D02*
X203193380Y-32440714D01*
X203193380Y-32678809D01*
X203241000Y-32821666D01*
X203336238Y-32916904D01*
X203431476Y-32964523D01*
X203621952Y-33012142D01*
X203764809Y-33012142D01*
X203955285Y-32964523D01*
X204050523Y-32916904D01*
X204145761Y-32821666D01*
X204193380Y-32678809D01*
X204193380Y-32440714D01*
X204193380Y-33964523D02*
X204193380Y-33393095D01*
X204193380Y-33678809D02*
X203193380Y-33678809D01*
X203336238Y-33583571D01*
X203431476Y-33488333D01*
X203479095Y-33393095D01*
X203288619Y-34345476D02*
X203241000Y-34393095D01*
X203193380Y-34488333D01*
X203193380Y-34726428D01*
X203241000Y-34821666D01*
X203288619Y-34869285D01*
X203383857Y-34916904D01*
X203479095Y-34916904D01*
X203621952Y-34869285D01*
X204193380Y-34297857D01*
X204193380Y-34916904D01*
%TO.C,D11*%
X185143380Y-32440714D02*
X184143380Y-32440714D01*
X184143380Y-32678809D01*
X184191000Y-32821666D01*
X184286238Y-32916904D01*
X184381476Y-32964523D01*
X184571952Y-33012142D01*
X184714809Y-33012142D01*
X184905285Y-32964523D01*
X185000523Y-32916904D01*
X185095761Y-32821666D01*
X185143380Y-32678809D01*
X185143380Y-32440714D01*
X185143380Y-33964523D02*
X185143380Y-33393095D01*
X185143380Y-33678809D02*
X184143380Y-33678809D01*
X184286238Y-33583571D01*
X184381476Y-33488333D01*
X184429095Y-33393095D01*
X185143380Y-34916904D02*
X185143380Y-34345476D01*
X185143380Y-34631190D02*
X184143380Y-34631190D01*
X184286238Y-34535952D01*
X184381476Y-34440714D01*
X184429095Y-34345476D01*
%TO.C,D10*%
X166093380Y-32440714D02*
X165093380Y-32440714D01*
X165093380Y-32678809D01*
X165141000Y-32821666D01*
X165236238Y-32916904D01*
X165331476Y-32964523D01*
X165521952Y-33012142D01*
X165664809Y-33012142D01*
X165855285Y-32964523D01*
X165950523Y-32916904D01*
X166045761Y-32821666D01*
X166093380Y-32678809D01*
X166093380Y-32440714D01*
X166093380Y-33964523D02*
X166093380Y-33393095D01*
X166093380Y-33678809D02*
X165093380Y-33678809D01*
X165236238Y-33583571D01*
X165331476Y-33488333D01*
X165379095Y-33393095D01*
X165093380Y-34583571D02*
X165093380Y-34678809D01*
X165141000Y-34774047D01*
X165188619Y-34821666D01*
X165283857Y-34869285D01*
X165474333Y-34916904D01*
X165712428Y-34916904D01*
X165902904Y-34869285D01*
X165998142Y-34821666D01*
X166045761Y-34774047D01*
X166093380Y-34678809D01*
X166093380Y-34583571D01*
X166045761Y-34488333D01*
X165998142Y-34440714D01*
X165902904Y-34393095D01*
X165712428Y-34345476D01*
X165474333Y-34345476D01*
X165283857Y-34393095D01*
X165188619Y-34440714D01*
X165141000Y-34488333D01*
X165093380Y-34583571D01*
%TO.C,D9*%
X147043380Y-32916904D02*
X146043380Y-32916904D01*
X146043380Y-33155000D01*
X146091000Y-33297857D01*
X146186238Y-33393095D01*
X146281476Y-33440714D01*
X146471952Y-33488333D01*
X146614809Y-33488333D01*
X146805285Y-33440714D01*
X146900523Y-33393095D01*
X146995761Y-33297857D01*
X147043380Y-33155000D01*
X147043380Y-32916904D01*
X147043380Y-33964523D02*
X147043380Y-34155000D01*
X146995761Y-34250238D01*
X146948142Y-34297857D01*
X146805285Y-34393095D01*
X146614809Y-34440714D01*
X146233857Y-34440714D01*
X146138619Y-34393095D01*
X146091000Y-34345476D01*
X146043380Y-34250238D01*
X146043380Y-34059761D01*
X146091000Y-33964523D01*
X146138619Y-33916904D01*
X146233857Y-33869285D01*
X146471952Y-33869285D01*
X146567190Y-33916904D01*
X146614809Y-33964523D01*
X146662428Y-34059761D01*
X146662428Y-34250238D01*
X146614809Y-34345476D01*
X146567190Y-34393095D01*
X146471952Y-34440714D01*
%TO.C,D8*%
X127993380Y-32916904D02*
X126993380Y-32916904D01*
X126993380Y-33155000D01*
X127041000Y-33297857D01*
X127136238Y-33393095D01*
X127231476Y-33440714D01*
X127421952Y-33488333D01*
X127564809Y-33488333D01*
X127755285Y-33440714D01*
X127850523Y-33393095D01*
X127945761Y-33297857D01*
X127993380Y-33155000D01*
X127993380Y-32916904D01*
X127421952Y-34059761D02*
X127374333Y-33964523D01*
X127326714Y-33916904D01*
X127231476Y-33869285D01*
X127183857Y-33869285D01*
X127088619Y-33916904D01*
X127041000Y-33964523D01*
X126993380Y-34059761D01*
X126993380Y-34250238D01*
X127041000Y-34345476D01*
X127088619Y-34393095D01*
X127183857Y-34440714D01*
X127231476Y-34440714D01*
X127326714Y-34393095D01*
X127374333Y-34345476D01*
X127421952Y-34250238D01*
X127421952Y-34059761D01*
X127469571Y-33964523D01*
X127517190Y-33916904D01*
X127612428Y-33869285D01*
X127802904Y-33869285D01*
X127898142Y-33916904D01*
X127945761Y-33964523D01*
X127993380Y-34059761D01*
X127993380Y-34250238D01*
X127945761Y-34345476D01*
X127898142Y-34393095D01*
X127802904Y-34440714D01*
X127612428Y-34440714D01*
X127517190Y-34393095D01*
X127469571Y-34345476D01*
X127421952Y-34250238D01*
%TO.C,D7*%
X108943380Y-32916904D02*
X107943380Y-32916904D01*
X107943380Y-33155000D01*
X107991000Y-33297857D01*
X108086238Y-33393095D01*
X108181476Y-33440714D01*
X108371952Y-33488333D01*
X108514809Y-33488333D01*
X108705285Y-33440714D01*
X108800523Y-33393095D01*
X108895761Y-33297857D01*
X108943380Y-33155000D01*
X108943380Y-32916904D01*
X107943380Y-33821666D02*
X107943380Y-34488333D01*
X108943380Y-34059761D01*
%TO.C,D6*%
X89893380Y-32916904D02*
X88893380Y-32916904D01*
X88893380Y-33155000D01*
X88941000Y-33297857D01*
X89036238Y-33393095D01*
X89131476Y-33440714D01*
X89321952Y-33488333D01*
X89464809Y-33488333D01*
X89655285Y-33440714D01*
X89750523Y-33393095D01*
X89845761Y-33297857D01*
X89893380Y-33155000D01*
X89893380Y-32916904D01*
X88893380Y-34345476D02*
X88893380Y-34155000D01*
X88941000Y-34059761D01*
X88988619Y-34012142D01*
X89131476Y-33916904D01*
X89321952Y-33869285D01*
X89702904Y-33869285D01*
X89798142Y-33916904D01*
X89845761Y-33964523D01*
X89893380Y-34059761D01*
X89893380Y-34250238D01*
X89845761Y-34345476D01*
X89798142Y-34393095D01*
X89702904Y-34440714D01*
X89464809Y-34440714D01*
X89369571Y-34393095D01*
X89321952Y-34345476D01*
X89274333Y-34250238D01*
X89274333Y-34059761D01*
X89321952Y-33964523D01*
X89369571Y-33916904D01*
X89464809Y-33869285D01*
%TO.C,D5*%
X70843380Y-32916904D02*
X69843380Y-32916904D01*
X69843380Y-33155000D01*
X69891000Y-33297857D01*
X69986238Y-33393095D01*
X70081476Y-33440714D01*
X70271952Y-33488333D01*
X70414809Y-33488333D01*
X70605285Y-33440714D01*
X70700523Y-33393095D01*
X70795761Y-33297857D01*
X70843380Y-33155000D01*
X70843380Y-32916904D01*
X69843380Y-34393095D02*
X69843380Y-33916904D01*
X70319571Y-33869285D01*
X70271952Y-33916904D01*
X70224333Y-34012142D01*
X70224333Y-34250238D01*
X70271952Y-34345476D01*
X70319571Y-34393095D01*
X70414809Y-34440714D01*
X70652904Y-34440714D01*
X70748142Y-34393095D01*
X70795761Y-34345476D01*
X70843380Y-34250238D01*
X70843380Y-34012142D01*
X70795761Y-33916904D01*
X70748142Y-33869285D01*
%TO.C,D4*%
X51793380Y-32916904D02*
X50793380Y-32916904D01*
X50793380Y-33155000D01*
X50841000Y-33297857D01*
X50936238Y-33393095D01*
X51031476Y-33440714D01*
X51221952Y-33488333D01*
X51364809Y-33488333D01*
X51555285Y-33440714D01*
X51650523Y-33393095D01*
X51745761Y-33297857D01*
X51793380Y-33155000D01*
X51793380Y-32916904D01*
X51126714Y-34345476D02*
X51793380Y-34345476D01*
X50745761Y-34107380D02*
X51460047Y-33869285D01*
X51460047Y-34488333D01*
%TO.C,D3*%
X32743380Y-32916904D02*
X31743380Y-32916904D01*
X31743380Y-33155000D01*
X31791000Y-33297857D01*
X31886238Y-33393095D01*
X31981476Y-33440714D01*
X32171952Y-33488333D01*
X32314809Y-33488333D01*
X32505285Y-33440714D01*
X32600523Y-33393095D01*
X32695761Y-33297857D01*
X32743380Y-33155000D01*
X32743380Y-32916904D01*
X31743380Y-33821666D02*
X31743380Y-34440714D01*
X32124333Y-34107380D01*
X32124333Y-34250238D01*
X32171952Y-34345476D01*
X32219571Y-34393095D01*
X32314809Y-34440714D01*
X32552904Y-34440714D01*
X32648142Y-34393095D01*
X32695761Y-34345476D01*
X32743380Y-34250238D01*
X32743380Y-33964523D01*
X32695761Y-33869285D01*
X32648142Y-33821666D01*
%TO.C,R7*%
X205446666Y-105542380D02*
X205780000Y-105066190D01*
X206018095Y-105542380D02*
X206018095Y-104542380D01*
X205637142Y-104542380D01*
X205541904Y-104590000D01*
X205494285Y-104637619D01*
X205446666Y-104732857D01*
X205446666Y-104875714D01*
X205494285Y-104970952D01*
X205541904Y-105018571D01*
X205637142Y-105066190D01*
X206018095Y-105066190D01*
X205113333Y-104542380D02*
X204446666Y-104542380D01*
X204875238Y-105542380D01*
%TO.C,R6*%
X205466666Y-104402380D02*
X205800000Y-103926190D01*
X206038095Y-104402380D02*
X206038095Y-103402380D01*
X205657142Y-103402380D01*
X205561904Y-103450000D01*
X205514285Y-103497619D01*
X205466666Y-103592857D01*
X205466666Y-103735714D01*
X205514285Y-103830952D01*
X205561904Y-103878571D01*
X205657142Y-103926190D01*
X206038095Y-103926190D01*
X204609523Y-103402380D02*
X204800000Y-103402380D01*
X204895238Y-103450000D01*
X204942857Y-103497619D01*
X205038095Y-103640476D01*
X205085714Y-103830952D01*
X205085714Y-104211904D01*
X205038095Y-104307142D01*
X204990476Y-104354761D01*
X204895238Y-104402380D01*
X204704761Y-104402380D01*
X204609523Y-104354761D01*
X204561904Y-104307142D01*
X204514285Y-104211904D01*
X204514285Y-103973809D01*
X204561904Y-103878571D01*
X204609523Y-103830952D01*
X204704761Y-103783333D01*
X204895238Y-103783333D01*
X204990476Y-103830952D01*
X205038095Y-103878571D01*
X205085714Y-103973809D01*
%TO.C,R5*%
X33185380Y-30631333D02*
X32709190Y-30298000D01*
X33185380Y-30059904D02*
X32185380Y-30059904D01*
X32185380Y-30440857D01*
X32233000Y-30536095D01*
X32280619Y-30583714D01*
X32375857Y-30631333D01*
X32518714Y-30631333D01*
X32613952Y-30583714D01*
X32661571Y-30536095D01*
X32709190Y-30440857D01*
X32709190Y-30059904D01*
X32185380Y-31536095D02*
X32185380Y-31059904D01*
X32661571Y-31012285D01*
X32613952Y-31059904D01*
X32566333Y-31155142D01*
X32566333Y-31393238D01*
X32613952Y-31488476D01*
X32661571Y-31536095D01*
X32756809Y-31583714D01*
X32994904Y-31583714D01*
X33090142Y-31536095D01*
X33137761Y-31488476D01*
X33185380Y-31393238D01*
X33185380Y-31155142D01*
X33137761Y-31059904D01*
X33090142Y-31012285D01*
%TO.C,R4*%
X40678380Y-30567333D02*
X40202190Y-30234000D01*
X40678380Y-29995904D02*
X39678380Y-29995904D01*
X39678380Y-30376857D01*
X39726000Y-30472095D01*
X39773619Y-30519714D01*
X39868857Y-30567333D01*
X40011714Y-30567333D01*
X40106952Y-30519714D01*
X40154571Y-30472095D01*
X40202190Y-30376857D01*
X40202190Y-29995904D01*
X40011714Y-31424476D02*
X40678380Y-31424476D01*
X39630761Y-31186380D02*
X40345047Y-30948285D01*
X40345047Y-31567333D01*
%TO.C,R3*%
X135740380Y-96480333D02*
X135264190Y-96147000D01*
X135740380Y-95908904D02*
X134740380Y-95908904D01*
X134740380Y-96289857D01*
X134788000Y-96385095D01*
X134835619Y-96432714D01*
X134930857Y-96480333D01*
X135073714Y-96480333D01*
X135168952Y-96432714D01*
X135216571Y-96385095D01*
X135264190Y-96289857D01*
X135264190Y-95908904D01*
X134740380Y-96813666D02*
X134740380Y-97432714D01*
X135121333Y-97099380D01*
X135121333Y-97242238D01*
X135168952Y-97337476D01*
X135216571Y-97385095D01*
X135311809Y-97432714D01*
X135549904Y-97432714D01*
X135645142Y-97385095D01*
X135692761Y-97337476D01*
X135740380Y-97242238D01*
X135740380Y-96956523D01*
X135692761Y-96861285D01*
X135645142Y-96813666D01*
%TO.C,R2*%
X153708380Y-93813333D02*
X153232190Y-93480000D01*
X153708380Y-93241904D02*
X152708380Y-93241904D01*
X152708380Y-93622857D01*
X152756000Y-93718095D01*
X152803619Y-93765714D01*
X152898857Y-93813333D01*
X153041714Y-93813333D01*
X153136952Y-93765714D01*
X153184571Y-93718095D01*
X153232190Y-93622857D01*
X153232190Y-93241904D01*
X152803619Y-94194285D02*
X152756000Y-94241904D01*
X152708380Y-94337142D01*
X152708380Y-94575238D01*
X152756000Y-94670476D01*
X152803619Y-94718095D01*
X152898857Y-94765714D01*
X152994095Y-94765714D01*
X153136952Y-94718095D01*
X153708380Y-94146666D01*
X153708380Y-94765714D01*
%TO.C,R1*%
X147867666Y-102085380D02*
X148201000Y-101609190D01*
X148439095Y-102085380D02*
X148439095Y-101085380D01*
X148058142Y-101085380D01*
X147962904Y-101133000D01*
X147915285Y-101180619D01*
X147867666Y-101275857D01*
X147867666Y-101418714D01*
X147915285Y-101513952D01*
X147962904Y-101561571D01*
X148058142Y-101609190D01*
X148439095Y-101609190D01*
X146915285Y-102085380D02*
X147486714Y-102085380D01*
X147201000Y-102085380D02*
X147201000Y-101085380D01*
X147296238Y-101228238D01*
X147391476Y-101323476D01*
X147486714Y-101371095D01*
%TO.C,U4*%
X40198380Y-29845095D02*
X41007904Y-29845095D01*
X41103142Y-29892714D01*
X41150761Y-29940333D01*
X41198380Y-30035571D01*
X41198380Y-30226047D01*
X41150761Y-30321285D01*
X41103142Y-30368904D01*
X41007904Y-30416523D01*
X40198380Y-30416523D01*
X40531714Y-31321285D02*
X41198380Y-31321285D01*
X40150761Y-31083190D02*
X40865047Y-30845095D01*
X40865047Y-31464142D01*
%TO.C,U3*%
X206999996Y-95843460D02*
X206427576Y-96415880D01*
X206326561Y-96449552D01*
X206259217Y-96449552D01*
X206158202Y-96415880D01*
X206023515Y-96281193D01*
X205989843Y-96180178D01*
X205989843Y-96112834D01*
X206023515Y-96011819D01*
X206595935Y-95439399D01*
X206326561Y-95170025D02*
X205888828Y-94732293D01*
X205855156Y-95237369D01*
X205754141Y-95136354D01*
X205653126Y-95102682D01*
X205585782Y-95102682D01*
X205484767Y-95136354D01*
X205316408Y-95304712D01*
X205282736Y-95405728D01*
X205282736Y-95473071D01*
X205316408Y-95574086D01*
X205518439Y-95776117D01*
X205619454Y-95809789D01*
X205686797Y-95809789D01*
%TO.C,U2*%
X141223904Y-93707380D02*
X141223904Y-94516904D01*
X141176285Y-94612142D01*
X141128666Y-94659761D01*
X141033428Y-94707380D01*
X140842952Y-94707380D01*
X140747714Y-94659761D01*
X140700095Y-94612142D01*
X140652476Y-94516904D01*
X140652476Y-93707380D01*
X140223904Y-93802619D02*
X140176285Y-93755000D01*
X140081047Y-93707380D01*
X139842952Y-93707380D01*
X139747714Y-93755000D01*
X139700095Y-93802619D01*
X139652476Y-93897857D01*
X139652476Y-93993095D01*
X139700095Y-94135952D01*
X140271523Y-94707380D01*
X139652476Y-94707380D01*
%TO.C,U1*%
X153863380Y-96393095D02*
X154672904Y-96393095D01*
X154768142Y-96440714D01*
X154815761Y-96488333D01*
X154863380Y-96583571D01*
X154863380Y-96774047D01*
X154815761Y-96869285D01*
X154768142Y-96916904D01*
X154672904Y-96964523D01*
X153863380Y-96964523D01*
X154863380Y-97964523D02*
X154863380Y-97393095D01*
X154863380Y-97678809D02*
X153863380Y-97678809D01*
X154006238Y-97583571D01*
X154101476Y-97488333D01*
X154149095Y-97393095D01*
%TO.C,Q1*%
X138636619Y-101123761D02*
X138589000Y-101028523D01*
X138493761Y-100933285D01*
X138350904Y-100790428D01*
X138303285Y-100695190D01*
X138303285Y-100599952D01*
X138541380Y-100647571D02*
X138493761Y-100552333D01*
X138398523Y-100457095D01*
X138208047Y-100409476D01*
X137874714Y-100409476D01*
X137684238Y-100457095D01*
X137589000Y-100552333D01*
X137541380Y-100647571D01*
X137541380Y-100838047D01*
X137589000Y-100933285D01*
X137684238Y-101028523D01*
X137874714Y-101076142D01*
X138208047Y-101076142D01*
X138398523Y-101028523D01*
X138493761Y-100933285D01*
X138541380Y-100838047D01*
X138541380Y-100647571D01*
X138541380Y-102028523D02*
X138541380Y-101457095D01*
X138541380Y-101742809D02*
X137541380Y-101742809D01*
X137684238Y-101647571D01*
X137779476Y-101552333D01*
X137827095Y-101457095D01*
%TO.C,J1*%
X37925333Y-24655380D02*
X37925333Y-25369666D01*
X37972952Y-25512523D01*
X38068190Y-25607761D01*
X38211047Y-25655380D01*
X38306285Y-25655380D01*
X36925333Y-25655380D02*
X37496761Y-25655380D01*
X37211047Y-25655380D02*
X37211047Y-24655380D01*
X37306285Y-24798238D01*
X37401523Y-24893476D01*
X37496761Y-24941095D01*
%TO.C,D2*%
X136247095Y-98401380D02*
X136247095Y-97401380D01*
X136009000Y-97401380D01*
X135866142Y-97449000D01*
X135770904Y-97544238D01*
X135723285Y-97639476D01*
X135675666Y-97829952D01*
X135675666Y-97972809D01*
X135723285Y-98163285D01*
X135770904Y-98258523D01*
X135866142Y-98353761D01*
X136009000Y-98401380D01*
X136247095Y-98401380D01*
X135294714Y-97496619D02*
X135247095Y-97449000D01*
X135151857Y-97401380D01*
X134913761Y-97401380D01*
X134818523Y-97449000D01*
X134770904Y-97496619D01*
X134723285Y-97591857D01*
X134723285Y-97687095D01*
X134770904Y-97829952D01*
X135342333Y-98401380D01*
X134723285Y-98401380D01*
%TO.C,D1*%
X149676380Y-96289904D02*
X148676380Y-96289904D01*
X148676380Y-96528000D01*
X148724000Y-96670857D01*
X148819238Y-96766095D01*
X148914476Y-96813714D01*
X149104952Y-96861333D01*
X149247809Y-96861333D01*
X149438285Y-96813714D01*
X149533523Y-96766095D01*
X149628761Y-96670857D01*
X149676380Y-96528000D01*
X149676380Y-96289904D01*
X149676380Y-97813714D02*
X149676380Y-97242285D01*
X149676380Y-97528000D02*
X148676380Y-97528000D01*
X148819238Y-97432761D01*
X148914476Y-97337523D01*
X148962095Y-97242285D01*
%TO.C,C1*%
X146817142Y-96861333D02*
X146864761Y-96813714D01*
X146912380Y-96670857D01*
X146912380Y-96575619D01*
X146864761Y-96432761D01*
X146769523Y-96337523D01*
X146674285Y-96289904D01*
X146483809Y-96242285D01*
X146340952Y-96242285D01*
X146150476Y-96289904D01*
X146055238Y-96337523D01*
X145960000Y-96432761D01*
X145912380Y-96575619D01*
X145912380Y-96670857D01*
X145960000Y-96813714D01*
X146007619Y-96861333D01*
X146912380Y-97813714D02*
X146912380Y-97242285D01*
X146912380Y-97528000D02*
X145912380Y-97528000D01*
X146055238Y-97432761D01*
X146150476Y-97337523D01*
X146198095Y-97242285D01*
%TD*%
M02*
