%TF.GenerationSoftware,KiCad,Pcbnew,5.1.10*%
%TF.CreationDate,2021-06-03T13:30:51+02:00*%
%TF.ProjectId,ptm-60nrf,70746d2d-3630-46e7-9266-2e6b69636164,rev?*%
%TF.SameCoordinates,Original*%
%TF.FileFunction,Legend,Top*%
%TF.FilePolarity,Positive*%
%FSLAX46Y46*%
G04 Gerber Fmt 4.6, Leading zero omitted, Abs format (unit mm)*
G04 Created by KiCad (PCBNEW 5.1.10) date 2021-06-03 13:30:51*
%MOMM*%
%LPD*%
G01*
G04 APERTURE LIST*
%ADD10C,0.150000*%
%ADD11C,0.120000*%
%ADD12C,0.010000*%
G04 APERTURE END LIST*
D10*
X175346666Y-94012380D02*
X175680000Y-95012380D01*
X176013333Y-94012380D01*
X176346666Y-95012380D02*
X176346666Y-94012380D01*
X176584761Y-94012380D01*
X176727619Y-94060000D01*
X176822857Y-94155238D01*
X176870476Y-94250476D01*
X176918095Y-94440952D01*
X176918095Y-94583809D01*
X176870476Y-94774285D01*
X176822857Y-94869523D01*
X176727619Y-94964761D01*
X176584761Y-95012380D01*
X176346666Y-95012380D01*
X177346666Y-95012380D02*
X177346666Y-94012380D01*
X177584761Y-94012380D01*
X177727619Y-94060000D01*
X177822857Y-94155238D01*
X177870476Y-94250476D01*
X177918095Y-94440952D01*
X177918095Y-94583809D01*
X177870476Y-94774285D01*
X177822857Y-94869523D01*
X177727619Y-94964761D01*
X177584761Y-95012380D01*
X177346666Y-95012380D01*
X175898095Y-101690000D02*
X175802857Y-101642380D01*
X175660000Y-101642380D01*
X175517142Y-101690000D01*
X175421904Y-101785238D01*
X175374285Y-101880476D01*
X175326666Y-102070952D01*
X175326666Y-102213809D01*
X175374285Y-102404285D01*
X175421904Y-102499523D01*
X175517142Y-102594761D01*
X175660000Y-102642380D01*
X175755238Y-102642380D01*
X175898095Y-102594761D01*
X175945714Y-102547142D01*
X175945714Y-102213809D01*
X175755238Y-102213809D01*
X176374285Y-102642380D02*
X176374285Y-101642380D01*
X176945714Y-102642380D01*
X176945714Y-101642380D01*
X177421904Y-102642380D02*
X177421904Y-101642380D01*
X177660000Y-101642380D01*
X177802857Y-101690000D01*
X177898095Y-101785238D01*
X177945714Y-101880476D01*
X177993333Y-102070952D01*
X177993333Y-102213809D01*
X177945714Y-102404285D01*
X177898095Y-102499523D01*
X177802857Y-102594761D01*
X177660000Y-102642380D01*
X177421904Y-102642380D01*
X175352857Y-97524761D02*
X175495714Y-97572380D01*
X175733809Y-97572380D01*
X175829047Y-97524761D01*
X175876666Y-97477142D01*
X175924285Y-97381904D01*
X175924285Y-97286666D01*
X175876666Y-97191428D01*
X175829047Y-97143809D01*
X175733809Y-97096190D01*
X175543333Y-97048571D01*
X175448095Y-97000952D01*
X175400476Y-96953333D01*
X175352857Y-96858095D01*
X175352857Y-96762857D01*
X175400476Y-96667619D01*
X175448095Y-96620000D01*
X175543333Y-96572380D01*
X175781428Y-96572380D01*
X175924285Y-96620000D01*
X176257619Y-96572380D02*
X176495714Y-97572380D01*
X176686190Y-96858095D01*
X176876666Y-97572380D01*
X177114761Y-96572380D01*
X178067142Y-97477142D02*
X178019523Y-97524761D01*
X177876666Y-97572380D01*
X177781428Y-97572380D01*
X177638571Y-97524761D01*
X177543333Y-97429523D01*
X177495714Y-97334285D01*
X177448095Y-97143809D01*
X177448095Y-97000952D01*
X177495714Y-96810476D01*
X177543333Y-96715238D01*
X177638571Y-96620000D01*
X177781428Y-96572380D01*
X177876666Y-96572380D01*
X178019523Y-96620000D01*
X178067142Y-96667619D01*
X175322857Y-100064761D02*
X175465714Y-100112380D01*
X175703809Y-100112380D01*
X175799047Y-100064761D01*
X175846666Y-100017142D01*
X175894285Y-99921904D01*
X175894285Y-99826666D01*
X175846666Y-99731428D01*
X175799047Y-99683809D01*
X175703809Y-99636190D01*
X175513333Y-99588571D01*
X175418095Y-99540952D01*
X175370476Y-99493333D01*
X175322857Y-99398095D01*
X175322857Y-99302857D01*
X175370476Y-99207619D01*
X175418095Y-99160000D01*
X175513333Y-99112380D01*
X175751428Y-99112380D01*
X175894285Y-99160000D01*
X176227619Y-99112380D02*
X176465714Y-100112380D01*
X176656190Y-99398095D01*
X176846666Y-100112380D01*
X177084761Y-99112380D01*
X177465714Y-100112380D02*
X177465714Y-99112380D01*
X177703809Y-99112380D01*
X177846666Y-99160000D01*
X177941904Y-99255238D01*
X177989523Y-99350476D01*
X178037142Y-99540952D01*
X178037142Y-99683809D01*
X177989523Y-99874285D01*
X177941904Y-99969523D01*
X177846666Y-100064761D01*
X177703809Y-100112380D01*
X177465714Y-100112380D01*
X124422380Y-104197380D02*
X124422380Y-103197380D01*
X124803333Y-103197380D01*
X124898571Y-103245000D01*
X124946190Y-103292619D01*
X124993809Y-103387857D01*
X124993809Y-103530714D01*
X124946190Y-103625952D01*
X124898571Y-103673571D01*
X124803333Y-103721190D01*
X124422380Y-103721190D01*
X125898571Y-104197380D02*
X125422380Y-104197380D01*
X125422380Y-103197380D01*
X126184285Y-103911666D02*
X126660476Y-103911666D01*
X126089047Y-104197380D02*
X126422380Y-103197380D01*
X126755714Y-104197380D01*
X127660476Y-104102142D02*
X127612857Y-104149761D01*
X127470000Y-104197380D01*
X127374761Y-104197380D01*
X127231904Y-104149761D01*
X127136666Y-104054523D01*
X127089047Y-103959285D01*
X127041428Y-103768809D01*
X127041428Y-103625952D01*
X127089047Y-103435476D01*
X127136666Y-103340238D01*
X127231904Y-103245000D01*
X127374761Y-103197380D01*
X127470000Y-103197380D01*
X127612857Y-103245000D01*
X127660476Y-103292619D01*
X128089047Y-103673571D02*
X128422380Y-103673571D01*
X128565238Y-104197380D02*
X128089047Y-104197380D01*
X128089047Y-103197380D01*
X128565238Y-103197380D01*
X121660476Y-105323571D02*
X121803333Y-105371190D01*
X121850952Y-105418809D01*
X121898571Y-105514047D01*
X121898571Y-105656904D01*
X121850952Y-105752142D01*
X121803333Y-105799761D01*
X121708095Y-105847380D01*
X121327142Y-105847380D01*
X121327142Y-104847380D01*
X121660476Y-104847380D01*
X121755714Y-104895000D01*
X121803333Y-104942619D01*
X121850952Y-105037857D01*
X121850952Y-105133095D01*
X121803333Y-105228333D01*
X121755714Y-105275952D01*
X121660476Y-105323571D01*
X121327142Y-105323571D01*
X122279523Y-105561666D02*
X122755714Y-105561666D01*
X122184285Y-105847380D02*
X122517619Y-104847380D01*
X122850952Y-105847380D01*
X123041428Y-104847380D02*
X123612857Y-104847380D01*
X123327142Y-105847380D02*
X123327142Y-104847380D01*
X123803333Y-104847380D02*
X124374761Y-104847380D01*
X124089047Y-105847380D02*
X124089047Y-104847380D01*
X124708095Y-105323571D02*
X125041428Y-105323571D01*
X125184285Y-105847380D02*
X124708095Y-105847380D01*
X124708095Y-104847380D01*
X125184285Y-104847380D01*
X126184285Y-105847380D02*
X125850952Y-105371190D01*
X125612857Y-105847380D02*
X125612857Y-104847380D01*
X125993809Y-104847380D01*
X126089047Y-104895000D01*
X126136666Y-104942619D01*
X126184285Y-105037857D01*
X126184285Y-105180714D01*
X126136666Y-105275952D01*
X126089047Y-105323571D01*
X125993809Y-105371190D01*
X125612857Y-105371190D01*
X126803333Y-105371190D02*
X126803333Y-105847380D01*
X126470000Y-104847380D02*
X126803333Y-105371190D01*
X127136666Y-104847380D01*
X128231904Y-105847380D02*
X128231904Y-104847380D01*
X128231904Y-105323571D02*
X128803333Y-105323571D01*
X128803333Y-105847380D02*
X128803333Y-104847380D01*
X129279523Y-105323571D02*
X129612857Y-105323571D01*
X129755714Y-105847380D02*
X129279523Y-105847380D01*
X129279523Y-104847380D01*
X129755714Y-104847380D01*
X130755714Y-105847380D02*
X130422380Y-105371190D01*
X130184285Y-105847380D02*
X130184285Y-104847380D01*
X130565238Y-104847380D01*
X130660476Y-104895000D01*
X130708095Y-104942619D01*
X130755714Y-105037857D01*
X130755714Y-105180714D01*
X130708095Y-105275952D01*
X130660476Y-105323571D01*
X130565238Y-105371190D01*
X130184285Y-105371190D01*
X131184285Y-105323571D02*
X131517619Y-105323571D01*
X131660476Y-105847380D02*
X131184285Y-105847380D01*
X131184285Y-104847380D01*
X131660476Y-104847380D01*
D11*
X142060000Y-110360000D02*
X110780000Y-110360000D01*
X142080000Y-98050000D02*
X142070000Y-110370000D01*
X110770000Y-98050000D02*
X142080000Y-98050000D01*
D10*
X110780000Y-98060000D02*
X110790000Y-110340000D01*
D12*
%TO.C,G\u002A\u002A\u002A*%
G36*
X224395887Y-98130891D02*
G01*
X224516394Y-98294611D01*
X224543769Y-98340334D01*
X224622547Y-98489769D01*
X224679912Y-98625008D01*
X224704321Y-98718538D01*
X224704505Y-98723450D01*
X224721401Y-98823103D01*
X224749645Y-98875711D01*
X224774376Y-98935376D01*
X224803070Y-99057524D01*
X224831006Y-99220418D01*
X224842129Y-99301673D01*
X224890302Y-99683323D01*
X225083568Y-99602566D01*
X225216655Y-99543813D01*
X225328718Y-99489052D01*
X225361500Y-99470846D01*
X225442732Y-99448441D01*
X225602053Y-99429763D01*
X225832946Y-99415358D01*
X226128894Y-99405771D01*
X226141256Y-99405511D01*
X226401426Y-99400811D01*
X226592209Y-99400061D01*
X226728850Y-99404678D01*
X226826592Y-99416080D01*
X226900678Y-99435684D01*
X226966351Y-99464908D01*
X227004806Y-99485819D01*
X227121601Y-99542676D01*
X227199293Y-99553011D01*
X227251058Y-99531916D01*
X227351345Y-99495562D01*
X227453178Y-99483333D01*
X227586961Y-99445191D01*
X227734030Y-99339943D01*
X227882615Y-99181359D01*
X228020946Y-98983207D01*
X228137254Y-98759257D01*
X228190893Y-98620266D01*
X228274197Y-98423535D01*
X228374786Y-98266143D01*
X228481037Y-98162957D01*
X228575279Y-98128667D01*
X228676240Y-98154391D01*
X228784927Y-98216544D01*
X228788259Y-98219134D01*
X228853945Y-98279020D01*
X228885474Y-98343508D01*
X228891532Y-98441979D01*
X228885240Y-98547217D01*
X228856567Y-98722706D01*
X228802224Y-98918941D01*
X228758758Y-99034381D01*
X228670042Y-99217688D01*
X228564410Y-99404432D01*
X228453268Y-99577615D01*
X228348021Y-99720240D01*
X228260075Y-99815311D01*
X228215256Y-99844355D01*
X228148847Y-99882422D01*
X228134334Y-99909520D01*
X228100586Y-99945754D01*
X228078458Y-99949000D01*
X228014115Y-99975394D01*
X227920598Y-100041438D01*
X227887451Y-100069646D01*
X227804788Y-100147567D01*
X227778114Y-100198571D01*
X227799856Y-100251669D01*
X227829418Y-100291896D01*
X227980726Y-100518038D01*
X228073099Y-100729520D01*
X228119048Y-100957114D01*
X228124584Y-101017917D01*
X228138332Y-101170024D01*
X228156246Y-101256019D01*
X228185769Y-101294391D01*
X228234344Y-101303632D01*
X228239595Y-101303667D01*
X228356358Y-101334925D01*
X228495447Y-101416509D01*
X228629581Y-101530135D01*
X228701941Y-101613528D01*
X228741591Y-101678340D01*
X228768796Y-101758463D01*
X228786606Y-101872024D01*
X228798076Y-102037154D01*
X228804934Y-102225204D01*
X228802359Y-102626593D01*
X228766899Y-102973506D01*
X228695371Y-103290749D01*
X228650315Y-103431169D01*
X228610389Y-103564479D01*
X228605747Y-103650959D01*
X228632308Y-103716344D01*
X228666615Y-103813099D01*
X228684098Y-103944202D01*
X228684667Y-103970092D01*
X228689371Y-104078810D01*
X228716544Y-104127225D01*
X228785776Y-104139652D01*
X228821554Y-104140000D01*
X228932018Y-104121628D01*
X229081467Y-104073858D01*
X229213137Y-104018160D01*
X229457237Y-103911037D01*
X229717684Y-103812733D01*
X229962140Y-103734730D01*
X230124000Y-103694751D01*
X230377015Y-103615880D01*
X230629851Y-103487063D01*
X230694622Y-103444566D01*
X230901655Y-103308902D01*
X231074435Y-103218374D01*
X231240780Y-103160536D01*
X231405454Y-103126550D01*
X231529623Y-103101982D01*
X231616087Y-103076439D01*
X231635780Y-103065665D01*
X231631425Y-103017308D01*
X231594767Y-102913878D01*
X231533133Y-102775122D01*
X231511784Y-102731397D01*
X231392523Y-102489734D01*
X231306189Y-102303272D01*
X231247466Y-102151675D01*
X231211037Y-102014609D01*
X231191583Y-101871738D01*
X231183788Y-101702725D01*
X231183371Y-101640876D01*
X231309151Y-101640876D01*
X231311132Y-101760777D01*
X231319073Y-101866110D01*
X231336769Y-101968147D01*
X231368014Y-102078159D01*
X231416605Y-102207417D01*
X231486335Y-102367193D01*
X231581001Y-102568757D01*
X231704397Y-102823381D01*
X231860319Y-103142336D01*
X231872046Y-103166334D01*
X232039835Y-103519625D01*
X232166343Y-103807999D01*
X232250577Y-104029052D01*
X232291546Y-104180383D01*
X232291862Y-104182334D01*
X232321401Y-104371417D01*
X232352306Y-104574974D01*
X232363126Y-104648000D01*
X232394871Y-104799448D01*
X232448561Y-104992966D01*
X232513915Y-105192330D01*
X232530627Y-105238186D01*
X232590720Y-105409161D01*
X232636753Y-105559106D01*
X232661595Y-105663974D01*
X232664000Y-105687866D01*
X232676803Y-105770972D01*
X232710702Y-105907396D01*
X232758928Y-106070507D01*
X232769834Y-106104405D01*
X232820207Y-106270491D01*
X232857572Y-106416115D01*
X232875130Y-106514222D01*
X232875667Y-106525639D01*
X232893686Y-106612335D01*
X232940815Y-106744588D01*
X233003581Y-106886727D01*
X233080195Y-107032371D01*
X233138797Y-107110107D01*
X233189341Y-107131945D01*
X233204665Y-107129320D01*
X233293678Y-107107933D01*
X233418598Y-107082933D01*
X233442190Y-107078661D01*
X233541019Y-107055312D01*
X233563418Y-107031272D01*
X233540615Y-107012577D01*
X233478032Y-106945132D01*
X233428574Y-106838520D01*
X233402597Y-106726036D01*
X233410456Y-106640975D01*
X233420459Y-106626274D01*
X233463378Y-106618335D01*
X233513492Y-106683390D01*
X233534580Y-106725422D01*
X233610253Y-106886749D01*
X233664914Y-106986421D01*
X233717167Y-107037611D01*
X233785613Y-107053491D01*
X233888855Y-107047233D01*
X233976334Y-107038224D01*
X234147717Y-107018336D01*
X234308211Y-106994615D01*
X234399667Y-106977197D01*
X234515060Y-106953603D01*
X234680106Y-106923369D01*
X234860770Y-106892707D01*
X234875917Y-106890255D01*
X235204000Y-106837357D01*
X235203739Y-106472928D01*
X235195052Y-106243778D01*
X235170566Y-106073202D01*
X235143906Y-105994311D01*
X235088782Y-105863125D01*
X235020837Y-105659264D01*
X234943228Y-105393198D01*
X234859107Y-105075398D01*
X234821161Y-104923167D01*
X234773032Y-104741053D01*
X234705710Y-104505654D01*
X234627148Y-104243881D01*
X234545296Y-103982646D01*
X234521989Y-103910557D01*
X234448551Y-103681443D01*
X234383070Y-103470101D01*
X234330931Y-103294445D01*
X234297521Y-103172394D01*
X234289603Y-103137506D01*
X234261396Y-103034865D01*
X234228361Y-102974950D01*
X234225534Y-102972868D01*
X234190881Y-102914599D01*
X234188000Y-102889923D01*
X234171241Y-102821246D01*
X234127824Y-102704641D01*
X234081250Y-102596797D01*
X234017970Y-102446327D01*
X233968105Y-102306089D01*
X233948782Y-102234828D01*
X233919699Y-102137099D01*
X233886199Y-102083454D01*
X233852174Y-102025614D01*
X233849334Y-102000923D01*
X233834931Y-101935359D01*
X233790309Y-101816341D01*
X233713346Y-101639075D01*
X233601921Y-101398768D01*
X233453913Y-101090627D01*
X233374181Y-100927277D01*
X233117141Y-100402720D01*
X232731820Y-100431566D01*
X232407465Y-100456353D01*
X232155413Y-100478760D01*
X231963537Y-100502730D01*
X231819711Y-100532209D01*
X231711807Y-100571141D01*
X231627700Y-100623469D01*
X231555262Y-100693139D01*
X231482366Y-100784093D01*
X231430136Y-100854935D01*
X231377436Y-100931357D01*
X231342814Y-101001792D01*
X231322483Y-101086306D01*
X231312658Y-101204968D01*
X231309551Y-101377845D01*
X231309334Y-101495137D01*
X231309151Y-101640876D01*
X231183371Y-101640876D01*
X231182335Y-101487237D01*
X231182334Y-101471420D01*
X231182334Y-100930270D01*
X231344634Y-100725385D01*
X231442958Y-100606044D01*
X231530084Y-100508434D01*
X231575654Y-100463905D01*
X231646653Y-100435681D01*
X231784478Y-100404737D01*
X231971436Y-100373370D01*
X232189834Y-100343877D01*
X232421980Y-100318555D01*
X232650181Y-100299701D01*
X232856744Y-100289612D01*
X232926314Y-100288553D01*
X233209795Y-100287667D01*
X233483832Y-100848584D01*
X233648755Y-101188761D01*
X233777101Y-101459625D01*
X233871428Y-101666941D01*
X233934293Y-101816474D01*
X233968255Y-101913990D01*
X233976334Y-101958590D01*
X233999047Y-102027771D01*
X234013199Y-102041121D01*
X234046881Y-102095206D01*
X234075782Y-102192495D01*
X234107877Y-102302636D01*
X234163275Y-102450029D01*
X234208250Y-102554463D01*
X234265494Y-102688990D01*
X234304238Y-102797993D01*
X234315000Y-102847590D01*
X234338151Y-102917058D01*
X234352534Y-102930534D01*
X234385270Y-102984498D01*
X234414555Y-103084728D01*
X234416603Y-103095173D01*
X234438834Y-103184309D01*
X234482440Y-103335855D01*
X234542036Y-103531895D01*
X234612236Y-103754513D01*
X234648989Y-103868223D01*
X234730308Y-104124244D01*
X234810656Y-104388638D01*
X234882083Y-104634493D01*
X234936634Y-104834897D01*
X234948203Y-104880834D01*
X235028487Y-105200796D01*
X235096194Y-105452071D01*
X235155566Y-105648950D01*
X235210851Y-105805724D01*
X235253403Y-105908323D01*
X235292352Y-106013986D01*
X235315116Y-106131424D01*
X235324314Y-106284028D01*
X235322562Y-106495190D01*
X235321888Y-106520346D01*
X235309834Y-106951545D01*
X235140500Y-106986896D01*
X234865654Y-107038743D01*
X234545289Y-107088398D01*
X234163932Y-107138146D01*
X233934000Y-107165081D01*
X233717636Y-107190694D01*
X233519805Y-107216032D01*
X233362397Y-107238169D01*
X233267355Y-107254169D01*
X233124763Y-107257297D01*
X233061527Y-107226482D01*
X232998371Y-107147799D01*
X232922417Y-107017334D01*
X232847051Y-106863268D01*
X232785662Y-106713779D01*
X232751639Y-106597047D01*
X232748667Y-106567973D01*
X232735826Y-106482456D01*
X232701836Y-106344075D01*
X232653494Y-106179887D01*
X232642834Y-106146738D01*
X232592484Y-105980935D01*
X232555126Y-105835884D01*
X232537546Y-105738493D01*
X232537000Y-105727137D01*
X232520173Y-105630661D01*
X232471942Y-105467254D01*
X232395684Y-105247176D01*
X232294776Y-104980689D01*
X232274104Y-104928202D01*
X232225799Y-104806237D01*
X231905150Y-104837419D01*
X231723576Y-104853871D01*
X231492554Y-104873088D01*
X231247115Y-104892219D01*
X231097667Y-104903170D01*
X230762874Y-104929500D01*
X230501760Y-104956661D01*
X230303347Y-104986854D01*
X230156660Y-105022284D01*
X230050720Y-105065152D01*
X229974552Y-105117662D01*
X229959957Y-105131468D01*
X229922127Y-105172313D01*
X229891751Y-105217637D01*
X229866944Y-105278181D01*
X229845821Y-105364688D01*
X229826497Y-105487898D01*
X229807085Y-105658552D01*
X229785702Y-105887393D01*
X229760461Y-106185161D01*
X229747602Y-106341334D01*
X229718541Y-106663919D01*
X229688496Y-106915332D01*
X229653929Y-107109029D01*
X229611302Y-107258466D01*
X229557077Y-107377098D01*
X229487715Y-107478382D01*
X229431782Y-107542415D01*
X229297845Y-107662062D01*
X229126342Y-107784350D01*
X228981000Y-107868579D01*
X228824647Y-107951068D01*
X228682567Y-108032444D01*
X228588353Y-108093153D01*
X228508479Y-108177419D01*
X228419870Y-108308221D01*
X228338531Y-108456691D01*
X228280468Y-108593960D01*
X228261334Y-108683028D01*
X228220667Y-108768669D01*
X228105075Y-108846138D01*
X227924171Y-108911940D01*
X227687566Y-108962582D01*
X227404873Y-108994570D01*
X227404084Y-108994626D01*
X227033667Y-109020866D01*
X227033667Y-109177106D01*
X227047534Y-109294648D01*
X227085348Y-109470384D01*
X227141429Y-109683194D01*
X227210099Y-109911959D01*
X227285677Y-110135558D01*
X227307042Y-110193667D01*
X227362640Y-110341834D01*
X227678424Y-110354079D01*
X227870367Y-110354941D01*
X227994848Y-110331086D01*
X228068223Y-110269740D01*
X228106852Y-110158130D01*
X228125351Y-110005081D01*
X228130129Y-109886429D01*
X228117491Y-109782577D01*
X228080465Y-109667883D01*
X228012079Y-109516704D01*
X227968682Y-109428869D01*
X227883090Y-109245034D01*
X227835746Y-109113761D01*
X227829711Y-109043868D01*
X227833209Y-109038525D01*
X227877883Y-109045506D01*
X227945721Y-109119793D01*
X228028979Y-109249868D01*
X228119914Y-109424211D01*
X228176804Y-109549604D01*
X228234663Y-109712806D01*
X228257303Y-109871149D01*
X228253864Y-110042534D01*
X228234108Y-110231554D01*
X228193696Y-110358794D01*
X228118148Y-110436189D01*
X227992983Y-110475676D01*
X227803720Y-110489191D01*
X227711000Y-110490000D01*
X227521159Y-110486632D01*
X227397160Y-110474409D01*
X227320370Y-110450153D01*
X227276676Y-110415917D01*
X227231265Y-110339578D01*
X227174972Y-110209264D01*
X227119655Y-110052556D01*
X227117434Y-110045500D01*
X227061140Y-109866736D01*
X227005480Y-109691611D01*
X226965652Y-109567771D01*
X226926997Y-109402721D01*
X226907305Y-109228323D01*
X226906667Y-109198844D01*
X226901084Y-109093544D01*
X226875092Y-109019774D01*
X226814822Y-108968908D01*
X226706408Y-108932322D01*
X226535982Y-108901390D01*
X226396891Y-108881781D01*
X226107461Y-108838347D01*
X225879850Y-108792568D01*
X225691289Y-108738427D01*
X225519009Y-108669906D01*
X225425000Y-108624942D01*
X225246342Y-108535367D01*
X225126509Y-108485011D01*
X225053767Y-108482350D01*
X225016383Y-108535859D01*
X225002624Y-108654014D01*
X225000754Y-108845290D01*
X225000737Y-108931397D01*
X224996771Y-109169146D01*
X224984338Y-109342338D01*
X224961023Y-109470870D01*
X224924412Y-109574634D01*
X224922049Y-109579834D01*
X224819463Y-109758435D01*
X224707580Y-109859285D01*
X224577443Y-109889301D01*
X224527305Y-109884576D01*
X224415144Y-109867187D01*
X224253589Y-109842939D01*
X224077057Y-109816996D01*
X224072184Y-109816288D01*
X223898827Y-109786627D01*
X223780425Y-109750445D01*
X223687479Y-109695190D01*
X223595934Y-109613640D01*
X223478871Y-109476140D01*
X223440697Y-109369244D01*
X223481397Y-109292859D01*
X223532323Y-109265696D01*
X223634832Y-109206808D01*
X223687850Y-109158288D01*
X223753740Y-109097585D01*
X223864479Y-109012585D01*
X223966934Y-108941365D01*
X224196280Y-108773114D01*
X224362121Y-108610865D01*
X224482168Y-108436698D01*
X224501353Y-108400602D01*
X224570295Y-108301420D01*
X224626985Y-108276813D01*
X224656921Y-108323169D01*
X224645686Y-108436556D01*
X224597534Y-108529118D01*
X224500143Y-108654034D01*
X224371416Y-108792084D01*
X224229259Y-108924046D01*
X224093346Y-109029500D01*
X223982123Y-109114187D01*
X223858117Y-109221134D01*
X223825414Y-109251750D01*
X223725787Y-109334279D01*
X223640165Y-109383382D01*
X223614279Y-109389334D01*
X223585148Y-109404926D01*
X223615520Y-109458064D01*
X223666594Y-109514691D01*
X223798539Y-109614432D01*
X223967085Y-109661694D01*
X223981430Y-109663530D01*
X224151298Y-109688928D01*
X224333550Y-109723135D01*
X224378421Y-109732885D01*
X224527056Y-109754889D01*
X224631276Y-109732006D01*
X224712554Y-109652005D01*
X224792359Y-109502657D01*
X224795779Y-109495167D01*
X224832389Y-109393206D01*
X224856041Y-109267182D01*
X224869028Y-109097679D01*
X224873642Y-108865282D01*
X224873737Y-108834740D01*
X224874667Y-108343646D01*
X224377250Y-108090003D01*
X224163832Y-107985499D01*
X223950888Y-107888680D01*
X223763156Y-107810361D01*
X223625834Y-107761494D01*
X223464243Y-107713806D01*
X223313938Y-107669354D01*
X223234931Y-107645922D01*
X223129029Y-107589928D01*
X223011461Y-107492308D01*
X222903424Y-107375649D01*
X222826117Y-107262535D01*
X222800334Y-107182879D01*
X222779004Y-107105036D01*
X222758000Y-107082167D01*
X222724397Y-107023404D01*
X222715667Y-106959464D01*
X222676795Y-106865324D01*
X222569024Y-106798662D01*
X222405617Y-106766524D01*
X222348906Y-106764667D01*
X222249875Y-106769652D01*
X222215054Y-106797619D01*
X222224058Y-106868084D01*
X222227308Y-106881084D01*
X222265547Y-107063070D01*
X222279993Y-107202003D01*
X222272928Y-107289699D01*
X222246639Y-107317975D01*
X222203408Y-107278646D01*
X222147282Y-107167760D01*
X222072029Y-107046168D01*
X221972566Y-106950258D01*
X221965250Y-106945510D01*
X221789154Y-106824593D01*
X221649066Y-106706353D01*
X221558454Y-106603496D01*
X221530335Y-106535167D01*
X221540478Y-106500084D01*
X221789244Y-106500084D01*
X221798556Y-106600961D01*
X221841201Y-106636893D01*
X221853017Y-106637667D01*
X221897181Y-106622288D01*
X221894338Y-106616500D01*
X222207667Y-106616500D01*
X222228834Y-106637667D01*
X222250000Y-106616500D01*
X222228834Y-106595334D01*
X222207667Y-106616500D01*
X221894338Y-106616500D01*
X221878739Y-106584750D01*
X221869138Y-106567111D01*
X222518111Y-106567111D01*
X222523922Y-106592278D01*
X222546334Y-106595334D01*
X222581179Y-106579844D01*
X222574556Y-106567111D01*
X222524316Y-106562045D01*
X222518111Y-106567111D01*
X221869138Y-106567111D01*
X221832245Y-106499333D01*
X221814966Y-106447167D01*
X221813248Y-106443663D01*
X222265869Y-106443663D01*
X222267754Y-106457865D01*
X222330634Y-106469777D01*
X222417448Y-106439277D01*
X222491810Y-106383370D01*
X222516145Y-106341797D01*
X222565033Y-106272670D01*
X222612094Y-106256667D01*
X222711765Y-106223551D01*
X222832290Y-106138006D01*
X222951859Y-106020736D01*
X223048664Y-105892444D01*
X223093948Y-105799238D01*
X223126431Y-105652937D01*
X223104883Y-105567486D01*
X223027653Y-105537212D01*
X223017593Y-105537000D01*
X222921522Y-105515409D01*
X222845851Y-105464116D01*
X222813240Y-105403337D01*
X222827092Y-105367041D01*
X222902222Y-105341315D01*
X222954092Y-105359636D01*
X223053813Y-105406576D01*
X223149584Y-105446871D01*
X223232460Y-105496955D01*
X223263395Y-105578633D01*
X223266000Y-105636756D01*
X223227271Y-105862921D01*
X223109282Y-106072782D01*
X222933616Y-106251407D01*
X222805155Y-106370983D01*
X222735019Y-106471802D01*
X222708154Y-106569695D01*
X222711567Y-106688765D01*
X222762379Y-106757473D01*
X222767031Y-106760482D01*
X222826443Y-106837019D01*
X222842667Y-106910694D01*
X222858328Y-107000188D01*
X222885000Y-107039834D01*
X222922841Y-107100601D01*
X222927334Y-107133586D01*
X222960686Y-107235223D01*
X223044852Y-107350496D01*
X223155995Y-107453097D01*
X223270277Y-107516716D01*
X223276116Y-107518543D01*
X223393575Y-107553320D01*
X223551561Y-107599877D01*
X223668167Y-107634135D01*
X223801193Y-107680432D01*
X223976902Y-107754620D01*
X224201938Y-107859869D01*
X224482944Y-107999355D01*
X224826563Y-108176251D01*
X225065167Y-108301461D01*
X225343417Y-108442788D01*
X225574120Y-108545795D01*
X225780121Y-108619211D01*
X225984263Y-108671764D01*
X226087157Y-108691936D01*
X226363709Y-108741441D01*
X226568812Y-108776882D01*
X226714271Y-108799591D01*
X226811892Y-108810902D01*
X226873481Y-108812149D01*
X226910842Y-108804666D01*
X226935782Y-108789787D01*
X226937916Y-108788052D01*
X226989626Y-108774304D01*
X227018737Y-108818821D01*
X227043277Y-108856045D01*
X227093212Y-108875060D01*
X227187345Y-108878449D01*
X227344474Y-108868797D01*
X227368488Y-108866882D01*
X227560693Y-108843167D01*
X227751573Y-108806322D01*
X227894969Y-108765877D01*
X228028924Y-108706411D01*
X228107009Y-108637336D01*
X228154030Y-108542667D01*
X228232896Y-108338047D01*
X228308333Y-108184831D01*
X228396390Y-108065670D01*
X228513115Y-107963218D01*
X228674557Y-107860126D01*
X228896765Y-107739045D01*
X228898116Y-107738334D01*
X229065099Y-107636959D01*
X229225096Y-107517597D01*
X229335865Y-107413904D01*
X229408225Y-107322337D01*
X229464929Y-107221851D01*
X229509377Y-107098793D01*
X229544969Y-106939512D01*
X229575105Y-106730354D01*
X229603186Y-106457667D01*
X229618805Y-106277834D01*
X229646950Y-105943135D01*
X229670207Y-105682069D01*
X229690603Y-105483886D01*
X229710160Y-105337833D01*
X229730903Y-105233161D01*
X229754856Y-105159118D01*
X229784044Y-105104953D01*
X229820489Y-105059914D01*
X229854731Y-105024731D01*
X229921165Y-104967874D01*
X230001680Y-104922240D01*
X230107979Y-104885351D01*
X230251764Y-104854728D01*
X230444738Y-104827894D01*
X230698602Y-104802371D01*
X231025060Y-104775681D01*
X231034167Y-104774984D01*
X231380162Y-104747895D01*
X231650549Y-104725012D01*
X231854220Y-104705206D01*
X232000065Y-104687347D01*
X232096974Y-104670307D01*
X232153838Y-104652956D01*
X232179549Y-104634166D01*
X232182120Y-104629191D01*
X232182614Y-104557390D01*
X232160606Y-104426378D01*
X232121483Y-104256885D01*
X232070630Y-104069643D01*
X232013434Y-103885382D01*
X231955280Y-103724833D01*
X231934041Y-103674334D01*
X231868925Y-103526261D01*
X231811020Y-103392295D01*
X231783658Y-103327425D01*
X231743048Y-103253616D01*
X231684366Y-103227893D01*
X231575891Y-103236044D01*
X231307750Y-103292720D01*
X231071557Y-103389810D01*
X230894215Y-103495422D01*
X230746340Y-103583924D01*
X230574953Y-103673191D01*
X230402883Y-103752803D01*
X230252959Y-103812344D01*
X230148012Y-103841397D01*
X230133248Y-103842662D01*
X230042928Y-103859712D01*
X229897791Y-103903440D01*
X229720233Y-103965796D01*
X229532654Y-104038730D01*
X229357452Y-104114190D01*
X229293000Y-104144674D01*
X229122508Y-104219352D01*
X228982497Y-104254800D01*
X228833960Y-104260164D01*
X228806167Y-104258805D01*
X228578834Y-104245834D01*
X228565931Y-104044750D01*
X228548212Y-103911021D01*
X228519997Y-103850971D01*
X228486099Y-103868314D01*
X228453493Y-103957959D01*
X228417067Y-104054425D01*
X228351102Y-104190643D01*
X228282350Y-104315317D01*
X228139893Y-104558384D01*
X228274697Y-104571442D01*
X228373180Y-104595246D01*
X228408306Y-104649697D01*
X228409500Y-104669167D01*
X228386464Y-104730840D01*
X228306623Y-104781791D01*
X228208639Y-104817334D01*
X228093316Y-104858789D01*
X228020564Y-104894547D01*
X228007556Y-104908309D01*
X228045085Y-104950172D01*
X228148486Y-105011768D01*
X228303255Y-105086218D01*
X228494888Y-105166638D01*
X228708884Y-105246148D01*
X228747679Y-105259499D01*
X228953782Y-105335929D01*
X229082369Y-105399425D01*
X229139095Y-105452902D01*
X229142366Y-105462917D01*
X229126369Y-105524282D01*
X229073230Y-105537000D01*
X228991690Y-105549129D01*
X228858894Y-105580885D01*
X228707832Y-105624128D01*
X228474049Y-105720770D01*
X228286086Y-105847340D01*
X228155781Y-105993001D01*
X228094969Y-106146912D01*
X228092000Y-106187983D01*
X228109788Y-106301742D01*
X228152862Y-106381355D01*
X228155500Y-106383667D01*
X228213798Y-106467128D01*
X228189578Y-106556573D01*
X228138526Y-106612706D01*
X228075072Y-106704513D01*
X228031539Y-106827181D01*
X228030279Y-106833573D01*
X227989064Y-106940010D01*
X227929632Y-106969484D01*
X227866534Y-106923101D01*
X227818662Y-106817495D01*
X227784843Y-106724953D01*
X227755761Y-106680652D01*
X227753132Y-106680000D01*
X227724003Y-106715612D01*
X227675497Y-106806531D01*
X227618214Y-106928882D01*
X227562752Y-107058791D01*
X227519713Y-107172381D01*
X227499696Y-107245779D01*
X227499334Y-107251654D01*
X227479237Y-107312927D01*
X227467584Y-107322056D01*
X227430584Y-107365327D01*
X227374446Y-107457910D01*
X227349102Y-107505500D01*
X227265679Y-107629163D01*
X227184008Y-107674711D01*
X227179768Y-107674834D01*
X227144396Y-107669628D01*
X227121391Y-107644470D01*
X227108637Y-107585050D01*
X227104020Y-107477057D01*
X227105426Y-107306180D01*
X227107828Y-107188000D01*
X227111377Y-106980977D01*
X227110255Y-106847411D01*
X227103069Y-106776156D01*
X227088428Y-106756065D01*
X227064938Y-106775992D01*
X227057582Y-106785834D01*
X226912269Y-106980722D01*
X226801578Y-107108337D01*
X226716418Y-107173912D01*
X226647696Y-107182684D01*
X226586322Y-107139886D01*
X226542941Y-107082167D01*
X226444236Y-106995035D01*
X226322838Y-106984430D01*
X226197042Y-107050417D01*
X226093102Y-107137983D01*
X226017877Y-107201042D01*
X225909028Y-107264401D01*
X225830299Y-107248874D01*
X225783367Y-107155320D01*
X225771999Y-107074971D01*
X225729267Y-106886343D01*
X225630922Y-106760178D01*
X225473355Y-106693279D01*
X225326456Y-106680000D01*
X225067282Y-106715297D01*
X224804214Y-106811760D01*
X224572053Y-106955252D01*
X224504635Y-107013876D01*
X224413289Y-107093681D01*
X224343695Y-107140516D01*
X224327217Y-107145667D01*
X224267725Y-107116013D01*
X224261979Y-107046226D01*
X224300930Y-106978806D01*
X224356509Y-106878540D01*
X224379160Y-106780390D01*
X224375307Y-106696334D01*
X224331112Y-106658791D01*
X224246500Y-106645288D01*
X224115185Y-106656746D01*
X224051838Y-106704672D01*
X223986588Y-106747725D01*
X223924349Y-106732161D01*
X223901000Y-106675788D01*
X223924135Y-106615808D01*
X223980327Y-106526420D01*
X223985335Y-106519536D01*
X224050073Y-106395921D01*
X224091110Y-106248502D01*
X224104924Y-106104706D01*
X224087993Y-105991955D01*
X224058693Y-105948197D01*
X224020704Y-105899599D01*
X224011789Y-105820266D01*
X224029036Y-105685167D01*
X224050939Y-105513075D01*
X224065197Y-105317738D01*
X224067810Y-105231412D01*
X224062036Y-105086643D01*
X224038129Y-105018701D01*
X223991938Y-105027776D01*
X223919310Y-105114056D01*
X223837500Y-105241915D01*
X223750695Y-105361839D01*
X223672980Y-105428419D01*
X223615913Y-105436785D01*
X223591055Y-105382070D01*
X223592302Y-105345179D01*
X223633072Y-105129570D01*
X223691291Y-104934237D01*
X223839281Y-104934237D01*
X223841583Y-104967363D01*
X223876764Y-104944790D01*
X223899643Y-104924395D01*
X223999554Y-104873559D01*
X224077426Y-104866848D01*
X224121109Y-104876591D01*
X224149537Y-104901265D01*
X224165984Y-104956304D01*
X224173723Y-105057142D01*
X224176029Y-105219214D01*
X224176167Y-105332380D01*
X224178982Y-105520560D01*
X224186595Y-105676663D01*
X224197757Y-105781674D01*
X224207917Y-105815685D01*
X224229739Y-105881217D01*
X224238436Y-106001633D01*
X224234399Y-106148235D01*
X224218022Y-106292329D01*
X224200289Y-106373363D01*
X224179060Y-106466179D01*
X224197199Y-106503681D01*
X224266572Y-106510667D01*
X224413542Y-106536905D01*
X224508148Y-106608557D01*
X224536000Y-106697771D01*
X224536000Y-106797229D01*
X224771365Y-106675115D01*
X224926274Y-106604095D01*
X225067857Y-106566794D01*
X225237938Y-106553659D01*
X225306116Y-106553000D01*
X225465402Y-106555446D01*
X225567883Y-106569132D01*
X225641406Y-106603584D01*
X225713816Y-106668327D01*
X225748085Y-106704181D01*
X225837056Y-106819824D01*
X225886258Y-106926986D01*
X225890667Y-106958181D01*
X225903155Y-107038840D01*
X225946247Y-107052309D01*
X226028390Y-106998452D01*
X226077166Y-106955167D01*
X226224203Y-106868614D01*
X226387962Y-106849872D01*
X226541622Y-106899608D01*
X226597884Y-106942189D01*
X226696724Y-107035045D01*
X226769404Y-106931606D01*
X226835879Y-106835301D01*
X226923359Y-106706483D01*
X226969626Y-106637667D01*
X227061264Y-106511269D01*
X227128496Y-106448265D01*
X227174604Y-106452739D01*
X227202869Y-106528770D01*
X227216574Y-106680443D01*
X227218999Y-106911837D01*
X227218663Y-106947432D01*
X227216821Y-107158271D01*
X227218079Y-107295177D01*
X227224308Y-107368872D01*
X227237384Y-107390081D01*
X227259179Y-107369526D01*
X227285234Y-107328432D01*
X227335903Y-107230561D01*
X227402562Y-107083266D01*
X227471732Y-106916493D01*
X227479233Y-106897434D01*
X227573070Y-106694480D01*
X227665661Y-106564657D01*
X227753434Y-106511105D01*
X227832816Y-106536963D01*
X227857600Y-106564865D01*
X227902691Y-106613211D01*
X227944800Y-106596754D01*
X227977821Y-106562223D01*
X228021001Y-106475956D01*
X228005840Y-106425033D01*
X227965741Y-106295991D01*
X227968922Y-106131611D01*
X228011393Y-105966794D01*
X228070658Y-105858493D01*
X228161082Y-105772746D01*
X228300676Y-105675201D01*
X228463587Y-105580335D01*
X228623964Y-105502625D01*
X228755954Y-105456548D01*
X228800193Y-105449956D01*
X228803189Y-105437435D01*
X228739055Y-105406888D01*
X228621665Y-105364918D01*
X228621167Y-105364755D01*
X228328192Y-105251877D01*
X228096743Y-105126069D01*
X227934783Y-104992479D01*
X227854882Y-104869493D01*
X227819145Y-104878912D01*
X227737762Y-104917040D01*
X227727882Y-104922149D01*
X227626337Y-104950973D01*
X227460855Y-104971735D01*
X227251815Y-104984102D01*
X227019592Y-104987737D01*
X226784565Y-104982306D01*
X226567111Y-104967473D01*
X226393862Y-104944089D01*
X226059636Y-104867606D01*
X225679725Y-104757267D01*
X225281278Y-104622380D01*
X224891446Y-104472253D01*
X224537381Y-104316194D01*
X224476981Y-104286930D01*
X224269794Y-104184840D01*
X224149573Y-104321170D01*
X224075158Y-104413779D01*
X224032538Y-104482726D01*
X224028676Y-104496500D01*
X224002687Y-104557140D01*
X223968708Y-104602333D01*
X223918936Y-104686319D01*
X223872194Y-104807757D01*
X223865008Y-104832547D01*
X223839281Y-104934237D01*
X223691291Y-104934237D01*
X223707610Y-104879488D01*
X223803424Y-104629820D01*
X223908020Y-104415454D01*
X223949732Y-104347084D01*
X224118863Y-104092453D01*
X224102657Y-104076500D01*
X224336017Y-104076500D01*
X224531258Y-104169010D01*
X224873080Y-104320056D01*
X225247624Y-104466912D01*
X225629958Y-104600979D01*
X225995150Y-104713658D01*
X226318269Y-104796349D01*
X226398667Y-104813125D01*
X226543654Y-104832531D01*
X226734447Y-104845788D01*
X226949084Y-104852804D01*
X227165601Y-104853486D01*
X227362036Y-104847743D01*
X227516424Y-104835483D01*
X227602931Y-104818183D01*
X227698920Y-104748554D01*
X227757427Y-104659433D01*
X227812070Y-104530229D01*
X227862740Y-104422319D01*
X227912950Y-104299406D01*
X227906563Y-104223949D01*
X227838062Y-104175883D01*
X227790428Y-104159338D01*
X227683519Y-104100197D01*
X227585832Y-103983011D01*
X227540782Y-103907605D01*
X227440712Y-103759676D01*
X227346031Y-103680863D01*
X227323771Y-103673085D01*
X227257523Y-103642328D01*
X227224106Y-103573855D01*
X227211149Y-103471563D01*
X227188925Y-103343663D01*
X227145760Y-103294228D01*
X227137066Y-103293334D01*
X227082286Y-103271386D01*
X227076000Y-103254101D01*
X227037349Y-103194142D01*
X226936120Y-103138854D01*
X226794403Y-103093120D01*
X226634288Y-103061820D01*
X226477863Y-103049837D01*
X226347218Y-103062053D01*
X226293692Y-103081207D01*
X226184859Y-103114459D01*
X226105157Y-103112473D01*
X226025251Y-103109708D01*
X225994044Y-103127974D01*
X225933905Y-103157635D01*
X225827928Y-103165742D01*
X225711634Y-103154179D01*
X225620542Y-103124830D01*
X225597755Y-103106956D01*
X225527308Y-103067138D01*
X225409533Y-103038263D01*
X225361706Y-103032724D01*
X225248256Y-103030557D01*
X225209032Y-103046948D01*
X225215302Y-103058235D01*
X225253147Y-103113779D01*
X225225941Y-103144897D01*
X225127780Y-103153528D01*
X224959334Y-103142260D01*
X224663000Y-103113060D01*
X224663000Y-103243942D01*
X224644583Y-103372690D01*
X224596692Y-103544215D01*
X224530367Y-103726949D01*
X224456648Y-103889325D01*
X224408852Y-103970667D01*
X224336017Y-104076500D01*
X224102657Y-104076500D01*
X223907165Y-103884068D01*
X223796350Y-103766874D01*
X223710410Y-103661027D01*
X223668381Y-103590342D01*
X223630402Y-103525887D01*
X223586080Y-103503353D01*
X223562511Y-103535352D01*
X223562334Y-103540983D01*
X223526340Y-103574301D01*
X223431884Y-103627354D01*
X223299249Y-103688776D01*
X223296423Y-103689979D01*
X223025555Y-103831701D01*
X222823539Y-104002505D01*
X222675941Y-104216235D01*
X222619864Y-104338942D01*
X222573766Y-104493589D01*
X222531242Y-104707029D01*
X222495951Y-104953387D01*
X222471556Y-105206789D01*
X222461716Y-105441362D01*
X222461667Y-105457071D01*
X222449170Y-105612173D01*
X222415990Y-105810715D01*
X222368591Y-106015939D01*
X222354392Y-106067045D01*
X222309337Y-106231936D01*
X222278405Y-106363901D01*
X222265869Y-106443663D01*
X221813248Y-106443663D01*
X221799888Y-106416417D01*
X221790731Y-106469347D01*
X221789244Y-106500084D01*
X221540478Y-106500084D01*
X221557745Y-106440361D01*
X221600105Y-106376737D01*
X221647311Y-106290679D01*
X221664690Y-106235500D01*
X221996000Y-106235500D01*
X222017167Y-106256667D01*
X222038334Y-106235500D01*
X222017167Y-106214334D01*
X221996000Y-106235500D01*
X221664690Y-106235500D01*
X221688963Y-106158437D01*
X221704198Y-106082528D01*
X221718505Y-105944585D01*
X221707026Y-105825350D01*
X221664008Y-105686901D01*
X221631895Y-105605958D01*
X221569852Y-105422182D01*
X221505079Y-105171794D01*
X221441418Y-104872594D01*
X221382712Y-104542380D01*
X221340017Y-104253892D01*
X221319863Y-104132174D01*
X221292373Y-104074359D01*
X221242470Y-104060038D01*
X221199278Y-104063392D01*
X221124166Y-104085392D01*
X221076065Y-104144898D01*
X221036424Y-104265031D01*
X221035907Y-104267000D01*
X220964559Y-104528511D01*
X220897497Y-104754229D01*
X220838793Y-104931630D01*
X220792519Y-105048193D01*
X220769127Y-105087473D01*
X220715347Y-105107579D01*
X220662513Y-105054217D01*
X220607294Y-104922952D01*
X220580445Y-104836118D01*
X220538667Y-104694981D01*
X220481997Y-104508357D01*
X220421151Y-104311457D01*
X220407247Y-104267000D01*
X220336051Y-104026146D01*
X220269210Y-103774992D01*
X220211178Y-103532904D01*
X220167000Y-103322073D01*
X220309339Y-103322073D01*
X220326708Y-103439602D01*
X220361861Y-103604215D01*
X220410277Y-103799928D01*
X220467435Y-104010757D01*
X220528814Y-104220717D01*
X220589892Y-104413824D01*
X220646147Y-104574093D01*
X220693059Y-104685539D01*
X220726106Y-104732179D01*
X220728680Y-104732667D01*
X220756631Y-104695911D01*
X220792861Y-104603206D01*
X220808078Y-104552750D01*
X220851718Y-104391653D01*
X220894194Y-104228619D01*
X220900110Y-104205167D01*
X220949786Y-104051945D01*
X221013258Y-103966466D01*
X221106985Y-103931846D01*
X221169999Y-103928334D01*
X221307298Y-103928334D01*
X221272493Y-103748417D01*
X221250706Y-103632188D01*
X221237452Y-103554609D01*
X221235844Y-103541992D01*
X221196595Y-103523973D01*
X221097768Y-103506126D01*
X221011750Y-103496860D01*
X220932546Y-103481996D01*
X221373383Y-103481996D01*
X221384558Y-103589692D01*
X221403696Y-103701940D01*
X221434848Y-103884210D01*
X221460301Y-104073534D01*
X221469014Y-104161167D01*
X221482692Y-104291100D01*
X221504927Y-104457448D01*
X221532707Y-104642284D01*
X221563017Y-104827683D01*
X221592843Y-104995719D01*
X221619171Y-105128465D01*
X221638986Y-105207996D01*
X221647445Y-105222333D01*
X221649755Y-105176375D01*
X221643609Y-105064598D01*
X221630253Y-104905293D01*
X221616565Y-104768548D01*
X221569315Y-104345798D01*
X221526212Y-104005472D01*
X221486878Y-103745449D01*
X221450934Y-103563607D01*
X221418002Y-103457826D01*
X221387703Y-103425982D01*
X221378071Y-103431485D01*
X221373383Y-103481996D01*
X220932546Y-103481996D01*
X220837116Y-103464087D01*
X220646799Y-103401555D01*
X220561391Y-103363422D01*
X220438082Y-103305692D01*
X220347922Y-103271578D01*
X220314276Y-103267614D01*
X220309339Y-103322073D01*
X220167000Y-103322073D01*
X220166407Y-103319247D01*
X220139350Y-103153383D01*
X220133334Y-103075726D01*
X220149998Y-102967436D01*
X220196947Y-102937638D01*
X220269614Y-102988002D01*
X220294125Y-103016923D01*
X220406086Y-103117324D01*
X220571602Y-103217435D01*
X220760801Y-103302526D01*
X220943811Y-103357865D01*
X221006264Y-103368114D01*
X221186601Y-103388440D01*
X221194006Y-103272167D01*
X221318667Y-103272167D01*
X221339834Y-103293334D01*
X221361000Y-103272167D01*
X221339834Y-103251000D01*
X221318667Y-103272167D01*
X221194006Y-103272167D01*
X221199717Y-103182518D01*
X221223285Y-103037334D01*
X221267042Y-102969059D01*
X221325906Y-102973793D01*
X221394796Y-103047637D01*
X221468631Y-103186693D01*
X221542330Y-103387061D01*
X221564822Y-103462667D01*
X221604888Y-103641954D01*
X221646009Y-103897025D01*
X221686985Y-104219027D01*
X221726616Y-104599107D01*
X221742666Y-104775000D01*
X221765198Y-105005836D01*
X221791229Y-105231841D01*
X221817370Y-105425533D01*
X221838114Y-105549132D01*
X221866822Y-105679994D01*
X221888315Y-105737211D01*
X221908357Y-105730806D01*
X221923327Y-105697299D01*
X221954435Y-105631044D01*
X221986155Y-105639324D01*
X222014733Y-105675356D01*
X222052384Y-105760026D01*
X222086128Y-105891334D01*
X222098761Y-105967294D01*
X222121428Y-106085117D01*
X222147995Y-106145556D01*
X222164332Y-106146438D01*
X222204094Y-106070196D01*
X222246075Y-105933805D01*
X222285120Y-105761464D01*
X222316075Y-105577369D01*
X222333784Y-105405718D01*
X222336052Y-105340390D01*
X222352243Y-105016051D01*
X222393862Y-104686544D01*
X222455662Y-104389216D01*
X222483250Y-104292739D01*
X222607048Y-104037115D01*
X222802809Y-103816102D01*
X223061660Y-103639143D01*
X223129114Y-103605700D01*
X223269625Y-103536014D01*
X223386320Y-103470396D01*
X223442994Y-103431540D01*
X223485425Y-103385426D01*
X223486745Y-103334419D01*
X223445390Y-103247907D01*
X223432411Y-103224630D01*
X223390855Y-103102759D01*
X223362610Y-102925077D01*
X223348113Y-102716757D01*
X223348049Y-102672017D01*
X223476664Y-102672017D01*
X223485371Y-102871121D01*
X223508780Y-103044433D01*
X223544267Y-103159829D01*
X223614090Y-103255721D01*
X223689453Y-103293332D01*
X223689936Y-103293334D01*
X223769033Y-103315368D01*
X223806593Y-103364232D01*
X223783847Y-103414070D01*
X223779604Y-103416870D01*
X223769141Y-103467055D01*
X223806338Y-103556904D01*
X223878286Y-103666922D01*
X223972081Y-103777611D01*
X224074813Y-103869474D01*
X224083289Y-103875608D01*
X224217847Y-103971050D01*
X224291296Y-103875608D01*
X224371529Y-103732258D01*
X224442724Y-103535974D01*
X224496054Y-103318489D01*
X224522693Y-103111537D01*
X224523911Y-103039334D01*
X224529380Y-102860128D01*
X224555538Y-102750179D01*
X224600567Y-102715241D01*
X224623592Y-102723641D01*
X224651953Y-102779443D01*
X224663000Y-102872499D01*
X224670267Y-102953237D01*
X224708445Y-102988494D01*
X224802098Y-102996901D01*
X224827150Y-102997000D01*
X224951131Y-102981235D01*
X225036372Y-102941562D01*
X225043091Y-102934596D01*
X225114367Y-102902874D01*
X225238025Y-102891395D01*
X225384809Y-102897969D01*
X225525458Y-102920410D01*
X225630713Y-102956530D01*
X225662500Y-102980909D01*
X225752377Y-103034070D01*
X225862499Y-103020416D01*
X225954477Y-102954324D01*
X226016509Y-102897654D01*
X226065729Y-102903902D01*
X226105002Y-102935915D01*
X226170437Y-102976898D01*
X226209948Y-102951786D01*
X226267096Y-102927811D01*
X226383600Y-102918039D01*
X226535628Y-102920911D01*
X226699348Y-102934871D01*
X226850928Y-102958359D01*
X226966538Y-102989819D01*
X226995362Y-103003131D01*
X227132596Y-103095412D01*
X227246125Y-103198543D01*
X227316527Y-103293050D01*
X227330000Y-103338650D01*
X227365568Y-103406363D01*
X227414667Y-103432600D01*
X227484015Y-103483523D01*
X227500275Y-103532787D01*
X227526083Y-103620798D01*
X227584000Y-103716667D01*
X227642591Y-103804752D01*
X227667719Y-103868599D01*
X227667726Y-103868856D01*
X227705576Y-103946879D01*
X227793535Y-104013532D01*
X227897851Y-104045805D01*
X227926726Y-104045407D01*
X227993839Y-104048321D01*
X228026686Y-104091599D01*
X228041873Y-104197298D01*
X228041972Y-104198495D01*
X228039857Y-104315792D01*
X228017591Y-104398174D01*
X228010222Y-104408045D01*
X227968997Y-104472625D01*
X227965000Y-104492843D01*
X227982242Y-104503389D01*
X228027539Y-104452847D01*
X228091244Y-104355940D01*
X228163713Y-104227390D01*
X228235300Y-104081920D01*
X228237763Y-104076500D01*
X228303940Y-103930805D01*
X228360942Y-103805972D01*
X228392348Y-103737834D01*
X228423536Y-103658985D01*
X228471254Y-103524811D01*
X228526539Y-103360724D01*
X228541629Y-103314500D01*
X228599200Y-103091970D01*
X228642955Y-102833675D01*
X228671732Y-102560306D01*
X228684372Y-102292554D01*
X228679713Y-102051113D01*
X228656596Y-101856672D01*
X228628837Y-101759677D01*
X228569799Y-101662092D01*
X228484857Y-101571228D01*
X228389200Y-101495963D01*
X228298015Y-101445176D01*
X228226490Y-101427744D01*
X228189812Y-101452544D01*
X228194874Y-101506008D01*
X228197350Y-101525788D01*
X228185582Y-101541661D01*
X228151573Y-101553968D01*
X228087327Y-101563050D01*
X227984850Y-101569250D01*
X227836144Y-101572908D01*
X227633215Y-101574367D01*
X227368067Y-101573967D01*
X227032703Y-101572051D01*
X226705476Y-101569633D01*
X226333948Y-101565455D01*
X225970584Y-101558946D01*
X225628742Y-101550522D01*
X225321778Y-101540599D01*
X225063050Y-101529595D01*
X224865914Y-101517925D01*
X224768834Y-101509255D01*
X224579792Y-101487890D01*
X224415497Y-101469987D01*
X224298740Y-101457996D01*
X224260834Y-101454648D01*
X224192532Y-101480415D01*
X224086253Y-101552857D01*
X223960527Y-101655603D01*
X223833888Y-101772281D01*
X223724869Y-101886522D01*
X223652002Y-101981952D01*
X223641026Y-102002167D01*
X223588648Y-102104683D01*
X223539973Y-102192667D01*
X223503844Y-102305519D01*
X223482781Y-102474393D01*
X223476664Y-102672017D01*
X223348049Y-102672017D01*
X223347803Y-102502969D01*
X223362118Y-102308885D01*
X223391496Y-102159676D01*
X223412973Y-102108000D01*
X223473787Y-101996409D01*
X223513509Y-101916453D01*
X223560728Y-101850705D01*
X223654460Y-101745787D01*
X223778467Y-101619370D01*
X223848358Y-101552102D01*
X223986208Y-101419638D01*
X224073127Y-101324734D01*
X224303167Y-101324734D01*
X224514834Y-101359737D01*
X224605826Y-101368669D01*
X224770304Y-101378476D01*
X224997098Y-101388742D01*
X225275038Y-101399047D01*
X225592952Y-101408976D01*
X225939671Y-101418110D01*
X226271667Y-101425396D01*
X226629824Y-101432668D01*
X226964956Y-101439789D01*
X227266724Y-101446515D01*
X227524793Y-101452603D01*
X227728825Y-101457809D01*
X227868482Y-101461890D01*
X227932440Y-101464527D01*
X228001457Y-101465197D01*
X228032318Y-101439643D01*
X228035325Y-101366644D01*
X228025929Y-101271917D01*
X228001937Y-101055437D01*
X227981126Y-100900769D01*
X227956166Y-100785716D01*
X227919730Y-100688078D01*
X227864487Y-100585657D01*
X227783111Y-100456252D01*
X227728939Y-100372334D01*
X227648341Y-100240869D01*
X227559587Y-100087049D01*
X227530140Y-100033667D01*
X227461791Y-99926051D01*
X227377375Y-99840673D01*
X227254426Y-99758606D01*
X227113839Y-99682931D01*
X226972029Y-99610334D01*
X227343110Y-99610334D01*
X227505888Y-99781449D01*
X227596029Y-99885900D01*
X227655142Y-99972984D01*
X227668667Y-100010101D01*
X227693889Y-100024855D01*
X227763612Y-99977997D01*
X227789387Y-99954866D01*
X227914200Y-99854203D01*
X228049461Y-99766352D01*
X228053971Y-99763878D01*
X228182739Y-99665082D01*
X228319610Y-99514058D01*
X228442231Y-99337578D01*
X228500263Y-99229334D01*
X228628974Y-98943194D01*
X228715760Y-98720855D01*
X228762278Y-98553532D01*
X228770185Y-98432437D01*
X228741140Y-98348785D01*
X228676800Y-98293790D01*
X228676772Y-98293775D01*
X228607695Y-98269534D01*
X228549971Y-98295394D01*
X228486371Y-98366369D01*
X228402875Y-98496583D01*
X228340320Y-98636667D01*
X228177830Y-99005507D01*
X227947553Y-99330147D01*
X227885541Y-99397388D01*
X227767118Y-99513043D01*
X227678010Y-99577658D01*
X227593437Y-99605327D01*
X227511161Y-99610334D01*
X227343110Y-99610334D01*
X226972029Y-99610334D01*
X226800834Y-99522695D01*
X226161660Y-99534764D01*
X225887721Y-99543196D01*
X225674591Y-99556638D01*
X225530251Y-99574397D01*
X225463160Y-99595378D01*
X225386639Y-99637462D01*
X225267619Y-99683562D01*
X225226299Y-99696615D01*
X225091173Y-99750982D01*
X224962163Y-99826339D01*
X224856336Y-99909046D01*
X224790761Y-99985464D01*
X224782505Y-100041952D01*
X224787049Y-100047649D01*
X224830886Y-100117107D01*
X224801500Y-100151180D01*
X224736122Y-100145698D01*
X224662727Y-100144199D01*
X224610195Y-100197823D01*
X224581124Y-100257525D01*
X224528578Y-100377348D01*
X224461189Y-100528854D01*
X224426632Y-100605829D01*
X224363778Y-100791663D01*
X224323387Y-101001103D01*
X224317047Y-101071446D01*
X224303167Y-101324734D01*
X224073127Y-101324734D01*
X224074561Y-101323169D01*
X224126454Y-101241611D01*
X224154928Y-101153882D01*
X224173021Y-101038900D01*
X224174879Y-101024151D01*
X224203224Y-100874842D01*
X224251219Y-100695595D01*
X224310580Y-100511021D01*
X224373024Y-100345732D01*
X224430270Y-100224339D01*
X224457641Y-100183950D01*
X224491081Y-100117619D01*
X224458400Y-100055884D01*
X224352664Y-99989665D01*
X224285571Y-99958668D01*
X224159167Y-99899566D01*
X224077230Y-99842339D01*
X224019730Y-99763659D01*
X223966640Y-99640200D01*
X223933380Y-99548459D01*
X223875923Y-99286080D01*
X223874662Y-99240058D01*
X223999481Y-99240058D01*
X224065460Y-99522663D01*
X224121368Y-99660507D01*
X224184836Y-99746956D01*
X224283152Y-99812955D01*
X224351210Y-99846681D01*
X224479393Y-99907186D01*
X224553932Y-99936108D01*
X224598724Y-99935863D01*
X224637663Y-99908868D01*
X224670250Y-99878939D01*
X224731091Y-99773571D01*
X224747347Y-99656689D01*
X224739708Y-99514889D01*
X224720117Y-99347739D01*
X224692804Y-99179561D01*
X224661998Y-99034677D01*
X224631926Y-98937410D01*
X224618212Y-98913950D01*
X224586920Y-98843136D01*
X224578334Y-98770937D01*
X224558897Y-98692516D01*
X224509094Y-98568057D01*
X224441684Y-98424380D01*
X224369428Y-98288304D01*
X224305086Y-98186651D01*
X224293077Y-98171353D01*
X224260232Y-98185167D01*
X224207092Y-98273994D01*
X224136968Y-98431538D01*
X224081846Y-98573167D01*
X224000060Y-98905924D01*
X223999481Y-99240058D01*
X223874662Y-99240058D01*
X223867690Y-98985612D01*
X223905256Y-98675273D01*
X223985199Y-98383280D01*
X224104094Y-98137854D01*
X224104615Y-98137047D01*
X224190838Y-98052499D01*
X224287649Y-98050317D01*
X224395887Y-98130891D01*
G37*
X224395887Y-98130891D02*
X224516394Y-98294611D01*
X224543769Y-98340334D01*
X224622547Y-98489769D01*
X224679912Y-98625008D01*
X224704321Y-98718538D01*
X224704505Y-98723450D01*
X224721401Y-98823103D01*
X224749645Y-98875711D01*
X224774376Y-98935376D01*
X224803070Y-99057524D01*
X224831006Y-99220418D01*
X224842129Y-99301673D01*
X224890302Y-99683323D01*
X225083568Y-99602566D01*
X225216655Y-99543813D01*
X225328718Y-99489052D01*
X225361500Y-99470846D01*
X225442732Y-99448441D01*
X225602053Y-99429763D01*
X225832946Y-99415358D01*
X226128894Y-99405771D01*
X226141256Y-99405511D01*
X226401426Y-99400811D01*
X226592209Y-99400061D01*
X226728850Y-99404678D01*
X226826592Y-99416080D01*
X226900678Y-99435684D01*
X226966351Y-99464908D01*
X227004806Y-99485819D01*
X227121601Y-99542676D01*
X227199293Y-99553011D01*
X227251058Y-99531916D01*
X227351345Y-99495562D01*
X227453178Y-99483333D01*
X227586961Y-99445191D01*
X227734030Y-99339943D01*
X227882615Y-99181359D01*
X228020946Y-98983207D01*
X228137254Y-98759257D01*
X228190893Y-98620266D01*
X228274197Y-98423535D01*
X228374786Y-98266143D01*
X228481037Y-98162957D01*
X228575279Y-98128667D01*
X228676240Y-98154391D01*
X228784927Y-98216544D01*
X228788259Y-98219134D01*
X228853945Y-98279020D01*
X228885474Y-98343508D01*
X228891532Y-98441979D01*
X228885240Y-98547217D01*
X228856567Y-98722706D01*
X228802224Y-98918941D01*
X228758758Y-99034381D01*
X228670042Y-99217688D01*
X228564410Y-99404432D01*
X228453268Y-99577615D01*
X228348021Y-99720240D01*
X228260075Y-99815311D01*
X228215256Y-99844355D01*
X228148847Y-99882422D01*
X228134334Y-99909520D01*
X228100586Y-99945754D01*
X228078458Y-99949000D01*
X228014115Y-99975394D01*
X227920598Y-100041438D01*
X227887451Y-100069646D01*
X227804788Y-100147567D01*
X227778114Y-100198571D01*
X227799856Y-100251669D01*
X227829418Y-100291896D01*
X227980726Y-100518038D01*
X228073099Y-100729520D01*
X228119048Y-100957114D01*
X228124584Y-101017917D01*
X228138332Y-101170024D01*
X228156246Y-101256019D01*
X228185769Y-101294391D01*
X228234344Y-101303632D01*
X228239595Y-101303667D01*
X228356358Y-101334925D01*
X228495447Y-101416509D01*
X228629581Y-101530135D01*
X228701941Y-101613528D01*
X228741591Y-101678340D01*
X228768796Y-101758463D01*
X228786606Y-101872024D01*
X228798076Y-102037154D01*
X228804934Y-102225204D01*
X228802359Y-102626593D01*
X228766899Y-102973506D01*
X228695371Y-103290749D01*
X228650315Y-103431169D01*
X228610389Y-103564479D01*
X228605747Y-103650959D01*
X228632308Y-103716344D01*
X228666615Y-103813099D01*
X228684098Y-103944202D01*
X228684667Y-103970092D01*
X228689371Y-104078810D01*
X228716544Y-104127225D01*
X228785776Y-104139652D01*
X228821554Y-104140000D01*
X228932018Y-104121628D01*
X229081467Y-104073858D01*
X229213137Y-104018160D01*
X229457237Y-103911037D01*
X229717684Y-103812733D01*
X229962140Y-103734730D01*
X230124000Y-103694751D01*
X230377015Y-103615880D01*
X230629851Y-103487063D01*
X230694622Y-103444566D01*
X230901655Y-103308902D01*
X231074435Y-103218374D01*
X231240780Y-103160536D01*
X231405454Y-103126550D01*
X231529623Y-103101982D01*
X231616087Y-103076439D01*
X231635780Y-103065665D01*
X231631425Y-103017308D01*
X231594767Y-102913878D01*
X231533133Y-102775122D01*
X231511784Y-102731397D01*
X231392523Y-102489734D01*
X231306189Y-102303272D01*
X231247466Y-102151675D01*
X231211037Y-102014609D01*
X231191583Y-101871738D01*
X231183788Y-101702725D01*
X231183371Y-101640876D01*
X231309151Y-101640876D01*
X231311132Y-101760777D01*
X231319073Y-101866110D01*
X231336769Y-101968147D01*
X231368014Y-102078159D01*
X231416605Y-102207417D01*
X231486335Y-102367193D01*
X231581001Y-102568757D01*
X231704397Y-102823381D01*
X231860319Y-103142336D01*
X231872046Y-103166334D01*
X232039835Y-103519625D01*
X232166343Y-103807999D01*
X232250577Y-104029052D01*
X232291546Y-104180383D01*
X232291862Y-104182334D01*
X232321401Y-104371417D01*
X232352306Y-104574974D01*
X232363126Y-104648000D01*
X232394871Y-104799448D01*
X232448561Y-104992966D01*
X232513915Y-105192330D01*
X232530627Y-105238186D01*
X232590720Y-105409161D01*
X232636753Y-105559106D01*
X232661595Y-105663974D01*
X232664000Y-105687866D01*
X232676803Y-105770972D01*
X232710702Y-105907396D01*
X232758928Y-106070507D01*
X232769834Y-106104405D01*
X232820207Y-106270491D01*
X232857572Y-106416115D01*
X232875130Y-106514222D01*
X232875667Y-106525639D01*
X232893686Y-106612335D01*
X232940815Y-106744588D01*
X233003581Y-106886727D01*
X233080195Y-107032371D01*
X233138797Y-107110107D01*
X233189341Y-107131945D01*
X233204665Y-107129320D01*
X233293678Y-107107933D01*
X233418598Y-107082933D01*
X233442190Y-107078661D01*
X233541019Y-107055312D01*
X233563418Y-107031272D01*
X233540615Y-107012577D01*
X233478032Y-106945132D01*
X233428574Y-106838520D01*
X233402597Y-106726036D01*
X233410456Y-106640975D01*
X233420459Y-106626274D01*
X233463378Y-106618335D01*
X233513492Y-106683390D01*
X233534580Y-106725422D01*
X233610253Y-106886749D01*
X233664914Y-106986421D01*
X233717167Y-107037611D01*
X233785613Y-107053491D01*
X233888855Y-107047233D01*
X233976334Y-107038224D01*
X234147717Y-107018336D01*
X234308211Y-106994615D01*
X234399667Y-106977197D01*
X234515060Y-106953603D01*
X234680106Y-106923369D01*
X234860770Y-106892707D01*
X234875917Y-106890255D01*
X235204000Y-106837357D01*
X235203739Y-106472928D01*
X235195052Y-106243778D01*
X235170566Y-106073202D01*
X235143906Y-105994311D01*
X235088782Y-105863125D01*
X235020837Y-105659264D01*
X234943228Y-105393198D01*
X234859107Y-105075398D01*
X234821161Y-104923167D01*
X234773032Y-104741053D01*
X234705710Y-104505654D01*
X234627148Y-104243881D01*
X234545296Y-103982646D01*
X234521989Y-103910557D01*
X234448551Y-103681443D01*
X234383070Y-103470101D01*
X234330931Y-103294445D01*
X234297521Y-103172394D01*
X234289603Y-103137506D01*
X234261396Y-103034865D01*
X234228361Y-102974950D01*
X234225534Y-102972868D01*
X234190881Y-102914599D01*
X234188000Y-102889923D01*
X234171241Y-102821246D01*
X234127824Y-102704641D01*
X234081250Y-102596797D01*
X234017970Y-102446327D01*
X233968105Y-102306089D01*
X233948782Y-102234828D01*
X233919699Y-102137099D01*
X233886199Y-102083454D01*
X233852174Y-102025614D01*
X233849334Y-102000923D01*
X233834931Y-101935359D01*
X233790309Y-101816341D01*
X233713346Y-101639075D01*
X233601921Y-101398768D01*
X233453913Y-101090627D01*
X233374181Y-100927277D01*
X233117141Y-100402720D01*
X232731820Y-100431566D01*
X232407465Y-100456353D01*
X232155413Y-100478760D01*
X231963537Y-100502730D01*
X231819711Y-100532209D01*
X231711807Y-100571141D01*
X231627700Y-100623469D01*
X231555262Y-100693139D01*
X231482366Y-100784093D01*
X231430136Y-100854935D01*
X231377436Y-100931357D01*
X231342814Y-101001792D01*
X231322483Y-101086306D01*
X231312658Y-101204968D01*
X231309551Y-101377845D01*
X231309334Y-101495137D01*
X231309151Y-101640876D01*
X231183371Y-101640876D01*
X231182335Y-101487237D01*
X231182334Y-101471420D01*
X231182334Y-100930270D01*
X231344634Y-100725385D01*
X231442958Y-100606044D01*
X231530084Y-100508434D01*
X231575654Y-100463905D01*
X231646653Y-100435681D01*
X231784478Y-100404737D01*
X231971436Y-100373370D01*
X232189834Y-100343877D01*
X232421980Y-100318555D01*
X232650181Y-100299701D01*
X232856744Y-100289612D01*
X232926314Y-100288553D01*
X233209795Y-100287667D01*
X233483832Y-100848584D01*
X233648755Y-101188761D01*
X233777101Y-101459625D01*
X233871428Y-101666941D01*
X233934293Y-101816474D01*
X233968255Y-101913990D01*
X233976334Y-101958590D01*
X233999047Y-102027771D01*
X234013199Y-102041121D01*
X234046881Y-102095206D01*
X234075782Y-102192495D01*
X234107877Y-102302636D01*
X234163275Y-102450029D01*
X234208250Y-102554463D01*
X234265494Y-102688990D01*
X234304238Y-102797993D01*
X234315000Y-102847590D01*
X234338151Y-102917058D01*
X234352534Y-102930534D01*
X234385270Y-102984498D01*
X234414555Y-103084728D01*
X234416603Y-103095173D01*
X234438834Y-103184309D01*
X234482440Y-103335855D01*
X234542036Y-103531895D01*
X234612236Y-103754513D01*
X234648989Y-103868223D01*
X234730308Y-104124244D01*
X234810656Y-104388638D01*
X234882083Y-104634493D01*
X234936634Y-104834897D01*
X234948203Y-104880834D01*
X235028487Y-105200796D01*
X235096194Y-105452071D01*
X235155566Y-105648950D01*
X235210851Y-105805724D01*
X235253403Y-105908323D01*
X235292352Y-106013986D01*
X235315116Y-106131424D01*
X235324314Y-106284028D01*
X235322562Y-106495190D01*
X235321888Y-106520346D01*
X235309834Y-106951545D01*
X235140500Y-106986896D01*
X234865654Y-107038743D01*
X234545289Y-107088398D01*
X234163932Y-107138146D01*
X233934000Y-107165081D01*
X233717636Y-107190694D01*
X233519805Y-107216032D01*
X233362397Y-107238169D01*
X233267355Y-107254169D01*
X233124763Y-107257297D01*
X233061527Y-107226482D01*
X232998371Y-107147799D01*
X232922417Y-107017334D01*
X232847051Y-106863268D01*
X232785662Y-106713779D01*
X232751639Y-106597047D01*
X232748667Y-106567973D01*
X232735826Y-106482456D01*
X232701836Y-106344075D01*
X232653494Y-106179887D01*
X232642834Y-106146738D01*
X232592484Y-105980935D01*
X232555126Y-105835884D01*
X232537546Y-105738493D01*
X232537000Y-105727137D01*
X232520173Y-105630661D01*
X232471942Y-105467254D01*
X232395684Y-105247176D01*
X232294776Y-104980689D01*
X232274104Y-104928202D01*
X232225799Y-104806237D01*
X231905150Y-104837419D01*
X231723576Y-104853871D01*
X231492554Y-104873088D01*
X231247115Y-104892219D01*
X231097667Y-104903170D01*
X230762874Y-104929500D01*
X230501760Y-104956661D01*
X230303347Y-104986854D01*
X230156660Y-105022284D01*
X230050720Y-105065152D01*
X229974552Y-105117662D01*
X229959957Y-105131468D01*
X229922127Y-105172313D01*
X229891751Y-105217637D01*
X229866944Y-105278181D01*
X229845821Y-105364688D01*
X229826497Y-105487898D01*
X229807085Y-105658552D01*
X229785702Y-105887393D01*
X229760461Y-106185161D01*
X229747602Y-106341334D01*
X229718541Y-106663919D01*
X229688496Y-106915332D01*
X229653929Y-107109029D01*
X229611302Y-107258466D01*
X229557077Y-107377098D01*
X229487715Y-107478382D01*
X229431782Y-107542415D01*
X229297845Y-107662062D01*
X229126342Y-107784350D01*
X228981000Y-107868579D01*
X228824647Y-107951068D01*
X228682567Y-108032444D01*
X228588353Y-108093153D01*
X228508479Y-108177419D01*
X228419870Y-108308221D01*
X228338531Y-108456691D01*
X228280468Y-108593960D01*
X228261334Y-108683028D01*
X228220667Y-108768669D01*
X228105075Y-108846138D01*
X227924171Y-108911940D01*
X227687566Y-108962582D01*
X227404873Y-108994570D01*
X227404084Y-108994626D01*
X227033667Y-109020866D01*
X227033667Y-109177106D01*
X227047534Y-109294648D01*
X227085348Y-109470384D01*
X227141429Y-109683194D01*
X227210099Y-109911959D01*
X227285677Y-110135558D01*
X227307042Y-110193667D01*
X227362640Y-110341834D01*
X227678424Y-110354079D01*
X227870367Y-110354941D01*
X227994848Y-110331086D01*
X228068223Y-110269740D01*
X228106852Y-110158130D01*
X228125351Y-110005081D01*
X228130129Y-109886429D01*
X228117491Y-109782577D01*
X228080465Y-109667883D01*
X228012079Y-109516704D01*
X227968682Y-109428869D01*
X227883090Y-109245034D01*
X227835746Y-109113761D01*
X227829711Y-109043868D01*
X227833209Y-109038525D01*
X227877883Y-109045506D01*
X227945721Y-109119793D01*
X228028979Y-109249868D01*
X228119914Y-109424211D01*
X228176804Y-109549604D01*
X228234663Y-109712806D01*
X228257303Y-109871149D01*
X228253864Y-110042534D01*
X228234108Y-110231554D01*
X228193696Y-110358794D01*
X228118148Y-110436189D01*
X227992983Y-110475676D01*
X227803720Y-110489191D01*
X227711000Y-110490000D01*
X227521159Y-110486632D01*
X227397160Y-110474409D01*
X227320370Y-110450153D01*
X227276676Y-110415917D01*
X227231265Y-110339578D01*
X227174972Y-110209264D01*
X227119655Y-110052556D01*
X227117434Y-110045500D01*
X227061140Y-109866736D01*
X227005480Y-109691611D01*
X226965652Y-109567771D01*
X226926997Y-109402721D01*
X226907305Y-109228323D01*
X226906667Y-109198844D01*
X226901084Y-109093544D01*
X226875092Y-109019774D01*
X226814822Y-108968908D01*
X226706408Y-108932322D01*
X226535982Y-108901390D01*
X226396891Y-108881781D01*
X226107461Y-108838347D01*
X225879850Y-108792568D01*
X225691289Y-108738427D01*
X225519009Y-108669906D01*
X225425000Y-108624942D01*
X225246342Y-108535367D01*
X225126509Y-108485011D01*
X225053767Y-108482350D01*
X225016383Y-108535859D01*
X225002624Y-108654014D01*
X225000754Y-108845290D01*
X225000737Y-108931397D01*
X224996771Y-109169146D01*
X224984338Y-109342338D01*
X224961023Y-109470870D01*
X224924412Y-109574634D01*
X224922049Y-109579834D01*
X224819463Y-109758435D01*
X224707580Y-109859285D01*
X224577443Y-109889301D01*
X224527305Y-109884576D01*
X224415144Y-109867187D01*
X224253589Y-109842939D01*
X224077057Y-109816996D01*
X224072184Y-109816288D01*
X223898827Y-109786627D01*
X223780425Y-109750445D01*
X223687479Y-109695190D01*
X223595934Y-109613640D01*
X223478871Y-109476140D01*
X223440697Y-109369244D01*
X223481397Y-109292859D01*
X223532323Y-109265696D01*
X223634832Y-109206808D01*
X223687850Y-109158288D01*
X223753740Y-109097585D01*
X223864479Y-109012585D01*
X223966934Y-108941365D01*
X224196280Y-108773114D01*
X224362121Y-108610865D01*
X224482168Y-108436698D01*
X224501353Y-108400602D01*
X224570295Y-108301420D01*
X224626985Y-108276813D01*
X224656921Y-108323169D01*
X224645686Y-108436556D01*
X224597534Y-108529118D01*
X224500143Y-108654034D01*
X224371416Y-108792084D01*
X224229259Y-108924046D01*
X224093346Y-109029500D01*
X223982123Y-109114187D01*
X223858117Y-109221134D01*
X223825414Y-109251750D01*
X223725787Y-109334279D01*
X223640165Y-109383382D01*
X223614279Y-109389334D01*
X223585148Y-109404926D01*
X223615520Y-109458064D01*
X223666594Y-109514691D01*
X223798539Y-109614432D01*
X223967085Y-109661694D01*
X223981430Y-109663530D01*
X224151298Y-109688928D01*
X224333550Y-109723135D01*
X224378421Y-109732885D01*
X224527056Y-109754889D01*
X224631276Y-109732006D01*
X224712554Y-109652005D01*
X224792359Y-109502657D01*
X224795779Y-109495167D01*
X224832389Y-109393206D01*
X224856041Y-109267182D01*
X224869028Y-109097679D01*
X224873642Y-108865282D01*
X224873737Y-108834740D01*
X224874667Y-108343646D01*
X224377250Y-108090003D01*
X224163832Y-107985499D01*
X223950888Y-107888680D01*
X223763156Y-107810361D01*
X223625834Y-107761494D01*
X223464243Y-107713806D01*
X223313938Y-107669354D01*
X223234931Y-107645922D01*
X223129029Y-107589928D01*
X223011461Y-107492308D01*
X222903424Y-107375649D01*
X222826117Y-107262535D01*
X222800334Y-107182879D01*
X222779004Y-107105036D01*
X222758000Y-107082167D01*
X222724397Y-107023404D01*
X222715667Y-106959464D01*
X222676795Y-106865324D01*
X222569024Y-106798662D01*
X222405617Y-106766524D01*
X222348906Y-106764667D01*
X222249875Y-106769652D01*
X222215054Y-106797619D01*
X222224058Y-106868084D01*
X222227308Y-106881084D01*
X222265547Y-107063070D01*
X222279993Y-107202003D01*
X222272928Y-107289699D01*
X222246639Y-107317975D01*
X222203408Y-107278646D01*
X222147282Y-107167760D01*
X222072029Y-107046168D01*
X221972566Y-106950258D01*
X221965250Y-106945510D01*
X221789154Y-106824593D01*
X221649066Y-106706353D01*
X221558454Y-106603496D01*
X221530335Y-106535167D01*
X221540478Y-106500084D01*
X221789244Y-106500084D01*
X221798556Y-106600961D01*
X221841201Y-106636893D01*
X221853017Y-106637667D01*
X221897181Y-106622288D01*
X221894338Y-106616500D01*
X222207667Y-106616500D01*
X222228834Y-106637667D01*
X222250000Y-106616500D01*
X222228834Y-106595334D01*
X222207667Y-106616500D01*
X221894338Y-106616500D01*
X221878739Y-106584750D01*
X221869138Y-106567111D01*
X222518111Y-106567111D01*
X222523922Y-106592278D01*
X222546334Y-106595334D01*
X222581179Y-106579844D01*
X222574556Y-106567111D01*
X222524316Y-106562045D01*
X222518111Y-106567111D01*
X221869138Y-106567111D01*
X221832245Y-106499333D01*
X221814966Y-106447167D01*
X221813248Y-106443663D01*
X222265869Y-106443663D01*
X222267754Y-106457865D01*
X222330634Y-106469777D01*
X222417448Y-106439277D01*
X222491810Y-106383370D01*
X222516145Y-106341797D01*
X222565033Y-106272670D01*
X222612094Y-106256667D01*
X222711765Y-106223551D01*
X222832290Y-106138006D01*
X222951859Y-106020736D01*
X223048664Y-105892444D01*
X223093948Y-105799238D01*
X223126431Y-105652937D01*
X223104883Y-105567486D01*
X223027653Y-105537212D01*
X223017593Y-105537000D01*
X222921522Y-105515409D01*
X222845851Y-105464116D01*
X222813240Y-105403337D01*
X222827092Y-105367041D01*
X222902222Y-105341315D01*
X222954092Y-105359636D01*
X223053813Y-105406576D01*
X223149584Y-105446871D01*
X223232460Y-105496955D01*
X223263395Y-105578633D01*
X223266000Y-105636756D01*
X223227271Y-105862921D01*
X223109282Y-106072782D01*
X222933616Y-106251407D01*
X222805155Y-106370983D01*
X222735019Y-106471802D01*
X222708154Y-106569695D01*
X222711567Y-106688765D01*
X222762379Y-106757473D01*
X222767031Y-106760482D01*
X222826443Y-106837019D01*
X222842667Y-106910694D01*
X222858328Y-107000188D01*
X222885000Y-107039834D01*
X222922841Y-107100601D01*
X222927334Y-107133586D01*
X222960686Y-107235223D01*
X223044852Y-107350496D01*
X223155995Y-107453097D01*
X223270277Y-107516716D01*
X223276116Y-107518543D01*
X223393575Y-107553320D01*
X223551561Y-107599877D01*
X223668167Y-107634135D01*
X223801193Y-107680432D01*
X223976902Y-107754620D01*
X224201938Y-107859869D01*
X224482944Y-107999355D01*
X224826563Y-108176251D01*
X225065167Y-108301461D01*
X225343417Y-108442788D01*
X225574120Y-108545795D01*
X225780121Y-108619211D01*
X225984263Y-108671764D01*
X226087157Y-108691936D01*
X226363709Y-108741441D01*
X226568812Y-108776882D01*
X226714271Y-108799591D01*
X226811892Y-108810902D01*
X226873481Y-108812149D01*
X226910842Y-108804666D01*
X226935782Y-108789787D01*
X226937916Y-108788052D01*
X226989626Y-108774304D01*
X227018737Y-108818821D01*
X227043277Y-108856045D01*
X227093212Y-108875060D01*
X227187345Y-108878449D01*
X227344474Y-108868797D01*
X227368488Y-108866882D01*
X227560693Y-108843167D01*
X227751573Y-108806322D01*
X227894969Y-108765877D01*
X228028924Y-108706411D01*
X228107009Y-108637336D01*
X228154030Y-108542667D01*
X228232896Y-108338047D01*
X228308333Y-108184831D01*
X228396390Y-108065670D01*
X228513115Y-107963218D01*
X228674557Y-107860126D01*
X228896765Y-107739045D01*
X228898116Y-107738334D01*
X229065099Y-107636959D01*
X229225096Y-107517597D01*
X229335865Y-107413904D01*
X229408225Y-107322337D01*
X229464929Y-107221851D01*
X229509377Y-107098793D01*
X229544969Y-106939512D01*
X229575105Y-106730354D01*
X229603186Y-106457667D01*
X229618805Y-106277834D01*
X229646950Y-105943135D01*
X229670207Y-105682069D01*
X229690603Y-105483886D01*
X229710160Y-105337833D01*
X229730903Y-105233161D01*
X229754856Y-105159118D01*
X229784044Y-105104953D01*
X229820489Y-105059914D01*
X229854731Y-105024731D01*
X229921165Y-104967874D01*
X230001680Y-104922240D01*
X230107979Y-104885351D01*
X230251764Y-104854728D01*
X230444738Y-104827894D01*
X230698602Y-104802371D01*
X231025060Y-104775681D01*
X231034167Y-104774984D01*
X231380162Y-104747895D01*
X231650549Y-104725012D01*
X231854220Y-104705206D01*
X232000065Y-104687347D01*
X232096974Y-104670307D01*
X232153838Y-104652956D01*
X232179549Y-104634166D01*
X232182120Y-104629191D01*
X232182614Y-104557390D01*
X232160606Y-104426378D01*
X232121483Y-104256885D01*
X232070630Y-104069643D01*
X232013434Y-103885382D01*
X231955280Y-103724833D01*
X231934041Y-103674334D01*
X231868925Y-103526261D01*
X231811020Y-103392295D01*
X231783658Y-103327425D01*
X231743048Y-103253616D01*
X231684366Y-103227893D01*
X231575891Y-103236044D01*
X231307750Y-103292720D01*
X231071557Y-103389810D01*
X230894215Y-103495422D01*
X230746340Y-103583924D01*
X230574953Y-103673191D01*
X230402883Y-103752803D01*
X230252959Y-103812344D01*
X230148012Y-103841397D01*
X230133248Y-103842662D01*
X230042928Y-103859712D01*
X229897791Y-103903440D01*
X229720233Y-103965796D01*
X229532654Y-104038730D01*
X229357452Y-104114190D01*
X229293000Y-104144674D01*
X229122508Y-104219352D01*
X228982497Y-104254800D01*
X228833960Y-104260164D01*
X228806167Y-104258805D01*
X228578834Y-104245834D01*
X228565931Y-104044750D01*
X228548212Y-103911021D01*
X228519997Y-103850971D01*
X228486099Y-103868314D01*
X228453493Y-103957959D01*
X228417067Y-104054425D01*
X228351102Y-104190643D01*
X228282350Y-104315317D01*
X228139893Y-104558384D01*
X228274697Y-104571442D01*
X228373180Y-104595246D01*
X228408306Y-104649697D01*
X228409500Y-104669167D01*
X228386464Y-104730840D01*
X228306623Y-104781791D01*
X228208639Y-104817334D01*
X228093316Y-104858789D01*
X228020564Y-104894547D01*
X228007556Y-104908309D01*
X228045085Y-104950172D01*
X228148486Y-105011768D01*
X228303255Y-105086218D01*
X228494888Y-105166638D01*
X228708884Y-105246148D01*
X228747679Y-105259499D01*
X228953782Y-105335929D01*
X229082369Y-105399425D01*
X229139095Y-105452902D01*
X229142366Y-105462917D01*
X229126369Y-105524282D01*
X229073230Y-105537000D01*
X228991690Y-105549129D01*
X228858894Y-105580885D01*
X228707832Y-105624128D01*
X228474049Y-105720770D01*
X228286086Y-105847340D01*
X228155781Y-105993001D01*
X228094969Y-106146912D01*
X228092000Y-106187983D01*
X228109788Y-106301742D01*
X228152862Y-106381355D01*
X228155500Y-106383667D01*
X228213798Y-106467128D01*
X228189578Y-106556573D01*
X228138526Y-106612706D01*
X228075072Y-106704513D01*
X228031539Y-106827181D01*
X228030279Y-106833573D01*
X227989064Y-106940010D01*
X227929632Y-106969484D01*
X227866534Y-106923101D01*
X227818662Y-106817495D01*
X227784843Y-106724953D01*
X227755761Y-106680652D01*
X227753132Y-106680000D01*
X227724003Y-106715612D01*
X227675497Y-106806531D01*
X227618214Y-106928882D01*
X227562752Y-107058791D01*
X227519713Y-107172381D01*
X227499696Y-107245779D01*
X227499334Y-107251654D01*
X227479237Y-107312927D01*
X227467584Y-107322056D01*
X227430584Y-107365327D01*
X227374446Y-107457910D01*
X227349102Y-107505500D01*
X227265679Y-107629163D01*
X227184008Y-107674711D01*
X227179768Y-107674834D01*
X227144396Y-107669628D01*
X227121391Y-107644470D01*
X227108637Y-107585050D01*
X227104020Y-107477057D01*
X227105426Y-107306180D01*
X227107828Y-107188000D01*
X227111377Y-106980977D01*
X227110255Y-106847411D01*
X227103069Y-106776156D01*
X227088428Y-106756065D01*
X227064938Y-106775992D01*
X227057582Y-106785834D01*
X226912269Y-106980722D01*
X226801578Y-107108337D01*
X226716418Y-107173912D01*
X226647696Y-107182684D01*
X226586322Y-107139886D01*
X226542941Y-107082167D01*
X226444236Y-106995035D01*
X226322838Y-106984430D01*
X226197042Y-107050417D01*
X226093102Y-107137983D01*
X226017877Y-107201042D01*
X225909028Y-107264401D01*
X225830299Y-107248874D01*
X225783367Y-107155320D01*
X225771999Y-107074971D01*
X225729267Y-106886343D01*
X225630922Y-106760178D01*
X225473355Y-106693279D01*
X225326456Y-106680000D01*
X225067282Y-106715297D01*
X224804214Y-106811760D01*
X224572053Y-106955252D01*
X224504635Y-107013876D01*
X224413289Y-107093681D01*
X224343695Y-107140516D01*
X224327217Y-107145667D01*
X224267725Y-107116013D01*
X224261979Y-107046226D01*
X224300930Y-106978806D01*
X224356509Y-106878540D01*
X224379160Y-106780390D01*
X224375307Y-106696334D01*
X224331112Y-106658791D01*
X224246500Y-106645288D01*
X224115185Y-106656746D01*
X224051838Y-106704672D01*
X223986588Y-106747725D01*
X223924349Y-106732161D01*
X223901000Y-106675788D01*
X223924135Y-106615808D01*
X223980327Y-106526420D01*
X223985335Y-106519536D01*
X224050073Y-106395921D01*
X224091110Y-106248502D01*
X224104924Y-106104706D01*
X224087993Y-105991955D01*
X224058693Y-105948197D01*
X224020704Y-105899599D01*
X224011789Y-105820266D01*
X224029036Y-105685167D01*
X224050939Y-105513075D01*
X224065197Y-105317738D01*
X224067810Y-105231412D01*
X224062036Y-105086643D01*
X224038129Y-105018701D01*
X223991938Y-105027776D01*
X223919310Y-105114056D01*
X223837500Y-105241915D01*
X223750695Y-105361839D01*
X223672980Y-105428419D01*
X223615913Y-105436785D01*
X223591055Y-105382070D01*
X223592302Y-105345179D01*
X223633072Y-105129570D01*
X223691291Y-104934237D01*
X223839281Y-104934237D01*
X223841583Y-104967363D01*
X223876764Y-104944790D01*
X223899643Y-104924395D01*
X223999554Y-104873559D01*
X224077426Y-104866848D01*
X224121109Y-104876591D01*
X224149537Y-104901265D01*
X224165984Y-104956304D01*
X224173723Y-105057142D01*
X224176029Y-105219214D01*
X224176167Y-105332380D01*
X224178982Y-105520560D01*
X224186595Y-105676663D01*
X224197757Y-105781674D01*
X224207917Y-105815685D01*
X224229739Y-105881217D01*
X224238436Y-106001633D01*
X224234399Y-106148235D01*
X224218022Y-106292329D01*
X224200289Y-106373363D01*
X224179060Y-106466179D01*
X224197199Y-106503681D01*
X224266572Y-106510667D01*
X224413542Y-106536905D01*
X224508148Y-106608557D01*
X224536000Y-106697771D01*
X224536000Y-106797229D01*
X224771365Y-106675115D01*
X224926274Y-106604095D01*
X225067857Y-106566794D01*
X225237938Y-106553659D01*
X225306116Y-106553000D01*
X225465402Y-106555446D01*
X225567883Y-106569132D01*
X225641406Y-106603584D01*
X225713816Y-106668327D01*
X225748085Y-106704181D01*
X225837056Y-106819824D01*
X225886258Y-106926986D01*
X225890667Y-106958181D01*
X225903155Y-107038840D01*
X225946247Y-107052309D01*
X226028390Y-106998452D01*
X226077166Y-106955167D01*
X226224203Y-106868614D01*
X226387962Y-106849872D01*
X226541622Y-106899608D01*
X226597884Y-106942189D01*
X226696724Y-107035045D01*
X226769404Y-106931606D01*
X226835879Y-106835301D01*
X226923359Y-106706483D01*
X226969626Y-106637667D01*
X227061264Y-106511269D01*
X227128496Y-106448265D01*
X227174604Y-106452739D01*
X227202869Y-106528770D01*
X227216574Y-106680443D01*
X227218999Y-106911837D01*
X227218663Y-106947432D01*
X227216821Y-107158271D01*
X227218079Y-107295177D01*
X227224308Y-107368872D01*
X227237384Y-107390081D01*
X227259179Y-107369526D01*
X227285234Y-107328432D01*
X227335903Y-107230561D01*
X227402562Y-107083266D01*
X227471732Y-106916493D01*
X227479233Y-106897434D01*
X227573070Y-106694480D01*
X227665661Y-106564657D01*
X227753434Y-106511105D01*
X227832816Y-106536963D01*
X227857600Y-106564865D01*
X227902691Y-106613211D01*
X227944800Y-106596754D01*
X227977821Y-106562223D01*
X228021001Y-106475956D01*
X228005840Y-106425033D01*
X227965741Y-106295991D01*
X227968922Y-106131611D01*
X228011393Y-105966794D01*
X228070658Y-105858493D01*
X228161082Y-105772746D01*
X228300676Y-105675201D01*
X228463587Y-105580335D01*
X228623964Y-105502625D01*
X228755954Y-105456548D01*
X228800193Y-105449956D01*
X228803189Y-105437435D01*
X228739055Y-105406888D01*
X228621665Y-105364918D01*
X228621167Y-105364755D01*
X228328192Y-105251877D01*
X228096743Y-105126069D01*
X227934783Y-104992479D01*
X227854882Y-104869493D01*
X227819145Y-104878912D01*
X227737762Y-104917040D01*
X227727882Y-104922149D01*
X227626337Y-104950973D01*
X227460855Y-104971735D01*
X227251815Y-104984102D01*
X227019592Y-104987737D01*
X226784565Y-104982306D01*
X226567111Y-104967473D01*
X226393862Y-104944089D01*
X226059636Y-104867606D01*
X225679725Y-104757267D01*
X225281278Y-104622380D01*
X224891446Y-104472253D01*
X224537381Y-104316194D01*
X224476981Y-104286930D01*
X224269794Y-104184840D01*
X224149573Y-104321170D01*
X224075158Y-104413779D01*
X224032538Y-104482726D01*
X224028676Y-104496500D01*
X224002687Y-104557140D01*
X223968708Y-104602333D01*
X223918936Y-104686319D01*
X223872194Y-104807757D01*
X223865008Y-104832547D01*
X223839281Y-104934237D01*
X223691291Y-104934237D01*
X223707610Y-104879488D01*
X223803424Y-104629820D01*
X223908020Y-104415454D01*
X223949732Y-104347084D01*
X224118863Y-104092453D01*
X224102657Y-104076500D01*
X224336017Y-104076500D01*
X224531258Y-104169010D01*
X224873080Y-104320056D01*
X225247624Y-104466912D01*
X225629958Y-104600979D01*
X225995150Y-104713658D01*
X226318269Y-104796349D01*
X226398667Y-104813125D01*
X226543654Y-104832531D01*
X226734447Y-104845788D01*
X226949084Y-104852804D01*
X227165601Y-104853486D01*
X227362036Y-104847743D01*
X227516424Y-104835483D01*
X227602931Y-104818183D01*
X227698920Y-104748554D01*
X227757427Y-104659433D01*
X227812070Y-104530229D01*
X227862740Y-104422319D01*
X227912950Y-104299406D01*
X227906563Y-104223949D01*
X227838062Y-104175883D01*
X227790428Y-104159338D01*
X227683519Y-104100197D01*
X227585832Y-103983011D01*
X227540782Y-103907605D01*
X227440712Y-103759676D01*
X227346031Y-103680863D01*
X227323771Y-103673085D01*
X227257523Y-103642328D01*
X227224106Y-103573855D01*
X227211149Y-103471563D01*
X227188925Y-103343663D01*
X227145760Y-103294228D01*
X227137066Y-103293334D01*
X227082286Y-103271386D01*
X227076000Y-103254101D01*
X227037349Y-103194142D01*
X226936120Y-103138854D01*
X226794403Y-103093120D01*
X226634288Y-103061820D01*
X226477863Y-103049837D01*
X226347218Y-103062053D01*
X226293692Y-103081207D01*
X226184859Y-103114459D01*
X226105157Y-103112473D01*
X226025251Y-103109708D01*
X225994044Y-103127974D01*
X225933905Y-103157635D01*
X225827928Y-103165742D01*
X225711634Y-103154179D01*
X225620542Y-103124830D01*
X225597755Y-103106956D01*
X225527308Y-103067138D01*
X225409533Y-103038263D01*
X225361706Y-103032724D01*
X225248256Y-103030557D01*
X225209032Y-103046948D01*
X225215302Y-103058235D01*
X225253147Y-103113779D01*
X225225941Y-103144897D01*
X225127780Y-103153528D01*
X224959334Y-103142260D01*
X224663000Y-103113060D01*
X224663000Y-103243942D01*
X224644583Y-103372690D01*
X224596692Y-103544215D01*
X224530367Y-103726949D01*
X224456648Y-103889325D01*
X224408852Y-103970667D01*
X224336017Y-104076500D01*
X224102657Y-104076500D01*
X223907165Y-103884068D01*
X223796350Y-103766874D01*
X223710410Y-103661027D01*
X223668381Y-103590342D01*
X223630402Y-103525887D01*
X223586080Y-103503353D01*
X223562511Y-103535352D01*
X223562334Y-103540983D01*
X223526340Y-103574301D01*
X223431884Y-103627354D01*
X223299249Y-103688776D01*
X223296423Y-103689979D01*
X223025555Y-103831701D01*
X222823539Y-104002505D01*
X222675941Y-104216235D01*
X222619864Y-104338942D01*
X222573766Y-104493589D01*
X222531242Y-104707029D01*
X222495951Y-104953387D01*
X222471556Y-105206789D01*
X222461716Y-105441362D01*
X222461667Y-105457071D01*
X222449170Y-105612173D01*
X222415990Y-105810715D01*
X222368591Y-106015939D01*
X222354392Y-106067045D01*
X222309337Y-106231936D01*
X222278405Y-106363901D01*
X222265869Y-106443663D01*
X221813248Y-106443663D01*
X221799888Y-106416417D01*
X221790731Y-106469347D01*
X221789244Y-106500084D01*
X221540478Y-106500084D01*
X221557745Y-106440361D01*
X221600105Y-106376737D01*
X221647311Y-106290679D01*
X221664690Y-106235500D01*
X221996000Y-106235500D01*
X222017167Y-106256667D01*
X222038334Y-106235500D01*
X222017167Y-106214334D01*
X221996000Y-106235500D01*
X221664690Y-106235500D01*
X221688963Y-106158437D01*
X221704198Y-106082528D01*
X221718505Y-105944585D01*
X221707026Y-105825350D01*
X221664008Y-105686901D01*
X221631895Y-105605958D01*
X221569852Y-105422182D01*
X221505079Y-105171794D01*
X221441418Y-104872594D01*
X221382712Y-104542380D01*
X221340017Y-104253892D01*
X221319863Y-104132174D01*
X221292373Y-104074359D01*
X221242470Y-104060038D01*
X221199278Y-104063392D01*
X221124166Y-104085392D01*
X221076065Y-104144898D01*
X221036424Y-104265031D01*
X221035907Y-104267000D01*
X220964559Y-104528511D01*
X220897497Y-104754229D01*
X220838793Y-104931630D01*
X220792519Y-105048193D01*
X220769127Y-105087473D01*
X220715347Y-105107579D01*
X220662513Y-105054217D01*
X220607294Y-104922952D01*
X220580445Y-104836118D01*
X220538667Y-104694981D01*
X220481997Y-104508357D01*
X220421151Y-104311457D01*
X220407247Y-104267000D01*
X220336051Y-104026146D01*
X220269210Y-103774992D01*
X220211178Y-103532904D01*
X220167000Y-103322073D01*
X220309339Y-103322073D01*
X220326708Y-103439602D01*
X220361861Y-103604215D01*
X220410277Y-103799928D01*
X220467435Y-104010757D01*
X220528814Y-104220717D01*
X220589892Y-104413824D01*
X220646147Y-104574093D01*
X220693059Y-104685539D01*
X220726106Y-104732179D01*
X220728680Y-104732667D01*
X220756631Y-104695911D01*
X220792861Y-104603206D01*
X220808078Y-104552750D01*
X220851718Y-104391653D01*
X220894194Y-104228619D01*
X220900110Y-104205167D01*
X220949786Y-104051945D01*
X221013258Y-103966466D01*
X221106985Y-103931846D01*
X221169999Y-103928334D01*
X221307298Y-103928334D01*
X221272493Y-103748417D01*
X221250706Y-103632188D01*
X221237452Y-103554609D01*
X221235844Y-103541992D01*
X221196595Y-103523973D01*
X221097768Y-103506126D01*
X221011750Y-103496860D01*
X220932546Y-103481996D01*
X221373383Y-103481996D01*
X221384558Y-103589692D01*
X221403696Y-103701940D01*
X221434848Y-103884210D01*
X221460301Y-104073534D01*
X221469014Y-104161167D01*
X221482692Y-104291100D01*
X221504927Y-104457448D01*
X221532707Y-104642284D01*
X221563017Y-104827683D01*
X221592843Y-104995719D01*
X221619171Y-105128465D01*
X221638986Y-105207996D01*
X221647445Y-105222333D01*
X221649755Y-105176375D01*
X221643609Y-105064598D01*
X221630253Y-104905293D01*
X221616565Y-104768548D01*
X221569315Y-104345798D01*
X221526212Y-104005472D01*
X221486878Y-103745449D01*
X221450934Y-103563607D01*
X221418002Y-103457826D01*
X221387703Y-103425982D01*
X221378071Y-103431485D01*
X221373383Y-103481996D01*
X220932546Y-103481996D01*
X220837116Y-103464087D01*
X220646799Y-103401555D01*
X220561391Y-103363422D01*
X220438082Y-103305692D01*
X220347922Y-103271578D01*
X220314276Y-103267614D01*
X220309339Y-103322073D01*
X220167000Y-103322073D01*
X220166407Y-103319247D01*
X220139350Y-103153383D01*
X220133334Y-103075726D01*
X220149998Y-102967436D01*
X220196947Y-102937638D01*
X220269614Y-102988002D01*
X220294125Y-103016923D01*
X220406086Y-103117324D01*
X220571602Y-103217435D01*
X220760801Y-103302526D01*
X220943811Y-103357865D01*
X221006264Y-103368114D01*
X221186601Y-103388440D01*
X221194006Y-103272167D01*
X221318667Y-103272167D01*
X221339834Y-103293334D01*
X221361000Y-103272167D01*
X221339834Y-103251000D01*
X221318667Y-103272167D01*
X221194006Y-103272167D01*
X221199717Y-103182518D01*
X221223285Y-103037334D01*
X221267042Y-102969059D01*
X221325906Y-102973793D01*
X221394796Y-103047637D01*
X221468631Y-103186693D01*
X221542330Y-103387061D01*
X221564822Y-103462667D01*
X221604888Y-103641954D01*
X221646009Y-103897025D01*
X221686985Y-104219027D01*
X221726616Y-104599107D01*
X221742666Y-104775000D01*
X221765198Y-105005836D01*
X221791229Y-105231841D01*
X221817370Y-105425533D01*
X221838114Y-105549132D01*
X221866822Y-105679994D01*
X221888315Y-105737211D01*
X221908357Y-105730806D01*
X221923327Y-105697299D01*
X221954435Y-105631044D01*
X221986155Y-105639324D01*
X222014733Y-105675356D01*
X222052384Y-105760026D01*
X222086128Y-105891334D01*
X222098761Y-105967294D01*
X222121428Y-106085117D01*
X222147995Y-106145556D01*
X222164332Y-106146438D01*
X222204094Y-106070196D01*
X222246075Y-105933805D01*
X222285120Y-105761464D01*
X222316075Y-105577369D01*
X222333784Y-105405718D01*
X222336052Y-105340390D01*
X222352243Y-105016051D01*
X222393862Y-104686544D01*
X222455662Y-104389216D01*
X222483250Y-104292739D01*
X222607048Y-104037115D01*
X222802809Y-103816102D01*
X223061660Y-103639143D01*
X223129114Y-103605700D01*
X223269625Y-103536014D01*
X223386320Y-103470396D01*
X223442994Y-103431540D01*
X223485425Y-103385426D01*
X223486745Y-103334419D01*
X223445390Y-103247907D01*
X223432411Y-103224630D01*
X223390855Y-103102759D01*
X223362610Y-102925077D01*
X223348113Y-102716757D01*
X223348049Y-102672017D01*
X223476664Y-102672017D01*
X223485371Y-102871121D01*
X223508780Y-103044433D01*
X223544267Y-103159829D01*
X223614090Y-103255721D01*
X223689453Y-103293332D01*
X223689936Y-103293334D01*
X223769033Y-103315368D01*
X223806593Y-103364232D01*
X223783847Y-103414070D01*
X223779604Y-103416870D01*
X223769141Y-103467055D01*
X223806338Y-103556904D01*
X223878286Y-103666922D01*
X223972081Y-103777611D01*
X224074813Y-103869474D01*
X224083289Y-103875608D01*
X224217847Y-103971050D01*
X224291296Y-103875608D01*
X224371529Y-103732258D01*
X224442724Y-103535974D01*
X224496054Y-103318489D01*
X224522693Y-103111537D01*
X224523911Y-103039334D01*
X224529380Y-102860128D01*
X224555538Y-102750179D01*
X224600567Y-102715241D01*
X224623592Y-102723641D01*
X224651953Y-102779443D01*
X224663000Y-102872499D01*
X224670267Y-102953237D01*
X224708445Y-102988494D01*
X224802098Y-102996901D01*
X224827150Y-102997000D01*
X224951131Y-102981235D01*
X225036372Y-102941562D01*
X225043091Y-102934596D01*
X225114367Y-102902874D01*
X225238025Y-102891395D01*
X225384809Y-102897969D01*
X225525458Y-102920410D01*
X225630713Y-102956530D01*
X225662500Y-102980909D01*
X225752377Y-103034070D01*
X225862499Y-103020416D01*
X225954477Y-102954324D01*
X226016509Y-102897654D01*
X226065729Y-102903902D01*
X226105002Y-102935915D01*
X226170437Y-102976898D01*
X226209948Y-102951786D01*
X226267096Y-102927811D01*
X226383600Y-102918039D01*
X226535628Y-102920911D01*
X226699348Y-102934871D01*
X226850928Y-102958359D01*
X226966538Y-102989819D01*
X226995362Y-103003131D01*
X227132596Y-103095412D01*
X227246125Y-103198543D01*
X227316527Y-103293050D01*
X227330000Y-103338650D01*
X227365568Y-103406363D01*
X227414667Y-103432600D01*
X227484015Y-103483523D01*
X227500275Y-103532787D01*
X227526083Y-103620798D01*
X227584000Y-103716667D01*
X227642591Y-103804752D01*
X227667719Y-103868599D01*
X227667726Y-103868856D01*
X227705576Y-103946879D01*
X227793535Y-104013532D01*
X227897851Y-104045805D01*
X227926726Y-104045407D01*
X227993839Y-104048321D01*
X228026686Y-104091599D01*
X228041873Y-104197298D01*
X228041972Y-104198495D01*
X228039857Y-104315792D01*
X228017591Y-104398174D01*
X228010222Y-104408045D01*
X227968997Y-104472625D01*
X227965000Y-104492843D01*
X227982242Y-104503389D01*
X228027539Y-104452847D01*
X228091244Y-104355940D01*
X228163713Y-104227390D01*
X228235300Y-104081920D01*
X228237763Y-104076500D01*
X228303940Y-103930805D01*
X228360942Y-103805972D01*
X228392348Y-103737834D01*
X228423536Y-103658985D01*
X228471254Y-103524811D01*
X228526539Y-103360724D01*
X228541629Y-103314500D01*
X228599200Y-103091970D01*
X228642955Y-102833675D01*
X228671732Y-102560306D01*
X228684372Y-102292554D01*
X228679713Y-102051113D01*
X228656596Y-101856672D01*
X228628837Y-101759677D01*
X228569799Y-101662092D01*
X228484857Y-101571228D01*
X228389200Y-101495963D01*
X228298015Y-101445176D01*
X228226490Y-101427744D01*
X228189812Y-101452544D01*
X228194874Y-101506008D01*
X228197350Y-101525788D01*
X228185582Y-101541661D01*
X228151573Y-101553968D01*
X228087327Y-101563050D01*
X227984850Y-101569250D01*
X227836144Y-101572908D01*
X227633215Y-101574367D01*
X227368067Y-101573967D01*
X227032703Y-101572051D01*
X226705476Y-101569633D01*
X226333948Y-101565455D01*
X225970584Y-101558946D01*
X225628742Y-101550522D01*
X225321778Y-101540599D01*
X225063050Y-101529595D01*
X224865914Y-101517925D01*
X224768834Y-101509255D01*
X224579792Y-101487890D01*
X224415497Y-101469987D01*
X224298740Y-101457996D01*
X224260834Y-101454648D01*
X224192532Y-101480415D01*
X224086253Y-101552857D01*
X223960527Y-101655603D01*
X223833888Y-101772281D01*
X223724869Y-101886522D01*
X223652002Y-101981952D01*
X223641026Y-102002167D01*
X223588648Y-102104683D01*
X223539973Y-102192667D01*
X223503844Y-102305519D01*
X223482781Y-102474393D01*
X223476664Y-102672017D01*
X223348049Y-102672017D01*
X223347803Y-102502969D01*
X223362118Y-102308885D01*
X223391496Y-102159676D01*
X223412973Y-102108000D01*
X223473787Y-101996409D01*
X223513509Y-101916453D01*
X223560728Y-101850705D01*
X223654460Y-101745787D01*
X223778467Y-101619370D01*
X223848358Y-101552102D01*
X223986208Y-101419638D01*
X224073127Y-101324734D01*
X224303167Y-101324734D01*
X224514834Y-101359737D01*
X224605826Y-101368669D01*
X224770304Y-101378476D01*
X224997098Y-101388742D01*
X225275038Y-101399047D01*
X225592952Y-101408976D01*
X225939671Y-101418110D01*
X226271667Y-101425396D01*
X226629824Y-101432668D01*
X226964956Y-101439789D01*
X227266724Y-101446515D01*
X227524793Y-101452603D01*
X227728825Y-101457809D01*
X227868482Y-101461890D01*
X227932440Y-101464527D01*
X228001457Y-101465197D01*
X228032318Y-101439643D01*
X228035325Y-101366644D01*
X228025929Y-101271917D01*
X228001937Y-101055437D01*
X227981126Y-100900769D01*
X227956166Y-100785716D01*
X227919730Y-100688078D01*
X227864487Y-100585657D01*
X227783111Y-100456252D01*
X227728939Y-100372334D01*
X227648341Y-100240869D01*
X227559587Y-100087049D01*
X227530140Y-100033667D01*
X227461791Y-99926051D01*
X227377375Y-99840673D01*
X227254426Y-99758606D01*
X227113839Y-99682931D01*
X226972029Y-99610334D01*
X227343110Y-99610334D01*
X227505888Y-99781449D01*
X227596029Y-99885900D01*
X227655142Y-99972984D01*
X227668667Y-100010101D01*
X227693889Y-100024855D01*
X227763612Y-99977997D01*
X227789387Y-99954866D01*
X227914200Y-99854203D01*
X228049461Y-99766352D01*
X228053971Y-99763878D01*
X228182739Y-99665082D01*
X228319610Y-99514058D01*
X228442231Y-99337578D01*
X228500263Y-99229334D01*
X228628974Y-98943194D01*
X228715760Y-98720855D01*
X228762278Y-98553532D01*
X228770185Y-98432437D01*
X228741140Y-98348785D01*
X228676800Y-98293790D01*
X228676772Y-98293775D01*
X228607695Y-98269534D01*
X228549971Y-98295394D01*
X228486371Y-98366369D01*
X228402875Y-98496583D01*
X228340320Y-98636667D01*
X228177830Y-99005507D01*
X227947553Y-99330147D01*
X227885541Y-99397388D01*
X227767118Y-99513043D01*
X227678010Y-99577658D01*
X227593437Y-99605327D01*
X227511161Y-99610334D01*
X227343110Y-99610334D01*
X226972029Y-99610334D01*
X226800834Y-99522695D01*
X226161660Y-99534764D01*
X225887721Y-99543196D01*
X225674591Y-99556638D01*
X225530251Y-99574397D01*
X225463160Y-99595378D01*
X225386639Y-99637462D01*
X225267619Y-99683562D01*
X225226299Y-99696615D01*
X225091173Y-99750982D01*
X224962163Y-99826339D01*
X224856336Y-99909046D01*
X224790761Y-99985464D01*
X224782505Y-100041952D01*
X224787049Y-100047649D01*
X224830886Y-100117107D01*
X224801500Y-100151180D01*
X224736122Y-100145698D01*
X224662727Y-100144199D01*
X224610195Y-100197823D01*
X224581124Y-100257525D01*
X224528578Y-100377348D01*
X224461189Y-100528854D01*
X224426632Y-100605829D01*
X224363778Y-100791663D01*
X224323387Y-101001103D01*
X224317047Y-101071446D01*
X224303167Y-101324734D01*
X224073127Y-101324734D01*
X224074561Y-101323169D01*
X224126454Y-101241611D01*
X224154928Y-101153882D01*
X224173021Y-101038900D01*
X224174879Y-101024151D01*
X224203224Y-100874842D01*
X224251219Y-100695595D01*
X224310580Y-100511021D01*
X224373024Y-100345732D01*
X224430270Y-100224339D01*
X224457641Y-100183950D01*
X224491081Y-100117619D01*
X224458400Y-100055884D01*
X224352664Y-99989665D01*
X224285571Y-99958668D01*
X224159167Y-99899566D01*
X224077230Y-99842339D01*
X224019730Y-99763659D01*
X223966640Y-99640200D01*
X223933380Y-99548459D01*
X223875923Y-99286080D01*
X223874662Y-99240058D01*
X223999481Y-99240058D01*
X224065460Y-99522663D01*
X224121368Y-99660507D01*
X224184836Y-99746956D01*
X224283152Y-99812955D01*
X224351210Y-99846681D01*
X224479393Y-99907186D01*
X224553932Y-99936108D01*
X224598724Y-99935863D01*
X224637663Y-99908868D01*
X224670250Y-99878939D01*
X224731091Y-99773571D01*
X224747347Y-99656689D01*
X224739708Y-99514889D01*
X224720117Y-99347739D01*
X224692804Y-99179561D01*
X224661998Y-99034677D01*
X224631926Y-98937410D01*
X224618212Y-98913950D01*
X224586920Y-98843136D01*
X224578334Y-98770937D01*
X224558897Y-98692516D01*
X224509094Y-98568057D01*
X224441684Y-98424380D01*
X224369428Y-98288304D01*
X224305086Y-98186651D01*
X224293077Y-98171353D01*
X224260232Y-98185167D01*
X224207092Y-98273994D01*
X224136968Y-98431538D01*
X224081846Y-98573167D01*
X224000060Y-98905924D01*
X223999481Y-99240058D01*
X223874662Y-99240058D01*
X223867690Y-98985612D01*
X223905256Y-98675273D01*
X223985199Y-98383280D01*
X224104094Y-98137854D01*
X224104615Y-98137047D01*
X224190838Y-98052499D01*
X224287649Y-98050317D01*
X224395887Y-98130891D01*
G36*
X219441313Y-99194691D02*
G01*
X219530258Y-99221841D01*
X219572678Y-99264095D01*
X219559044Y-99301327D01*
X219497813Y-99314000D01*
X219380487Y-99344373D01*
X219242149Y-99438430D01*
X219077485Y-99600579D01*
X218903440Y-99807050D01*
X218750563Y-100013855D01*
X218650925Y-100192308D01*
X218594245Y-100370035D01*
X218570239Y-100574662D01*
X218567236Y-100710393D01*
X218579165Y-100912698D01*
X218622398Y-101080268D01*
X218676995Y-101202353D01*
X218787294Y-101375545D01*
X218924603Y-101497299D01*
X219104781Y-101576141D01*
X219343682Y-101620597D01*
X219475410Y-101631709D01*
X219825577Y-101653555D01*
X219980148Y-101489194D01*
X220083362Y-101368710D01*
X220205382Y-101210822D01*
X220319797Y-101049707D01*
X220319824Y-101049667D01*
X220415315Y-100900529D01*
X220474115Y-100780387D01*
X220508173Y-100654724D01*
X220529434Y-100489025D01*
X220534948Y-100428145D01*
X220564966Y-100081791D01*
X220415703Y-99886306D01*
X220269619Y-99711531D01*
X220135863Y-99595999D01*
X219989986Y-99522691D01*
X219831006Y-99479350D01*
X219661356Y-99436214D01*
X219569094Y-99394588D01*
X219556863Y-99356115D01*
X219595381Y-99332681D01*
X219697284Y-99323998D01*
X219844187Y-99345902D01*
X220005618Y-99390606D01*
X220151108Y-99450322D01*
X220221656Y-99492730D01*
X220315315Y-99577341D01*
X220429762Y-99701878D01*
X220521834Y-99815688D01*
X220694482Y-100044359D01*
X220664853Y-100448001D01*
X220648528Y-100641511D01*
X220627863Y-100777801D01*
X220594398Y-100884214D01*
X220539674Y-100988097D01*
X220460252Y-101109405D01*
X220182388Y-101478849D01*
X219971560Y-101711775D01*
X219901948Y-101739477D01*
X219771655Y-101757561D01*
X219604174Y-101765546D01*
X219422995Y-101762952D01*
X219251610Y-101749297D01*
X219132497Y-101728950D01*
X218887151Y-101628689D01*
X218681908Y-101461093D01*
X218531353Y-101239557D01*
X218489629Y-101138600D01*
X218460408Y-100996137D01*
X218445574Y-100800920D01*
X218444823Y-100583576D01*
X218457855Y-100374733D01*
X218484367Y-100205018D01*
X218499348Y-100153056D01*
X218566203Y-100020116D01*
X218678122Y-99851874D01*
X218817804Y-99670294D01*
X218967951Y-99497341D01*
X219111265Y-99354980D01*
X219161031Y-99312920D01*
X219313395Y-99217187D01*
X219439389Y-99194473D01*
X219441313Y-99194691D01*
G37*
X219441313Y-99194691D02*
X219530258Y-99221841D01*
X219572678Y-99264095D01*
X219559044Y-99301327D01*
X219497813Y-99314000D01*
X219380487Y-99344373D01*
X219242149Y-99438430D01*
X219077485Y-99600579D01*
X218903440Y-99807050D01*
X218750563Y-100013855D01*
X218650925Y-100192308D01*
X218594245Y-100370035D01*
X218570239Y-100574662D01*
X218567236Y-100710393D01*
X218579165Y-100912698D01*
X218622398Y-101080268D01*
X218676995Y-101202353D01*
X218787294Y-101375545D01*
X218924603Y-101497299D01*
X219104781Y-101576141D01*
X219343682Y-101620597D01*
X219475410Y-101631709D01*
X219825577Y-101653555D01*
X219980148Y-101489194D01*
X220083362Y-101368710D01*
X220205382Y-101210822D01*
X220319797Y-101049707D01*
X220319824Y-101049667D01*
X220415315Y-100900529D01*
X220474115Y-100780387D01*
X220508173Y-100654724D01*
X220529434Y-100489025D01*
X220534948Y-100428145D01*
X220564966Y-100081791D01*
X220415703Y-99886306D01*
X220269619Y-99711531D01*
X220135863Y-99595999D01*
X219989986Y-99522691D01*
X219831006Y-99479350D01*
X219661356Y-99436214D01*
X219569094Y-99394588D01*
X219556863Y-99356115D01*
X219595381Y-99332681D01*
X219697284Y-99323998D01*
X219844187Y-99345902D01*
X220005618Y-99390606D01*
X220151108Y-99450322D01*
X220221656Y-99492730D01*
X220315315Y-99577341D01*
X220429762Y-99701878D01*
X220521834Y-99815688D01*
X220694482Y-100044359D01*
X220664853Y-100448001D01*
X220648528Y-100641511D01*
X220627863Y-100777801D01*
X220594398Y-100884214D01*
X220539674Y-100988097D01*
X220460252Y-101109405D01*
X220182388Y-101478849D01*
X219971560Y-101711775D01*
X219901948Y-101739477D01*
X219771655Y-101757561D01*
X219604174Y-101765546D01*
X219422995Y-101762952D01*
X219251610Y-101749297D01*
X219132497Y-101728950D01*
X218887151Y-101628689D01*
X218681908Y-101461093D01*
X218531353Y-101239557D01*
X218489629Y-101138600D01*
X218460408Y-100996137D01*
X218445574Y-100800920D01*
X218444823Y-100583576D01*
X218457855Y-100374733D01*
X218484367Y-100205018D01*
X218499348Y-100153056D01*
X218566203Y-100020116D01*
X218678122Y-99851874D01*
X218817804Y-99670294D01*
X218967951Y-99497341D01*
X219111265Y-99354980D01*
X219161031Y-99312920D01*
X219313395Y-99217187D01*
X219439389Y-99194473D01*
X219441313Y-99194691D01*
G36*
X217863344Y-98772242D02*
G01*
X217982168Y-98794219D01*
X218044167Y-98829620D01*
X218042971Y-98865295D01*
X217972209Y-98888094D01*
X217920713Y-98890667D01*
X217772694Y-98924223D01*
X217605883Y-99014252D01*
X217445329Y-99144795D01*
X217346451Y-99256527D01*
X217275896Y-99349825D01*
X217225113Y-99415882D01*
X217221996Y-99419834D01*
X217162939Y-99516848D01*
X217103408Y-99647736D01*
X217058483Y-99775636D01*
X217043000Y-99857392D01*
X217027799Y-99965205D01*
X217003615Y-100047080D01*
X216985545Y-100107880D01*
X217002648Y-100141068D01*
X217072301Y-100158465D01*
X217183531Y-100169470D01*
X217364751Y-100204098D01*
X217568105Y-100272391D01*
X217767451Y-100362474D01*
X217936651Y-100462476D01*
X218049563Y-100560521D01*
X218052477Y-100564156D01*
X218120268Y-100695181D01*
X218143667Y-100820459D01*
X218134908Y-100952903D01*
X218112302Y-101099803D01*
X218081352Y-101237209D01*
X218047563Y-101341172D01*
X218016439Y-101387740D01*
X218013159Y-101388334D01*
X217977521Y-101422092D01*
X217974334Y-101444199D01*
X217944769Y-101508491D01*
X217873116Y-101588012D01*
X217868178Y-101592366D01*
X217792179Y-101644184D01*
X217697329Y-101672572D01*
X217557078Y-101683673D01*
X217469260Y-101684667D01*
X217302519Y-101680115D01*
X217191417Y-101661578D01*
X217107191Y-101621729D01*
X217049448Y-101577763D01*
X216948477Y-101454734D01*
X216874097Y-101273519D01*
X216823321Y-101024972D01*
X216801069Y-100816834D01*
X216778593Y-100655839D01*
X216743592Y-100553632D01*
X216721455Y-100528980D01*
X216669586Y-100476171D01*
X216678198Y-100399385D01*
X216731223Y-100308834D01*
X216937167Y-100308834D01*
X216941052Y-100668667D01*
X216957316Y-100972592D01*
X216997706Y-101216991D01*
X217060344Y-101394088D01*
X217140515Y-101494168D01*
X217242504Y-101534008D01*
X217391281Y-101555739D01*
X217451330Y-101557667D01*
X217595545Y-101549741D01*
X217693900Y-101516665D01*
X217784458Y-101444492D01*
X217798809Y-101430345D01*
X217891741Y-101296369D01*
X217962402Y-101118622D01*
X218002067Y-100929898D01*
X218002011Y-100762993D01*
X217989838Y-100712338D01*
X217923563Y-100623575D01*
X217795919Y-100529695D01*
X217628760Y-100441142D01*
X217443940Y-100368363D01*
X217263314Y-100321802D01*
X217148834Y-100310382D01*
X216937167Y-100308834D01*
X216731223Y-100308834D01*
X216739792Y-100294202D01*
X216795809Y-100190812D01*
X216848694Y-100041650D01*
X216903232Y-99831785D01*
X216936982Y-99678848D01*
X216990575Y-99540317D01*
X217091453Y-99370131D01*
X217222564Y-99191673D01*
X217366852Y-99028326D01*
X217496759Y-98911351D01*
X217627899Y-98820810D01*
X217732437Y-98778160D01*
X217843167Y-98770959D01*
X217863344Y-98772242D01*
G37*
X217863344Y-98772242D02*
X217982168Y-98794219D01*
X218044167Y-98829620D01*
X218042971Y-98865295D01*
X217972209Y-98888094D01*
X217920713Y-98890667D01*
X217772694Y-98924223D01*
X217605883Y-99014252D01*
X217445329Y-99144795D01*
X217346451Y-99256527D01*
X217275896Y-99349825D01*
X217225113Y-99415882D01*
X217221996Y-99419834D01*
X217162939Y-99516848D01*
X217103408Y-99647736D01*
X217058483Y-99775636D01*
X217043000Y-99857392D01*
X217027799Y-99965205D01*
X217003615Y-100047080D01*
X216985545Y-100107880D01*
X217002648Y-100141068D01*
X217072301Y-100158465D01*
X217183531Y-100169470D01*
X217364751Y-100204098D01*
X217568105Y-100272391D01*
X217767451Y-100362474D01*
X217936651Y-100462476D01*
X218049563Y-100560521D01*
X218052477Y-100564156D01*
X218120268Y-100695181D01*
X218143667Y-100820459D01*
X218134908Y-100952903D01*
X218112302Y-101099803D01*
X218081352Y-101237209D01*
X218047563Y-101341172D01*
X218016439Y-101387740D01*
X218013159Y-101388334D01*
X217977521Y-101422092D01*
X217974334Y-101444199D01*
X217944769Y-101508491D01*
X217873116Y-101588012D01*
X217868178Y-101592366D01*
X217792179Y-101644184D01*
X217697329Y-101672572D01*
X217557078Y-101683673D01*
X217469260Y-101684667D01*
X217302519Y-101680115D01*
X217191417Y-101661578D01*
X217107191Y-101621729D01*
X217049448Y-101577763D01*
X216948477Y-101454734D01*
X216874097Y-101273519D01*
X216823321Y-101024972D01*
X216801069Y-100816834D01*
X216778593Y-100655839D01*
X216743592Y-100553632D01*
X216721455Y-100528980D01*
X216669586Y-100476171D01*
X216678198Y-100399385D01*
X216731223Y-100308834D01*
X216937167Y-100308834D01*
X216941052Y-100668667D01*
X216957316Y-100972592D01*
X216997706Y-101216991D01*
X217060344Y-101394088D01*
X217140515Y-101494168D01*
X217242504Y-101534008D01*
X217391281Y-101555739D01*
X217451330Y-101557667D01*
X217595545Y-101549741D01*
X217693900Y-101516665D01*
X217784458Y-101444492D01*
X217798809Y-101430345D01*
X217891741Y-101296369D01*
X217962402Y-101118622D01*
X218002067Y-100929898D01*
X218002011Y-100762993D01*
X217989838Y-100712338D01*
X217923563Y-100623575D01*
X217795919Y-100529695D01*
X217628760Y-100441142D01*
X217443940Y-100368363D01*
X217263314Y-100321802D01*
X217148834Y-100310382D01*
X216937167Y-100308834D01*
X216731223Y-100308834D01*
X216739792Y-100294202D01*
X216795809Y-100190812D01*
X216848694Y-100041650D01*
X216903232Y-99831785D01*
X216936982Y-99678848D01*
X216990575Y-99540317D01*
X217091453Y-99370131D01*
X217222564Y-99191673D01*
X217366852Y-99028326D01*
X217496759Y-98911351D01*
X217627899Y-98820810D01*
X217732437Y-98778160D01*
X217843167Y-98770959D01*
X217863344Y-98772242D01*
G36*
X212209632Y-100232198D02*
G01*
X212394517Y-100270271D01*
X212597246Y-100357655D01*
X212784087Y-100476517D01*
X212920591Y-100608078D01*
X212978776Y-100701417D01*
X213009653Y-100807001D01*
X213020738Y-100955599D01*
X213021334Y-101020440D01*
X213017189Y-101179404D01*
X212998348Y-101285307D01*
X212955198Y-101369604D01*
X212889948Y-101450360D01*
X212790084Y-101547893D01*
X212695044Y-101591364D01*
X212590977Y-101600000D01*
X212506024Y-101593998D01*
X212430359Y-101568429D01*
X212345767Y-101511946D01*
X212234038Y-101413204D01*
X212129696Y-101312638D01*
X211836000Y-101025276D01*
X211836000Y-100970137D01*
X211950788Y-100970137D01*
X212209337Y-101221568D01*
X212373599Y-101369055D01*
X212501767Y-101450323D01*
X212606866Y-101468114D01*
X212701923Y-101425173D01*
X212784737Y-101342752D01*
X212869111Y-101187557D01*
X212901281Y-101004219D01*
X212880847Y-100822698D01*
X212807412Y-100672953D01*
X212793847Y-100657270D01*
X212653750Y-100541284D01*
X212475971Y-100440756D01*
X212299088Y-100375944D01*
X212236214Y-100364445D01*
X212135947Y-100380310D01*
X212061537Y-100458199D01*
X212008012Y-100605972D01*
X211977852Y-100772685D01*
X211950788Y-100970137D01*
X211836000Y-100970137D01*
X211836000Y-100768565D01*
X211845844Y-100591536D01*
X211881164Y-100462100D01*
X211934300Y-100368011D01*
X212008814Y-100274896D01*
X212085607Y-100236118D01*
X212204620Y-100231976D01*
X212209632Y-100232198D01*
G37*
X212209632Y-100232198D02*
X212394517Y-100270271D01*
X212597246Y-100357655D01*
X212784087Y-100476517D01*
X212920591Y-100608078D01*
X212978776Y-100701417D01*
X213009653Y-100807001D01*
X213020738Y-100955599D01*
X213021334Y-101020440D01*
X213017189Y-101179404D01*
X212998348Y-101285307D01*
X212955198Y-101369604D01*
X212889948Y-101450360D01*
X212790084Y-101547893D01*
X212695044Y-101591364D01*
X212590977Y-101600000D01*
X212506024Y-101593998D01*
X212430359Y-101568429D01*
X212345767Y-101511946D01*
X212234038Y-101413204D01*
X212129696Y-101312638D01*
X211836000Y-101025276D01*
X211836000Y-100970137D01*
X211950788Y-100970137D01*
X212209337Y-101221568D01*
X212373599Y-101369055D01*
X212501767Y-101450323D01*
X212606866Y-101468114D01*
X212701923Y-101425173D01*
X212784737Y-101342752D01*
X212869111Y-101187557D01*
X212901281Y-101004219D01*
X212880847Y-100822698D01*
X212807412Y-100672953D01*
X212793847Y-100657270D01*
X212653750Y-100541284D01*
X212475971Y-100440756D01*
X212299088Y-100375944D01*
X212236214Y-100364445D01*
X212135947Y-100380310D01*
X212061537Y-100458199D01*
X212008012Y-100605972D01*
X211977852Y-100772685D01*
X211950788Y-100970137D01*
X211836000Y-100970137D01*
X211836000Y-100768565D01*
X211845844Y-100591536D01*
X211881164Y-100462100D01*
X211934300Y-100368011D01*
X212008814Y-100274896D01*
X212085607Y-100236118D01*
X212204620Y-100231976D01*
X212209632Y-100232198D01*
G36*
X209941902Y-98865916D02*
G01*
X210058880Y-98899470D01*
X210072106Y-98905417D01*
X210207239Y-98960201D01*
X210333167Y-98999073D01*
X210437379Y-99030125D01*
X210502500Y-99059727D01*
X210565762Y-99086224D01*
X210679175Y-99120825D01*
X210809902Y-99154857D01*
X210925108Y-99179649D01*
X210984357Y-99187000D01*
X211015489Y-99149712D01*
X211037547Y-99057974D01*
X211039695Y-99037949D01*
X211062732Y-98920543D01*
X211096427Y-98883950D01*
X211129473Y-98927214D01*
X211150414Y-99047304D01*
X211158633Y-99133646D01*
X211178075Y-99193135D01*
X211223201Y-99233211D01*
X211308470Y-99261315D01*
X211448341Y-99284886D01*
X211657274Y-99311366D01*
X211665556Y-99312381D01*
X211925378Y-99338354D01*
X212172412Y-99352369D01*
X212391185Y-99354526D01*
X212566225Y-99344925D01*
X212682059Y-99323669D01*
X212716533Y-99305534D01*
X212780803Y-99276225D01*
X212826064Y-99306586D01*
X212833419Y-99371617D01*
X212806147Y-99424075D01*
X212774437Y-99451872D01*
X212724635Y-99470078D01*
X212642828Y-99479602D01*
X212515101Y-99481356D01*
X212327540Y-99476252D01*
X212132724Y-99468183D01*
X211896304Y-99455722D01*
X211674748Y-99440464D01*
X211489321Y-99424119D01*
X211361286Y-99408397D01*
X211338584Y-99404332D01*
X211158667Y-99367702D01*
X211158299Y-100240434D01*
X211155755Y-100655864D01*
X211148388Y-100989403D01*
X211136016Y-101243700D01*
X211118458Y-101421404D01*
X211095532Y-101525164D01*
X211068104Y-101557667D01*
X211026996Y-101529314D01*
X211026203Y-101525917D01*
X211025095Y-101476576D01*
X211024822Y-101354234D01*
X211025336Y-101170549D01*
X211026590Y-100937183D01*
X211028537Y-100665794D01*
X211030705Y-100413483D01*
X211040671Y-99332800D01*
X210771586Y-99277315D01*
X210625858Y-99243761D01*
X210512483Y-99211242D01*
X210460167Y-99189086D01*
X210390821Y-99156276D01*
X210290834Y-99126073D01*
X210155258Y-99084729D01*
X210036834Y-99038026D01*
X209911649Y-98992059D01*
X209804000Y-98967207D01*
X209724345Y-98942857D01*
X209698167Y-98911834D01*
X209734323Y-98872565D01*
X209824642Y-98857104D01*
X209941902Y-98865916D01*
G37*
X209941902Y-98865916D02*
X210058880Y-98899470D01*
X210072106Y-98905417D01*
X210207239Y-98960201D01*
X210333167Y-98999073D01*
X210437379Y-99030125D01*
X210502500Y-99059727D01*
X210565762Y-99086224D01*
X210679175Y-99120825D01*
X210809902Y-99154857D01*
X210925108Y-99179649D01*
X210984357Y-99187000D01*
X211015489Y-99149712D01*
X211037547Y-99057974D01*
X211039695Y-99037949D01*
X211062732Y-98920543D01*
X211096427Y-98883950D01*
X211129473Y-98927214D01*
X211150414Y-99047304D01*
X211158633Y-99133646D01*
X211178075Y-99193135D01*
X211223201Y-99233211D01*
X211308470Y-99261315D01*
X211448341Y-99284886D01*
X211657274Y-99311366D01*
X211665556Y-99312381D01*
X211925378Y-99338354D01*
X212172412Y-99352369D01*
X212391185Y-99354526D01*
X212566225Y-99344925D01*
X212682059Y-99323669D01*
X212716533Y-99305534D01*
X212780803Y-99276225D01*
X212826064Y-99306586D01*
X212833419Y-99371617D01*
X212806147Y-99424075D01*
X212774437Y-99451872D01*
X212724635Y-99470078D01*
X212642828Y-99479602D01*
X212515101Y-99481356D01*
X212327540Y-99476252D01*
X212132724Y-99468183D01*
X211896304Y-99455722D01*
X211674748Y-99440464D01*
X211489321Y-99424119D01*
X211361286Y-99408397D01*
X211338584Y-99404332D01*
X211158667Y-99367702D01*
X211158299Y-100240434D01*
X211155755Y-100655864D01*
X211148388Y-100989403D01*
X211136016Y-101243700D01*
X211118458Y-101421404D01*
X211095532Y-101525164D01*
X211068104Y-101557667D01*
X211026996Y-101529314D01*
X211026203Y-101525917D01*
X211025095Y-101476576D01*
X211024822Y-101354234D01*
X211025336Y-101170549D01*
X211026590Y-100937183D01*
X211028537Y-100665794D01*
X211030705Y-100413483D01*
X211040671Y-99332800D01*
X210771586Y-99277315D01*
X210625858Y-99243761D01*
X210512483Y-99211242D01*
X210460167Y-99189086D01*
X210390821Y-99156276D01*
X210290834Y-99126073D01*
X210155258Y-99084729D01*
X210036834Y-99038026D01*
X209911649Y-98992059D01*
X209804000Y-98967207D01*
X209724345Y-98942857D01*
X209698167Y-98911834D01*
X209734323Y-98872565D01*
X209824642Y-98857104D01*
X209941902Y-98865916D01*
G36*
X214007198Y-100217686D02*
G01*
X214109001Y-100300885D01*
X214197568Y-100418639D01*
X214327341Y-100591177D01*
X214461959Y-100734845D01*
X214586272Y-100835632D01*
X214685126Y-100879523D01*
X214696800Y-100880334D01*
X214793330Y-100852348D01*
X214898504Y-100784016D01*
X214909167Y-100774500D01*
X215041979Y-100691078D01*
X215180165Y-100667669D01*
X215299926Y-100704835D01*
X215358013Y-100763917D01*
X215397836Y-100842374D01*
X215451308Y-100966895D01*
X215508485Y-101111603D01*
X215559425Y-101250619D01*
X215594184Y-101358063D01*
X215603667Y-101403263D01*
X215580451Y-101433032D01*
X215526727Y-101409290D01*
X215466378Y-101343412D01*
X215461194Y-101335417D01*
X215409385Y-101231982D01*
X215357700Y-101098119D01*
X215348868Y-101070834D01*
X215285378Y-100903099D01*
X215218648Y-100815407D01*
X215139431Y-100803347D01*
X215038477Y-100862508D01*
X214993834Y-100901500D01*
X214866098Y-100983363D01*
X214705931Y-101007334D01*
X214592607Y-100997534D01*
X214502039Y-100957203D01*
X214402164Y-100869945D01*
X214367679Y-100834361D01*
X214250172Y-100699934D01*
X214139175Y-100555596D01*
X214097551Y-100494133D01*
X214029471Y-100399678D01*
X213976054Y-100349067D01*
X213960272Y-100346466D01*
X213929588Y-100390275D01*
X213870913Y-100493835D01*
X213793237Y-100640735D01*
X213721710Y-100781944D01*
X213625440Y-100975589D01*
X213559862Y-101104864D01*
X213517307Y-101180880D01*
X213490107Y-101214744D01*
X213470592Y-101217568D01*
X213451094Y-101200459D01*
X213440453Y-101189386D01*
X213431799Y-101123369D01*
X213467796Y-100992556D01*
X213546261Y-100802685D01*
X213665014Y-100559495D01*
X213718807Y-100457000D01*
X213820401Y-100295079D01*
X213913765Y-100215529D01*
X214007198Y-100217686D01*
G37*
X214007198Y-100217686D02*
X214109001Y-100300885D01*
X214197568Y-100418639D01*
X214327341Y-100591177D01*
X214461959Y-100734845D01*
X214586272Y-100835632D01*
X214685126Y-100879523D01*
X214696800Y-100880334D01*
X214793330Y-100852348D01*
X214898504Y-100784016D01*
X214909167Y-100774500D01*
X215041979Y-100691078D01*
X215180165Y-100667669D01*
X215299926Y-100704835D01*
X215358013Y-100763917D01*
X215397836Y-100842374D01*
X215451308Y-100966895D01*
X215508485Y-101111603D01*
X215559425Y-101250619D01*
X215594184Y-101358063D01*
X215603667Y-101403263D01*
X215580451Y-101433032D01*
X215526727Y-101409290D01*
X215466378Y-101343412D01*
X215461194Y-101335417D01*
X215409385Y-101231982D01*
X215357700Y-101098119D01*
X215348868Y-101070834D01*
X215285378Y-100903099D01*
X215218648Y-100815407D01*
X215139431Y-100803347D01*
X215038477Y-100862508D01*
X214993834Y-100901500D01*
X214866098Y-100983363D01*
X214705931Y-101007334D01*
X214592607Y-100997534D01*
X214502039Y-100957203D01*
X214402164Y-100869945D01*
X214367679Y-100834361D01*
X214250172Y-100699934D01*
X214139175Y-100555596D01*
X214097551Y-100494133D01*
X214029471Y-100399678D01*
X213976054Y-100349067D01*
X213960272Y-100346466D01*
X213929588Y-100390275D01*
X213870913Y-100493835D01*
X213793237Y-100640735D01*
X213721710Y-100781944D01*
X213625440Y-100975589D01*
X213559862Y-101104864D01*
X213517307Y-101180880D01*
X213490107Y-101214744D01*
X213470592Y-101217568D01*
X213451094Y-101200459D01*
X213440453Y-101189386D01*
X213431799Y-101123369D01*
X213467796Y-100992556D01*
X213546261Y-100802685D01*
X213665014Y-100559495D01*
X213718807Y-100457000D01*
X213820401Y-100295079D01*
X213913765Y-100215529D01*
X214007198Y-100217686D01*
G36*
X233937850Y-106381152D02*
G01*
X233998003Y-106449011D01*
X234076487Y-106554337D01*
X234095705Y-106612549D01*
X234057058Y-106635590D01*
X234020156Y-106637667D01*
X233936161Y-106603484D01*
X233889896Y-106549692D01*
X233862885Y-106452027D01*
X233869265Y-106392787D01*
X233895262Y-106358401D01*
X233937850Y-106381152D01*
G37*
X233937850Y-106381152D02*
X233998003Y-106449011D01*
X234076487Y-106554337D01*
X234095705Y-106612549D01*
X234057058Y-106635590D01*
X234020156Y-106637667D01*
X233936161Y-106603484D01*
X233889896Y-106549692D01*
X233862885Y-106452027D01*
X233869265Y-106392787D01*
X233895262Y-106358401D01*
X233937850Y-106381152D01*
G36*
X234678602Y-106302128D02*
G01*
X234729694Y-106362495D01*
X234738334Y-106388850D01*
X234707375Y-106421701D01*
X234643605Y-106419738D01*
X234590685Y-106384489D01*
X234590167Y-106383667D01*
X234578726Y-106315278D01*
X234620359Y-106281611D01*
X234678602Y-106302128D01*
G37*
X234678602Y-106302128D02*
X234729694Y-106362495D01*
X234738334Y-106388850D01*
X234707375Y-106421701D01*
X234643605Y-106419738D01*
X234590685Y-106384489D01*
X234590167Y-106383667D01*
X234578726Y-106315278D01*
X234620359Y-106281611D01*
X234678602Y-106302128D01*
G36*
X233148101Y-105770836D02*
G01*
X233215678Y-105833334D01*
X233273037Y-105916682D01*
X233298034Y-105970399D01*
X233298059Y-105970917D01*
X233272328Y-106004214D01*
X233210189Y-105991605D01*
X233139502Y-105942304D01*
X233111293Y-105909141D01*
X233070307Y-105815196D01*
X233089179Y-105764299D01*
X233148101Y-105770836D01*
G37*
X233148101Y-105770836D02*
X233215678Y-105833334D01*
X233273037Y-105916682D01*
X233298034Y-105970399D01*
X233298059Y-105970917D01*
X233272328Y-106004214D01*
X233210189Y-105991605D01*
X233139502Y-105942304D01*
X233111293Y-105909141D01*
X233070307Y-105815196D01*
X233089179Y-105764299D01*
X233148101Y-105770836D01*
G36*
X233625986Y-105214875D02*
G01*
X233651320Y-105266119D01*
X233690746Y-105370830D01*
X233735013Y-105501090D01*
X233774868Y-105628980D01*
X233801061Y-105726582D01*
X233806377Y-105759250D01*
X233781104Y-105789998D01*
X233724587Y-105770716D01*
X233689556Y-105738084D01*
X233642354Y-105654599D01*
X233604776Y-105542725D01*
X233579176Y-105421842D01*
X233567908Y-105311331D01*
X233573328Y-105230573D01*
X233597789Y-105198946D01*
X233625986Y-105214875D01*
G37*
X233625986Y-105214875D02*
X233651320Y-105266119D01*
X233690746Y-105370830D01*
X233735013Y-105501090D01*
X233774868Y-105628980D01*
X233801061Y-105726582D01*
X233806377Y-105759250D01*
X233781104Y-105789998D01*
X233724587Y-105770716D01*
X233689556Y-105738084D01*
X233642354Y-105654599D01*
X233604776Y-105542725D01*
X233579176Y-105421842D01*
X233567908Y-105311331D01*
X233573328Y-105230573D01*
X233597789Y-105198946D01*
X233625986Y-105214875D01*
G36*
X234487259Y-105602308D02*
G01*
X234519890Y-105656136D01*
X234523906Y-105731058D01*
X234500258Y-105784854D01*
X234483005Y-105791000D01*
X234431120Y-105757259D01*
X234415754Y-105729527D01*
X234410053Y-105652698D01*
X234441931Y-105601369D01*
X234487259Y-105602308D01*
G37*
X234487259Y-105602308D02*
X234519890Y-105656136D01*
X234523906Y-105731058D01*
X234500258Y-105784854D01*
X234483005Y-105791000D01*
X234431120Y-105757259D01*
X234415754Y-105729527D01*
X234410053Y-105652698D01*
X234441931Y-105601369D01*
X234487259Y-105602308D01*
G36*
X232922318Y-104921148D02*
G01*
X232962436Y-105007439D01*
X233002691Y-105121172D01*
X233033255Y-105234907D01*
X233044358Y-105314750D01*
X233027375Y-105367147D01*
X232984096Y-105355097D01*
X232929224Y-105288227D01*
X232892296Y-105215171D01*
X232850393Y-105076165D01*
X232845226Y-104962527D01*
X232876804Y-104896593D01*
X232892161Y-104889740D01*
X232922318Y-104921148D01*
G37*
X232922318Y-104921148D02*
X232962436Y-105007439D01*
X233002691Y-105121172D01*
X233033255Y-105234907D01*
X233044358Y-105314750D01*
X233027375Y-105367147D01*
X232984096Y-105355097D01*
X232929224Y-105288227D01*
X232892296Y-105215171D01*
X232850393Y-105076165D01*
X232845226Y-104962527D01*
X232876804Y-104896593D01*
X232892161Y-104889740D01*
X232922318Y-104921148D01*
G36*
X234365991Y-104481806D02*
G01*
X234407424Y-104596603D01*
X234439263Y-104735923D01*
X234469833Y-104882663D01*
X234497390Y-105000298D01*
X234513003Y-105054454D01*
X234500857Y-105099838D01*
X234447307Y-105115150D01*
X234392886Y-105091647D01*
X234385700Y-105081917D01*
X234358885Y-105006343D01*
X234330684Y-104881632D01*
X234305985Y-104737782D01*
X234289676Y-104604789D01*
X234286644Y-104512647D01*
X234289997Y-104494567D01*
X234326384Y-104447043D01*
X234365991Y-104481806D01*
G37*
X234365991Y-104481806D02*
X234407424Y-104596603D01*
X234439263Y-104735923D01*
X234469833Y-104882663D01*
X234497390Y-105000298D01*
X234513003Y-105054454D01*
X234500857Y-105099838D01*
X234447307Y-105115150D01*
X234392886Y-105091647D01*
X234385700Y-105081917D01*
X234358885Y-105006343D01*
X234330684Y-104881632D01*
X234305985Y-104737782D01*
X234289676Y-104604789D01*
X234286644Y-104512647D01*
X234289997Y-104494567D01*
X234326384Y-104447043D01*
X234365991Y-104481806D01*
G36*
X233463856Y-104350362D02*
G01*
X233524087Y-104417895D01*
X233584833Y-104509090D01*
X233627849Y-104597701D01*
X233637667Y-104642414D01*
X233616849Y-104688319D01*
X233562369Y-104668293D01*
X233486188Y-104587725D01*
X233471216Y-104567382D01*
X233399554Y-104447647D01*
X233389648Y-104370628D01*
X233422384Y-104332735D01*
X233463856Y-104350362D01*
G37*
X233463856Y-104350362D02*
X233524087Y-104417895D01*
X233584833Y-104509090D01*
X233627849Y-104597701D01*
X233637667Y-104642414D01*
X233616849Y-104688319D01*
X233562369Y-104668293D01*
X233486188Y-104587725D01*
X233471216Y-104567382D01*
X233399554Y-104447647D01*
X233389648Y-104370628D01*
X233422384Y-104332735D01*
X233463856Y-104350362D01*
G36*
X232256365Y-103045040D02*
G01*
X232307190Y-103150050D01*
X232369124Y-103325543D01*
X232427404Y-103491012D01*
X232488291Y-103642188D01*
X232534772Y-103739001D01*
X232574215Y-103825023D01*
X232626109Y-103959650D01*
X232682076Y-104118139D01*
X232733739Y-104275746D01*
X232772721Y-104407728D01*
X232790645Y-104489342D01*
X232791000Y-104495822D01*
X232764364Y-104520933D01*
X232707413Y-104499598D01*
X232673185Y-104468084D01*
X232638573Y-104400741D01*
X232593520Y-104280524D01*
X232557633Y-104166484D01*
X232504923Y-104006148D01*
X232445970Y-103858278D01*
X232410220Y-103785484D01*
X232352315Y-103665892D01*
X232292775Y-103514301D01*
X232238628Y-103353181D01*
X232196901Y-103205002D01*
X232174622Y-103092235D01*
X232176974Y-103039645D01*
X232214386Y-103010360D01*
X232256365Y-103045040D01*
G37*
X232256365Y-103045040D02*
X232307190Y-103150050D01*
X232369124Y-103325543D01*
X232427404Y-103491012D01*
X232488291Y-103642188D01*
X232534772Y-103739001D01*
X232574215Y-103825023D01*
X232626109Y-103959650D01*
X232682076Y-104118139D01*
X232733739Y-104275746D01*
X232772721Y-104407728D01*
X232790645Y-104489342D01*
X232791000Y-104495822D01*
X232764364Y-104520933D01*
X232707413Y-104499598D01*
X232673185Y-104468084D01*
X232638573Y-104400741D01*
X232593520Y-104280524D01*
X232557633Y-104166484D01*
X232504923Y-104006148D01*
X232445970Y-103858278D01*
X232410220Y-103785484D01*
X232352315Y-103665892D01*
X232292775Y-103514301D01*
X232238628Y-103353181D01*
X232196901Y-103205002D01*
X232174622Y-103092235D01*
X232176974Y-103039645D01*
X232214386Y-103010360D01*
X232256365Y-103045040D01*
G36*
X234402592Y-103951308D02*
G01*
X234436882Y-104003767D01*
X234436386Y-104067435D01*
X234402165Y-104097667D01*
X234344832Y-104066895D01*
X234336167Y-104055334D01*
X234327885Y-103992552D01*
X234361481Y-103948505D01*
X234402592Y-103951308D01*
G37*
X234402592Y-103951308D02*
X234436882Y-104003767D01*
X234436386Y-104067435D01*
X234402165Y-104097667D01*
X234344832Y-104066895D01*
X234336167Y-104055334D01*
X234327885Y-103992552D01*
X234361481Y-103948505D01*
X234402592Y-103951308D01*
G36*
X233299000Y-103822500D02*
G01*
X233277834Y-103843667D01*
X233256667Y-103822500D01*
X233277834Y-103801334D01*
X233299000Y-103822500D01*
G37*
X233299000Y-103822500D02*
X233277834Y-103843667D01*
X233256667Y-103822500D01*
X233277834Y-103801334D01*
X233299000Y-103822500D01*
G36*
X233478971Y-103251239D02*
G01*
X233488311Y-103338573D01*
X233481460Y-103498037D01*
X233478590Y-103536750D01*
X233461402Y-103696189D01*
X233437956Y-103780117D01*
X233404041Y-103797664D01*
X233369556Y-103773111D01*
X233346187Y-103704968D01*
X233339270Y-103586767D01*
X233346826Y-103451084D01*
X233366880Y-103330499D01*
X233397451Y-103257588D01*
X233401065Y-103254128D01*
X233450776Y-103226327D01*
X233478971Y-103251239D01*
G37*
X233478971Y-103251239D02*
X233488311Y-103338573D01*
X233481460Y-103498037D01*
X233478590Y-103536750D01*
X233461402Y-103696189D01*
X233437956Y-103780117D01*
X233404041Y-103797664D01*
X233369556Y-103773111D01*
X233346187Y-103704968D01*
X233339270Y-103586767D01*
X233346826Y-103451084D01*
X233366880Y-103330499D01*
X233397451Y-103257588D01*
X233401065Y-103254128D01*
X233450776Y-103226327D01*
X233478971Y-103251239D01*
G36*
X233087035Y-103229649D02*
G01*
X233119405Y-103284029D01*
X233128523Y-103366740D01*
X233114562Y-103438822D01*
X233086005Y-103462667D01*
X233034453Y-103428837D01*
X233017976Y-103399167D01*
X233008576Y-103317419D01*
X233031476Y-103248660D01*
X233073832Y-103224414D01*
X233087035Y-103229649D01*
G37*
X233087035Y-103229649D02*
X233119405Y-103284029D01*
X233128523Y-103366740D01*
X233114562Y-103438822D01*
X233086005Y-103462667D01*
X233034453Y-103428837D01*
X233017976Y-103399167D01*
X233008576Y-103317419D01*
X233031476Y-103248660D01*
X233073832Y-103224414D01*
X233087035Y-103229649D01*
G36*
X234107536Y-103233637D02*
G01*
X234167271Y-103309847D01*
X234188067Y-103380789D01*
X234163355Y-103419025D01*
X234152228Y-103420334D01*
X234099675Y-103392062D01*
X234042248Y-103338334D01*
X233993372Y-103256513D01*
X234000101Y-103202647D01*
X234050175Y-103196396D01*
X234107536Y-103233637D01*
G37*
X234107536Y-103233637D02*
X234167271Y-103309847D01*
X234188067Y-103380789D01*
X234163355Y-103419025D01*
X234152228Y-103420334D01*
X234099675Y-103392062D01*
X234042248Y-103338334D01*
X233993372Y-103256513D01*
X234000101Y-103202647D01*
X234050175Y-103196396D01*
X234107536Y-103233637D01*
G36*
X232998215Y-102600049D02*
G01*
X233046685Y-102658610D01*
X233103881Y-102741889D01*
X233128706Y-102795490D01*
X233128726Y-102795917D01*
X233100629Y-102826620D01*
X233035984Y-102817123D01*
X232968961Y-102773776D01*
X232960781Y-102764706D01*
X232929928Y-102676306D01*
X232937057Y-102627399D01*
X232962622Y-102583795D01*
X232998215Y-102600049D01*
G37*
X232998215Y-102600049D02*
X233046685Y-102658610D01*
X233103881Y-102741889D01*
X233128706Y-102795490D01*
X233128726Y-102795917D01*
X233100629Y-102826620D01*
X233035984Y-102817123D01*
X232968961Y-102773776D01*
X232960781Y-102764706D01*
X232929928Y-102676306D01*
X232937057Y-102627399D01*
X232962622Y-102583795D01*
X232998215Y-102600049D01*
G36*
X232047592Y-102486969D02*
G01*
X232052021Y-102490539D01*
X232092182Y-102556615D01*
X232111483Y-102649742D01*
X232107888Y-102736537D01*
X232079359Y-102783617D01*
X232070005Y-102785334D01*
X232022330Y-102750634D01*
X232003415Y-102711250D01*
X231962596Y-102607122D01*
X231942110Y-102565046D01*
X231929729Y-102490100D01*
X231973093Y-102458514D01*
X232047592Y-102486969D01*
G37*
X232047592Y-102486969D02*
X232052021Y-102490539D01*
X232092182Y-102556615D01*
X232111483Y-102649742D01*
X232107888Y-102736537D01*
X232079359Y-102783617D01*
X232070005Y-102785334D01*
X232022330Y-102750634D01*
X232003415Y-102711250D01*
X231962596Y-102607122D01*
X231942110Y-102565046D01*
X231929729Y-102490100D01*
X231973093Y-102458514D01*
X232047592Y-102486969D01*
G36*
X233744384Y-102385593D02*
G01*
X233796893Y-102510167D01*
X233838121Y-102625673D01*
X233870699Y-102711250D01*
X233874860Y-102772372D01*
X233834341Y-102785334D01*
X233778792Y-102748957D01*
X233709279Y-102653015D01*
X233665162Y-102570541D01*
X233609168Y-102444631D01*
X233591813Y-102373688D01*
X233609883Y-102339081D01*
X233624029Y-102332087D01*
X233690195Y-102328847D01*
X233744384Y-102385593D01*
G37*
X233744384Y-102385593D02*
X233796893Y-102510167D01*
X233838121Y-102625673D01*
X233870699Y-102711250D01*
X233874860Y-102772372D01*
X233834341Y-102785334D01*
X233778792Y-102748957D01*
X233709279Y-102653015D01*
X233665162Y-102570541D01*
X233609168Y-102444631D01*
X233591813Y-102373688D01*
X233609883Y-102339081D01*
X233624029Y-102332087D01*
X233690195Y-102328847D01*
X233744384Y-102385593D01*
G36*
X231801440Y-102094492D02*
G01*
X231801542Y-102155876D01*
X231816643Y-102171073D01*
X231857890Y-102225090D01*
X231859667Y-102237499D01*
X231829107Y-102272711D01*
X231765375Y-102270645D01*
X231710398Y-102233125D01*
X231708989Y-102230938D01*
X231713821Y-102170128D01*
X231754788Y-102114521D01*
X231800360Y-102079296D01*
X231801440Y-102094492D01*
G37*
X231801440Y-102094492D02*
X231801542Y-102155876D01*
X231816643Y-102171073D01*
X231857890Y-102225090D01*
X231859667Y-102237499D01*
X231829107Y-102272711D01*
X231765375Y-102270645D01*
X231710398Y-102233125D01*
X231708989Y-102230938D01*
X231713821Y-102170128D01*
X231754788Y-102114521D01*
X231800360Y-102079296D01*
X231801440Y-102094492D01*
G36*
X232505008Y-102068600D02*
G01*
X232522295Y-102088512D01*
X232567675Y-102164132D01*
X232579334Y-102200758D01*
X232550236Y-102233495D01*
X232489044Y-102227444D01*
X232434910Y-102189561D01*
X232426087Y-102173527D01*
X232416621Y-102090115D01*
X232449873Y-102049002D01*
X232505008Y-102068600D01*
G37*
X232505008Y-102068600D02*
X232522295Y-102088512D01*
X232567675Y-102164132D01*
X232579334Y-102200758D01*
X232550236Y-102233495D01*
X232489044Y-102227444D01*
X232434910Y-102189561D01*
X232426087Y-102173527D01*
X232416621Y-102090115D01*
X232449873Y-102049002D01*
X232505008Y-102068600D01*
G36*
X233147190Y-101879987D02*
G01*
X233224509Y-101926866D01*
X233284964Y-101990853D01*
X233299000Y-102029895D01*
X233270724Y-102064617D01*
X233204187Y-102052503D01*
X233126829Y-102000121D01*
X233112304Y-101985203D01*
X233067503Y-101912939D01*
X233087243Y-101875223D01*
X233147190Y-101879987D01*
G37*
X233147190Y-101879987D02*
X233224509Y-101926866D01*
X233284964Y-101990853D01*
X233299000Y-102029895D01*
X233270724Y-102064617D01*
X233204187Y-102052503D01*
X233126829Y-102000121D01*
X233112304Y-101985203D01*
X233067503Y-101912939D01*
X233087243Y-101875223D01*
X233147190Y-101879987D01*
G36*
X232167624Y-101618262D02*
G01*
X232199091Y-101704342D01*
X232202637Y-101720339D01*
X232235751Y-101831306D01*
X232276378Y-101906538D01*
X232278456Y-101908722D01*
X232322728Y-101978787D01*
X232295974Y-102018826D01*
X232262809Y-102023334D01*
X232196059Y-101990839D01*
X232132733Y-101920236D01*
X232091939Y-101820129D01*
X232080252Y-101710015D01*
X232097635Y-101621743D01*
X232133098Y-101588101D01*
X232167624Y-101618262D01*
G37*
X232167624Y-101618262D02*
X232199091Y-101704342D01*
X232202637Y-101720339D01*
X232235751Y-101831306D01*
X232276378Y-101906538D01*
X232278456Y-101908722D01*
X232322728Y-101978787D01*
X232295974Y-102018826D01*
X232262809Y-102023334D01*
X232196059Y-101990839D01*
X232132733Y-101920236D01*
X232091939Y-101820129D01*
X232080252Y-101710015D01*
X232097635Y-101621743D01*
X232133098Y-101588101D01*
X232167624Y-101618262D01*
G36*
X232418215Y-101151116D02*
G01*
X232447022Y-101248180D01*
X232460553Y-101324834D01*
X232484266Y-101481875D01*
X232509463Y-101628698D01*
X232518274Y-101674084D01*
X232526544Y-101777489D01*
X232501456Y-101810583D01*
X232454131Y-101775097D01*
X232395692Y-101672759D01*
X232387481Y-101653734D01*
X232354666Y-101537509D01*
X232337745Y-101400618D01*
X232336655Y-101267913D01*
X232351335Y-101164250D01*
X232381722Y-101114483D01*
X232388834Y-101113167D01*
X232418215Y-101151116D01*
G37*
X232418215Y-101151116D02*
X232447022Y-101248180D01*
X232460553Y-101324834D01*
X232484266Y-101481875D01*
X232509463Y-101628698D01*
X232518274Y-101674084D01*
X232526544Y-101777489D01*
X232501456Y-101810583D01*
X232454131Y-101775097D01*
X232395692Y-101672759D01*
X232387481Y-101653734D01*
X232354666Y-101537509D01*
X232337745Y-101400618D01*
X232336655Y-101267913D01*
X232351335Y-101164250D01*
X232381722Y-101114483D01*
X232388834Y-101113167D01*
X232418215Y-101151116D01*
G36*
X231630934Y-101536186D02*
G01*
X231663923Y-101652091D01*
X231664120Y-101652917D01*
X231662936Y-101742528D01*
X231618207Y-101776642D01*
X231549222Y-101741111D01*
X231524334Y-101673458D01*
X231525204Y-101579253D01*
X231549659Y-101506153D01*
X231560408Y-101495975D01*
X231599718Y-101489125D01*
X231630934Y-101536186D01*
G37*
X231630934Y-101536186D02*
X231663923Y-101652091D01*
X231664120Y-101652917D01*
X231662936Y-101742528D01*
X231618207Y-101776642D01*
X231549222Y-101741111D01*
X231524334Y-101673458D01*
X231525204Y-101579253D01*
X231549659Y-101506153D01*
X231560408Y-101495975D01*
X231599718Y-101489125D01*
X231630934Y-101536186D01*
G36*
X232886384Y-101130916D02*
G01*
X232930318Y-101234951D01*
X232956635Y-101368328D01*
X232960334Y-101440086D01*
X232950703Y-101579962D01*
X232920899Y-101639696D01*
X232869554Y-101621703D01*
X232861556Y-101614111D01*
X232842339Y-101556147D01*
X232833413Y-101452855D01*
X232833334Y-101441995D01*
X232819714Y-101314821D01*
X232787078Y-101211672D01*
X232764375Y-101118679D01*
X232782179Y-101083888D01*
X232833961Y-101074478D01*
X232886384Y-101130916D01*
G37*
X232886384Y-101130916D02*
X232930318Y-101234951D01*
X232956635Y-101368328D01*
X232960334Y-101440086D01*
X232950703Y-101579962D01*
X232920899Y-101639696D01*
X232869554Y-101621703D01*
X232861556Y-101614111D01*
X232842339Y-101556147D01*
X232833413Y-101452855D01*
X232833334Y-101441995D01*
X232819714Y-101314821D01*
X232787078Y-101211672D01*
X232764375Y-101118679D01*
X232782179Y-101083888D01*
X232833961Y-101074478D01*
X232886384Y-101130916D01*
G36*
X226587357Y-103459747D02*
G01*
X226588015Y-103460803D01*
X226588595Y-103524812D01*
X226557867Y-103628675D01*
X226508943Y-103740170D01*
X226454936Y-103827073D01*
X226428775Y-103852118D01*
X226356450Y-103870071D01*
X226231015Y-103878812D01*
X226083543Y-103878182D01*
X225945105Y-103868023D01*
X225869500Y-103854980D01*
X225736342Y-103798874D01*
X225624106Y-103711925D01*
X225547046Y-103611878D01*
X225519416Y-103516477D01*
X225545768Y-103451965D01*
X225591503Y-103443114D01*
X225637653Y-103511425D01*
X225716450Y-103623740D01*
X225840792Y-103697042D01*
X226026436Y-103739342D01*
X226102476Y-103747740D01*
X226342922Y-103769543D01*
X226412785Y-103594938D01*
X226477314Y-103466554D01*
X226535178Y-103421740D01*
X226587357Y-103459747D01*
G37*
X226587357Y-103459747D02*
X226588015Y-103460803D01*
X226588595Y-103524812D01*
X226557867Y-103628675D01*
X226508943Y-103740170D01*
X226454936Y-103827073D01*
X226428775Y-103852118D01*
X226356450Y-103870071D01*
X226231015Y-103878812D01*
X226083543Y-103878182D01*
X225945105Y-103868023D01*
X225869500Y-103854980D01*
X225736342Y-103798874D01*
X225624106Y-103711925D01*
X225547046Y-103611878D01*
X225519416Y-103516477D01*
X225545768Y-103451965D01*
X225591503Y-103443114D01*
X225637653Y-103511425D01*
X225716450Y-103623740D01*
X225840792Y-103697042D01*
X226026436Y-103739342D01*
X226102476Y-103747740D01*
X226342922Y-103769543D01*
X226412785Y-103594938D01*
X226477314Y-103466554D01*
X226535178Y-103421740D01*
X226587357Y-103459747D01*
G36*
X226747594Y-101931994D02*
G01*
X226773992Y-101989731D01*
X226745800Y-102031800D01*
X226707679Y-102109950D01*
X226695000Y-102200046D01*
X226733399Y-102311269D01*
X226838458Y-102392591D01*
X226994971Y-102435705D01*
X227131297Y-102438401D01*
X227244183Y-102424266D01*
X227295598Y-102393518D01*
X227308729Y-102330650D01*
X227308834Y-102319667D01*
X227295692Y-102259374D01*
X227247254Y-102209727D01*
X227150005Y-102163330D01*
X226990425Y-102112790D01*
X226872234Y-102080820D01*
X226838762Y-102041453D01*
X226845972Y-102018795D01*
X226907892Y-101990042D01*
X227018640Y-101991474D01*
X227149899Y-102018392D01*
X227273351Y-102066097D01*
X227326335Y-102098502D01*
X227410149Y-102200700D01*
X227451115Y-102331657D01*
X227442151Y-102457265D01*
X227412372Y-102512932D01*
X227330840Y-102555200D01*
X227195199Y-102572732D01*
X227031986Y-102566567D01*
X226867741Y-102537743D01*
X226729002Y-102487298D01*
X226726750Y-102486118D01*
X226630783Y-102429000D01*
X226584144Y-102369762D01*
X226569156Y-102276193D01*
X226568000Y-102196839D01*
X226583527Y-102046374D01*
X226624583Y-101944367D01*
X226682883Y-101903036D01*
X226747594Y-101931994D01*
G37*
X226747594Y-101931994D02*
X226773992Y-101989731D01*
X226745800Y-102031800D01*
X226707679Y-102109950D01*
X226695000Y-102200046D01*
X226733399Y-102311269D01*
X226838458Y-102392591D01*
X226994971Y-102435705D01*
X227131297Y-102438401D01*
X227244183Y-102424266D01*
X227295598Y-102393518D01*
X227308729Y-102330650D01*
X227308834Y-102319667D01*
X227295692Y-102259374D01*
X227247254Y-102209727D01*
X227150005Y-102163330D01*
X226990425Y-102112790D01*
X226872234Y-102080820D01*
X226838762Y-102041453D01*
X226845972Y-102018795D01*
X226907892Y-101990042D01*
X227018640Y-101991474D01*
X227149899Y-102018392D01*
X227273351Y-102066097D01*
X227326335Y-102098502D01*
X227410149Y-102200700D01*
X227451115Y-102331657D01*
X227442151Y-102457265D01*
X227412372Y-102512932D01*
X227330840Y-102555200D01*
X227195199Y-102572732D01*
X227031986Y-102566567D01*
X226867741Y-102537743D01*
X226729002Y-102487298D01*
X226726750Y-102486118D01*
X226630783Y-102429000D01*
X226584144Y-102369762D01*
X226569156Y-102276193D01*
X226568000Y-102196839D01*
X226583527Y-102046374D01*
X226624583Y-101944367D01*
X226682883Y-101903036D01*
X226747594Y-101931994D01*
G36*
X225371722Y-101982849D02*
G01*
X225509634Y-102010560D01*
X225637180Y-102050105D01*
X225724580Y-102095255D01*
X225732934Y-102102667D01*
X225753262Y-102168718D01*
X225748977Y-102277031D01*
X225745886Y-102295338D01*
X225725784Y-102383038D01*
X225692250Y-102427940D01*
X225621351Y-102444373D01*
X225493143Y-102446667D01*
X225332269Y-102435439D01*
X225231686Y-102397925D01*
X225198728Y-102369250D01*
X225146536Y-102267616D01*
X225141518Y-102228020D01*
X225264367Y-102228020D01*
X225271754Y-102258194D01*
X225327873Y-102302689D01*
X225426469Y-102319729D01*
X225529950Y-102309390D01*
X225600726Y-102271745D01*
X225609122Y-102257523D01*
X225608671Y-102189403D01*
X225592485Y-102170358D01*
X225557781Y-102181026D01*
X225552000Y-102211335D01*
X225530208Y-102269755D01*
X225483927Y-102266915D01*
X225441801Y-102207475D01*
X225437266Y-102192667D01*
X225389873Y-102122247D01*
X225321318Y-102113173D01*
X225275581Y-102152361D01*
X225264367Y-102228020D01*
X225141518Y-102228020D01*
X225130662Y-102142363D01*
X225152578Y-102031373D01*
X225183924Y-101987841D01*
X225253226Y-101973200D01*
X225371722Y-101982849D01*
G37*
X225371722Y-101982849D02*
X225509634Y-102010560D01*
X225637180Y-102050105D01*
X225724580Y-102095255D01*
X225732934Y-102102667D01*
X225753262Y-102168718D01*
X225748977Y-102277031D01*
X225745886Y-102295338D01*
X225725784Y-102383038D01*
X225692250Y-102427940D01*
X225621351Y-102444373D01*
X225493143Y-102446667D01*
X225332269Y-102435439D01*
X225231686Y-102397925D01*
X225198728Y-102369250D01*
X225146536Y-102267616D01*
X225141518Y-102228020D01*
X225264367Y-102228020D01*
X225271754Y-102258194D01*
X225327873Y-102302689D01*
X225426469Y-102319729D01*
X225529950Y-102309390D01*
X225600726Y-102271745D01*
X225609122Y-102257523D01*
X225608671Y-102189403D01*
X225592485Y-102170358D01*
X225557781Y-102181026D01*
X225552000Y-102211335D01*
X225530208Y-102269755D01*
X225483927Y-102266915D01*
X225441801Y-102207475D01*
X225437266Y-102192667D01*
X225389873Y-102122247D01*
X225321318Y-102113173D01*
X225275581Y-102152361D01*
X225264367Y-102228020D01*
X225141518Y-102228020D01*
X225130662Y-102142363D01*
X225152578Y-102031373D01*
X225183924Y-101987841D01*
X225253226Y-101973200D01*
X225371722Y-101982849D01*
G36*
X227016943Y-102204801D02*
G01*
X227033667Y-102300999D01*
X227016077Y-102386962D01*
X226967178Y-102395007D01*
X226906667Y-102340834D01*
X226875385Y-102272836D01*
X226906280Y-102214300D01*
X226970692Y-102171235D01*
X227016943Y-102204801D01*
G37*
X227016943Y-102204801D02*
X227033667Y-102300999D01*
X227016077Y-102386962D01*
X226967178Y-102395007D01*
X226906667Y-102340834D01*
X226875385Y-102272836D01*
X226906280Y-102214300D01*
X226970692Y-102171235D01*
X227016943Y-102204801D01*
D11*
%TO.C,J4*%
X174760000Y-100890000D02*
X172100000Y-100890000D01*
X174760000Y-100890000D02*
X174760000Y-93210000D01*
X174760000Y-93210000D02*
X172100000Y-93210000D01*
X172100000Y-100890000D02*
X172100000Y-93210000D01*
X172100000Y-103490000D02*
X172100000Y-102160000D01*
X173430000Y-103490000D02*
X172100000Y-103490000D01*
%TO.C,J2*%
X147870000Y-104655000D02*
X147870000Y-102155000D01*
X147870000Y-102155000D02*
X148920000Y-102155000D01*
X148920000Y-102155000D02*
X148920000Y-101165000D01*
X152090000Y-104655000D02*
X152090000Y-102155000D01*
X152090000Y-102155000D02*
X151040000Y-102155000D01*
X149040000Y-106625000D02*
X150920000Y-106625000D01*
%TO.C,J4*%
D10*
X173096666Y-104382380D02*
X173096666Y-105096666D01*
X173049047Y-105239523D01*
X172953809Y-105334761D01*
X172810952Y-105382380D01*
X172715714Y-105382380D01*
X174001428Y-104715714D02*
X174001428Y-105382380D01*
X173763333Y-104334761D02*
X173525238Y-105049047D01*
X174144285Y-105049047D01*
%TO.C,J2*%
X149646666Y-99412380D02*
X149646666Y-100126666D01*
X149599047Y-100269523D01*
X149503809Y-100364761D01*
X149360952Y-100412380D01*
X149265714Y-100412380D01*
X150075238Y-99507619D02*
X150122857Y-99460000D01*
X150218095Y-99412380D01*
X150456190Y-99412380D01*
X150551428Y-99460000D01*
X150599047Y-99507619D01*
X150646666Y-99602857D01*
X150646666Y-99698095D01*
X150599047Y-99840952D01*
X150027619Y-100412380D01*
X150646666Y-100412380D01*
%TD*%
M02*
