%TF.GenerationSoftware,KiCad,Pcbnew,5.1.10*%
%TF.CreationDate,2021-06-16T22:45:42+02:00*%
%TF.ProjectId,ptm-60nrf,70746d2d-3630-46e7-9266-2e6b69636164,rev?*%
%TF.SameCoordinates,Original*%
%TF.FileFunction,Soldermask,Bot*%
%TF.FilePolarity,Negative*%
%FSLAX46Y46*%
G04 Gerber Fmt 4.6, Leading zero omitted, Abs format (unit mm)*
G04 Created by KiCad (PCBNEW 5.1.10) date 2021-06-16 22:45:42*
%MOMM*%
%LPD*%
G01*
G04 APERTURE LIST*
%ADD10C,0.400000*%
%ADD11C,0.090000*%
%ADD12C,0.140000*%
%ADD13C,0.100000*%
%ADD14C,0.150000*%
%ADD15C,1.400000*%
%ADD16R,0.500000X0.500000*%
%ADD17R,2.000000X2.000000*%
%ADD18C,2.000000*%
%ADD19R,2.000000X3.200000*%
%ADD20C,2.250000*%
%ADD21C,3.987800*%
%ADD22C,1.750000*%
%ADD23R,0.800000X0.900000*%
%ADD24R,1.800000X2.500000*%
%ADD25O,1.700000X1.700000*%
%ADD26R,1.700000X1.700000*%
%ADD27O,9.999980X5.001260*%
%ADD28C,7.000240*%
%ADD29R,0.650000X1.060000*%
%ADD30R,0.600000X1.450000*%
%ADD31R,0.300000X1.450000*%
%ADD32O,1.000000X2.100000*%
%ADD33C,0.650000*%
%ADD34O,1.000000X1.600000*%
%ADD35C,3.048000*%
%ADD36R,1.905000X1.905000*%
%ADD37C,1.905000*%
%ADD38R,1.524000X0.700000*%
%ADD39R,0.700000X1.524000*%
G04 APERTURE END LIST*
D10*
X42018095Y-55547142D02*
X43541904Y-55547142D01*
X36718095Y-55537142D02*
X38241904Y-55537142D01*
X37480000Y-54775238D02*
X37480000Y-56299047D01*
D11*
X302104285Y-109639523D02*
X302128095Y-109710952D01*
X302151904Y-109734761D01*
X302199523Y-109758571D01*
X302270952Y-109758571D01*
X302318571Y-109734761D01*
X302342380Y-109710952D01*
X302366190Y-109663333D01*
X302366190Y-109472857D01*
X301866190Y-109472857D01*
X301866190Y-109639523D01*
X301890000Y-109687142D01*
X301913809Y-109710952D01*
X301961428Y-109734761D01*
X302009047Y-109734761D01*
X302056666Y-109710952D01*
X302080476Y-109687142D01*
X302104285Y-109639523D01*
X302104285Y-109472857D01*
X301866190Y-109901428D02*
X301866190Y-110187142D01*
X302366190Y-110044285D02*
X301866190Y-110044285D01*
X301866190Y-110306190D02*
X302366190Y-110425238D01*
X302009047Y-110520476D01*
X302366190Y-110615714D01*
X301866190Y-110734761D01*
D12*
X300532142Y-99424285D02*
X299632142Y-99424285D01*
X300275000Y-99724285D01*
X299632142Y-100024285D01*
X300532142Y-100024285D01*
X300532142Y-100838571D02*
X300060714Y-100838571D01*
X299975000Y-100795714D01*
X299932142Y-100710000D01*
X299932142Y-100538571D01*
X299975000Y-100452857D01*
X300489285Y-100838571D02*
X300532142Y-100752857D01*
X300532142Y-100538571D01*
X300489285Y-100452857D01*
X300403571Y-100410000D01*
X300317857Y-100410000D01*
X300232142Y-100452857D01*
X300189285Y-100538571D01*
X300189285Y-100752857D01*
X300146428Y-100838571D01*
X300532142Y-101652857D02*
X299632142Y-101652857D01*
X300489285Y-101652857D02*
X300532142Y-101567142D01*
X300532142Y-101395714D01*
X300489285Y-101310000D01*
X300446428Y-101267142D01*
X300360714Y-101224285D01*
X300103571Y-101224285D01*
X300017857Y-101267142D01*
X299975000Y-101310000D01*
X299932142Y-101395714D01*
X299932142Y-101567142D01*
X299975000Y-101652857D01*
X300489285Y-102424285D02*
X300532142Y-102338571D01*
X300532142Y-102167142D01*
X300489285Y-102081428D01*
X300403571Y-102038571D01*
X300060714Y-102038571D01*
X299975000Y-102081428D01*
X299932142Y-102167142D01*
X299932142Y-102338571D01*
X299975000Y-102424285D01*
X300060714Y-102467142D01*
X300146428Y-102467142D01*
X300232142Y-102038571D01*
X299932142Y-103452857D02*
X300532142Y-103624285D01*
X300103571Y-103795714D01*
X300532142Y-103967142D01*
X299932142Y-104138571D01*
X300532142Y-104481428D02*
X299932142Y-104481428D01*
X299632142Y-104481428D02*
X299675000Y-104438571D01*
X299717857Y-104481428D01*
X299675000Y-104524285D01*
X299632142Y-104481428D01*
X299717857Y-104481428D01*
X299932142Y-104781428D02*
X299932142Y-105124285D01*
X299632142Y-104910000D02*
X300403571Y-104910000D01*
X300489285Y-104952857D01*
X300532142Y-105038571D01*
X300532142Y-105124285D01*
X300532142Y-105424285D02*
X299632142Y-105424285D01*
X300532142Y-105810000D02*
X300060714Y-105810000D01*
X299975000Y-105767142D01*
X299932142Y-105681428D01*
X299932142Y-105552857D01*
X299975000Y-105467142D01*
X300017857Y-105424285D01*
X300532142Y-106924285D02*
X299632142Y-106924285D01*
X300532142Y-107438571D02*
X300017857Y-107052857D01*
X299632142Y-107438571D02*
X300146428Y-106924285D01*
X300532142Y-107824285D02*
X299932142Y-107824285D01*
X299632142Y-107824285D02*
X299675000Y-107781428D01*
X299717857Y-107824285D01*
X299675000Y-107867142D01*
X299632142Y-107824285D01*
X299717857Y-107824285D01*
X300446428Y-108767142D02*
X300489285Y-108724285D01*
X300532142Y-108595714D01*
X300532142Y-108510000D01*
X300489285Y-108381428D01*
X300403571Y-108295714D01*
X300317857Y-108252857D01*
X300146428Y-108210000D01*
X300017857Y-108210000D01*
X299846428Y-108252857D01*
X299760714Y-108295714D01*
X299675000Y-108381428D01*
X299632142Y-108510000D01*
X299632142Y-108595714D01*
X299675000Y-108724285D01*
X299717857Y-108767142D01*
X300275000Y-109110000D02*
X300275000Y-109538571D01*
X300532142Y-109024285D02*
X299632142Y-109324285D01*
X300532142Y-109624285D01*
X300532142Y-109924285D02*
X299632142Y-109924285D01*
X299632142Y-110138571D01*
X299675000Y-110267142D01*
X299760714Y-110352857D01*
X299846428Y-110395714D01*
X300017857Y-110438571D01*
X300146428Y-110438571D01*
X300317857Y-110395714D01*
X300403571Y-110352857D01*
X300489285Y-110267142D01*
X300532142Y-110138571D01*
X300532142Y-109924285D01*
X301122142Y-100860000D02*
X301122142Y-101031428D01*
X301165000Y-101117142D01*
X301250714Y-101202857D01*
X301422142Y-101245714D01*
X301722142Y-101245714D01*
X301893571Y-101202857D01*
X301979285Y-101117142D01*
X302022142Y-101031428D01*
X302022142Y-100860000D01*
X301979285Y-100774285D01*
X301893571Y-100688571D01*
X301722142Y-100645714D01*
X301422142Y-100645714D01*
X301250714Y-100688571D01*
X301165000Y-100774285D01*
X301122142Y-100860000D01*
X301422142Y-101631428D02*
X302022142Y-101631428D01*
X301507857Y-101631428D02*
X301465000Y-101674285D01*
X301422142Y-101760000D01*
X301422142Y-101888571D01*
X301465000Y-101974285D01*
X301550714Y-102017142D01*
X302022142Y-102017142D01*
X301765000Y-103088571D02*
X301765000Y-103517142D01*
X302022142Y-103002857D02*
X301122142Y-103302857D01*
X302022142Y-103602857D01*
X302022142Y-103902857D02*
X301422142Y-103902857D01*
X301593571Y-103902857D02*
X301507857Y-103945714D01*
X301465000Y-103988571D01*
X301422142Y-104074285D01*
X301422142Y-104160000D01*
X301979285Y-104845714D02*
X302022142Y-104760000D01*
X302022142Y-104588571D01*
X301979285Y-104502857D01*
X301936428Y-104460000D01*
X301850714Y-104417142D01*
X301593571Y-104417142D01*
X301507857Y-104460000D01*
X301465000Y-104502857D01*
X301422142Y-104588571D01*
X301422142Y-104760000D01*
X301465000Y-104845714D01*
X302022142Y-105231428D02*
X301122142Y-105231428D01*
X302022142Y-105617142D02*
X301550714Y-105617142D01*
X301465000Y-105574285D01*
X301422142Y-105488571D01*
X301422142Y-105360000D01*
X301465000Y-105274285D01*
X301507857Y-105231428D01*
X302022142Y-106474285D02*
X302022142Y-106045714D01*
X301122142Y-106045714D01*
X302022142Y-106774285D02*
X301422142Y-106774285D01*
X301122142Y-106774285D02*
X301165000Y-106731428D01*
X301207857Y-106774285D01*
X301165000Y-106817142D01*
X301122142Y-106774285D01*
X301207857Y-106774285D01*
X301422142Y-107202857D02*
X302022142Y-107202857D01*
X301507857Y-107202857D02*
X301465000Y-107245714D01*
X301422142Y-107331428D01*
X301422142Y-107460000D01*
X301465000Y-107545714D01*
X301550714Y-107588571D01*
X302022142Y-107588571D01*
X301422142Y-108402857D02*
X302022142Y-108402857D01*
X301422142Y-108017142D02*
X301893571Y-108017142D01*
X301979285Y-108060000D01*
X302022142Y-108145714D01*
X302022142Y-108274285D01*
X301979285Y-108360000D01*
X301936428Y-108402857D01*
X302022142Y-108745714D02*
X301422142Y-109217142D01*
X301422142Y-108745714D02*
X302022142Y-109217142D01*
D13*
X20267142Y-28968958D02*
X20248095Y-28952291D01*
X20229047Y-28973720D01*
X20248095Y-28990386D01*
X20267142Y-28968958D01*
X20229047Y-28973720D01*
X20267142Y-28778482D02*
X20248095Y-28761815D01*
X20229047Y-28783244D01*
X20248095Y-28799910D01*
X20267142Y-28778482D01*
X20229047Y-28783244D01*
X20267142Y-28588005D02*
X20248095Y-28571339D01*
X20229047Y-28592767D01*
X20248095Y-28609434D01*
X20267142Y-28588005D01*
X20229047Y-28592767D01*
X20229047Y-28097529D02*
X20495714Y-28064196D01*
X20629047Y-28047529D02*
X20610000Y-28068958D01*
X20590952Y-28052291D01*
X20610000Y-28030863D01*
X20629047Y-28047529D01*
X20590952Y-28052291D01*
X20495714Y-27873720D02*
X20229047Y-27907053D01*
X20457619Y-27878482D02*
X20476666Y-27857053D01*
X20495714Y-27816577D01*
X20495714Y-27759434D01*
X20476666Y-27723720D01*
X20438571Y-27709434D01*
X20229047Y-27735625D01*
X20495714Y-27340386D02*
X20171904Y-27380863D01*
X20133809Y-27404672D01*
X20114761Y-27426101D01*
X20095714Y-27466577D01*
X20095714Y-27523720D01*
X20114761Y-27559434D01*
X20248095Y-27371339D02*
X20229047Y-27411815D01*
X20229047Y-27488005D01*
X20248095Y-27523720D01*
X20267142Y-27540386D01*
X20305238Y-27554672D01*
X20419523Y-27540386D01*
X20457619Y-27516577D01*
X20476666Y-27495148D01*
X20495714Y-27454672D01*
X20495714Y-27378482D01*
X20476666Y-27342767D01*
X20248095Y-27028482D02*
X20229047Y-27068958D01*
X20229047Y-27145148D01*
X20248095Y-27180863D01*
X20286190Y-27195148D01*
X20438571Y-27176101D01*
X20476666Y-27152291D01*
X20495714Y-27111815D01*
X20495714Y-27035625D01*
X20476666Y-26999910D01*
X20438571Y-26985625D01*
X20400476Y-26990386D01*
X20362380Y-27185625D01*
X20495714Y-26807053D02*
X20229047Y-26840386D01*
X20457619Y-26811815D02*
X20476666Y-26790386D01*
X20495714Y-26749910D01*
X20495714Y-26692767D01*
X20476666Y-26657053D01*
X20438571Y-26642767D01*
X20229047Y-26668958D01*
X20248095Y-26495148D02*
X20229047Y-26459434D01*
X20229047Y-26383244D01*
X20248095Y-26342767D01*
X20286190Y-26318958D01*
X20305238Y-26316577D01*
X20343333Y-26330863D01*
X20362380Y-26366577D01*
X20362380Y-26423720D01*
X20381428Y-26459434D01*
X20419523Y-26473720D01*
X20438571Y-26471339D01*
X20476666Y-26447529D01*
X20495714Y-26407053D01*
X20495714Y-26349910D01*
X20476666Y-26314196D01*
X20495714Y-26178482D02*
X20495714Y-26026101D01*
X20629047Y-26104672D02*
X20286190Y-26147529D01*
X20248095Y-26133244D01*
X20229047Y-26097529D01*
X20229047Y-26059434D01*
X20229047Y-25754672D02*
X20438571Y-25728482D01*
X20476666Y-25742767D01*
X20495714Y-25778482D01*
X20495714Y-25854672D01*
X20476666Y-25895148D01*
X20248095Y-25752291D02*
X20229047Y-25792767D01*
X20229047Y-25888005D01*
X20248095Y-25923720D01*
X20286190Y-25938005D01*
X20324285Y-25933244D01*
X20362380Y-25909434D01*
X20381428Y-25868958D01*
X20381428Y-25773720D01*
X20400476Y-25733244D01*
X20229047Y-25392767D02*
X20629047Y-25342767D01*
X20248095Y-25390386D02*
X20229047Y-25430863D01*
X20229047Y-25507053D01*
X20248095Y-25542767D01*
X20267142Y-25559434D01*
X20305238Y-25573720D01*
X20419523Y-25559434D01*
X20457619Y-25535625D01*
X20476666Y-25514196D01*
X20495714Y-25473720D01*
X20495714Y-25397529D01*
X20476666Y-25361815D01*
X20495714Y-24902291D02*
X20229047Y-24840386D01*
X20495714Y-24711815D01*
X20476666Y-24561815D02*
X20495714Y-24521339D01*
X20495714Y-24445148D01*
X20476666Y-24409434D01*
X20438571Y-24395148D01*
X20248095Y-24247529D02*
X20229047Y-24288005D01*
X20229047Y-24364196D01*
X20248095Y-24399910D01*
X20286190Y-24414196D01*
X20438571Y-24395148D01*
X20476666Y-24371339D01*
X20495714Y-24330863D01*
X20495714Y-24254672D01*
X20476666Y-24218958D01*
X20438571Y-24204672D01*
X20400476Y-24209434D01*
X20381428Y-24402291D01*
X20381428Y-24535625D01*
X20362380Y-24576101D01*
X20324285Y-24599910D01*
X20286190Y-24604672D01*
X20248095Y-24590386D01*
X20229047Y-24554672D01*
X20229047Y-24478482D01*
X20248095Y-24438005D01*
X20286190Y-24414196D01*
X20495714Y-24026101D02*
X20229047Y-24059434D01*
X20457619Y-24030863D02*
X20476666Y-24009434D01*
X20495714Y-23968958D01*
X20495714Y-23911815D01*
X20476666Y-23876101D01*
X20438571Y-23861815D01*
X20229047Y-23888005D01*
X20229047Y-23526101D02*
X20438571Y-23499910D01*
X20476666Y-23514196D01*
X20495714Y-23549910D01*
X20495714Y-23626101D01*
X20476666Y-23666577D01*
X20248095Y-23523720D02*
X20229047Y-23564196D01*
X20229047Y-23659434D01*
X20248095Y-23695148D01*
X20286190Y-23709434D01*
X20324285Y-23704672D01*
X20362380Y-23680863D01*
X20381428Y-23640386D01*
X20381428Y-23545148D01*
X20400476Y-23504672D01*
X20229047Y-23335625D02*
X20495714Y-23302291D01*
X20419523Y-23311815D02*
X20457619Y-23288005D01*
X20476666Y-23266577D01*
X20495714Y-23226101D01*
X20495714Y-23188005D01*
X20248095Y-22933244D02*
X20229047Y-22973720D01*
X20229047Y-23049910D01*
X20248095Y-23085625D01*
X20286190Y-23099910D01*
X20438571Y-23080863D01*
X20476666Y-23057053D01*
X20495714Y-23016577D01*
X20495714Y-22940386D01*
X20476666Y-22904672D01*
X20438571Y-22890386D01*
X20400476Y-22895148D01*
X20362380Y-23090386D01*
X20248095Y-22457053D02*
X20229047Y-22421339D01*
X20229047Y-22345148D01*
X20248095Y-22304672D01*
X20286190Y-22280863D01*
X20305238Y-22278482D01*
X20343333Y-22292767D01*
X20362380Y-22328482D01*
X20362380Y-22385625D01*
X20381428Y-22421339D01*
X20419523Y-22435625D01*
X20438571Y-22433244D01*
X20476666Y-22409434D01*
X20495714Y-22368958D01*
X20495714Y-22311815D01*
X20476666Y-22276101D01*
X20495714Y-22083244D02*
X20152857Y-22126101D01*
X20114761Y-22149910D01*
X20095714Y-22190386D01*
X20095714Y-22209434D01*
X20629047Y-22066577D02*
X20610000Y-22088005D01*
X20590952Y-22071339D01*
X20610000Y-22049910D01*
X20629047Y-22066577D01*
X20590952Y-22071339D01*
X20229047Y-21754672D02*
X20438571Y-21728482D01*
X20476666Y-21742767D01*
X20495714Y-21778482D01*
X20495714Y-21854672D01*
X20476666Y-21895148D01*
X20248095Y-21752291D02*
X20229047Y-21792767D01*
X20229047Y-21888005D01*
X20248095Y-21923720D01*
X20286190Y-21938005D01*
X20324285Y-21933244D01*
X20362380Y-21909434D01*
X20381428Y-21868958D01*
X20381428Y-21773720D01*
X20400476Y-21733244D01*
X20229047Y-21392767D02*
X20438571Y-21366577D01*
X20476666Y-21380863D01*
X20495714Y-21416577D01*
X20495714Y-21492767D01*
X20476666Y-21533244D01*
X20248095Y-21390386D02*
X20229047Y-21430863D01*
X20229047Y-21526101D01*
X20248095Y-21561815D01*
X20286190Y-21576101D01*
X20324285Y-21571339D01*
X20362380Y-21547529D01*
X20381428Y-21507053D01*
X20381428Y-21411815D01*
X20400476Y-21371339D01*
D14*
X154886190Y-106192380D02*
X154886190Y-105192380D01*
X154505238Y-105192380D01*
X154410000Y-105240000D01*
X154362380Y-105287619D01*
X154314761Y-105382857D01*
X154314761Y-105525714D01*
X154362380Y-105620952D01*
X154410000Y-105668571D01*
X154505238Y-105716190D01*
X154886190Y-105716190D01*
X153743333Y-106192380D02*
X153838571Y-106144761D01*
X153886190Y-106097142D01*
X153933809Y-106001904D01*
X153933809Y-105716190D01*
X153886190Y-105620952D01*
X153838571Y-105573333D01*
X153743333Y-105525714D01*
X153600476Y-105525714D01*
X153505238Y-105573333D01*
X153457619Y-105620952D01*
X153410000Y-105716190D01*
X153410000Y-106001904D01*
X153457619Y-106097142D01*
X153505238Y-106144761D01*
X153600476Y-106192380D01*
X153743333Y-106192380D01*
X153076666Y-105525714D02*
X152886190Y-106192380D01*
X152695714Y-105716190D01*
X152505238Y-106192380D01*
X152314761Y-105525714D01*
X151552857Y-106144761D02*
X151648095Y-106192380D01*
X151838571Y-106192380D01*
X151933809Y-106144761D01*
X151981428Y-106049523D01*
X151981428Y-105668571D01*
X151933809Y-105573333D01*
X151838571Y-105525714D01*
X151648095Y-105525714D01*
X151552857Y-105573333D01*
X151505238Y-105668571D01*
X151505238Y-105763809D01*
X151981428Y-105859047D01*
X151076666Y-106192380D02*
X151076666Y-105525714D01*
X151076666Y-105716190D02*
X151029047Y-105620952D01*
X150981428Y-105573333D01*
X150886190Y-105525714D01*
X150790952Y-105525714D01*
D15*
%TO.C,Reset1*%
X179600000Y-92120000D03*
X181600000Y-92120000D03*
%TD*%
%TO.C,C4*%
G36*
G01*
X51295000Y-55500000D02*
X51665000Y-55500000D01*
G75*
G02*
X51800000Y-55635000I0J-135000D01*
G01*
X51800000Y-55905000D01*
G75*
G02*
X51665000Y-56040000I-135000J0D01*
G01*
X51295000Y-56040000D01*
G75*
G02*
X51160000Y-55905000I0J135000D01*
G01*
X51160000Y-55635000D01*
G75*
G02*
X51295000Y-55500000I135000J0D01*
G01*
G37*
G36*
G01*
X51295000Y-54480000D02*
X51665000Y-54480000D01*
G75*
G02*
X51800000Y-54615000I0J-135000D01*
G01*
X51800000Y-54885000D01*
G75*
G02*
X51665000Y-55020000I-135000J0D01*
G01*
X51295000Y-55020000D01*
G75*
G02*
X51160000Y-54885000I0J135000D01*
G01*
X51160000Y-54615000D01*
G75*
G02*
X51295000Y-54480000I135000J0D01*
G01*
G37*
%TD*%
%TO.C,R11*%
G36*
G01*
X51915000Y-53595000D02*
X51915000Y-53045000D01*
G75*
G02*
X52115000Y-52845000I200000J0D01*
G01*
X52515000Y-52845000D01*
G75*
G02*
X52715000Y-53045000I0J-200000D01*
G01*
X52715000Y-53595000D01*
G75*
G02*
X52515000Y-53795000I-200000J0D01*
G01*
X52115000Y-53795000D01*
G75*
G02*
X51915000Y-53595000I0J200000D01*
G01*
G37*
G36*
G01*
X50265000Y-53595000D02*
X50265000Y-53045000D01*
G75*
G02*
X50465000Y-52845000I200000J0D01*
G01*
X50865000Y-52845000D01*
G75*
G02*
X51065000Y-53045000I0J-200000D01*
G01*
X51065000Y-53595000D01*
G75*
G02*
X50865000Y-53795000I-200000J0D01*
G01*
X50465000Y-53795000D01*
G75*
G02*
X50265000Y-53595000I0J200000D01*
G01*
G37*
%TD*%
%TO.C,R10*%
G36*
G01*
X51915000Y-52065000D02*
X51915000Y-51515000D01*
G75*
G02*
X52115000Y-51315000I200000J0D01*
G01*
X52515000Y-51315000D01*
G75*
G02*
X52715000Y-51515000I0J-200000D01*
G01*
X52715000Y-52065000D01*
G75*
G02*
X52515000Y-52265000I-200000J0D01*
G01*
X52115000Y-52265000D01*
G75*
G02*
X51915000Y-52065000I0J200000D01*
G01*
G37*
G36*
G01*
X50265000Y-52065000D02*
X50265000Y-51515000D01*
G75*
G02*
X50465000Y-51315000I200000J0D01*
G01*
X50865000Y-51315000D01*
G75*
G02*
X51065000Y-51515000I0J-200000D01*
G01*
X51065000Y-52065000D01*
G75*
G02*
X50865000Y-52265000I-200000J0D01*
G01*
X50465000Y-52265000D01*
G75*
G02*
X50265000Y-52065000I0J200000D01*
G01*
G37*
%TD*%
%TO.C,F1*%
G36*
G01*
X38005000Y-43305000D02*
X39255000Y-43305000D01*
G75*
G02*
X39505000Y-43555000I0J-250000D01*
G01*
X39505000Y-44305000D01*
G75*
G02*
X39255000Y-44555000I-250000J0D01*
G01*
X38005000Y-44555000D01*
G75*
G02*
X37755000Y-44305000I0J250000D01*
G01*
X37755000Y-43555000D01*
G75*
G02*
X38005000Y-43305000I250000J0D01*
G01*
G37*
G36*
G01*
X38005000Y-40505000D02*
X39255000Y-40505000D01*
G75*
G02*
X39505000Y-40755000I0J-250000D01*
G01*
X39505000Y-41505000D01*
G75*
G02*
X39255000Y-41755000I-250000J0D01*
G01*
X38005000Y-41755000D01*
G75*
G02*
X37755000Y-41505000I0J250000D01*
G01*
X37755000Y-40755000D01*
G75*
G02*
X38005000Y-40505000I250000J0D01*
G01*
G37*
%TD*%
%TO.C,J3*%
G36*
G01*
X37910000Y-50479999D02*
X37910000Y-51780001D01*
G75*
G02*
X37660001Y-52030000I-249999J0D01*
G01*
X36959999Y-52030000D01*
G75*
G02*
X36710000Y-51780001I0J249999D01*
G01*
X36710000Y-50479999D01*
G75*
G02*
X36959999Y-50230000I249999J0D01*
G01*
X37660001Y-50230000D01*
G75*
G02*
X37910000Y-50479999I0J-249999D01*
G01*
G37*
G36*
G01*
X43510000Y-50479999D02*
X43510000Y-51780001D01*
G75*
G02*
X43260001Y-52030000I-249999J0D01*
G01*
X42559999Y-52030000D01*
G75*
G02*
X42310000Y-51780001I0J249999D01*
G01*
X42310000Y-50479999D01*
G75*
G02*
X42559999Y-50230000I249999J0D01*
G01*
X43260001Y-50230000D01*
G75*
G02*
X43510000Y-50479999I0J-249999D01*
G01*
G37*
G36*
G01*
X38910000Y-53030000D02*
X38910000Y-54280000D01*
G75*
G02*
X38760000Y-54430000I-150000J0D01*
G01*
X38460000Y-54430000D01*
G75*
G02*
X38310000Y-54280000I0J150000D01*
G01*
X38310000Y-53030000D01*
G75*
G02*
X38460000Y-52880000I150000J0D01*
G01*
X38760000Y-52880000D01*
G75*
G02*
X38910000Y-53030000I0J-150000D01*
G01*
G37*
G36*
G01*
X39910000Y-53030000D02*
X39910000Y-54280000D01*
G75*
G02*
X39760000Y-54430000I-150000J0D01*
G01*
X39460000Y-54430000D01*
G75*
G02*
X39310000Y-54280000I0J150000D01*
G01*
X39310000Y-53030000D01*
G75*
G02*
X39460000Y-52880000I150000J0D01*
G01*
X39760000Y-52880000D01*
G75*
G02*
X39910000Y-53030000I0J-150000D01*
G01*
G37*
G36*
G01*
X40910000Y-53030000D02*
X40910000Y-54280000D01*
G75*
G02*
X40760000Y-54430000I-150000J0D01*
G01*
X40460000Y-54430000D01*
G75*
G02*
X40310000Y-54280000I0J150000D01*
G01*
X40310000Y-53030000D01*
G75*
G02*
X40460000Y-52880000I150000J0D01*
G01*
X40760000Y-52880000D01*
G75*
G02*
X40910000Y-53030000I0J-150000D01*
G01*
G37*
G36*
G01*
X41910000Y-53030000D02*
X41910000Y-54280000D01*
G75*
G02*
X41760000Y-54430000I-150000J0D01*
G01*
X41460000Y-54430000D01*
G75*
G02*
X41310000Y-54280000I0J150000D01*
G01*
X41310000Y-53030000D01*
G75*
G02*
X41460000Y-52880000I150000J0D01*
G01*
X41760000Y-52880000D01*
G75*
G02*
X41910000Y-53030000I0J-150000D01*
G01*
G37*
%TD*%
D16*
%TO.C,D3*%
X32750000Y-37380000D03*
X34950000Y-37380000D03*
%TD*%
D17*
%TO.C,SW1*%
X25820000Y-34820000D03*
D18*
X28320000Y-34820000D03*
X30820000Y-34820000D03*
D19*
X22720000Y-27320000D03*
X33920000Y-27320000D03*
D18*
X25820000Y-20320000D03*
X30820000Y-20320000D03*
%TD*%
%TO.C,R9*%
G36*
G01*
X129015000Y-110225000D02*
X129015000Y-109675000D01*
G75*
G02*
X129215000Y-109475000I200000J0D01*
G01*
X129615000Y-109475000D01*
G75*
G02*
X129815000Y-109675000I0J-200000D01*
G01*
X129815000Y-110225000D01*
G75*
G02*
X129615000Y-110425000I-200000J0D01*
G01*
X129215000Y-110425000D01*
G75*
G02*
X129015000Y-110225000I0J200000D01*
G01*
G37*
G36*
G01*
X127365000Y-110225000D02*
X127365000Y-109675000D01*
G75*
G02*
X127565000Y-109475000I200000J0D01*
G01*
X127965000Y-109475000D01*
G75*
G02*
X128165000Y-109675000I0J-200000D01*
G01*
X128165000Y-110225000D01*
G75*
G02*
X127965000Y-110425000I-200000J0D01*
G01*
X127565000Y-110425000D01*
G75*
G02*
X127365000Y-110225000I0J200000D01*
G01*
G37*
%TD*%
%TO.C,R8*%
G36*
G01*
X129015000Y-107025000D02*
X129015000Y-106475000D01*
G75*
G02*
X129215000Y-106275000I200000J0D01*
G01*
X129615000Y-106275000D01*
G75*
G02*
X129815000Y-106475000I0J-200000D01*
G01*
X129815000Y-107025000D01*
G75*
G02*
X129615000Y-107225000I-200000J0D01*
G01*
X129215000Y-107225000D01*
G75*
G02*
X129015000Y-107025000I0J200000D01*
G01*
G37*
G36*
G01*
X127365000Y-107025000D02*
X127365000Y-106475000D01*
G75*
G02*
X127565000Y-106275000I200000J0D01*
G01*
X127965000Y-106275000D01*
G75*
G02*
X128165000Y-106475000I0J-200000D01*
G01*
X128165000Y-107025000D01*
G75*
G02*
X127965000Y-107225000I-200000J0D01*
G01*
X127565000Y-107225000D01*
G75*
G02*
X127365000Y-107025000I0J200000D01*
G01*
G37*
%TD*%
%TO.C,C3*%
G36*
G01*
X125650000Y-110120000D02*
X125650000Y-109780000D01*
G75*
G02*
X125790000Y-109640000I140000J0D01*
G01*
X126070000Y-109640000D01*
G75*
G02*
X126210000Y-109780000I0J-140000D01*
G01*
X126210000Y-110120000D01*
G75*
G02*
X126070000Y-110260000I-140000J0D01*
G01*
X125790000Y-110260000D01*
G75*
G02*
X125650000Y-110120000I0J140000D01*
G01*
G37*
G36*
G01*
X124690000Y-110120000D02*
X124690000Y-109780000D01*
G75*
G02*
X124830000Y-109640000I140000J0D01*
G01*
X125110000Y-109640000D01*
G75*
G02*
X125250000Y-109780000I0J-140000D01*
G01*
X125250000Y-110120000D01*
G75*
G02*
X125110000Y-110260000I-140000J0D01*
G01*
X124830000Y-110260000D01*
G75*
G02*
X124690000Y-110120000I0J140000D01*
G01*
G37*
%TD*%
%TO.C,C2*%
G36*
G01*
X125650000Y-106920000D02*
X125650000Y-106580000D01*
G75*
G02*
X125790000Y-106440000I140000J0D01*
G01*
X126070000Y-106440000D01*
G75*
G02*
X126210000Y-106580000I0J-140000D01*
G01*
X126210000Y-106920000D01*
G75*
G02*
X126070000Y-107060000I-140000J0D01*
G01*
X125790000Y-107060000D01*
G75*
G02*
X125650000Y-106920000I0J140000D01*
G01*
G37*
G36*
G01*
X124690000Y-106920000D02*
X124690000Y-106580000D01*
G75*
G02*
X124830000Y-106440000I140000J0D01*
G01*
X125110000Y-106440000D01*
G75*
G02*
X125250000Y-106580000I0J-140000D01*
G01*
X125250000Y-106920000D01*
G75*
G02*
X125110000Y-107060000I-140000J0D01*
G01*
X124830000Y-107060000D01*
G75*
G02*
X124690000Y-106920000I0J140000D01*
G01*
G37*
%TD*%
%TO.C,C1*%
G36*
G01*
X147240000Y-93430000D02*
X147240000Y-93770000D01*
G75*
G02*
X147100000Y-93910000I-140000J0D01*
G01*
X146820000Y-93910000D01*
G75*
G02*
X146680000Y-93770000I0J140000D01*
G01*
X146680000Y-93430000D01*
G75*
G02*
X146820000Y-93290000I140000J0D01*
G01*
X147100000Y-93290000D01*
G75*
G02*
X147240000Y-93430000I0J-140000D01*
G01*
G37*
G36*
G01*
X148200000Y-93430000D02*
X148200000Y-93770000D01*
G75*
G02*
X148060000Y-93910000I-140000J0D01*
G01*
X147780000Y-93910000D01*
G75*
G02*
X147640000Y-93770000I0J140000D01*
G01*
X147640000Y-93430000D01*
G75*
G02*
X147780000Y-93290000I140000J0D01*
G01*
X148060000Y-93290000D01*
G75*
G02*
X148200000Y-93430000I0J-140000D01*
G01*
G37*
%TD*%
D20*
%TO.C,MX19*%
X78465554Y-41268542D03*
D21*
X75925554Y-46348542D03*
D20*
X72115554Y-43808542D03*
D22*
X70845554Y-46348542D03*
X81005554Y-46348542D03*
%TD*%
D20*
%TO.C,MX18*%
X59436000Y-41275000D03*
D21*
X56896000Y-46355000D03*
D20*
X53086000Y-43815000D03*
D22*
X51816000Y-46355000D03*
X61976000Y-46355000D03*
%TD*%
D16*
%TO.C,D36*%
X245160000Y-91210000D03*
X245160000Y-89010000D03*
%TD*%
%TO.C,D35*%
X164220000Y-91220000D03*
X164220000Y-89020000D03*
%TD*%
%TO.C,D25*%
X293380000Y-66090000D03*
X293380000Y-68290000D03*
%TD*%
D23*
%TO.C,D37*%
X281460000Y-89000000D03*
X280510000Y-91000000D03*
X282410000Y-91000000D03*
%TD*%
%TO.C,D33*%
X46030000Y-89000000D03*
X45080000Y-91000000D03*
X46980000Y-91000000D03*
%TD*%
%TO.C,D32*%
X282380000Y-73470000D03*
X281430000Y-75470000D03*
X283330000Y-75470000D03*
%TD*%
%TO.C,D31*%
X235540000Y-74030000D03*
X234590000Y-76030000D03*
X236490000Y-76030000D03*
%TD*%
%TO.C,D30*%
X197440000Y-74030000D03*
X196490000Y-76030000D03*
X198390000Y-76030000D03*
%TD*%
%TO.C,D29*%
X159340000Y-74030000D03*
X158390000Y-76030000D03*
X160290000Y-76030000D03*
%TD*%
%TO.C,D28*%
X121240000Y-74030000D03*
X120290000Y-76030000D03*
X122190000Y-76030000D03*
%TD*%
%TO.C,D27*%
X83140000Y-74030000D03*
X82190000Y-76030000D03*
X84090000Y-76030000D03*
%TD*%
%TO.C,D26*%
X45650000Y-74010000D03*
X44700000Y-76010000D03*
X46600000Y-76010000D03*
%TD*%
%TO.C,D24*%
X261780000Y-72560000D03*
X262730000Y-70560000D03*
X260830000Y-70560000D03*
%TD*%
%TO.C,D23*%
X226270000Y-72540000D03*
X227220000Y-70540000D03*
X225320000Y-70540000D03*
%TD*%
%TO.C,D22*%
X185290000Y-72550000D03*
X186240000Y-70550000D03*
X184340000Y-70550000D03*
%TD*%
%TO.C,D21*%
X147190000Y-72550000D03*
X148140000Y-70550000D03*
X146240000Y-70550000D03*
%TD*%
%TO.C,D20*%
X109090000Y-72550000D03*
X110040000Y-70550000D03*
X108140000Y-70550000D03*
%TD*%
%TO.C,D19*%
X70990000Y-72550000D03*
X71940000Y-70550000D03*
X70040000Y-70550000D03*
%TD*%
%TO.C,D17*%
X282470000Y-36870000D03*
X281520000Y-38870000D03*
X283420000Y-38870000D03*
%TD*%
%TO.C,D16*%
X239880000Y-36100000D03*
X238930000Y-38100000D03*
X240830000Y-38100000D03*
%TD*%
%TO.C,D15*%
X201780000Y-36100000D03*
X200830000Y-38100000D03*
X202730000Y-38100000D03*
%TD*%
%TO.C,D14*%
X163680000Y-36100000D03*
X162730000Y-38100000D03*
X164630000Y-38100000D03*
%TD*%
%TO.C,D13*%
X125580000Y-36100000D03*
X124630000Y-38100000D03*
X126530000Y-38100000D03*
%TD*%
%TO.C,D12*%
X87480000Y-36100000D03*
X86530000Y-38100000D03*
X88430000Y-38100000D03*
%TD*%
%TO.C,D11*%
X47600000Y-36130000D03*
X46650000Y-38130000D03*
X48550000Y-38130000D03*
%TD*%
%TO.C,D10*%
X286670000Y-34680000D03*
X287620000Y-32680000D03*
X285720000Y-32680000D03*
%TD*%
%TO.C,D9*%
X248570000Y-34680000D03*
X249520000Y-32680000D03*
X247620000Y-32680000D03*
%TD*%
%TO.C,D8*%
X210470000Y-34680000D03*
X211420000Y-32680000D03*
X209520000Y-32680000D03*
%TD*%
%TO.C,D7*%
X172370000Y-34680000D03*
X173320000Y-32680000D03*
X171420000Y-32680000D03*
%TD*%
%TO.C,D6*%
X134270000Y-34680000D03*
X135220000Y-32680000D03*
X133320000Y-32680000D03*
%TD*%
%TO.C,D5*%
X96170000Y-34680000D03*
X97120000Y-32680000D03*
X95220000Y-32680000D03*
%TD*%
%TO.C,D4*%
X58070000Y-34680000D03*
X59020000Y-32680000D03*
X57120000Y-32680000D03*
%TD*%
D16*
%TO.C,D34*%
X83230000Y-91220000D03*
X83230000Y-89020000D03*
%TD*%
%TO.C,D18*%
X39110000Y-70300000D03*
X39110000Y-72500000D03*
%TD*%
D24*
%TO.C,D2*%
X136144000Y-94520000D03*
X136144000Y-98520000D03*
%TD*%
D20*
%TO.C,MX56*%
X188003054Y-79368542D03*
D21*
X185463054Y-84448542D03*
D20*
X181653054Y-81908542D03*
D22*
X180383054Y-84448542D03*
X190543054Y-84448542D03*
%TD*%
D25*
%TO.C,J4*%
X228375000Y-98395000D03*
X228375000Y-100935000D03*
X228375000Y-103475000D03*
D26*
X228375000Y-106015000D03*
%TD*%
D27*
%TO.C,HOLE*%
X303440000Y-75000000D03*
%TD*%
D28*
%TO.C,HOLE*%
X277860000Y-46210000D03*
%TD*%
%TO.C,HOLE*%
X147360000Y-65380000D03*
%TD*%
%TO.C,HOLE*%
X45220000Y-46460000D03*
%TD*%
D27*
%TO.C,HOLE*%
X19650000Y-75070000D03*
%TD*%
%TO.C,R7*%
G36*
G01*
X179325000Y-101425000D02*
X179325000Y-101975000D01*
G75*
G02*
X179125000Y-102175000I-200000J0D01*
G01*
X178725000Y-102175000D01*
G75*
G02*
X178525000Y-101975000I0J200000D01*
G01*
X178525000Y-101425000D01*
G75*
G02*
X178725000Y-101225000I200000J0D01*
G01*
X179125000Y-101225000D01*
G75*
G02*
X179325000Y-101425000I0J-200000D01*
G01*
G37*
G36*
G01*
X180975000Y-101425000D02*
X180975000Y-101975000D01*
G75*
G02*
X180775000Y-102175000I-200000J0D01*
G01*
X180375000Y-102175000D01*
G75*
G02*
X180175000Y-101975000I0J200000D01*
G01*
X180175000Y-101425000D01*
G75*
G02*
X180375000Y-101225000I200000J0D01*
G01*
X180775000Y-101225000D01*
G75*
G02*
X180975000Y-101425000I0J-200000D01*
G01*
G37*
%TD*%
%TO.C,R6*%
G36*
G01*
X180175000Y-100325000D02*
X180175000Y-99775000D01*
G75*
G02*
X180375000Y-99575000I200000J0D01*
G01*
X180775000Y-99575000D01*
G75*
G02*
X180975000Y-99775000I0J-200000D01*
G01*
X180975000Y-100325000D01*
G75*
G02*
X180775000Y-100525000I-200000J0D01*
G01*
X180375000Y-100525000D01*
G75*
G02*
X180175000Y-100325000I0J200000D01*
G01*
G37*
G36*
G01*
X178525000Y-100325000D02*
X178525000Y-99775000D01*
G75*
G02*
X178725000Y-99575000I200000J0D01*
G01*
X179125000Y-99575000D01*
G75*
G02*
X179325000Y-99775000I0J-200000D01*
G01*
X179325000Y-100325000D01*
G75*
G02*
X179125000Y-100525000I-200000J0D01*
G01*
X178725000Y-100525000D01*
G75*
G02*
X178525000Y-100325000I0J200000D01*
G01*
G37*
%TD*%
%TO.C,R5*%
G36*
G01*
X33658000Y-31223000D02*
X34208000Y-31223000D01*
G75*
G02*
X34408000Y-31423000I0J-200000D01*
G01*
X34408000Y-31823000D01*
G75*
G02*
X34208000Y-32023000I-200000J0D01*
G01*
X33658000Y-32023000D01*
G75*
G02*
X33458000Y-31823000I0J200000D01*
G01*
X33458000Y-31423000D01*
G75*
G02*
X33658000Y-31223000I200000J0D01*
G01*
G37*
G36*
G01*
X33658000Y-29573000D02*
X34208000Y-29573000D01*
G75*
G02*
X34408000Y-29773000I0J-200000D01*
G01*
X34408000Y-30173000D01*
G75*
G02*
X34208000Y-30373000I-200000J0D01*
G01*
X33658000Y-30373000D01*
G75*
G02*
X33458000Y-30173000I0J200000D01*
G01*
X33458000Y-29773000D01*
G75*
G02*
X33658000Y-29573000I200000J0D01*
G01*
G37*
%TD*%
%TO.C,R4*%
G36*
G01*
X40985000Y-31155000D02*
X41535000Y-31155000D01*
G75*
G02*
X41735000Y-31355000I0J-200000D01*
G01*
X41735000Y-31755000D01*
G75*
G02*
X41535000Y-31955000I-200000J0D01*
G01*
X40985000Y-31955000D01*
G75*
G02*
X40785000Y-31755000I0J200000D01*
G01*
X40785000Y-31355000D01*
G75*
G02*
X40985000Y-31155000I200000J0D01*
G01*
G37*
G36*
G01*
X40985000Y-29505000D02*
X41535000Y-29505000D01*
G75*
G02*
X41735000Y-29705000I0J-200000D01*
G01*
X41735000Y-30105000D01*
G75*
G02*
X41535000Y-30305000I-200000J0D01*
G01*
X40985000Y-30305000D01*
G75*
G02*
X40785000Y-30105000I0J200000D01*
G01*
X40785000Y-29705000D01*
G75*
G02*
X40985000Y-29505000I200000J0D01*
G01*
G37*
%TD*%
%TO.C,R3*%
G36*
G01*
X132821000Y-95929000D02*
X133371000Y-95929000D01*
G75*
G02*
X133571000Y-96129000I0J-200000D01*
G01*
X133571000Y-96529000D01*
G75*
G02*
X133371000Y-96729000I-200000J0D01*
G01*
X132821000Y-96729000D01*
G75*
G02*
X132621000Y-96529000I0J200000D01*
G01*
X132621000Y-96129000D01*
G75*
G02*
X132821000Y-95929000I200000J0D01*
G01*
G37*
G36*
G01*
X132821000Y-94279000D02*
X133371000Y-94279000D01*
G75*
G02*
X133571000Y-94479000I0J-200000D01*
G01*
X133571000Y-94879000D01*
G75*
G02*
X133371000Y-95079000I-200000J0D01*
G01*
X132821000Y-95079000D01*
G75*
G02*
X132621000Y-94879000I0J200000D01*
G01*
X132621000Y-94479000D01*
G75*
G02*
X132821000Y-94279000I200000J0D01*
G01*
G37*
%TD*%
%TO.C,R2*%
G36*
G01*
X151095000Y-97615000D02*
X151095000Y-98165000D01*
G75*
G02*
X150895000Y-98365000I-200000J0D01*
G01*
X150495000Y-98365000D01*
G75*
G02*
X150295000Y-98165000I0J200000D01*
G01*
X150295000Y-97615000D01*
G75*
G02*
X150495000Y-97415000I200000J0D01*
G01*
X150895000Y-97415000D01*
G75*
G02*
X151095000Y-97615000I0J-200000D01*
G01*
G37*
G36*
G01*
X152745000Y-97615000D02*
X152745000Y-98165000D01*
G75*
G02*
X152545000Y-98365000I-200000J0D01*
G01*
X152145000Y-98365000D01*
G75*
G02*
X151945000Y-98165000I0J200000D01*
G01*
X151945000Y-97615000D01*
G75*
G02*
X152145000Y-97415000I200000J0D01*
G01*
X152545000Y-97415000D01*
G75*
G02*
X152745000Y-97615000I0J-200000D01*
G01*
G37*
%TD*%
%TO.C,R1*%
G36*
G01*
X151975000Y-96075000D02*
X151975000Y-95525000D01*
G75*
G02*
X152175000Y-95325000I200000J0D01*
G01*
X152575000Y-95325000D01*
G75*
G02*
X152775000Y-95525000I0J-200000D01*
G01*
X152775000Y-96075000D01*
G75*
G02*
X152575000Y-96275000I-200000J0D01*
G01*
X152175000Y-96275000D01*
G75*
G02*
X151975000Y-96075000I0J200000D01*
G01*
G37*
G36*
G01*
X150325000Y-96075000D02*
X150325000Y-95525000D01*
G75*
G02*
X150525000Y-95325000I200000J0D01*
G01*
X150925000Y-95325000D01*
G75*
G02*
X151125000Y-95525000I0J-200000D01*
G01*
X151125000Y-96075000D01*
G75*
G02*
X150925000Y-96275000I-200000J0D01*
G01*
X150525000Y-96275000D01*
G75*
G02*
X150325000Y-96075000I0J200000D01*
G01*
G37*
%TD*%
D29*
%TO.C,U4*%
X37590000Y-29500000D03*
X38540000Y-29500000D03*
X36640000Y-29500000D03*
X36640000Y-31700000D03*
X37590000Y-31700000D03*
X38540000Y-31700000D03*
%TD*%
%TO.C,U2*%
X136810000Y-103330000D03*
X138710000Y-103330000D03*
X138710000Y-101130000D03*
X137760000Y-101130000D03*
X136810000Y-101130000D03*
%TD*%
%TO.C,U1*%
X148930000Y-97900000D03*
X147030000Y-97900000D03*
X147030000Y-100100000D03*
X147980000Y-100100000D03*
X148930000Y-100100000D03*
%TD*%
D23*
%TO.C,Q1*%
X139680000Y-97070000D03*
X138730000Y-99070000D03*
X140630000Y-99070000D03*
%TD*%
D30*
%TO.C,J1*%
X40842000Y-23603000D03*
X40042000Y-23603000D03*
X35142000Y-23603000D03*
X34342000Y-23603000D03*
X34342000Y-23603000D03*
X35142000Y-23603000D03*
X40042000Y-23603000D03*
X40842000Y-23603000D03*
D31*
X35842000Y-23603000D03*
X36342000Y-23603000D03*
X36842000Y-23603000D03*
X37842000Y-23603000D03*
X38342000Y-23603000D03*
X38842000Y-23603000D03*
X39342000Y-23603000D03*
X37342000Y-23603000D03*
D32*
X41912000Y-22688000D03*
X33272000Y-22688000D03*
D33*
X34702000Y-22158000D03*
D34*
X33272000Y-18508000D03*
D33*
X40482000Y-22158000D03*
D34*
X41912000Y-18508000D03*
%TD*%
%TO.C,D1*%
G36*
G01*
X147440000Y-95343750D02*
X147440000Y-96256250D01*
G75*
G02*
X147196250Y-96500000I-243750J0D01*
G01*
X146708750Y-96500000D01*
G75*
G02*
X146465000Y-96256250I0J243750D01*
G01*
X146465000Y-95343750D01*
G75*
G02*
X146708750Y-95100000I243750J0D01*
G01*
X147196250Y-95100000D01*
G75*
G02*
X147440000Y-95343750I0J-243750D01*
G01*
G37*
G36*
G01*
X149315000Y-95343750D02*
X149315000Y-96256250D01*
G75*
G02*
X149071250Y-96500000I-243750J0D01*
G01*
X148583750Y-96500000D01*
G75*
G02*
X148340000Y-96256250I0J243750D01*
G01*
X148340000Y-95343750D01*
G75*
G02*
X148583750Y-95100000I243750J0D01*
G01*
X149071250Y-95100000D01*
G75*
G02*
X149315000Y-95343750I0J-243750D01*
G01*
G37*
%TD*%
D20*
%TO.C,MX68*%
X268986000Y-98425000D03*
D21*
X266446000Y-103505000D03*
D20*
X262636000Y-100965000D03*
D22*
X261366000Y-103505000D03*
X271526000Y-103505000D03*
%TD*%
D20*
%TO.C,MX43*%
X254678054Y-60318542D03*
D21*
X252138054Y-65398542D03*
D20*
X248328054Y-62858542D03*
D22*
X247058054Y-65398542D03*
X257218054Y-65398542D03*
%TD*%
D20*
%TO.C,MX39*%
X178478054Y-60318542D03*
D21*
X175938054Y-65398542D03*
D20*
X172128054Y-62858542D03*
D22*
X170858054Y-65398542D03*
X181018054Y-65398542D03*
%TD*%
D20*
%TO.C,MX35*%
X102278054Y-60318542D03*
D21*
X99738054Y-65398542D03*
D20*
X95928054Y-62858542D03*
D22*
X94658054Y-65398542D03*
X104818054Y-65398542D03*
%TD*%
D20*
%TO.C,MX50*%
X73703054Y-79368542D03*
D21*
X71163054Y-84448542D03*
D20*
X67353054Y-81908542D03*
D22*
X66083054Y-84448542D03*
X76243054Y-84448542D03*
%TD*%
D20*
%TO.C,MX28*%
X249915554Y-41268542D03*
D21*
X247375554Y-46348542D03*
D20*
X243565554Y-43808542D03*
D22*
X242295554Y-46348542D03*
X252455554Y-46348542D03*
%TD*%
D20*
%TO.C,MX55*%
X168953054Y-79368542D03*
D21*
X166413054Y-84448542D03*
D20*
X162603054Y-81908542D03*
D22*
X161333054Y-84448542D03*
X171493054Y-84448542D03*
%TD*%
D20*
%TO.C,MX22*%
X135615554Y-41268542D03*
D21*
X133075554Y-46348542D03*
D20*
X129265554Y-43808542D03*
D22*
X127995554Y-46348542D03*
X138155554Y-46348542D03*
%TD*%
D20*
%TO.C,MX53*%
X130853054Y-79368542D03*
D21*
X128313054Y-84448542D03*
D20*
X124503054Y-81908542D03*
D22*
X123233054Y-84448542D03*
X133393054Y-84448542D03*
%TD*%
D20*
%TO.C,MX38*%
X159428054Y-60318542D03*
D21*
X156888054Y-65398542D03*
D20*
X153078054Y-62858542D03*
D22*
X151808054Y-65398542D03*
X161968054Y-65398542D03*
%TD*%
D20*
%TO.C,MX66*%
X164211000Y-98425000D03*
D21*
X161671000Y-103505000D03*
D20*
X157861000Y-100965000D03*
D22*
X156591000Y-103505000D03*
X166751000Y-103505000D03*
D35*
X104521000Y-110490000D03*
X218821000Y-110490000D03*
D21*
X104521000Y-95250000D03*
X218821000Y-95250000D03*
%TD*%
%TO.C,MX46*%
X284358054Y-43935542D03*
X284358054Y-67811542D03*
D35*
X299598054Y-43935542D03*
X299598054Y-67811542D03*
D22*
X297693054Y-55873542D03*
X287533054Y-55873542D03*
D36*
X293883054Y-60953542D03*
D37*
X291343054Y-60953542D03*
D20*
X288803054Y-53333542D03*
D21*
X292613054Y-55873542D03*
D20*
X295153054Y-50793542D03*
%TD*%
%TO.C,MX48*%
X42799250Y-79374500D03*
D21*
X40259250Y-84454500D03*
D20*
X36449250Y-81914500D03*
D22*
X35179250Y-84454500D03*
X45339250Y-84454500D03*
D35*
X28353000Y-77469500D03*
X52165500Y-77469500D03*
D21*
X28353000Y-92709500D03*
X52165500Y-92709500D03*
%TD*%
D20*
%TO.C,MX47*%
X33249250Y-79374500D03*
D21*
X30709250Y-84454500D03*
D20*
X26899250Y-81914500D03*
D22*
X25629250Y-84454500D03*
X35789250Y-84454500D03*
%TD*%
D20*
%TO.C,MX69*%
X292799500Y-98425000D03*
D21*
X290259500Y-103505000D03*
D20*
X286449500Y-100965000D03*
D22*
X285179500Y-103505000D03*
X295339500Y-103505000D03*
%TD*%
D20*
%TO.C,MX67*%
X245172500Y-98425000D03*
D21*
X242632500Y-103505000D03*
D20*
X238822500Y-100965000D03*
D22*
X237552500Y-103505000D03*
X247712500Y-103505000D03*
%TD*%
D20*
%TO.C,MX65*%
X83247500Y-98424500D03*
D21*
X80707500Y-103504500D03*
D20*
X76897500Y-100964500D03*
D22*
X75627500Y-103504500D03*
X85787500Y-103504500D03*
%TD*%
D20*
%TO.C,MX64*%
X59436000Y-98425000D03*
D21*
X56896000Y-103505000D03*
D20*
X53086000Y-100965000D03*
D22*
X51816000Y-103505000D03*
X61976000Y-103505000D03*
%TD*%
D20*
%TO.C,MX63*%
X35624250Y-98424500D03*
D21*
X33084250Y-103504500D03*
D20*
X29274250Y-100964500D03*
D22*
X28004250Y-103504500D03*
X38164250Y-103504500D03*
%TD*%
D20*
%TO.C,MX62*%
X297561000Y-79375000D03*
D21*
X295021000Y-84455000D03*
D20*
X291211000Y-81915000D03*
D22*
X289941000Y-84455000D03*
X300101000Y-84455000D03*
%TD*%
D20*
%TO.C,MX61*%
X280924000Y-79375000D03*
D21*
X278384000Y-84455000D03*
D20*
X274574000Y-81915000D03*
D22*
X273304000Y-84455000D03*
X283464000Y-84455000D03*
D35*
X266477750Y-77470000D03*
X290290250Y-77470000D03*
D21*
X266477750Y-92710000D03*
X290290250Y-92710000D03*
%TD*%
D20*
%TO.C,MX60*%
X271399000Y-79375000D03*
D21*
X268859000Y-84455000D03*
D20*
X265049000Y-81915000D03*
D22*
X263779000Y-84455000D03*
X273939000Y-84455000D03*
%TD*%
D20*
%TO.C,MX59*%
X245153054Y-79368542D03*
D21*
X242613054Y-84448542D03*
D20*
X238803054Y-81908542D03*
D22*
X237533054Y-84448542D03*
X247693054Y-84448542D03*
%TD*%
D20*
%TO.C,MX58*%
X226103054Y-79368542D03*
D21*
X223563054Y-84448542D03*
D20*
X219753054Y-81908542D03*
D22*
X218483054Y-84448542D03*
X228643054Y-84448542D03*
%TD*%
D20*
%TO.C,MX57*%
X207053054Y-79368542D03*
D21*
X204513054Y-84448542D03*
D20*
X200703054Y-81908542D03*
D22*
X199433054Y-84448542D03*
X209593054Y-84448542D03*
%TD*%
D20*
%TO.C,MX54*%
X149903054Y-79368542D03*
D21*
X147363054Y-84448542D03*
D20*
X143553054Y-81908542D03*
D22*
X142283054Y-84448542D03*
X152443054Y-84448542D03*
%TD*%
D20*
%TO.C,MX52*%
X111803054Y-79368542D03*
D21*
X109263054Y-84448542D03*
D20*
X105453054Y-81908542D03*
D22*
X104183054Y-84448542D03*
X114343054Y-84448542D03*
%TD*%
D20*
%TO.C,MX51*%
X92753054Y-79368542D03*
D21*
X90213054Y-84448542D03*
D20*
X86403054Y-81908542D03*
D22*
X85133054Y-84448542D03*
X95293054Y-84448542D03*
%TD*%
D20*
%TO.C,MX49*%
X54673500Y-79375000D03*
D21*
X52133500Y-84455000D03*
D20*
X48323500Y-81915000D03*
D22*
X47053500Y-84455000D03*
X57213500Y-84455000D03*
%TD*%
D20*
%TO.C,MX45*%
X285603054Y-60318542D03*
D21*
X283063054Y-65398542D03*
D20*
X279253054Y-62858542D03*
D22*
X277983054Y-65398542D03*
X288143054Y-65398542D03*
D35*
X271156804Y-58413542D03*
X294969304Y-58413542D03*
D21*
X271156804Y-73653542D03*
X294969304Y-73653542D03*
%TD*%
D20*
%TO.C,MX44*%
X273728054Y-60318542D03*
D21*
X271188054Y-65398542D03*
D20*
X267378054Y-62858542D03*
D22*
X266108054Y-65398542D03*
X276268054Y-65398542D03*
%TD*%
D20*
%TO.C,MX42*%
X235628054Y-60318542D03*
D21*
X233088054Y-65398542D03*
D20*
X229278054Y-62858542D03*
D22*
X228008054Y-65398542D03*
X238168054Y-65398542D03*
%TD*%
D20*
%TO.C,MX41*%
X216578054Y-60318542D03*
D21*
X214038054Y-65398542D03*
D20*
X210228054Y-62858542D03*
D22*
X208958054Y-65398542D03*
X219118054Y-65398542D03*
%TD*%
D20*
%TO.C,MX40*%
X197528054Y-60318542D03*
D21*
X194988054Y-65398542D03*
D20*
X191178054Y-62858542D03*
D22*
X189908054Y-65398542D03*
X200068054Y-65398542D03*
%TD*%
D20*
%TO.C,MX37*%
X140378054Y-60318542D03*
D21*
X137838054Y-65398542D03*
D20*
X134028054Y-62858542D03*
D22*
X132758054Y-65398542D03*
X142918054Y-65398542D03*
%TD*%
D20*
%TO.C,MX36*%
X121328054Y-60318542D03*
D21*
X118788054Y-65398542D03*
D20*
X114978054Y-62858542D03*
D22*
X113708054Y-65398542D03*
X123868054Y-65398542D03*
%TD*%
D20*
%TO.C,MX34*%
X83228054Y-60318542D03*
D21*
X80688054Y-65398542D03*
D20*
X76878054Y-62858542D03*
D22*
X75608054Y-65398542D03*
X85768054Y-65398542D03*
%TD*%
D20*
%TO.C,MX33*%
X64198500Y-60325000D03*
D21*
X61658500Y-65405000D03*
D20*
X57848500Y-62865000D03*
D22*
X56578500Y-65405000D03*
X66738500Y-65405000D03*
%TD*%
D20*
%TO.C,MX32*%
X38018000Y-60324500D03*
D21*
X35478000Y-65404500D03*
D20*
X31668000Y-62864500D03*
D22*
X30398000Y-65404500D03*
X40558000Y-65404500D03*
%TD*%
D20*
%TO.C,MX31*%
X33249250Y-60324500D03*
D21*
X30709250Y-65404500D03*
D20*
X26899250Y-62864500D03*
D22*
X25629250Y-65404500D03*
X35789250Y-65404500D03*
%TD*%
D20*
%TO.C,MX30*%
X292765554Y-41268542D03*
D21*
X290225554Y-46348542D03*
D20*
X286415554Y-43808542D03*
D22*
X285145554Y-46348542D03*
X295305554Y-46348542D03*
%TD*%
D20*
%TO.C,MX29*%
X268965554Y-41268542D03*
D21*
X266425554Y-46348542D03*
D20*
X262615554Y-43808542D03*
D22*
X261345554Y-46348542D03*
X271505554Y-46348542D03*
%TD*%
D20*
%TO.C,MX27*%
X230865554Y-41268542D03*
D21*
X228325554Y-46348542D03*
D20*
X224515554Y-43808542D03*
D22*
X223245554Y-46348542D03*
X233405554Y-46348542D03*
%TD*%
D20*
%TO.C,MX26*%
X211815554Y-41268542D03*
D21*
X209275554Y-46348542D03*
D20*
X205465554Y-43808542D03*
D22*
X204195554Y-46348542D03*
X214355554Y-46348542D03*
%TD*%
D20*
%TO.C,MX25*%
X192765554Y-41268542D03*
D21*
X190225554Y-46348542D03*
D20*
X186415554Y-43808542D03*
D22*
X185145554Y-46348542D03*
X195305554Y-46348542D03*
%TD*%
D20*
%TO.C,MX24*%
X173715554Y-41268542D03*
D21*
X171175554Y-46348542D03*
D20*
X167365554Y-43808542D03*
D22*
X166095554Y-46348542D03*
X176255554Y-46348542D03*
%TD*%
D20*
%TO.C,MX23*%
X154665554Y-41268542D03*
D21*
X152125554Y-46348542D03*
D20*
X148315554Y-43808542D03*
D22*
X147045554Y-46348542D03*
X157205554Y-46348542D03*
%TD*%
D20*
%TO.C,MX21*%
X116565554Y-41268542D03*
D21*
X114025554Y-46348542D03*
D20*
X110215554Y-43808542D03*
D22*
X108945554Y-46348542D03*
X119105554Y-46348542D03*
%TD*%
D20*
%TO.C,MX20*%
X97515554Y-41268542D03*
D21*
X94975554Y-46348542D03*
D20*
X91165554Y-43808542D03*
D22*
X89895554Y-46348542D03*
X100055554Y-46348542D03*
%TD*%
D20*
%TO.C,MX17*%
X35624250Y-41274500D03*
D21*
X33084250Y-46354500D03*
D20*
X29274250Y-43814500D03*
D22*
X28004250Y-46354500D03*
X38164250Y-46354500D03*
%TD*%
D20*
%TO.C,MX16*%
X297561000Y-22225000D03*
D21*
X295021000Y-27305000D03*
D20*
X291211000Y-24765000D03*
D22*
X289941000Y-27305000D03*
X300101000Y-27305000D03*
%TD*%
D20*
%TO.C,MX15*%
X288036000Y-22225000D03*
D21*
X285496000Y-27305000D03*
D20*
X281686000Y-24765000D03*
D22*
X280416000Y-27305000D03*
X290576000Y-27305000D03*
D35*
X273589750Y-20320000D03*
X297402250Y-20320000D03*
D21*
X273589750Y-35560000D03*
X297402250Y-35560000D03*
%TD*%
D20*
%TO.C,MX14*%
X278511000Y-22225000D03*
D21*
X275971000Y-27305000D03*
D20*
X272161000Y-24765000D03*
D22*
X270891000Y-27305000D03*
X281051000Y-27305000D03*
%TD*%
D20*
%TO.C,MX13*%
X259461000Y-22225000D03*
D21*
X256921000Y-27305000D03*
D20*
X253111000Y-24765000D03*
D22*
X251841000Y-27305000D03*
X262001000Y-27305000D03*
%TD*%
D20*
%TO.C,MX12*%
X240411000Y-22225000D03*
D21*
X237871000Y-27305000D03*
D20*
X234061000Y-24765000D03*
D22*
X232791000Y-27305000D03*
X242951000Y-27305000D03*
%TD*%
D20*
%TO.C,MX11*%
X221361000Y-22225000D03*
D21*
X218821000Y-27305000D03*
D20*
X215011000Y-24765000D03*
D22*
X213741000Y-27305000D03*
X223901000Y-27305000D03*
%TD*%
D20*
%TO.C,MX10*%
X202311000Y-22225000D03*
D21*
X199771000Y-27305000D03*
D20*
X195961000Y-24765000D03*
D22*
X194691000Y-27305000D03*
X204851000Y-27305000D03*
%TD*%
D20*
%TO.C,MX9*%
X183261000Y-22225000D03*
D21*
X180721000Y-27305000D03*
D20*
X176911000Y-24765000D03*
D22*
X175641000Y-27305000D03*
X185801000Y-27305000D03*
%TD*%
D20*
%TO.C,MX8*%
X164211000Y-22225000D03*
D21*
X161671000Y-27305000D03*
D20*
X157861000Y-24765000D03*
D22*
X156591000Y-27305000D03*
X166751000Y-27305000D03*
%TD*%
D20*
%TO.C,MX7*%
X145161000Y-22225000D03*
D21*
X142621000Y-27305000D03*
D20*
X138811000Y-24765000D03*
D22*
X137541000Y-27305000D03*
X147701000Y-27305000D03*
%TD*%
D20*
%TO.C,MX6*%
X126111000Y-22225000D03*
D21*
X123571000Y-27305000D03*
D20*
X119761000Y-24765000D03*
D22*
X118491000Y-27305000D03*
X128651000Y-27305000D03*
%TD*%
D20*
%TO.C,MX5*%
X107061000Y-22225000D03*
D21*
X104521000Y-27305000D03*
D20*
X100711000Y-24765000D03*
D22*
X99441000Y-27305000D03*
X109601000Y-27305000D03*
%TD*%
D20*
%TO.C,MX4*%
X88011000Y-22225000D03*
D21*
X85471000Y-27305000D03*
D20*
X81661000Y-24765000D03*
D22*
X80391000Y-27305000D03*
X90551000Y-27305000D03*
%TD*%
D20*
%TO.C,MX3*%
X68961000Y-22225000D03*
D21*
X66421000Y-27305000D03*
D20*
X62611000Y-24765000D03*
D22*
X61341000Y-27305000D03*
X71501000Y-27305000D03*
%TD*%
D20*
%TO.C,MX2*%
X49911000Y-22225000D03*
D21*
X47371000Y-27305000D03*
D20*
X43561000Y-24765000D03*
D22*
X42291000Y-27305000D03*
X52451000Y-27305000D03*
%TD*%
D20*
%TO.C,MX1*%
X30861000Y-22225000D03*
D21*
X28321000Y-27305000D03*
D20*
X24511000Y-24765000D03*
D22*
X23241000Y-27305000D03*
X33401000Y-27305000D03*
%TD*%
D38*
%TO.C,U3*%
X205175000Y-96200000D03*
X205175000Y-97300000D03*
X205175000Y-98400000D03*
X205175000Y-99500000D03*
X205175000Y-100600000D03*
X205175000Y-101700000D03*
X205175000Y-102800000D03*
X205175000Y-103900000D03*
X205175000Y-105000000D03*
X196675000Y-96200000D03*
X196675000Y-97300000D03*
X196675000Y-98400000D03*
X196675000Y-99500000D03*
X196675000Y-100600000D03*
X196675000Y-101700000D03*
X196675000Y-102800000D03*
X196675000Y-103900000D03*
X196675000Y-105000000D03*
X207675000Y-107200000D03*
X207675000Y-106100000D03*
X207675000Y-105000000D03*
X207675000Y-103900000D03*
X207675000Y-102800000D03*
X207675000Y-101700000D03*
X207675000Y-100600000D03*
X207675000Y-99500000D03*
X207675000Y-98400000D03*
X207675000Y-97300000D03*
X207675000Y-96200000D03*
X207675000Y-95100000D03*
X207675000Y-94000000D03*
D39*
X206425000Y-92500000D03*
X205325000Y-92500000D03*
X204225000Y-92500000D03*
X203125000Y-92500000D03*
X202025000Y-92500000D03*
X200925000Y-92500000D03*
X199825000Y-92500000D03*
X198725000Y-92500000D03*
X197625000Y-92500000D03*
X196525000Y-92500000D03*
X195425000Y-92500000D03*
D38*
X194175000Y-94000000D03*
X194175000Y-95100000D03*
X194175000Y-96200000D03*
X194175000Y-97300000D03*
X194175000Y-98400000D03*
X194175000Y-99500000D03*
X194175000Y-100600000D03*
X194175000Y-101700000D03*
X194175000Y-102800000D03*
X194175000Y-103900000D03*
X194175000Y-105000000D03*
X194175000Y-106100000D03*
X194175000Y-107200000D03*
%TD*%
M02*
