%TF.GenerationSoftware,KiCad,Pcbnew,5.1.10*%
%TF.CreationDate,2021-12-20T21:46:25+01:00*%
%TF.ProjectId,ptm-60nrf,70746d2d-3630-46e7-9266-2e6b69636164,rev?*%
%TF.SameCoordinates,Original*%
%TF.FileFunction,Legend,Top*%
%TF.FilePolarity,Positive*%
%FSLAX46Y46*%
G04 Gerber Fmt 4.6, Leading zero omitted, Abs format (unit mm)*
G04 Created by KiCad (PCBNEW 5.1.10) date 2021-12-20 21:46:25*
%MOMM*%
%LPD*%
G01*
G04 APERTURE LIST*
%ADD10C,0.400000*%
%ADD11C,0.150000*%
%ADD12C,0.120000*%
%ADD13C,0.010000*%
G04 APERTURE END LIST*
D10*
X144998095Y-105632857D02*
X146521904Y-105632857D01*
X151228095Y-105632857D02*
X152751904Y-105632857D01*
X151990000Y-106394761D02*
X151990000Y-104870952D01*
D11*
X230686666Y-97862380D02*
X231020000Y-98862380D01*
X231353333Y-97862380D01*
X231686666Y-98862380D02*
X231686666Y-97862380D01*
X231924761Y-97862380D01*
X232067619Y-97910000D01*
X232162857Y-98005238D01*
X232210476Y-98100476D01*
X232258095Y-98290952D01*
X232258095Y-98433809D01*
X232210476Y-98624285D01*
X232162857Y-98719523D01*
X232067619Y-98814761D01*
X231924761Y-98862380D01*
X231686666Y-98862380D01*
X232686666Y-98862380D02*
X232686666Y-97862380D01*
X232924761Y-97862380D01*
X233067619Y-97910000D01*
X233162857Y-98005238D01*
X233210476Y-98100476D01*
X233258095Y-98290952D01*
X233258095Y-98433809D01*
X233210476Y-98624285D01*
X233162857Y-98719523D01*
X233067619Y-98814761D01*
X232924761Y-98862380D01*
X232686666Y-98862380D01*
X231188095Y-105530000D02*
X231092857Y-105482380D01*
X230950000Y-105482380D01*
X230807142Y-105530000D01*
X230711904Y-105625238D01*
X230664285Y-105720476D01*
X230616666Y-105910952D01*
X230616666Y-106053809D01*
X230664285Y-106244285D01*
X230711904Y-106339523D01*
X230807142Y-106434761D01*
X230950000Y-106482380D01*
X231045238Y-106482380D01*
X231188095Y-106434761D01*
X231235714Y-106387142D01*
X231235714Y-106053809D01*
X231045238Y-106053809D01*
X231664285Y-106482380D02*
X231664285Y-105482380D01*
X232235714Y-106482380D01*
X232235714Y-105482380D01*
X232711904Y-106482380D02*
X232711904Y-105482380D01*
X232950000Y-105482380D01*
X233092857Y-105530000D01*
X233188095Y-105625238D01*
X233235714Y-105720476D01*
X233283333Y-105910952D01*
X233283333Y-106053809D01*
X233235714Y-106244285D01*
X233188095Y-106339523D01*
X233092857Y-106434761D01*
X232950000Y-106482380D01*
X232711904Y-106482380D01*
X230642857Y-101334761D02*
X230785714Y-101382380D01*
X231023809Y-101382380D01*
X231119047Y-101334761D01*
X231166666Y-101287142D01*
X231214285Y-101191904D01*
X231214285Y-101096666D01*
X231166666Y-101001428D01*
X231119047Y-100953809D01*
X231023809Y-100906190D01*
X230833333Y-100858571D01*
X230738095Y-100810952D01*
X230690476Y-100763333D01*
X230642857Y-100668095D01*
X230642857Y-100572857D01*
X230690476Y-100477619D01*
X230738095Y-100430000D01*
X230833333Y-100382380D01*
X231071428Y-100382380D01*
X231214285Y-100430000D01*
X231547619Y-100382380D02*
X231785714Y-101382380D01*
X231976190Y-100668095D01*
X232166666Y-101382380D01*
X232404761Y-100382380D01*
X233357142Y-101287142D02*
X233309523Y-101334761D01*
X233166666Y-101382380D01*
X233071428Y-101382380D01*
X232928571Y-101334761D01*
X232833333Y-101239523D01*
X232785714Y-101144285D01*
X232738095Y-100953809D01*
X232738095Y-100810952D01*
X232785714Y-100620476D01*
X232833333Y-100525238D01*
X232928571Y-100430000D01*
X233071428Y-100382380D01*
X233166666Y-100382380D01*
X233309523Y-100430000D01*
X233357142Y-100477619D01*
X230632857Y-103904761D02*
X230775714Y-103952380D01*
X231013809Y-103952380D01*
X231109047Y-103904761D01*
X231156666Y-103857142D01*
X231204285Y-103761904D01*
X231204285Y-103666666D01*
X231156666Y-103571428D01*
X231109047Y-103523809D01*
X231013809Y-103476190D01*
X230823333Y-103428571D01*
X230728095Y-103380952D01*
X230680476Y-103333333D01*
X230632857Y-103238095D01*
X230632857Y-103142857D01*
X230680476Y-103047619D01*
X230728095Y-103000000D01*
X230823333Y-102952380D01*
X231061428Y-102952380D01*
X231204285Y-103000000D01*
X231537619Y-102952380D02*
X231775714Y-103952380D01*
X231966190Y-103238095D01*
X232156666Y-103952380D01*
X232394761Y-102952380D01*
X232775714Y-103952380D02*
X232775714Y-102952380D01*
X233013809Y-102952380D01*
X233156666Y-103000000D01*
X233251904Y-103095238D01*
X233299523Y-103190476D01*
X233347142Y-103380952D01*
X233347142Y-103523809D01*
X233299523Y-103714285D01*
X233251904Y-103809523D01*
X233156666Y-103904761D01*
X233013809Y-103952380D01*
X232775714Y-103952380D01*
X124422380Y-104197380D02*
X124422380Y-103197380D01*
X124803333Y-103197380D01*
X124898571Y-103245000D01*
X124946190Y-103292619D01*
X124993809Y-103387857D01*
X124993809Y-103530714D01*
X124946190Y-103625952D01*
X124898571Y-103673571D01*
X124803333Y-103721190D01*
X124422380Y-103721190D01*
X125898571Y-104197380D02*
X125422380Y-104197380D01*
X125422380Y-103197380D01*
X126184285Y-103911666D02*
X126660476Y-103911666D01*
X126089047Y-104197380D02*
X126422380Y-103197380D01*
X126755714Y-104197380D01*
X127660476Y-104102142D02*
X127612857Y-104149761D01*
X127470000Y-104197380D01*
X127374761Y-104197380D01*
X127231904Y-104149761D01*
X127136666Y-104054523D01*
X127089047Y-103959285D01*
X127041428Y-103768809D01*
X127041428Y-103625952D01*
X127089047Y-103435476D01*
X127136666Y-103340238D01*
X127231904Y-103245000D01*
X127374761Y-103197380D01*
X127470000Y-103197380D01*
X127612857Y-103245000D01*
X127660476Y-103292619D01*
X128089047Y-103673571D02*
X128422380Y-103673571D01*
X128565238Y-104197380D02*
X128089047Y-104197380D01*
X128089047Y-103197380D01*
X128565238Y-103197380D01*
X121660476Y-105323571D02*
X121803333Y-105371190D01*
X121850952Y-105418809D01*
X121898571Y-105514047D01*
X121898571Y-105656904D01*
X121850952Y-105752142D01*
X121803333Y-105799761D01*
X121708095Y-105847380D01*
X121327142Y-105847380D01*
X121327142Y-104847380D01*
X121660476Y-104847380D01*
X121755714Y-104895000D01*
X121803333Y-104942619D01*
X121850952Y-105037857D01*
X121850952Y-105133095D01*
X121803333Y-105228333D01*
X121755714Y-105275952D01*
X121660476Y-105323571D01*
X121327142Y-105323571D01*
X122279523Y-105561666D02*
X122755714Y-105561666D01*
X122184285Y-105847380D02*
X122517619Y-104847380D01*
X122850952Y-105847380D01*
X123041428Y-104847380D02*
X123612857Y-104847380D01*
X123327142Y-105847380D02*
X123327142Y-104847380D01*
X123803333Y-104847380D02*
X124374761Y-104847380D01*
X124089047Y-105847380D02*
X124089047Y-104847380D01*
X124708095Y-105323571D02*
X125041428Y-105323571D01*
X125184285Y-105847380D02*
X124708095Y-105847380D01*
X124708095Y-104847380D01*
X125184285Y-104847380D01*
X126184285Y-105847380D02*
X125850952Y-105371190D01*
X125612857Y-105847380D02*
X125612857Y-104847380D01*
X125993809Y-104847380D01*
X126089047Y-104895000D01*
X126136666Y-104942619D01*
X126184285Y-105037857D01*
X126184285Y-105180714D01*
X126136666Y-105275952D01*
X126089047Y-105323571D01*
X125993809Y-105371190D01*
X125612857Y-105371190D01*
X126803333Y-105371190D02*
X126803333Y-105847380D01*
X126470000Y-104847380D02*
X126803333Y-105371190D01*
X127136666Y-104847380D01*
X128231904Y-105847380D02*
X128231904Y-104847380D01*
X128231904Y-105323571D02*
X128803333Y-105323571D01*
X128803333Y-105847380D02*
X128803333Y-104847380D01*
X129279523Y-105323571D02*
X129612857Y-105323571D01*
X129755714Y-105847380D02*
X129279523Y-105847380D01*
X129279523Y-104847380D01*
X129755714Y-104847380D01*
X130755714Y-105847380D02*
X130422380Y-105371190D01*
X130184285Y-105847380D02*
X130184285Y-104847380D01*
X130565238Y-104847380D01*
X130660476Y-104895000D01*
X130708095Y-104942619D01*
X130755714Y-105037857D01*
X130755714Y-105180714D01*
X130708095Y-105275952D01*
X130660476Y-105323571D01*
X130565238Y-105371190D01*
X130184285Y-105371190D01*
X131184285Y-105323571D02*
X131517619Y-105323571D01*
X131660476Y-105847380D02*
X131184285Y-105847380D01*
X131184285Y-104847380D01*
X131660476Y-104847380D01*
D12*
X142060000Y-110360000D02*
X110780000Y-110360000D01*
X142080000Y-98050000D02*
X142070000Y-110370000D01*
X110770000Y-98050000D02*
X142080000Y-98050000D01*
D11*
X110780000Y-98060000D02*
X110790000Y-110340000D01*
D13*
%TO.C,G\u002A\u002A\u002A*%
G36*
X182826943Y-99524801D02*
G01*
X182843667Y-99620999D01*
X182826077Y-99706962D01*
X182777178Y-99715007D01*
X182716667Y-99660834D01*
X182685385Y-99592836D01*
X182716280Y-99534300D01*
X182780692Y-99491235D01*
X182826943Y-99524801D01*
G37*
X182826943Y-99524801D02*
X182843667Y-99620999D01*
X182826077Y-99706962D01*
X182777178Y-99715007D01*
X182716667Y-99660834D01*
X182685385Y-99592836D01*
X182716280Y-99534300D01*
X182780692Y-99491235D01*
X182826943Y-99524801D01*
G36*
X181181722Y-99302849D02*
G01*
X181319634Y-99330560D01*
X181447180Y-99370105D01*
X181534580Y-99415255D01*
X181542934Y-99422667D01*
X181563262Y-99488718D01*
X181558977Y-99597031D01*
X181555886Y-99615338D01*
X181535784Y-99703038D01*
X181502250Y-99747940D01*
X181431351Y-99764373D01*
X181303143Y-99766667D01*
X181142269Y-99755439D01*
X181041686Y-99717925D01*
X181008728Y-99689250D01*
X180956536Y-99587616D01*
X180951518Y-99548020D01*
X181074367Y-99548020D01*
X181081754Y-99578194D01*
X181137873Y-99622689D01*
X181236469Y-99639729D01*
X181339950Y-99629390D01*
X181410726Y-99591745D01*
X181419122Y-99577523D01*
X181418671Y-99509403D01*
X181402485Y-99490358D01*
X181367781Y-99501026D01*
X181362000Y-99531335D01*
X181340208Y-99589755D01*
X181293927Y-99586915D01*
X181251801Y-99527475D01*
X181247266Y-99512667D01*
X181199873Y-99442247D01*
X181131318Y-99433173D01*
X181085581Y-99472361D01*
X181074367Y-99548020D01*
X180951518Y-99548020D01*
X180940662Y-99462363D01*
X180962578Y-99351373D01*
X180993924Y-99307841D01*
X181063226Y-99293200D01*
X181181722Y-99302849D01*
G37*
X181181722Y-99302849D02*
X181319634Y-99330560D01*
X181447180Y-99370105D01*
X181534580Y-99415255D01*
X181542934Y-99422667D01*
X181563262Y-99488718D01*
X181558977Y-99597031D01*
X181555886Y-99615338D01*
X181535784Y-99703038D01*
X181502250Y-99747940D01*
X181431351Y-99764373D01*
X181303143Y-99766667D01*
X181142269Y-99755439D01*
X181041686Y-99717925D01*
X181008728Y-99689250D01*
X180956536Y-99587616D01*
X180951518Y-99548020D01*
X181074367Y-99548020D01*
X181081754Y-99578194D01*
X181137873Y-99622689D01*
X181236469Y-99639729D01*
X181339950Y-99629390D01*
X181410726Y-99591745D01*
X181419122Y-99577523D01*
X181418671Y-99509403D01*
X181402485Y-99490358D01*
X181367781Y-99501026D01*
X181362000Y-99531335D01*
X181340208Y-99589755D01*
X181293927Y-99586915D01*
X181251801Y-99527475D01*
X181247266Y-99512667D01*
X181199873Y-99442247D01*
X181131318Y-99433173D01*
X181085581Y-99472361D01*
X181074367Y-99548020D01*
X180951518Y-99548020D01*
X180940662Y-99462363D01*
X180962578Y-99351373D01*
X180993924Y-99307841D01*
X181063226Y-99293200D01*
X181181722Y-99302849D01*
G36*
X182557594Y-99251994D02*
G01*
X182583992Y-99309731D01*
X182555800Y-99351800D01*
X182517679Y-99429950D01*
X182505000Y-99520046D01*
X182543399Y-99631269D01*
X182648458Y-99712591D01*
X182804971Y-99755705D01*
X182941297Y-99758401D01*
X183054183Y-99744266D01*
X183105598Y-99713518D01*
X183118729Y-99650650D01*
X183118834Y-99639667D01*
X183105692Y-99579374D01*
X183057254Y-99529727D01*
X182960005Y-99483330D01*
X182800425Y-99432790D01*
X182682234Y-99400820D01*
X182648762Y-99361453D01*
X182655972Y-99338795D01*
X182717892Y-99310042D01*
X182828640Y-99311474D01*
X182959899Y-99338392D01*
X183083351Y-99386097D01*
X183136335Y-99418502D01*
X183220149Y-99520700D01*
X183261115Y-99651657D01*
X183252151Y-99777265D01*
X183222372Y-99832932D01*
X183140840Y-99875200D01*
X183005199Y-99892732D01*
X182841986Y-99886567D01*
X182677741Y-99857743D01*
X182539002Y-99807298D01*
X182536750Y-99806118D01*
X182440783Y-99749000D01*
X182394144Y-99689762D01*
X182379156Y-99596193D01*
X182378000Y-99516839D01*
X182393527Y-99366374D01*
X182434583Y-99264367D01*
X182492883Y-99223036D01*
X182557594Y-99251994D01*
G37*
X182557594Y-99251994D02*
X182583992Y-99309731D01*
X182555800Y-99351800D01*
X182517679Y-99429950D01*
X182505000Y-99520046D01*
X182543399Y-99631269D01*
X182648458Y-99712591D01*
X182804971Y-99755705D01*
X182941297Y-99758401D01*
X183054183Y-99744266D01*
X183105598Y-99713518D01*
X183118729Y-99650650D01*
X183118834Y-99639667D01*
X183105692Y-99579374D01*
X183057254Y-99529727D01*
X182960005Y-99483330D01*
X182800425Y-99432790D01*
X182682234Y-99400820D01*
X182648762Y-99361453D01*
X182655972Y-99338795D01*
X182717892Y-99310042D01*
X182828640Y-99311474D01*
X182959899Y-99338392D01*
X183083351Y-99386097D01*
X183136335Y-99418502D01*
X183220149Y-99520700D01*
X183261115Y-99651657D01*
X183252151Y-99777265D01*
X183222372Y-99832932D01*
X183140840Y-99875200D01*
X183005199Y-99892732D01*
X182841986Y-99886567D01*
X182677741Y-99857743D01*
X182539002Y-99807298D01*
X182536750Y-99806118D01*
X182440783Y-99749000D01*
X182394144Y-99689762D01*
X182379156Y-99596193D01*
X182378000Y-99516839D01*
X182393527Y-99366374D01*
X182434583Y-99264367D01*
X182492883Y-99223036D01*
X182557594Y-99251994D01*
G36*
X182397357Y-100779747D02*
G01*
X182398015Y-100780803D01*
X182398595Y-100844812D01*
X182367867Y-100948675D01*
X182318943Y-101060170D01*
X182264936Y-101147073D01*
X182238775Y-101172118D01*
X182166450Y-101190071D01*
X182041015Y-101198812D01*
X181893543Y-101198182D01*
X181755105Y-101188023D01*
X181679500Y-101174980D01*
X181546342Y-101118874D01*
X181434106Y-101031925D01*
X181357046Y-100931878D01*
X181329416Y-100836477D01*
X181355768Y-100771965D01*
X181401503Y-100763114D01*
X181447653Y-100831425D01*
X181526450Y-100943740D01*
X181650792Y-101017042D01*
X181836436Y-101059342D01*
X181912476Y-101067740D01*
X182152922Y-101089543D01*
X182222785Y-100914938D01*
X182287314Y-100786554D01*
X182345178Y-100741740D01*
X182397357Y-100779747D01*
G37*
X182397357Y-100779747D02*
X182398015Y-100780803D01*
X182398595Y-100844812D01*
X182367867Y-100948675D01*
X182318943Y-101060170D01*
X182264936Y-101147073D01*
X182238775Y-101172118D01*
X182166450Y-101190071D01*
X182041015Y-101198812D01*
X181893543Y-101198182D01*
X181755105Y-101188023D01*
X181679500Y-101174980D01*
X181546342Y-101118874D01*
X181434106Y-101031925D01*
X181357046Y-100931878D01*
X181329416Y-100836477D01*
X181355768Y-100771965D01*
X181401503Y-100763114D01*
X181447653Y-100831425D01*
X181526450Y-100943740D01*
X181650792Y-101017042D01*
X181836436Y-101059342D01*
X181912476Y-101067740D01*
X182152922Y-101089543D01*
X182222785Y-100914938D01*
X182287314Y-100786554D01*
X182345178Y-100741740D01*
X182397357Y-100779747D01*
G36*
X188696384Y-98450916D02*
G01*
X188740318Y-98554951D01*
X188766635Y-98688328D01*
X188770334Y-98760086D01*
X188760703Y-98899962D01*
X188730899Y-98959696D01*
X188679554Y-98941703D01*
X188671556Y-98934111D01*
X188652339Y-98876147D01*
X188643413Y-98772855D01*
X188643334Y-98761995D01*
X188629714Y-98634821D01*
X188597078Y-98531672D01*
X188574375Y-98438679D01*
X188592179Y-98403888D01*
X188643961Y-98394478D01*
X188696384Y-98450916D01*
G37*
X188696384Y-98450916D02*
X188740318Y-98554951D01*
X188766635Y-98688328D01*
X188770334Y-98760086D01*
X188760703Y-98899962D01*
X188730899Y-98959696D01*
X188679554Y-98941703D01*
X188671556Y-98934111D01*
X188652339Y-98876147D01*
X188643413Y-98772855D01*
X188643334Y-98761995D01*
X188629714Y-98634821D01*
X188597078Y-98531672D01*
X188574375Y-98438679D01*
X188592179Y-98403888D01*
X188643961Y-98394478D01*
X188696384Y-98450916D01*
G36*
X187440934Y-98856186D02*
G01*
X187473923Y-98972091D01*
X187474120Y-98972917D01*
X187472936Y-99062528D01*
X187428207Y-99096642D01*
X187359222Y-99061111D01*
X187334334Y-98993458D01*
X187335204Y-98899253D01*
X187359659Y-98826153D01*
X187370408Y-98815975D01*
X187409718Y-98809125D01*
X187440934Y-98856186D01*
G37*
X187440934Y-98856186D02*
X187473923Y-98972091D01*
X187474120Y-98972917D01*
X187472936Y-99062528D01*
X187428207Y-99096642D01*
X187359222Y-99061111D01*
X187334334Y-98993458D01*
X187335204Y-98899253D01*
X187359659Y-98826153D01*
X187370408Y-98815975D01*
X187409718Y-98809125D01*
X187440934Y-98856186D01*
G36*
X188228215Y-98471116D02*
G01*
X188257022Y-98568180D01*
X188270553Y-98644834D01*
X188294266Y-98801875D01*
X188319463Y-98948698D01*
X188328274Y-98994084D01*
X188336544Y-99097489D01*
X188311456Y-99130583D01*
X188264131Y-99095097D01*
X188205692Y-98992759D01*
X188197481Y-98973734D01*
X188164666Y-98857509D01*
X188147745Y-98720618D01*
X188146655Y-98587913D01*
X188161335Y-98484250D01*
X188191722Y-98434483D01*
X188198834Y-98433167D01*
X188228215Y-98471116D01*
G37*
X188228215Y-98471116D02*
X188257022Y-98568180D01*
X188270553Y-98644834D01*
X188294266Y-98801875D01*
X188319463Y-98948698D01*
X188328274Y-98994084D01*
X188336544Y-99097489D01*
X188311456Y-99130583D01*
X188264131Y-99095097D01*
X188205692Y-98992759D01*
X188197481Y-98973734D01*
X188164666Y-98857509D01*
X188147745Y-98720618D01*
X188146655Y-98587913D01*
X188161335Y-98484250D01*
X188191722Y-98434483D01*
X188198834Y-98433167D01*
X188228215Y-98471116D01*
G36*
X187977624Y-98938262D02*
G01*
X188009091Y-99024342D01*
X188012637Y-99040339D01*
X188045751Y-99151306D01*
X188086378Y-99226538D01*
X188088456Y-99228722D01*
X188132728Y-99298787D01*
X188105974Y-99338826D01*
X188072809Y-99343334D01*
X188006059Y-99310839D01*
X187942733Y-99240236D01*
X187901939Y-99140129D01*
X187890252Y-99030015D01*
X187907635Y-98941743D01*
X187943098Y-98908101D01*
X187977624Y-98938262D01*
G37*
X187977624Y-98938262D02*
X188009091Y-99024342D01*
X188012637Y-99040339D01*
X188045751Y-99151306D01*
X188086378Y-99226538D01*
X188088456Y-99228722D01*
X188132728Y-99298787D01*
X188105974Y-99338826D01*
X188072809Y-99343334D01*
X188006059Y-99310839D01*
X187942733Y-99240236D01*
X187901939Y-99140129D01*
X187890252Y-99030015D01*
X187907635Y-98941743D01*
X187943098Y-98908101D01*
X187977624Y-98938262D01*
G36*
X188957190Y-99199987D02*
G01*
X189034509Y-99246866D01*
X189094964Y-99310853D01*
X189109000Y-99349895D01*
X189080724Y-99384617D01*
X189014187Y-99372503D01*
X188936829Y-99320121D01*
X188922304Y-99305203D01*
X188877503Y-99232939D01*
X188897243Y-99195223D01*
X188957190Y-99199987D01*
G37*
X188957190Y-99199987D02*
X189034509Y-99246866D01*
X189094964Y-99310853D01*
X189109000Y-99349895D01*
X189080724Y-99384617D01*
X189014187Y-99372503D01*
X188936829Y-99320121D01*
X188922304Y-99305203D01*
X188877503Y-99232939D01*
X188897243Y-99195223D01*
X188957190Y-99199987D01*
G36*
X188315008Y-99388600D02*
G01*
X188332295Y-99408512D01*
X188377675Y-99484132D01*
X188389334Y-99520758D01*
X188360236Y-99553495D01*
X188299044Y-99547444D01*
X188244910Y-99509561D01*
X188236087Y-99493527D01*
X188226621Y-99410115D01*
X188259873Y-99369002D01*
X188315008Y-99388600D01*
G37*
X188315008Y-99388600D02*
X188332295Y-99408512D01*
X188377675Y-99484132D01*
X188389334Y-99520758D01*
X188360236Y-99553495D01*
X188299044Y-99547444D01*
X188244910Y-99509561D01*
X188236087Y-99493527D01*
X188226621Y-99410115D01*
X188259873Y-99369002D01*
X188315008Y-99388600D01*
G36*
X187611440Y-99414492D02*
G01*
X187611542Y-99475876D01*
X187626643Y-99491073D01*
X187667890Y-99545090D01*
X187669667Y-99557499D01*
X187639107Y-99592711D01*
X187575375Y-99590645D01*
X187520398Y-99553125D01*
X187518989Y-99550938D01*
X187523821Y-99490128D01*
X187564788Y-99434521D01*
X187610360Y-99399296D01*
X187611440Y-99414492D01*
G37*
X187611440Y-99414492D02*
X187611542Y-99475876D01*
X187626643Y-99491073D01*
X187667890Y-99545090D01*
X187669667Y-99557499D01*
X187639107Y-99592711D01*
X187575375Y-99590645D01*
X187520398Y-99553125D01*
X187518989Y-99550938D01*
X187523821Y-99490128D01*
X187564788Y-99434521D01*
X187610360Y-99399296D01*
X187611440Y-99414492D01*
G36*
X189554384Y-99705593D02*
G01*
X189606893Y-99830167D01*
X189648121Y-99945673D01*
X189680699Y-100031250D01*
X189684860Y-100092372D01*
X189644341Y-100105334D01*
X189588792Y-100068957D01*
X189519279Y-99973015D01*
X189475162Y-99890541D01*
X189419168Y-99764631D01*
X189401813Y-99693688D01*
X189419883Y-99659081D01*
X189434029Y-99652087D01*
X189500195Y-99648847D01*
X189554384Y-99705593D01*
G37*
X189554384Y-99705593D02*
X189606893Y-99830167D01*
X189648121Y-99945673D01*
X189680699Y-100031250D01*
X189684860Y-100092372D01*
X189644341Y-100105334D01*
X189588792Y-100068957D01*
X189519279Y-99973015D01*
X189475162Y-99890541D01*
X189419168Y-99764631D01*
X189401813Y-99693688D01*
X189419883Y-99659081D01*
X189434029Y-99652087D01*
X189500195Y-99648847D01*
X189554384Y-99705593D01*
G36*
X187857592Y-99806969D02*
G01*
X187862021Y-99810539D01*
X187902182Y-99876615D01*
X187921483Y-99969742D01*
X187917888Y-100056537D01*
X187889359Y-100103617D01*
X187880005Y-100105334D01*
X187832330Y-100070634D01*
X187813415Y-100031250D01*
X187772596Y-99927122D01*
X187752110Y-99885046D01*
X187739729Y-99810100D01*
X187783093Y-99778514D01*
X187857592Y-99806969D01*
G37*
X187857592Y-99806969D02*
X187862021Y-99810539D01*
X187902182Y-99876615D01*
X187921483Y-99969742D01*
X187917888Y-100056537D01*
X187889359Y-100103617D01*
X187880005Y-100105334D01*
X187832330Y-100070634D01*
X187813415Y-100031250D01*
X187772596Y-99927122D01*
X187752110Y-99885046D01*
X187739729Y-99810100D01*
X187783093Y-99778514D01*
X187857592Y-99806969D01*
G36*
X188808215Y-99920049D02*
G01*
X188856685Y-99978610D01*
X188913881Y-100061889D01*
X188938706Y-100115490D01*
X188938726Y-100115917D01*
X188910629Y-100146620D01*
X188845984Y-100137123D01*
X188778961Y-100093776D01*
X188770781Y-100084706D01*
X188739928Y-99996306D01*
X188747057Y-99947399D01*
X188772622Y-99903795D01*
X188808215Y-99920049D01*
G37*
X188808215Y-99920049D02*
X188856685Y-99978610D01*
X188913881Y-100061889D01*
X188938706Y-100115490D01*
X188938726Y-100115917D01*
X188910629Y-100146620D01*
X188845984Y-100137123D01*
X188778961Y-100093776D01*
X188770781Y-100084706D01*
X188739928Y-99996306D01*
X188747057Y-99947399D01*
X188772622Y-99903795D01*
X188808215Y-99920049D01*
G36*
X189917536Y-100553637D02*
G01*
X189977271Y-100629847D01*
X189998067Y-100700789D01*
X189973355Y-100739025D01*
X189962228Y-100740334D01*
X189909675Y-100712062D01*
X189852248Y-100658334D01*
X189803372Y-100576513D01*
X189810101Y-100522647D01*
X189860175Y-100516396D01*
X189917536Y-100553637D01*
G37*
X189917536Y-100553637D02*
X189977271Y-100629847D01*
X189998067Y-100700789D01*
X189973355Y-100739025D01*
X189962228Y-100740334D01*
X189909675Y-100712062D01*
X189852248Y-100658334D01*
X189803372Y-100576513D01*
X189810101Y-100522647D01*
X189860175Y-100516396D01*
X189917536Y-100553637D01*
G36*
X188897035Y-100549649D02*
G01*
X188929405Y-100604029D01*
X188938523Y-100686740D01*
X188924562Y-100758822D01*
X188896005Y-100782667D01*
X188844453Y-100748837D01*
X188827976Y-100719167D01*
X188818576Y-100637419D01*
X188841476Y-100568660D01*
X188883832Y-100544414D01*
X188897035Y-100549649D01*
G37*
X188897035Y-100549649D02*
X188929405Y-100604029D01*
X188938523Y-100686740D01*
X188924562Y-100758822D01*
X188896005Y-100782667D01*
X188844453Y-100748837D01*
X188827976Y-100719167D01*
X188818576Y-100637419D01*
X188841476Y-100568660D01*
X188883832Y-100544414D01*
X188897035Y-100549649D01*
G36*
X189288971Y-100571239D02*
G01*
X189298311Y-100658573D01*
X189291460Y-100818037D01*
X189288590Y-100856750D01*
X189271402Y-101016189D01*
X189247956Y-101100117D01*
X189214041Y-101117664D01*
X189179556Y-101093111D01*
X189156187Y-101024968D01*
X189149270Y-100906767D01*
X189156826Y-100771084D01*
X189176880Y-100650499D01*
X189207451Y-100577588D01*
X189211065Y-100574128D01*
X189260776Y-100546327D01*
X189288971Y-100571239D01*
G37*
X189288971Y-100571239D02*
X189298311Y-100658573D01*
X189291460Y-100818037D01*
X189288590Y-100856750D01*
X189271402Y-101016189D01*
X189247956Y-101100117D01*
X189214041Y-101117664D01*
X189179556Y-101093111D01*
X189156187Y-101024968D01*
X189149270Y-100906767D01*
X189156826Y-100771084D01*
X189176880Y-100650499D01*
X189207451Y-100577588D01*
X189211065Y-100574128D01*
X189260776Y-100546327D01*
X189288971Y-100571239D01*
G36*
X189109000Y-101142500D02*
G01*
X189087834Y-101163667D01*
X189066667Y-101142500D01*
X189087834Y-101121334D01*
X189109000Y-101142500D01*
G37*
X189109000Y-101142500D02*
X189087834Y-101163667D01*
X189066667Y-101142500D01*
X189087834Y-101121334D01*
X189109000Y-101142500D01*
G36*
X190212592Y-101271308D02*
G01*
X190246882Y-101323767D01*
X190246386Y-101387435D01*
X190212165Y-101417667D01*
X190154832Y-101386895D01*
X190146167Y-101375334D01*
X190137885Y-101312552D01*
X190171481Y-101268505D01*
X190212592Y-101271308D01*
G37*
X190212592Y-101271308D02*
X190246882Y-101323767D01*
X190246386Y-101387435D01*
X190212165Y-101417667D01*
X190154832Y-101386895D01*
X190146167Y-101375334D01*
X190137885Y-101312552D01*
X190171481Y-101268505D01*
X190212592Y-101271308D01*
G36*
X188066365Y-100365040D02*
G01*
X188117190Y-100470050D01*
X188179124Y-100645543D01*
X188237404Y-100811012D01*
X188298291Y-100962188D01*
X188344772Y-101059001D01*
X188384215Y-101145023D01*
X188436109Y-101279650D01*
X188492076Y-101438139D01*
X188543739Y-101595746D01*
X188582721Y-101727728D01*
X188600645Y-101809342D01*
X188601000Y-101815822D01*
X188574364Y-101840933D01*
X188517413Y-101819598D01*
X188483185Y-101788084D01*
X188448573Y-101720741D01*
X188403520Y-101600524D01*
X188367633Y-101486484D01*
X188314923Y-101326148D01*
X188255970Y-101178278D01*
X188220220Y-101105484D01*
X188162315Y-100985892D01*
X188102775Y-100834301D01*
X188048628Y-100673181D01*
X188006901Y-100525002D01*
X187984622Y-100412235D01*
X187986974Y-100359645D01*
X188024386Y-100330360D01*
X188066365Y-100365040D01*
G37*
X188066365Y-100365040D02*
X188117190Y-100470050D01*
X188179124Y-100645543D01*
X188237404Y-100811012D01*
X188298291Y-100962188D01*
X188344772Y-101059001D01*
X188384215Y-101145023D01*
X188436109Y-101279650D01*
X188492076Y-101438139D01*
X188543739Y-101595746D01*
X188582721Y-101727728D01*
X188600645Y-101809342D01*
X188601000Y-101815822D01*
X188574364Y-101840933D01*
X188517413Y-101819598D01*
X188483185Y-101788084D01*
X188448573Y-101720741D01*
X188403520Y-101600524D01*
X188367633Y-101486484D01*
X188314923Y-101326148D01*
X188255970Y-101178278D01*
X188220220Y-101105484D01*
X188162315Y-100985892D01*
X188102775Y-100834301D01*
X188048628Y-100673181D01*
X188006901Y-100525002D01*
X187984622Y-100412235D01*
X187986974Y-100359645D01*
X188024386Y-100330360D01*
X188066365Y-100365040D01*
G36*
X189273856Y-101670362D02*
G01*
X189334087Y-101737895D01*
X189394833Y-101829090D01*
X189437849Y-101917701D01*
X189447667Y-101962414D01*
X189426849Y-102008319D01*
X189372369Y-101988293D01*
X189296188Y-101907725D01*
X189281216Y-101887382D01*
X189209554Y-101767647D01*
X189199648Y-101690628D01*
X189232384Y-101652735D01*
X189273856Y-101670362D01*
G37*
X189273856Y-101670362D02*
X189334087Y-101737895D01*
X189394833Y-101829090D01*
X189437849Y-101917701D01*
X189447667Y-101962414D01*
X189426849Y-102008319D01*
X189372369Y-101988293D01*
X189296188Y-101907725D01*
X189281216Y-101887382D01*
X189209554Y-101767647D01*
X189199648Y-101690628D01*
X189232384Y-101652735D01*
X189273856Y-101670362D01*
G36*
X190175991Y-101801806D02*
G01*
X190217424Y-101916603D01*
X190249263Y-102055923D01*
X190279833Y-102202663D01*
X190307390Y-102320298D01*
X190323003Y-102374454D01*
X190310857Y-102419838D01*
X190257307Y-102435150D01*
X190202886Y-102411647D01*
X190195700Y-102401917D01*
X190168885Y-102326343D01*
X190140684Y-102201632D01*
X190115985Y-102057782D01*
X190099676Y-101924789D01*
X190096644Y-101832647D01*
X190099997Y-101814567D01*
X190136384Y-101767043D01*
X190175991Y-101801806D01*
G37*
X190175991Y-101801806D02*
X190217424Y-101916603D01*
X190249263Y-102055923D01*
X190279833Y-102202663D01*
X190307390Y-102320298D01*
X190323003Y-102374454D01*
X190310857Y-102419838D01*
X190257307Y-102435150D01*
X190202886Y-102411647D01*
X190195700Y-102401917D01*
X190168885Y-102326343D01*
X190140684Y-102201632D01*
X190115985Y-102057782D01*
X190099676Y-101924789D01*
X190096644Y-101832647D01*
X190099997Y-101814567D01*
X190136384Y-101767043D01*
X190175991Y-101801806D01*
G36*
X188732318Y-102241148D02*
G01*
X188772436Y-102327439D01*
X188812691Y-102441172D01*
X188843255Y-102554907D01*
X188854358Y-102634750D01*
X188837375Y-102687147D01*
X188794096Y-102675097D01*
X188739224Y-102608227D01*
X188702296Y-102535171D01*
X188660393Y-102396165D01*
X188655226Y-102282527D01*
X188686804Y-102216593D01*
X188702161Y-102209740D01*
X188732318Y-102241148D01*
G37*
X188732318Y-102241148D02*
X188772436Y-102327439D01*
X188812691Y-102441172D01*
X188843255Y-102554907D01*
X188854358Y-102634750D01*
X188837375Y-102687147D01*
X188794096Y-102675097D01*
X188739224Y-102608227D01*
X188702296Y-102535171D01*
X188660393Y-102396165D01*
X188655226Y-102282527D01*
X188686804Y-102216593D01*
X188702161Y-102209740D01*
X188732318Y-102241148D01*
G36*
X190297259Y-102922308D02*
G01*
X190329890Y-102976136D01*
X190333906Y-103051058D01*
X190310258Y-103104854D01*
X190293005Y-103111000D01*
X190241120Y-103077259D01*
X190225754Y-103049527D01*
X190220053Y-102972698D01*
X190251931Y-102921369D01*
X190297259Y-102922308D01*
G37*
X190297259Y-102922308D02*
X190329890Y-102976136D01*
X190333906Y-103051058D01*
X190310258Y-103104854D01*
X190293005Y-103111000D01*
X190241120Y-103077259D01*
X190225754Y-103049527D01*
X190220053Y-102972698D01*
X190251931Y-102921369D01*
X190297259Y-102922308D01*
G36*
X189435986Y-102534875D02*
G01*
X189461320Y-102586119D01*
X189500746Y-102690830D01*
X189545013Y-102821090D01*
X189584868Y-102948980D01*
X189611061Y-103046582D01*
X189616377Y-103079250D01*
X189591104Y-103109998D01*
X189534587Y-103090716D01*
X189499556Y-103058084D01*
X189452354Y-102974599D01*
X189414776Y-102862725D01*
X189389176Y-102741842D01*
X189377908Y-102631331D01*
X189383328Y-102550573D01*
X189407789Y-102518946D01*
X189435986Y-102534875D01*
G37*
X189435986Y-102534875D02*
X189461320Y-102586119D01*
X189500746Y-102690830D01*
X189545013Y-102821090D01*
X189584868Y-102948980D01*
X189611061Y-103046582D01*
X189616377Y-103079250D01*
X189591104Y-103109998D01*
X189534587Y-103090716D01*
X189499556Y-103058084D01*
X189452354Y-102974599D01*
X189414776Y-102862725D01*
X189389176Y-102741842D01*
X189377908Y-102631331D01*
X189383328Y-102550573D01*
X189407789Y-102518946D01*
X189435986Y-102534875D01*
G36*
X188958101Y-103090836D02*
G01*
X189025678Y-103153334D01*
X189083037Y-103236682D01*
X189108034Y-103290399D01*
X189108059Y-103290917D01*
X189082328Y-103324214D01*
X189020189Y-103311605D01*
X188949502Y-103262304D01*
X188921293Y-103229141D01*
X188880307Y-103135196D01*
X188899179Y-103084299D01*
X188958101Y-103090836D01*
G37*
X188958101Y-103090836D02*
X189025678Y-103153334D01*
X189083037Y-103236682D01*
X189108034Y-103290399D01*
X189108059Y-103290917D01*
X189082328Y-103324214D01*
X189020189Y-103311605D01*
X188949502Y-103262304D01*
X188921293Y-103229141D01*
X188880307Y-103135196D01*
X188899179Y-103084299D01*
X188958101Y-103090836D01*
G36*
X190488602Y-103622128D02*
G01*
X190539694Y-103682495D01*
X190548334Y-103708850D01*
X190517375Y-103741701D01*
X190453605Y-103739738D01*
X190400685Y-103704489D01*
X190400167Y-103703667D01*
X190388726Y-103635278D01*
X190430359Y-103601611D01*
X190488602Y-103622128D01*
G37*
X190488602Y-103622128D02*
X190539694Y-103682495D01*
X190548334Y-103708850D01*
X190517375Y-103741701D01*
X190453605Y-103739738D01*
X190400685Y-103704489D01*
X190400167Y-103703667D01*
X190388726Y-103635278D01*
X190430359Y-103601611D01*
X190488602Y-103622128D01*
G36*
X189747850Y-103701152D02*
G01*
X189808003Y-103769011D01*
X189886487Y-103874337D01*
X189905705Y-103932549D01*
X189867058Y-103955590D01*
X189830156Y-103957667D01*
X189746161Y-103923484D01*
X189699896Y-103869692D01*
X189672885Y-103772027D01*
X189679265Y-103712787D01*
X189705262Y-103678401D01*
X189747850Y-103701152D01*
G37*
X189747850Y-103701152D02*
X189808003Y-103769011D01*
X189886487Y-103874337D01*
X189905705Y-103932549D01*
X189867058Y-103955590D01*
X189830156Y-103957667D01*
X189746161Y-103923484D01*
X189699896Y-103869692D01*
X189672885Y-103772027D01*
X189679265Y-103712787D01*
X189705262Y-103678401D01*
X189747850Y-103701152D01*
G36*
X169817198Y-97537686D02*
G01*
X169919001Y-97620885D01*
X170007568Y-97738639D01*
X170137341Y-97911177D01*
X170271959Y-98054845D01*
X170396272Y-98155632D01*
X170495126Y-98199523D01*
X170506800Y-98200334D01*
X170603330Y-98172348D01*
X170708504Y-98104016D01*
X170719167Y-98094500D01*
X170851979Y-98011078D01*
X170990165Y-97987669D01*
X171109926Y-98024835D01*
X171168013Y-98083917D01*
X171207836Y-98162374D01*
X171261308Y-98286895D01*
X171318485Y-98431603D01*
X171369425Y-98570619D01*
X171404184Y-98678063D01*
X171413667Y-98723263D01*
X171390451Y-98753032D01*
X171336727Y-98729290D01*
X171276378Y-98663412D01*
X171271194Y-98655417D01*
X171219385Y-98551982D01*
X171167700Y-98418119D01*
X171158868Y-98390834D01*
X171095378Y-98223099D01*
X171028648Y-98135407D01*
X170949431Y-98123347D01*
X170848477Y-98182508D01*
X170803834Y-98221500D01*
X170676098Y-98303363D01*
X170515931Y-98327334D01*
X170402607Y-98317534D01*
X170312039Y-98277203D01*
X170212164Y-98189945D01*
X170177679Y-98154361D01*
X170060172Y-98019934D01*
X169949175Y-97875596D01*
X169907551Y-97814133D01*
X169839471Y-97719678D01*
X169786054Y-97669067D01*
X169770272Y-97666466D01*
X169739588Y-97710275D01*
X169680913Y-97813835D01*
X169603237Y-97960735D01*
X169531710Y-98101944D01*
X169435440Y-98295589D01*
X169369862Y-98424864D01*
X169327307Y-98500880D01*
X169300107Y-98534744D01*
X169280592Y-98537568D01*
X169261094Y-98520459D01*
X169250453Y-98509386D01*
X169241799Y-98443369D01*
X169277796Y-98312556D01*
X169356261Y-98122685D01*
X169475014Y-97879495D01*
X169528807Y-97777000D01*
X169630401Y-97615079D01*
X169723765Y-97535529D01*
X169817198Y-97537686D01*
G37*
X169817198Y-97537686D02*
X169919001Y-97620885D01*
X170007568Y-97738639D01*
X170137341Y-97911177D01*
X170271959Y-98054845D01*
X170396272Y-98155632D01*
X170495126Y-98199523D01*
X170506800Y-98200334D01*
X170603330Y-98172348D01*
X170708504Y-98104016D01*
X170719167Y-98094500D01*
X170851979Y-98011078D01*
X170990165Y-97987669D01*
X171109926Y-98024835D01*
X171168013Y-98083917D01*
X171207836Y-98162374D01*
X171261308Y-98286895D01*
X171318485Y-98431603D01*
X171369425Y-98570619D01*
X171404184Y-98678063D01*
X171413667Y-98723263D01*
X171390451Y-98753032D01*
X171336727Y-98729290D01*
X171276378Y-98663412D01*
X171271194Y-98655417D01*
X171219385Y-98551982D01*
X171167700Y-98418119D01*
X171158868Y-98390834D01*
X171095378Y-98223099D01*
X171028648Y-98135407D01*
X170949431Y-98123347D01*
X170848477Y-98182508D01*
X170803834Y-98221500D01*
X170676098Y-98303363D01*
X170515931Y-98327334D01*
X170402607Y-98317534D01*
X170312039Y-98277203D01*
X170212164Y-98189945D01*
X170177679Y-98154361D01*
X170060172Y-98019934D01*
X169949175Y-97875596D01*
X169907551Y-97814133D01*
X169839471Y-97719678D01*
X169786054Y-97669067D01*
X169770272Y-97666466D01*
X169739588Y-97710275D01*
X169680913Y-97813835D01*
X169603237Y-97960735D01*
X169531710Y-98101944D01*
X169435440Y-98295589D01*
X169369862Y-98424864D01*
X169327307Y-98500880D01*
X169300107Y-98534744D01*
X169280592Y-98537568D01*
X169261094Y-98520459D01*
X169250453Y-98509386D01*
X169241799Y-98443369D01*
X169277796Y-98312556D01*
X169356261Y-98122685D01*
X169475014Y-97879495D01*
X169528807Y-97777000D01*
X169630401Y-97615079D01*
X169723765Y-97535529D01*
X169817198Y-97537686D01*
G36*
X165751902Y-96185916D02*
G01*
X165868880Y-96219470D01*
X165882106Y-96225417D01*
X166017239Y-96280201D01*
X166143167Y-96319073D01*
X166247379Y-96350125D01*
X166312500Y-96379727D01*
X166375762Y-96406224D01*
X166489175Y-96440825D01*
X166619902Y-96474857D01*
X166735108Y-96499649D01*
X166794357Y-96507000D01*
X166825489Y-96469712D01*
X166847547Y-96377974D01*
X166849695Y-96357949D01*
X166872732Y-96240543D01*
X166906427Y-96203950D01*
X166939473Y-96247214D01*
X166960414Y-96367304D01*
X166968633Y-96453646D01*
X166988075Y-96513135D01*
X167033201Y-96553211D01*
X167118470Y-96581315D01*
X167258341Y-96604886D01*
X167467274Y-96631366D01*
X167475556Y-96632381D01*
X167735378Y-96658354D01*
X167982412Y-96672369D01*
X168201185Y-96674526D01*
X168376225Y-96664925D01*
X168492059Y-96643669D01*
X168526533Y-96625534D01*
X168590803Y-96596225D01*
X168636064Y-96626586D01*
X168643419Y-96691617D01*
X168616147Y-96744075D01*
X168584437Y-96771872D01*
X168534635Y-96790078D01*
X168452828Y-96799602D01*
X168325101Y-96801356D01*
X168137540Y-96796252D01*
X167942724Y-96788183D01*
X167706304Y-96775722D01*
X167484748Y-96760464D01*
X167299321Y-96744119D01*
X167171286Y-96728397D01*
X167148584Y-96724332D01*
X166968667Y-96687702D01*
X166968299Y-97560434D01*
X166965755Y-97975864D01*
X166958388Y-98309403D01*
X166946016Y-98563700D01*
X166928458Y-98741404D01*
X166905532Y-98845164D01*
X166878104Y-98877667D01*
X166836996Y-98849314D01*
X166836203Y-98845917D01*
X166835095Y-98796576D01*
X166834822Y-98674234D01*
X166835336Y-98490549D01*
X166836590Y-98257183D01*
X166838537Y-97985794D01*
X166840705Y-97733483D01*
X166850671Y-96652800D01*
X166581586Y-96597315D01*
X166435858Y-96563761D01*
X166322483Y-96531242D01*
X166270167Y-96509086D01*
X166200821Y-96476276D01*
X166100834Y-96446073D01*
X165965258Y-96404729D01*
X165846834Y-96358026D01*
X165721649Y-96312059D01*
X165614000Y-96287207D01*
X165534345Y-96262857D01*
X165508167Y-96231834D01*
X165544323Y-96192565D01*
X165634642Y-96177104D01*
X165751902Y-96185916D01*
G37*
X165751902Y-96185916D02*
X165868880Y-96219470D01*
X165882106Y-96225417D01*
X166017239Y-96280201D01*
X166143167Y-96319073D01*
X166247379Y-96350125D01*
X166312500Y-96379727D01*
X166375762Y-96406224D01*
X166489175Y-96440825D01*
X166619902Y-96474857D01*
X166735108Y-96499649D01*
X166794357Y-96507000D01*
X166825489Y-96469712D01*
X166847547Y-96377974D01*
X166849695Y-96357949D01*
X166872732Y-96240543D01*
X166906427Y-96203950D01*
X166939473Y-96247214D01*
X166960414Y-96367304D01*
X166968633Y-96453646D01*
X166988075Y-96513135D01*
X167033201Y-96553211D01*
X167118470Y-96581315D01*
X167258341Y-96604886D01*
X167467274Y-96631366D01*
X167475556Y-96632381D01*
X167735378Y-96658354D01*
X167982412Y-96672369D01*
X168201185Y-96674526D01*
X168376225Y-96664925D01*
X168492059Y-96643669D01*
X168526533Y-96625534D01*
X168590803Y-96596225D01*
X168636064Y-96626586D01*
X168643419Y-96691617D01*
X168616147Y-96744075D01*
X168584437Y-96771872D01*
X168534635Y-96790078D01*
X168452828Y-96799602D01*
X168325101Y-96801356D01*
X168137540Y-96796252D01*
X167942724Y-96788183D01*
X167706304Y-96775722D01*
X167484748Y-96760464D01*
X167299321Y-96744119D01*
X167171286Y-96728397D01*
X167148584Y-96724332D01*
X166968667Y-96687702D01*
X166968299Y-97560434D01*
X166965755Y-97975864D01*
X166958388Y-98309403D01*
X166946016Y-98563700D01*
X166928458Y-98741404D01*
X166905532Y-98845164D01*
X166878104Y-98877667D01*
X166836996Y-98849314D01*
X166836203Y-98845917D01*
X166835095Y-98796576D01*
X166834822Y-98674234D01*
X166835336Y-98490549D01*
X166836590Y-98257183D01*
X166838537Y-97985794D01*
X166840705Y-97733483D01*
X166850671Y-96652800D01*
X166581586Y-96597315D01*
X166435858Y-96563761D01*
X166322483Y-96531242D01*
X166270167Y-96509086D01*
X166200821Y-96476276D01*
X166100834Y-96446073D01*
X165965258Y-96404729D01*
X165846834Y-96358026D01*
X165721649Y-96312059D01*
X165614000Y-96287207D01*
X165534345Y-96262857D01*
X165508167Y-96231834D01*
X165544323Y-96192565D01*
X165634642Y-96177104D01*
X165751902Y-96185916D01*
G36*
X168019632Y-97552198D02*
G01*
X168204517Y-97590271D01*
X168407246Y-97677655D01*
X168594087Y-97796517D01*
X168730591Y-97928078D01*
X168788776Y-98021417D01*
X168819653Y-98127001D01*
X168830738Y-98275599D01*
X168831334Y-98340440D01*
X168827189Y-98499404D01*
X168808348Y-98605307D01*
X168765198Y-98689604D01*
X168699948Y-98770360D01*
X168600084Y-98867893D01*
X168505044Y-98911364D01*
X168400977Y-98920000D01*
X168316024Y-98913998D01*
X168240359Y-98888429D01*
X168155767Y-98831946D01*
X168044038Y-98733204D01*
X167939696Y-98632638D01*
X167646000Y-98345276D01*
X167646000Y-98290137D01*
X167760788Y-98290137D01*
X168019337Y-98541568D01*
X168183599Y-98689055D01*
X168311767Y-98770323D01*
X168416866Y-98788114D01*
X168511923Y-98745173D01*
X168594737Y-98662752D01*
X168679111Y-98507557D01*
X168711281Y-98324219D01*
X168690847Y-98142698D01*
X168617412Y-97992953D01*
X168603847Y-97977270D01*
X168463750Y-97861284D01*
X168285971Y-97760756D01*
X168109088Y-97695944D01*
X168046214Y-97684445D01*
X167945947Y-97700310D01*
X167871537Y-97778199D01*
X167818012Y-97925972D01*
X167787852Y-98092685D01*
X167760788Y-98290137D01*
X167646000Y-98290137D01*
X167646000Y-98088565D01*
X167655844Y-97911536D01*
X167691164Y-97782100D01*
X167744300Y-97688011D01*
X167818814Y-97594896D01*
X167895607Y-97556118D01*
X168014620Y-97551976D01*
X168019632Y-97552198D01*
G37*
X168019632Y-97552198D02*
X168204517Y-97590271D01*
X168407246Y-97677655D01*
X168594087Y-97796517D01*
X168730591Y-97928078D01*
X168788776Y-98021417D01*
X168819653Y-98127001D01*
X168830738Y-98275599D01*
X168831334Y-98340440D01*
X168827189Y-98499404D01*
X168808348Y-98605307D01*
X168765198Y-98689604D01*
X168699948Y-98770360D01*
X168600084Y-98867893D01*
X168505044Y-98911364D01*
X168400977Y-98920000D01*
X168316024Y-98913998D01*
X168240359Y-98888429D01*
X168155767Y-98831946D01*
X168044038Y-98733204D01*
X167939696Y-98632638D01*
X167646000Y-98345276D01*
X167646000Y-98290137D01*
X167760788Y-98290137D01*
X168019337Y-98541568D01*
X168183599Y-98689055D01*
X168311767Y-98770323D01*
X168416866Y-98788114D01*
X168511923Y-98745173D01*
X168594737Y-98662752D01*
X168679111Y-98507557D01*
X168711281Y-98324219D01*
X168690847Y-98142698D01*
X168617412Y-97992953D01*
X168603847Y-97977270D01*
X168463750Y-97861284D01*
X168285971Y-97760756D01*
X168109088Y-97695944D01*
X168046214Y-97684445D01*
X167945947Y-97700310D01*
X167871537Y-97778199D01*
X167818012Y-97925972D01*
X167787852Y-98092685D01*
X167760788Y-98290137D01*
X167646000Y-98290137D01*
X167646000Y-98088565D01*
X167655844Y-97911536D01*
X167691164Y-97782100D01*
X167744300Y-97688011D01*
X167818814Y-97594896D01*
X167895607Y-97556118D01*
X168014620Y-97551976D01*
X168019632Y-97552198D01*
G36*
X173673344Y-96092242D02*
G01*
X173792168Y-96114219D01*
X173854167Y-96149620D01*
X173852971Y-96185295D01*
X173782209Y-96208094D01*
X173730713Y-96210667D01*
X173582694Y-96244223D01*
X173415883Y-96334252D01*
X173255329Y-96464795D01*
X173156451Y-96576527D01*
X173085896Y-96669825D01*
X173035113Y-96735882D01*
X173031996Y-96739834D01*
X172972939Y-96836848D01*
X172913408Y-96967736D01*
X172868483Y-97095636D01*
X172853000Y-97177392D01*
X172837799Y-97285205D01*
X172813615Y-97367080D01*
X172795545Y-97427880D01*
X172812648Y-97461068D01*
X172882301Y-97478465D01*
X172993531Y-97489470D01*
X173174751Y-97524098D01*
X173378105Y-97592391D01*
X173577451Y-97682474D01*
X173746651Y-97782476D01*
X173859563Y-97880521D01*
X173862477Y-97884156D01*
X173930268Y-98015181D01*
X173953667Y-98140459D01*
X173944908Y-98272903D01*
X173922302Y-98419803D01*
X173891352Y-98557209D01*
X173857563Y-98661172D01*
X173826439Y-98707740D01*
X173823159Y-98708334D01*
X173787521Y-98742092D01*
X173784334Y-98764199D01*
X173754769Y-98828491D01*
X173683116Y-98908012D01*
X173678178Y-98912366D01*
X173602179Y-98964184D01*
X173507329Y-98992572D01*
X173367078Y-99003673D01*
X173279260Y-99004667D01*
X173112519Y-99000115D01*
X173001417Y-98981578D01*
X172917191Y-98941729D01*
X172859448Y-98897763D01*
X172758477Y-98774734D01*
X172684097Y-98593519D01*
X172633321Y-98344972D01*
X172611069Y-98136834D01*
X172588593Y-97975839D01*
X172553592Y-97873632D01*
X172531455Y-97848980D01*
X172479586Y-97796171D01*
X172488198Y-97719385D01*
X172541223Y-97628834D01*
X172747167Y-97628834D01*
X172751052Y-97988667D01*
X172767316Y-98292592D01*
X172807706Y-98536991D01*
X172870344Y-98714088D01*
X172950515Y-98814168D01*
X173052504Y-98854008D01*
X173201281Y-98875739D01*
X173261330Y-98877667D01*
X173405545Y-98869741D01*
X173503900Y-98836665D01*
X173594458Y-98764492D01*
X173608809Y-98750345D01*
X173701741Y-98616369D01*
X173772402Y-98438622D01*
X173812067Y-98249898D01*
X173812011Y-98082993D01*
X173799838Y-98032338D01*
X173733563Y-97943575D01*
X173605919Y-97849695D01*
X173438760Y-97761142D01*
X173253940Y-97688363D01*
X173073314Y-97641802D01*
X172958834Y-97630382D01*
X172747167Y-97628834D01*
X172541223Y-97628834D01*
X172549792Y-97614202D01*
X172605809Y-97510812D01*
X172658694Y-97361650D01*
X172713232Y-97151785D01*
X172746982Y-96998848D01*
X172800575Y-96860317D01*
X172901453Y-96690131D01*
X173032564Y-96511673D01*
X173176852Y-96348326D01*
X173306759Y-96231351D01*
X173437899Y-96140810D01*
X173542437Y-96098160D01*
X173653167Y-96090959D01*
X173673344Y-96092242D01*
G37*
X173673344Y-96092242D02*
X173792168Y-96114219D01*
X173854167Y-96149620D01*
X173852971Y-96185295D01*
X173782209Y-96208094D01*
X173730713Y-96210667D01*
X173582694Y-96244223D01*
X173415883Y-96334252D01*
X173255329Y-96464795D01*
X173156451Y-96576527D01*
X173085896Y-96669825D01*
X173035113Y-96735882D01*
X173031996Y-96739834D01*
X172972939Y-96836848D01*
X172913408Y-96967736D01*
X172868483Y-97095636D01*
X172853000Y-97177392D01*
X172837799Y-97285205D01*
X172813615Y-97367080D01*
X172795545Y-97427880D01*
X172812648Y-97461068D01*
X172882301Y-97478465D01*
X172993531Y-97489470D01*
X173174751Y-97524098D01*
X173378105Y-97592391D01*
X173577451Y-97682474D01*
X173746651Y-97782476D01*
X173859563Y-97880521D01*
X173862477Y-97884156D01*
X173930268Y-98015181D01*
X173953667Y-98140459D01*
X173944908Y-98272903D01*
X173922302Y-98419803D01*
X173891352Y-98557209D01*
X173857563Y-98661172D01*
X173826439Y-98707740D01*
X173823159Y-98708334D01*
X173787521Y-98742092D01*
X173784334Y-98764199D01*
X173754769Y-98828491D01*
X173683116Y-98908012D01*
X173678178Y-98912366D01*
X173602179Y-98964184D01*
X173507329Y-98992572D01*
X173367078Y-99003673D01*
X173279260Y-99004667D01*
X173112519Y-99000115D01*
X173001417Y-98981578D01*
X172917191Y-98941729D01*
X172859448Y-98897763D01*
X172758477Y-98774734D01*
X172684097Y-98593519D01*
X172633321Y-98344972D01*
X172611069Y-98136834D01*
X172588593Y-97975839D01*
X172553592Y-97873632D01*
X172531455Y-97848980D01*
X172479586Y-97796171D01*
X172488198Y-97719385D01*
X172541223Y-97628834D01*
X172747167Y-97628834D01*
X172751052Y-97988667D01*
X172767316Y-98292592D01*
X172807706Y-98536991D01*
X172870344Y-98714088D01*
X172950515Y-98814168D01*
X173052504Y-98854008D01*
X173201281Y-98875739D01*
X173261330Y-98877667D01*
X173405545Y-98869741D01*
X173503900Y-98836665D01*
X173594458Y-98764492D01*
X173608809Y-98750345D01*
X173701741Y-98616369D01*
X173772402Y-98438622D01*
X173812067Y-98249898D01*
X173812011Y-98082993D01*
X173799838Y-98032338D01*
X173733563Y-97943575D01*
X173605919Y-97849695D01*
X173438760Y-97761142D01*
X173253940Y-97688363D01*
X173073314Y-97641802D01*
X172958834Y-97630382D01*
X172747167Y-97628834D01*
X172541223Y-97628834D01*
X172549792Y-97614202D01*
X172605809Y-97510812D01*
X172658694Y-97361650D01*
X172713232Y-97151785D01*
X172746982Y-96998848D01*
X172800575Y-96860317D01*
X172901453Y-96690131D01*
X173032564Y-96511673D01*
X173176852Y-96348326D01*
X173306759Y-96231351D01*
X173437899Y-96140810D01*
X173542437Y-96098160D01*
X173653167Y-96090959D01*
X173673344Y-96092242D01*
G36*
X175251313Y-96514691D02*
G01*
X175340258Y-96541841D01*
X175382678Y-96584095D01*
X175369044Y-96621327D01*
X175307813Y-96634000D01*
X175190487Y-96664373D01*
X175052149Y-96758430D01*
X174887485Y-96920579D01*
X174713440Y-97127050D01*
X174560563Y-97333855D01*
X174460925Y-97512308D01*
X174404245Y-97690035D01*
X174380239Y-97894662D01*
X174377236Y-98030393D01*
X174389165Y-98232698D01*
X174432398Y-98400268D01*
X174486995Y-98522353D01*
X174597294Y-98695545D01*
X174734603Y-98817299D01*
X174914781Y-98896141D01*
X175153682Y-98940597D01*
X175285410Y-98951709D01*
X175635577Y-98973555D01*
X175790148Y-98809194D01*
X175893362Y-98688710D01*
X176015382Y-98530822D01*
X176129797Y-98369707D01*
X176129824Y-98369667D01*
X176225315Y-98220529D01*
X176284115Y-98100387D01*
X176318173Y-97974724D01*
X176339434Y-97809025D01*
X176344948Y-97748145D01*
X176374966Y-97401791D01*
X176225703Y-97206306D01*
X176079619Y-97031531D01*
X175945863Y-96915999D01*
X175799986Y-96842691D01*
X175641006Y-96799350D01*
X175471356Y-96756214D01*
X175379094Y-96714588D01*
X175366863Y-96676115D01*
X175405381Y-96652681D01*
X175507284Y-96643998D01*
X175654187Y-96665902D01*
X175815618Y-96710606D01*
X175961108Y-96770322D01*
X176031656Y-96812730D01*
X176125315Y-96897341D01*
X176239762Y-97021878D01*
X176331834Y-97135688D01*
X176504482Y-97364359D01*
X176474853Y-97768001D01*
X176458528Y-97961511D01*
X176437863Y-98097801D01*
X176404398Y-98204214D01*
X176349674Y-98308097D01*
X176270252Y-98429405D01*
X175992388Y-98798849D01*
X175781560Y-99031775D01*
X175711948Y-99059477D01*
X175581655Y-99077561D01*
X175414174Y-99085546D01*
X175232995Y-99082952D01*
X175061610Y-99069297D01*
X174942497Y-99048950D01*
X174697151Y-98948689D01*
X174491908Y-98781093D01*
X174341353Y-98559557D01*
X174299629Y-98458600D01*
X174270408Y-98316137D01*
X174255574Y-98120920D01*
X174254823Y-97903576D01*
X174267855Y-97694733D01*
X174294367Y-97525018D01*
X174309348Y-97473056D01*
X174376203Y-97340116D01*
X174488122Y-97171874D01*
X174627804Y-96990294D01*
X174777951Y-96817341D01*
X174921265Y-96674980D01*
X174971031Y-96632920D01*
X175123395Y-96537187D01*
X175249389Y-96514473D01*
X175251313Y-96514691D01*
G37*
X175251313Y-96514691D02*
X175340258Y-96541841D01*
X175382678Y-96584095D01*
X175369044Y-96621327D01*
X175307813Y-96634000D01*
X175190487Y-96664373D01*
X175052149Y-96758430D01*
X174887485Y-96920579D01*
X174713440Y-97127050D01*
X174560563Y-97333855D01*
X174460925Y-97512308D01*
X174404245Y-97690035D01*
X174380239Y-97894662D01*
X174377236Y-98030393D01*
X174389165Y-98232698D01*
X174432398Y-98400268D01*
X174486995Y-98522353D01*
X174597294Y-98695545D01*
X174734603Y-98817299D01*
X174914781Y-98896141D01*
X175153682Y-98940597D01*
X175285410Y-98951709D01*
X175635577Y-98973555D01*
X175790148Y-98809194D01*
X175893362Y-98688710D01*
X176015382Y-98530822D01*
X176129797Y-98369707D01*
X176129824Y-98369667D01*
X176225315Y-98220529D01*
X176284115Y-98100387D01*
X176318173Y-97974724D01*
X176339434Y-97809025D01*
X176344948Y-97748145D01*
X176374966Y-97401791D01*
X176225703Y-97206306D01*
X176079619Y-97031531D01*
X175945863Y-96915999D01*
X175799986Y-96842691D01*
X175641006Y-96799350D01*
X175471356Y-96756214D01*
X175379094Y-96714588D01*
X175366863Y-96676115D01*
X175405381Y-96652681D01*
X175507284Y-96643998D01*
X175654187Y-96665902D01*
X175815618Y-96710606D01*
X175961108Y-96770322D01*
X176031656Y-96812730D01*
X176125315Y-96897341D01*
X176239762Y-97021878D01*
X176331834Y-97135688D01*
X176504482Y-97364359D01*
X176474853Y-97768001D01*
X176458528Y-97961511D01*
X176437863Y-98097801D01*
X176404398Y-98204214D01*
X176349674Y-98308097D01*
X176270252Y-98429405D01*
X175992388Y-98798849D01*
X175781560Y-99031775D01*
X175711948Y-99059477D01*
X175581655Y-99077561D01*
X175414174Y-99085546D01*
X175232995Y-99082952D01*
X175061610Y-99069297D01*
X174942497Y-99048950D01*
X174697151Y-98948689D01*
X174491908Y-98781093D01*
X174341353Y-98559557D01*
X174299629Y-98458600D01*
X174270408Y-98316137D01*
X174255574Y-98120920D01*
X174254823Y-97903576D01*
X174267855Y-97694733D01*
X174294367Y-97525018D01*
X174309348Y-97473056D01*
X174376203Y-97340116D01*
X174488122Y-97171874D01*
X174627804Y-96990294D01*
X174777951Y-96817341D01*
X174921265Y-96674980D01*
X174971031Y-96632920D01*
X175123395Y-96537187D01*
X175249389Y-96514473D01*
X175251313Y-96514691D01*
G36*
X180205887Y-95450891D02*
G01*
X180326394Y-95614611D01*
X180353769Y-95660334D01*
X180432547Y-95809769D01*
X180489912Y-95945008D01*
X180514321Y-96038538D01*
X180514505Y-96043450D01*
X180531401Y-96143103D01*
X180559645Y-96195711D01*
X180584376Y-96255376D01*
X180613070Y-96377524D01*
X180641006Y-96540418D01*
X180652129Y-96621673D01*
X180700302Y-97003323D01*
X180893568Y-96922566D01*
X181026655Y-96863813D01*
X181138718Y-96809052D01*
X181171500Y-96790846D01*
X181252732Y-96768441D01*
X181412053Y-96749763D01*
X181642946Y-96735358D01*
X181938894Y-96725771D01*
X181951256Y-96725511D01*
X182211426Y-96720811D01*
X182402209Y-96720061D01*
X182538850Y-96724678D01*
X182636592Y-96736080D01*
X182710678Y-96755684D01*
X182776351Y-96784908D01*
X182814806Y-96805819D01*
X182931601Y-96862676D01*
X183009293Y-96873011D01*
X183061058Y-96851916D01*
X183161345Y-96815562D01*
X183263178Y-96803333D01*
X183396961Y-96765191D01*
X183544030Y-96659943D01*
X183692615Y-96501359D01*
X183830946Y-96303207D01*
X183947254Y-96079257D01*
X184000893Y-95940266D01*
X184084197Y-95743535D01*
X184184786Y-95586143D01*
X184291037Y-95482957D01*
X184385279Y-95448667D01*
X184486240Y-95474391D01*
X184594927Y-95536544D01*
X184598259Y-95539134D01*
X184663945Y-95599020D01*
X184695474Y-95663508D01*
X184701532Y-95761979D01*
X184695240Y-95867217D01*
X184666567Y-96042706D01*
X184612224Y-96238941D01*
X184568758Y-96354381D01*
X184480042Y-96537688D01*
X184374410Y-96724432D01*
X184263268Y-96897615D01*
X184158021Y-97040240D01*
X184070075Y-97135311D01*
X184025256Y-97164355D01*
X183958847Y-97202422D01*
X183944334Y-97229520D01*
X183910586Y-97265754D01*
X183888458Y-97269000D01*
X183824115Y-97295394D01*
X183730598Y-97361438D01*
X183697451Y-97389646D01*
X183614788Y-97467567D01*
X183588114Y-97518571D01*
X183609856Y-97571669D01*
X183639418Y-97611896D01*
X183790726Y-97838038D01*
X183883099Y-98049520D01*
X183929048Y-98277114D01*
X183934584Y-98337917D01*
X183948332Y-98490024D01*
X183966246Y-98576019D01*
X183995769Y-98614391D01*
X184044344Y-98623632D01*
X184049595Y-98623667D01*
X184166358Y-98654925D01*
X184305447Y-98736509D01*
X184439581Y-98850135D01*
X184511941Y-98933528D01*
X184551591Y-98998340D01*
X184578796Y-99078463D01*
X184596606Y-99192024D01*
X184608076Y-99357154D01*
X184614934Y-99545204D01*
X184612359Y-99946593D01*
X184576899Y-100293506D01*
X184505371Y-100610749D01*
X184460315Y-100751169D01*
X184420389Y-100884479D01*
X184415747Y-100970959D01*
X184442308Y-101036344D01*
X184476615Y-101133099D01*
X184494098Y-101264202D01*
X184494667Y-101290092D01*
X184499371Y-101398810D01*
X184526544Y-101447225D01*
X184595776Y-101459652D01*
X184631554Y-101460000D01*
X184742018Y-101441628D01*
X184891467Y-101393858D01*
X185023137Y-101338160D01*
X185267237Y-101231037D01*
X185527684Y-101132733D01*
X185772140Y-101054730D01*
X185934000Y-101014751D01*
X186187015Y-100935880D01*
X186439851Y-100807063D01*
X186504622Y-100764566D01*
X186711655Y-100628902D01*
X186884435Y-100538374D01*
X187050780Y-100480536D01*
X187215454Y-100446550D01*
X187339623Y-100421982D01*
X187426087Y-100396439D01*
X187445780Y-100385665D01*
X187441425Y-100337308D01*
X187404767Y-100233878D01*
X187343133Y-100095122D01*
X187321784Y-100051397D01*
X187202523Y-99809734D01*
X187116189Y-99623272D01*
X187057466Y-99471675D01*
X187021037Y-99334609D01*
X187001583Y-99191738D01*
X186993788Y-99022725D01*
X186993371Y-98960876D01*
X187119151Y-98960876D01*
X187121132Y-99080777D01*
X187129073Y-99186110D01*
X187146769Y-99288147D01*
X187178014Y-99398159D01*
X187226605Y-99527417D01*
X187296335Y-99687193D01*
X187391001Y-99888757D01*
X187514397Y-100143381D01*
X187670319Y-100462336D01*
X187682046Y-100486334D01*
X187849835Y-100839625D01*
X187976343Y-101127999D01*
X188060577Y-101349052D01*
X188101546Y-101500383D01*
X188101862Y-101502334D01*
X188131401Y-101691417D01*
X188162306Y-101894974D01*
X188173126Y-101968000D01*
X188204871Y-102119448D01*
X188258561Y-102312966D01*
X188323915Y-102512330D01*
X188340627Y-102558186D01*
X188400720Y-102729161D01*
X188446753Y-102879106D01*
X188471595Y-102983974D01*
X188474000Y-103007866D01*
X188486803Y-103090972D01*
X188520702Y-103227396D01*
X188568928Y-103390507D01*
X188579834Y-103424405D01*
X188630207Y-103590491D01*
X188667572Y-103736115D01*
X188685130Y-103834222D01*
X188685667Y-103845639D01*
X188703686Y-103932335D01*
X188750815Y-104064588D01*
X188813581Y-104206727D01*
X188890195Y-104352371D01*
X188948797Y-104430107D01*
X188999341Y-104451945D01*
X189014665Y-104449320D01*
X189103678Y-104427933D01*
X189228598Y-104402933D01*
X189252190Y-104398661D01*
X189351019Y-104375312D01*
X189373418Y-104351272D01*
X189350615Y-104332577D01*
X189288032Y-104265132D01*
X189238574Y-104158520D01*
X189212597Y-104046036D01*
X189220456Y-103960975D01*
X189230459Y-103946274D01*
X189273378Y-103938335D01*
X189323492Y-104003390D01*
X189344580Y-104045422D01*
X189420253Y-104206749D01*
X189474914Y-104306421D01*
X189527167Y-104357611D01*
X189595613Y-104373491D01*
X189698855Y-104367233D01*
X189786334Y-104358224D01*
X189957717Y-104338336D01*
X190118211Y-104314615D01*
X190209667Y-104297197D01*
X190325060Y-104273603D01*
X190490106Y-104243369D01*
X190670770Y-104212707D01*
X190685917Y-104210255D01*
X191014000Y-104157357D01*
X191013739Y-103792928D01*
X191005052Y-103563778D01*
X190980566Y-103393202D01*
X190953906Y-103314311D01*
X190898782Y-103183125D01*
X190830837Y-102979264D01*
X190753228Y-102713198D01*
X190669107Y-102395398D01*
X190631161Y-102243167D01*
X190583032Y-102061053D01*
X190515710Y-101825654D01*
X190437148Y-101563881D01*
X190355296Y-101302646D01*
X190331989Y-101230557D01*
X190258551Y-101001443D01*
X190193070Y-100790101D01*
X190140931Y-100614445D01*
X190107521Y-100492394D01*
X190099603Y-100457506D01*
X190071396Y-100354865D01*
X190038361Y-100294950D01*
X190035534Y-100292868D01*
X190000881Y-100234599D01*
X189998000Y-100209923D01*
X189981241Y-100141246D01*
X189937824Y-100024641D01*
X189891250Y-99916797D01*
X189827970Y-99766327D01*
X189778105Y-99626089D01*
X189758782Y-99554828D01*
X189729699Y-99457099D01*
X189696199Y-99403454D01*
X189662174Y-99345614D01*
X189659334Y-99320923D01*
X189644931Y-99255359D01*
X189600309Y-99136341D01*
X189523346Y-98959075D01*
X189411921Y-98718768D01*
X189263913Y-98410627D01*
X189184181Y-98247277D01*
X188927141Y-97722720D01*
X188541820Y-97751566D01*
X188217465Y-97776353D01*
X187965413Y-97798760D01*
X187773537Y-97822730D01*
X187629711Y-97852209D01*
X187521807Y-97891141D01*
X187437700Y-97943469D01*
X187365262Y-98013139D01*
X187292366Y-98104093D01*
X187240136Y-98174935D01*
X187187436Y-98251357D01*
X187152814Y-98321792D01*
X187132483Y-98406306D01*
X187122658Y-98524968D01*
X187119551Y-98697845D01*
X187119334Y-98815137D01*
X187119151Y-98960876D01*
X186993371Y-98960876D01*
X186992335Y-98807237D01*
X186992334Y-98791420D01*
X186992334Y-98250270D01*
X187154634Y-98045385D01*
X187252958Y-97926044D01*
X187340084Y-97828434D01*
X187385654Y-97783905D01*
X187456653Y-97755681D01*
X187594478Y-97724737D01*
X187781436Y-97693370D01*
X187999834Y-97663877D01*
X188231980Y-97638555D01*
X188460181Y-97619701D01*
X188666744Y-97609612D01*
X188736314Y-97608553D01*
X189019795Y-97607667D01*
X189293832Y-98168584D01*
X189458755Y-98508761D01*
X189587101Y-98779625D01*
X189681428Y-98986941D01*
X189744293Y-99136474D01*
X189778255Y-99233990D01*
X189786334Y-99278590D01*
X189809047Y-99347771D01*
X189823199Y-99361121D01*
X189856881Y-99415206D01*
X189885782Y-99512495D01*
X189917877Y-99622636D01*
X189973275Y-99770029D01*
X190018250Y-99874463D01*
X190075494Y-100008990D01*
X190114238Y-100117993D01*
X190125000Y-100167590D01*
X190148151Y-100237058D01*
X190162534Y-100250534D01*
X190195270Y-100304498D01*
X190224555Y-100404728D01*
X190226603Y-100415173D01*
X190248834Y-100504309D01*
X190292440Y-100655855D01*
X190352036Y-100851895D01*
X190422236Y-101074513D01*
X190458989Y-101188223D01*
X190540308Y-101444244D01*
X190620656Y-101708638D01*
X190692083Y-101954493D01*
X190746634Y-102154897D01*
X190758203Y-102200834D01*
X190838487Y-102520796D01*
X190906194Y-102772071D01*
X190965566Y-102968950D01*
X191020851Y-103125724D01*
X191063403Y-103228323D01*
X191102352Y-103333986D01*
X191125116Y-103451424D01*
X191134314Y-103604028D01*
X191132562Y-103815190D01*
X191131888Y-103840346D01*
X191119834Y-104271545D01*
X190950500Y-104306896D01*
X190675654Y-104358743D01*
X190355289Y-104408398D01*
X189973932Y-104458146D01*
X189744000Y-104485081D01*
X189527636Y-104510694D01*
X189329805Y-104536032D01*
X189172397Y-104558169D01*
X189077355Y-104574169D01*
X188934763Y-104577297D01*
X188871527Y-104546482D01*
X188808371Y-104467799D01*
X188732417Y-104337334D01*
X188657051Y-104183268D01*
X188595662Y-104033779D01*
X188561639Y-103917047D01*
X188558667Y-103887973D01*
X188545826Y-103802456D01*
X188511836Y-103664075D01*
X188463494Y-103499887D01*
X188452834Y-103466738D01*
X188402484Y-103300935D01*
X188365126Y-103155884D01*
X188347546Y-103058493D01*
X188347000Y-103047137D01*
X188330173Y-102950661D01*
X188281942Y-102787254D01*
X188205684Y-102567176D01*
X188104776Y-102300689D01*
X188084104Y-102248202D01*
X188035799Y-102126237D01*
X187715150Y-102157419D01*
X187533576Y-102173871D01*
X187302554Y-102193088D01*
X187057115Y-102212219D01*
X186907667Y-102223170D01*
X186572874Y-102249500D01*
X186311760Y-102276661D01*
X186113347Y-102306854D01*
X185966660Y-102342284D01*
X185860720Y-102385152D01*
X185784552Y-102437662D01*
X185769957Y-102451468D01*
X185732127Y-102492313D01*
X185701751Y-102537637D01*
X185676944Y-102598181D01*
X185655821Y-102684688D01*
X185636497Y-102807898D01*
X185617085Y-102978552D01*
X185595702Y-103207393D01*
X185570461Y-103505161D01*
X185557602Y-103661334D01*
X185528541Y-103983919D01*
X185498496Y-104235332D01*
X185463929Y-104429029D01*
X185421302Y-104578466D01*
X185367077Y-104697098D01*
X185297715Y-104798382D01*
X185241782Y-104862415D01*
X185107845Y-104982062D01*
X184936342Y-105104350D01*
X184791000Y-105188579D01*
X184634647Y-105271068D01*
X184492567Y-105352444D01*
X184398353Y-105413153D01*
X184318479Y-105497419D01*
X184229870Y-105628221D01*
X184148531Y-105776691D01*
X184090468Y-105913960D01*
X184071334Y-106003028D01*
X184030667Y-106088669D01*
X183915075Y-106166138D01*
X183734171Y-106231940D01*
X183497566Y-106282582D01*
X183214873Y-106314570D01*
X183214084Y-106314626D01*
X182843667Y-106340866D01*
X182843667Y-106497106D01*
X182857534Y-106614648D01*
X182895348Y-106790384D01*
X182951429Y-107003194D01*
X183020099Y-107231959D01*
X183095677Y-107455558D01*
X183117042Y-107513667D01*
X183172640Y-107661834D01*
X183488424Y-107674079D01*
X183680367Y-107674941D01*
X183804848Y-107651086D01*
X183878223Y-107589740D01*
X183916852Y-107478130D01*
X183935351Y-107325081D01*
X183940129Y-107206429D01*
X183927491Y-107102577D01*
X183890465Y-106987883D01*
X183822079Y-106836704D01*
X183778682Y-106748869D01*
X183693090Y-106565034D01*
X183645746Y-106433761D01*
X183639711Y-106363868D01*
X183643209Y-106358525D01*
X183687883Y-106365506D01*
X183755721Y-106439793D01*
X183838979Y-106569868D01*
X183929914Y-106744211D01*
X183986804Y-106869604D01*
X184044663Y-107032806D01*
X184067303Y-107191149D01*
X184063864Y-107362534D01*
X184044108Y-107551554D01*
X184003696Y-107678794D01*
X183928148Y-107756189D01*
X183802983Y-107795676D01*
X183613720Y-107809191D01*
X183521000Y-107810000D01*
X183331159Y-107806632D01*
X183207160Y-107794409D01*
X183130370Y-107770153D01*
X183086676Y-107735917D01*
X183041265Y-107659578D01*
X182984972Y-107529264D01*
X182929655Y-107372556D01*
X182927434Y-107365500D01*
X182871140Y-107186736D01*
X182815480Y-107011611D01*
X182775652Y-106887771D01*
X182736997Y-106722721D01*
X182717305Y-106548323D01*
X182716667Y-106518844D01*
X182711084Y-106413544D01*
X182685092Y-106339774D01*
X182624822Y-106288908D01*
X182516408Y-106252322D01*
X182345982Y-106221390D01*
X182206891Y-106201781D01*
X181917461Y-106158347D01*
X181689850Y-106112568D01*
X181501289Y-106058427D01*
X181329009Y-105989906D01*
X181235000Y-105944942D01*
X181056342Y-105855367D01*
X180936509Y-105805011D01*
X180863767Y-105802350D01*
X180826383Y-105855859D01*
X180812624Y-105974014D01*
X180810754Y-106165290D01*
X180810737Y-106251397D01*
X180806771Y-106489146D01*
X180794338Y-106662338D01*
X180771023Y-106790870D01*
X180734412Y-106894634D01*
X180732049Y-106899834D01*
X180629463Y-107078435D01*
X180517580Y-107179285D01*
X180387443Y-107209301D01*
X180337305Y-107204576D01*
X180225144Y-107187187D01*
X180063589Y-107162939D01*
X179887057Y-107136996D01*
X179882184Y-107136288D01*
X179708827Y-107106627D01*
X179590425Y-107070445D01*
X179497479Y-107015190D01*
X179405934Y-106933640D01*
X179288871Y-106796140D01*
X179250697Y-106689244D01*
X179291397Y-106612859D01*
X179342323Y-106585696D01*
X179444832Y-106526808D01*
X179497850Y-106478288D01*
X179563740Y-106417585D01*
X179674479Y-106332585D01*
X179776934Y-106261365D01*
X180006280Y-106093114D01*
X180172121Y-105930865D01*
X180292168Y-105756698D01*
X180311353Y-105720602D01*
X180380295Y-105621420D01*
X180436985Y-105596813D01*
X180466921Y-105643169D01*
X180455686Y-105756556D01*
X180407534Y-105849118D01*
X180310143Y-105974034D01*
X180181416Y-106112084D01*
X180039259Y-106244046D01*
X179903346Y-106349500D01*
X179792123Y-106434187D01*
X179668117Y-106541134D01*
X179635414Y-106571750D01*
X179535787Y-106654279D01*
X179450165Y-106703382D01*
X179424279Y-106709334D01*
X179395148Y-106724926D01*
X179425520Y-106778064D01*
X179476594Y-106834691D01*
X179608539Y-106934432D01*
X179777085Y-106981694D01*
X179791430Y-106983530D01*
X179961298Y-107008928D01*
X180143550Y-107043135D01*
X180188421Y-107052885D01*
X180337056Y-107074889D01*
X180441276Y-107052006D01*
X180522554Y-106972005D01*
X180602359Y-106822657D01*
X180605779Y-106815167D01*
X180642389Y-106713206D01*
X180666041Y-106587182D01*
X180679028Y-106417679D01*
X180683642Y-106185282D01*
X180683737Y-106154740D01*
X180684667Y-105663646D01*
X180187250Y-105410003D01*
X179973832Y-105305499D01*
X179760888Y-105208680D01*
X179573156Y-105130361D01*
X179435834Y-105081494D01*
X179274243Y-105033806D01*
X179123938Y-104989354D01*
X179044931Y-104965922D01*
X178939029Y-104909928D01*
X178821461Y-104812308D01*
X178713424Y-104695649D01*
X178636117Y-104582535D01*
X178610334Y-104502879D01*
X178589004Y-104425036D01*
X178568000Y-104402167D01*
X178534397Y-104343404D01*
X178525667Y-104279464D01*
X178486795Y-104185324D01*
X178379024Y-104118662D01*
X178215617Y-104086524D01*
X178158906Y-104084667D01*
X178059875Y-104089652D01*
X178025054Y-104117619D01*
X178034058Y-104188084D01*
X178037308Y-104201084D01*
X178075547Y-104383070D01*
X178089993Y-104522003D01*
X178082928Y-104609699D01*
X178056639Y-104637975D01*
X178013408Y-104598646D01*
X177957282Y-104487760D01*
X177882029Y-104366168D01*
X177782566Y-104270258D01*
X177775250Y-104265510D01*
X177599154Y-104144593D01*
X177459066Y-104026353D01*
X177368454Y-103923496D01*
X177340335Y-103855167D01*
X177350478Y-103820084D01*
X177599244Y-103820084D01*
X177608556Y-103920961D01*
X177651201Y-103956893D01*
X177663017Y-103957667D01*
X177707181Y-103942288D01*
X177704338Y-103936500D01*
X178017667Y-103936500D01*
X178038834Y-103957667D01*
X178060000Y-103936500D01*
X178038834Y-103915334D01*
X178017667Y-103936500D01*
X177704338Y-103936500D01*
X177688739Y-103904750D01*
X177679138Y-103887111D01*
X178328111Y-103887111D01*
X178333922Y-103912278D01*
X178356334Y-103915334D01*
X178391179Y-103899844D01*
X178384556Y-103887111D01*
X178334316Y-103882045D01*
X178328111Y-103887111D01*
X177679138Y-103887111D01*
X177642245Y-103819333D01*
X177624966Y-103767167D01*
X177623248Y-103763663D01*
X178075869Y-103763663D01*
X178077754Y-103777865D01*
X178140634Y-103789777D01*
X178227448Y-103759277D01*
X178301810Y-103703370D01*
X178326145Y-103661797D01*
X178375033Y-103592670D01*
X178422094Y-103576667D01*
X178521765Y-103543551D01*
X178642290Y-103458006D01*
X178761859Y-103340736D01*
X178858664Y-103212444D01*
X178903948Y-103119238D01*
X178936431Y-102972937D01*
X178914883Y-102887486D01*
X178837653Y-102857212D01*
X178827593Y-102857000D01*
X178731522Y-102835409D01*
X178655851Y-102784116D01*
X178623240Y-102723337D01*
X178637092Y-102687041D01*
X178712222Y-102661315D01*
X178764092Y-102679636D01*
X178863813Y-102726576D01*
X178959584Y-102766871D01*
X179042460Y-102816955D01*
X179073395Y-102898633D01*
X179076000Y-102956756D01*
X179037271Y-103182921D01*
X178919282Y-103392782D01*
X178743616Y-103571407D01*
X178615155Y-103690983D01*
X178545019Y-103791802D01*
X178518154Y-103889695D01*
X178521567Y-104008765D01*
X178572379Y-104077473D01*
X178577031Y-104080482D01*
X178636443Y-104157019D01*
X178652667Y-104230694D01*
X178668328Y-104320188D01*
X178695000Y-104359834D01*
X178732841Y-104420601D01*
X178737334Y-104453586D01*
X178770686Y-104555223D01*
X178854852Y-104670496D01*
X178965995Y-104773097D01*
X179080277Y-104836716D01*
X179086116Y-104838543D01*
X179203575Y-104873320D01*
X179361561Y-104919877D01*
X179478167Y-104954135D01*
X179611193Y-105000432D01*
X179786902Y-105074620D01*
X180011938Y-105179869D01*
X180292944Y-105319355D01*
X180636563Y-105496251D01*
X180875167Y-105621461D01*
X181153417Y-105762788D01*
X181384120Y-105865795D01*
X181590121Y-105939211D01*
X181794263Y-105991764D01*
X181897157Y-106011936D01*
X182173709Y-106061441D01*
X182378812Y-106096882D01*
X182524271Y-106119591D01*
X182621892Y-106130902D01*
X182683481Y-106132149D01*
X182720842Y-106124666D01*
X182745782Y-106109787D01*
X182747916Y-106108052D01*
X182799626Y-106094304D01*
X182828737Y-106138821D01*
X182853277Y-106176045D01*
X182903212Y-106195060D01*
X182997345Y-106198449D01*
X183154474Y-106188797D01*
X183178488Y-106186882D01*
X183370693Y-106163167D01*
X183561573Y-106126322D01*
X183704969Y-106085877D01*
X183838924Y-106026411D01*
X183917009Y-105957336D01*
X183964030Y-105862667D01*
X184042896Y-105658047D01*
X184118333Y-105504831D01*
X184206390Y-105385670D01*
X184323115Y-105283218D01*
X184484557Y-105180126D01*
X184706765Y-105059045D01*
X184708116Y-105058334D01*
X184875099Y-104956959D01*
X185035096Y-104837597D01*
X185145865Y-104733904D01*
X185218225Y-104642337D01*
X185274929Y-104541851D01*
X185319377Y-104418793D01*
X185354969Y-104259512D01*
X185385105Y-104050354D01*
X185413186Y-103777667D01*
X185428805Y-103597834D01*
X185456950Y-103263135D01*
X185480207Y-103002069D01*
X185500603Y-102803886D01*
X185520160Y-102657833D01*
X185540903Y-102553161D01*
X185564856Y-102479118D01*
X185594044Y-102424953D01*
X185630489Y-102379914D01*
X185664731Y-102344731D01*
X185731165Y-102287874D01*
X185811680Y-102242240D01*
X185917979Y-102205351D01*
X186061764Y-102174728D01*
X186254738Y-102147894D01*
X186508602Y-102122371D01*
X186835060Y-102095681D01*
X186844167Y-102094984D01*
X187190162Y-102067895D01*
X187460549Y-102045012D01*
X187664220Y-102025206D01*
X187810065Y-102007347D01*
X187906974Y-101990307D01*
X187963838Y-101972956D01*
X187989549Y-101954166D01*
X187992120Y-101949191D01*
X187992614Y-101877390D01*
X187970606Y-101746378D01*
X187931483Y-101576885D01*
X187880630Y-101389643D01*
X187823434Y-101205382D01*
X187765280Y-101044833D01*
X187744041Y-100994334D01*
X187678925Y-100846261D01*
X187621020Y-100712295D01*
X187593658Y-100647425D01*
X187553048Y-100573616D01*
X187494366Y-100547893D01*
X187385891Y-100556044D01*
X187117750Y-100612720D01*
X186881557Y-100709810D01*
X186704215Y-100815422D01*
X186556340Y-100903924D01*
X186384953Y-100993191D01*
X186212883Y-101072803D01*
X186062959Y-101132344D01*
X185958012Y-101161397D01*
X185943248Y-101162662D01*
X185852928Y-101179712D01*
X185707791Y-101223440D01*
X185530233Y-101285796D01*
X185342654Y-101358730D01*
X185167452Y-101434190D01*
X185103000Y-101464674D01*
X184932508Y-101539352D01*
X184792497Y-101574800D01*
X184643960Y-101580164D01*
X184616167Y-101578805D01*
X184388834Y-101565834D01*
X184375931Y-101364750D01*
X184358212Y-101231021D01*
X184329997Y-101170971D01*
X184296099Y-101188314D01*
X184263493Y-101277959D01*
X184227067Y-101374425D01*
X184161102Y-101510643D01*
X184092350Y-101635317D01*
X183949893Y-101878384D01*
X184084697Y-101891442D01*
X184183180Y-101915246D01*
X184218306Y-101969697D01*
X184219500Y-101989167D01*
X184196464Y-102050840D01*
X184116623Y-102101791D01*
X184018639Y-102137334D01*
X183903316Y-102178789D01*
X183830564Y-102214547D01*
X183817556Y-102228309D01*
X183855085Y-102270172D01*
X183958486Y-102331768D01*
X184113255Y-102406218D01*
X184304888Y-102486638D01*
X184518884Y-102566148D01*
X184557679Y-102579499D01*
X184763782Y-102655929D01*
X184892369Y-102719425D01*
X184949095Y-102772902D01*
X184952366Y-102782917D01*
X184936369Y-102844282D01*
X184883230Y-102857000D01*
X184801690Y-102869129D01*
X184668894Y-102900885D01*
X184517832Y-102944128D01*
X184284049Y-103040770D01*
X184096086Y-103167340D01*
X183965781Y-103313001D01*
X183904969Y-103466912D01*
X183902000Y-103507983D01*
X183919788Y-103621742D01*
X183962862Y-103701355D01*
X183965500Y-103703667D01*
X184023798Y-103787128D01*
X183999578Y-103876573D01*
X183948526Y-103932706D01*
X183885072Y-104024513D01*
X183841539Y-104147181D01*
X183840279Y-104153573D01*
X183799064Y-104260010D01*
X183739632Y-104289484D01*
X183676534Y-104243101D01*
X183628662Y-104137495D01*
X183594843Y-104044953D01*
X183565761Y-104000652D01*
X183563132Y-104000000D01*
X183534003Y-104035612D01*
X183485497Y-104126531D01*
X183428214Y-104248882D01*
X183372752Y-104378791D01*
X183329713Y-104492381D01*
X183309696Y-104565779D01*
X183309334Y-104571654D01*
X183289237Y-104632927D01*
X183277584Y-104642056D01*
X183240584Y-104685327D01*
X183184446Y-104777910D01*
X183159102Y-104825500D01*
X183075679Y-104949163D01*
X182994008Y-104994711D01*
X182989768Y-104994834D01*
X182954396Y-104989628D01*
X182931391Y-104964470D01*
X182918637Y-104905050D01*
X182914020Y-104797057D01*
X182915426Y-104626180D01*
X182917828Y-104508000D01*
X182921377Y-104300977D01*
X182920255Y-104167411D01*
X182913069Y-104096156D01*
X182898428Y-104076065D01*
X182874938Y-104095992D01*
X182867582Y-104105834D01*
X182722269Y-104300722D01*
X182611578Y-104428337D01*
X182526418Y-104493912D01*
X182457696Y-104502684D01*
X182396322Y-104459886D01*
X182352941Y-104402167D01*
X182254236Y-104315035D01*
X182132838Y-104304430D01*
X182007042Y-104370417D01*
X181903102Y-104457983D01*
X181827877Y-104521042D01*
X181719028Y-104584401D01*
X181640299Y-104568874D01*
X181593367Y-104475320D01*
X181581999Y-104394971D01*
X181539267Y-104206343D01*
X181440922Y-104080178D01*
X181283355Y-104013279D01*
X181136456Y-104000000D01*
X180877282Y-104035297D01*
X180614214Y-104131760D01*
X180382053Y-104275252D01*
X180314635Y-104333876D01*
X180223289Y-104413681D01*
X180153695Y-104460516D01*
X180137217Y-104465667D01*
X180077725Y-104436013D01*
X180071979Y-104366226D01*
X180110930Y-104298806D01*
X180166509Y-104198540D01*
X180189160Y-104100390D01*
X180185307Y-104016334D01*
X180141112Y-103978791D01*
X180056500Y-103965288D01*
X179925185Y-103976746D01*
X179861838Y-104024672D01*
X179796588Y-104067725D01*
X179734349Y-104052161D01*
X179711000Y-103995788D01*
X179734135Y-103935808D01*
X179790327Y-103846420D01*
X179795335Y-103839536D01*
X179860073Y-103715921D01*
X179901110Y-103568502D01*
X179914924Y-103424706D01*
X179897993Y-103311955D01*
X179868693Y-103268197D01*
X179830704Y-103219599D01*
X179821789Y-103140266D01*
X179839036Y-103005167D01*
X179860939Y-102833075D01*
X179875197Y-102637738D01*
X179877810Y-102551412D01*
X179872036Y-102406643D01*
X179848129Y-102338701D01*
X179801938Y-102347776D01*
X179729310Y-102434056D01*
X179647500Y-102561915D01*
X179560695Y-102681839D01*
X179482980Y-102748419D01*
X179425913Y-102756785D01*
X179401055Y-102702070D01*
X179402302Y-102665179D01*
X179443072Y-102449570D01*
X179501291Y-102254237D01*
X179649281Y-102254237D01*
X179651583Y-102287363D01*
X179686764Y-102264790D01*
X179709643Y-102244395D01*
X179809554Y-102193559D01*
X179887426Y-102186848D01*
X179931109Y-102196591D01*
X179959537Y-102221265D01*
X179975984Y-102276304D01*
X179983723Y-102377142D01*
X179986029Y-102539214D01*
X179986167Y-102652380D01*
X179988982Y-102840560D01*
X179996595Y-102996663D01*
X180007757Y-103101674D01*
X180017917Y-103135685D01*
X180039739Y-103201217D01*
X180048436Y-103321633D01*
X180044399Y-103468235D01*
X180028022Y-103612329D01*
X180010289Y-103693363D01*
X179989060Y-103786179D01*
X180007199Y-103823681D01*
X180076572Y-103830667D01*
X180223542Y-103856905D01*
X180318148Y-103928557D01*
X180346000Y-104017771D01*
X180346000Y-104117229D01*
X180581365Y-103995115D01*
X180736274Y-103924095D01*
X180877857Y-103886794D01*
X181047938Y-103873659D01*
X181116116Y-103873000D01*
X181275402Y-103875446D01*
X181377883Y-103889132D01*
X181451406Y-103923584D01*
X181523816Y-103988327D01*
X181558085Y-104024181D01*
X181647056Y-104139824D01*
X181696258Y-104246986D01*
X181700667Y-104278181D01*
X181713155Y-104358840D01*
X181756247Y-104372309D01*
X181838390Y-104318452D01*
X181887166Y-104275167D01*
X182034203Y-104188614D01*
X182197962Y-104169872D01*
X182351622Y-104219608D01*
X182407884Y-104262189D01*
X182506724Y-104355045D01*
X182579404Y-104251606D01*
X182645879Y-104155301D01*
X182733359Y-104026483D01*
X182779626Y-103957667D01*
X182871264Y-103831269D01*
X182938496Y-103768265D01*
X182984604Y-103772739D01*
X183012869Y-103848770D01*
X183026574Y-104000443D01*
X183028999Y-104231837D01*
X183028663Y-104267432D01*
X183026821Y-104478271D01*
X183028079Y-104615177D01*
X183034308Y-104688872D01*
X183047384Y-104710081D01*
X183069179Y-104689526D01*
X183095234Y-104648432D01*
X183145903Y-104550561D01*
X183212562Y-104403266D01*
X183281732Y-104236493D01*
X183289233Y-104217434D01*
X183383070Y-104014480D01*
X183475661Y-103884657D01*
X183563434Y-103831105D01*
X183642816Y-103856963D01*
X183667600Y-103884865D01*
X183712691Y-103933211D01*
X183754800Y-103916754D01*
X183787821Y-103882223D01*
X183831001Y-103795956D01*
X183815840Y-103745033D01*
X183775741Y-103615991D01*
X183778922Y-103451611D01*
X183821393Y-103286794D01*
X183880658Y-103178493D01*
X183971082Y-103092746D01*
X184110676Y-102995201D01*
X184273587Y-102900335D01*
X184433964Y-102822625D01*
X184565954Y-102776548D01*
X184610193Y-102769956D01*
X184613189Y-102757435D01*
X184549055Y-102726888D01*
X184431665Y-102684918D01*
X184431167Y-102684755D01*
X184138192Y-102571877D01*
X183906743Y-102446069D01*
X183744783Y-102312479D01*
X183664882Y-102189493D01*
X183629145Y-102198912D01*
X183547762Y-102237040D01*
X183537882Y-102242149D01*
X183436337Y-102270973D01*
X183270855Y-102291735D01*
X183061815Y-102304102D01*
X182829592Y-102307737D01*
X182594565Y-102302306D01*
X182377111Y-102287473D01*
X182203862Y-102264089D01*
X181869636Y-102187606D01*
X181489725Y-102077267D01*
X181091278Y-101942380D01*
X180701446Y-101792253D01*
X180347381Y-101636194D01*
X180286981Y-101606930D01*
X180079794Y-101504840D01*
X179959573Y-101641170D01*
X179885158Y-101733779D01*
X179842538Y-101802726D01*
X179838676Y-101816500D01*
X179812687Y-101877140D01*
X179778708Y-101922333D01*
X179728936Y-102006319D01*
X179682194Y-102127757D01*
X179675008Y-102152547D01*
X179649281Y-102254237D01*
X179501291Y-102254237D01*
X179517610Y-102199488D01*
X179613424Y-101949820D01*
X179718020Y-101735454D01*
X179759732Y-101667084D01*
X179928863Y-101412453D01*
X179912657Y-101396500D01*
X180146017Y-101396500D01*
X180341258Y-101489010D01*
X180683080Y-101640056D01*
X181057624Y-101786912D01*
X181439958Y-101920979D01*
X181805150Y-102033658D01*
X182128269Y-102116349D01*
X182208667Y-102133125D01*
X182353654Y-102152531D01*
X182544447Y-102165788D01*
X182759084Y-102172804D01*
X182975601Y-102173486D01*
X183172036Y-102167743D01*
X183326424Y-102155483D01*
X183412931Y-102138183D01*
X183508920Y-102068554D01*
X183567427Y-101979433D01*
X183622070Y-101850229D01*
X183672740Y-101742319D01*
X183722950Y-101619406D01*
X183716563Y-101543949D01*
X183648062Y-101495883D01*
X183600428Y-101479338D01*
X183493519Y-101420197D01*
X183395832Y-101303011D01*
X183350782Y-101227605D01*
X183250712Y-101079676D01*
X183156031Y-101000863D01*
X183133771Y-100993085D01*
X183067523Y-100962328D01*
X183034106Y-100893855D01*
X183021149Y-100791563D01*
X182998925Y-100663663D01*
X182955760Y-100614228D01*
X182947066Y-100613334D01*
X182892286Y-100591386D01*
X182886000Y-100574101D01*
X182847349Y-100514142D01*
X182746120Y-100458854D01*
X182604403Y-100413120D01*
X182444288Y-100381820D01*
X182287863Y-100369837D01*
X182157218Y-100382053D01*
X182103692Y-100401207D01*
X181994859Y-100434459D01*
X181915157Y-100432473D01*
X181835251Y-100429708D01*
X181804044Y-100447974D01*
X181743905Y-100477635D01*
X181637928Y-100485742D01*
X181521634Y-100474179D01*
X181430542Y-100444830D01*
X181407755Y-100426956D01*
X181337308Y-100387138D01*
X181219533Y-100358263D01*
X181171706Y-100352724D01*
X181058256Y-100350557D01*
X181019032Y-100366948D01*
X181025302Y-100378235D01*
X181063147Y-100433779D01*
X181035941Y-100464897D01*
X180937780Y-100473528D01*
X180769334Y-100462260D01*
X180473000Y-100433060D01*
X180473000Y-100563942D01*
X180454583Y-100692690D01*
X180406692Y-100864215D01*
X180340367Y-101046949D01*
X180266648Y-101209325D01*
X180218852Y-101290667D01*
X180146017Y-101396500D01*
X179912657Y-101396500D01*
X179717165Y-101204068D01*
X179606350Y-101086874D01*
X179520410Y-100981027D01*
X179478381Y-100910342D01*
X179440402Y-100845887D01*
X179396080Y-100823353D01*
X179372511Y-100855352D01*
X179372334Y-100860983D01*
X179336340Y-100894301D01*
X179241884Y-100947354D01*
X179109249Y-101008776D01*
X179106423Y-101009979D01*
X178835555Y-101151701D01*
X178633539Y-101322505D01*
X178485941Y-101536235D01*
X178429864Y-101658942D01*
X178383766Y-101813589D01*
X178341242Y-102027029D01*
X178305951Y-102273387D01*
X178281556Y-102526789D01*
X178271716Y-102761362D01*
X178271667Y-102777071D01*
X178259170Y-102932173D01*
X178225990Y-103130715D01*
X178178591Y-103335939D01*
X178164392Y-103387045D01*
X178119337Y-103551936D01*
X178088405Y-103683901D01*
X178075869Y-103763663D01*
X177623248Y-103763663D01*
X177609888Y-103736417D01*
X177600731Y-103789347D01*
X177599244Y-103820084D01*
X177350478Y-103820084D01*
X177367745Y-103760361D01*
X177410105Y-103696737D01*
X177457311Y-103610679D01*
X177474690Y-103555500D01*
X177806000Y-103555500D01*
X177827167Y-103576667D01*
X177848334Y-103555500D01*
X177827167Y-103534334D01*
X177806000Y-103555500D01*
X177474690Y-103555500D01*
X177498963Y-103478437D01*
X177514198Y-103402528D01*
X177528505Y-103264585D01*
X177517026Y-103145350D01*
X177474008Y-103006901D01*
X177441895Y-102925958D01*
X177379852Y-102742182D01*
X177315079Y-102491794D01*
X177251418Y-102192594D01*
X177192712Y-101862380D01*
X177150017Y-101573892D01*
X177129863Y-101452174D01*
X177102373Y-101394359D01*
X177052470Y-101380038D01*
X177009278Y-101383392D01*
X176934166Y-101405392D01*
X176886065Y-101464898D01*
X176846424Y-101585031D01*
X176845907Y-101587000D01*
X176774559Y-101848511D01*
X176707497Y-102074229D01*
X176648793Y-102251630D01*
X176602519Y-102368193D01*
X176579127Y-102407473D01*
X176525347Y-102427579D01*
X176472513Y-102374217D01*
X176417294Y-102242952D01*
X176390445Y-102156118D01*
X176348667Y-102014981D01*
X176291997Y-101828357D01*
X176231151Y-101631457D01*
X176217247Y-101587000D01*
X176146051Y-101346146D01*
X176079210Y-101094992D01*
X176021178Y-100852904D01*
X175977000Y-100642073D01*
X176119339Y-100642073D01*
X176136708Y-100759602D01*
X176171861Y-100924215D01*
X176220277Y-101119928D01*
X176277435Y-101330757D01*
X176338814Y-101540717D01*
X176399892Y-101733824D01*
X176456147Y-101894093D01*
X176503059Y-102005539D01*
X176536106Y-102052179D01*
X176538680Y-102052667D01*
X176566631Y-102015911D01*
X176602861Y-101923206D01*
X176618078Y-101872750D01*
X176661718Y-101711653D01*
X176704194Y-101548619D01*
X176710110Y-101525167D01*
X176759786Y-101371945D01*
X176823258Y-101286466D01*
X176916985Y-101251846D01*
X176979999Y-101248334D01*
X177117298Y-101248334D01*
X177082493Y-101068417D01*
X177060706Y-100952188D01*
X177047452Y-100874609D01*
X177045844Y-100861992D01*
X177006595Y-100843973D01*
X176907768Y-100826126D01*
X176821750Y-100816860D01*
X176742546Y-100801996D01*
X177183383Y-100801996D01*
X177194558Y-100909692D01*
X177213696Y-101021940D01*
X177244848Y-101204210D01*
X177270301Y-101393534D01*
X177279014Y-101481167D01*
X177292692Y-101611100D01*
X177314927Y-101777448D01*
X177342707Y-101962284D01*
X177373017Y-102147683D01*
X177402843Y-102315719D01*
X177429171Y-102448465D01*
X177448986Y-102527996D01*
X177457445Y-102542333D01*
X177459755Y-102496375D01*
X177453609Y-102384598D01*
X177440253Y-102225293D01*
X177426565Y-102088548D01*
X177379315Y-101665798D01*
X177336212Y-101325472D01*
X177296878Y-101065449D01*
X177260934Y-100883607D01*
X177228002Y-100777826D01*
X177197703Y-100745982D01*
X177188071Y-100751485D01*
X177183383Y-100801996D01*
X176742546Y-100801996D01*
X176647116Y-100784087D01*
X176456799Y-100721555D01*
X176371391Y-100683422D01*
X176248082Y-100625692D01*
X176157922Y-100591578D01*
X176124276Y-100587614D01*
X176119339Y-100642073D01*
X175977000Y-100642073D01*
X175976407Y-100639247D01*
X175949350Y-100473383D01*
X175943334Y-100395726D01*
X175959998Y-100287436D01*
X176006947Y-100257638D01*
X176079614Y-100308002D01*
X176104125Y-100336923D01*
X176216086Y-100437324D01*
X176381602Y-100537435D01*
X176570801Y-100622526D01*
X176753811Y-100677865D01*
X176816264Y-100688114D01*
X176996601Y-100708440D01*
X177004006Y-100592167D01*
X177128667Y-100592167D01*
X177149834Y-100613334D01*
X177171000Y-100592167D01*
X177149834Y-100571000D01*
X177128667Y-100592167D01*
X177004006Y-100592167D01*
X177009717Y-100502518D01*
X177033285Y-100357334D01*
X177077042Y-100289059D01*
X177135906Y-100293793D01*
X177204796Y-100367637D01*
X177278631Y-100506693D01*
X177352330Y-100707061D01*
X177374822Y-100782667D01*
X177414888Y-100961954D01*
X177456009Y-101217025D01*
X177496985Y-101539027D01*
X177536616Y-101919107D01*
X177552666Y-102095000D01*
X177575198Y-102325836D01*
X177601229Y-102551841D01*
X177627370Y-102745533D01*
X177648114Y-102869132D01*
X177676822Y-102999994D01*
X177698315Y-103057211D01*
X177718357Y-103050806D01*
X177733327Y-103017299D01*
X177764435Y-102951044D01*
X177796155Y-102959324D01*
X177824733Y-102995356D01*
X177862384Y-103080026D01*
X177896128Y-103211334D01*
X177908761Y-103287294D01*
X177931428Y-103405117D01*
X177957995Y-103465556D01*
X177974332Y-103466438D01*
X178014094Y-103390196D01*
X178056075Y-103253805D01*
X178095120Y-103081464D01*
X178126075Y-102897369D01*
X178143784Y-102725718D01*
X178146052Y-102660390D01*
X178162243Y-102336051D01*
X178203862Y-102006544D01*
X178265662Y-101709216D01*
X178293250Y-101612739D01*
X178417048Y-101357115D01*
X178612809Y-101136102D01*
X178871660Y-100959143D01*
X178939114Y-100925700D01*
X179079625Y-100856014D01*
X179196320Y-100790396D01*
X179252994Y-100751540D01*
X179295425Y-100705426D01*
X179296745Y-100654419D01*
X179255390Y-100567907D01*
X179242411Y-100544630D01*
X179200855Y-100422759D01*
X179172610Y-100245077D01*
X179158113Y-100036757D01*
X179158049Y-99992017D01*
X179286664Y-99992017D01*
X179295371Y-100191121D01*
X179318780Y-100364433D01*
X179354267Y-100479829D01*
X179424090Y-100575721D01*
X179499453Y-100613332D01*
X179499936Y-100613334D01*
X179579033Y-100635368D01*
X179616593Y-100684232D01*
X179593847Y-100734070D01*
X179589604Y-100736870D01*
X179579141Y-100787055D01*
X179616338Y-100876904D01*
X179688286Y-100986922D01*
X179782081Y-101097611D01*
X179884813Y-101189474D01*
X179893289Y-101195608D01*
X180027847Y-101291050D01*
X180101296Y-101195608D01*
X180181529Y-101052258D01*
X180252724Y-100855974D01*
X180306054Y-100638489D01*
X180332693Y-100431537D01*
X180333911Y-100359334D01*
X180339380Y-100180128D01*
X180365538Y-100070179D01*
X180410567Y-100035241D01*
X180433592Y-100043641D01*
X180461953Y-100099443D01*
X180473000Y-100192499D01*
X180480267Y-100273237D01*
X180518445Y-100308494D01*
X180612098Y-100316901D01*
X180637150Y-100317000D01*
X180761131Y-100301235D01*
X180846372Y-100261562D01*
X180853091Y-100254596D01*
X180924367Y-100222874D01*
X181048025Y-100211395D01*
X181194809Y-100217969D01*
X181335458Y-100240410D01*
X181440713Y-100276530D01*
X181472500Y-100300909D01*
X181562377Y-100354070D01*
X181672499Y-100340416D01*
X181764477Y-100274324D01*
X181826509Y-100217654D01*
X181875729Y-100223902D01*
X181915002Y-100255915D01*
X181980437Y-100296898D01*
X182019948Y-100271786D01*
X182077096Y-100247811D01*
X182193600Y-100238039D01*
X182345628Y-100240911D01*
X182509348Y-100254871D01*
X182660928Y-100278359D01*
X182776538Y-100309819D01*
X182805362Y-100323131D01*
X182942596Y-100415412D01*
X183056125Y-100518543D01*
X183126527Y-100613050D01*
X183140000Y-100658650D01*
X183175568Y-100726363D01*
X183224667Y-100752600D01*
X183294015Y-100803523D01*
X183310275Y-100852787D01*
X183336083Y-100940798D01*
X183394000Y-101036667D01*
X183452591Y-101124752D01*
X183477719Y-101188599D01*
X183477726Y-101188856D01*
X183515576Y-101266879D01*
X183603535Y-101333532D01*
X183707851Y-101365805D01*
X183736726Y-101365407D01*
X183803839Y-101368321D01*
X183836686Y-101411599D01*
X183851873Y-101517298D01*
X183851972Y-101518495D01*
X183849857Y-101635792D01*
X183827591Y-101718174D01*
X183820222Y-101728045D01*
X183778997Y-101792625D01*
X183775000Y-101812843D01*
X183792242Y-101823389D01*
X183837539Y-101772847D01*
X183901244Y-101675940D01*
X183973713Y-101547390D01*
X184045300Y-101401920D01*
X184047763Y-101396500D01*
X184113940Y-101250805D01*
X184170942Y-101125972D01*
X184202348Y-101057834D01*
X184233536Y-100978985D01*
X184281254Y-100844811D01*
X184336539Y-100680724D01*
X184351629Y-100634500D01*
X184409200Y-100411970D01*
X184452955Y-100153675D01*
X184481732Y-99880306D01*
X184494372Y-99612554D01*
X184489713Y-99371113D01*
X184466596Y-99176672D01*
X184438837Y-99079677D01*
X184379799Y-98982092D01*
X184294857Y-98891228D01*
X184199200Y-98815963D01*
X184108015Y-98765176D01*
X184036490Y-98747744D01*
X183999812Y-98772544D01*
X184004874Y-98826008D01*
X184007350Y-98845788D01*
X183995582Y-98861661D01*
X183961573Y-98873968D01*
X183897327Y-98883050D01*
X183794850Y-98889250D01*
X183646144Y-98892908D01*
X183443215Y-98894367D01*
X183178067Y-98893967D01*
X182842703Y-98892051D01*
X182515476Y-98889633D01*
X182143948Y-98885455D01*
X181780584Y-98878946D01*
X181438742Y-98870522D01*
X181131778Y-98860599D01*
X180873050Y-98849595D01*
X180675914Y-98837925D01*
X180578834Y-98829255D01*
X180389792Y-98807890D01*
X180225497Y-98789987D01*
X180108740Y-98777996D01*
X180070834Y-98774648D01*
X180002532Y-98800415D01*
X179896253Y-98872857D01*
X179770527Y-98975603D01*
X179643888Y-99092281D01*
X179534869Y-99206522D01*
X179462002Y-99301952D01*
X179451026Y-99322167D01*
X179398648Y-99424683D01*
X179349973Y-99512667D01*
X179313844Y-99625519D01*
X179292781Y-99794393D01*
X179286664Y-99992017D01*
X179158049Y-99992017D01*
X179157803Y-99822969D01*
X179172118Y-99628885D01*
X179201496Y-99479676D01*
X179222973Y-99428000D01*
X179283787Y-99316409D01*
X179323509Y-99236453D01*
X179370728Y-99170705D01*
X179464460Y-99065787D01*
X179588467Y-98939370D01*
X179658358Y-98872102D01*
X179796208Y-98739638D01*
X179883127Y-98644734D01*
X180113167Y-98644734D01*
X180324834Y-98679737D01*
X180415826Y-98688669D01*
X180580304Y-98698476D01*
X180807098Y-98708742D01*
X181085038Y-98719047D01*
X181402952Y-98728976D01*
X181749671Y-98738110D01*
X182081667Y-98745396D01*
X182439824Y-98752668D01*
X182774956Y-98759789D01*
X183076724Y-98766515D01*
X183334793Y-98772603D01*
X183538825Y-98777809D01*
X183678482Y-98781890D01*
X183742440Y-98784527D01*
X183811457Y-98785197D01*
X183842318Y-98759643D01*
X183845325Y-98686644D01*
X183835929Y-98591917D01*
X183811937Y-98375437D01*
X183791126Y-98220769D01*
X183766166Y-98105716D01*
X183729730Y-98008078D01*
X183674487Y-97905657D01*
X183593111Y-97776252D01*
X183538939Y-97692334D01*
X183458341Y-97560869D01*
X183369587Y-97407049D01*
X183340140Y-97353667D01*
X183271791Y-97246051D01*
X183187375Y-97160673D01*
X183064426Y-97078606D01*
X182923839Y-97002931D01*
X182782029Y-96930334D01*
X183153110Y-96930334D01*
X183315888Y-97101449D01*
X183406029Y-97205900D01*
X183465142Y-97292984D01*
X183478667Y-97330101D01*
X183503889Y-97344855D01*
X183573612Y-97297997D01*
X183599387Y-97274866D01*
X183724200Y-97174203D01*
X183859461Y-97086352D01*
X183863971Y-97083878D01*
X183992739Y-96985082D01*
X184129610Y-96834058D01*
X184252231Y-96657578D01*
X184310263Y-96549334D01*
X184438974Y-96263194D01*
X184525760Y-96040855D01*
X184572278Y-95873532D01*
X184580185Y-95752437D01*
X184551140Y-95668785D01*
X184486800Y-95613790D01*
X184486772Y-95613775D01*
X184417695Y-95589534D01*
X184359971Y-95615394D01*
X184296371Y-95686369D01*
X184212875Y-95816583D01*
X184150320Y-95956667D01*
X183987830Y-96325507D01*
X183757553Y-96650147D01*
X183695541Y-96717388D01*
X183577118Y-96833043D01*
X183488010Y-96897658D01*
X183403437Y-96925327D01*
X183321161Y-96930334D01*
X183153110Y-96930334D01*
X182782029Y-96930334D01*
X182610834Y-96842695D01*
X181971660Y-96854764D01*
X181697721Y-96863196D01*
X181484591Y-96876638D01*
X181340251Y-96894397D01*
X181273160Y-96915378D01*
X181196639Y-96957462D01*
X181077619Y-97003562D01*
X181036299Y-97016615D01*
X180901173Y-97070982D01*
X180772163Y-97146339D01*
X180666336Y-97229046D01*
X180600761Y-97305464D01*
X180592505Y-97361952D01*
X180597049Y-97367649D01*
X180640886Y-97437107D01*
X180611500Y-97471180D01*
X180546122Y-97465698D01*
X180472727Y-97464199D01*
X180420195Y-97517823D01*
X180391124Y-97577525D01*
X180338578Y-97697348D01*
X180271189Y-97848854D01*
X180236632Y-97925829D01*
X180173778Y-98111663D01*
X180133387Y-98321103D01*
X180127047Y-98391446D01*
X180113167Y-98644734D01*
X179883127Y-98644734D01*
X179884561Y-98643169D01*
X179936454Y-98561611D01*
X179964928Y-98473882D01*
X179983021Y-98358900D01*
X179984879Y-98344151D01*
X180013224Y-98194842D01*
X180061219Y-98015595D01*
X180120580Y-97831021D01*
X180183024Y-97665732D01*
X180240270Y-97544339D01*
X180267641Y-97503950D01*
X180301081Y-97437619D01*
X180268400Y-97375884D01*
X180162664Y-97309665D01*
X180095571Y-97278668D01*
X179969167Y-97219566D01*
X179887230Y-97162339D01*
X179829730Y-97083659D01*
X179776640Y-96960200D01*
X179743380Y-96868459D01*
X179685923Y-96606080D01*
X179684662Y-96560058D01*
X179809481Y-96560058D01*
X179875460Y-96842663D01*
X179931368Y-96980507D01*
X179994836Y-97066956D01*
X180093152Y-97132955D01*
X180161210Y-97166681D01*
X180289393Y-97227186D01*
X180363932Y-97256108D01*
X180408724Y-97255863D01*
X180447663Y-97228868D01*
X180480250Y-97198939D01*
X180541091Y-97093571D01*
X180557347Y-96976689D01*
X180549708Y-96834889D01*
X180530117Y-96667739D01*
X180502804Y-96499561D01*
X180471998Y-96354677D01*
X180441926Y-96257410D01*
X180428212Y-96233950D01*
X180396920Y-96163136D01*
X180388334Y-96090937D01*
X180368897Y-96012516D01*
X180319094Y-95888057D01*
X180251684Y-95744380D01*
X180179428Y-95608304D01*
X180115086Y-95506651D01*
X180103077Y-95491353D01*
X180070232Y-95505167D01*
X180017092Y-95593994D01*
X179946968Y-95751538D01*
X179891846Y-95893167D01*
X179810060Y-96225924D01*
X179809481Y-96560058D01*
X179684662Y-96560058D01*
X179677690Y-96305612D01*
X179715256Y-95995273D01*
X179795199Y-95703280D01*
X179914094Y-95457854D01*
X179914615Y-95457047D01*
X180000838Y-95372499D01*
X180097649Y-95370317D01*
X180205887Y-95450891D01*
G37*
X180205887Y-95450891D02*
X180326394Y-95614611D01*
X180353769Y-95660334D01*
X180432547Y-95809769D01*
X180489912Y-95945008D01*
X180514321Y-96038538D01*
X180514505Y-96043450D01*
X180531401Y-96143103D01*
X180559645Y-96195711D01*
X180584376Y-96255376D01*
X180613070Y-96377524D01*
X180641006Y-96540418D01*
X180652129Y-96621673D01*
X180700302Y-97003323D01*
X180893568Y-96922566D01*
X181026655Y-96863813D01*
X181138718Y-96809052D01*
X181171500Y-96790846D01*
X181252732Y-96768441D01*
X181412053Y-96749763D01*
X181642946Y-96735358D01*
X181938894Y-96725771D01*
X181951256Y-96725511D01*
X182211426Y-96720811D01*
X182402209Y-96720061D01*
X182538850Y-96724678D01*
X182636592Y-96736080D01*
X182710678Y-96755684D01*
X182776351Y-96784908D01*
X182814806Y-96805819D01*
X182931601Y-96862676D01*
X183009293Y-96873011D01*
X183061058Y-96851916D01*
X183161345Y-96815562D01*
X183263178Y-96803333D01*
X183396961Y-96765191D01*
X183544030Y-96659943D01*
X183692615Y-96501359D01*
X183830946Y-96303207D01*
X183947254Y-96079257D01*
X184000893Y-95940266D01*
X184084197Y-95743535D01*
X184184786Y-95586143D01*
X184291037Y-95482957D01*
X184385279Y-95448667D01*
X184486240Y-95474391D01*
X184594927Y-95536544D01*
X184598259Y-95539134D01*
X184663945Y-95599020D01*
X184695474Y-95663508D01*
X184701532Y-95761979D01*
X184695240Y-95867217D01*
X184666567Y-96042706D01*
X184612224Y-96238941D01*
X184568758Y-96354381D01*
X184480042Y-96537688D01*
X184374410Y-96724432D01*
X184263268Y-96897615D01*
X184158021Y-97040240D01*
X184070075Y-97135311D01*
X184025256Y-97164355D01*
X183958847Y-97202422D01*
X183944334Y-97229520D01*
X183910586Y-97265754D01*
X183888458Y-97269000D01*
X183824115Y-97295394D01*
X183730598Y-97361438D01*
X183697451Y-97389646D01*
X183614788Y-97467567D01*
X183588114Y-97518571D01*
X183609856Y-97571669D01*
X183639418Y-97611896D01*
X183790726Y-97838038D01*
X183883099Y-98049520D01*
X183929048Y-98277114D01*
X183934584Y-98337917D01*
X183948332Y-98490024D01*
X183966246Y-98576019D01*
X183995769Y-98614391D01*
X184044344Y-98623632D01*
X184049595Y-98623667D01*
X184166358Y-98654925D01*
X184305447Y-98736509D01*
X184439581Y-98850135D01*
X184511941Y-98933528D01*
X184551591Y-98998340D01*
X184578796Y-99078463D01*
X184596606Y-99192024D01*
X184608076Y-99357154D01*
X184614934Y-99545204D01*
X184612359Y-99946593D01*
X184576899Y-100293506D01*
X184505371Y-100610749D01*
X184460315Y-100751169D01*
X184420389Y-100884479D01*
X184415747Y-100970959D01*
X184442308Y-101036344D01*
X184476615Y-101133099D01*
X184494098Y-101264202D01*
X184494667Y-101290092D01*
X184499371Y-101398810D01*
X184526544Y-101447225D01*
X184595776Y-101459652D01*
X184631554Y-101460000D01*
X184742018Y-101441628D01*
X184891467Y-101393858D01*
X185023137Y-101338160D01*
X185267237Y-101231037D01*
X185527684Y-101132733D01*
X185772140Y-101054730D01*
X185934000Y-101014751D01*
X186187015Y-100935880D01*
X186439851Y-100807063D01*
X186504622Y-100764566D01*
X186711655Y-100628902D01*
X186884435Y-100538374D01*
X187050780Y-100480536D01*
X187215454Y-100446550D01*
X187339623Y-100421982D01*
X187426087Y-100396439D01*
X187445780Y-100385665D01*
X187441425Y-100337308D01*
X187404767Y-100233878D01*
X187343133Y-100095122D01*
X187321784Y-100051397D01*
X187202523Y-99809734D01*
X187116189Y-99623272D01*
X187057466Y-99471675D01*
X187021037Y-99334609D01*
X187001583Y-99191738D01*
X186993788Y-99022725D01*
X186993371Y-98960876D01*
X187119151Y-98960876D01*
X187121132Y-99080777D01*
X187129073Y-99186110D01*
X187146769Y-99288147D01*
X187178014Y-99398159D01*
X187226605Y-99527417D01*
X187296335Y-99687193D01*
X187391001Y-99888757D01*
X187514397Y-100143381D01*
X187670319Y-100462336D01*
X187682046Y-100486334D01*
X187849835Y-100839625D01*
X187976343Y-101127999D01*
X188060577Y-101349052D01*
X188101546Y-101500383D01*
X188101862Y-101502334D01*
X188131401Y-101691417D01*
X188162306Y-101894974D01*
X188173126Y-101968000D01*
X188204871Y-102119448D01*
X188258561Y-102312966D01*
X188323915Y-102512330D01*
X188340627Y-102558186D01*
X188400720Y-102729161D01*
X188446753Y-102879106D01*
X188471595Y-102983974D01*
X188474000Y-103007866D01*
X188486803Y-103090972D01*
X188520702Y-103227396D01*
X188568928Y-103390507D01*
X188579834Y-103424405D01*
X188630207Y-103590491D01*
X188667572Y-103736115D01*
X188685130Y-103834222D01*
X188685667Y-103845639D01*
X188703686Y-103932335D01*
X188750815Y-104064588D01*
X188813581Y-104206727D01*
X188890195Y-104352371D01*
X188948797Y-104430107D01*
X188999341Y-104451945D01*
X189014665Y-104449320D01*
X189103678Y-104427933D01*
X189228598Y-104402933D01*
X189252190Y-104398661D01*
X189351019Y-104375312D01*
X189373418Y-104351272D01*
X189350615Y-104332577D01*
X189288032Y-104265132D01*
X189238574Y-104158520D01*
X189212597Y-104046036D01*
X189220456Y-103960975D01*
X189230459Y-103946274D01*
X189273378Y-103938335D01*
X189323492Y-104003390D01*
X189344580Y-104045422D01*
X189420253Y-104206749D01*
X189474914Y-104306421D01*
X189527167Y-104357611D01*
X189595613Y-104373491D01*
X189698855Y-104367233D01*
X189786334Y-104358224D01*
X189957717Y-104338336D01*
X190118211Y-104314615D01*
X190209667Y-104297197D01*
X190325060Y-104273603D01*
X190490106Y-104243369D01*
X190670770Y-104212707D01*
X190685917Y-104210255D01*
X191014000Y-104157357D01*
X191013739Y-103792928D01*
X191005052Y-103563778D01*
X190980566Y-103393202D01*
X190953906Y-103314311D01*
X190898782Y-103183125D01*
X190830837Y-102979264D01*
X190753228Y-102713198D01*
X190669107Y-102395398D01*
X190631161Y-102243167D01*
X190583032Y-102061053D01*
X190515710Y-101825654D01*
X190437148Y-101563881D01*
X190355296Y-101302646D01*
X190331989Y-101230557D01*
X190258551Y-101001443D01*
X190193070Y-100790101D01*
X190140931Y-100614445D01*
X190107521Y-100492394D01*
X190099603Y-100457506D01*
X190071396Y-100354865D01*
X190038361Y-100294950D01*
X190035534Y-100292868D01*
X190000881Y-100234599D01*
X189998000Y-100209923D01*
X189981241Y-100141246D01*
X189937824Y-100024641D01*
X189891250Y-99916797D01*
X189827970Y-99766327D01*
X189778105Y-99626089D01*
X189758782Y-99554828D01*
X189729699Y-99457099D01*
X189696199Y-99403454D01*
X189662174Y-99345614D01*
X189659334Y-99320923D01*
X189644931Y-99255359D01*
X189600309Y-99136341D01*
X189523346Y-98959075D01*
X189411921Y-98718768D01*
X189263913Y-98410627D01*
X189184181Y-98247277D01*
X188927141Y-97722720D01*
X188541820Y-97751566D01*
X188217465Y-97776353D01*
X187965413Y-97798760D01*
X187773537Y-97822730D01*
X187629711Y-97852209D01*
X187521807Y-97891141D01*
X187437700Y-97943469D01*
X187365262Y-98013139D01*
X187292366Y-98104093D01*
X187240136Y-98174935D01*
X187187436Y-98251357D01*
X187152814Y-98321792D01*
X187132483Y-98406306D01*
X187122658Y-98524968D01*
X187119551Y-98697845D01*
X187119334Y-98815137D01*
X187119151Y-98960876D01*
X186993371Y-98960876D01*
X186992335Y-98807237D01*
X186992334Y-98791420D01*
X186992334Y-98250270D01*
X187154634Y-98045385D01*
X187252958Y-97926044D01*
X187340084Y-97828434D01*
X187385654Y-97783905D01*
X187456653Y-97755681D01*
X187594478Y-97724737D01*
X187781436Y-97693370D01*
X187999834Y-97663877D01*
X188231980Y-97638555D01*
X188460181Y-97619701D01*
X188666744Y-97609612D01*
X188736314Y-97608553D01*
X189019795Y-97607667D01*
X189293832Y-98168584D01*
X189458755Y-98508761D01*
X189587101Y-98779625D01*
X189681428Y-98986941D01*
X189744293Y-99136474D01*
X189778255Y-99233990D01*
X189786334Y-99278590D01*
X189809047Y-99347771D01*
X189823199Y-99361121D01*
X189856881Y-99415206D01*
X189885782Y-99512495D01*
X189917877Y-99622636D01*
X189973275Y-99770029D01*
X190018250Y-99874463D01*
X190075494Y-100008990D01*
X190114238Y-100117993D01*
X190125000Y-100167590D01*
X190148151Y-100237058D01*
X190162534Y-100250534D01*
X190195270Y-100304498D01*
X190224555Y-100404728D01*
X190226603Y-100415173D01*
X190248834Y-100504309D01*
X190292440Y-100655855D01*
X190352036Y-100851895D01*
X190422236Y-101074513D01*
X190458989Y-101188223D01*
X190540308Y-101444244D01*
X190620656Y-101708638D01*
X190692083Y-101954493D01*
X190746634Y-102154897D01*
X190758203Y-102200834D01*
X190838487Y-102520796D01*
X190906194Y-102772071D01*
X190965566Y-102968950D01*
X191020851Y-103125724D01*
X191063403Y-103228323D01*
X191102352Y-103333986D01*
X191125116Y-103451424D01*
X191134314Y-103604028D01*
X191132562Y-103815190D01*
X191131888Y-103840346D01*
X191119834Y-104271545D01*
X190950500Y-104306896D01*
X190675654Y-104358743D01*
X190355289Y-104408398D01*
X189973932Y-104458146D01*
X189744000Y-104485081D01*
X189527636Y-104510694D01*
X189329805Y-104536032D01*
X189172397Y-104558169D01*
X189077355Y-104574169D01*
X188934763Y-104577297D01*
X188871527Y-104546482D01*
X188808371Y-104467799D01*
X188732417Y-104337334D01*
X188657051Y-104183268D01*
X188595662Y-104033779D01*
X188561639Y-103917047D01*
X188558667Y-103887973D01*
X188545826Y-103802456D01*
X188511836Y-103664075D01*
X188463494Y-103499887D01*
X188452834Y-103466738D01*
X188402484Y-103300935D01*
X188365126Y-103155884D01*
X188347546Y-103058493D01*
X188347000Y-103047137D01*
X188330173Y-102950661D01*
X188281942Y-102787254D01*
X188205684Y-102567176D01*
X188104776Y-102300689D01*
X188084104Y-102248202D01*
X188035799Y-102126237D01*
X187715150Y-102157419D01*
X187533576Y-102173871D01*
X187302554Y-102193088D01*
X187057115Y-102212219D01*
X186907667Y-102223170D01*
X186572874Y-102249500D01*
X186311760Y-102276661D01*
X186113347Y-102306854D01*
X185966660Y-102342284D01*
X185860720Y-102385152D01*
X185784552Y-102437662D01*
X185769957Y-102451468D01*
X185732127Y-102492313D01*
X185701751Y-102537637D01*
X185676944Y-102598181D01*
X185655821Y-102684688D01*
X185636497Y-102807898D01*
X185617085Y-102978552D01*
X185595702Y-103207393D01*
X185570461Y-103505161D01*
X185557602Y-103661334D01*
X185528541Y-103983919D01*
X185498496Y-104235332D01*
X185463929Y-104429029D01*
X185421302Y-104578466D01*
X185367077Y-104697098D01*
X185297715Y-104798382D01*
X185241782Y-104862415D01*
X185107845Y-104982062D01*
X184936342Y-105104350D01*
X184791000Y-105188579D01*
X184634647Y-105271068D01*
X184492567Y-105352444D01*
X184398353Y-105413153D01*
X184318479Y-105497419D01*
X184229870Y-105628221D01*
X184148531Y-105776691D01*
X184090468Y-105913960D01*
X184071334Y-106003028D01*
X184030667Y-106088669D01*
X183915075Y-106166138D01*
X183734171Y-106231940D01*
X183497566Y-106282582D01*
X183214873Y-106314570D01*
X183214084Y-106314626D01*
X182843667Y-106340866D01*
X182843667Y-106497106D01*
X182857534Y-106614648D01*
X182895348Y-106790384D01*
X182951429Y-107003194D01*
X183020099Y-107231959D01*
X183095677Y-107455558D01*
X183117042Y-107513667D01*
X183172640Y-107661834D01*
X183488424Y-107674079D01*
X183680367Y-107674941D01*
X183804848Y-107651086D01*
X183878223Y-107589740D01*
X183916852Y-107478130D01*
X183935351Y-107325081D01*
X183940129Y-107206429D01*
X183927491Y-107102577D01*
X183890465Y-106987883D01*
X183822079Y-106836704D01*
X183778682Y-106748869D01*
X183693090Y-106565034D01*
X183645746Y-106433761D01*
X183639711Y-106363868D01*
X183643209Y-106358525D01*
X183687883Y-106365506D01*
X183755721Y-106439793D01*
X183838979Y-106569868D01*
X183929914Y-106744211D01*
X183986804Y-106869604D01*
X184044663Y-107032806D01*
X184067303Y-107191149D01*
X184063864Y-107362534D01*
X184044108Y-107551554D01*
X184003696Y-107678794D01*
X183928148Y-107756189D01*
X183802983Y-107795676D01*
X183613720Y-107809191D01*
X183521000Y-107810000D01*
X183331159Y-107806632D01*
X183207160Y-107794409D01*
X183130370Y-107770153D01*
X183086676Y-107735917D01*
X183041265Y-107659578D01*
X182984972Y-107529264D01*
X182929655Y-107372556D01*
X182927434Y-107365500D01*
X182871140Y-107186736D01*
X182815480Y-107011611D01*
X182775652Y-106887771D01*
X182736997Y-106722721D01*
X182717305Y-106548323D01*
X182716667Y-106518844D01*
X182711084Y-106413544D01*
X182685092Y-106339774D01*
X182624822Y-106288908D01*
X182516408Y-106252322D01*
X182345982Y-106221390D01*
X182206891Y-106201781D01*
X181917461Y-106158347D01*
X181689850Y-106112568D01*
X181501289Y-106058427D01*
X181329009Y-105989906D01*
X181235000Y-105944942D01*
X181056342Y-105855367D01*
X180936509Y-105805011D01*
X180863767Y-105802350D01*
X180826383Y-105855859D01*
X180812624Y-105974014D01*
X180810754Y-106165290D01*
X180810737Y-106251397D01*
X180806771Y-106489146D01*
X180794338Y-106662338D01*
X180771023Y-106790870D01*
X180734412Y-106894634D01*
X180732049Y-106899834D01*
X180629463Y-107078435D01*
X180517580Y-107179285D01*
X180387443Y-107209301D01*
X180337305Y-107204576D01*
X180225144Y-107187187D01*
X180063589Y-107162939D01*
X179887057Y-107136996D01*
X179882184Y-107136288D01*
X179708827Y-107106627D01*
X179590425Y-107070445D01*
X179497479Y-107015190D01*
X179405934Y-106933640D01*
X179288871Y-106796140D01*
X179250697Y-106689244D01*
X179291397Y-106612859D01*
X179342323Y-106585696D01*
X179444832Y-106526808D01*
X179497850Y-106478288D01*
X179563740Y-106417585D01*
X179674479Y-106332585D01*
X179776934Y-106261365D01*
X180006280Y-106093114D01*
X180172121Y-105930865D01*
X180292168Y-105756698D01*
X180311353Y-105720602D01*
X180380295Y-105621420D01*
X180436985Y-105596813D01*
X180466921Y-105643169D01*
X180455686Y-105756556D01*
X180407534Y-105849118D01*
X180310143Y-105974034D01*
X180181416Y-106112084D01*
X180039259Y-106244046D01*
X179903346Y-106349500D01*
X179792123Y-106434187D01*
X179668117Y-106541134D01*
X179635414Y-106571750D01*
X179535787Y-106654279D01*
X179450165Y-106703382D01*
X179424279Y-106709334D01*
X179395148Y-106724926D01*
X179425520Y-106778064D01*
X179476594Y-106834691D01*
X179608539Y-106934432D01*
X179777085Y-106981694D01*
X179791430Y-106983530D01*
X179961298Y-107008928D01*
X180143550Y-107043135D01*
X180188421Y-107052885D01*
X180337056Y-107074889D01*
X180441276Y-107052006D01*
X180522554Y-106972005D01*
X180602359Y-106822657D01*
X180605779Y-106815167D01*
X180642389Y-106713206D01*
X180666041Y-106587182D01*
X180679028Y-106417679D01*
X180683642Y-106185282D01*
X180683737Y-106154740D01*
X180684667Y-105663646D01*
X180187250Y-105410003D01*
X179973832Y-105305499D01*
X179760888Y-105208680D01*
X179573156Y-105130361D01*
X179435834Y-105081494D01*
X179274243Y-105033806D01*
X179123938Y-104989354D01*
X179044931Y-104965922D01*
X178939029Y-104909928D01*
X178821461Y-104812308D01*
X178713424Y-104695649D01*
X178636117Y-104582535D01*
X178610334Y-104502879D01*
X178589004Y-104425036D01*
X178568000Y-104402167D01*
X178534397Y-104343404D01*
X178525667Y-104279464D01*
X178486795Y-104185324D01*
X178379024Y-104118662D01*
X178215617Y-104086524D01*
X178158906Y-104084667D01*
X178059875Y-104089652D01*
X178025054Y-104117619D01*
X178034058Y-104188084D01*
X178037308Y-104201084D01*
X178075547Y-104383070D01*
X178089993Y-104522003D01*
X178082928Y-104609699D01*
X178056639Y-104637975D01*
X178013408Y-104598646D01*
X177957282Y-104487760D01*
X177882029Y-104366168D01*
X177782566Y-104270258D01*
X177775250Y-104265510D01*
X177599154Y-104144593D01*
X177459066Y-104026353D01*
X177368454Y-103923496D01*
X177340335Y-103855167D01*
X177350478Y-103820084D01*
X177599244Y-103820084D01*
X177608556Y-103920961D01*
X177651201Y-103956893D01*
X177663017Y-103957667D01*
X177707181Y-103942288D01*
X177704338Y-103936500D01*
X178017667Y-103936500D01*
X178038834Y-103957667D01*
X178060000Y-103936500D01*
X178038834Y-103915334D01*
X178017667Y-103936500D01*
X177704338Y-103936500D01*
X177688739Y-103904750D01*
X177679138Y-103887111D01*
X178328111Y-103887111D01*
X178333922Y-103912278D01*
X178356334Y-103915334D01*
X178391179Y-103899844D01*
X178384556Y-103887111D01*
X178334316Y-103882045D01*
X178328111Y-103887111D01*
X177679138Y-103887111D01*
X177642245Y-103819333D01*
X177624966Y-103767167D01*
X177623248Y-103763663D01*
X178075869Y-103763663D01*
X178077754Y-103777865D01*
X178140634Y-103789777D01*
X178227448Y-103759277D01*
X178301810Y-103703370D01*
X178326145Y-103661797D01*
X178375033Y-103592670D01*
X178422094Y-103576667D01*
X178521765Y-103543551D01*
X178642290Y-103458006D01*
X178761859Y-103340736D01*
X178858664Y-103212444D01*
X178903948Y-103119238D01*
X178936431Y-102972937D01*
X178914883Y-102887486D01*
X178837653Y-102857212D01*
X178827593Y-102857000D01*
X178731522Y-102835409D01*
X178655851Y-102784116D01*
X178623240Y-102723337D01*
X178637092Y-102687041D01*
X178712222Y-102661315D01*
X178764092Y-102679636D01*
X178863813Y-102726576D01*
X178959584Y-102766871D01*
X179042460Y-102816955D01*
X179073395Y-102898633D01*
X179076000Y-102956756D01*
X179037271Y-103182921D01*
X178919282Y-103392782D01*
X178743616Y-103571407D01*
X178615155Y-103690983D01*
X178545019Y-103791802D01*
X178518154Y-103889695D01*
X178521567Y-104008765D01*
X178572379Y-104077473D01*
X178577031Y-104080482D01*
X178636443Y-104157019D01*
X178652667Y-104230694D01*
X178668328Y-104320188D01*
X178695000Y-104359834D01*
X178732841Y-104420601D01*
X178737334Y-104453586D01*
X178770686Y-104555223D01*
X178854852Y-104670496D01*
X178965995Y-104773097D01*
X179080277Y-104836716D01*
X179086116Y-104838543D01*
X179203575Y-104873320D01*
X179361561Y-104919877D01*
X179478167Y-104954135D01*
X179611193Y-105000432D01*
X179786902Y-105074620D01*
X180011938Y-105179869D01*
X180292944Y-105319355D01*
X180636563Y-105496251D01*
X180875167Y-105621461D01*
X181153417Y-105762788D01*
X181384120Y-105865795D01*
X181590121Y-105939211D01*
X181794263Y-105991764D01*
X181897157Y-106011936D01*
X182173709Y-106061441D01*
X182378812Y-106096882D01*
X182524271Y-106119591D01*
X182621892Y-106130902D01*
X182683481Y-106132149D01*
X182720842Y-106124666D01*
X182745782Y-106109787D01*
X182747916Y-106108052D01*
X182799626Y-106094304D01*
X182828737Y-106138821D01*
X182853277Y-106176045D01*
X182903212Y-106195060D01*
X182997345Y-106198449D01*
X183154474Y-106188797D01*
X183178488Y-106186882D01*
X183370693Y-106163167D01*
X183561573Y-106126322D01*
X183704969Y-106085877D01*
X183838924Y-106026411D01*
X183917009Y-105957336D01*
X183964030Y-105862667D01*
X184042896Y-105658047D01*
X184118333Y-105504831D01*
X184206390Y-105385670D01*
X184323115Y-105283218D01*
X184484557Y-105180126D01*
X184706765Y-105059045D01*
X184708116Y-105058334D01*
X184875099Y-104956959D01*
X185035096Y-104837597D01*
X185145865Y-104733904D01*
X185218225Y-104642337D01*
X185274929Y-104541851D01*
X185319377Y-104418793D01*
X185354969Y-104259512D01*
X185385105Y-104050354D01*
X185413186Y-103777667D01*
X185428805Y-103597834D01*
X185456950Y-103263135D01*
X185480207Y-103002069D01*
X185500603Y-102803886D01*
X185520160Y-102657833D01*
X185540903Y-102553161D01*
X185564856Y-102479118D01*
X185594044Y-102424953D01*
X185630489Y-102379914D01*
X185664731Y-102344731D01*
X185731165Y-102287874D01*
X185811680Y-102242240D01*
X185917979Y-102205351D01*
X186061764Y-102174728D01*
X186254738Y-102147894D01*
X186508602Y-102122371D01*
X186835060Y-102095681D01*
X186844167Y-102094984D01*
X187190162Y-102067895D01*
X187460549Y-102045012D01*
X187664220Y-102025206D01*
X187810065Y-102007347D01*
X187906974Y-101990307D01*
X187963838Y-101972956D01*
X187989549Y-101954166D01*
X187992120Y-101949191D01*
X187992614Y-101877390D01*
X187970606Y-101746378D01*
X187931483Y-101576885D01*
X187880630Y-101389643D01*
X187823434Y-101205382D01*
X187765280Y-101044833D01*
X187744041Y-100994334D01*
X187678925Y-100846261D01*
X187621020Y-100712295D01*
X187593658Y-100647425D01*
X187553048Y-100573616D01*
X187494366Y-100547893D01*
X187385891Y-100556044D01*
X187117750Y-100612720D01*
X186881557Y-100709810D01*
X186704215Y-100815422D01*
X186556340Y-100903924D01*
X186384953Y-100993191D01*
X186212883Y-101072803D01*
X186062959Y-101132344D01*
X185958012Y-101161397D01*
X185943248Y-101162662D01*
X185852928Y-101179712D01*
X185707791Y-101223440D01*
X185530233Y-101285796D01*
X185342654Y-101358730D01*
X185167452Y-101434190D01*
X185103000Y-101464674D01*
X184932508Y-101539352D01*
X184792497Y-101574800D01*
X184643960Y-101580164D01*
X184616167Y-101578805D01*
X184388834Y-101565834D01*
X184375931Y-101364750D01*
X184358212Y-101231021D01*
X184329997Y-101170971D01*
X184296099Y-101188314D01*
X184263493Y-101277959D01*
X184227067Y-101374425D01*
X184161102Y-101510643D01*
X184092350Y-101635317D01*
X183949893Y-101878384D01*
X184084697Y-101891442D01*
X184183180Y-101915246D01*
X184218306Y-101969697D01*
X184219500Y-101989167D01*
X184196464Y-102050840D01*
X184116623Y-102101791D01*
X184018639Y-102137334D01*
X183903316Y-102178789D01*
X183830564Y-102214547D01*
X183817556Y-102228309D01*
X183855085Y-102270172D01*
X183958486Y-102331768D01*
X184113255Y-102406218D01*
X184304888Y-102486638D01*
X184518884Y-102566148D01*
X184557679Y-102579499D01*
X184763782Y-102655929D01*
X184892369Y-102719425D01*
X184949095Y-102772902D01*
X184952366Y-102782917D01*
X184936369Y-102844282D01*
X184883230Y-102857000D01*
X184801690Y-102869129D01*
X184668894Y-102900885D01*
X184517832Y-102944128D01*
X184284049Y-103040770D01*
X184096086Y-103167340D01*
X183965781Y-103313001D01*
X183904969Y-103466912D01*
X183902000Y-103507983D01*
X183919788Y-103621742D01*
X183962862Y-103701355D01*
X183965500Y-103703667D01*
X184023798Y-103787128D01*
X183999578Y-103876573D01*
X183948526Y-103932706D01*
X183885072Y-104024513D01*
X183841539Y-104147181D01*
X183840279Y-104153573D01*
X183799064Y-104260010D01*
X183739632Y-104289484D01*
X183676534Y-104243101D01*
X183628662Y-104137495D01*
X183594843Y-104044953D01*
X183565761Y-104000652D01*
X183563132Y-104000000D01*
X183534003Y-104035612D01*
X183485497Y-104126531D01*
X183428214Y-104248882D01*
X183372752Y-104378791D01*
X183329713Y-104492381D01*
X183309696Y-104565779D01*
X183309334Y-104571654D01*
X183289237Y-104632927D01*
X183277584Y-104642056D01*
X183240584Y-104685327D01*
X183184446Y-104777910D01*
X183159102Y-104825500D01*
X183075679Y-104949163D01*
X182994008Y-104994711D01*
X182989768Y-104994834D01*
X182954396Y-104989628D01*
X182931391Y-104964470D01*
X182918637Y-104905050D01*
X182914020Y-104797057D01*
X182915426Y-104626180D01*
X182917828Y-104508000D01*
X182921377Y-104300977D01*
X182920255Y-104167411D01*
X182913069Y-104096156D01*
X182898428Y-104076065D01*
X182874938Y-104095992D01*
X182867582Y-104105834D01*
X182722269Y-104300722D01*
X182611578Y-104428337D01*
X182526418Y-104493912D01*
X182457696Y-104502684D01*
X182396322Y-104459886D01*
X182352941Y-104402167D01*
X182254236Y-104315035D01*
X182132838Y-104304430D01*
X182007042Y-104370417D01*
X181903102Y-104457983D01*
X181827877Y-104521042D01*
X181719028Y-104584401D01*
X181640299Y-104568874D01*
X181593367Y-104475320D01*
X181581999Y-104394971D01*
X181539267Y-104206343D01*
X181440922Y-104080178D01*
X181283355Y-104013279D01*
X181136456Y-104000000D01*
X180877282Y-104035297D01*
X180614214Y-104131760D01*
X180382053Y-104275252D01*
X180314635Y-104333876D01*
X180223289Y-104413681D01*
X180153695Y-104460516D01*
X180137217Y-104465667D01*
X180077725Y-104436013D01*
X180071979Y-104366226D01*
X180110930Y-104298806D01*
X180166509Y-104198540D01*
X180189160Y-104100390D01*
X180185307Y-104016334D01*
X180141112Y-103978791D01*
X180056500Y-103965288D01*
X179925185Y-103976746D01*
X179861838Y-104024672D01*
X179796588Y-104067725D01*
X179734349Y-104052161D01*
X179711000Y-103995788D01*
X179734135Y-103935808D01*
X179790327Y-103846420D01*
X179795335Y-103839536D01*
X179860073Y-103715921D01*
X179901110Y-103568502D01*
X179914924Y-103424706D01*
X179897993Y-103311955D01*
X179868693Y-103268197D01*
X179830704Y-103219599D01*
X179821789Y-103140266D01*
X179839036Y-103005167D01*
X179860939Y-102833075D01*
X179875197Y-102637738D01*
X179877810Y-102551412D01*
X179872036Y-102406643D01*
X179848129Y-102338701D01*
X179801938Y-102347776D01*
X179729310Y-102434056D01*
X179647500Y-102561915D01*
X179560695Y-102681839D01*
X179482980Y-102748419D01*
X179425913Y-102756785D01*
X179401055Y-102702070D01*
X179402302Y-102665179D01*
X179443072Y-102449570D01*
X179501291Y-102254237D01*
X179649281Y-102254237D01*
X179651583Y-102287363D01*
X179686764Y-102264790D01*
X179709643Y-102244395D01*
X179809554Y-102193559D01*
X179887426Y-102186848D01*
X179931109Y-102196591D01*
X179959537Y-102221265D01*
X179975984Y-102276304D01*
X179983723Y-102377142D01*
X179986029Y-102539214D01*
X179986167Y-102652380D01*
X179988982Y-102840560D01*
X179996595Y-102996663D01*
X180007757Y-103101674D01*
X180017917Y-103135685D01*
X180039739Y-103201217D01*
X180048436Y-103321633D01*
X180044399Y-103468235D01*
X180028022Y-103612329D01*
X180010289Y-103693363D01*
X179989060Y-103786179D01*
X180007199Y-103823681D01*
X180076572Y-103830667D01*
X180223542Y-103856905D01*
X180318148Y-103928557D01*
X180346000Y-104017771D01*
X180346000Y-104117229D01*
X180581365Y-103995115D01*
X180736274Y-103924095D01*
X180877857Y-103886794D01*
X181047938Y-103873659D01*
X181116116Y-103873000D01*
X181275402Y-103875446D01*
X181377883Y-103889132D01*
X181451406Y-103923584D01*
X181523816Y-103988327D01*
X181558085Y-104024181D01*
X181647056Y-104139824D01*
X181696258Y-104246986D01*
X181700667Y-104278181D01*
X181713155Y-104358840D01*
X181756247Y-104372309D01*
X181838390Y-104318452D01*
X181887166Y-104275167D01*
X182034203Y-104188614D01*
X182197962Y-104169872D01*
X182351622Y-104219608D01*
X182407884Y-104262189D01*
X182506724Y-104355045D01*
X182579404Y-104251606D01*
X182645879Y-104155301D01*
X182733359Y-104026483D01*
X182779626Y-103957667D01*
X182871264Y-103831269D01*
X182938496Y-103768265D01*
X182984604Y-103772739D01*
X183012869Y-103848770D01*
X183026574Y-104000443D01*
X183028999Y-104231837D01*
X183028663Y-104267432D01*
X183026821Y-104478271D01*
X183028079Y-104615177D01*
X183034308Y-104688872D01*
X183047384Y-104710081D01*
X183069179Y-104689526D01*
X183095234Y-104648432D01*
X183145903Y-104550561D01*
X183212562Y-104403266D01*
X183281732Y-104236493D01*
X183289233Y-104217434D01*
X183383070Y-104014480D01*
X183475661Y-103884657D01*
X183563434Y-103831105D01*
X183642816Y-103856963D01*
X183667600Y-103884865D01*
X183712691Y-103933211D01*
X183754800Y-103916754D01*
X183787821Y-103882223D01*
X183831001Y-103795956D01*
X183815840Y-103745033D01*
X183775741Y-103615991D01*
X183778922Y-103451611D01*
X183821393Y-103286794D01*
X183880658Y-103178493D01*
X183971082Y-103092746D01*
X184110676Y-102995201D01*
X184273587Y-102900335D01*
X184433964Y-102822625D01*
X184565954Y-102776548D01*
X184610193Y-102769956D01*
X184613189Y-102757435D01*
X184549055Y-102726888D01*
X184431665Y-102684918D01*
X184431167Y-102684755D01*
X184138192Y-102571877D01*
X183906743Y-102446069D01*
X183744783Y-102312479D01*
X183664882Y-102189493D01*
X183629145Y-102198912D01*
X183547762Y-102237040D01*
X183537882Y-102242149D01*
X183436337Y-102270973D01*
X183270855Y-102291735D01*
X183061815Y-102304102D01*
X182829592Y-102307737D01*
X182594565Y-102302306D01*
X182377111Y-102287473D01*
X182203862Y-102264089D01*
X181869636Y-102187606D01*
X181489725Y-102077267D01*
X181091278Y-101942380D01*
X180701446Y-101792253D01*
X180347381Y-101636194D01*
X180286981Y-101606930D01*
X180079794Y-101504840D01*
X179959573Y-101641170D01*
X179885158Y-101733779D01*
X179842538Y-101802726D01*
X179838676Y-101816500D01*
X179812687Y-101877140D01*
X179778708Y-101922333D01*
X179728936Y-102006319D01*
X179682194Y-102127757D01*
X179675008Y-102152547D01*
X179649281Y-102254237D01*
X179501291Y-102254237D01*
X179517610Y-102199488D01*
X179613424Y-101949820D01*
X179718020Y-101735454D01*
X179759732Y-101667084D01*
X179928863Y-101412453D01*
X179912657Y-101396500D01*
X180146017Y-101396500D01*
X180341258Y-101489010D01*
X180683080Y-101640056D01*
X181057624Y-101786912D01*
X181439958Y-101920979D01*
X181805150Y-102033658D01*
X182128269Y-102116349D01*
X182208667Y-102133125D01*
X182353654Y-102152531D01*
X182544447Y-102165788D01*
X182759084Y-102172804D01*
X182975601Y-102173486D01*
X183172036Y-102167743D01*
X183326424Y-102155483D01*
X183412931Y-102138183D01*
X183508920Y-102068554D01*
X183567427Y-101979433D01*
X183622070Y-101850229D01*
X183672740Y-101742319D01*
X183722950Y-101619406D01*
X183716563Y-101543949D01*
X183648062Y-101495883D01*
X183600428Y-101479338D01*
X183493519Y-101420197D01*
X183395832Y-101303011D01*
X183350782Y-101227605D01*
X183250712Y-101079676D01*
X183156031Y-101000863D01*
X183133771Y-100993085D01*
X183067523Y-100962328D01*
X183034106Y-100893855D01*
X183021149Y-100791563D01*
X182998925Y-100663663D01*
X182955760Y-100614228D01*
X182947066Y-100613334D01*
X182892286Y-100591386D01*
X182886000Y-100574101D01*
X182847349Y-100514142D01*
X182746120Y-100458854D01*
X182604403Y-100413120D01*
X182444288Y-100381820D01*
X182287863Y-100369837D01*
X182157218Y-100382053D01*
X182103692Y-100401207D01*
X181994859Y-100434459D01*
X181915157Y-100432473D01*
X181835251Y-100429708D01*
X181804044Y-100447974D01*
X181743905Y-100477635D01*
X181637928Y-100485742D01*
X181521634Y-100474179D01*
X181430542Y-100444830D01*
X181407755Y-100426956D01*
X181337308Y-100387138D01*
X181219533Y-100358263D01*
X181171706Y-100352724D01*
X181058256Y-100350557D01*
X181019032Y-100366948D01*
X181025302Y-100378235D01*
X181063147Y-100433779D01*
X181035941Y-100464897D01*
X180937780Y-100473528D01*
X180769334Y-100462260D01*
X180473000Y-100433060D01*
X180473000Y-100563942D01*
X180454583Y-100692690D01*
X180406692Y-100864215D01*
X180340367Y-101046949D01*
X180266648Y-101209325D01*
X180218852Y-101290667D01*
X180146017Y-101396500D01*
X179912657Y-101396500D01*
X179717165Y-101204068D01*
X179606350Y-101086874D01*
X179520410Y-100981027D01*
X179478381Y-100910342D01*
X179440402Y-100845887D01*
X179396080Y-100823353D01*
X179372511Y-100855352D01*
X179372334Y-100860983D01*
X179336340Y-100894301D01*
X179241884Y-100947354D01*
X179109249Y-101008776D01*
X179106423Y-101009979D01*
X178835555Y-101151701D01*
X178633539Y-101322505D01*
X178485941Y-101536235D01*
X178429864Y-101658942D01*
X178383766Y-101813589D01*
X178341242Y-102027029D01*
X178305951Y-102273387D01*
X178281556Y-102526789D01*
X178271716Y-102761362D01*
X178271667Y-102777071D01*
X178259170Y-102932173D01*
X178225990Y-103130715D01*
X178178591Y-103335939D01*
X178164392Y-103387045D01*
X178119337Y-103551936D01*
X178088405Y-103683901D01*
X178075869Y-103763663D01*
X177623248Y-103763663D01*
X177609888Y-103736417D01*
X177600731Y-103789347D01*
X177599244Y-103820084D01*
X177350478Y-103820084D01*
X177367745Y-103760361D01*
X177410105Y-103696737D01*
X177457311Y-103610679D01*
X177474690Y-103555500D01*
X177806000Y-103555500D01*
X177827167Y-103576667D01*
X177848334Y-103555500D01*
X177827167Y-103534334D01*
X177806000Y-103555500D01*
X177474690Y-103555500D01*
X177498963Y-103478437D01*
X177514198Y-103402528D01*
X177528505Y-103264585D01*
X177517026Y-103145350D01*
X177474008Y-103006901D01*
X177441895Y-102925958D01*
X177379852Y-102742182D01*
X177315079Y-102491794D01*
X177251418Y-102192594D01*
X177192712Y-101862380D01*
X177150017Y-101573892D01*
X177129863Y-101452174D01*
X177102373Y-101394359D01*
X177052470Y-101380038D01*
X177009278Y-101383392D01*
X176934166Y-101405392D01*
X176886065Y-101464898D01*
X176846424Y-101585031D01*
X176845907Y-101587000D01*
X176774559Y-101848511D01*
X176707497Y-102074229D01*
X176648793Y-102251630D01*
X176602519Y-102368193D01*
X176579127Y-102407473D01*
X176525347Y-102427579D01*
X176472513Y-102374217D01*
X176417294Y-102242952D01*
X176390445Y-102156118D01*
X176348667Y-102014981D01*
X176291997Y-101828357D01*
X176231151Y-101631457D01*
X176217247Y-101587000D01*
X176146051Y-101346146D01*
X176079210Y-101094992D01*
X176021178Y-100852904D01*
X175977000Y-100642073D01*
X176119339Y-100642073D01*
X176136708Y-100759602D01*
X176171861Y-100924215D01*
X176220277Y-101119928D01*
X176277435Y-101330757D01*
X176338814Y-101540717D01*
X176399892Y-101733824D01*
X176456147Y-101894093D01*
X176503059Y-102005539D01*
X176536106Y-102052179D01*
X176538680Y-102052667D01*
X176566631Y-102015911D01*
X176602861Y-101923206D01*
X176618078Y-101872750D01*
X176661718Y-101711653D01*
X176704194Y-101548619D01*
X176710110Y-101525167D01*
X176759786Y-101371945D01*
X176823258Y-101286466D01*
X176916985Y-101251846D01*
X176979999Y-101248334D01*
X177117298Y-101248334D01*
X177082493Y-101068417D01*
X177060706Y-100952188D01*
X177047452Y-100874609D01*
X177045844Y-100861992D01*
X177006595Y-100843973D01*
X176907768Y-100826126D01*
X176821750Y-100816860D01*
X176742546Y-100801996D01*
X177183383Y-100801996D01*
X177194558Y-100909692D01*
X177213696Y-101021940D01*
X177244848Y-101204210D01*
X177270301Y-101393534D01*
X177279014Y-101481167D01*
X177292692Y-101611100D01*
X177314927Y-101777448D01*
X177342707Y-101962284D01*
X177373017Y-102147683D01*
X177402843Y-102315719D01*
X177429171Y-102448465D01*
X177448986Y-102527996D01*
X177457445Y-102542333D01*
X177459755Y-102496375D01*
X177453609Y-102384598D01*
X177440253Y-102225293D01*
X177426565Y-102088548D01*
X177379315Y-101665798D01*
X177336212Y-101325472D01*
X177296878Y-101065449D01*
X177260934Y-100883607D01*
X177228002Y-100777826D01*
X177197703Y-100745982D01*
X177188071Y-100751485D01*
X177183383Y-100801996D01*
X176742546Y-100801996D01*
X176647116Y-100784087D01*
X176456799Y-100721555D01*
X176371391Y-100683422D01*
X176248082Y-100625692D01*
X176157922Y-100591578D01*
X176124276Y-100587614D01*
X176119339Y-100642073D01*
X175977000Y-100642073D01*
X175976407Y-100639247D01*
X175949350Y-100473383D01*
X175943334Y-100395726D01*
X175959998Y-100287436D01*
X176006947Y-100257638D01*
X176079614Y-100308002D01*
X176104125Y-100336923D01*
X176216086Y-100437324D01*
X176381602Y-100537435D01*
X176570801Y-100622526D01*
X176753811Y-100677865D01*
X176816264Y-100688114D01*
X176996601Y-100708440D01*
X177004006Y-100592167D01*
X177128667Y-100592167D01*
X177149834Y-100613334D01*
X177171000Y-100592167D01*
X177149834Y-100571000D01*
X177128667Y-100592167D01*
X177004006Y-100592167D01*
X177009717Y-100502518D01*
X177033285Y-100357334D01*
X177077042Y-100289059D01*
X177135906Y-100293793D01*
X177204796Y-100367637D01*
X177278631Y-100506693D01*
X177352330Y-100707061D01*
X177374822Y-100782667D01*
X177414888Y-100961954D01*
X177456009Y-101217025D01*
X177496985Y-101539027D01*
X177536616Y-101919107D01*
X177552666Y-102095000D01*
X177575198Y-102325836D01*
X177601229Y-102551841D01*
X177627370Y-102745533D01*
X177648114Y-102869132D01*
X177676822Y-102999994D01*
X177698315Y-103057211D01*
X177718357Y-103050806D01*
X177733327Y-103017299D01*
X177764435Y-102951044D01*
X177796155Y-102959324D01*
X177824733Y-102995356D01*
X177862384Y-103080026D01*
X177896128Y-103211334D01*
X177908761Y-103287294D01*
X177931428Y-103405117D01*
X177957995Y-103465556D01*
X177974332Y-103466438D01*
X178014094Y-103390196D01*
X178056075Y-103253805D01*
X178095120Y-103081464D01*
X178126075Y-102897369D01*
X178143784Y-102725718D01*
X178146052Y-102660390D01*
X178162243Y-102336051D01*
X178203862Y-102006544D01*
X178265662Y-101709216D01*
X178293250Y-101612739D01*
X178417048Y-101357115D01*
X178612809Y-101136102D01*
X178871660Y-100959143D01*
X178939114Y-100925700D01*
X179079625Y-100856014D01*
X179196320Y-100790396D01*
X179252994Y-100751540D01*
X179295425Y-100705426D01*
X179296745Y-100654419D01*
X179255390Y-100567907D01*
X179242411Y-100544630D01*
X179200855Y-100422759D01*
X179172610Y-100245077D01*
X179158113Y-100036757D01*
X179158049Y-99992017D01*
X179286664Y-99992017D01*
X179295371Y-100191121D01*
X179318780Y-100364433D01*
X179354267Y-100479829D01*
X179424090Y-100575721D01*
X179499453Y-100613332D01*
X179499936Y-100613334D01*
X179579033Y-100635368D01*
X179616593Y-100684232D01*
X179593847Y-100734070D01*
X179589604Y-100736870D01*
X179579141Y-100787055D01*
X179616338Y-100876904D01*
X179688286Y-100986922D01*
X179782081Y-101097611D01*
X179884813Y-101189474D01*
X179893289Y-101195608D01*
X180027847Y-101291050D01*
X180101296Y-101195608D01*
X180181529Y-101052258D01*
X180252724Y-100855974D01*
X180306054Y-100638489D01*
X180332693Y-100431537D01*
X180333911Y-100359334D01*
X180339380Y-100180128D01*
X180365538Y-100070179D01*
X180410567Y-100035241D01*
X180433592Y-100043641D01*
X180461953Y-100099443D01*
X180473000Y-100192499D01*
X180480267Y-100273237D01*
X180518445Y-100308494D01*
X180612098Y-100316901D01*
X180637150Y-100317000D01*
X180761131Y-100301235D01*
X180846372Y-100261562D01*
X180853091Y-100254596D01*
X180924367Y-100222874D01*
X181048025Y-100211395D01*
X181194809Y-100217969D01*
X181335458Y-100240410D01*
X181440713Y-100276530D01*
X181472500Y-100300909D01*
X181562377Y-100354070D01*
X181672499Y-100340416D01*
X181764477Y-100274324D01*
X181826509Y-100217654D01*
X181875729Y-100223902D01*
X181915002Y-100255915D01*
X181980437Y-100296898D01*
X182019948Y-100271786D01*
X182077096Y-100247811D01*
X182193600Y-100238039D01*
X182345628Y-100240911D01*
X182509348Y-100254871D01*
X182660928Y-100278359D01*
X182776538Y-100309819D01*
X182805362Y-100323131D01*
X182942596Y-100415412D01*
X183056125Y-100518543D01*
X183126527Y-100613050D01*
X183140000Y-100658650D01*
X183175568Y-100726363D01*
X183224667Y-100752600D01*
X183294015Y-100803523D01*
X183310275Y-100852787D01*
X183336083Y-100940798D01*
X183394000Y-101036667D01*
X183452591Y-101124752D01*
X183477719Y-101188599D01*
X183477726Y-101188856D01*
X183515576Y-101266879D01*
X183603535Y-101333532D01*
X183707851Y-101365805D01*
X183736726Y-101365407D01*
X183803839Y-101368321D01*
X183836686Y-101411599D01*
X183851873Y-101517298D01*
X183851972Y-101518495D01*
X183849857Y-101635792D01*
X183827591Y-101718174D01*
X183820222Y-101728045D01*
X183778997Y-101792625D01*
X183775000Y-101812843D01*
X183792242Y-101823389D01*
X183837539Y-101772847D01*
X183901244Y-101675940D01*
X183973713Y-101547390D01*
X184045300Y-101401920D01*
X184047763Y-101396500D01*
X184113940Y-101250805D01*
X184170942Y-101125972D01*
X184202348Y-101057834D01*
X184233536Y-100978985D01*
X184281254Y-100844811D01*
X184336539Y-100680724D01*
X184351629Y-100634500D01*
X184409200Y-100411970D01*
X184452955Y-100153675D01*
X184481732Y-99880306D01*
X184494372Y-99612554D01*
X184489713Y-99371113D01*
X184466596Y-99176672D01*
X184438837Y-99079677D01*
X184379799Y-98982092D01*
X184294857Y-98891228D01*
X184199200Y-98815963D01*
X184108015Y-98765176D01*
X184036490Y-98747744D01*
X183999812Y-98772544D01*
X184004874Y-98826008D01*
X184007350Y-98845788D01*
X183995582Y-98861661D01*
X183961573Y-98873968D01*
X183897327Y-98883050D01*
X183794850Y-98889250D01*
X183646144Y-98892908D01*
X183443215Y-98894367D01*
X183178067Y-98893967D01*
X182842703Y-98892051D01*
X182515476Y-98889633D01*
X182143948Y-98885455D01*
X181780584Y-98878946D01*
X181438742Y-98870522D01*
X181131778Y-98860599D01*
X180873050Y-98849595D01*
X180675914Y-98837925D01*
X180578834Y-98829255D01*
X180389792Y-98807890D01*
X180225497Y-98789987D01*
X180108740Y-98777996D01*
X180070834Y-98774648D01*
X180002532Y-98800415D01*
X179896253Y-98872857D01*
X179770527Y-98975603D01*
X179643888Y-99092281D01*
X179534869Y-99206522D01*
X179462002Y-99301952D01*
X179451026Y-99322167D01*
X179398648Y-99424683D01*
X179349973Y-99512667D01*
X179313844Y-99625519D01*
X179292781Y-99794393D01*
X179286664Y-99992017D01*
X179158049Y-99992017D01*
X179157803Y-99822969D01*
X179172118Y-99628885D01*
X179201496Y-99479676D01*
X179222973Y-99428000D01*
X179283787Y-99316409D01*
X179323509Y-99236453D01*
X179370728Y-99170705D01*
X179464460Y-99065787D01*
X179588467Y-98939370D01*
X179658358Y-98872102D01*
X179796208Y-98739638D01*
X179883127Y-98644734D01*
X180113167Y-98644734D01*
X180324834Y-98679737D01*
X180415826Y-98688669D01*
X180580304Y-98698476D01*
X180807098Y-98708742D01*
X181085038Y-98719047D01*
X181402952Y-98728976D01*
X181749671Y-98738110D01*
X182081667Y-98745396D01*
X182439824Y-98752668D01*
X182774956Y-98759789D01*
X183076724Y-98766515D01*
X183334793Y-98772603D01*
X183538825Y-98777809D01*
X183678482Y-98781890D01*
X183742440Y-98784527D01*
X183811457Y-98785197D01*
X183842318Y-98759643D01*
X183845325Y-98686644D01*
X183835929Y-98591917D01*
X183811937Y-98375437D01*
X183791126Y-98220769D01*
X183766166Y-98105716D01*
X183729730Y-98008078D01*
X183674487Y-97905657D01*
X183593111Y-97776252D01*
X183538939Y-97692334D01*
X183458341Y-97560869D01*
X183369587Y-97407049D01*
X183340140Y-97353667D01*
X183271791Y-97246051D01*
X183187375Y-97160673D01*
X183064426Y-97078606D01*
X182923839Y-97002931D01*
X182782029Y-96930334D01*
X183153110Y-96930334D01*
X183315888Y-97101449D01*
X183406029Y-97205900D01*
X183465142Y-97292984D01*
X183478667Y-97330101D01*
X183503889Y-97344855D01*
X183573612Y-97297997D01*
X183599387Y-97274866D01*
X183724200Y-97174203D01*
X183859461Y-97086352D01*
X183863971Y-97083878D01*
X183992739Y-96985082D01*
X184129610Y-96834058D01*
X184252231Y-96657578D01*
X184310263Y-96549334D01*
X184438974Y-96263194D01*
X184525760Y-96040855D01*
X184572278Y-95873532D01*
X184580185Y-95752437D01*
X184551140Y-95668785D01*
X184486800Y-95613790D01*
X184486772Y-95613775D01*
X184417695Y-95589534D01*
X184359971Y-95615394D01*
X184296371Y-95686369D01*
X184212875Y-95816583D01*
X184150320Y-95956667D01*
X183987830Y-96325507D01*
X183757553Y-96650147D01*
X183695541Y-96717388D01*
X183577118Y-96833043D01*
X183488010Y-96897658D01*
X183403437Y-96925327D01*
X183321161Y-96930334D01*
X183153110Y-96930334D01*
X182782029Y-96930334D01*
X182610834Y-96842695D01*
X181971660Y-96854764D01*
X181697721Y-96863196D01*
X181484591Y-96876638D01*
X181340251Y-96894397D01*
X181273160Y-96915378D01*
X181196639Y-96957462D01*
X181077619Y-97003562D01*
X181036299Y-97016615D01*
X180901173Y-97070982D01*
X180772163Y-97146339D01*
X180666336Y-97229046D01*
X180600761Y-97305464D01*
X180592505Y-97361952D01*
X180597049Y-97367649D01*
X180640886Y-97437107D01*
X180611500Y-97471180D01*
X180546122Y-97465698D01*
X180472727Y-97464199D01*
X180420195Y-97517823D01*
X180391124Y-97577525D01*
X180338578Y-97697348D01*
X180271189Y-97848854D01*
X180236632Y-97925829D01*
X180173778Y-98111663D01*
X180133387Y-98321103D01*
X180127047Y-98391446D01*
X180113167Y-98644734D01*
X179883127Y-98644734D01*
X179884561Y-98643169D01*
X179936454Y-98561611D01*
X179964928Y-98473882D01*
X179983021Y-98358900D01*
X179984879Y-98344151D01*
X180013224Y-98194842D01*
X180061219Y-98015595D01*
X180120580Y-97831021D01*
X180183024Y-97665732D01*
X180240270Y-97544339D01*
X180267641Y-97503950D01*
X180301081Y-97437619D01*
X180268400Y-97375884D01*
X180162664Y-97309665D01*
X180095571Y-97278668D01*
X179969167Y-97219566D01*
X179887230Y-97162339D01*
X179829730Y-97083659D01*
X179776640Y-96960200D01*
X179743380Y-96868459D01*
X179685923Y-96606080D01*
X179684662Y-96560058D01*
X179809481Y-96560058D01*
X179875460Y-96842663D01*
X179931368Y-96980507D01*
X179994836Y-97066956D01*
X180093152Y-97132955D01*
X180161210Y-97166681D01*
X180289393Y-97227186D01*
X180363932Y-97256108D01*
X180408724Y-97255863D01*
X180447663Y-97228868D01*
X180480250Y-97198939D01*
X180541091Y-97093571D01*
X180557347Y-96976689D01*
X180549708Y-96834889D01*
X180530117Y-96667739D01*
X180502804Y-96499561D01*
X180471998Y-96354677D01*
X180441926Y-96257410D01*
X180428212Y-96233950D01*
X180396920Y-96163136D01*
X180388334Y-96090937D01*
X180368897Y-96012516D01*
X180319094Y-95888057D01*
X180251684Y-95744380D01*
X180179428Y-95608304D01*
X180115086Y-95506651D01*
X180103077Y-95491353D01*
X180070232Y-95505167D01*
X180017092Y-95593994D01*
X179946968Y-95751538D01*
X179891846Y-95893167D01*
X179810060Y-96225924D01*
X179809481Y-96560058D01*
X179684662Y-96560058D01*
X179677690Y-96305612D01*
X179715256Y-95995273D01*
X179795199Y-95703280D01*
X179914094Y-95457854D01*
X179914615Y-95457047D01*
X180000838Y-95372499D01*
X180097649Y-95370317D01*
X180205887Y-95450891D01*
D12*
%TO.C,SW1*%
X28320000Y-27820000D02*
X28320000Y-26820000D01*
X27820000Y-27320000D02*
X28820000Y-27320000D01*
X31820000Y-21220000D02*
X34220000Y-21220000D01*
X27020000Y-21220000D02*
X29620000Y-21220000D01*
X22420000Y-21220000D02*
X24820000Y-21220000D01*
X24220000Y-34520000D02*
X24520000Y-34820000D01*
X24220000Y-35120000D02*
X24220000Y-34520000D01*
X24520000Y-34820000D02*
X24220000Y-35120000D01*
X22420000Y-33420000D02*
X34220000Y-33420000D01*
X22420000Y-29320000D02*
X22420000Y-33420000D01*
X34220000Y-29320000D02*
X34220000Y-33420000D01*
X34220000Y-21220000D02*
X34220000Y-25320000D01*
X22420000Y-25320000D02*
X22420000Y-21220000D01*
X31320000Y-27320000D02*
G75*
G03*
X31320000Y-27320000I-3000000J0D01*
G01*
%TO.C,J4*%
X229705000Y-104745000D02*
X227045000Y-104745000D01*
X229705000Y-104745000D02*
X229705000Y-97065000D01*
X229705000Y-97065000D02*
X227045000Y-97065000D01*
X227045000Y-104745000D02*
X227045000Y-97065000D01*
X227045000Y-107345000D02*
X227045000Y-106015000D01*
X228375000Y-107345000D02*
X227045000Y-107345000D01*
%TO.C,J2*%
X146770000Y-102865000D02*
X146770000Y-100365000D01*
X146770000Y-100365000D02*
X147820000Y-100365000D01*
X147820000Y-100365000D02*
X147820000Y-99375000D01*
X150990000Y-102865000D02*
X150990000Y-100365000D01*
X150990000Y-100365000D02*
X149940000Y-100365000D01*
X147940000Y-104835000D02*
X149820000Y-104835000D01*
%TO.C,SW1*%
D11*
X21524761Y-33353333D02*
X21572380Y-33210476D01*
X21572380Y-32972380D01*
X21524761Y-32877142D01*
X21477142Y-32829523D01*
X21381904Y-32781904D01*
X21286666Y-32781904D01*
X21191428Y-32829523D01*
X21143809Y-32877142D01*
X21096190Y-32972380D01*
X21048571Y-33162857D01*
X21000952Y-33258095D01*
X20953333Y-33305714D01*
X20858095Y-33353333D01*
X20762857Y-33353333D01*
X20667619Y-33305714D01*
X20620000Y-33258095D01*
X20572380Y-33162857D01*
X20572380Y-32924761D01*
X20620000Y-32781904D01*
X20572380Y-32448571D02*
X21572380Y-32210476D01*
X20858095Y-32020000D01*
X21572380Y-31829523D01*
X20572380Y-31591428D01*
X21572380Y-30686666D02*
X21572380Y-31258095D01*
X21572380Y-30972380D02*
X20572380Y-30972380D01*
X20715238Y-31067619D01*
X20810476Y-31162857D01*
X20858095Y-31258095D01*
%TO.C,J4*%
X228046666Y-95882380D02*
X228046666Y-96596666D01*
X227999047Y-96739523D01*
X227903809Y-96834761D01*
X227760952Y-96882380D01*
X227665714Y-96882380D01*
X228951428Y-96215714D02*
X228951428Y-96882380D01*
X228713333Y-95834761D02*
X228475238Y-96549047D01*
X229094285Y-96549047D01*
%TO.C,J2*%
X148356666Y-101672380D02*
X148356666Y-102386666D01*
X148309047Y-102529523D01*
X148213809Y-102624761D01*
X148070952Y-102672380D01*
X147975714Y-102672380D01*
X148785238Y-101767619D02*
X148832857Y-101720000D01*
X148928095Y-101672380D01*
X149166190Y-101672380D01*
X149261428Y-101720000D01*
X149309047Y-101767619D01*
X149356666Y-101862857D01*
X149356666Y-101958095D01*
X149309047Y-102100952D01*
X148737619Y-102672380D01*
X149356666Y-102672380D01*
X148141904Y-106058571D02*
X148284761Y-106106190D01*
X148332380Y-106153809D01*
X148380000Y-106249047D01*
X148380000Y-106391904D01*
X148332380Y-106487142D01*
X148284761Y-106534761D01*
X148189523Y-106582380D01*
X147808571Y-106582380D01*
X147808571Y-105582380D01*
X148141904Y-105582380D01*
X148237142Y-105630000D01*
X148284761Y-105677619D01*
X148332380Y-105772857D01*
X148332380Y-105868095D01*
X148284761Y-105963333D01*
X148237142Y-106010952D01*
X148141904Y-106058571D01*
X147808571Y-106058571D01*
X148760952Y-106296666D02*
X149237142Y-106296666D01*
X148665714Y-106582380D02*
X148999047Y-105582380D01*
X149332380Y-106582380D01*
X149522857Y-105582380D02*
X150094285Y-105582380D01*
X149808571Y-106582380D02*
X149808571Y-105582380D01*
%TD*%
M02*
