%TF.GenerationSoftware,KiCad,Pcbnew,6.0.0*%
%TF.CreationDate,2021-12-30T00:13:21+01:00*%
%TF.ProjectId,ptm-60nrf,70746d2d-3630-46e7-9266-2e6b69636164,rev?*%
%TF.SameCoordinates,Original*%
%TF.FileFunction,Soldermask,Bot*%
%TF.FilePolarity,Negative*%
%FSLAX46Y46*%
G04 Gerber Fmt 4.6, Leading zero omitted, Abs format (unit mm)*
G04 Created by KiCad (PCBNEW 6.0.0) date 2021-12-30 00:13:21*
%MOMM*%
%LPD*%
G01*
G04 APERTURE LIST*
G04 Aperture macros list*
%AMRoundRect*
0 Rectangle with rounded corners*
0 $1 Rounding radius*
0 $2 $3 $4 $5 $6 $7 $8 $9 X,Y pos of 4 corners*
0 Add a 4 corners polygon primitive as box body*
4,1,4,$2,$3,$4,$5,$6,$7,$8,$9,$2,$3,0*
0 Add four circle primitives for the rounded corners*
1,1,$1+$1,$2,$3*
1,1,$1+$1,$4,$5*
1,1,$1+$1,$6,$7*
1,1,$1+$1,$8,$9*
0 Add four rect primitives between the rounded corners*
20,1,$1+$1,$2,$3,$4,$5,0*
20,1,$1+$1,$4,$5,$6,$7,0*
20,1,$1+$1,$6,$7,$8,$9,0*
20,1,$1+$1,$8,$9,$2,$3,0*%
G04 Aperture macros list end*
%ADD10C,0.100000*%
%ADD11C,0.140000*%
%ADD12C,0.090000*%
%ADD13C,0.400000*%
%ADD14C,0.150000*%
%ADD15C,7.000240*%
%ADD16C,3.987800*%
%ADD17C,3.048000*%
%ADD18C,1.750000*%
%ADD19C,2.250000*%
%ADD20R,1.700000X1.700000*%
%ADD21O,1.700000X1.700000*%
%ADD22O,9.999980X5.001260*%
%ADD23O,7.000240X7.000240*%
%ADD24R,2.000000X2.000000*%
%ADD25C,2.000000*%
%ADD26R,2.000000X3.200000*%
%ADD27RoundRect,0.243750X0.243750X0.456250X-0.243750X0.456250X-0.243750X-0.456250X0.243750X-0.456250X0*%
%ADD28R,0.500000X0.500000*%
%ADD29R,0.800000X0.900000*%
%ADD30RoundRect,0.200000X-0.200000X-0.275000X0.200000X-0.275000X0.200000X0.275000X-0.200000X0.275000X0*%
%ADD31RoundRect,0.200000X0.200000X0.275000X-0.200000X0.275000X-0.200000X-0.275000X0.200000X-0.275000X0*%
%ADD32RoundRect,0.200000X-0.275000X0.200000X-0.275000X-0.200000X0.275000X-0.200000X0.275000X0.200000X0*%
%ADD33R,0.650000X1.060000*%
%ADD34C,0.650000*%
%ADD35R,0.600000X1.450000*%
%ADD36R,0.300000X1.450000*%
%ADD37O,1.000000X1.600000*%
%ADD38O,1.000000X2.100000*%
%ADD39R,1.800000X2.500000*%
%ADD40R,1.524000X0.700000*%
%ADD41R,0.700000X1.524000*%
%ADD42RoundRect,0.140000X0.140000X0.170000X-0.140000X0.170000X-0.140000X-0.170000X0.140000X-0.170000X0*%
%ADD43RoundRect,0.150000X0.150000X0.625000X-0.150000X0.625000X-0.150000X-0.625000X0.150000X-0.625000X0*%
%ADD44RoundRect,0.249999X0.350001X0.650001X-0.350001X0.650001X-0.350001X-0.650001X0.350001X-0.650001X0*%
%ADD45RoundRect,0.250000X-0.625000X0.375000X-0.625000X-0.375000X0.625000X-0.375000X0.625000X0.375000X0*%
%ADD46RoundRect,0.135000X-0.185000X0.135000X-0.185000X-0.135000X0.185000X-0.135000X0.185000X0.135000X0*%
%ADD47C,1.400000*%
%ADD48RoundRect,0.140000X-0.140000X-0.170000X0.140000X-0.170000X0.140000X0.170000X-0.140000X0.170000X0*%
G04 APERTURE END LIST*
D10*
X20267142Y-28963583D02*
X20248095Y-28946916D01*
X20229047Y-28968345D01*
X20248095Y-28985011D01*
X20267142Y-28963583D01*
X20229047Y-28968345D01*
X20267142Y-28773107D02*
X20248095Y-28756440D01*
X20229047Y-28777869D01*
X20248095Y-28794535D01*
X20267142Y-28773107D01*
X20229047Y-28777869D01*
X20267142Y-28582630D02*
X20248095Y-28565964D01*
X20229047Y-28587392D01*
X20248095Y-28604059D01*
X20267142Y-28582630D01*
X20229047Y-28587392D01*
X20229047Y-28092154D02*
X20495714Y-28058821D01*
X20629047Y-28042154D02*
X20610000Y-28063583D01*
X20590952Y-28046916D01*
X20610000Y-28025488D01*
X20629047Y-28042154D01*
X20590952Y-28046916D01*
X20495714Y-27868345D02*
X20229047Y-27901678D01*
X20457619Y-27873107D02*
X20476666Y-27851678D01*
X20495714Y-27811202D01*
X20495714Y-27754059D01*
X20476666Y-27718345D01*
X20438571Y-27704059D01*
X20229047Y-27730250D01*
X20495714Y-27335011D02*
X20171904Y-27375488D01*
X20133809Y-27399297D01*
X20114761Y-27420726D01*
X20095714Y-27461202D01*
X20095714Y-27518345D01*
X20114761Y-27554059D01*
X20248095Y-27365964D02*
X20229047Y-27406440D01*
X20229047Y-27482630D01*
X20248095Y-27518345D01*
X20267142Y-27535011D01*
X20305238Y-27549297D01*
X20419523Y-27535011D01*
X20457619Y-27511202D01*
X20476666Y-27489773D01*
X20495714Y-27449297D01*
X20495714Y-27373107D01*
X20476666Y-27337392D01*
X20248095Y-27023107D02*
X20229047Y-27063583D01*
X20229047Y-27139773D01*
X20248095Y-27175488D01*
X20286190Y-27189773D01*
X20438571Y-27170726D01*
X20476666Y-27146916D01*
X20495714Y-27106440D01*
X20495714Y-27030250D01*
X20476666Y-26994535D01*
X20438571Y-26980250D01*
X20400476Y-26985011D01*
X20362380Y-27180250D01*
X20495714Y-26801678D02*
X20229047Y-26835011D01*
X20457619Y-26806440D02*
X20476666Y-26785011D01*
X20495714Y-26744535D01*
X20495714Y-26687392D01*
X20476666Y-26651678D01*
X20438571Y-26637392D01*
X20229047Y-26663583D01*
X20248095Y-26489773D02*
X20229047Y-26454059D01*
X20229047Y-26377869D01*
X20248095Y-26337392D01*
X20286190Y-26313583D01*
X20305238Y-26311202D01*
X20343333Y-26325488D01*
X20362380Y-26361202D01*
X20362380Y-26418345D01*
X20381428Y-26454059D01*
X20419523Y-26468345D01*
X20438571Y-26465964D01*
X20476666Y-26442154D01*
X20495714Y-26401678D01*
X20495714Y-26344535D01*
X20476666Y-26308821D01*
X20495714Y-26173107D02*
X20495714Y-26020726D01*
X20629047Y-26099297D02*
X20286190Y-26142154D01*
X20248095Y-26127869D01*
X20229047Y-26092154D01*
X20229047Y-26054059D01*
X20229047Y-25749297D02*
X20438571Y-25723107D01*
X20476666Y-25737392D01*
X20495714Y-25773107D01*
X20495714Y-25849297D01*
X20476666Y-25889773D01*
X20248095Y-25746916D02*
X20229047Y-25787392D01*
X20229047Y-25882630D01*
X20248095Y-25918345D01*
X20286190Y-25932630D01*
X20324285Y-25927869D01*
X20362380Y-25904059D01*
X20381428Y-25863583D01*
X20381428Y-25768345D01*
X20400476Y-25727869D01*
X20229047Y-25387392D02*
X20629047Y-25337392D01*
X20248095Y-25385011D02*
X20229047Y-25425488D01*
X20229047Y-25501678D01*
X20248095Y-25537392D01*
X20267142Y-25554059D01*
X20305238Y-25568345D01*
X20419523Y-25554059D01*
X20457619Y-25530250D01*
X20476666Y-25508821D01*
X20495714Y-25468345D01*
X20495714Y-25392154D01*
X20476666Y-25356440D01*
X20495714Y-24896916D02*
X20229047Y-24835011D01*
X20495714Y-24706440D01*
X20476666Y-24556440D02*
X20495714Y-24515964D01*
X20495714Y-24439773D01*
X20476666Y-24404059D01*
X20438571Y-24389773D01*
X20248095Y-24242154D02*
X20229047Y-24282630D01*
X20229047Y-24358821D01*
X20248095Y-24394535D01*
X20286190Y-24408821D01*
X20438571Y-24389773D01*
X20476666Y-24365964D01*
X20495714Y-24325488D01*
X20495714Y-24249297D01*
X20476666Y-24213583D01*
X20438571Y-24199297D01*
X20400476Y-24204059D01*
X20381428Y-24396916D01*
X20381428Y-24530250D01*
X20362380Y-24570726D01*
X20324285Y-24594535D01*
X20286190Y-24599297D01*
X20248095Y-24585011D01*
X20229047Y-24549297D01*
X20229047Y-24473107D01*
X20248095Y-24432630D01*
X20286190Y-24408821D01*
X20495714Y-24020726D02*
X20229047Y-24054059D01*
X20457619Y-24025488D02*
X20476666Y-24004059D01*
X20495714Y-23963583D01*
X20495714Y-23906440D01*
X20476666Y-23870726D01*
X20438571Y-23856440D01*
X20229047Y-23882630D01*
X20229047Y-23520726D02*
X20438571Y-23494535D01*
X20476666Y-23508821D01*
X20495714Y-23544535D01*
X20495714Y-23620726D01*
X20476666Y-23661202D01*
X20248095Y-23518345D02*
X20229047Y-23558821D01*
X20229047Y-23654059D01*
X20248095Y-23689773D01*
X20286190Y-23704059D01*
X20324285Y-23699297D01*
X20362380Y-23675488D01*
X20381428Y-23635011D01*
X20381428Y-23539773D01*
X20400476Y-23499297D01*
X20229047Y-23330250D02*
X20495714Y-23296916D01*
X20419523Y-23306440D02*
X20457619Y-23282630D01*
X20476666Y-23261202D01*
X20495714Y-23220726D01*
X20495714Y-23182630D01*
X20248095Y-22927869D02*
X20229047Y-22968345D01*
X20229047Y-23044535D01*
X20248095Y-23080250D01*
X20286190Y-23094535D01*
X20438571Y-23075488D01*
X20476666Y-23051678D01*
X20495714Y-23011202D01*
X20495714Y-22935011D01*
X20476666Y-22899297D01*
X20438571Y-22885011D01*
X20400476Y-22889773D01*
X20362380Y-23085011D01*
X20248095Y-22451678D02*
X20229047Y-22415964D01*
X20229047Y-22339773D01*
X20248095Y-22299297D01*
X20286190Y-22275488D01*
X20305238Y-22273107D01*
X20343333Y-22287392D01*
X20362380Y-22323107D01*
X20362380Y-22380250D01*
X20381428Y-22415964D01*
X20419523Y-22430250D01*
X20438571Y-22427869D01*
X20476666Y-22404059D01*
X20495714Y-22363583D01*
X20495714Y-22306440D01*
X20476666Y-22270726D01*
X20495714Y-22077869D02*
X20152857Y-22120726D01*
X20114761Y-22144535D01*
X20095714Y-22185011D01*
X20095714Y-22204059D01*
X20629047Y-22061202D02*
X20610000Y-22082630D01*
X20590952Y-22065964D01*
X20610000Y-22044535D01*
X20629047Y-22061202D01*
X20590952Y-22065964D01*
X20229047Y-21749297D02*
X20438571Y-21723107D01*
X20476666Y-21737392D01*
X20495714Y-21773107D01*
X20495714Y-21849297D01*
X20476666Y-21889773D01*
X20248095Y-21746916D02*
X20229047Y-21787392D01*
X20229047Y-21882630D01*
X20248095Y-21918345D01*
X20286190Y-21932630D01*
X20324285Y-21927869D01*
X20362380Y-21904059D01*
X20381428Y-21863583D01*
X20381428Y-21768345D01*
X20400476Y-21727869D01*
X20229047Y-21387392D02*
X20438571Y-21361202D01*
X20476666Y-21375488D01*
X20495714Y-21411202D01*
X20495714Y-21487392D01*
X20476666Y-21527869D01*
X20248095Y-21385011D02*
X20229047Y-21425488D01*
X20229047Y-21520726D01*
X20248095Y-21556440D01*
X20286190Y-21570726D01*
X20324285Y-21565964D01*
X20362380Y-21542154D01*
X20381428Y-21501678D01*
X20381428Y-21406440D01*
X20400476Y-21365964D01*
D11*
X300552642Y-99424285D02*
X299652642Y-99424285D01*
X300295500Y-99724285D01*
X299652642Y-100024285D01*
X300552642Y-100024285D01*
X300552642Y-100838571D02*
X300081214Y-100838571D01*
X299995500Y-100795714D01*
X299952642Y-100710000D01*
X299952642Y-100538571D01*
X299995500Y-100452857D01*
X300509785Y-100838571D02*
X300552642Y-100752857D01*
X300552642Y-100538571D01*
X300509785Y-100452857D01*
X300424071Y-100410000D01*
X300338357Y-100410000D01*
X300252642Y-100452857D01*
X300209785Y-100538571D01*
X300209785Y-100752857D01*
X300166928Y-100838571D01*
X300552642Y-101652857D02*
X299652642Y-101652857D01*
X300509785Y-101652857D02*
X300552642Y-101567142D01*
X300552642Y-101395714D01*
X300509785Y-101310000D01*
X300466928Y-101267142D01*
X300381214Y-101224285D01*
X300124071Y-101224285D01*
X300038357Y-101267142D01*
X299995500Y-101310000D01*
X299952642Y-101395714D01*
X299952642Y-101567142D01*
X299995500Y-101652857D01*
X300509785Y-102424285D02*
X300552642Y-102338571D01*
X300552642Y-102167142D01*
X300509785Y-102081428D01*
X300424071Y-102038571D01*
X300081214Y-102038571D01*
X299995500Y-102081428D01*
X299952642Y-102167142D01*
X299952642Y-102338571D01*
X299995500Y-102424285D01*
X300081214Y-102467142D01*
X300166928Y-102467142D01*
X300252642Y-102038571D01*
X299952642Y-103452857D02*
X300552642Y-103624285D01*
X300124071Y-103795714D01*
X300552642Y-103967142D01*
X299952642Y-104138571D01*
X300552642Y-104481428D02*
X299952642Y-104481428D01*
X299652642Y-104481428D02*
X299695500Y-104438571D01*
X299738357Y-104481428D01*
X299695500Y-104524285D01*
X299652642Y-104481428D01*
X299738357Y-104481428D01*
X299952642Y-104781428D02*
X299952642Y-105124285D01*
X299652642Y-104910000D02*
X300424071Y-104910000D01*
X300509785Y-104952857D01*
X300552642Y-105038571D01*
X300552642Y-105124285D01*
X300552642Y-105424285D02*
X299652642Y-105424285D01*
X300552642Y-105810000D02*
X300081214Y-105810000D01*
X299995500Y-105767142D01*
X299952642Y-105681428D01*
X299952642Y-105552857D01*
X299995500Y-105467142D01*
X300038357Y-105424285D01*
X300552642Y-106924285D02*
X299652642Y-106924285D01*
X300552642Y-107438571D02*
X300038357Y-107052857D01*
X299652642Y-107438571D02*
X300166928Y-106924285D01*
X300552642Y-107824285D02*
X299952642Y-107824285D01*
X299652642Y-107824285D02*
X299695500Y-107781428D01*
X299738357Y-107824285D01*
X299695500Y-107867142D01*
X299652642Y-107824285D01*
X299738357Y-107824285D01*
X300466928Y-108767142D02*
X300509785Y-108724285D01*
X300552642Y-108595714D01*
X300552642Y-108510000D01*
X300509785Y-108381428D01*
X300424071Y-108295714D01*
X300338357Y-108252857D01*
X300166928Y-108210000D01*
X300038357Y-108210000D01*
X299866928Y-108252857D01*
X299781214Y-108295714D01*
X299695500Y-108381428D01*
X299652642Y-108510000D01*
X299652642Y-108595714D01*
X299695500Y-108724285D01*
X299738357Y-108767142D01*
X300295500Y-109110000D02*
X300295500Y-109538571D01*
X300552642Y-109024285D02*
X299652642Y-109324285D01*
X300552642Y-109624285D01*
X300552642Y-109924285D02*
X299652642Y-109924285D01*
X299652642Y-110138571D01*
X299695500Y-110267142D01*
X299781214Y-110352857D01*
X299866928Y-110395714D01*
X300038357Y-110438571D01*
X300166928Y-110438571D01*
X300338357Y-110395714D01*
X300424071Y-110352857D01*
X300509785Y-110267142D01*
X300552642Y-110138571D01*
X300552642Y-109924285D01*
X301101642Y-100860000D02*
X301101642Y-101031428D01*
X301144500Y-101117142D01*
X301230214Y-101202857D01*
X301401642Y-101245714D01*
X301701642Y-101245714D01*
X301873071Y-101202857D01*
X301958785Y-101117142D01*
X302001642Y-101031428D01*
X302001642Y-100860000D01*
X301958785Y-100774285D01*
X301873071Y-100688571D01*
X301701642Y-100645714D01*
X301401642Y-100645714D01*
X301230214Y-100688571D01*
X301144500Y-100774285D01*
X301101642Y-100860000D01*
X301401642Y-101631428D02*
X302001642Y-101631428D01*
X301487357Y-101631428D02*
X301444500Y-101674285D01*
X301401642Y-101760000D01*
X301401642Y-101888571D01*
X301444500Y-101974285D01*
X301530214Y-102017142D01*
X302001642Y-102017142D01*
X301744500Y-103088571D02*
X301744500Y-103517142D01*
X302001642Y-103002857D02*
X301101642Y-103302857D01*
X302001642Y-103602857D01*
X302001642Y-103902857D02*
X301401642Y-103902857D01*
X301573071Y-103902857D02*
X301487357Y-103945714D01*
X301444500Y-103988571D01*
X301401642Y-104074285D01*
X301401642Y-104160000D01*
X301958785Y-104845714D02*
X302001642Y-104760000D01*
X302001642Y-104588571D01*
X301958785Y-104502857D01*
X301915928Y-104460000D01*
X301830214Y-104417142D01*
X301573071Y-104417142D01*
X301487357Y-104460000D01*
X301444500Y-104502857D01*
X301401642Y-104588571D01*
X301401642Y-104760000D01*
X301444500Y-104845714D01*
X302001642Y-105231428D02*
X301101642Y-105231428D01*
X302001642Y-105617142D02*
X301530214Y-105617142D01*
X301444500Y-105574285D01*
X301401642Y-105488571D01*
X301401642Y-105360000D01*
X301444500Y-105274285D01*
X301487357Y-105231428D01*
X302001642Y-106474285D02*
X302001642Y-106045714D01*
X301101642Y-106045714D01*
X302001642Y-106774285D02*
X301401642Y-106774285D01*
X301101642Y-106774285D02*
X301144500Y-106731428D01*
X301187357Y-106774285D01*
X301144500Y-106817142D01*
X301101642Y-106774285D01*
X301187357Y-106774285D01*
X301401642Y-107202857D02*
X302001642Y-107202857D01*
X301487357Y-107202857D02*
X301444500Y-107245714D01*
X301401642Y-107331428D01*
X301401642Y-107460000D01*
X301444500Y-107545714D01*
X301530214Y-107588571D01*
X302001642Y-107588571D01*
X301401642Y-108402857D02*
X302001642Y-108402857D01*
X301401642Y-108017142D02*
X301873071Y-108017142D01*
X301958785Y-108060000D01*
X302001642Y-108145714D01*
X302001642Y-108274285D01*
X301958785Y-108360000D01*
X301915928Y-108402857D01*
X302001642Y-108745714D02*
X301401642Y-109217142D01*
X301401642Y-108745714D02*
X302001642Y-109217142D01*
D12*
X302104285Y-109639523D02*
X302128095Y-109710952D01*
X302151904Y-109734761D01*
X302199523Y-109758571D01*
X302270952Y-109758571D01*
X302318571Y-109734761D01*
X302342380Y-109710952D01*
X302366190Y-109663333D01*
X302366190Y-109472857D01*
X301866190Y-109472857D01*
X301866190Y-109639523D01*
X301890000Y-109687142D01*
X301913809Y-109710952D01*
X301961428Y-109734761D01*
X302009047Y-109734761D01*
X302056666Y-109710952D01*
X302080476Y-109687142D01*
X302104285Y-109639523D01*
X302104285Y-109472857D01*
X301866190Y-109901428D02*
X301866190Y-110187142D01*
X302366190Y-110044285D02*
X301866190Y-110044285D01*
X301866190Y-110306190D02*
X302366190Y-110425238D01*
X302009047Y-110520476D01*
X302366190Y-110615714D01*
X301866190Y-110734761D01*
D13*
X41408095Y-55567142D02*
X42931904Y-55567142D01*
X34048095Y-55557142D02*
X35571904Y-55557142D01*
X34810000Y-54795238D02*
X34810000Y-56319047D01*
D14*
X154886190Y-106192380D02*
X154886190Y-105192380D01*
X154505238Y-105192380D01*
X154410000Y-105240000D01*
X154362380Y-105287619D01*
X154314761Y-105382857D01*
X154314761Y-105525714D01*
X154362380Y-105620952D01*
X154410000Y-105668571D01*
X154505238Y-105716190D01*
X154886190Y-105716190D01*
X153743333Y-106192380D02*
X153838571Y-106144761D01*
X153886190Y-106097142D01*
X153933809Y-106001904D01*
X153933809Y-105716190D01*
X153886190Y-105620952D01*
X153838571Y-105573333D01*
X153743333Y-105525714D01*
X153600476Y-105525714D01*
X153505238Y-105573333D01*
X153457619Y-105620952D01*
X153410000Y-105716190D01*
X153410000Y-106001904D01*
X153457619Y-106097142D01*
X153505238Y-106144761D01*
X153600476Y-106192380D01*
X153743333Y-106192380D01*
X153076666Y-105525714D02*
X152886190Y-106192380D01*
X152695714Y-105716190D01*
X152505238Y-106192380D01*
X152314761Y-105525714D01*
X151552857Y-106144761D02*
X151648095Y-106192380D01*
X151838571Y-106192380D01*
X151933809Y-106144761D01*
X151981428Y-106049523D01*
X151981428Y-105668571D01*
X151933809Y-105573333D01*
X151838571Y-105525714D01*
X151648095Y-105525714D01*
X151552857Y-105573333D01*
X151505238Y-105668571D01*
X151505238Y-105763809D01*
X151981428Y-105859047D01*
X151076666Y-106192380D02*
X151076666Y-105525714D01*
X151076666Y-105716190D02*
X151029047Y-105620952D01*
X150981428Y-105573333D01*
X150886190Y-105525714D01*
X150790952Y-105525714D01*
D15*
%TO.C,HOLE*%
X147370000Y-65420000D03*
%TD*%
D16*
%TO.C,MX66*%
X218830000Y-95225000D03*
X104530000Y-95225000D03*
D17*
X218830000Y-110465000D03*
X104530000Y-110465000D03*
D18*
X166760000Y-103480000D03*
X156600000Y-103480000D03*
D19*
X157870000Y-100940000D03*
D16*
X161680000Y-103480000D03*
D19*
X164220000Y-98400000D03*
%TD*%
D15*
%TO.C,HOLE*%
X209170000Y-103720000D03*
X209170000Y-103720000D03*
%TD*%
D20*
%TO.C,J4*%
X228375000Y-106015000D03*
D21*
X228375000Y-103475000D03*
X228375000Y-100935000D03*
X228375000Y-98395000D03*
%TD*%
D18*
%TO.C,MX2*%
X52451000Y-27305000D03*
X42291000Y-27305000D03*
D16*
X47371000Y-27305000D03*
D19*
X43561000Y-24765000D03*
X49911000Y-22225000D03*
%TD*%
D18*
%TO.C,MX3*%
X71501000Y-27305000D03*
X61341000Y-27305000D03*
D16*
X66421000Y-27305000D03*
D19*
X62611000Y-24765000D03*
X68961000Y-22225000D03*
%TD*%
D18*
%TO.C,MX4*%
X90551000Y-27305000D03*
X80391000Y-27305000D03*
D16*
X85471000Y-27305000D03*
D19*
X81661000Y-24765000D03*
X88011000Y-22225000D03*
%TD*%
D16*
%TO.C,MX5*%
X104521000Y-27305000D03*
D18*
X99441000Y-27305000D03*
X109601000Y-27305000D03*
D19*
X100711000Y-24765000D03*
X107061000Y-22225000D03*
%TD*%
D18*
%TO.C,MX7*%
X147701000Y-27305000D03*
X137541000Y-27305000D03*
D16*
X142621000Y-27305000D03*
D19*
X138811000Y-24765000D03*
X145161000Y-22225000D03*
%TD*%
D16*
%TO.C,MX8*%
X161671000Y-27305000D03*
D18*
X156591000Y-27305000D03*
X166751000Y-27305000D03*
D19*
X157861000Y-24765000D03*
X164211000Y-22225000D03*
%TD*%
D18*
%TO.C,MX9*%
X185801000Y-27305000D03*
X175641000Y-27305000D03*
D16*
X180721000Y-27305000D03*
D19*
X176911000Y-24765000D03*
X183261000Y-22225000D03*
%TD*%
D16*
%TO.C,MX10*%
X199771000Y-27305000D03*
D18*
X204851000Y-27305000D03*
X194691000Y-27305000D03*
D19*
X195961000Y-24765000D03*
X202311000Y-22225000D03*
%TD*%
D18*
%TO.C,MX11*%
X223901000Y-27305000D03*
D16*
X218821000Y-27305000D03*
D18*
X213741000Y-27305000D03*
D19*
X215011000Y-24765000D03*
X221361000Y-22225000D03*
%TD*%
D16*
%TO.C,MX12*%
X237871000Y-27305000D03*
D18*
X232791000Y-27305000D03*
X242951000Y-27305000D03*
D19*
X234061000Y-24765000D03*
X240411000Y-22225000D03*
%TD*%
D18*
%TO.C,MX13*%
X262001000Y-27305000D03*
D16*
X256921000Y-27305000D03*
D18*
X251841000Y-27305000D03*
D19*
X253111000Y-24765000D03*
X259461000Y-22225000D03*
%TD*%
D18*
%TO.C,MX14*%
X281051000Y-27305000D03*
X270891000Y-27305000D03*
D16*
X275971000Y-27305000D03*
D19*
X272161000Y-24765000D03*
X278511000Y-22225000D03*
%TD*%
D16*
%TO.C,MX15*%
X273589750Y-35560000D03*
D18*
X280416000Y-27305000D03*
D17*
X273589750Y-20320000D03*
D16*
X285496000Y-27305000D03*
D18*
X290576000Y-27305000D03*
D16*
X297402250Y-35560000D03*
D17*
X297402250Y-20320000D03*
D19*
X281686000Y-24765000D03*
X288036000Y-22225000D03*
%TD*%
D18*
%TO.C,MX17*%
X38164250Y-46354500D03*
D16*
X33084250Y-46354500D03*
D18*
X28004250Y-46354500D03*
D19*
X29274250Y-43814500D03*
X35624250Y-41274500D03*
%TD*%
D18*
%TO.C,MX18*%
X51816000Y-46355000D03*
D16*
X56896000Y-46355000D03*
D18*
X61976000Y-46355000D03*
D19*
X53086000Y-43815000D03*
X59436000Y-41275000D03*
%TD*%
D18*
%TO.C,MX20*%
X89895554Y-46348542D03*
X100055554Y-46348542D03*
D16*
X94975554Y-46348542D03*
D19*
X91165554Y-43808542D03*
X97515554Y-41268542D03*
%TD*%
D18*
%TO.C,MX21*%
X119105554Y-46348542D03*
X108945554Y-46348542D03*
D16*
X114025554Y-46348542D03*
D19*
X110215554Y-43808542D03*
X116565554Y-41268542D03*
%TD*%
D18*
%TO.C,MX22*%
X127995554Y-46348542D03*
X138155554Y-46348542D03*
D16*
X133075554Y-46348542D03*
D19*
X129265554Y-43808542D03*
X135615554Y-41268542D03*
%TD*%
D18*
%TO.C,MX23*%
X147045554Y-46348542D03*
X157205554Y-46348542D03*
D16*
X152125554Y-46348542D03*
D19*
X148315554Y-43808542D03*
X154665554Y-41268542D03*
%TD*%
D18*
%TO.C,MX24*%
X166095554Y-46348542D03*
X176255554Y-46348542D03*
D16*
X171175554Y-46348542D03*
D19*
X167365554Y-43808542D03*
X173715554Y-41268542D03*
%TD*%
D18*
%TO.C,MX25*%
X185145554Y-46348542D03*
D16*
X190225554Y-46348542D03*
D18*
X195305554Y-46348542D03*
D19*
X186415554Y-43808542D03*
X192765554Y-41268542D03*
%TD*%
D18*
%TO.C,MX26*%
X204195554Y-46348542D03*
X214355554Y-46348542D03*
D16*
X209275554Y-46348542D03*
D19*
X205465554Y-43808542D03*
X211815554Y-41268542D03*
%TD*%
D18*
%TO.C,MX27*%
X223245554Y-46348542D03*
D16*
X228325554Y-46348542D03*
D18*
X233405554Y-46348542D03*
D19*
X224515554Y-43808542D03*
X230865554Y-41268542D03*
%TD*%
D16*
%TO.C,MX28*%
X247375554Y-46348542D03*
D18*
X252455554Y-46348542D03*
X242295554Y-46348542D03*
D19*
X243565554Y-43808542D03*
X249915554Y-41268542D03*
%TD*%
D16*
%TO.C,MX29*%
X266425554Y-46348542D03*
D18*
X261345554Y-46348542D03*
X271505554Y-46348542D03*
D19*
X262615554Y-43808542D03*
X268965554Y-41268542D03*
%TD*%
D18*
%TO.C,MX30*%
X295305554Y-46348542D03*
D16*
X290225554Y-46348542D03*
D18*
X285145554Y-46348542D03*
D19*
X286415554Y-43808542D03*
X292765554Y-41268542D03*
%TD*%
D18*
%TO.C,MX31*%
X25629250Y-65404500D03*
D16*
X30709250Y-65404500D03*
D18*
X35789250Y-65404500D03*
D19*
X26899250Y-62864500D03*
X33249250Y-60324500D03*
%TD*%
D16*
%TO.C,MX33*%
X61658500Y-65405000D03*
D18*
X56578500Y-65405000D03*
X66738500Y-65405000D03*
D19*
X57848500Y-62865000D03*
X64198500Y-60325000D03*
%TD*%
D18*
%TO.C,MX34*%
X85768054Y-65398542D03*
D16*
X80688054Y-65398542D03*
D18*
X75608054Y-65398542D03*
D19*
X76878054Y-62858542D03*
X83228054Y-60318542D03*
%TD*%
D18*
%TO.C,MX35*%
X94658054Y-65398542D03*
D16*
X99738054Y-65398542D03*
D18*
X104818054Y-65398542D03*
D19*
X95928054Y-62858542D03*
X102278054Y-60318542D03*
%TD*%
D18*
%TO.C,MX36*%
X123868054Y-65398542D03*
D16*
X118788054Y-65398542D03*
D18*
X113708054Y-65398542D03*
D19*
X114978054Y-62858542D03*
X121328054Y-60318542D03*
%TD*%
D16*
%TO.C,MX37*%
X137838054Y-65398542D03*
D18*
X132758054Y-65398542D03*
X142918054Y-65398542D03*
D19*
X134028054Y-62858542D03*
X140378054Y-60318542D03*
%TD*%
D16*
%TO.C,MX38*%
X156888054Y-65398542D03*
D18*
X161968054Y-65398542D03*
X151808054Y-65398542D03*
D19*
X153078054Y-62858542D03*
X159428054Y-60318542D03*
%TD*%
D16*
%TO.C,MX39*%
X175938054Y-65398542D03*
D18*
X181018054Y-65398542D03*
X170858054Y-65398542D03*
D19*
X172128054Y-62858542D03*
X178478054Y-60318542D03*
%TD*%
D18*
%TO.C,MX40*%
X200068054Y-65398542D03*
D16*
X194988054Y-65398542D03*
D18*
X189908054Y-65398542D03*
D19*
X191178054Y-62858542D03*
X197528054Y-60318542D03*
%TD*%
D16*
%TO.C,MX41*%
X214038054Y-65398542D03*
D18*
X208958054Y-65398542D03*
X219118054Y-65398542D03*
D19*
X210228054Y-62858542D03*
X216578054Y-60318542D03*
%TD*%
D18*
%TO.C,MX42*%
X238168054Y-65398542D03*
X228008054Y-65398542D03*
D16*
X233088054Y-65398542D03*
D19*
X229278054Y-62858542D03*
X235628054Y-60318542D03*
%TD*%
D16*
%TO.C,MX43*%
X252138054Y-65398542D03*
D18*
X257218054Y-65398542D03*
X247058054Y-65398542D03*
D19*
X248328054Y-62858542D03*
X254678054Y-60318542D03*
%TD*%
D16*
%TO.C,MX45*%
X283063054Y-65398542D03*
D17*
X294969304Y-58413542D03*
D18*
X277983054Y-65398542D03*
D16*
X294969304Y-73653542D03*
D17*
X271156804Y-58413542D03*
D16*
X271156804Y-73653542D03*
D18*
X288143054Y-65398542D03*
D19*
X279253054Y-62858542D03*
X285603054Y-60318542D03*
%TD*%
D18*
%TO.C,MX47*%
X35789250Y-84454500D03*
D16*
X30709250Y-84454500D03*
D18*
X25629250Y-84454500D03*
D19*
X26899250Y-81914500D03*
X33249250Y-79374500D03*
%TD*%
D18*
%TO.C,MX48*%
X35179250Y-84454500D03*
D17*
X28353000Y-77469500D03*
D16*
X28353000Y-92709500D03*
D18*
X45339250Y-84454500D03*
D16*
X40259250Y-84454500D03*
D17*
X52165500Y-77469500D03*
D16*
X52165500Y-92709500D03*
D19*
X36449250Y-81914500D03*
X42799250Y-79374500D03*
%TD*%
D16*
%TO.C,MX49*%
X52133500Y-84455000D03*
D18*
X47053500Y-84455000D03*
X57213500Y-84455000D03*
D19*
X48323500Y-81915000D03*
X54673500Y-79375000D03*
%TD*%
D18*
%TO.C,MX50*%
X76243054Y-84448542D03*
X66083054Y-84448542D03*
D16*
X71163054Y-84448542D03*
D19*
X67353054Y-81908542D03*
X73703054Y-79368542D03*
%TD*%
D18*
%TO.C,MX51*%
X85133054Y-84448542D03*
X95293054Y-84448542D03*
D16*
X90213054Y-84448542D03*
D19*
X86403054Y-81908542D03*
X92753054Y-79368542D03*
%TD*%
D18*
%TO.C,MX52*%
X114343054Y-84448542D03*
X104183054Y-84448542D03*
D16*
X109263054Y-84448542D03*
D19*
X105453054Y-81908542D03*
X111803054Y-79368542D03*
%TD*%
D18*
%TO.C,MX53*%
X133393054Y-84448542D03*
D16*
X128313054Y-84448542D03*
D18*
X123233054Y-84448542D03*
D19*
X124503054Y-81908542D03*
X130853054Y-79368542D03*
%TD*%
D16*
%TO.C,MX54*%
X147363054Y-84448542D03*
D18*
X152443054Y-84448542D03*
X142283054Y-84448542D03*
D19*
X143553054Y-81908542D03*
X149903054Y-79368542D03*
%TD*%
D16*
%TO.C,MX57*%
X204513054Y-84448542D03*
D18*
X209593054Y-84448542D03*
X199433054Y-84448542D03*
D19*
X200703054Y-81908542D03*
X207053054Y-79368542D03*
%TD*%
D18*
%TO.C,MX59*%
X237533054Y-84448542D03*
D16*
X242613054Y-84448542D03*
D18*
X247693054Y-84448542D03*
D19*
X238803054Y-81908542D03*
X245153054Y-79368542D03*
%TD*%
D16*
%TO.C,MX60*%
X268859000Y-84455000D03*
D18*
X273939000Y-84455000D03*
X263779000Y-84455000D03*
D19*
X265049000Y-81915000D03*
X271399000Y-79375000D03*
%TD*%
D16*
%TO.C,MX61*%
X266477750Y-92710000D03*
D18*
X283464000Y-84455000D03*
X273304000Y-84455000D03*
D16*
X290290250Y-92710000D03*
X278384000Y-84455000D03*
D17*
X290290250Y-77470000D03*
X266477750Y-77470000D03*
D19*
X274574000Y-81915000D03*
X280924000Y-79375000D03*
%TD*%
D16*
%TO.C,MX62*%
X295021000Y-84455000D03*
D18*
X300101000Y-84455000D03*
X289941000Y-84455000D03*
D19*
X291211000Y-81915000D03*
X297561000Y-79375000D03*
%TD*%
D18*
%TO.C,MX64*%
X61976000Y-103505000D03*
D16*
X56896000Y-103505000D03*
D18*
X51816000Y-103505000D03*
D19*
X53086000Y-100965000D03*
X59436000Y-98425000D03*
%TD*%
D18*
%TO.C,MX65*%
X75627500Y-103504500D03*
X85787500Y-103504500D03*
D16*
X80707500Y-103504500D03*
D19*
X76897500Y-100964500D03*
X83247500Y-98424500D03*
%TD*%
D16*
%TO.C,MX67*%
X242632500Y-103505000D03*
D18*
X237552500Y-103505000D03*
X247712500Y-103505000D03*
D19*
X238822500Y-100965000D03*
X245172500Y-98425000D03*
%TD*%
D16*
%TO.C,MX68*%
X266446000Y-103505000D03*
D18*
X271526000Y-103505000D03*
X261366000Y-103505000D03*
D19*
X262636000Y-100965000D03*
X268986000Y-98425000D03*
%TD*%
D16*
%TO.C,MX69*%
X290259500Y-103505000D03*
D18*
X285179500Y-103505000D03*
X295339500Y-103505000D03*
D19*
X286449500Y-100965000D03*
X292799500Y-98425000D03*
%TD*%
D18*
%TO.C,MX6*%
X128651000Y-27305000D03*
X118491000Y-27305000D03*
D16*
X123571000Y-27305000D03*
D19*
X119761000Y-24765000D03*
X126111000Y-22225000D03*
%TD*%
D16*
%TO.C,MX16*%
X295021000Y-27305000D03*
D18*
X300101000Y-27305000D03*
X289941000Y-27305000D03*
D19*
X291211000Y-24765000D03*
X297561000Y-22225000D03*
%TD*%
D18*
%TO.C,MX1*%
X33401000Y-27305000D03*
D16*
X28321000Y-27305000D03*
D18*
X23241000Y-27305000D03*
D19*
X24511000Y-24765000D03*
X30861000Y-22225000D03*
%TD*%
D18*
%TO.C,MX19*%
X81005554Y-46348542D03*
X70845554Y-46348542D03*
D16*
X75925554Y-46348542D03*
D19*
X72115554Y-43808542D03*
X78465554Y-41268542D03*
%TD*%
D18*
%TO.C,MX32*%
X40558000Y-65404500D03*
D16*
X35478000Y-65404500D03*
D18*
X30398000Y-65404500D03*
D19*
X31668000Y-62864500D03*
X38018000Y-60324500D03*
%TD*%
D18*
%TO.C,MX46*%
X297693054Y-55873542D03*
D16*
X284358054Y-67811542D03*
X292613054Y-55873542D03*
X284358054Y-43935542D03*
D17*
X299598054Y-67811542D03*
X299598054Y-43935542D03*
D18*
X287533054Y-55873542D03*
D19*
X288803054Y-53333542D03*
X295153054Y-50793542D03*
%TD*%
D16*
%TO.C,MX44*%
X271188054Y-65398542D03*
D18*
X266108054Y-65398542D03*
X276268054Y-65398542D03*
D19*
X267378054Y-62858542D03*
X273728054Y-60318542D03*
%TD*%
D18*
%TO.C,MX63*%
X38164250Y-103504500D03*
D16*
X33084250Y-103504500D03*
D18*
X28004250Y-103504500D03*
D19*
X29274250Y-100964500D03*
X35624250Y-98424500D03*
%TD*%
D22*
%TO.C,HOLE*%
X19650000Y-75070000D03*
%TD*%
D23*
%TO.C,HOLE*%
X45220000Y-46460000D03*
%TD*%
D15*
%TO.C,HOLE*%
X277860000Y-46210000D03*
%TD*%
D22*
%TO.C,HOLE*%
X303440000Y-75000000D03*
%TD*%
D16*
%TO.C,MX58*%
X223563054Y-84448542D03*
D18*
X228643054Y-84448542D03*
X218483054Y-84448542D03*
D19*
X219753054Y-81908542D03*
X226103054Y-79368542D03*
%TD*%
D16*
%TO.C,MX56*%
X185463054Y-84448542D03*
D18*
X190543054Y-84448542D03*
X180383054Y-84448542D03*
D19*
X181653054Y-81908542D03*
X188003054Y-79368542D03*
%TD*%
D18*
%TO.C,MX55*%
X161333054Y-84448542D03*
X171493054Y-84448542D03*
D16*
X166413054Y-84448542D03*
D19*
X162603054Y-81908542D03*
X168953054Y-79368542D03*
%TD*%
D24*
%TO.C,SW1*%
X25820000Y-34820000D03*
D25*
X30820000Y-34820000D03*
X28320000Y-34820000D03*
D26*
X33920000Y-27320000D03*
X22720000Y-27320000D03*
D25*
X30820000Y-20320000D03*
X25820000Y-20320000D03*
%TD*%
D27*
%TO.C,D1*%
X148827500Y-95800000D03*
X146952500Y-95800000D03*
%TD*%
D28*
%TO.C,D18*%
X39110000Y-72500000D03*
X39110000Y-70300000D03*
%TD*%
%TO.C,D34*%
X83230000Y-89020000D03*
X83230000Y-91220000D03*
%TD*%
D29*
%TO.C,Q1*%
X140630000Y-99070000D03*
X138730000Y-99070000D03*
X139680000Y-97070000D03*
%TD*%
D30*
%TO.C,R1*%
X150725000Y-95800000D03*
X152375000Y-95800000D03*
%TD*%
D31*
%TO.C,R2*%
X152345000Y-97890000D03*
X150695000Y-97890000D03*
%TD*%
D32*
%TO.C,R3*%
X133096000Y-94679000D03*
X133096000Y-96329000D03*
%TD*%
D30*
%TO.C,R6*%
X173370000Y-100040000D03*
X175020000Y-100040000D03*
%TD*%
D33*
%TO.C,U2*%
X136810000Y-101130000D03*
X137760000Y-101130000D03*
X138710000Y-101130000D03*
X138710000Y-103330000D03*
X136810000Y-103330000D03*
%TD*%
D31*
%TO.C,R7*%
X175020000Y-101690000D03*
X173370000Y-101690000D03*
%TD*%
D34*
%TO.C,J1*%
X40482000Y-22158000D03*
X34702000Y-22158000D03*
D35*
X34342000Y-23603000D03*
X35142000Y-23603000D03*
D36*
X36342000Y-23603000D03*
X37342000Y-23603000D03*
X37842000Y-23603000D03*
X38842000Y-23603000D03*
D35*
X40042000Y-23603000D03*
X40842000Y-23603000D03*
X40842000Y-23603000D03*
X40042000Y-23603000D03*
D36*
X39342000Y-23603000D03*
X38342000Y-23603000D03*
X36842000Y-23603000D03*
X35842000Y-23603000D03*
D35*
X35142000Y-23603000D03*
X34342000Y-23603000D03*
D37*
X33272000Y-18508000D03*
X41912000Y-18508000D03*
D38*
X41912000Y-22688000D03*
X33272000Y-22688000D03*
%TD*%
D39*
%TO.C,D2*%
X136144000Y-98520000D03*
X136144000Y-94520000D03*
%TD*%
D40*
%TO.C,U3*%
X199565000Y-96188000D03*
X199565000Y-97288000D03*
X199565000Y-98388000D03*
X199565000Y-99488000D03*
X199565000Y-100588000D03*
X199565000Y-101688000D03*
X199565000Y-102788000D03*
X199565000Y-103888000D03*
X199565000Y-104988000D03*
X191065000Y-96188000D03*
X191065000Y-97288000D03*
X191065000Y-98388000D03*
X191065000Y-99488000D03*
X191065000Y-100588000D03*
X191065000Y-101688000D03*
X191065000Y-102788000D03*
X191065000Y-103888000D03*
X191065000Y-104988000D03*
X202065000Y-107188000D03*
X202065000Y-106088000D03*
X202065000Y-104988000D03*
X202065000Y-103888000D03*
X202065000Y-102788000D03*
X202065000Y-101688000D03*
X202065000Y-100588000D03*
X202065000Y-99488000D03*
X202065000Y-98388000D03*
X202065000Y-97288000D03*
X202065000Y-96188000D03*
X202065000Y-95088000D03*
X202065000Y-93988000D03*
D41*
X200815000Y-92488000D03*
X199715000Y-92488000D03*
X198615000Y-92488000D03*
X197515000Y-92488000D03*
X196415000Y-92488000D03*
X195315000Y-92488000D03*
X194215000Y-92488000D03*
X193115000Y-92488000D03*
X192015000Y-92488000D03*
X190915000Y-92488000D03*
X189815000Y-92488000D03*
D40*
X188565000Y-93988000D03*
X188565000Y-95088000D03*
X188565000Y-96188000D03*
X188565000Y-97288000D03*
X188565000Y-98388000D03*
X188565000Y-99488000D03*
X188565000Y-100588000D03*
X188565000Y-101688000D03*
X188565000Y-102788000D03*
X188565000Y-103888000D03*
X188565000Y-104988000D03*
X188565000Y-106088000D03*
X188565000Y-107188000D03*
%TD*%
D33*
%TO.C,U4*%
X38540000Y-31700000D03*
X37590000Y-31700000D03*
X36640000Y-31700000D03*
X36640000Y-29500000D03*
X37590000Y-29500000D03*
X38540000Y-29500000D03*
%TD*%
D32*
%TO.C,R4*%
X41260000Y-29905000D03*
X41260000Y-31555000D03*
%TD*%
%TO.C,R5*%
X33933000Y-29973000D03*
X33933000Y-31623000D03*
%TD*%
D33*
%TO.C,U1*%
X148930000Y-100100000D03*
X147980000Y-100100000D03*
X147030000Y-100100000D03*
X147030000Y-97900000D03*
X148930000Y-97900000D03*
%TD*%
D28*
%TO.C,D3*%
X34950000Y-37380000D03*
X32750000Y-37380000D03*
%TD*%
D29*
%TO.C,D4*%
X57120000Y-32680000D03*
X59020000Y-32680000D03*
X58070000Y-34680000D03*
%TD*%
%TO.C,D5*%
X95220000Y-32680000D03*
X97120000Y-32680000D03*
X96170000Y-34680000D03*
%TD*%
%TO.C,D6*%
X133320000Y-32680000D03*
X135220000Y-32680000D03*
X134270000Y-34680000D03*
%TD*%
%TO.C,D7*%
X171420000Y-32680000D03*
X173320000Y-32680000D03*
X172370000Y-34680000D03*
%TD*%
%TO.C,D8*%
X209520000Y-32680000D03*
X211420000Y-32680000D03*
X210470000Y-34680000D03*
%TD*%
%TO.C,D9*%
X247620000Y-32680000D03*
X249520000Y-32680000D03*
X248570000Y-34680000D03*
%TD*%
%TO.C,D10*%
X279690000Y-32250000D03*
X281590000Y-32250000D03*
X280640000Y-34250000D03*
%TD*%
%TO.C,D13*%
X126530000Y-38100000D03*
X124630000Y-38100000D03*
X125580000Y-36100000D03*
%TD*%
%TO.C,D14*%
X164630000Y-38100000D03*
X162730000Y-38100000D03*
X163680000Y-36100000D03*
%TD*%
%TO.C,D15*%
X202730000Y-38100000D03*
X200830000Y-38100000D03*
X201780000Y-36100000D03*
%TD*%
%TO.C,D16*%
X240830000Y-38100000D03*
X238930000Y-38100000D03*
X239880000Y-36100000D03*
%TD*%
%TO.C,D17*%
X283420000Y-38870000D03*
X281520000Y-38870000D03*
X282470000Y-36870000D03*
%TD*%
%TO.C,D19*%
X70040000Y-70550000D03*
X71940000Y-70550000D03*
X70990000Y-72550000D03*
%TD*%
%TO.C,D20*%
X108140000Y-70550000D03*
X110040000Y-70550000D03*
X109090000Y-72550000D03*
%TD*%
%TO.C,D21*%
X146240000Y-70550000D03*
X148140000Y-70550000D03*
X147190000Y-72550000D03*
%TD*%
%TO.C,D22*%
X184340000Y-70550000D03*
X186240000Y-70550000D03*
X185290000Y-72550000D03*
%TD*%
%TO.C,D23*%
X225320000Y-70540000D03*
X227220000Y-70540000D03*
X226270000Y-72540000D03*
%TD*%
%TO.C,D24*%
X260830000Y-70560000D03*
X262730000Y-70560000D03*
X261780000Y-72560000D03*
%TD*%
%TO.C,D26*%
X46600000Y-76010000D03*
X44700000Y-76010000D03*
X45650000Y-74010000D03*
%TD*%
%TO.C,D27*%
X84090000Y-76030000D03*
X82190000Y-76030000D03*
X83140000Y-74030000D03*
%TD*%
%TO.C,D28*%
X122190000Y-76030000D03*
X120290000Y-76030000D03*
X121240000Y-74030000D03*
%TD*%
%TO.C,D29*%
X160290000Y-76030000D03*
X158390000Y-76030000D03*
X159340000Y-74030000D03*
%TD*%
%TO.C,D30*%
X198390000Y-76030000D03*
X196490000Y-76030000D03*
X197440000Y-74030000D03*
%TD*%
%TO.C,D32*%
X283330000Y-75470000D03*
X281430000Y-75470000D03*
X282380000Y-73470000D03*
%TD*%
%TO.C,D37*%
X282410000Y-91000000D03*
X280510000Y-91000000D03*
X281460000Y-89000000D03*
%TD*%
D28*
%TO.C,D25*%
X293380000Y-68290000D03*
X293380000Y-66090000D03*
%TD*%
%TO.C,D35*%
X164220000Y-89020000D03*
X164220000Y-91220000D03*
%TD*%
%TO.C,D36*%
X245160000Y-89010000D03*
X245160000Y-91210000D03*
%TD*%
D29*
%TO.C,D11*%
X48550000Y-38130000D03*
X46650000Y-38130000D03*
X47600000Y-36130000D03*
%TD*%
%TO.C,D12*%
X88430000Y-38100000D03*
X86530000Y-38100000D03*
X87480000Y-36100000D03*
%TD*%
%TO.C,D31*%
X236490000Y-76030000D03*
X234590000Y-76030000D03*
X235540000Y-74030000D03*
%TD*%
%TO.C,D33*%
X46980000Y-91000000D03*
X45080000Y-91000000D03*
X46030000Y-89000000D03*
%TD*%
D42*
%TO.C,C1*%
X147920000Y-93600000D03*
X146960000Y-93600000D03*
%TD*%
D43*
%TO.C,J3*%
X39990000Y-54505000D03*
X38990000Y-54505000D03*
X37990000Y-54505000D03*
X36990000Y-54505000D03*
D44*
X41290000Y-51980000D03*
X35690000Y-51980000D03*
%TD*%
D45*
%TO.C,F1*%
X38630000Y-41130000D03*
X38630000Y-43930000D03*
%TD*%
D30*
%TO.C,R10*%
X50614020Y-55528922D03*
X52264020Y-55528922D03*
%TD*%
%TO.C,R11*%
X50614020Y-57058922D03*
X52264020Y-57058922D03*
%TD*%
D46*
%TO.C,C4*%
X51429020Y-58488922D03*
X51429020Y-59508922D03*
%TD*%
D47*
%TO.C,Reset1*%
X181520000Y-92050000D03*
X179520000Y-92050000D03*
%TD*%
D32*
%TO.C,R8*%
X180165000Y-105975000D03*
X180165000Y-107625000D03*
%TD*%
D42*
%TO.C,C2*%
X180135000Y-103888000D03*
X181095000Y-103888000D03*
%TD*%
D48*
%TO.C,C3*%
X176460000Y-103888000D03*
X177420000Y-103888000D03*
%TD*%
D32*
%TO.C,R9*%
X177415000Y-105973000D03*
X177415000Y-107623000D03*
%TD*%
M02*
