%TF.GenerationSoftware,KiCad,Pcbnew,5.1.10*%
%TF.CreationDate,2021-06-09T15:58:10+02:00*%
%TF.ProjectId,ptm-60nrf,70746d2d-3630-46e7-9266-2e6b69636164,rev?*%
%TF.SameCoordinates,Original*%
%TF.FileFunction,Legend,Top*%
%TF.FilePolarity,Positive*%
%FSLAX46Y46*%
G04 Gerber Fmt 4.6, Leading zero omitted, Abs format (unit mm)*
G04 Created by KiCad (PCBNEW 5.1.10) date 2021-06-09 15:58:10*
%MOMM*%
%LPD*%
G01*
G04 APERTURE LIST*
%ADD10C,0.400000*%
%ADD11C,0.150000*%
%ADD12C,0.120000*%
G04 APERTURE END LIST*
D10*
X151258095Y-105622857D02*
X152781904Y-105622857D01*
X144998095Y-105642857D02*
X146521904Y-105642857D01*
X145760000Y-106404761D02*
X145760000Y-104880952D01*
D11*
X230686666Y-97862380D02*
X231020000Y-98862380D01*
X231353333Y-97862380D01*
X231686666Y-98862380D02*
X231686666Y-97862380D01*
X231924761Y-97862380D01*
X232067619Y-97910000D01*
X232162857Y-98005238D01*
X232210476Y-98100476D01*
X232258095Y-98290952D01*
X232258095Y-98433809D01*
X232210476Y-98624285D01*
X232162857Y-98719523D01*
X232067619Y-98814761D01*
X231924761Y-98862380D01*
X231686666Y-98862380D01*
X232686666Y-98862380D02*
X232686666Y-97862380D01*
X232924761Y-97862380D01*
X233067619Y-97910000D01*
X233162857Y-98005238D01*
X233210476Y-98100476D01*
X233258095Y-98290952D01*
X233258095Y-98433809D01*
X233210476Y-98624285D01*
X233162857Y-98719523D01*
X233067619Y-98814761D01*
X232924761Y-98862380D01*
X232686666Y-98862380D01*
X231188095Y-105530000D02*
X231092857Y-105482380D01*
X230950000Y-105482380D01*
X230807142Y-105530000D01*
X230711904Y-105625238D01*
X230664285Y-105720476D01*
X230616666Y-105910952D01*
X230616666Y-106053809D01*
X230664285Y-106244285D01*
X230711904Y-106339523D01*
X230807142Y-106434761D01*
X230950000Y-106482380D01*
X231045238Y-106482380D01*
X231188095Y-106434761D01*
X231235714Y-106387142D01*
X231235714Y-106053809D01*
X231045238Y-106053809D01*
X231664285Y-106482380D02*
X231664285Y-105482380D01*
X232235714Y-106482380D01*
X232235714Y-105482380D01*
X232711904Y-106482380D02*
X232711904Y-105482380D01*
X232950000Y-105482380D01*
X233092857Y-105530000D01*
X233188095Y-105625238D01*
X233235714Y-105720476D01*
X233283333Y-105910952D01*
X233283333Y-106053809D01*
X233235714Y-106244285D01*
X233188095Y-106339523D01*
X233092857Y-106434761D01*
X232950000Y-106482380D01*
X232711904Y-106482380D01*
X230642857Y-101334761D02*
X230785714Y-101382380D01*
X231023809Y-101382380D01*
X231119047Y-101334761D01*
X231166666Y-101287142D01*
X231214285Y-101191904D01*
X231214285Y-101096666D01*
X231166666Y-101001428D01*
X231119047Y-100953809D01*
X231023809Y-100906190D01*
X230833333Y-100858571D01*
X230738095Y-100810952D01*
X230690476Y-100763333D01*
X230642857Y-100668095D01*
X230642857Y-100572857D01*
X230690476Y-100477619D01*
X230738095Y-100430000D01*
X230833333Y-100382380D01*
X231071428Y-100382380D01*
X231214285Y-100430000D01*
X231547619Y-100382380D02*
X231785714Y-101382380D01*
X231976190Y-100668095D01*
X232166666Y-101382380D01*
X232404761Y-100382380D01*
X233357142Y-101287142D02*
X233309523Y-101334761D01*
X233166666Y-101382380D01*
X233071428Y-101382380D01*
X232928571Y-101334761D01*
X232833333Y-101239523D01*
X232785714Y-101144285D01*
X232738095Y-100953809D01*
X232738095Y-100810952D01*
X232785714Y-100620476D01*
X232833333Y-100525238D01*
X232928571Y-100430000D01*
X233071428Y-100382380D01*
X233166666Y-100382380D01*
X233309523Y-100430000D01*
X233357142Y-100477619D01*
X230632857Y-103904761D02*
X230775714Y-103952380D01*
X231013809Y-103952380D01*
X231109047Y-103904761D01*
X231156666Y-103857142D01*
X231204285Y-103761904D01*
X231204285Y-103666666D01*
X231156666Y-103571428D01*
X231109047Y-103523809D01*
X231013809Y-103476190D01*
X230823333Y-103428571D01*
X230728095Y-103380952D01*
X230680476Y-103333333D01*
X230632857Y-103238095D01*
X230632857Y-103142857D01*
X230680476Y-103047619D01*
X230728095Y-103000000D01*
X230823333Y-102952380D01*
X231061428Y-102952380D01*
X231204285Y-103000000D01*
X231537619Y-102952380D02*
X231775714Y-103952380D01*
X231966190Y-103238095D01*
X232156666Y-103952380D01*
X232394761Y-102952380D01*
X232775714Y-103952380D02*
X232775714Y-102952380D01*
X233013809Y-102952380D01*
X233156666Y-103000000D01*
X233251904Y-103095238D01*
X233299523Y-103190476D01*
X233347142Y-103380952D01*
X233347142Y-103523809D01*
X233299523Y-103714285D01*
X233251904Y-103809523D01*
X233156666Y-103904761D01*
X233013809Y-103952380D01*
X232775714Y-103952380D01*
X124422380Y-104197380D02*
X124422380Y-103197380D01*
X124803333Y-103197380D01*
X124898571Y-103245000D01*
X124946190Y-103292619D01*
X124993809Y-103387857D01*
X124993809Y-103530714D01*
X124946190Y-103625952D01*
X124898571Y-103673571D01*
X124803333Y-103721190D01*
X124422380Y-103721190D01*
X125898571Y-104197380D02*
X125422380Y-104197380D01*
X125422380Y-103197380D01*
X126184285Y-103911666D02*
X126660476Y-103911666D01*
X126089047Y-104197380D02*
X126422380Y-103197380D01*
X126755714Y-104197380D01*
X127660476Y-104102142D02*
X127612857Y-104149761D01*
X127470000Y-104197380D01*
X127374761Y-104197380D01*
X127231904Y-104149761D01*
X127136666Y-104054523D01*
X127089047Y-103959285D01*
X127041428Y-103768809D01*
X127041428Y-103625952D01*
X127089047Y-103435476D01*
X127136666Y-103340238D01*
X127231904Y-103245000D01*
X127374761Y-103197380D01*
X127470000Y-103197380D01*
X127612857Y-103245000D01*
X127660476Y-103292619D01*
X128089047Y-103673571D02*
X128422380Y-103673571D01*
X128565238Y-104197380D02*
X128089047Y-104197380D01*
X128089047Y-103197380D01*
X128565238Y-103197380D01*
X121660476Y-105323571D02*
X121803333Y-105371190D01*
X121850952Y-105418809D01*
X121898571Y-105514047D01*
X121898571Y-105656904D01*
X121850952Y-105752142D01*
X121803333Y-105799761D01*
X121708095Y-105847380D01*
X121327142Y-105847380D01*
X121327142Y-104847380D01*
X121660476Y-104847380D01*
X121755714Y-104895000D01*
X121803333Y-104942619D01*
X121850952Y-105037857D01*
X121850952Y-105133095D01*
X121803333Y-105228333D01*
X121755714Y-105275952D01*
X121660476Y-105323571D01*
X121327142Y-105323571D01*
X122279523Y-105561666D02*
X122755714Y-105561666D01*
X122184285Y-105847380D02*
X122517619Y-104847380D01*
X122850952Y-105847380D01*
X123041428Y-104847380D02*
X123612857Y-104847380D01*
X123327142Y-105847380D02*
X123327142Y-104847380D01*
X123803333Y-104847380D02*
X124374761Y-104847380D01*
X124089047Y-105847380D02*
X124089047Y-104847380D01*
X124708095Y-105323571D02*
X125041428Y-105323571D01*
X125184285Y-105847380D02*
X124708095Y-105847380D01*
X124708095Y-104847380D01*
X125184285Y-104847380D01*
X126184285Y-105847380D02*
X125850952Y-105371190D01*
X125612857Y-105847380D02*
X125612857Y-104847380D01*
X125993809Y-104847380D01*
X126089047Y-104895000D01*
X126136666Y-104942619D01*
X126184285Y-105037857D01*
X126184285Y-105180714D01*
X126136666Y-105275952D01*
X126089047Y-105323571D01*
X125993809Y-105371190D01*
X125612857Y-105371190D01*
X126803333Y-105371190D02*
X126803333Y-105847380D01*
X126470000Y-104847380D02*
X126803333Y-105371190D01*
X127136666Y-104847380D01*
X128231904Y-105847380D02*
X128231904Y-104847380D01*
X128231904Y-105323571D02*
X128803333Y-105323571D01*
X128803333Y-105847380D02*
X128803333Y-104847380D01*
X129279523Y-105323571D02*
X129612857Y-105323571D01*
X129755714Y-105847380D02*
X129279523Y-105847380D01*
X129279523Y-104847380D01*
X129755714Y-104847380D01*
X130755714Y-105847380D02*
X130422380Y-105371190D01*
X130184285Y-105847380D02*
X130184285Y-104847380D01*
X130565238Y-104847380D01*
X130660476Y-104895000D01*
X130708095Y-104942619D01*
X130755714Y-105037857D01*
X130755714Y-105180714D01*
X130708095Y-105275952D01*
X130660476Y-105323571D01*
X130565238Y-105371190D01*
X130184285Y-105371190D01*
X131184285Y-105323571D02*
X131517619Y-105323571D01*
X131660476Y-105847380D02*
X131184285Y-105847380D01*
X131184285Y-104847380D01*
X131660476Y-104847380D01*
D12*
X142060000Y-110360000D02*
X110780000Y-110360000D01*
X142080000Y-98050000D02*
X142070000Y-110370000D01*
X110770000Y-98050000D02*
X142080000Y-98050000D01*
D11*
X110780000Y-98060000D02*
X110790000Y-110340000D01*
D12*
%TO.C,SW1*%
X28320000Y-27820000D02*
X28320000Y-26820000D01*
X27820000Y-27320000D02*
X28820000Y-27320000D01*
X31820000Y-21220000D02*
X34220000Y-21220000D01*
X27020000Y-21220000D02*
X29620000Y-21220000D01*
X22420000Y-21220000D02*
X24820000Y-21220000D01*
X24220000Y-34520000D02*
X24520000Y-34820000D01*
X24220000Y-35120000D02*
X24220000Y-34520000D01*
X24520000Y-34820000D02*
X24220000Y-35120000D01*
X22420000Y-33420000D02*
X34220000Y-33420000D01*
X22420000Y-29320000D02*
X22420000Y-33420000D01*
X34220000Y-29320000D02*
X34220000Y-33420000D01*
X34220000Y-21220000D02*
X34220000Y-25320000D01*
X22420000Y-25320000D02*
X22420000Y-21220000D01*
X31320000Y-27320000D02*
G75*
G03*
X31320000Y-27320000I-3000000J0D01*
G01*
%TO.C,J4*%
X229705000Y-104745000D02*
X227045000Y-104745000D01*
X229705000Y-104745000D02*
X229705000Y-97065000D01*
X229705000Y-97065000D02*
X227045000Y-97065000D01*
X227045000Y-104745000D02*
X227045000Y-97065000D01*
X227045000Y-107345000D02*
X227045000Y-106015000D01*
X228375000Y-107345000D02*
X227045000Y-107345000D01*
%TO.C,J2*%
X146770000Y-102865000D02*
X146770000Y-100365000D01*
X146770000Y-100365000D02*
X147820000Y-100365000D01*
X147820000Y-100365000D02*
X147820000Y-99375000D01*
X150990000Y-102865000D02*
X150990000Y-100365000D01*
X150990000Y-100365000D02*
X149940000Y-100365000D01*
X147940000Y-104835000D02*
X149820000Y-104835000D01*
%TO.C,SW1*%
D11*
X21524761Y-33353333D02*
X21572380Y-33210476D01*
X21572380Y-32972380D01*
X21524761Y-32877142D01*
X21477142Y-32829523D01*
X21381904Y-32781904D01*
X21286666Y-32781904D01*
X21191428Y-32829523D01*
X21143809Y-32877142D01*
X21096190Y-32972380D01*
X21048571Y-33162857D01*
X21000952Y-33258095D01*
X20953333Y-33305714D01*
X20858095Y-33353333D01*
X20762857Y-33353333D01*
X20667619Y-33305714D01*
X20620000Y-33258095D01*
X20572380Y-33162857D01*
X20572380Y-32924761D01*
X20620000Y-32781904D01*
X20572380Y-32448571D02*
X21572380Y-32210476D01*
X20858095Y-32020000D01*
X21572380Y-31829523D01*
X20572380Y-31591428D01*
X21572380Y-30686666D02*
X21572380Y-31258095D01*
X21572380Y-30972380D02*
X20572380Y-30972380D01*
X20715238Y-31067619D01*
X20810476Y-31162857D01*
X20858095Y-31258095D01*
%TO.C,J4*%
X228046666Y-95882380D02*
X228046666Y-96596666D01*
X227999047Y-96739523D01*
X227903809Y-96834761D01*
X227760952Y-96882380D01*
X227665714Y-96882380D01*
X228951428Y-96215714D02*
X228951428Y-96882380D01*
X228713333Y-95834761D02*
X228475238Y-96549047D01*
X229094285Y-96549047D01*
%TO.C,J2*%
X148356666Y-101672380D02*
X148356666Y-102386666D01*
X148309047Y-102529523D01*
X148213809Y-102624761D01*
X148070952Y-102672380D01*
X147975714Y-102672380D01*
X148785238Y-101767619D02*
X148832857Y-101720000D01*
X148928095Y-101672380D01*
X149166190Y-101672380D01*
X149261428Y-101720000D01*
X149309047Y-101767619D01*
X149356666Y-101862857D01*
X149356666Y-101958095D01*
X149309047Y-102100952D01*
X148737619Y-102672380D01*
X149356666Y-102672380D01*
%TD*%
M02*
