M48
; DRILL file {KiCad 6.0.0} date Thu 30 Dec 2021 12:13:18 AM CET
; FORMAT={-:-/ absolute / inch / decimal}
; #@! TF.CreationDate,2021-12-30T00:13:18+01:00
; #@! TF.GenerationSoftware,Kicad,Pcbnew,6.0.0
; #@! TF.FileFunction,NonPlated,1,2,NPTH
FMAT,2
INCH
; #@! TA.AperFunction,NonPlated,NPTH,ComponentDrill
T1C0.0256
; #@! TA.AperFunction,NonPlated,NPTH,ComponentDrill
T2C0.0689
; #@! TA.AperFunction,NonPlated,NPTH,ComponentDrill
T3C0.1200
; #@! TA.AperFunction,NonPlated,NPTH,ComponentDrill
T4C0.1570
%
G90
G05
T1
X1.3662Y-0.8724
X1.5938Y-0.8724
T2
X0.915Y-1.075
X1.009Y-2.575
X1.009Y-3.325
X1.1025Y-1.825
X1.1025Y-4.075
X1.1968Y-2.575
X1.315Y-1.075
X1.385Y-3.325
X1.409Y-2.575
X1.409Y-3.325
X1.5025Y-1.825
X1.5025Y-4.075
X1.5968Y-2.575
X1.665Y-1.075
X1.785Y-3.325
X1.8525Y-3.325
X2.04Y-1.825
X2.04Y-4.075
X2.065Y-1.075
X2.2275Y-2.575
X2.2525Y-3.325
X2.415Y-1.075
X2.44Y-1.825
X2.44Y-4.075
X2.6017Y-3.3247
X2.6275Y-2.575
X2.7892Y-1.8247
X2.815Y-1.075
X2.9767Y-2.5747
X2.9775Y-4.075
X3.0017Y-3.3247
X3.165Y-1.075
X3.1892Y-1.8247
X3.3517Y-3.3247
X3.3767Y-2.5747
X3.3775Y-4.075
X3.5392Y-1.8247
X3.565Y-1.075
X3.7267Y-2.5747
X3.7517Y-3.3247
X3.915Y-1.075
X3.9392Y-1.8247
X4.1017Y-3.3247
X4.1267Y-2.5747
X4.2892Y-1.8247
X4.315Y-1.075
X4.4767Y-2.5747
X4.5017Y-3.3247
X4.665Y-1.075
X4.6892Y-1.8247
X4.8517Y-3.3247
X4.8767Y-2.5747
X5.0392Y-1.8247
X5.065Y-1.075
X5.2267Y-2.5747
X5.2517Y-3.3247
X5.415Y-1.075
X5.4392Y-1.8247
X5.6017Y-3.3247
X5.6267Y-2.5747
X5.7892Y-1.8247
X5.815Y-1.075
X5.9767Y-2.5747
X6.0017Y-3.3247
X6.165Y-1.075
X6.1654Y-4.074
X6.1892Y-1.8247
X6.3517Y-3.3247
X6.3767Y-2.5747
X6.5392Y-1.8247
X6.565Y-1.075
X6.5654Y-4.074
X6.7267Y-2.5747
X6.7517Y-3.3247
X6.915Y-1.075
X6.9392Y-1.8247
X7.1017Y-3.3247
X7.1267Y-2.5747
X7.2892Y-1.8247
X7.315Y-1.075
X7.4767Y-2.5747
X7.5017Y-3.3247
X7.665Y-1.075
X7.6892Y-1.8247
X7.8517Y-3.3247
X7.8767Y-2.5747
X8.0392Y-1.8247
X8.065Y-1.075
X8.2267Y-2.5747
X8.2517Y-3.3247
X8.415Y-1.075
X8.4392Y-1.8247
X8.6017Y-3.3247
X8.6267Y-2.5747
X8.7892Y-1.8247
X8.815Y-1.075
X8.9767Y-2.5747
X9.0017Y-3.3247
X9.165Y-1.075
X9.1892Y-1.8247
X9.3517Y-3.3247
X9.3525Y-4.075
X9.3767Y-2.5747
X9.5392Y-1.8247
X9.565Y-1.075
X9.7267Y-2.5747
X9.7517Y-3.3247
X9.7525Y-4.075
X9.915Y-1.075
X9.9392Y-1.8247
X10.1267Y-2.5747
X10.2892Y-1.8247
X10.29Y-4.075
X10.315Y-1.075
X10.385Y-3.325
X10.4767Y-2.5747
X10.665Y-1.075
X10.6892Y-1.8247
X10.69Y-4.075
X10.76Y-3.325
X10.785Y-3.325
X10.8767Y-2.5747
X10.9442Y-2.5747
X11.04Y-1.075
X11.065Y-1.075
X11.16Y-3.325
X11.2262Y-1.8247
X11.2275Y-4.075
X11.3202Y-2.1997
X11.3442Y-2.5747
X11.415Y-1.075
X11.415Y-3.325
X11.44Y-1.075
X11.6262Y-1.8247
X11.6275Y-4.075
X11.7202Y-2.1997
X11.815Y-1.075
X11.815Y-3.325
T3
X1.1163Y-3.05
X2.0538Y-3.05
X4.1154Y-4.349
X8.6154Y-4.349
X10.4912Y-3.05
X10.6755Y-2.2997
X10.7713Y-0.8
X11.4287Y-3.05
X11.613Y-2.2997
X11.7088Y-0.8
X11.7952Y-1.7297
X11.7952Y-2.6697
T4
X1.115Y-1.075
X1.1163Y-3.65
X1.209Y-2.575
X1.209Y-3.325
X1.3025Y-1.825
X1.3025Y-4.075
X1.3968Y-2.575
X1.585Y-3.325
X1.865Y-1.075
X2.0525Y-3.325
X2.0538Y-3.65
X2.24Y-1.825
X2.24Y-4.075
X2.4275Y-2.575
X2.615Y-1.075
X2.8017Y-3.3247
X2.9892Y-1.8247
X3.1767Y-2.5747
X3.1775Y-4.075
X3.365Y-1.075
X3.5517Y-3.3247
X3.7392Y-1.8247
X3.9267Y-2.5747
X4.115Y-1.075
X4.1154Y-3.749
X4.3017Y-3.3247
X4.4892Y-1.8247
X4.6767Y-2.5747
X4.865Y-1.075
X5.0517Y-3.3247
X5.2392Y-1.8247
X5.4267Y-2.5747
X5.615Y-1.075
X5.8017Y-3.3247
X5.9892Y-1.8247
X6.1767Y-2.5747
X6.365Y-1.075
X6.3654Y-4.074
X6.5517Y-3.3247
X6.7392Y-1.8247
X6.9267Y-2.5747
X7.115Y-1.075
X7.3017Y-3.3247
X7.4892Y-1.8247
X7.6767Y-2.5747
X7.865Y-1.075
X8.0517Y-3.3247
X8.2392Y-1.8247
X8.4267Y-2.5747
X8.615Y-1.075
X8.6154Y-3.749
X8.8017Y-3.3247
X8.9892Y-1.8247
X9.1767Y-2.5747
X9.365Y-1.075
X9.5517Y-3.3247
X9.5525Y-4.075
X9.7392Y-1.8247
X9.9267Y-2.5747
X10.115Y-1.075
X10.4892Y-1.8247
X10.49Y-4.075
X10.4912Y-3.65
X10.585Y-3.325
X10.6755Y-2.8997
X10.6767Y-2.5747
X10.7713Y-1.4
X10.865Y-1.075
X10.96Y-3.325
X11.1442Y-2.5747
X11.1952Y-1.7297
X11.1952Y-2.6697
X11.24Y-1.075
X11.4262Y-1.8247
X11.4275Y-4.075
X11.4287Y-3.65
X11.5202Y-2.1997
X11.613Y-2.8997
X11.615Y-1.075
X11.615Y-3.325
X11.7088Y-1.4
T0
M30
