%TF.GenerationSoftware,KiCad,Pcbnew,5.1.10*%
%TF.CreationDate,2021-06-03T18:23:30+02:00*%
%TF.ProjectId,ptm-60nrf,70746d2d-3630-46e7-9266-2e6b69636164,rev?*%
%TF.SameCoordinates,Original*%
%TF.FileFunction,Paste,Bot*%
%TF.FilePolarity,Positive*%
%FSLAX46Y46*%
G04 Gerber Fmt 4.6, Leading zero omitted, Abs format (unit mm)*
G04 Created by KiCad (PCBNEW 5.1.10) date 2021-06-03 18:23:30*
%MOMM*%
%LPD*%
G01*
G04 APERTURE LIST*
%ADD10R,1.800000X1.100000*%
%ADD11R,0.650000X1.060000*%
%ADD12C,0.100000*%
%ADD13R,0.800000X0.900000*%
%ADD14R,0.600000X1.450000*%
%ADD15R,0.300000X1.450000*%
%ADD16R,1.200000X0.900000*%
G04 APERTURE END LIST*
%TO.C,D56*%
G36*
G01*
X155318750Y-75550000D02*
X155831250Y-75550000D01*
G75*
G02*
X156050000Y-75768750I0J-218750D01*
G01*
X156050000Y-76206250D01*
G75*
G02*
X155831250Y-76425000I-218750J0D01*
G01*
X155318750Y-76425000D01*
G75*
G02*
X155100000Y-76206250I0J218750D01*
G01*
X155100000Y-75768750D01*
G75*
G02*
X155318750Y-75550000I218750J0D01*
G01*
G37*
G36*
G01*
X155318750Y-73975000D02*
X155831250Y-73975000D01*
G75*
G02*
X156050000Y-74193750I0J-218750D01*
G01*
X156050000Y-74631250D01*
G75*
G02*
X155831250Y-74850000I-218750J0D01*
G01*
X155318750Y-74850000D01*
G75*
G02*
X155100000Y-74631250I0J218750D01*
G01*
X155100000Y-74193750D01*
G75*
G02*
X155318750Y-73975000I218750J0D01*
G01*
G37*
%TD*%
%TO.C,D30*%
G36*
G01*
X255193750Y-35855000D02*
X255706250Y-35855000D01*
G75*
G02*
X255925000Y-36073750I0J-218750D01*
G01*
X255925000Y-36511250D01*
G75*
G02*
X255706250Y-36730000I-218750J0D01*
G01*
X255193750Y-36730000D01*
G75*
G02*
X254975000Y-36511250I0J218750D01*
G01*
X254975000Y-36073750D01*
G75*
G02*
X255193750Y-35855000I218750J0D01*
G01*
G37*
G36*
G01*
X255193750Y-37430000D02*
X255706250Y-37430000D01*
G75*
G02*
X255925000Y-37648750I0J-218750D01*
G01*
X255925000Y-38086250D01*
G75*
G02*
X255706250Y-38305000I-218750J0D01*
G01*
X255193750Y-38305000D01*
G75*
G02*
X254975000Y-38086250I0J218750D01*
G01*
X254975000Y-37648750D01*
G75*
G02*
X255193750Y-37430000I218750J0D01*
G01*
G37*
%TD*%
%TO.C,D58*%
G36*
G01*
X193493750Y-75550000D02*
X194006250Y-75550000D01*
G75*
G02*
X194225000Y-75768750I0J-218750D01*
G01*
X194225000Y-76206250D01*
G75*
G02*
X194006250Y-76425000I-218750J0D01*
G01*
X193493750Y-76425000D01*
G75*
G02*
X193275000Y-76206250I0J218750D01*
G01*
X193275000Y-75768750D01*
G75*
G02*
X193493750Y-75550000I218750J0D01*
G01*
G37*
G36*
G01*
X193493750Y-73975000D02*
X194006250Y-73975000D01*
G75*
G02*
X194225000Y-74193750I0J-218750D01*
G01*
X194225000Y-74631250D01*
G75*
G02*
X194006250Y-74850000I-218750J0D01*
G01*
X193493750Y-74850000D01*
G75*
G02*
X193275000Y-74631250I0J218750D01*
G01*
X193275000Y-74193750D01*
G75*
G02*
X193493750Y-73975000I218750J0D01*
G01*
G37*
%TD*%
%TO.C,D51*%
G36*
G01*
X46768750Y-75550000D02*
X47281250Y-75550000D01*
G75*
G02*
X47500000Y-75768750I0J-218750D01*
G01*
X47500000Y-76206250D01*
G75*
G02*
X47281250Y-76425000I-218750J0D01*
G01*
X46768750Y-76425000D01*
G75*
G02*
X46550000Y-76206250I0J218750D01*
G01*
X46550000Y-75768750D01*
G75*
G02*
X46768750Y-75550000I218750J0D01*
G01*
G37*
G36*
G01*
X46768750Y-73975000D02*
X47281250Y-73975000D01*
G75*
G02*
X47500000Y-74193750I0J-218750D01*
G01*
X47500000Y-74631250D01*
G75*
G02*
X47281250Y-74850000I-218750J0D01*
G01*
X46768750Y-74850000D01*
G75*
G02*
X46550000Y-74631250I0J218750D01*
G01*
X46550000Y-74193750D01*
G75*
G02*
X46768750Y-73975000I218750J0D01*
G01*
G37*
%TD*%
%TO.C,D28*%
G36*
G01*
X217143750Y-37450000D02*
X217656250Y-37450000D01*
G75*
G02*
X217875000Y-37668750I0J-218750D01*
G01*
X217875000Y-38106250D01*
G75*
G02*
X217656250Y-38325000I-218750J0D01*
G01*
X217143750Y-38325000D01*
G75*
G02*
X216925000Y-38106250I0J218750D01*
G01*
X216925000Y-37668750D01*
G75*
G02*
X217143750Y-37450000I218750J0D01*
G01*
G37*
G36*
G01*
X217143750Y-35875000D02*
X217656250Y-35875000D01*
G75*
G02*
X217875000Y-36093750I0J-218750D01*
G01*
X217875000Y-36531250D01*
G75*
G02*
X217656250Y-36750000I-218750J0D01*
G01*
X217143750Y-36750000D01*
G75*
G02*
X216925000Y-36531250I0J218750D01*
G01*
X216925000Y-36093750D01*
G75*
G02*
X217143750Y-35875000I218750J0D01*
G01*
G37*
%TD*%
D10*
%TO.C,Reset1*%
X182230000Y-106020000D03*
X176030000Y-106020000D03*
X182230000Y-109720000D03*
X176030000Y-109720000D03*
%TD*%
%TO.C,D71*%
G36*
G01*
X276868750Y-94325000D02*
X277381250Y-94325000D01*
G75*
G02*
X277600000Y-94543750I0J-218750D01*
G01*
X277600000Y-94981250D01*
G75*
G02*
X277381250Y-95200000I-218750J0D01*
G01*
X276868750Y-95200000D01*
G75*
G02*
X276650000Y-94981250I0J218750D01*
G01*
X276650000Y-94543750D01*
G75*
G02*
X276868750Y-94325000I218750J0D01*
G01*
G37*
G36*
G01*
X276868750Y-92750000D02*
X277381250Y-92750000D01*
G75*
G02*
X277600000Y-92968750I0J-218750D01*
G01*
X277600000Y-93406250D01*
G75*
G02*
X277381250Y-93625000I-218750J0D01*
G01*
X276868750Y-93625000D01*
G75*
G02*
X276650000Y-93406250I0J218750D01*
G01*
X276650000Y-92968750D01*
G75*
G02*
X276868750Y-92750000I218750J0D01*
G01*
G37*
%TD*%
%TO.C,D70*%
G36*
G01*
X252568750Y-94325000D02*
X253081250Y-94325000D01*
G75*
G02*
X253300000Y-94543750I0J-218750D01*
G01*
X253300000Y-94981250D01*
G75*
G02*
X253081250Y-95200000I-218750J0D01*
G01*
X252568750Y-95200000D01*
G75*
G02*
X252350000Y-94981250I0J218750D01*
G01*
X252350000Y-94543750D01*
G75*
G02*
X252568750Y-94325000I218750J0D01*
G01*
G37*
G36*
G01*
X252568750Y-92750000D02*
X253081250Y-92750000D01*
G75*
G02*
X253300000Y-92968750I0J-218750D01*
G01*
X253300000Y-93406250D01*
G75*
G02*
X253081250Y-93625000I-218750J0D01*
G01*
X252568750Y-93625000D01*
G75*
G02*
X252350000Y-93406250I0J218750D01*
G01*
X252350000Y-92968750D01*
G75*
G02*
X252568750Y-92750000I218750J0D01*
G01*
G37*
%TD*%
%TO.C,D69*%
G36*
G01*
X248743750Y-94325000D02*
X249256250Y-94325000D01*
G75*
G02*
X249475000Y-94543750I0J-218750D01*
G01*
X249475000Y-94981250D01*
G75*
G02*
X249256250Y-95200000I-218750J0D01*
G01*
X248743750Y-95200000D01*
G75*
G02*
X248525000Y-94981250I0J218750D01*
G01*
X248525000Y-94543750D01*
G75*
G02*
X248743750Y-94325000I218750J0D01*
G01*
G37*
G36*
G01*
X248743750Y-92750000D02*
X249256250Y-92750000D01*
G75*
G02*
X249475000Y-92968750I0J-218750D01*
G01*
X249475000Y-93406250D01*
G75*
G02*
X249256250Y-93625000I-218750J0D01*
G01*
X248743750Y-93625000D01*
G75*
G02*
X248525000Y-93406250I0J218750D01*
G01*
X248525000Y-92968750D01*
G75*
G02*
X248743750Y-92750000I218750J0D01*
G01*
G37*
%TD*%
%TO.C,D68*%
G36*
G01*
X159643750Y-94325000D02*
X160156250Y-94325000D01*
G75*
G02*
X160375000Y-94543750I0J-218750D01*
G01*
X160375000Y-94981250D01*
G75*
G02*
X160156250Y-95200000I-218750J0D01*
G01*
X159643750Y-95200000D01*
G75*
G02*
X159425000Y-94981250I0J218750D01*
G01*
X159425000Y-94543750D01*
G75*
G02*
X159643750Y-94325000I218750J0D01*
G01*
G37*
G36*
G01*
X159643750Y-92750000D02*
X160156250Y-92750000D01*
G75*
G02*
X160375000Y-92968750I0J-218750D01*
G01*
X160375000Y-93406250D01*
G75*
G02*
X160156250Y-93625000I-218750J0D01*
G01*
X159643750Y-93625000D01*
G75*
G02*
X159425000Y-93406250I0J218750D01*
G01*
X159425000Y-92968750D01*
G75*
G02*
X159643750Y-92750000I218750J0D01*
G01*
G37*
%TD*%
%TO.C,D67*%
G36*
G01*
X90256250Y-103525000D02*
X89743750Y-103525000D01*
G75*
G02*
X89525000Y-103306250I0J218750D01*
G01*
X89525000Y-102868750D01*
G75*
G02*
X89743750Y-102650000I218750J0D01*
G01*
X90256250Y-102650000D01*
G75*
G02*
X90475000Y-102868750I0J-218750D01*
G01*
X90475000Y-103306250D01*
G75*
G02*
X90256250Y-103525000I-218750J0D01*
G01*
G37*
G36*
G01*
X90256250Y-105100000D02*
X89743750Y-105100000D01*
G75*
G02*
X89525000Y-104881250I0J218750D01*
G01*
X89525000Y-104443750D01*
G75*
G02*
X89743750Y-104225000I218750J0D01*
G01*
X90256250Y-104225000D01*
G75*
G02*
X90475000Y-104443750I0J-218750D01*
G01*
X90475000Y-104881250D01*
G75*
G02*
X90256250Y-105100000I-218750J0D01*
G01*
G37*
%TD*%
%TO.C,D66*%
G36*
G01*
X48906250Y-108600000D02*
X48393750Y-108600000D01*
G75*
G02*
X48175000Y-108381250I0J218750D01*
G01*
X48175000Y-107943750D01*
G75*
G02*
X48393750Y-107725000I218750J0D01*
G01*
X48906250Y-107725000D01*
G75*
G02*
X49125000Y-107943750I0J-218750D01*
G01*
X49125000Y-108381250D01*
G75*
G02*
X48906250Y-108600000I-218750J0D01*
G01*
G37*
G36*
G01*
X48906250Y-110175000D02*
X48393750Y-110175000D01*
G75*
G02*
X48175000Y-109956250I0J218750D01*
G01*
X48175000Y-109518750D01*
G75*
G02*
X48393750Y-109300000I218750J0D01*
G01*
X48906250Y-109300000D01*
G75*
G02*
X49125000Y-109518750I0J-218750D01*
G01*
X49125000Y-109956250D01*
G75*
G02*
X48906250Y-110175000I-218750J0D01*
G01*
G37*
%TD*%
%TO.C,D65*%
G36*
G01*
X46281250Y-108600000D02*
X45768750Y-108600000D01*
G75*
G02*
X45550000Y-108381250I0J218750D01*
G01*
X45550000Y-107943750D01*
G75*
G02*
X45768750Y-107725000I218750J0D01*
G01*
X46281250Y-107725000D01*
G75*
G02*
X46500000Y-107943750I0J-218750D01*
G01*
X46500000Y-108381250D01*
G75*
G02*
X46281250Y-108600000I-218750J0D01*
G01*
G37*
G36*
G01*
X46281250Y-110175000D02*
X45768750Y-110175000D01*
G75*
G02*
X45550000Y-109956250I0J218750D01*
G01*
X45550000Y-109518750D01*
G75*
G02*
X45768750Y-109300000I218750J0D01*
G01*
X46281250Y-109300000D01*
G75*
G02*
X46500000Y-109518750I0J-218750D01*
G01*
X46500000Y-109956250D01*
G75*
G02*
X46281250Y-110175000I-218750J0D01*
G01*
G37*
%TD*%
%TO.C,D64*%
G36*
G01*
X286043750Y-75550000D02*
X286556250Y-75550000D01*
G75*
G02*
X286775000Y-75768750I0J-218750D01*
G01*
X286775000Y-76206250D01*
G75*
G02*
X286556250Y-76425000I-218750J0D01*
G01*
X286043750Y-76425000D01*
G75*
G02*
X285825000Y-76206250I0J218750D01*
G01*
X285825000Y-75768750D01*
G75*
G02*
X286043750Y-75550000I218750J0D01*
G01*
G37*
G36*
G01*
X286043750Y-73975000D02*
X286556250Y-73975000D01*
G75*
G02*
X286775000Y-74193750I0J-218750D01*
G01*
X286775000Y-74631250D01*
G75*
G02*
X286556250Y-74850000I-218750J0D01*
G01*
X286043750Y-74850000D01*
G75*
G02*
X285825000Y-74631250I0J218750D01*
G01*
X285825000Y-74193750D01*
G75*
G02*
X286043750Y-73975000I218750J0D01*
G01*
G37*
%TD*%
%TO.C,D62*%
G36*
G01*
X283868750Y-75550000D02*
X284381250Y-75550000D01*
G75*
G02*
X284600000Y-75768750I0J-218750D01*
G01*
X284600000Y-76206250D01*
G75*
G02*
X284381250Y-76425000I-218750J0D01*
G01*
X283868750Y-76425000D01*
G75*
G02*
X283650000Y-76206250I0J218750D01*
G01*
X283650000Y-75768750D01*
G75*
G02*
X283868750Y-75550000I218750J0D01*
G01*
G37*
G36*
G01*
X283868750Y-73975000D02*
X284381250Y-73975000D01*
G75*
G02*
X284600000Y-74193750I0J-218750D01*
G01*
X284600000Y-74631250D01*
G75*
G02*
X284381250Y-74850000I-218750J0D01*
G01*
X283868750Y-74850000D01*
G75*
G02*
X283650000Y-74631250I0J218750D01*
G01*
X283650000Y-74193750D01*
G75*
G02*
X283868750Y-73975000I218750J0D01*
G01*
G37*
%TD*%
%TO.C,D61*%
G36*
G01*
X234118750Y-75550000D02*
X234631250Y-75550000D01*
G75*
G02*
X234850000Y-75768750I0J-218750D01*
G01*
X234850000Y-76206250D01*
G75*
G02*
X234631250Y-76425000I-218750J0D01*
G01*
X234118750Y-76425000D01*
G75*
G02*
X233900000Y-76206250I0J218750D01*
G01*
X233900000Y-75768750D01*
G75*
G02*
X234118750Y-75550000I218750J0D01*
G01*
G37*
G36*
G01*
X234118750Y-73975000D02*
X234631250Y-73975000D01*
G75*
G02*
X234850000Y-74193750I0J-218750D01*
G01*
X234850000Y-74631250D01*
G75*
G02*
X234631250Y-74850000I-218750J0D01*
G01*
X234118750Y-74850000D01*
G75*
G02*
X233900000Y-74631250I0J218750D01*
G01*
X233900000Y-74193750D01*
G75*
G02*
X234118750Y-73975000I218750J0D01*
G01*
G37*
%TD*%
%TO.C,D60*%
G36*
G01*
X231518750Y-75550000D02*
X232031250Y-75550000D01*
G75*
G02*
X232250000Y-75768750I0J-218750D01*
G01*
X232250000Y-76206250D01*
G75*
G02*
X232031250Y-76425000I-218750J0D01*
G01*
X231518750Y-76425000D01*
G75*
G02*
X231300000Y-76206250I0J218750D01*
G01*
X231300000Y-75768750D01*
G75*
G02*
X231518750Y-75550000I218750J0D01*
G01*
G37*
G36*
G01*
X231518750Y-73975000D02*
X232031250Y-73975000D01*
G75*
G02*
X232250000Y-74193750I0J-218750D01*
G01*
X232250000Y-74631250D01*
G75*
G02*
X232031250Y-74850000I-218750J0D01*
G01*
X231518750Y-74850000D01*
G75*
G02*
X231300000Y-74631250I0J218750D01*
G01*
X231300000Y-74193750D01*
G75*
G02*
X231518750Y-73975000I218750J0D01*
G01*
G37*
%TD*%
%TO.C,D59*%
G36*
G01*
X195943750Y-75550000D02*
X196456250Y-75550000D01*
G75*
G02*
X196675000Y-75768750I0J-218750D01*
G01*
X196675000Y-76206250D01*
G75*
G02*
X196456250Y-76425000I-218750J0D01*
G01*
X195943750Y-76425000D01*
G75*
G02*
X195725000Y-76206250I0J218750D01*
G01*
X195725000Y-75768750D01*
G75*
G02*
X195943750Y-75550000I218750J0D01*
G01*
G37*
G36*
G01*
X195943750Y-73975000D02*
X196456250Y-73975000D01*
G75*
G02*
X196675000Y-74193750I0J-218750D01*
G01*
X196675000Y-74631250D01*
G75*
G02*
X196456250Y-74850000I-218750J0D01*
G01*
X195943750Y-74850000D01*
G75*
G02*
X195725000Y-74631250I0J218750D01*
G01*
X195725000Y-74193750D01*
G75*
G02*
X195943750Y-73975000I218750J0D01*
G01*
G37*
%TD*%
%TO.C,D57*%
G36*
G01*
X157843750Y-75550000D02*
X158356250Y-75550000D01*
G75*
G02*
X158575000Y-75768750I0J-218750D01*
G01*
X158575000Y-76206250D01*
G75*
G02*
X158356250Y-76425000I-218750J0D01*
G01*
X157843750Y-76425000D01*
G75*
G02*
X157625000Y-76206250I0J218750D01*
G01*
X157625000Y-75768750D01*
G75*
G02*
X157843750Y-75550000I218750J0D01*
G01*
G37*
G36*
G01*
X157843750Y-73975000D02*
X158356250Y-73975000D01*
G75*
G02*
X158575000Y-74193750I0J-218750D01*
G01*
X158575000Y-74631250D01*
G75*
G02*
X158356250Y-74850000I-218750J0D01*
G01*
X157843750Y-74850000D01*
G75*
G02*
X157625000Y-74631250I0J218750D01*
G01*
X157625000Y-74193750D01*
G75*
G02*
X157843750Y-73975000I218750J0D01*
G01*
G37*
%TD*%
%TO.C,D55*%
G36*
G01*
X119718750Y-75550000D02*
X120231250Y-75550000D01*
G75*
G02*
X120450000Y-75768750I0J-218750D01*
G01*
X120450000Y-76206250D01*
G75*
G02*
X120231250Y-76425000I-218750J0D01*
G01*
X119718750Y-76425000D01*
G75*
G02*
X119500000Y-76206250I0J218750D01*
G01*
X119500000Y-75768750D01*
G75*
G02*
X119718750Y-75550000I218750J0D01*
G01*
G37*
G36*
G01*
X119718750Y-73975000D02*
X120231250Y-73975000D01*
G75*
G02*
X120450000Y-74193750I0J-218750D01*
G01*
X120450000Y-74631250D01*
G75*
G02*
X120231250Y-74850000I-218750J0D01*
G01*
X119718750Y-74850000D01*
G75*
G02*
X119500000Y-74631250I0J218750D01*
G01*
X119500000Y-74193750D01*
G75*
G02*
X119718750Y-73975000I218750J0D01*
G01*
G37*
%TD*%
%TO.C,D54*%
G36*
G01*
X117243750Y-75550000D02*
X117756250Y-75550000D01*
G75*
G02*
X117975000Y-75768750I0J-218750D01*
G01*
X117975000Y-76206250D01*
G75*
G02*
X117756250Y-76425000I-218750J0D01*
G01*
X117243750Y-76425000D01*
G75*
G02*
X117025000Y-76206250I0J218750D01*
G01*
X117025000Y-75768750D01*
G75*
G02*
X117243750Y-75550000I218750J0D01*
G01*
G37*
G36*
G01*
X117243750Y-73975000D02*
X117756250Y-73975000D01*
G75*
G02*
X117975000Y-74193750I0J-218750D01*
G01*
X117975000Y-74631250D01*
G75*
G02*
X117756250Y-74850000I-218750J0D01*
G01*
X117243750Y-74850000D01*
G75*
G02*
X117025000Y-74631250I0J218750D01*
G01*
X117025000Y-74193750D01*
G75*
G02*
X117243750Y-73975000I218750J0D01*
G01*
G37*
%TD*%
%TO.C,D53*%
G36*
G01*
X81418750Y-75550000D02*
X81931250Y-75550000D01*
G75*
G02*
X82150000Y-75768750I0J-218750D01*
G01*
X82150000Y-76206250D01*
G75*
G02*
X81931250Y-76425000I-218750J0D01*
G01*
X81418750Y-76425000D01*
G75*
G02*
X81200000Y-76206250I0J218750D01*
G01*
X81200000Y-75768750D01*
G75*
G02*
X81418750Y-75550000I218750J0D01*
G01*
G37*
G36*
G01*
X81418750Y-73975000D02*
X81931250Y-73975000D01*
G75*
G02*
X82150000Y-74193750I0J-218750D01*
G01*
X82150000Y-74631250D01*
G75*
G02*
X81931250Y-74850000I-218750J0D01*
G01*
X81418750Y-74850000D01*
G75*
G02*
X81200000Y-74631250I0J218750D01*
G01*
X81200000Y-74193750D01*
G75*
G02*
X81418750Y-73975000I218750J0D01*
G01*
G37*
%TD*%
%TO.C,D52*%
G36*
G01*
X79418750Y-75550000D02*
X79931250Y-75550000D01*
G75*
G02*
X80150000Y-75768750I0J-218750D01*
G01*
X80150000Y-76206250D01*
G75*
G02*
X79931250Y-76425000I-218750J0D01*
G01*
X79418750Y-76425000D01*
G75*
G02*
X79200000Y-76206250I0J218750D01*
G01*
X79200000Y-75768750D01*
G75*
G02*
X79418750Y-75550000I218750J0D01*
G01*
G37*
G36*
G01*
X79418750Y-73975000D02*
X79931250Y-73975000D01*
G75*
G02*
X80150000Y-74193750I0J-218750D01*
G01*
X80150000Y-74631250D01*
G75*
G02*
X79931250Y-74850000I-218750J0D01*
G01*
X79418750Y-74850000D01*
G75*
G02*
X79200000Y-74631250I0J218750D01*
G01*
X79200000Y-74193750D01*
G75*
G02*
X79418750Y-73975000I218750J0D01*
G01*
G37*
%TD*%
%TO.C,D49*%
G36*
G01*
X44113750Y-75575000D02*
X44626250Y-75575000D01*
G75*
G02*
X44845000Y-75793750I0J-218750D01*
G01*
X44845000Y-76231250D01*
G75*
G02*
X44626250Y-76450000I-218750J0D01*
G01*
X44113750Y-76450000D01*
G75*
G02*
X43895000Y-76231250I0J218750D01*
G01*
X43895000Y-75793750D01*
G75*
G02*
X44113750Y-75575000I218750J0D01*
G01*
G37*
G36*
G01*
X44113750Y-74000000D02*
X44626250Y-74000000D01*
G75*
G02*
X44845000Y-74218750I0J-218750D01*
G01*
X44845000Y-74656250D01*
G75*
G02*
X44626250Y-74875000I-218750J0D01*
G01*
X44113750Y-74875000D01*
G75*
G02*
X43895000Y-74656250I0J218750D01*
G01*
X43895000Y-74218750D01*
G75*
G02*
X44113750Y-74000000I218750J0D01*
G01*
G37*
%TD*%
%TO.C,D47*%
G36*
G01*
X293626250Y-66833000D02*
X293113750Y-66833000D01*
G75*
G02*
X292895000Y-66614250I0J218750D01*
G01*
X292895000Y-66176750D01*
G75*
G02*
X293113750Y-65958000I218750J0D01*
G01*
X293626250Y-65958000D01*
G75*
G02*
X293845000Y-66176750I0J-218750D01*
G01*
X293845000Y-66614250D01*
G75*
G02*
X293626250Y-66833000I-218750J0D01*
G01*
G37*
G36*
G01*
X293626250Y-68408000D02*
X293113750Y-68408000D01*
G75*
G02*
X292895000Y-68189250I0J218750D01*
G01*
X292895000Y-67751750D01*
G75*
G02*
X293113750Y-67533000I218750J0D01*
G01*
X293626250Y-67533000D01*
G75*
G02*
X293845000Y-67751750I0J-218750D01*
G01*
X293845000Y-68189250D01*
G75*
G02*
X293626250Y-68408000I-218750J0D01*
G01*
G37*
%TD*%
%TO.C,D46*%
G36*
G01*
X260506250Y-71025000D02*
X259993750Y-71025000D01*
G75*
G02*
X259775000Y-70806250I0J218750D01*
G01*
X259775000Y-70368750D01*
G75*
G02*
X259993750Y-70150000I218750J0D01*
G01*
X260506250Y-70150000D01*
G75*
G02*
X260725000Y-70368750I0J-218750D01*
G01*
X260725000Y-70806250D01*
G75*
G02*
X260506250Y-71025000I-218750J0D01*
G01*
G37*
G36*
G01*
X260506250Y-72600000D02*
X259993750Y-72600000D01*
G75*
G02*
X259775000Y-72381250I0J218750D01*
G01*
X259775000Y-71943750D01*
G75*
G02*
X259993750Y-71725000I218750J0D01*
G01*
X260506250Y-71725000D01*
G75*
G02*
X260725000Y-71943750I0J-218750D01*
G01*
X260725000Y-72381250D01*
G75*
G02*
X260506250Y-72600000I-218750J0D01*
G01*
G37*
%TD*%
%TO.C,D45*%
G36*
G01*
X244106250Y-71025000D02*
X243593750Y-71025000D01*
G75*
G02*
X243375000Y-70806250I0J218750D01*
G01*
X243375000Y-70368750D01*
G75*
G02*
X243593750Y-70150000I218750J0D01*
G01*
X244106250Y-70150000D01*
G75*
G02*
X244325000Y-70368750I0J-218750D01*
G01*
X244325000Y-70806250D01*
G75*
G02*
X244106250Y-71025000I-218750J0D01*
G01*
G37*
G36*
G01*
X244106250Y-72600000D02*
X243593750Y-72600000D01*
G75*
G02*
X243375000Y-72381250I0J218750D01*
G01*
X243375000Y-71943750D01*
G75*
G02*
X243593750Y-71725000I218750J0D01*
G01*
X244106250Y-71725000D01*
G75*
G02*
X244325000Y-71943750I0J-218750D01*
G01*
X244325000Y-72381250D01*
G75*
G02*
X244106250Y-72600000I-218750J0D01*
G01*
G37*
%TD*%
%TO.C,D44*%
G36*
G01*
X241556250Y-71025000D02*
X241043750Y-71025000D01*
G75*
G02*
X240825000Y-70806250I0J218750D01*
G01*
X240825000Y-70368750D01*
G75*
G02*
X241043750Y-70150000I218750J0D01*
G01*
X241556250Y-70150000D01*
G75*
G02*
X241775000Y-70368750I0J-218750D01*
G01*
X241775000Y-70806250D01*
G75*
G02*
X241556250Y-71025000I-218750J0D01*
G01*
G37*
G36*
G01*
X241556250Y-72600000D02*
X241043750Y-72600000D01*
G75*
G02*
X240825000Y-72381250I0J218750D01*
G01*
X240825000Y-71943750D01*
G75*
G02*
X241043750Y-71725000I218750J0D01*
G01*
X241556250Y-71725000D01*
G75*
G02*
X241775000Y-71943750I0J-218750D01*
G01*
X241775000Y-72381250D01*
G75*
G02*
X241556250Y-72600000I-218750J0D01*
G01*
G37*
%TD*%
%TO.C,D43*%
G36*
G01*
X206031250Y-71025000D02*
X205518750Y-71025000D01*
G75*
G02*
X205300000Y-70806250I0J218750D01*
G01*
X205300000Y-70368750D01*
G75*
G02*
X205518750Y-70150000I218750J0D01*
G01*
X206031250Y-70150000D01*
G75*
G02*
X206250000Y-70368750I0J-218750D01*
G01*
X206250000Y-70806250D01*
G75*
G02*
X206031250Y-71025000I-218750J0D01*
G01*
G37*
G36*
G01*
X206031250Y-72600000D02*
X205518750Y-72600000D01*
G75*
G02*
X205300000Y-72381250I0J218750D01*
G01*
X205300000Y-71943750D01*
G75*
G02*
X205518750Y-71725000I218750J0D01*
G01*
X206031250Y-71725000D01*
G75*
G02*
X206250000Y-71943750I0J-218750D01*
G01*
X206250000Y-72381250D01*
G75*
G02*
X206031250Y-72600000I-218750J0D01*
G01*
G37*
%TD*%
%TO.C,D42*%
G36*
G01*
X203431250Y-71025000D02*
X202918750Y-71025000D01*
G75*
G02*
X202700000Y-70806250I0J218750D01*
G01*
X202700000Y-70368750D01*
G75*
G02*
X202918750Y-70150000I218750J0D01*
G01*
X203431250Y-70150000D01*
G75*
G02*
X203650000Y-70368750I0J-218750D01*
G01*
X203650000Y-70806250D01*
G75*
G02*
X203431250Y-71025000I-218750J0D01*
G01*
G37*
G36*
G01*
X203431250Y-72600000D02*
X202918750Y-72600000D01*
G75*
G02*
X202700000Y-72381250I0J218750D01*
G01*
X202700000Y-71943750D01*
G75*
G02*
X202918750Y-71725000I218750J0D01*
G01*
X203431250Y-71725000D01*
G75*
G02*
X203650000Y-71943750I0J-218750D01*
G01*
X203650000Y-72381250D01*
G75*
G02*
X203431250Y-72600000I-218750J0D01*
G01*
G37*
%TD*%
%TO.C,D41*%
G36*
G01*
X167906250Y-71025000D02*
X167393750Y-71025000D01*
G75*
G02*
X167175000Y-70806250I0J218750D01*
G01*
X167175000Y-70368750D01*
G75*
G02*
X167393750Y-70150000I218750J0D01*
G01*
X167906250Y-70150000D01*
G75*
G02*
X168125000Y-70368750I0J-218750D01*
G01*
X168125000Y-70806250D01*
G75*
G02*
X167906250Y-71025000I-218750J0D01*
G01*
G37*
G36*
G01*
X167906250Y-72600000D02*
X167393750Y-72600000D01*
G75*
G02*
X167175000Y-72381250I0J218750D01*
G01*
X167175000Y-71943750D01*
G75*
G02*
X167393750Y-71725000I218750J0D01*
G01*
X167906250Y-71725000D01*
G75*
G02*
X168125000Y-71943750I0J-218750D01*
G01*
X168125000Y-72381250D01*
G75*
G02*
X167906250Y-72600000I-218750J0D01*
G01*
G37*
%TD*%
%TO.C,D40*%
G36*
G01*
X165406250Y-71025000D02*
X164893750Y-71025000D01*
G75*
G02*
X164675000Y-70806250I0J218750D01*
G01*
X164675000Y-70368750D01*
G75*
G02*
X164893750Y-70150000I218750J0D01*
G01*
X165406250Y-70150000D01*
G75*
G02*
X165625000Y-70368750I0J-218750D01*
G01*
X165625000Y-70806250D01*
G75*
G02*
X165406250Y-71025000I-218750J0D01*
G01*
G37*
G36*
G01*
X165406250Y-72600000D02*
X164893750Y-72600000D01*
G75*
G02*
X164675000Y-72381250I0J218750D01*
G01*
X164675000Y-71943750D01*
G75*
G02*
X164893750Y-71725000I218750J0D01*
G01*
X165406250Y-71725000D01*
G75*
G02*
X165625000Y-71943750I0J-218750D01*
G01*
X165625000Y-72381250D01*
G75*
G02*
X165406250Y-72600000I-218750J0D01*
G01*
G37*
%TD*%
%TO.C,D39*%
G36*
G01*
X129781250Y-71000000D02*
X129268750Y-71000000D01*
G75*
G02*
X129050000Y-70781250I0J218750D01*
G01*
X129050000Y-70343750D01*
G75*
G02*
X129268750Y-70125000I218750J0D01*
G01*
X129781250Y-70125000D01*
G75*
G02*
X130000000Y-70343750I0J-218750D01*
G01*
X130000000Y-70781250D01*
G75*
G02*
X129781250Y-71000000I-218750J0D01*
G01*
G37*
G36*
G01*
X129781250Y-72575000D02*
X129268750Y-72575000D01*
G75*
G02*
X129050000Y-72356250I0J218750D01*
G01*
X129050000Y-71918750D01*
G75*
G02*
X129268750Y-71700000I218750J0D01*
G01*
X129781250Y-71700000D01*
G75*
G02*
X130000000Y-71918750I0J-218750D01*
G01*
X130000000Y-72356250D01*
G75*
G02*
X129781250Y-72575000I-218750J0D01*
G01*
G37*
%TD*%
%TO.C,D38*%
G36*
G01*
X110781250Y-71000000D02*
X110268750Y-71000000D01*
G75*
G02*
X110050000Y-70781250I0J218750D01*
G01*
X110050000Y-70343750D01*
G75*
G02*
X110268750Y-70125000I218750J0D01*
G01*
X110781250Y-70125000D01*
G75*
G02*
X111000000Y-70343750I0J-218750D01*
G01*
X111000000Y-70781250D01*
G75*
G02*
X110781250Y-71000000I-218750J0D01*
G01*
G37*
G36*
G01*
X110781250Y-72575000D02*
X110268750Y-72575000D01*
G75*
G02*
X110050000Y-72356250I0J218750D01*
G01*
X110050000Y-71918750D01*
G75*
G02*
X110268750Y-71700000I218750J0D01*
G01*
X110781250Y-71700000D01*
G75*
G02*
X111000000Y-71918750I0J-218750D01*
G01*
X111000000Y-72356250D01*
G75*
G02*
X110781250Y-72575000I-218750J0D01*
G01*
G37*
%TD*%
%TO.C,D37*%
G36*
G01*
X108206250Y-71000000D02*
X107693750Y-71000000D01*
G75*
G02*
X107475000Y-70781250I0J218750D01*
G01*
X107475000Y-70343750D01*
G75*
G02*
X107693750Y-70125000I218750J0D01*
G01*
X108206250Y-70125000D01*
G75*
G02*
X108425000Y-70343750I0J-218750D01*
G01*
X108425000Y-70781250D01*
G75*
G02*
X108206250Y-71000000I-218750J0D01*
G01*
G37*
G36*
G01*
X108206250Y-72575000D02*
X107693750Y-72575000D01*
G75*
G02*
X107475000Y-72356250I0J218750D01*
G01*
X107475000Y-71918750D01*
G75*
G02*
X107693750Y-71700000I218750J0D01*
G01*
X108206250Y-71700000D01*
G75*
G02*
X108425000Y-71918750I0J-218750D01*
G01*
X108425000Y-72356250D01*
G75*
G02*
X108206250Y-72575000I-218750J0D01*
G01*
G37*
%TD*%
%TO.C,D36*%
G36*
G01*
X72631250Y-71000000D02*
X72118750Y-71000000D01*
G75*
G02*
X71900000Y-70781250I0J218750D01*
G01*
X71900000Y-70343750D01*
G75*
G02*
X72118750Y-70125000I218750J0D01*
G01*
X72631250Y-70125000D01*
G75*
G02*
X72850000Y-70343750I0J-218750D01*
G01*
X72850000Y-70781250D01*
G75*
G02*
X72631250Y-71000000I-218750J0D01*
G01*
G37*
G36*
G01*
X72631250Y-72575000D02*
X72118750Y-72575000D01*
G75*
G02*
X71900000Y-72356250I0J218750D01*
G01*
X71900000Y-71918750D01*
G75*
G02*
X72118750Y-71700000I218750J0D01*
G01*
X72631250Y-71700000D01*
G75*
G02*
X72850000Y-71918750I0J-218750D01*
G01*
X72850000Y-72356250D01*
G75*
G02*
X72631250Y-72575000I-218750J0D01*
G01*
G37*
%TD*%
%TO.C,D35*%
G36*
G01*
X70256250Y-71000000D02*
X69743750Y-71000000D01*
G75*
G02*
X69525000Y-70781250I0J218750D01*
G01*
X69525000Y-70343750D01*
G75*
G02*
X69743750Y-70125000I218750J0D01*
G01*
X70256250Y-70125000D01*
G75*
G02*
X70475000Y-70343750I0J-218750D01*
G01*
X70475000Y-70781250D01*
G75*
G02*
X70256250Y-71000000I-218750J0D01*
G01*
G37*
G36*
G01*
X70256250Y-72575000D02*
X69743750Y-72575000D01*
G75*
G02*
X69525000Y-72356250I0J218750D01*
G01*
X69525000Y-71918750D01*
G75*
G02*
X69743750Y-71700000I218750J0D01*
G01*
X70256250Y-71700000D01*
G75*
G02*
X70475000Y-71918750I0J-218750D01*
G01*
X70475000Y-72356250D01*
G75*
G02*
X70256250Y-72575000I-218750J0D01*
G01*
G37*
%TD*%
%TO.C,D33*%
G36*
G01*
X38281250Y-71100000D02*
X37768750Y-71100000D01*
G75*
G02*
X37550000Y-70881250I0J218750D01*
G01*
X37550000Y-70443750D01*
G75*
G02*
X37768750Y-70225000I218750J0D01*
G01*
X38281250Y-70225000D01*
G75*
G02*
X38500000Y-70443750I0J-218750D01*
G01*
X38500000Y-70881250D01*
G75*
G02*
X38281250Y-71100000I-218750J0D01*
G01*
G37*
G36*
G01*
X38281250Y-72675000D02*
X37768750Y-72675000D01*
G75*
G02*
X37550000Y-72456250I0J218750D01*
G01*
X37550000Y-72018750D01*
G75*
G02*
X37768750Y-71800000I218750J0D01*
G01*
X38281250Y-71800000D01*
G75*
G02*
X38500000Y-72018750I0J-218750D01*
G01*
X38500000Y-72456250D01*
G75*
G02*
X38281250Y-72675000I-218750J0D01*
G01*
G37*
%TD*%
%TO.C,D32*%
G36*
G01*
X284175000Y-37856250D02*
X284175000Y-37343750D01*
G75*
G02*
X284393750Y-37125000I218750J0D01*
G01*
X284831250Y-37125000D01*
G75*
G02*
X285050000Y-37343750I0J-218750D01*
G01*
X285050000Y-37856250D01*
G75*
G02*
X284831250Y-38075000I-218750J0D01*
G01*
X284393750Y-38075000D01*
G75*
G02*
X284175000Y-37856250I0J218750D01*
G01*
G37*
G36*
G01*
X285750000Y-37856250D02*
X285750000Y-37343750D01*
G75*
G02*
X285968750Y-37125000I218750J0D01*
G01*
X286406250Y-37125000D01*
G75*
G02*
X286625000Y-37343750I0J-218750D01*
G01*
X286625000Y-37856250D01*
G75*
G02*
X286406250Y-38075000I-218750J0D01*
G01*
X285968750Y-38075000D01*
G75*
G02*
X285750000Y-37856250I0J218750D01*
G01*
G37*
%TD*%
%TO.C,D31*%
G36*
G01*
X258218750Y-35855000D02*
X258731250Y-35855000D01*
G75*
G02*
X258950000Y-36073750I0J-218750D01*
G01*
X258950000Y-36511250D01*
G75*
G02*
X258731250Y-36730000I-218750J0D01*
G01*
X258218750Y-36730000D01*
G75*
G02*
X258000000Y-36511250I0J218750D01*
G01*
X258000000Y-36073750D01*
G75*
G02*
X258218750Y-35855000I218750J0D01*
G01*
G37*
G36*
G01*
X258218750Y-37430000D02*
X258731250Y-37430000D01*
G75*
G02*
X258950000Y-37648750I0J-218750D01*
G01*
X258950000Y-38086250D01*
G75*
G02*
X258731250Y-38305000I-218750J0D01*
G01*
X258218750Y-38305000D01*
G75*
G02*
X258000000Y-38086250I0J218750D01*
G01*
X258000000Y-37648750D01*
G75*
G02*
X258218750Y-37430000I218750J0D01*
G01*
G37*
%TD*%
%TO.C,D29*%
G36*
G01*
X220168750Y-37450000D02*
X220681250Y-37450000D01*
G75*
G02*
X220900000Y-37668750I0J-218750D01*
G01*
X220900000Y-38106250D01*
G75*
G02*
X220681250Y-38325000I-218750J0D01*
G01*
X220168750Y-38325000D01*
G75*
G02*
X219950000Y-38106250I0J218750D01*
G01*
X219950000Y-37668750D01*
G75*
G02*
X220168750Y-37450000I218750J0D01*
G01*
G37*
G36*
G01*
X220168750Y-35875000D02*
X220681250Y-35875000D01*
G75*
G02*
X220900000Y-36093750I0J-218750D01*
G01*
X220900000Y-36531250D01*
G75*
G02*
X220681250Y-36750000I-218750J0D01*
G01*
X220168750Y-36750000D01*
G75*
G02*
X219950000Y-36531250I0J218750D01*
G01*
X219950000Y-36093750D01*
G75*
G02*
X220168750Y-35875000I218750J0D01*
G01*
G37*
%TD*%
%TO.C,D27*%
G36*
G01*
X181918750Y-37475000D02*
X182431250Y-37475000D01*
G75*
G02*
X182650000Y-37693750I0J-218750D01*
G01*
X182650000Y-38131250D01*
G75*
G02*
X182431250Y-38350000I-218750J0D01*
G01*
X181918750Y-38350000D01*
G75*
G02*
X181700000Y-38131250I0J218750D01*
G01*
X181700000Y-37693750D01*
G75*
G02*
X181918750Y-37475000I218750J0D01*
G01*
G37*
G36*
G01*
X181918750Y-35900000D02*
X182431250Y-35900000D01*
G75*
G02*
X182650000Y-36118750I0J-218750D01*
G01*
X182650000Y-36556250D01*
G75*
G02*
X182431250Y-36775000I-218750J0D01*
G01*
X181918750Y-36775000D01*
G75*
G02*
X181700000Y-36556250I0J218750D01*
G01*
X181700000Y-36118750D01*
G75*
G02*
X181918750Y-35900000I218750J0D01*
G01*
G37*
%TD*%
%TO.C,D26*%
G36*
G01*
X179143750Y-37450000D02*
X179656250Y-37450000D01*
G75*
G02*
X179875000Y-37668750I0J-218750D01*
G01*
X179875000Y-38106250D01*
G75*
G02*
X179656250Y-38325000I-218750J0D01*
G01*
X179143750Y-38325000D01*
G75*
G02*
X178925000Y-38106250I0J218750D01*
G01*
X178925000Y-37668750D01*
G75*
G02*
X179143750Y-37450000I218750J0D01*
G01*
G37*
G36*
G01*
X179143750Y-35875000D02*
X179656250Y-35875000D01*
G75*
G02*
X179875000Y-36093750I0J-218750D01*
G01*
X179875000Y-36531250D01*
G75*
G02*
X179656250Y-36750000I-218750J0D01*
G01*
X179143750Y-36750000D01*
G75*
G02*
X178925000Y-36531250I0J218750D01*
G01*
X178925000Y-36093750D01*
G75*
G02*
X179143750Y-35875000I218750J0D01*
G01*
G37*
%TD*%
%TO.C,D25*%
G36*
G01*
X143793750Y-37450000D02*
X144306250Y-37450000D01*
G75*
G02*
X144525000Y-37668750I0J-218750D01*
G01*
X144525000Y-38106250D01*
G75*
G02*
X144306250Y-38325000I-218750J0D01*
G01*
X143793750Y-38325000D01*
G75*
G02*
X143575000Y-38106250I0J218750D01*
G01*
X143575000Y-37668750D01*
G75*
G02*
X143793750Y-37450000I218750J0D01*
G01*
G37*
G36*
G01*
X143793750Y-35875000D02*
X144306250Y-35875000D01*
G75*
G02*
X144525000Y-36093750I0J-218750D01*
G01*
X144525000Y-36531250D01*
G75*
G02*
X144306250Y-36750000I-218750J0D01*
G01*
X143793750Y-36750000D01*
G75*
G02*
X143575000Y-36531250I0J218750D01*
G01*
X143575000Y-36093750D01*
G75*
G02*
X143793750Y-35875000I218750J0D01*
G01*
G37*
%TD*%
%TO.C,D24*%
G36*
G01*
X141018750Y-37450000D02*
X141531250Y-37450000D01*
G75*
G02*
X141750000Y-37668750I0J-218750D01*
G01*
X141750000Y-38106250D01*
G75*
G02*
X141531250Y-38325000I-218750J0D01*
G01*
X141018750Y-38325000D01*
G75*
G02*
X140800000Y-38106250I0J218750D01*
G01*
X140800000Y-37668750D01*
G75*
G02*
X141018750Y-37450000I218750J0D01*
G01*
G37*
G36*
G01*
X141018750Y-35875000D02*
X141531250Y-35875000D01*
G75*
G02*
X141750000Y-36093750I0J-218750D01*
G01*
X141750000Y-36531250D01*
G75*
G02*
X141531250Y-36750000I-218750J0D01*
G01*
X141018750Y-36750000D01*
G75*
G02*
X140800000Y-36531250I0J218750D01*
G01*
X140800000Y-36093750D01*
G75*
G02*
X141018750Y-35875000I218750J0D01*
G01*
G37*
%TD*%
%TO.C,D23*%
G36*
G01*
X105768750Y-37430000D02*
X106281250Y-37430000D01*
G75*
G02*
X106500000Y-37648750I0J-218750D01*
G01*
X106500000Y-38086250D01*
G75*
G02*
X106281250Y-38305000I-218750J0D01*
G01*
X105768750Y-38305000D01*
G75*
G02*
X105550000Y-38086250I0J218750D01*
G01*
X105550000Y-37648750D01*
G75*
G02*
X105768750Y-37430000I218750J0D01*
G01*
G37*
G36*
G01*
X105768750Y-35855000D02*
X106281250Y-35855000D01*
G75*
G02*
X106500000Y-36073750I0J-218750D01*
G01*
X106500000Y-36511250D01*
G75*
G02*
X106281250Y-36730000I-218750J0D01*
G01*
X105768750Y-36730000D01*
G75*
G02*
X105550000Y-36511250I0J218750D01*
G01*
X105550000Y-36073750D01*
G75*
G02*
X105768750Y-35855000I218750J0D01*
G01*
G37*
%TD*%
%TO.C,D22*%
G36*
G01*
X103018750Y-37425000D02*
X103531250Y-37425000D01*
G75*
G02*
X103750000Y-37643750I0J-218750D01*
G01*
X103750000Y-38081250D01*
G75*
G02*
X103531250Y-38300000I-218750J0D01*
G01*
X103018750Y-38300000D01*
G75*
G02*
X102800000Y-38081250I0J218750D01*
G01*
X102800000Y-37643750D01*
G75*
G02*
X103018750Y-37425000I218750J0D01*
G01*
G37*
G36*
G01*
X103018750Y-35850000D02*
X103531250Y-35850000D01*
G75*
G02*
X103750000Y-36068750I0J-218750D01*
G01*
X103750000Y-36506250D01*
G75*
G02*
X103531250Y-36725000I-218750J0D01*
G01*
X103018750Y-36725000D01*
G75*
G02*
X102800000Y-36506250I0J218750D01*
G01*
X102800000Y-36068750D01*
G75*
G02*
X103018750Y-35850000I218750J0D01*
G01*
G37*
%TD*%
%TO.C,D21*%
G36*
G01*
X67618750Y-37450000D02*
X68131250Y-37450000D01*
G75*
G02*
X68350000Y-37668750I0J-218750D01*
G01*
X68350000Y-38106250D01*
G75*
G02*
X68131250Y-38325000I-218750J0D01*
G01*
X67618750Y-38325000D01*
G75*
G02*
X67400000Y-38106250I0J218750D01*
G01*
X67400000Y-37668750D01*
G75*
G02*
X67618750Y-37450000I218750J0D01*
G01*
G37*
G36*
G01*
X67618750Y-35875000D02*
X68131250Y-35875000D01*
G75*
G02*
X68350000Y-36093750I0J-218750D01*
G01*
X68350000Y-36531250D01*
G75*
G02*
X68131250Y-36750000I-218750J0D01*
G01*
X67618750Y-36750000D01*
G75*
G02*
X67400000Y-36531250I0J218750D01*
G01*
X67400000Y-36093750D01*
G75*
G02*
X67618750Y-35875000I218750J0D01*
G01*
G37*
%TD*%
%TO.C,D20*%
G36*
G01*
X64893750Y-37425000D02*
X65406250Y-37425000D01*
G75*
G02*
X65625000Y-37643750I0J-218750D01*
G01*
X65625000Y-38081250D01*
G75*
G02*
X65406250Y-38300000I-218750J0D01*
G01*
X64893750Y-38300000D01*
G75*
G02*
X64675000Y-38081250I0J218750D01*
G01*
X64675000Y-37643750D01*
G75*
G02*
X64893750Y-37425000I218750J0D01*
G01*
G37*
G36*
G01*
X64893750Y-35850000D02*
X65406250Y-35850000D01*
G75*
G02*
X65625000Y-36068750I0J-218750D01*
G01*
X65625000Y-36506250D01*
G75*
G02*
X65406250Y-36725000I-218750J0D01*
G01*
X64893750Y-36725000D01*
G75*
G02*
X64675000Y-36506250I0J218750D01*
G01*
X64675000Y-36068750D01*
G75*
G02*
X64893750Y-35850000I218750J0D01*
G01*
G37*
%TD*%
%TO.C,D19*%
G36*
G01*
X32233750Y-39440000D02*
X32746250Y-39440000D01*
G75*
G02*
X32965000Y-39658750I0J-218750D01*
G01*
X32965000Y-40096250D01*
G75*
G02*
X32746250Y-40315000I-218750J0D01*
G01*
X32233750Y-40315000D01*
G75*
G02*
X32015000Y-40096250I0J218750D01*
G01*
X32015000Y-39658750D01*
G75*
G02*
X32233750Y-39440000I218750J0D01*
G01*
G37*
G36*
G01*
X32233750Y-37865000D02*
X32746250Y-37865000D01*
G75*
G02*
X32965000Y-38083750I0J-218750D01*
G01*
X32965000Y-38521250D01*
G75*
G02*
X32746250Y-38740000I-218750J0D01*
G01*
X32233750Y-38740000D01*
G75*
G02*
X32015000Y-38521250I0J218750D01*
G01*
X32015000Y-38083750D01*
G75*
G02*
X32233750Y-37865000I218750J0D01*
G01*
G37*
%TD*%
%TO.C,D18*%
G36*
G01*
X287106250Y-33305000D02*
X286593750Y-33305000D01*
G75*
G02*
X286375000Y-33086250I0J218750D01*
G01*
X286375000Y-32648750D01*
G75*
G02*
X286593750Y-32430000I218750J0D01*
G01*
X287106250Y-32430000D01*
G75*
G02*
X287325000Y-32648750I0J-218750D01*
G01*
X287325000Y-33086250D01*
G75*
G02*
X287106250Y-33305000I-218750J0D01*
G01*
G37*
G36*
G01*
X287106250Y-34880000D02*
X286593750Y-34880000D01*
G75*
G02*
X286375000Y-34661250I0J218750D01*
G01*
X286375000Y-34223750D01*
G75*
G02*
X286593750Y-34005000I218750J0D01*
G01*
X287106250Y-34005000D01*
G75*
G02*
X287325000Y-34223750I0J-218750D01*
G01*
X287325000Y-34661250D01*
G75*
G02*
X287106250Y-34880000I-218750J0D01*
G01*
G37*
%TD*%
%TO.C,D16*%
G36*
G01*
X284456250Y-33300000D02*
X283943750Y-33300000D01*
G75*
G02*
X283725000Y-33081250I0J218750D01*
G01*
X283725000Y-32643750D01*
G75*
G02*
X283943750Y-32425000I218750J0D01*
G01*
X284456250Y-32425000D01*
G75*
G02*
X284675000Y-32643750I0J-218750D01*
G01*
X284675000Y-33081250D01*
G75*
G02*
X284456250Y-33300000I-218750J0D01*
G01*
G37*
G36*
G01*
X284456250Y-34875000D02*
X283943750Y-34875000D01*
G75*
G02*
X283725000Y-34656250I0J218750D01*
G01*
X283725000Y-34218750D01*
G75*
G02*
X283943750Y-34000000I218750J0D01*
G01*
X284456250Y-34000000D01*
G75*
G02*
X284675000Y-34218750I0J-218750D01*
G01*
X284675000Y-34656250D01*
G75*
G02*
X284456250Y-34875000I-218750J0D01*
G01*
G37*
%TD*%
%TO.C,D15*%
G36*
G01*
X248956250Y-33300000D02*
X248443750Y-33300000D01*
G75*
G02*
X248225000Y-33081250I0J218750D01*
G01*
X248225000Y-32643750D01*
G75*
G02*
X248443750Y-32425000I218750J0D01*
G01*
X248956250Y-32425000D01*
G75*
G02*
X249175000Y-32643750I0J-218750D01*
G01*
X249175000Y-33081250D01*
G75*
G02*
X248956250Y-33300000I-218750J0D01*
G01*
G37*
G36*
G01*
X248956250Y-34875000D02*
X248443750Y-34875000D01*
G75*
G02*
X248225000Y-34656250I0J218750D01*
G01*
X248225000Y-34218750D01*
G75*
G02*
X248443750Y-34000000I218750J0D01*
G01*
X248956250Y-34000000D01*
G75*
G02*
X249175000Y-34218750I0J-218750D01*
G01*
X249175000Y-34656250D01*
G75*
G02*
X248956250Y-34875000I-218750J0D01*
G01*
G37*
%TD*%
%TO.C,D14*%
G36*
G01*
X246381250Y-33305000D02*
X245868750Y-33305000D01*
G75*
G02*
X245650000Y-33086250I0J218750D01*
G01*
X245650000Y-32648750D01*
G75*
G02*
X245868750Y-32430000I218750J0D01*
G01*
X246381250Y-32430000D01*
G75*
G02*
X246600000Y-32648750I0J-218750D01*
G01*
X246600000Y-33086250D01*
G75*
G02*
X246381250Y-33305000I-218750J0D01*
G01*
G37*
G36*
G01*
X246381250Y-34880000D02*
X245868750Y-34880000D01*
G75*
G02*
X245650000Y-34661250I0J218750D01*
G01*
X245650000Y-34223750D01*
G75*
G02*
X245868750Y-34005000I218750J0D01*
G01*
X246381250Y-34005000D01*
G75*
G02*
X246600000Y-34223750I0J-218750D01*
G01*
X246600000Y-34661250D01*
G75*
G02*
X246381250Y-34880000I-218750J0D01*
G01*
G37*
%TD*%
%TO.C,D13*%
G36*
G01*
X210781250Y-33305000D02*
X210268750Y-33305000D01*
G75*
G02*
X210050000Y-33086250I0J218750D01*
G01*
X210050000Y-32648750D01*
G75*
G02*
X210268750Y-32430000I218750J0D01*
G01*
X210781250Y-32430000D01*
G75*
G02*
X211000000Y-32648750I0J-218750D01*
G01*
X211000000Y-33086250D01*
G75*
G02*
X210781250Y-33305000I-218750J0D01*
G01*
G37*
G36*
G01*
X210781250Y-34880000D02*
X210268750Y-34880000D01*
G75*
G02*
X210050000Y-34661250I0J218750D01*
G01*
X210050000Y-34223750D01*
G75*
G02*
X210268750Y-34005000I218750J0D01*
G01*
X210781250Y-34005000D01*
G75*
G02*
X211000000Y-34223750I0J-218750D01*
G01*
X211000000Y-34661250D01*
G75*
G02*
X210781250Y-34880000I-218750J0D01*
G01*
G37*
%TD*%
%TO.C,D12*%
G36*
G01*
X208281250Y-33305000D02*
X207768750Y-33305000D01*
G75*
G02*
X207550000Y-33086250I0J218750D01*
G01*
X207550000Y-32648750D01*
G75*
G02*
X207768750Y-32430000I218750J0D01*
G01*
X208281250Y-32430000D01*
G75*
G02*
X208500000Y-32648750I0J-218750D01*
G01*
X208500000Y-33086250D01*
G75*
G02*
X208281250Y-33305000I-218750J0D01*
G01*
G37*
G36*
G01*
X208281250Y-34880000D02*
X207768750Y-34880000D01*
G75*
G02*
X207550000Y-34661250I0J218750D01*
G01*
X207550000Y-34223750D01*
G75*
G02*
X207768750Y-34005000I218750J0D01*
G01*
X208281250Y-34005000D01*
G75*
G02*
X208500000Y-34223750I0J-218750D01*
G01*
X208500000Y-34661250D01*
G75*
G02*
X208281250Y-34880000I-218750J0D01*
G01*
G37*
%TD*%
%TO.C,D11*%
G36*
G01*
X172731250Y-33300000D02*
X172218750Y-33300000D01*
G75*
G02*
X172000000Y-33081250I0J218750D01*
G01*
X172000000Y-32643750D01*
G75*
G02*
X172218750Y-32425000I218750J0D01*
G01*
X172731250Y-32425000D01*
G75*
G02*
X172950000Y-32643750I0J-218750D01*
G01*
X172950000Y-33081250D01*
G75*
G02*
X172731250Y-33300000I-218750J0D01*
G01*
G37*
G36*
G01*
X172731250Y-34875000D02*
X172218750Y-34875000D01*
G75*
G02*
X172000000Y-34656250I0J218750D01*
G01*
X172000000Y-34218750D01*
G75*
G02*
X172218750Y-34000000I218750J0D01*
G01*
X172731250Y-34000000D01*
G75*
G02*
X172950000Y-34218750I0J-218750D01*
G01*
X172950000Y-34656250D01*
G75*
G02*
X172731250Y-34875000I-218750J0D01*
G01*
G37*
%TD*%
%TO.C,D10*%
G36*
G01*
X170181250Y-33300000D02*
X169668750Y-33300000D01*
G75*
G02*
X169450000Y-33081250I0J218750D01*
G01*
X169450000Y-32643750D01*
G75*
G02*
X169668750Y-32425000I218750J0D01*
G01*
X170181250Y-32425000D01*
G75*
G02*
X170400000Y-32643750I0J-218750D01*
G01*
X170400000Y-33081250D01*
G75*
G02*
X170181250Y-33300000I-218750J0D01*
G01*
G37*
G36*
G01*
X170181250Y-34875000D02*
X169668750Y-34875000D01*
G75*
G02*
X169450000Y-34656250I0J218750D01*
G01*
X169450000Y-34218750D01*
G75*
G02*
X169668750Y-34000000I218750J0D01*
G01*
X170181250Y-34000000D01*
G75*
G02*
X170400000Y-34218750I0J-218750D01*
G01*
X170400000Y-34656250D01*
G75*
G02*
X170181250Y-34875000I-218750J0D01*
G01*
G37*
%TD*%
%TO.C,D9*%
G36*
G01*
X134631250Y-33300000D02*
X134118750Y-33300000D01*
G75*
G02*
X133900000Y-33081250I0J218750D01*
G01*
X133900000Y-32643750D01*
G75*
G02*
X134118750Y-32425000I218750J0D01*
G01*
X134631250Y-32425000D01*
G75*
G02*
X134850000Y-32643750I0J-218750D01*
G01*
X134850000Y-33081250D01*
G75*
G02*
X134631250Y-33300000I-218750J0D01*
G01*
G37*
G36*
G01*
X134631250Y-34875000D02*
X134118750Y-34875000D01*
G75*
G02*
X133900000Y-34656250I0J218750D01*
G01*
X133900000Y-34218750D01*
G75*
G02*
X134118750Y-34000000I218750J0D01*
G01*
X134631250Y-34000000D01*
G75*
G02*
X134850000Y-34218750I0J-218750D01*
G01*
X134850000Y-34656250D01*
G75*
G02*
X134631250Y-34875000I-218750J0D01*
G01*
G37*
%TD*%
%TO.C,D8*%
G36*
G01*
X132056250Y-33300000D02*
X131543750Y-33300000D01*
G75*
G02*
X131325000Y-33081250I0J218750D01*
G01*
X131325000Y-32643750D01*
G75*
G02*
X131543750Y-32425000I218750J0D01*
G01*
X132056250Y-32425000D01*
G75*
G02*
X132275000Y-32643750I0J-218750D01*
G01*
X132275000Y-33081250D01*
G75*
G02*
X132056250Y-33300000I-218750J0D01*
G01*
G37*
G36*
G01*
X132056250Y-34875000D02*
X131543750Y-34875000D01*
G75*
G02*
X131325000Y-34656250I0J218750D01*
G01*
X131325000Y-34218750D01*
G75*
G02*
X131543750Y-34000000I218750J0D01*
G01*
X132056250Y-34000000D01*
G75*
G02*
X132275000Y-34218750I0J-218750D01*
G01*
X132275000Y-34656250D01*
G75*
G02*
X132056250Y-34875000I-218750J0D01*
G01*
G37*
%TD*%
%TO.C,D7*%
G36*
G01*
X96531250Y-33300000D02*
X96018750Y-33300000D01*
G75*
G02*
X95800000Y-33081250I0J218750D01*
G01*
X95800000Y-32643750D01*
G75*
G02*
X96018750Y-32425000I218750J0D01*
G01*
X96531250Y-32425000D01*
G75*
G02*
X96750000Y-32643750I0J-218750D01*
G01*
X96750000Y-33081250D01*
G75*
G02*
X96531250Y-33300000I-218750J0D01*
G01*
G37*
G36*
G01*
X96531250Y-34875000D02*
X96018750Y-34875000D01*
G75*
G02*
X95800000Y-34656250I0J218750D01*
G01*
X95800000Y-34218750D01*
G75*
G02*
X96018750Y-34000000I218750J0D01*
G01*
X96531250Y-34000000D01*
G75*
G02*
X96750000Y-34218750I0J-218750D01*
G01*
X96750000Y-34656250D01*
G75*
G02*
X96531250Y-34875000I-218750J0D01*
G01*
G37*
%TD*%
%TO.C,D6*%
G36*
G01*
X94031250Y-33300000D02*
X93518750Y-33300000D01*
G75*
G02*
X93300000Y-33081250I0J218750D01*
G01*
X93300000Y-32643750D01*
G75*
G02*
X93518750Y-32425000I218750J0D01*
G01*
X94031250Y-32425000D01*
G75*
G02*
X94250000Y-32643750I0J-218750D01*
G01*
X94250000Y-33081250D01*
G75*
G02*
X94031250Y-33300000I-218750J0D01*
G01*
G37*
G36*
G01*
X94031250Y-34875000D02*
X93518750Y-34875000D01*
G75*
G02*
X93300000Y-34656250I0J218750D01*
G01*
X93300000Y-34218750D01*
G75*
G02*
X93518750Y-34000000I218750J0D01*
G01*
X94031250Y-34000000D01*
G75*
G02*
X94250000Y-34218750I0J-218750D01*
G01*
X94250000Y-34656250D01*
G75*
G02*
X94031250Y-34875000I-218750J0D01*
G01*
G37*
%TD*%
%TO.C,D5*%
G36*
G01*
X58431250Y-33305000D02*
X57918750Y-33305000D01*
G75*
G02*
X57700000Y-33086250I0J218750D01*
G01*
X57700000Y-32648750D01*
G75*
G02*
X57918750Y-32430000I218750J0D01*
G01*
X58431250Y-32430000D01*
G75*
G02*
X58650000Y-32648750I0J-218750D01*
G01*
X58650000Y-33086250D01*
G75*
G02*
X58431250Y-33305000I-218750J0D01*
G01*
G37*
G36*
G01*
X58431250Y-34880000D02*
X57918750Y-34880000D01*
G75*
G02*
X57700000Y-34661250I0J218750D01*
G01*
X57700000Y-34223750D01*
G75*
G02*
X57918750Y-34005000I218750J0D01*
G01*
X58431250Y-34005000D01*
G75*
G02*
X58650000Y-34223750I0J-218750D01*
G01*
X58650000Y-34661250D01*
G75*
G02*
X58431250Y-34880000I-218750J0D01*
G01*
G37*
%TD*%
%TO.C,D4*%
G36*
G01*
X55906250Y-33305000D02*
X55393750Y-33305000D01*
G75*
G02*
X55175000Y-33086250I0J218750D01*
G01*
X55175000Y-32648750D01*
G75*
G02*
X55393750Y-32430000I218750J0D01*
G01*
X55906250Y-32430000D01*
G75*
G02*
X56125000Y-32648750I0J-218750D01*
G01*
X56125000Y-33086250D01*
G75*
G02*
X55906250Y-33305000I-218750J0D01*
G01*
G37*
G36*
G01*
X55906250Y-34880000D02*
X55393750Y-34880000D01*
G75*
G02*
X55175000Y-34661250I0J218750D01*
G01*
X55175000Y-34223750D01*
G75*
G02*
X55393750Y-34005000I218750J0D01*
G01*
X55906250Y-34005000D01*
G75*
G02*
X56125000Y-34223750I0J-218750D01*
G01*
X56125000Y-34661250D01*
G75*
G02*
X55906250Y-34880000I-218750J0D01*
G01*
G37*
%TD*%
%TO.C,D3*%
G36*
G01*
X31117250Y-33305000D02*
X30604750Y-33305000D01*
G75*
G02*
X30386000Y-33086250I0J218750D01*
G01*
X30386000Y-32648750D01*
G75*
G02*
X30604750Y-32430000I218750J0D01*
G01*
X31117250Y-32430000D01*
G75*
G02*
X31336000Y-32648750I0J-218750D01*
G01*
X31336000Y-33086250D01*
G75*
G02*
X31117250Y-33305000I-218750J0D01*
G01*
G37*
G36*
G01*
X31117250Y-34880000D02*
X30604750Y-34880000D01*
G75*
G02*
X30386000Y-34661250I0J218750D01*
G01*
X30386000Y-34223750D01*
G75*
G02*
X30604750Y-34005000I218750J0D01*
G01*
X31117250Y-34005000D01*
G75*
G02*
X31336000Y-34223750I0J-218750D01*
G01*
X31336000Y-34661250D01*
G75*
G02*
X31117250Y-34880000I-218750J0D01*
G01*
G37*
%TD*%
%TO.C,R7*%
G36*
G01*
X205705000Y-103935000D02*
X205705000Y-103385000D01*
G75*
G02*
X205905000Y-103185000I200000J0D01*
G01*
X206305000Y-103185000D01*
G75*
G02*
X206505000Y-103385000I0J-200000D01*
G01*
X206505000Y-103935000D01*
G75*
G02*
X206305000Y-104135000I-200000J0D01*
G01*
X205905000Y-104135000D01*
G75*
G02*
X205705000Y-103935000I0J200000D01*
G01*
G37*
G36*
G01*
X204055000Y-103935000D02*
X204055000Y-103385000D01*
G75*
G02*
X204255000Y-103185000I200000J0D01*
G01*
X204655000Y-103185000D01*
G75*
G02*
X204855000Y-103385000I0J-200000D01*
G01*
X204855000Y-103935000D01*
G75*
G02*
X204655000Y-104135000I-200000J0D01*
G01*
X204255000Y-104135000D01*
G75*
G02*
X204055000Y-103935000I0J200000D01*
G01*
G37*
%TD*%
%TO.C,R6*%
G36*
G01*
X204875000Y-105105000D02*
X204875000Y-105655000D01*
G75*
G02*
X204675000Y-105855000I-200000J0D01*
G01*
X204275000Y-105855000D01*
G75*
G02*
X204075000Y-105655000I0J200000D01*
G01*
X204075000Y-105105000D01*
G75*
G02*
X204275000Y-104905000I200000J0D01*
G01*
X204675000Y-104905000D01*
G75*
G02*
X204875000Y-105105000I0J-200000D01*
G01*
G37*
G36*
G01*
X206525000Y-105105000D02*
X206525000Y-105655000D01*
G75*
G02*
X206325000Y-105855000I-200000J0D01*
G01*
X205925000Y-105855000D01*
G75*
G02*
X205725000Y-105655000I0J200000D01*
G01*
X205725000Y-105105000D01*
G75*
G02*
X205925000Y-104905000I200000J0D01*
G01*
X206325000Y-104905000D01*
G75*
G02*
X206525000Y-105105000I0J-200000D01*
G01*
G37*
%TD*%
%TO.C,R5*%
G36*
G01*
X33888000Y-31223000D02*
X34438000Y-31223000D01*
G75*
G02*
X34638000Y-31423000I0J-200000D01*
G01*
X34638000Y-31823000D01*
G75*
G02*
X34438000Y-32023000I-200000J0D01*
G01*
X33888000Y-32023000D01*
G75*
G02*
X33688000Y-31823000I0J200000D01*
G01*
X33688000Y-31423000D01*
G75*
G02*
X33888000Y-31223000I200000J0D01*
G01*
G37*
G36*
G01*
X33888000Y-29573000D02*
X34438000Y-29573000D01*
G75*
G02*
X34638000Y-29773000I0J-200000D01*
G01*
X34638000Y-30173000D01*
G75*
G02*
X34438000Y-30373000I-200000J0D01*
G01*
X33888000Y-30373000D01*
G75*
G02*
X33688000Y-30173000I0J200000D01*
G01*
X33688000Y-29773000D01*
G75*
G02*
X33888000Y-29573000I200000J0D01*
G01*
G37*
%TD*%
%TO.C,R4*%
G36*
G01*
X41381000Y-31159000D02*
X41931000Y-31159000D01*
G75*
G02*
X42131000Y-31359000I0J-200000D01*
G01*
X42131000Y-31759000D01*
G75*
G02*
X41931000Y-31959000I-200000J0D01*
G01*
X41381000Y-31959000D01*
G75*
G02*
X41181000Y-31759000I0J200000D01*
G01*
X41181000Y-31359000D01*
G75*
G02*
X41381000Y-31159000I200000J0D01*
G01*
G37*
G36*
G01*
X41381000Y-29509000D02*
X41931000Y-29509000D01*
G75*
G02*
X42131000Y-29709000I0J-200000D01*
G01*
X42131000Y-30109000D01*
G75*
G02*
X41931000Y-30309000I-200000J0D01*
G01*
X41381000Y-30309000D01*
G75*
G02*
X41181000Y-30109000I0J200000D01*
G01*
X41181000Y-29709000D01*
G75*
G02*
X41381000Y-29509000I200000J0D01*
G01*
G37*
%TD*%
%TO.C,R3*%
G36*
G01*
X134305000Y-97015000D02*
X134855000Y-97015000D01*
G75*
G02*
X135055000Y-97215000I0J-200000D01*
G01*
X135055000Y-97615000D01*
G75*
G02*
X134855000Y-97815000I-200000J0D01*
G01*
X134305000Y-97815000D01*
G75*
G02*
X134105000Y-97615000I0J200000D01*
G01*
X134105000Y-97215000D01*
G75*
G02*
X134305000Y-97015000I200000J0D01*
G01*
G37*
G36*
G01*
X134305000Y-95365000D02*
X134855000Y-95365000D01*
G75*
G02*
X135055000Y-95565000I0J-200000D01*
G01*
X135055000Y-95965000D01*
G75*
G02*
X134855000Y-96165000I-200000J0D01*
G01*
X134305000Y-96165000D01*
G75*
G02*
X134105000Y-95965000I0J200000D01*
G01*
X134105000Y-95565000D01*
G75*
G02*
X134305000Y-95365000I200000J0D01*
G01*
G37*
%TD*%
%TO.C,R2*%
G36*
G01*
X154411000Y-94405000D02*
X154961000Y-94405000D01*
G75*
G02*
X155161000Y-94605000I0J-200000D01*
G01*
X155161000Y-95005000D01*
G75*
G02*
X154961000Y-95205000I-200000J0D01*
G01*
X154411000Y-95205000D01*
G75*
G02*
X154211000Y-95005000I0J200000D01*
G01*
X154211000Y-94605000D01*
G75*
G02*
X154411000Y-94405000I200000J0D01*
G01*
G37*
G36*
G01*
X154411000Y-92755000D02*
X154961000Y-92755000D01*
G75*
G02*
X155161000Y-92955000I0J-200000D01*
G01*
X155161000Y-93355000D01*
G75*
G02*
X154961000Y-93555000I-200000J0D01*
G01*
X154411000Y-93555000D01*
G75*
G02*
X154211000Y-93355000I0J200000D01*
G01*
X154211000Y-92955000D01*
G75*
G02*
X154411000Y-92755000I200000J0D01*
G01*
G37*
%TD*%
%TO.C,R1*%
G36*
G01*
X148126000Y-100478000D02*
X148126000Y-99928000D01*
G75*
G02*
X148326000Y-99728000I200000J0D01*
G01*
X148726000Y-99728000D01*
G75*
G02*
X148926000Y-99928000I0J-200000D01*
G01*
X148926000Y-100478000D01*
G75*
G02*
X148726000Y-100678000I-200000J0D01*
G01*
X148326000Y-100678000D01*
G75*
G02*
X148126000Y-100478000I0J200000D01*
G01*
G37*
G36*
G01*
X146476000Y-100478000D02*
X146476000Y-99928000D01*
G75*
G02*
X146676000Y-99728000I200000J0D01*
G01*
X147076000Y-99728000D01*
G75*
G02*
X147276000Y-99928000I0J-200000D01*
G01*
X147276000Y-100478000D01*
G75*
G02*
X147076000Y-100678000I-200000J0D01*
G01*
X146676000Y-100678000D01*
G75*
G02*
X146476000Y-100478000I0J200000D01*
G01*
G37*
%TD*%
D11*
%TO.C,U4*%
X37846000Y-29507000D03*
X38796000Y-29507000D03*
X36896000Y-29507000D03*
X36896000Y-31707000D03*
X37846000Y-31707000D03*
X38796000Y-31707000D03*
%TD*%
D12*
%TO.C,U3*%
G36*
X193797235Y-90981193D02*
G01*
X194292210Y-90486218D01*
X195369841Y-91563849D01*
X194874866Y-92058824D01*
X193797235Y-90981193D01*
G37*
G36*
X193019417Y-91759010D02*
G01*
X193514392Y-91264035D01*
X194592023Y-92341666D01*
X194097048Y-92836641D01*
X193019417Y-91759010D01*
G37*
G36*
X192241600Y-92536827D02*
G01*
X192736575Y-92041852D01*
X193814206Y-93119483D01*
X193319231Y-93614458D01*
X192241600Y-92536827D01*
G37*
G36*
X191463783Y-93314645D02*
G01*
X191958758Y-92819670D01*
X193036389Y-93897301D01*
X192541414Y-94392276D01*
X191463783Y-93314645D01*
G37*
G36*
X190685965Y-94092462D02*
G01*
X191180940Y-93597487D01*
X192258571Y-94675118D01*
X191763596Y-95170093D01*
X190685965Y-94092462D01*
G37*
G36*
X189908148Y-94870280D02*
G01*
X190403123Y-94375305D01*
X191480754Y-95452936D01*
X190985779Y-95947911D01*
X189908148Y-94870280D01*
G37*
G36*
X189130330Y-95648097D02*
G01*
X189625305Y-95153122D01*
X190702936Y-96230753D01*
X190207961Y-96725728D01*
X189130330Y-95648097D01*
G37*
G36*
X188352513Y-96425915D02*
G01*
X188847488Y-95930940D01*
X189925119Y-97008571D01*
X189430144Y-97503546D01*
X188352513Y-96425915D01*
G37*
G36*
X187574695Y-97203732D02*
G01*
X188069670Y-96708757D01*
X189147301Y-97786388D01*
X188652326Y-98281363D01*
X187574695Y-97203732D01*
G37*
G36*
X186796878Y-97981550D02*
G01*
X187291853Y-97486575D01*
X188369484Y-98564206D01*
X187874509Y-99059181D01*
X186796878Y-97981550D01*
G37*
G36*
X186019060Y-98759367D02*
G01*
X186514035Y-98264392D01*
X187591666Y-99342023D01*
X187096691Y-99836998D01*
X186019060Y-98759367D01*
G37*
G36*
X185241243Y-99537185D02*
G01*
X185736218Y-99042210D01*
X186813849Y-100119841D01*
X186318874Y-100614816D01*
X185241243Y-99537185D01*
G37*
G36*
X184463425Y-100315002D02*
G01*
X184958400Y-99820027D01*
X186036031Y-100897658D01*
X185541056Y-101392633D01*
X184463425Y-100315002D01*
G37*
G36*
X184781624Y-103337177D02*
G01*
X184286649Y-102842202D01*
X185364280Y-101764571D01*
X185859255Y-102259546D01*
X184781624Y-103337177D01*
G37*
G36*
X185559441Y-104114994D02*
G01*
X185064466Y-103620019D01*
X186142097Y-102542388D01*
X186637072Y-103037363D01*
X185559441Y-104114994D01*
G37*
G36*
X186337259Y-104892812D02*
G01*
X185842284Y-104397837D01*
X186919915Y-103320206D01*
X187414890Y-103815181D01*
X186337259Y-104892812D01*
G37*
G36*
X187115076Y-105670629D02*
G01*
X186620101Y-105175654D01*
X187697732Y-104098023D01*
X188192707Y-104592998D01*
X187115076Y-105670629D01*
G37*
G36*
X187892894Y-106448447D02*
G01*
X187397919Y-105953472D01*
X188475550Y-104875841D01*
X188970525Y-105370816D01*
X187892894Y-106448447D01*
G37*
G36*
X188670711Y-107226264D02*
G01*
X188175736Y-106731289D01*
X189253367Y-105653658D01*
X189748342Y-106148633D01*
X188670711Y-107226264D01*
G37*
G36*
X189448528Y-108004081D02*
G01*
X188953553Y-107509106D01*
X190031184Y-106431475D01*
X190526159Y-106926450D01*
X189448528Y-108004081D01*
G37*
G36*
X190226346Y-108781899D02*
G01*
X189731371Y-108286924D01*
X190809002Y-107209293D01*
X191303977Y-107704268D01*
X190226346Y-108781899D01*
G37*
G36*
X191004163Y-109559716D02*
G01*
X190509188Y-109064741D01*
X191586819Y-107987110D01*
X192081794Y-108482085D01*
X191004163Y-109559716D01*
G37*
G36*
X191781981Y-110337534D02*
G01*
X191287006Y-109842559D01*
X192364637Y-108764928D01*
X192859612Y-109259903D01*
X191781981Y-110337534D01*
G37*
G36*
X192559798Y-111115351D02*
G01*
X192064823Y-110620376D01*
X193142454Y-109542745D01*
X193637429Y-110037720D01*
X192559798Y-111115351D01*
G37*
G36*
X195581973Y-110443600D02*
G01*
X195086998Y-110938575D01*
X194009367Y-109860944D01*
X194504342Y-109365969D01*
X195581973Y-110443600D01*
G37*
G36*
X196359790Y-109665782D02*
G01*
X195864815Y-110160757D01*
X194787184Y-109083126D01*
X195282159Y-108588151D01*
X196359790Y-109665782D01*
G37*
G36*
X197137608Y-108887965D02*
G01*
X196642633Y-109382940D01*
X195565002Y-108305309D01*
X196059977Y-107810334D01*
X197137608Y-108887965D01*
G37*
G36*
X197915425Y-108110147D02*
G01*
X197420450Y-108605122D01*
X196342819Y-107527491D01*
X196837794Y-107032516D01*
X197915425Y-108110147D01*
G37*
G36*
X198693243Y-107332330D02*
G01*
X198198268Y-107827305D01*
X197120637Y-106749674D01*
X197615612Y-106254699D01*
X198693243Y-107332330D01*
G37*
G36*
X199471060Y-106554512D02*
G01*
X198976085Y-107049487D01*
X197898454Y-105971856D01*
X198393429Y-105476881D01*
X199471060Y-106554512D01*
G37*
G36*
X200248878Y-105776695D02*
G01*
X199753903Y-106271670D01*
X198676272Y-105194039D01*
X199171247Y-104699064D01*
X200248878Y-105776695D01*
G37*
G36*
X201026695Y-104998877D02*
G01*
X200531720Y-105493852D01*
X199454089Y-104416221D01*
X199949064Y-103921246D01*
X201026695Y-104998877D01*
G37*
G36*
X201804513Y-104221060D02*
G01*
X201309538Y-104716035D01*
X200231907Y-103638404D01*
X200726882Y-103143429D01*
X201804513Y-104221060D01*
G37*
G36*
X202582330Y-103443242D02*
G01*
X202087355Y-103938217D01*
X201009724Y-102860586D01*
X201504699Y-102365611D01*
X202582330Y-103443242D01*
G37*
G36*
X203360148Y-102665425D02*
G01*
X202865173Y-103160400D01*
X201787542Y-102082769D01*
X202282517Y-101587794D01*
X203360148Y-102665425D01*
G37*
G36*
X204137965Y-101887608D02*
G01*
X203642990Y-102382583D01*
X202565359Y-101304952D01*
X203060334Y-100809977D01*
X204137965Y-101887608D01*
G37*
G36*
X204915782Y-101109790D02*
G01*
X204420807Y-101604765D01*
X203343176Y-100527134D01*
X203838151Y-100032159D01*
X204915782Y-101109790D01*
G37*
%TD*%
D11*
%TO.C,U2*%
X136810000Y-103330000D03*
X138710000Y-103330000D03*
X138710000Y-101130000D03*
X137760000Y-101130000D03*
X136810000Y-101130000D03*
%TD*%
%TO.C,U1*%
X152461000Y-96055000D03*
X150561000Y-96055000D03*
X150561000Y-98255000D03*
X151511000Y-98255000D03*
X152461000Y-98255000D03*
%TD*%
D13*
%TO.C,Q1*%
X139680000Y-97070000D03*
X138730000Y-99070000D03*
X140630000Y-99070000D03*
%TD*%
D14*
%TO.C,J1*%
X40842000Y-23603000D03*
X40042000Y-23603000D03*
X35142000Y-23603000D03*
X34342000Y-23603000D03*
X34342000Y-23603000D03*
X35142000Y-23603000D03*
X40042000Y-23603000D03*
X40842000Y-23603000D03*
D15*
X35842000Y-23603000D03*
X36342000Y-23603000D03*
X36842000Y-23603000D03*
X37842000Y-23603000D03*
X38342000Y-23603000D03*
X38842000Y-23603000D03*
X39342000Y-23603000D03*
X37342000Y-23603000D03*
%TD*%
D16*
%TO.C,D2*%
X136660000Y-95770000D03*
X136660000Y-99070000D03*
%TD*%
%TO.C,D1*%
G36*
G01*
X148030250Y-96578000D02*
X147117750Y-96578000D01*
G75*
G02*
X146874000Y-96334250I0J243750D01*
G01*
X146874000Y-95846750D01*
G75*
G02*
X147117750Y-95603000I243750J0D01*
G01*
X148030250Y-95603000D01*
G75*
G02*
X148274000Y-95846750I0J-243750D01*
G01*
X148274000Y-96334250D01*
G75*
G02*
X148030250Y-96578000I-243750J0D01*
G01*
G37*
G36*
G01*
X148030250Y-98453000D02*
X147117750Y-98453000D01*
G75*
G02*
X146874000Y-98209250I0J243750D01*
G01*
X146874000Y-97721750D01*
G75*
G02*
X147117750Y-97478000I243750J0D01*
G01*
X148030250Y-97478000D01*
G75*
G02*
X148274000Y-97721750I0J-243750D01*
G01*
X148274000Y-98209250D01*
G75*
G02*
X148030250Y-98453000I-243750J0D01*
G01*
G37*
%TD*%
%TO.C,C1*%
G36*
G01*
X148670000Y-94245000D02*
X148670000Y-93295000D01*
G75*
G02*
X148920000Y-93045000I250000J0D01*
G01*
X149420000Y-93045000D01*
G75*
G02*
X149670000Y-93295000I0J-250000D01*
G01*
X149670000Y-94245000D01*
G75*
G02*
X149420000Y-94495000I-250000J0D01*
G01*
X148920000Y-94495000D01*
G75*
G02*
X148670000Y-94245000I0J250000D01*
G01*
G37*
G36*
G01*
X146770000Y-94245000D02*
X146770000Y-93295000D01*
G75*
G02*
X147020000Y-93045000I250000J0D01*
G01*
X147520000Y-93045000D01*
G75*
G02*
X147770000Y-93295000I0J-250000D01*
G01*
X147770000Y-94245000D01*
G75*
G02*
X147520000Y-94495000I-250000J0D01*
G01*
X147020000Y-94495000D01*
G75*
G02*
X146770000Y-94245000I0J250000D01*
G01*
G37*
%TD*%
M02*
