%TF.GenerationSoftware,KiCad,Pcbnew,5.1.10*%
%TF.CreationDate,2021-05-31T21:16:50+02:00*%
%TF.ProjectId,ptm-60nrf,70746d2d-3630-46e7-9266-2e6b69636164,rev?*%
%TF.SameCoordinates,Original*%
%TF.FileFunction,Copper,L1,Top*%
%TF.FilePolarity,Positive*%
%FSLAX46Y46*%
G04 Gerber Fmt 4.6, Leading zero omitted, Abs format (unit mm)*
G04 Created by KiCad (PCBNEW 5.1.10) date 2021-05-31 21:16:50*
%MOMM*%
%LPD*%
G01*
G04 APERTURE LIST*
%TA.AperFunction,ComponentPad*%
%ADD10C,2.250000*%
%TD*%
%TA.AperFunction,ComponentPad*%
%ADD11O,1.700000X1.700000*%
%TD*%
%TA.AperFunction,ComponentPad*%
%ADD12R,1.700000X1.700000*%
%TD*%
%TA.AperFunction,ComponentPad*%
%ADD13C,7.000240*%
%TD*%
%TA.AperFunction,ComponentPad*%
%ADD14O,9.999980X5.001260*%
%TD*%
%TA.AperFunction,ComponentPad*%
%ADD15R,1.905000X1.905000*%
%TD*%
%TA.AperFunction,ComponentPad*%
%ADD16C,1.905000*%
%TD*%
%TA.AperFunction,ComponentPad*%
%ADD17C,0.100000*%
%TD*%
%TA.AperFunction,ComponentPad*%
%ADD18O,1.000000X2.100000*%
%TD*%
%TA.AperFunction,ComponentPad*%
%ADD19O,1.000000X1.600000*%
%TD*%
%TA.AperFunction,ViaPad*%
%ADD20C,0.800000*%
%TD*%
%TA.AperFunction,Conductor*%
%ADD21C,0.380000*%
%TD*%
%TA.AperFunction,Conductor*%
%ADD22C,0.250000*%
%TD*%
G04 APERTURE END LIST*
D10*
%TO.P,MX66,2*%
%TO.N,Net-(D68-Pad2)*%
X164211000Y-98425000D03*
%TO.P,MX66,1*%
%TO.N,COL6*%
X157861000Y-100965000D03*
%TD*%
D11*
%TO.P,J4,3*%
%TO.N,GND*%
X177673000Y-102616000D03*
%TO.P,J4,2*%
%TO.N,/SWDCLK*%
X177673000Y-100076000D03*
D12*
%TO.P,J4,1*%
%TO.N,Net-(J4-Pad1)*%
X177673000Y-97536000D03*
%TD*%
D13*
%TO.P,HOLE,1*%
%TO.N,N/C*%
X45212000Y-46482000D03*
%TD*%
%TO.P,HOLE,1*%
%TO.N,N/C*%
X210566000Y-103632000D03*
%TD*%
%TO.P,HOLE,1*%
%TO.N,N/C*%
X277876000Y-46228000D03*
%TD*%
%TO.P,HOLE,1*%
%TO.N,N/C*%
X147347000Y-65405000D03*
%TD*%
D14*
%TO.P,HOLE,1*%
%TO.N,N/C*%
X303403000Y-74930000D03*
%TD*%
%TO.P,HOLE,1*%
%TO.N,N/C*%
X19685000Y-75057000D03*
%TD*%
D15*
%TO.P,MX46,4*%
%TO.N,N/C*%
X293883054Y-60953542D03*
D16*
%TO.P,MX46,3*%
X291343054Y-60953542D03*
D10*
%TO.P,MX46,1*%
%TO.N,COL13*%
X288803054Y-53333542D03*
%TO.P,MX46,2*%
%TO.N,Net-(D47-Pad2)*%
X295153054Y-50793542D03*
%TD*%
%TO.P,MX48,2*%
%TO.N,Net-(D49-Pad2)*%
X42799250Y-79374500D03*
%TO.P,MX48,1*%
%TO.N,COL0*%
X36449250Y-81914500D03*
%TD*%
%TO.P,MX47,2*%
%TO.N,Net-(D49-Pad2)*%
X33249250Y-79374500D03*
%TO.P,MX47,1*%
%TO.N,COL0*%
X26899250Y-81914500D03*
%TD*%
%TO.P,MX69,2*%
%TO.N,Net-(D71-Pad2)*%
X292799500Y-98425000D03*
%TO.P,MX69,1*%
%TO.N,COL14*%
X286449500Y-100965000D03*
%TD*%
%TO.P,MX68,2*%
%TO.N,Net-(D70-Pad2)*%
X268986000Y-98425000D03*
%TO.P,MX68,1*%
%TO.N,COL13*%
X262636000Y-100965000D03*
%TD*%
%TO.P,MX67,2*%
%TO.N,Net-(D69-Pad2)*%
X245172500Y-98425000D03*
%TO.P,MX67,1*%
%TO.N,COL12*%
X238822500Y-100965000D03*
%TD*%
%TO.P,MX65,2*%
%TO.N,Net-(D67-Pad2)*%
X83247500Y-98424500D03*
%TO.P,MX65,1*%
%TO.N,COL2*%
X76897500Y-100964500D03*
%TD*%
%TO.P,MX64,2*%
%TO.N,Net-(D66-Pad2)*%
X59436000Y-98425000D03*
%TO.P,MX64,1*%
%TO.N,COL1*%
X53086000Y-100965000D03*
%TD*%
%TO.P,MX63,2*%
%TO.N,Net-(D65-Pad2)*%
X35624250Y-98424500D03*
%TO.P,MX63,1*%
%TO.N,COL0*%
X29274250Y-100964500D03*
%TD*%
%TO.P,MX62,2*%
%TO.N,Net-(D64-Pad2)*%
X297561000Y-79375000D03*
%TO.P,MX62,1*%
%TO.N,COL14*%
X291211000Y-81915000D03*
%TD*%
%TO.P,MX61,2*%
%TO.N,Net-(D62-Pad2)*%
X280924000Y-79375000D03*
%TO.P,MX61,1*%
%TO.N,Net-(MX61-Pad1)*%
X274574000Y-81915000D03*
%TD*%
%TO.P,MX60,2*%
%TO.N,Net-(D62-Pad2)*%
X271399000Y-79375000D03*
%TO.P,MX60,1*%
%TO.N,COL12*%
X265049000Y-81915000D03*
%TD*%
%TO.P,MX59,2*%
%TO.N,Net-(D61-Pad2)*%
X245153054Y-79368542D03*
%TO.P,MX59,1*%
%TO.N,COL11*%
X238803054Y-81908542D03*
%TD*%
%TO.P,MX58,2*%
%TO.N,Net-(D60-Pad2)*%
X226103054Y-79368542D03*
%TO.P,MX58,1*%
%TO.N,COL10*%
X219753054Y-81908542D03*
%TD*%
%TO.P,MX57,2*%
%TO.N,Net-(D59-Pad2)*%
X207053054Y-79368542D03*
%TO.P,MX57,1*%
%TO.N,COL9*%
X200703054Y-81908542D03*
%TD*%
%TO.P,MX56,2*%
%TO.N,Net-(D58-Pad2)*%
X188003054Y-79368542D03*
%TO.P,MX56,1*%
%TO.N,COL8*%
X181653054Y-81908542D03*
%TD*%
%TO.P,MX55,2*%
%TO.N,Net-(D57-Pad2)*%
X168953054Y-79368542D03*
%TO.P,MX55,1*%
%TO.N,COL7*%
X162603054Y-81908542D03*
%TD*%
%TO.P,MX54,2*%
%TO.N,Net-(D56-Pad2)*%
X149903054Y-79368542D03*
%TO.P,MX54,1*%
%TO.N,COL6*%
X143553054Y-81908542D03*
%TD*%
%TO.P,MX53,2*%
%TO.N,Net-(D55-Pad2)*%
X130853054Y-79368542D03*
%TO.P,MX53,1*%
%TO.N,COL5*%
X124503054Y-81908542D03*
%TD*%
%TO.P,MX52,2*%
%TO.N,Net-(D54-Pad2)*%
X111803054Y-79368542D03*
%TO.P,MX52,1*%
%TO.N,COL4*%
X105453054Y-81908542D03*
%TD*%
%TO.P,MX51,2*%
%TO.N,Net-(D53-Pad2)*%
X92753054Y-79368542D03*
%TO.P,MX51,1*%
%TO.N,COL3*%
X86403054Y-81908542D03*
%TD*%
%TO.P,MX50,2*%
%TO.N,Net-(D52-Pad2)*%
X73703054Y-79368542D03*
%TO.P,MX50,1*%
%TO.N,COL2*%
X67353054Y-81908542D03*
%TD*%
%TO.P,MX49,2*%
%TO.N,Net-(D51-Pad2)*%
X54673500Y-79375000D03*
%TO.P,MX49,1*%
%TO.N,COL1*%
X48323500Y-81915000D03*
%TD*%
%TO.P,MX45,2*%
%TO.N,Net-(D47-Pad2)*%
X285603054Y-60318542D03*
%TO.P,MX45,1*%
%TO.N,COL13*%
X279253054Y-62858542D03*
%TD*%
%TO.P,MX44,2*%
%TO.N,Net-(D46-Pad2)*%
X273728054Y-60318542D03*
%TO.P,MX44,1*%
%TO.N,COL12*%
X267378054Y-62858542D03*
%TD*%
%TO.P,MX43,2*%
%TO.N,Net-(D45-Pad2)*%
X254678054Y-60318542D03*
%TO.P,MX43,1*%
%TO.N,COL11*%
X248328054Y-62858542D03*
%TD*%
%TO.P,MX42,2*%
%TO.N,Net-(D44-Pad2)*%
X235628054Y-60318542D03*
%TO.P,MX42,1*%
%TO.N,COL10*%
X229278054Y-62858542D03*
%TD*%
%TO.P,MX41,2*%
%TO.N,Net-(D43-Pad2)*%
X216578054Y-60318542D03*
%TO.P,MX41,1*%
%TO.N,COL9*%
X210228054Y-62858542D03*
%TD*%
%TO.P,MX40,2*%
%TO.N,Net-(D42-Pad2)*%
X197528054Y-60318542D03*
%TO.P,MX40,1*%
%TO.N,COL8*%
X191178054Y-62858542D03*
%TD*%
%TO.P,MX39,2*%
%TO.N,Net-(D41-Pad2)*%
X178478054Y-60318542D03*
%TO.P,MX39,1*%
%TO.N,COL7*%
X172128054Y-62858542D03*
%TD*%
%TO.P,MX38,2*%
%TO.N,Net-(D40-Pad2)*%
X159428054Y-60318542D03*
%TO.P,MX38,1*%
%TO.N,COL6*%
X153078054Y-62858542D03*
%TD*%
%TO.P,MX37,2*%
%TO.N,Net-(D39-Pad2)*%
X140378054Y-60318542D03*
%TO.P,MX37,1*%
%TO.N,COL5*%
X134028054Y-62858542D03*
%TD*%
%TO.P,MX36,2*%
%TO.N,Net-(D38-Pad2)*%
X121328054Y-60318542D03*
%TO.P,MX36,1*%
%TO.N,COL4*%
X114978054Y-62858542D03*
%TD*%
%TO.P,MX35,2*%
%TO.N,Net-(D37-Pad2)*%
X102278054Y-60318542D03*
%TO.P,MX35,1*%
%TO.N,COL3*%
X95928054Y-62858542D03*
%TD*%
%TO.P,MX34,2*%
%TO.N,Net-(D36-Pad2)*%
X83228054Y-60318542D03*
%TO.P,MX34,1*%
%TO.N,COL2*%
X76878054Y-62858542D03*
%TD*%
%TO.P,MX33,2*%
%TO.N,Net-(D35-Pad2)*%
X64198500Y-60325000D03*
%TO.P,MX33,1*%
%TO.N,Net-(MX33-Pad1)*%
X57848500Y-62865000D03*
%TD*%
%TO.P,MX32,2*%
%TO.N,Net-(D33-Pad2)*%
X38018000Y-60324500D03*
%TO.P,MX32,1*%
%TO.N,COL0*%
X31668000Y-62864500D03*
%TD*%
%TO.P,MX31,2*%
%TO.N,Net-(D33-Pad2)*%
X33249250Y-60324500D03*
%TO.P,MX31,1*%
%TO.N,COL0*%
X26899250Y-62864500D03*
%TD*%
%TO.P,MX30,2*%
%TO.N,Net-(D32-Pad2)*%
X292765554Y-41268542D03*
%TO.P,MX30,1*%
%TO.N,COL14*%
X286415554Y-43808542D03*
%TD*%
%TO.P,MX29,2*%
%TO.N,Net-(D31-Pad2)*%
X268965554Y-41268542D03*
%TO.P,MX29,1*%
%TO.N,COL12*%
X262615554Y-43808542D03*
%TD*%
%TO.P,MX28,2*%
%TO.N,Net-(D30-Pad2)*%
X249915554Y-41268542D03*
%TO.P,MX28,1*%
%TO.N,COL11*%
X243565554Y-43808542D03*
%TD*%
%TO.P,MX27,2*%
%TO.N,Net-(D29-Pad2)*%
X230865554Y-41268542D03*
%TO.P,MX27,1*%
%TO.N,COL10*%
X224515554Y-43808542D03*
%TD*%
%TO.P,MX26,2*%
%TO.N,Net-(D28-Pad2)*%
X211815554Y-41268542D03*
%TO.P,MX26,1*%
%TO.N,COL9*%
X205465554Y-43808542D03*
%TD*%
%TO.P,MX25,2*%
%TO.N,Net-(D27-Pad2)*%
X192765554Y-41268542D03*
%TO.P,MX25,1*%
%TO.N,COL8*%
X186415554Y-43808542D03*
%TD*%
%TO.P,MX24,2*%
%TO.N,Net-(D26-Pad2)*%
X173715554Y-41268542D03*
%TO.P,MX24,1*%
%TO.N,COL7*%
X167365554Y-43808542D03*
%TD*%
%TO.P,MX23,2*%
%TO.N,Net-(D25-Pad2)*%
X154665554Y-41268542D03*
%TO.P,MX23,1*%
%TO.N,COL6*%
X148315554Y-43808542D03*
%TD*%
%TO.P,MX22,2*%
%TO.N,Net-(D24-Pad2)*%
X135615554Y-41268542D03*
%TO.P,MX22,1*%
%TO.N,COL5*%
X129265554Y-43808542D03*
%TD*%
%TO.P,MX21,2*%
%TO.N,Net-(D23-Pad2)*%
X116565554Y-41268542D03*
%TO.P,MX21,1*%
%TO.N,COL4*%
X110215554Y-43808542D03*
%TD*%
%TO.P,MX20,2*%
%TO.N,Net-(D22-Pad2)*%
X97515554Y-41268542D03*
%TO.P,MX20,1*%
%TO.N,COL3*%
X91165554Y-43808542D03*
%TD*%
%TO.P,MX19,2*%
%TO.N,Net-(D21-Pad2)*%
X78465554Y-41268542D03*
%TO.P,MX19,1*%
%TO.N,COL2*%
X72115554Y-43808542D03*
%TD*%
%TO.P,MX18,2*%
%TO.N,Net-(D20-Pad2)*%
X59436000Y-41275000D03*
%TO.P,MX18,1*%
%TO.N,COL1*%
X53086000Y-43815000D03*
%TD*%
%TO.P,MX17,2*%
%TO.N,Net-(D19-Pad2)*%
X35624250Y-41274500D03*
%TO.P,MX17,1*%
%TO.N,COL0*%
X29274250Y-43814500D03*
%TD*%
%TO.P,MX16,2*%
%TO.N,Net-(D18-Pad2)*%
X297561000Y-22225000D03*
%TO.P,MX16,1*%
%TO.N,COL14*%
X291211000Y-24765000D03*
%TD*%
%TO.P,MX15,2*%
%TO.N,Net-(D16-Pad2)*%
X288036000Y-22225000D03*
%TO.P,MX15,1*%
%TO.N,COL13*%
X281686000Y-24765000D03*
%TD*%
%TO.P,MX14,2*%
%TO.N,Net-(D16-Pad2)*%
X278511000Y-22225000D03*
%TO.P,MX14,1*%
%TO.N,COL13*%
X272161000Y-24765000D03*
%TD*%
%TO.P,MX13,2*%
%TO.N,Net-(D15-Pad2)*%
X259461000Y-22225000D03*
%TO.P,MX13,1*%
%TO.N,COL12*%
X253111000Y-24765000D03*
%TD*%
%TO.P,MX12,2*%
%TO.N,Net-(D14-Pad2)*%
X240411000Y-22225000D03*
%TO.P,MX12,1*%
%TO.N,COL11*%
X234061000Y-24765000D03*
%TD*%
%TO.P,MX11,2*%
%TO.N,Net-(D13-Pad2)*%
X221361000Y-22225000D03*
%TO.P,MX11,1*%
%TO.N,COL10*%
X215011000Y-24765000D03*
%TD*%
%TO.P,MX10,2*%
%TO.N,Net-(D12-Pad2)*%
X202311000Y-22225000D03*
%TO.P,MX10,1*%
%TO.N,COL9*%
X195961000Y-24765000D03*
%TD*%
%TO.P,MX9,2*%
%TO.N,Net-(D11-Pad2)*%
X183261000Y-22225000D03*
%TO.P,MX9,1*%
%TO.N,COL8*%
X176911000Y-24765000D03*
%TD*%
%TO.P,MX8,2*%
%TO.N,Net-(D10-Pad2)*%
X164211000Y-22225000D03*
%TO.P,MX8,1*%
%TO.N,COL7*%
X157861000Y-24765000D03*
%TD*%
%TO.P,MX7,2*%
%TO.N,Net-(D9-Pad2)*%
X145161000Y-22225000D03*
%TO.P,MX7,1*%
%TO.N,COL6*%
X138811000Y-24765000D03*
%TD*%
%TO.P,MX6,2*%
%TO.N,Net-(D8-Pad2)*%
X126111000Y-22225000D03*
%TO.P,MX6,1*%
%TO.N,COL5*%
X119761000Y-24765000D03*
%TD*%
%TO.P,MX5,2*%
%TO.N,Net-(D7-Pad2)*%
X107061000Y-22225000D03*
%TO.P,MX5,1*%
%TO.N,COL4*%
X100711000Y-24765000D03*
%TD*%
%TO.P,MX4,2*%
%TO.N,Net-(D6-Pad2)*%
X88011000Y-22225000D03*
%TO.P,MX4,1*%
%TO.N,COL3*%
X81661000Y-24765000D03*
%TD*%
%TO.P,MX3,2*%
%TO.N,Net-(D5-Pad2)*%
X68961000Y-22225000D03*
%TO.P,MX3,1*%
%TO.N,COL2*%
X62611000Y-24765000D03*
%TD*%
%TO.P,MX2,2*%
%TO.N,Net-(D4-Pad2)*%
X49911000Y-22225000D03*
%TO.P,MX2,1*%
%TO.N,COL1*%
X43561000Y-24765000D03*
%TD*%
%TO.P,MX1,2*%
%TO.N,Net-(D3-Pad2)*%
X30861000Y-22225000D03*
%TO.P,MX1,1*%
%TO.N,COL0*%
X24511000Y-24765000D03*
%TD*%
%TA.AperFunction,ComponentPad*%
D17*
%TO.P,U3,55*%
%TO.N,Net-(U3-Pad55)*%
G36*
X187786827Y-100527134D02*
G01*
X188281802Y-100032159D01*
X189359433Y-101109790D01*
X188864458Y-101604765D01*
X187786827Y-100527134D01*
G37*
%TD.AperFunction*%
%TA.AperFunction,ComponentPad*%
%TO.P,U3,54*%
%TO.N,Net-(U3-Pad54)*%
G36*
X188564645Y-99749317D02*
G01*
X189059620Y-99254342D01*
X190137251Y-100331973D01*
X189642276Y-100826948D01*
X188564645Y-99749317D01*
G37*
%TD.AperFunction*%
%TA.AperFunction,ComponentPad*%
%TO.P,U3,53*%
%TO.N,Net-(U3-Pad53)*%
G36*
X189342462Y-98971499D02*
G01*
X189837437Y-98476524D01*
X190915068Y-99554155D01*
X190420093Y-100049130D01*
X189342462Y-98971499D01*
G37*
%TD.AperFunction*%
%TA.AperFunction,ComponentPad*%
%TO.P,U3,52*%
%TO.N,Net-(U3-Pad52)*%
G36*
X190120280Y-98193682D02*
G01*
X190615255Y-97698707D01*
X191692886Y-98776338D01*
X191197911Y-99271313D01*
X190120280Y-98193682D01*
G37*
%TD.AperFunction*%
%TA.AperFunction,ComponentPad*%
%TO.P,U3,51*%
%TO.N,Net-(U3-Pad51)*%
G36*
X190898097Y-97415864D02*
G01*
X191393072Y-96920889D01*
X192470703Y-97998520D01*
X191975728Y-98493495D01*
X190898097Y-97415864D01*
G37*
%TD.AperFunction*%
%TA.AperFunction,ComponentPad*%
%TO.P,U3,50*%
%TO.N,Net-(U3-Pad50)*%
G36*
X191675915Y-96638047D02*
G01*
X192170890Y-96143072D01*
X193248521Y-97220703D01*
X192753546Y-97715678D01*
X191675915Y-96638047D01*
G37*
%TD.AperFunction*%
%TA.AperFunction,ComponentPad*%
%TO.P,U3,49*%
%TO.N,Net-(U3-Pad49)*%
G36*
X192453732Y-95860229D02*
G01*
X192948707Y-95365254D01*
X194026338Y-96442885D01*
X193531363Y-96937860D01*
X192453732Y-95860229D01*
G37*
%TD.AperFunction*%
%TA.AperFunction,ComponentPad*%
%TO.P,U3,48*%
%TO.N,Net-(U3-Pad48)*%
G36*
X193231549Y-95082412D02*
G01*
X193726524Y-94587437D01*
X194804155Y-95665068D01*
X194309180Y-96160043D01*
X193231549Y-95082412D01*
G37*
%TD.AperFunction*%
%TA.AperFunction,ComponentPad*%
%TO.P,U3,47*%
%TO.N,Net-(U3-Pad47)*%
G36*
X194009367Y-94304594D02*
G01*
X194504342Y-93809619D01*
X195581973Y-94887250D01*
X195086998Y-95382225D01*
X194009367Y-94304594D01*
G37*
%TD.AperFunction*%
%TA.AperFunction,ComponentPad*%
%TO.P,U3,46*%
%TO.N,Net-(U3-Pad46)*%
G36*
X193797235Y-106537542D02*
G01*
X194292210Y-106042567D01*
X195369841Y-107120198D01*
X194874866Y-107615173D01*
X193797235Y-106537542D01*
G37*
%TD.AperFunction*%
%TA.AperFunction,ComponentPad*%
%TO.P,U3,45*%
%TO.N,Net-(U3-Pad45)*%
G36*
X194575052Y-105759724D02*
G01*
X195070027Y-105264749D01*
X196147658Y-106342380D01*
X195652683Y-106837355D01*
X194575052Y-105759724D01*
G37*
%TD.AperFunction*%
%TA.AperFunction,ComponentPad*%
%TO.P,U3,44*%
%TO.N,N/C*%
G36*
X195352870Y-104981907D02*
G01*
X195847845Y-104486932D01*
X196925476Y-105564563D01*
X196430501Y-106059538D01*
X195352870Y-104981907D01*
G37*
%TD.AperFunction*%
%TA.AperFunction,ComponentPad*%
%TO.P,U3,43*%
%TO.N,Net-(U3-Pad43)*%
G36*
X196130687Y-104204089D02*
G01*
X196625662Y-103709114D01*
X197703293Y-104786745D01*
X197208318Y-105281720D01*
X196130687Y-104204089D01*
G37*
%TD.AperFunction*%
%TA.AperFunction,ComponentPad*%
%TO.P,U3,42*%
%TO.N,Net-(U3-Pad42)*%
G36*
X196908505Y-103426272D02*
G01*
X197403480Y-102931297D01*
X198481111Y-104008928D01*
X197986136Y-104503903D01*
X196908505Y-103426272D01*
G37*
%TD.AperFunction*%
%TA.AperFunction,ComponentPad*%
%TO.P,U3,41*%
%TO.N,Net-(U3-Pad41)*%
G36*
X197686322Y-102648454D02*
G01*
X198181297Y-102153479D01*
X199258928Y-103231110D01*
X198763953Y-103726085D01*
X197686322Y-102648454D01*
G37*
%TD.AperFunction*%
%TA.AperFunction,ComponentPad*%
%TO.P,U3,40*%
%TO.N,Net-(U3-Pad40)*%
G36*
X198464140Y-101870637D02*
G01*
X198959115Y-101375662D01*
X200036746Y-102453293D01*
X199541771Y-102948268D01*
X198464140Y-101870637D01*
G37*
%TD.AperFunction*%
%TA.AperFunction,ComponentPad*%
%TO.P,U3,39*%
%TO.N,Net-(U3-Pad39)*%
G36*
X199241957Y-101092820D02*
G01*
X199736932Y-100597845D01*
X200814563Y-101675476D01*
X200319588Y-102170451D01*
X199241957Y-101092820D01*
G37*
%TD.AperFunction*%
%TA.AperFunction,ComponentPad*%
%TO.P,U3,38*%
%TO.N,Net-(U3-Pad38)*%
G36*
X200019775Y-100315002D02*
G01*
X200514750Y-99820027D01*
X201592381Y-100897658D01*
X201097406Y-101392633D01*
X200019775Y-100315002D01*
G37*
%TD.AperFunction*%
%TD*%
%TO.P,J2,MP*%
%TO.N,N/C*%
%TA.AperFunction,SMDPad,CuDef*%
G36*
G01*
X151187000Y-108062001D02*
X151187000Y-106761999D01*
G75*
G02*
X151436999Y-106512000I249999J0D01*
G01*
X152137001Y-106512000D01*
G75*
G02*
X152387000Y-106761999I0J-249999D01*
G01*
X152387000Y-108062001D01*
G75*
G02*
X152137001Y-108312000I-249999J0D01*
G01*
X151436999Y-108312000D01*
G75*
G02*
X151187000Y-108062001I0J249999D01*
G01*
G37*
%TD.AperFunction*%
%TA.AperFunction,SMDPad,CuDef*%
G36*
G01*
X147587000Y-108062001D02*
X147587000Y-106761999D01*
G75*
G02*
X147836999Y-106512000I249999J0D01*
G01*
X148537001Y-106512000D01*
G75*
G02*
X148787000Y-106761999I0J-249999D01*
G01*
X148787000Y-108062001D01*
G75*
G02*
X148537001Y-108312000I-249999J0D01*
G01*
X147836999Y-108312000D01*
G75*
G02*
X147587000Y-108062001I0J249999D01*
G01*
G37*
%TD.AperFunction*%
%TO.P,J2,2*%
%TO.N,GND*%
%TA.AperFunction,SMDPad,CuDef*%
G36*
G01*
X150187000Y-104162000D02*
X150187000Y-102912000D01*
G75*
G02*
X150337000Y-102762000I150000J0D01*
G01*
X150637000Y-102762000D01*
G75*
G02*
X150787000Y-102912000I0J-150000D01*
G01*
X150787000Y-104162000D01*
G75*
G02*
X150637000Y-104312000I-150000J0D01*
G01*
X150337000Y-104312000D01*
G75*
G02*
X150187000Y-104162000I0J150000D01*
G01*
G37*
%TD.AperFunction*%
%TO.P,J2,1*%
%TO.N,VBAT*%
%TA.AperFunction,SMDPad,CuDef*%
G36*
G01*
X149187000Y-104162000D02*
X149187000Y-102912000D01*
G75*
G02*
X149337000Y-102762000I150000J0D01*
G01*
X149637000Y-102762000D01*
G75*
G02*
X149787000Y-102912000I0J-150000D01*
G01*
X149787000Y-104162000D01*
G75*
G02*
X149637000Y-104312000I-150000J0D01*
G01*
X149337000Y-104312000D01*
G75*
G02*
X149187000Y-104162000I0J150000D01*
G01*
G37*
%TD.AperFunction*%
%TD*%
D18*
%TO.P,J1,S1*%
%TO.N,GND*%
X41912000Y-22688000D03*
X33272000Y-22688000D03*
D19*
X33272000Y-18508000D03*
X41912000Y-18508000D03*
%TD*%
D20*
%TO.N,VBUS*%
X34196000Y-25654000D03*
X37846000Y-26416000D03*
X40640000Y-25654000D03*
X173875308Y-77157279D03*
X180497347Y-93402653D03*
X132170000Y-97400000D03*
X137581020Y-77121010D03*
X41060000Y-61040000D03*
X49811032Y-70370263D03*
%TO.N,GND*%
X33782000Y-33020000D03*
X37846000Y-33274000D03*
X42164000Y-33020000D03*
X151638000Y-99822000D03*
X138176000Y-97028000D03*
X144780000Y-99568000D03*
X152550000Y-93550000D03*
X183920000Y-99310000D03*
X139960000Y-75221000D03*
X43570000Y-58100000D03*
X51910000Y-68230000D03*
%TO.N,ROW0*%
X192770000Y-88080000D03*
X194232500Y-34442500D03*
%TO.N,ROW1*%
X191969990Y-88772227D03*
X187560000Y-69300000D03*
X185100000Y-69200000D03*
X185049500Y-53619500D03*
%TO.N,ROW2*%
X191244990Y-89499751D03*
X188397500Y-72797500D03*
%TO.N,ROW4*%
X187990000Y-95840000D03*
X167710000Y-105290000D03*
X197730000Y-110800000D03*
%TO.N,USB-D-*%
X35560000Y-34290000D03*
X181680000Y-93650000D03*
X176520175Y-78950347D03*
X42000000Y-60020000D03*
X50540621Y-69686374D03*
%TO.N,USB-D+*%
X40146000Y-34304000D03*
X182560000Y-93150000D03*
X177511803Y-78821211D03*
X42760000Y-59010000D03*
X51202892Y-68937108D03*
%TO.N,VBAT*%
X150114000Y-99478000D03*
X144526000Y-102616000D03*
X170730000Y-104550000D03*
X206150000Y-106650000D03*
%TO.N,/SWDCLK*%
X188850000Y-94850000D03*
%TO.N,Net-(J4-Pad1)*%
X189680000Y-94120000D03*
%TO.N,COL0*%
X196340000Y-110890000D03*
%TO.N,COL1*%
X190860000Y-110165000D03*
%TO.N,COL2*%
X189862331Y-109714990D03*
%TO.N,COL3*%
X188862328Y-109250030D03*
%TO.N,COL4*%
X188772477Y-108254073D03*
%TO.N,COL5*%
X187585622Y-108350010D03*
%TO.N,COL6*%
X186580000Y-107900000D03*
%TO.N,COL7*%
X183373503Y-96542268D03*
%TO.N,COL8*%
X184830000Y-95420000D03*
%TO.N,COL9*%
X206870000Y-94320000D03*
%TO.N,COL10*%
X214820000Y-94620000D03*
%TO.N,COL11*%
X238960000Y-94560000D03*
%TO.N,COL12*%
X244383750Y-95403750D03*
%TO.N,COL13*%
X273932501Y-95762501D03*
%TO.N,COL14*%
X286449500Y-96579500D03*
%TO.N,VDD*%
X137060000Y-96060000D03*
X137350000Y-105430001D03*
%TD*%
D21*
%TO.N,VBUS*%
X34196000Y-25654000D02*
X32258000Y-25654000D01*
X32258000Y-25654000D02*
X31750000Y-26162000D01*
X37846000Y-25654000D02*
X37846000Y-26416000D01*
X39878000Y-25654000D02*
X37846000Y-25654000D01*
X37846000Y-25654000D02*
X34196000Y-25654000D01*
X40640000Y-25654000D02*
X39878000Y-25654000D01*
X31750000Y-26162000D02*
X31750000Y-30480000D01*
X31750000Y-30480000D02*
X32512000Y-31242000D01*
X32512000Y-31242000D02*
X32512000Y-34544000D01*
X173875308Y-77722964D02*
X176072344Y-79920000D01*
X173875308Y-77157279D02*
X173875308Y-77722964D01*
X176072344Y-91307088D02*
X177290266Y-92525010D01*
X176072344Y-79920000D02*
X176072344Y-91307088D01*
X179619704Y-92525010D02*
X180497347Y-93402653D01*
X177290266Y-92525010D02*
X179619704Y-92525010D01*
X132170000Y-97400000D02*
X134930000Y-94640000D01*
X134930000Y-79772030D02*
X137581020Y-77121010D01*
X134930000Y-94640000D02*
X134930000Y-79772030D01*
X32512000Y-42302000D02*
X36440000Y-46230000D01*
X32512000Y-34544000D02*
X32512000Y-42302000D01*
X36440000Y-47430000D02*
X41090000Y-52080000D01*
X36440000Y-46230000D02*
X36440000Y-47430000D01*
X41090000Y-61010000D02*
X41060000Y-61040000D01*
X41090000Y-52080000D02*
X41090000Y-61010000D01*
X41060000Y-61619231D02*
X49811032Y-70370263D01*
X41060000Y-61040000D02*
X41060000Y-61619231D01*
%TO.N,GND*%
X151638000Y-99822000D02*
X151638000Y-97536000D01*
X151638000Y-97536000D02*
X145034000Y-97536000D01*
X145034000Y-97536000D02*
X144526000Y-97028000D01*
X144526000Y-97028000D02*
X138176000Y-97028000D01*
X145034000Y-99314000D02*
X144780000Y-99568000D01*
X145034000Y-97536000D02*
X145034000Y-99314000D01*
X151638000Y-102386000D02*
X150487000Y-103537000D01*
X151638000Y-99822000D02*
X151638000Y-102386000D01*
X151638000Y-94462000D02*
X152550000Y-93550000D01*
X151638000Y-97536000D02*
X151638000Y-94462000D01*
X183920000Y-99340000D02*
X183920000Y-99310000D01*
X180614000Y-102616000D02*
X183920000Y-99310000D01*
X177673000Y-102616000D02*
X180614000Y-102616000D01*
X41910000Y-33274000D02*
X42164000Y-33020000D01*
X37846000Y-33274000D02*
X41910000Y-33274000D01*
X37592000Y-33020000D02*
X37846000Y-33274000D01*
X33782000Y-33020000D02*
X37592000Y-33020000D01*
X33782000Y-33020000D02*
X33782000Y-34993742D01*
X139960000Y-95244000D02*
X138176000Y-97028000D01*
X41321879Y-33862121D02*
X41321879Y-48841879D01*
X42164000Y-33020000D02*
X41321879Y-33862121D01*
X43570000Y-51090000D02*
X43570000Y-58100000D01*
X41321879Y-48841879D02*
X43570000Y-51090000D01*
X43570000Y-59890000D02*
X51910000Y-68230000D01*
X43570000Y-58100000D02*
X43570000Y-59890000D01*
X139960000Y-83997690D02*
X139960000Y-82630000D01*
X149512310Y-93550000D02*
X139960000Y-83997690D01*
X152550000Y-93550000D02*
X149512310Y-93550000D01*
X139960000Y-82630000D02*
X139960000Y-95244000D01*
X139960000Y-75221000D02*
X139960000Y-82630000D01*
D22*
%TO.N,ROW0*%
X194215555Y-34459445D02*
X194232500Y-34442500D01*
X194215555Y-41964543D02*
X194215555Y-34459445D01*
X192669153Y-43510945D02*
X194215555Y-41964543D01*
X192669153Y-87979153D02*
X192669153Y-43510945D01*
X192770000Y-88080000D02*
X192669153Y-87979153D01*
%TO.N,ROW1*%
X191969990Y-73709990D02*
X187560000Y-69300000D01*
X191969990Y-88772227D02*
X191969990Y-73709990D01*
X185100000Y-54494000D02*
X185112000Y-54482000D01*
X185100000Y-69200000D02*
X185100000Y-54494000D01*
X185100000Y-53670000D02*
X185049500Y-53619500D01*
X185100000Y-54494000D02*
X185100000Y-53670000D01*
%TO.N,ROW2*%
X191244990Y-75634990D02*
X189270000Y-73660000D01*
X191244990Y-81970604D02*
X191244990Y-75634990D01*
X189343053Y-83872541D02*
X191244990Y-81970604D01*
X189343053Y-87597814D02*
X189343053Y-83872541D01*
X191244990Y-89499751D02*
X189343053Y-87597814D01*
X189270000Y-73660000D02*
X189260000Y-73660000D01*
X189260000Y-73660000D02*
X188397500Y-72797500D01*
%TO.N,ROW4*%
X169208999Y-103791001D02*
X167710000Y-105290000D01*
X187990000Y-96405685D02*
X180604684Y-103791001D01*
X180604684Y-103791001D02*
X169208999Y-103791001D01*
X187990000Y-95840000D02*
X187990000Y-96405685D01*
X197600058Y-110800000D02*
X197730000Y-110800000D01*
X191933001Y-110164999D02*
X187058002Y-105290000D01*
X197094999Y-110164999D02*
X191933001Y-110164999D01*
X187058002Y-105290000D02*
X167710000Y-105290000D01*
X197730000Y-110800000D02*
X197094999Y-110164999D01*
%TO.N,USB-D-*%
X180130000Y-92010000D02*
X181680000Y-93560000D01*
X177503590Y-92010000D02*
X180130000Y-92010000D01*
X176841990Y-91348400D02*
X177503590Y-92010000D01*
X176841990Y-79098656D02*
X176841990Y-91348400D01*
X176693681Y-78950347D02*
X176841990Y-79098656D01*
X176520175Y-78950347D02*
X176693681Y-78950347D01*
X39364251Y-38094251D02*
X39364251Y-49084251D01*
X35560000Y-34290000D02*
X39364251Y-38094251D01*
X42000000Y-51720000D02*
X42000000Y-60020000D01*
X39364251Y-49084251D02*
X42000000Y-51720000D01*
X42000000Y-61145753D02*
X50540621Y-69686374D01*
X42000000Y-60020000D02*
X42000000Y-61145753D01*
%TO.N,USB-D+*%
X180572000Y-91162000D02*
X182560000Y-93150000D01*
X177292000Y-78912256D02*
X177292000Y-91162000D01*
X177292000Y-91162000D02*
X180572000Y-91162000D01*
X40146000Y-34304000D02*
X40146000Y-48394334D01*
X42760000Y-51008334D02*
X42760000Y-59010000D01*
X40146000Y-48394334D02*
X42760000Y-51008334D01*
X42760000Y-60494216D02*
X51202892Y-68937108D01*
X42760000Y-59010000D02*
X42760000Y-60494216D01*
D21*
%TO.N,VBAT*%
X150114000Y-99478000D02*
X149487000Y-100105000D01*
X145407000Y-101735000D02*
X144526000Y-102616000D01*
X149487000Y-101735000D02*
X145407000Y-101735000D01*
X149487000Y-100105000D02*
X149487000Y-101735000D01*
X149487000Y-101735000D02*
X149487000Y-103537000D01*
X201680017Y-99400017D02*
X200340000Y-98060000D01*
X201680017Y-99430017D02*
X201680017Y-99400017D01*
X200340000Y-98060000D02*
X193850000Y-104550000D01*
X206150000Y-103900000D02*
X201680017Y-99430017D01*
X206150000Y-106650000D02*
X206150000Y-103900000D01*
X193850000Y-104550000D02*
X170730000Y-104550000D01*
%TO.N,/SWDCLK*%
X181984798Y-100076000D02*
X177673000Y-100076000D01*
X187210798Y-94850000D02*
X181984798Y-100076000D01*
X188850000Y-94850000D02*
X187210798Y-94850000D01*
D22*
%TO.N,Net-(J4-Pad1)*%
X189680000Y-94120000D02*
X187212464Y-94120000D01*
X187212464Y-94120000D02*
X181771474Y-99560990D01*
X179697990Y-99560990D02*
X177673000Y-97536000D01*
X181771474Y-99560990D02*
X179697990Y-99560990D01*
%TO.N,COL0*%
X24511000Y-39051250D02*
X29274250Y-43814500D01*
X24511000Y-24765000D02*
X24511000Y-39051250D01*
X29274250Y-60489500D02*
X26899250Y-62864500D01*
X29274250Y-43814500D02*
X29274250Y-60489500D01*
X29293000Y-60489500D02*
X29274250Y-60489500D01*
X31668000Y-62864500D02*
X29293000Y-60489500D01*
X26503999Y-81519249D02*
X26899250Y-81914500D01*
X26503999Y-76581979D02*
X26503999Y-81519249D01*
X26899250Y-76186728D02*
X26503999Y-76581979D01*
X26899250Y-62864500D02*
X26899250Y-76186728D01*
X26899250Y-81914500D02*
X36449250Y-81914500D01*
X26034099Y-97724349D02*
X29274250Y-100964500D01*
X26034099Y-91596427D02*
X26034099Y-97724349D01*
X26899250Y-90731276D02*
X26034099Y-91596427D01*
X26899250Y-81914500D02*
X26899250Y-90731276D01*
X106905010Y-110890000D02*
X108399636Y-110890000D01*
X108399636Y-110890000D02*
X196340000Y-110890000D01*
X105734626Y-108224990D02*
X106905010Y-109395374D01*
X103395376Y-108224990D02*
X105734626Y-108224990D01*
X102104990Y-110940000D02*
X102104990Y-109515374D01*
X31785010Y-110940000D02*
X102104990Y-110940000D01*
X106905010Y-109395374D02*
X106905010Y-110890000D01*
X102104990Y-109515374D02*
X103395376Y-108224990D01*
X29274250Y-108429240D02*
X31785010Y-110940000D01*
X29274250Y-100964500D02*
X29274250Y-108429240D01*
%TO.N,COL1*%
X43561000Y-34290000D02*
X53086000Y-43815000D01*
X43561000Y-24765000D02*
X43561000Y-34290000D01*
X48323500Y-96202500D02*
X53086000Y-100965000D01*
X48323500Y-81915000D02*
X48323500Y-96202500D01*
X48323500Y-81915000D02*
X48323500Y-73776500D01*
X53086000Y-69014000D02*
X48323500Y-73776500D01*
X53086000Y-43815000D02*
X53086000Y-69014000D01*
X107355020Y-109208974D02*
X107355020Y-110435020D01*
X105921027Y-107774981D02*
X107355020Y-109208974D01*
X103208975Y-107774980D02*
X105921027Y-107774981D01*
X101654980Y-110489990D02*
X101654980Y-109328974D01*
X107359990Y-110439990D02*
X170474235Y-110439990D01*
X107355020Y-110435020D02*
X107359990Y-110439990D01*
X53980000Y-110489990D02*
X101654980Y-110489990D01*
X53086000Y-109595990D02*
X53980000Y-110489990D01*
X101654980Y-109328974D02*
X103208975Y-107774980D01*
X53086000Y-100965000D02*
X53086000Y-109595990D01*
X190585010Y-110439990D02*
X190860000Y-110165000D01*
X170474235Y-110439990D02*
X190585010Y-110439990D01*
%TO.N,COL2*%
X62611000Y-34303988D02*
X72115554Y-43808542D01*
X62611000Y-24765000D02*
X62611000Y-34303988D01*
X72115554Y-58096042D02*
X76878054Y-62858542D01*
X72115554Y-43808542D02*
X72115554Y-58096042D01*
X72115554Y-77146042D02*
X67353054Y-81908542D01*
X72115554Y-58096042D02*
X72115554Y-77146042D01*
X74863502Y-100964500D02*
X76897500Y-100964500D01*
X67353054Y-93454052D02*
X74863502Y-100964500D01*
X67353054Y-81908542D02*
X67353054Y-93454052D01*
X76897500Y-100964500D02*
X76897500Y-109157480D01*
X76897500Y-109157480D02*
X77780000Y-110039980D01*
X77780000Y-110039980D02*
X101204970Y-110039980D01*
X106107428Y-107324972D02*
X107805030Y-109022574D01*
X103022576Y-107324971D02*
X106107428Y-107324972D01*
X101204971Y-109142573D02*
X103022576Y-107324971D01*
X101204970Y-110039980D02*
X101204971Y-109142573D01*
X107805030Y-109022574D02*
X107805030Y-109975030D01*
X107805030Y-109975030D02*
X169866193Y-109975030D01*
X169834970Y-109975030D02*
X169820020Y-109989980D01*
X169866193Y-109975030D02*
X169834970Y-109975030D01*
X189602291Y-109975030D02*
X189862331Y-109714990D01*
X169866193Y-109975030D02*
X189602291Y-109975030D01*
%TO.N,COL3*%
X81661000Y-34303988D02*
X91165554Y-43808542D01*
X81661000Y-24765000D02*
X81661000Y-34303988D01*
X91165554Y-58096042D02*
X95928054Y-62858542D01*
X91165554Y-43808542D02*
X91165554Y-58096042D01*
X91165554Y-77146042D02*
X86403054Y-81908542D01*
X91165554Y-58096042D02*
X91165554Y-77146042D01*
X108265020Y-109525020D02*
X169290897Y-109525020D01*
X108255040Y-109515040D02*
X108265020Y-109525020D01*
X108255040Y-108836174D02*
X108255040Y-109515040D01*
X106293829Y-106874963D02*
X108255040Y-108836174D01*
X102836177Y-106874962D02*
X106293829Y-106874963D01*
X100754961Y-109589970D02*
X100754963Y-108956172D01*
X87826076Y-109589970D02*
X100754961Y-109589970D01*
X87528053Y-109291947D02*
X87826076Y-109589970D01*
X87528053Y-83033541D02*
X87528053Y-109291947D01*
X100754963Y-108956172D02*
X102836177Y-106874962D01*
X86403054Y-81908542D02*
X87528053Y-83033541D01*
X188587338Y-109525020D02*
X188862328Y-109250030D01*
X169290897Y-109525020D02*
X188587338Y-109525020D01*
%TO.N,COL4*%
X100711000Y-34303988D02*
X110215554Y-43808542D01*
X100711000Y-24765000D02*
X100711000Y-34303988D01*
X110215554Y-43808542D02*
X110215554Y-58096042D01*
X110309756Y-77051840D02*
X105453054Y-81908542D01*
X110309756Y-58190244D02*
X110309756Y-77051840D01*
X110215554Y-58096042D02*
X110309756Y-58190244D01*
X110309756Y-58190244D02*
X114978054Y-62858542D01*
X106839901Y-106784625D02*
X108705050Y-108649774D01*
X106839901Y-83295389D02*
X106839901Y-106784625D01*
X105453054Y-81908542D02*
X106839901Y-83295389D01*
X108705050Y-108649774D02*
X108705050Y-109075010D01*
X108705050Y-109075010D02*
X168715601Y-109075010D01*
X168715601Y-109075010D02*
X169104497Y-109075010D01*
X187951540Y-109075010D02*
X188772477Y-108254073D01*
X169104497Y-109075010D02*
X187951540Y-109075010D01*
%TO.N,COL5*%
X119761000Y-34303988D02*
X129265554Y-43808542D01*
X119761000Y-24765000D02*
X119761000Y-34303988D01*
X129265554Y-58096042D02*
X134028054Y-62858542D01*
X129265554Y-43808542D02*
X129265554Y-58096042D01*
X129265554Y-77146042D02*
X124503054Y-81908542D01*
X129265554Y-58096042D02*
X129265554Y-77146042D01*
X124503054Y-81908542D02*
X124503054Y-108123054D01*
X124503054Y-108123054D02*
X125005000Y-108625000D01*
X125005000Y-108625000D02*
X144305000Y-108625000D01*
X144305000Y-108625000D02*
X147190000Y-105740000D01*
X152650000Y-105740000D02*
X155535000Y-108625000D01*
X147190000Y-105740000D02*
X152650000Y-105740000D01*
X155535000Y-108625000D02*
X168529201Y-108625000D01*
X187310632Y-108625000D02*
X187585622Y-108350010D01*
X168529201Y-108625000D02*
X187310632Y-108625000D01*
%TO.N,COL6*%
X138811000Y-34303988D02*
X148315554Y-43808542D01*
X138811000Y-24765000D02*
X138811000Y-34303988D01*
X148315554Y-58096042D02*
X153078054Y-62858542D01*
X148315554Y-43808542D02*
X148315554Y-58096042D01*
X153078054Y-72383542D02*
X143553054Y-81908542D01*
X153078054Y-62858542D02*
X153078054Y-72383542D01*
X143553054Y-84070516D02*
X147052538Y-87570000D01*
X143553054Y-81908542D02*
X143553054Y-84070516D01*
X157861000Y-97787998D02*
X157861000Y-100965000D01*
X147643002Y-87570000D02*
X157861000Y-97787998D01*
X147052538Y-87570000D02*
X147643002Y-87570000D01*
X157861000Y-100965000D02*
X157861000Y-107285990D01*
X157861000Y-108031000D02*
X158004990Y-108174990D01*
X157861000Y-107285990D02*
X157861000Y-108031000D01*
X158004990Y-108174990D02*
X167220000Y-108174990D01*
X186305010Y-108174990D02*
X186580000Y-107900000D01*
X167220000Y-108174990D02*
X186305010Y-108174990D01*
%TO.N,COL7*%
X157861000Y-34303988D02*
X167365554Y-43808542D01*
X157861000Y-24765000D02*
X157861000Y-34303988D01*
X167365554Y-58096042D02*
X172128054Y-62858542D01*
X167365554Y-43808542D02*
X167365554Y-57984446D01*
X167365554Y-57984446D02*
X167365554Y-58096042D01*
X163350000Y-81161596D02*
X162603054Y-81908542D01*
X167365554Y-77146042D02*
X162603054Y-81908542D01*
X167365554Y-57984446D02*
X167365554Y-77146042D01*
X173990514Y-95330000D02*
X162603054Y-83942540D01*
X162603054Y-83942540D02*
X162603054Y-81908542D01*
X182161235Y-95330000D02*
X173990514Y-95330000D01*
X183373503Y-96542268D02*
X182161235Y-95330000D01*
%TO.N,COL8*%
X176911000Y-34303988D02*
X186415554Y-43808542D01*
X176911000Y-24765000D02*
X176911000Y-34303988D01*
X186415554Y-58096042D02*
X191178054Y-62858542D01*
X186415554Y-43808542D02*
X186415554Y-58096042D01*
X186415554Y-77146042D02*
X181653054Y-81908542D01*
X186415554Y-58096042D02*
X186415554Y-77146042D01*
X181653054Y-84070516D02*
X181653054Y-81908542D01*
X184830000Y-87247462D02*
X181653054Y-84070516D01*
X184830000Y-95420000D02*
X184830000Y-87247462D01*
%TO.N,COL9*%
X195961000Y-34303988D02*
X205465554Y-43808542D01*
X195961000Y-24765000D02*
X195961000Y-34303988D01*
X205465554Y-58096042D02*
X210228054Y-62858542D01*
X205465554Y-43808542D02*
X205465554Y-58096042D01*
X205465554Y-77146042D02*
X200703054Y-81908542D01*
X205465554Y-58096042D02*
X205465554Y-77146042D01*
X206870000Y-90109486D02*
X200703054Y-83942540D01*
X200703054Y-83942540D02*
X200703054Y-81908542D01*
X206870000Y-94320000D02*
X206870000Y-90109486D01*
%TO.N,COL10*%
X215011000Y-34303988D02*
X224515554Y-43808542D01*
X215011000Y-24765000D02*
X215011000Y-34303988D01*
X224515554Y-58096042D02*
X229278054Y-62858542D01*
X224515554Y-43808542D02*
X224515554Y-58096042D01*
X224515554Y-77146042D02*
X219753054Y-81908542D01*
X224515554Y-58096042D02*
X224515554Y-77146042D01*
X219683055Y-89756945D02*
X219683055Y-81978541D01*
X219683055Y-81978541D02*
X219753054Y-81908542D01*
X214820000Y-94620000D02*
X219683055Y-89756945D01*
%TO.N,COL11*%
X234061000Y-34303988D02*
X243565554Y-43808542D01*
X234061000Y-24765000D02*
X234061000Y-34303988D01*
X243565554Y-58096042D02*
X248328054Y-62858542D01*
X243565554Y-43808542D02*
X243565554Y-58096042D01*
X243565554Y-77146042D02*
X238803054Y-81908542D01*
X243565554Y-58096042D02*
X243565554Y-77146042D01*
X238960000Y-82065488D02*
X238803054Y-81908542D01*
X238960000Y-94560000D02*
X238960000Y-82065488D01*
%TO.N,COL12*%
X253111000Y-34303988D02*
X262615554Y-43808542D01*
X253111000Y-24765000D02*
X253111000Y-34303988D01*
X262615554Y-58096042D02*
X267378054Y-62858542D01*
X262615554Y-43808542D02*
X262615554Y-58096042D01*
X262615554Y-58096042D02*
X262615554Y-79481554D01*
X262757000Y-79623000D02*
X260164500Y-79623000D01*
X262615554Y-79481554D02*
X262757000Y-79623000D01*
X262757000Y-79623000D02*
X265049000Y-81915000D01*
X244383750Y-95403750D02*
X238822500Y-100965000D01*
X260164500Y-79623000D02*
X244383750Y-95403750D01*
%TO.N,COL13*%
X272161000Y-24765000D02*
X281686000Y-24765000D01*
X282810999Y-25889999D02*
X282810999Y-40199001D01*
X281686000Y-24765000D02*
X282810999Y-25889999D01*
X281701121Y-41308879D02*
X281701121Y-47748879D01*
X282810999Y-40199001D02*
X281701121Y-41308879D01*
X287285784Y-53333542D02*
X288803054Y-53333542D01*
X281701121Y-47748879D02*
X287285784Y-53333542D01*
X279253054Y-61292552D02*
X279253054Y-62858542D01*
X287212064Y-53333542D02*
X279253054Y-61292552D01*
X288803054Y-53333542D02*
X287212064Y-53333542D01*
X268730002Y-100965000D02*
X262636000Y-100965000D01*
X284664001Y-79077895D02*
X284664001Y-85031001D01*
X279253054Y-73666948D02*
X284664001Y-79077895D01*
X279253054Y-62858542D02*
X279253054Y-73666948D01*
X273932501Y-95762501D02*
X268730002Y-100965000D01*
X284664001Y-85031001D02*
X273932501Y-95762501D01*
%TO.N,COL14*%
X286676955Y-43547141D02*
X286676955Y-43808542D01*
X287814901Y-42409195D02*
X286676955Y-43547141D01*
X287814901Y-26570109D02*
X287814901Y-42409195D01*
X289620010Y-24765000D02*
X287814901Y-26570109D01*
X291211000Y-24765000D02*
X289620010Y-24765000D01*
X290065553Y-74508781D02*
X292139251Y-76582479D01*
X290253055Y-60152839D02*
X290065553Y-60340341D01*
X290065553Y-60340341D02*
X290065553Y-74508781D01*
X290253055Y-49808017D02*
X290253055Y-60152839D01*
X287814901Y-47369863D02*
X290253055Y-49808017D01*
X292139251Y-80986749D02*
X291211000Y-81915000D01*
X292139251Y-76582479D02*
X292139251Y-80986749D01*
X287814901Y-42409195D02*
X287814901Y-47369863D01*
X289620010Y-81915000D02*
X286449500Y-85085510D01*
X291211000Y-81915000D02*
X289620010Y-81915000D01*
X286449500Y-96579500D02*
X286449500Y-100965000D01*
X286449500Y-85085510D02*
X286449500Y-96579500D01*
D21*
%TO.N,VDD*%
X137350000Y-96350000D02*
X137060000Y-96060000D01*
X137350000Y-105430001D02*
X137350000Y-96350000D01*
%TD*%
M02*
