M48
; DRILL file {KiCad 5.1.10} date Mon May 31 21:17:46 2021
; FORMAT={-:-/ absolute / metric / decimal}
; #@! TF.CreationDate,2021-05-31T21:17:46+02:00
; #@! TF.GenerationSoftware,Kicad,Pcbnew,5.1.10
; #@! TF.FileFunction,Plated,1,2,PTH
FMAT,2
METRIC
T1C0.400
T2C0.600
T3C1.000
T4C1.040
T5C1.470
T6C2.499
%
G90
G05
T1
X33.782Y-33.02
X34.196Y-25.654
X35.56Y-34.29
X37.846Y-26.416
X37.846Y-33.274
X40.146Y-34.304
X40.64Y-25.654
X41.06Y-61.04
X42.0Y-60.02
X42.164Y-33.02
X42.76Y-59.01
X43.57Y-58.1
X49.811Y-70.37
X50.541Y-69.686
X51.203Y-68.937
X51.91Y-68.23
X132.17Y-97.4
X137.06Y-96.06
X137.35Y-105.43
X137.581Y-77.121
X138.176Y-97.028
X139.96Y-75.221
X144.526Y-102.616
X144.78Y-99.568
X150.114Y-99.478
X151.638Y-99.822
X152.55Y-93.55
X167.71Y-105.29
X170.73Y-104.55
X173.875Y-77.157
X176.52Y-78.95
X177.512Y-78.821
X180.497Y-93.403
X181.68Y-93.65
X182.56Y-93.15
X183.374Y-96.542
X183.92Y-99.31
X184.83Y-95.42
X185.049Y-53.619
X185.1Y-69.2
X186.58Y-107.9
X187.56Y-69.3
X187.586Y-108.35
X187.99Y-95.84
X188.397Y-72.797
X188.573Y-100.818
X188.772Y-108.254
X188.85Y-94.85
X188.862Y-109.25
X189.351Y-100.041
X189.68Y-94.12
X189.862Y-109.715
X190.129Y-99.263
X190.86Y-110.165
X190.907Y-98.485
X191.245Y-89.5
X191.684Y-97.707
X191.97Y-88.772
X192.462Y-96.929
X192.77Y-88.08
X193.24Y-96.152
X194.018Y-95.374
X194.232Y-34.442
X194.584Y-106.829
X194.796Y-94.596
X195.361Y-106.051
X196.139Y-105.273
X196.34Y-110.89
X196.917Y-104.495
X197.695Y-103.718
X197.73Y-110.8
X198.473Y-102.94
X199.25Y-102.162
X200.028Y-101.384
X200.806Y-100.606
X206.15Y-106.65
X206.87Y-94.32
X214.82Y-94.62
X238.96Y-94.56
X244.384Y-95.404
X273.933Y-95.763
X286.45Y-96.579
T3
X177.673Y-97.536
X177.673Y-100.076
X177.673Y-102.616
T4
X291.343Y-60.954
X293.883Y-60.954
T5
X24.511Y-24.765
X26.899Y-62.864
X26.899Y-81.914
X29.274Y-43.814
X29.274Y-100.965
X30.861Y-22.225
X31.668Y-62.864
X33.249Y-60.325
X33.249Y-79.374
X35.624Y-41.274
X35.624Y-98.424
X36.449Y-81.914
X38.018Y-60.325
X42.799Y-79.374
X43.561Y-24.765
X48.323Y-81.915
X49.911Y-22.225
X53.086Y-43.815
X53.086Y-100.965
X54.673Y-79.375
X57.848Y-62.865
X59.436Y-41.275
X59.436Y-98.425
X62.611Y-24.765
X64.198Y-60.325
X67.353Y-81.909
X68.961Y-22.225
X72.116Y-43.809
X73.703Y-79.369
X76.878Y-62.859
X76.897Y-100.965
X78.466Y-41.269
X81.661Y-24.765
X83.228Y-60.319
X83.248Y-98.424
X86.403Y-81.909
X88.011Y-22.225
X91.166Y-43.809
X92.753Y-79.369
X95.928Y-62.859
X97.516Y-41.269
X100.711Y-24.765
X102.278Y-60.319
X105.453Y-81.909
X107.061Y-22.225
X110.216Y-43.809
X111.803Y-79.369
X114.978Y-62.859
X116.566Y-41.269
X119.761Y-24.765
X121.328Y-60.319
X124.503Y-81.909
X126.111Y-22.225
X129.266Y-43.809
X130.853Y-79.369
X134.028Y-62.859
X135.616Y-41.269
X138.811Y-24.765
X140.378Y-60.319
X143.553Y-81.909
X145.161Y-22.225
X148.316Y-43.809
X149.903Y-79.369
X153.078Y-62.859
X154.666Y-41.269
X157.861Y-24.765
X157.861Y-100.965
X159.428Y-60.319
X162.603Y-81.909
X164.211Y-22.225
X164.211Y-98.425
X167.366Y-43.809
X168.953Y-79.369
X172.128Y-62.859
X173.716Y-41.269
X176.911Y-24.765
X178.478Y-60.319
X181.653Y-81.909
X183.261Y-22.225
X186.416Y-43.809
X188.003Y-79.369
X191.178Y-62.859
X192.766Y-41.269
X195.961Y-24.765
X197.528Y-60.319
X200.703Y-81.909
X202.311Y-22.225
X205.466Y-43.809
X207.053Y-79.369
X210.228Y-62.859
X211.816Y-41.269
X215.011Y-24.765
X216.578Y-60.319
X219.753Y-81.909
X221.361Y-22.225
X224.516Y-43.809
X226.103Y-79.369
X229.278Y-62.859
X230.866Y-41.269
X234.061Y-24.765
X235.628Y-60.319
X238.803Y-81.909
X238.822Y-100.965
X240.411Y-22.225
X243.566Y-43.809
X245.153Y-79.369
X245.172Y-98.425
X248.328Y-62.859
X249.916Y-41.269
X253.111Y-24.765
X254.678Y-60.319
X259.461Y-22.225
X262.616Y-43.809
X262.636Y-100.965
X265.049Y-81.915
X267.378Y-62.859
X268.966Y-41.269
X268.986Y-98.425
X271.399Y-79.375
X272.161Y-24.765
X273.728Y-60.319
X274.574Y-81.915
X278.511Y-22.225
X279.253Y-62.859
X280.924Y-79.375
X281.686Y-24.765
X285.603Y-60.319
X286.416Y-43.809
X286.45Y-100.965
X288.036Y-22.225
X288.803Y-53.334
X291.211Y-24.765
X291.211Y-81.915
X292.766Y-41.269
X292.799Y-98.425
X295.153Y-50.794
X297.561Y-22.225
X297.561Y-79.375
T2
G00X33.272Y-18.208
M15
G01X33.272Y-18.808
M16
G05
G00X33.272Y-22.138
M15
G01X33.272Y-23.238
M16
G05
G00X41.912Y-18.208
M15
G01X41.912Y-18.808
M16
G05
G00X41.912Y-22.138
M15
G01X41.912Y-23.238
M16
G05
T6
G00X17.435Y-75.057
M15
G01X21.935Y-75.057
M16
G05
G00X43.961Y-46.482
M15
G01X46.463Y-46.482
M16
G05
G00X146.096Y-65.405
M15
G01X148.598Y-65.405
M16
G05
G00X209.315Y-103.632
M15
G01X211.817Y-103.632
M16
G05
G00X276.625Y-46.228
M15
G01X279.127Y-46.228
M16
G05
G00X301.153Y-74.93
M15
G01X305.653Y-74.93
M16
G05
T0
M30
