%TF.GenerationSoftware,KiCad,Pcbnew,5.1.10*%
%TF.CreationDate,2021-06-03T18:23:30+02:00*%
%TF.ProjectId,ptm-60nrf,70746d2d-3630-46e7-9266-2e6b69636164,rev?*%
%TF.SameCoordinates,Original*%
%TF.FileFunction,Legend,Bot*%
%TF.FilePolarity,Positive*%
%FSLAX46Y46*%
G04 Gerber Fmt 4.6, Leading zero omitted, Abs format (unit mm)*
G04 Created by KiCad (PCBNEW 5.1.10) date 2021-06-03 18:23:30*
%MOMM*%
%LPD*%
G01*
G04 APERTURE LIST*
%ADD10C,0.060000*%
%ADD11C,0.120000*%
%ADD12C,0.150000*%
%ADD13C,0.050000*%
G04 APERTURE END LIST*
D10*
X154898571Y-100951428D02*
X154841428Y-100970476D01*
X154822380Y-100989523D01*
X154803333Y-101027619D01*
X154803333Y-101084761D01*
X154822380Y-101122857D01*
X154841428Y-101141904D01*
X154879523Y-101160952D01*
X155031904Y-101160952D01*
X155031904Y-100760952D01*
X154898571Y-100760952D01*
X154860476Y-100780000D01*
X154841428Y-100799047D01*
X154822380Y-100837142D01*
X154822380Y-100875238D01*
X154841428Y-100913333D01*
X154860476Y-100932380D01*
X154898571Y-100951428D01*
X155031904Y-100951428D01*
X154460476Y-101160952D02*
X154460476Y-100951428D01*
X154479523Y-100913333D01*
X154517619Y-100894285D01*
X154593809Y-100894285D01*
X154631904Y-100913333D01*
X154460476Y-101141904D02*
X154498571Y-101160952D01*
X154593809Y-101160952D01*
X154631904Y-101141904D01*
X154650952Y-101103809D01*
X154650952Y-101065714D01*
X154631904Y-101027619D01*
X154593809Y-101008571D01*
X154498571Y-101008571D01*
X154460476Y-100989523D01*
X154327142Y-100894285D02*
X154174761Y-100894285D01*
X154270000Y-100760952D02*
X154270000Y-101103809D01*
X154250952Y-101141904D01*
X154212857Y-101160952D01*
X154174761Y-101160952D01*
X154098571Y-100894285D02*
X153946190Y-100894285D01*
X154041428Y-100760952D02*
X154041428Y-101103809D01*
X154022380Y-101141904D01*
X153984285Y-101160952D01*
X153946190Y-101160952D01*
X153660476Y-101141904D02*
X153698571Y-101160952D01*
X153774761Y-101160952D01*
X153812857Y-101141904D01*
X153831904Y-101103809D01*
X153831904Y-100951428D01*
X153812857Y-100913333D01*
X153774761Y-100894285D01*
X153698571Y-100894285D01*
X153660476Y-100913333D01*
X153641428Y-100951428D01*
X153641428Y-100989523D01*
X153831904Y-101027619D01*
X153470000Y-101160952D02*
X153470000Y-100894285D01*
X153470000Y-100970476D02*
X153450952Y-100932380D01*
X153431904Y-100913333D01*
X153393809Y-100894285D01*
X153355714Y-100894285D01*
X153260476Y-100894285D02*
X153165238Y-101160952D01*
X153070000Y-100894285D02*
X153165238Y-101160952D01*
X153203333Y-101256190D01*
X153222380Y-101275238D01*
X153260476Y-101294285D01*
X155098571Y-101801904D02*
X155136666Y-101820952D01*
X155212857Y-101820952D01*
X155250952Y-101801904D01*
X155270000Y-101782857D01*
X155289047Y-101744761D01*
X155289047Y-101630476D01*
X155270000Y-101592380D01*
X155250952Y-101573333D01*
X155212857Y-101554285D01*
X155136666Y-101554285D01*
X155098571Y-101573333D01*
X154927142Y-101820952D02*
X154927142Y-101420952D01*
X154755714Y-101820952D02*
X154755714Y-101611428D01*
X154774761Y-101573333D01*
X154812857Y-101554285D01*
X154870000Y-101554285D01*
X154908095Y-101573333D01*
X154927142Y-101592380D01*
X154393809Y-101820952D02*
X154393809Y-101611428D01*
X154412857Y-101573333D01*
X154450952Y-101554285D01*
X154527142Y-101554285D01*
X154565238Y-101573333D01*
X154393809Y-101801904D02*
X154431904Y-101820952D01*
X154527142Y-101820952D01*
X154565238Y-101801904D01*
X154584285Y-101763809D01*
X154584285Y-101725714D01*
X154565238Y-101687619D01*
X154527142Y-101668571D01*
X154431904Y-101668571D01*
X154393809Y-101649523D01*
X154203333Y-101820952D02*
X154203333Y-101554285D01*
X154203333Y-101630476D02*
X154184285Y-101592380D01*
X154165238Y-101573333D01*
X154127142Y-101554285D01*
X154089047Y-101554285D01*
X153784285Y-101554285D02*
X153784285Y-101878095D01*
X153803333Y-101916190D01*
X153822380Y-101935238D01*
X153860476Y-101954285D01*
X153917619Y-101954285D01*
X153955714Y-101935238D01*
X153784285Y-101801904D02*
X153822380Y-101820952D01*
X153898571Y-101820952D01*
X153936666Y-101801904D01*
X153955714Y-101782857D01*
X153974761Y-101744761D01*
X153974761Y-101630476D01*
X153955714Y-101592380D01*
X153936666Y-101573333D01*
X153898571Y-101554285D01*
X153822380Y-101554285D01*
X153784285Y-101573333D01*
X153593809Y-101820952D02*
X153593809Y-101554285D01*
X153593809Y-101420952D02*
X153612857Y-101440000D01*
X153593809Y-101459047D01*
X153574761Y-101440000D01*
X153593809Y-101420952D01*
X153593809Y-101459047D01*
X153403333Y-101554285D02*
X153403333Y-101820952D01*
X153403333Y-101592380D02*
X153384285Y-101573333D01*
X153346190Y-101554285D01*
X153289047Y-101554285D01*
X153250952Y-101573333D01*
X153231904Y-101611428D01*
X153231904Y-101820952D01*
X152870000Y-101554285D02*
X152870000Y-101878095D01*
X152889047Y-101916190D01*
X152908095Y-101935238D01*
X152946190Y-101954285D01*
X153003333Y-101954285D01*
X153041428Y-101935238D01*
X152870000Y-101801904D02*
X152908095Y-101820952D01*
X152984285Y-101820952D01*
X153022380Y-101801904D01*
X153041428Y-101782857D01*
X153060476Y-101744761D01*
X153060476Y-101630476D01*
X153041428Y-101592380D01*
X153022380Y-101573333D01*
X152984285Y-101554285D01*
X152908095Y-101554285D01*
X152870000Y-101573333D01*
D11*
X145940000Y-102300000D02*
X145940000Y-92390000D01*
X155580000Y-102300000D02*
X145940000Y-102300000D01*
D10*
X142403333Y-94690952D02*
X142403333Y-94290952D01*
X142250952Y-94290952D01*
X142212857Y-94310000D01*
X142193809Y-94329047D01*
X142174761Y-94367142D01*
X142174761Y-94424285D01*
X142193809Y-94462380D01*
X142212857Y-94481428D01*
X142250952Y-94500476D01*
X142403333Y-94500476D01*
X141946190Y-94690952D02*
X141984285Y-94671904D01*
X142003333Y-94652857D01*
X142022380Y-94614761D01*
X142022380Y-94500476D01*
X142003333Y-94462380D01*
X141984285Y-94443333D01*
X141946190Y-94424285D01*
X141889047Y-94424285D01*
X141850952Y-94443333D01*
X141831904Y-94462380D01*
X141812857Y-94500476D01*
X141812857Y-94614761D01*
X141831904Y-94652857D01*
X141850952Y-94671904D01*
X141889047Y-94690952D01*
X141946190Y-94690952D01*
X141679523Y-94424285D02*
X141603333Y-94690952D01*
X141527142Y-94500476D01*
X141450952Y-94690952D01*
X141374761Y-94424285D01*
X141070000Y-94671904D02*
X141108095Y-94690952D01*
X141184285Y-94690952D01*
X141222380Y-94671904D01*
X141241428Y-94633809D01*
X141241428Y-94481428D01*
X141222380Y-94443333D01*
X141184285Y-94424285D01*
X141108095Y-94424285D01*
X141070000Y-94443333D01*
X141050952Y-94481428D01*
X141050952Y-94519523D01*
X141241428Y-94557619D01*
X140879523Y-94690952D02*
X140879523Y-94424285D01*
X140879523Y-94500476D02*
X140860476Y-94462380D01*
X140841428Y-94443333D01*
X140803333Y-94424285D01*
X140765238Y-94424285D01*
X140346190Y-94671904D02*
X140308095Y-94690952D01*
X140231904Y-94690952D01*
X140193809Y-94671904D01*
X140174761Y-94633809D01*
X140174761Y-94614761D01*
X140193809Y-94576666D01*
X140231904Y-94557619D01*
X140289047Y-94557619D01*
X140327142Y-94538571D01*
X140346190Y-94500476D01*
X140346190Y-94481428D01*
X140327142Y-94443333D01*
X140289047Y-94424285D01*
X140231904Y-94424285D01*
X140193809Y-94443333D01*
X140041428Y-94424285D02*
X139965238Y-94690952D01*
X139889047Y-94500476D01*
X139812857Y-94690952D01*
X139736666Y-94424285D01*
X139584285Y-94690952D02*
X139584285Y-94424285D01*
X139584285Y-94290952D02*
X139603333Y-94310000D01*
X139584285Y-94329047D01*
X139565238Y-94310000D01*
X139584285Y-94290952D01*
X139584285Y-94329047D01*
X139450952Y-94424285D02*
X139298571Y-94424285D01*
X139393809Y-94290952D02*
X139393809Y-94633809D01*
X139374761Y-94671904D01*
X139336666Y-94690952D01*
X139298571Y-94690952D01*
X138993809Y-94671904D02*
X139031904Y-94690952D01*
X139108095Y-94690952D01*
X139146190Y-94671904D01*
X139165238Y-94652857D01*
X139184285Y-94614761D01*
X139184285Y-94500476D01*
X139165238Y-94462380D01*
X139146190Y-94443333D01*
X139108095Y-94424285D01*
X139031904Y-94424285D01*
X138993809Y-94443333D01*
X138822380Y-94690952D02*
X138822380Y-94290952D01*
X138650952Y-94690952D02*
X138650952Y-94481428D01*
X138670000Y-94443333D01*
X138708095Y-94424285D01*
X138765238Y-94424285D01*
X138803333Y-94443333D01*
X138822380Y-94462380D01*
X138460476Y-94690952D02*
X138460476Y-94424285D01*
X138460476Y-94290952D02*
X138479523Y-94310000D01*
X138460476Y-94329047D01*
X138441428Y-94310000D01*
X138460476Y-94290952D01*
X138460476Y-94329047D01*
X138270000Y-94424285D02*
X138270000Y-94690952D01*
X138270000Y-94462380D02*
X138250952Y-94443333D01*
X138212857Y-94424285D01*
X138155714Y-94424285D01*
X138117619Y-94443333D01*
X138098571Y-94481428D01*
X138098571Y-94690952D01*
X137736666Y-94424285D02*
X137736666Y-94748095D01*
X137755714Y-94786190D01*
X137774761Y-94805238D01*
X137812857Y-94824285D01*
X137870000Y-94824285D01*
X137908095Y-94805238D01*
X137736666Y-94671904D02*
X137774761Y-94690952D01*
X137850952Y-94690952D01*
X137889047Y-94671904D01*
X137908095Y-94652857D01*
X137927142Y-94614761D01*
X137927142Y-94500476D01*
X137908095Y-94462380D01*
X137889047Y-94443333D01*
X137850952Y-94424285D01*
X137774761Y-94424285D01*
X137736666Y-94443333D01*
X141679523Y-95350952D02*
X141679523Y-95141428D01*
X141698571Y-95103333D01*
X141736666Y-95084285D01*
X141812857Y-95084285D01*
X141850952Y-95103333D01*
X141679523Y-95331904D02*
X141717619Y-95350952D01*
X141812857Y-95350952D01*
X141850952Y-95331904D01*
X141870000Y-95293809D01*
X141870000Y-95255714D01*
X141850952Y-95217619D01*
X141812857Y-95198571D01*
X141717619Y-95198571D01*
X141679523Y-95179523D01*
X141489047Y-95084285D02*
X141489047Y-95350952D01*
X141489047Y-95122380D02*
X141470000Y-95103333D01*
X141431904Y-95084285D01*
X141374761Y-95084285D01*
X141336666Y-95103333D01*
X141317619Y-95141428D01*
X141317619Y-95350952D01*
X140955714Y-95350952D02*
X140955714Y-94950952D01*
X140955714Y-95331904D02*
X140993809Y-95350952D01*
X141070000Y-95350952D01*
X141108095Y-95331904D01*
X141127142Y-95312857D01*
X141146190Y-95274761D01*
X141146190Y-95160476D01*
X141127142Y-95122380D01*
X141108095Y-95103333D01*
X141070000Y-95084285D01*
X140993809Y-95084285D01*
X140955714Y-95103333D01*
X140517619Y-95084285D02*
X140365238Y-95084285D01*
X140460476Y-95350952D02*
X140460476Y-95008095D01*
X140441428Y-94970000D01*
X140403333Y-94950952D01*
X140365238Y-94950952D01*
X140231904Y-95350952D02*
X140231904Y-95084285D01*
X140231904Y-94950952D02*
X140250952Y-94970000D01*
X140231904Y-94989047D01*
X140212857Y-94970000D01*
X140231904Y-94950952D01*
X140231904Y-94989047D01*
X139984285Y-95350952D02*
X140022380Y-95331904D01*
X140041428Y-95293809D01*
X140041428Y-94950952D01*
X139889047Y-95084285D02*
X139736666Y-95084285D01*
X139831904Y-94950952D02*
X139831904Y-95293809D01*
X139812857Y-95331904D01*
X139774761Y-95350952D01*
X139736666Y-95350952D01*
X139450952Y-95331904D02*
X139489047Y-95350952D01*
X139565238Y-95350952D01*
X139603333Y-95331904D01*
X139622380Y-95293809D01*
X139622380Y-95141428D01*
X139603333Y-95103333D01*
X139565238Y-95084285D01*
X139489047Y-95084285D01*
X139450952Y-95103333D01*
X139431904Y-95141428D01*
X139431904Y-95179523D01*
X139622380Y-95217619D01*
X139260476Y-95350952D02*
X139260476Y-95084285D01*
X139260476Y-95160476D02*
X139241428Y-95122380D01*
X139222380Y-95103333D01*
X139184285Y-95084285D01*
X139146190Y-95084285D01*
X139012857Y-95350952D02*
X139012857Y-95084285D01*
X139012857Y-94950952D02*
X139031904Y-94970000D01*
X139012857Y-94989047D01*
X138993809Y-94970000D01*
X139012857Y-94950952D01*
X139012857Y-94989047D01*
X138822380Y-95084285D02*
X138822380Y-95350952D01*
X138822380Y-95122380D02*
X138803333Y-95103333D01*
X138765238Y-95084285D01*
X138708095Y-95084285D01*
X138670000Y-95103333D01*
X138650952Y-95141428D01*
X138650952Y-95350952D01*
X138289047Y-95084285D02*
X138289047Y-95408095D01*
X138308095Y-95446190D01*
X138327142Y-95465238D01*
X138365238Y-95484285D01*
X138422380Y-95484285D01*
X138460476Y-95465238D01*
X138289047Y-95331904D02*
X138327142Y-95350952D01*
X138403333Y-95350952D01*
X138441428Y-95331904D01*
X138460476Y-95312857D01*
X138479523Y-95274761D01*
X138479523Y-95160476D01*
X138460476Y-95122380D01*
X138441428Y-95103333D01*
X138403333Y-95084285D01*
X138327142Y-95084285D01*
X138289047Y-95103333D01*
D11*
X132220000Y-93960000D02*
X142730000Y-93960000D01*
X142730000Y-104430000D02*
X132210000Y-104420000D01*
X142730000Y-93960000D02*
X142730000Y-104430000D01*
X155590000Y-92360000D02*
X132210000Y-92350000D01*
D12*
X177913333Y-94012380D02*
X177580000Y-95012380D01*
X177246666Y-94012380D01*
X176913333Y-95012380D02*
X176913333Y-94012380D01*
X176675238Y-94012380D01*
X176532380Y-94060000D01*
X176437142Y-94155238D01*
X176389523Y-94250476D01*
X176341904Y-94440952D01*
X176341904Y-94583809D01*
X176389523Y-94774285D01*
X176437142Y-94869523D01*
X176532380Y-94964761D01*
X176675238Y-95012380D01*
X176913333Y-95012380D01*
X175913333Y-95012380D02*
X175913333Y-94012380D01*
X175675238Y-94012380D01*
X175532380Y-94060000D01*
X175437142Y-94155238D01*
X175389523Y-94250476D01*
X175341904Y-94440952D01*
X175341904Y-94583809D01*
X175389523Y-94774285D01*
X175437142Y-94869523D01*
X175532380Y-94964761D01*
X175675238Y-95012380D01*
X175913333Y-95012380D01*
X178017142Y-97524761D02*
X177874285Y-97572380D01*
X177636190Y-97572380D01*
X177540952Y-97524761D01*
X177493333Y-97477142D01*
X177445714Y-97381904D01*
X177445714Y-97286666D01*
X177493333Y-97191428D01*
X177540952Y-97143809D01*
X177636190Y-97096190D01*
X177826666Y-97048571D01*
X177921904Y-97000952D01*
X177969523Y-96953333D01*
X178017142Y-96858095D01*
X178017142Y-96762857D01*
X177969523Y-96667619D01*
X177921904Y-96620000D01*
X177826666Y-96572380D01*
X177588571Y-96572380D01*
X177445714Y-96620000D01*
X177112380Y-96572380D02*
X176874285Y-97572380D01*
X176683809Y-96858095D01*
X176493333Y-97572380D01*
X176255238Y-96572380D01*
X175302857Y-97477142D02*
X175350476Y-97524761D01*
X175493333Y-97572380D01*
X175588571Y-97572380D01*
X175731428Y-97524761D01*
X175826666Y-97429523D01*
X175874285Y-97334285D01*
X175921904Y-97143809D01*
X175921904Y-97000952D01*
X175874285Y-96810476D01*
X175826666Y-96715238D01*
X175731428Y-96620000D01*
X175588571Y-96572380D01*
X175493333Y-96572380D01*
X175350476Y-96620000D01*
X175302857Y-96667619D01*
X177987142Y-100064761D02*
X177844285Y-100112380D01*
X177606190Y-100112380D01*
X177510952Y-100064761D01*
X177463333Y-100017142D01*
X177415714Y-99921904D01*
X177415714Y-99826666D01*
X177463333Y-99731428D01*
X177510952Y-99683809D01*
X177606190Y-99636190D01*
X177796666Y-99588571D01*
X177891904Y-99540952D01*
X177939523Y-99493333D01*
X177987142Y-99398095D01*
X177987142Y-99302857D01*
X177939523Y-99207619D01*
X177891904Y-99160000D01*
X177796666Y-99112380D01*
X177558571Y-99112380D01*
X177415714Y-99160000D01*
X177082380Y-99112380D02*
X176844285Y-100112380D01*
X176653809Y-99398095D01*
X176463333Y-100112380D01*
X176225238Y-99112380D01*
X175844285Y-100112380D02*
X175844285Y-99112380D01*
X175606190Y-99112380D01*
X175463333Y-99160000D01*
X175368095Y-99255238D01*
X175320476Y-99350476D01*
X175272857Y-99540952D01*
X175272857Y-99683809D01*
X175320476Y-99874285D01*
X175368095Y-99969523D01*
X175463333Y-100064761D01*
X175606190Y-100112380D01*
X175844285Y-100112380D01*
X177421904Y-101690000D02*
X177517142Y-101642380D01*
X177660000Y-101642380D01*
X177802857Y-101690000D01*
X177898095Y-101785238D01*
X177945714Y-101880476D01*
X177993333Y-102070952D01*
X177993333Y-102213809D01*
X177945714Y-102404285D01*
X177898095Y-102499523D01*
X177802857Y-102594761D01*
X177660000Y-102642380D01*
X177564761Y-102642380D01*
X177421904Y-102594761D01*
X177374285Y-102547142D01*
X177374285Y-102213809D01*
X177564761Y-102213809D01*
X176945714Y-102642380D02*
X176945714Y-101642380D01*
X176374285Y-102642380D01*
X176374285Y-101642380D01*
X175898095Y-102642380D02*
X175898095Y-101642380D01*
X175660000Y-101642380D01*
X175517142Y-101690000D01*
X175421904Y-101785238D01*
X175374285Y-101880476D01*
X175326666Y-102070952D01*
X175326666Y-102213809D01*
X175374285Y-102404285D01*
X175421904Y-102499523D01*
X175517142Y-102594761D01*
X175660000Y-102642380D01*
X175898095Y-102642380D01*
D13*
X138155238Y-107703095D02*
X138155238Y-107453095D01*
X137845714Y-107703095D02*
X137845714Y-107453095D01*
X137738571Y-107703095D02*
X137738571Y-107572142D01*
X137750476Y-107548333D01*
X137774285Y-107536428D01*
X137810000Y-107536428D01*
X137833809Y-107548333D01*
X137845714Y-107560238D01*
X137512380Y-107703095D02*
X137512380Y-107572142D01*
X137524285Y-107548333D01*
X137548095Y-107536428D01*
X137595714Y-107536428D01*
X137619523Y-107548333D01*
X137512380Y-107691190D02*
X137536190Y-107703095D01*
X137595714Y-107703095D01*
X137619523Y-107691190D01*
X137631428Y-107667380D01*
X137631428Y-107643571D01*
X137619523Y-107619761D01*
X137595714Y-107607857D01*
X137536190Y-107607857D01*
X137512380Y-107595952D01*
X137417142Y-107536428D02*
X137357619Y-107703095D01*
X137298095Y-107536428D01*
X137107619Y-107691190D02*
X137131428Y-107703095D01*
X137179047Y-107703095D01*
X137202857Y-107691190D01*
X137214761Y-107667380D01*
X137214761Y-107572142D01*
X137202857Y-107548333D01*
X137179047Y-107536428D01*
X137131428Y-107536428D01*
X137107619Y-107548333D01*
X137095714Y-107572142D01*
X137095714Y-107595952D01*
X137214761Y-107619761D01*
X136798095Y-107536428D02*
X136798095Y-107703095D01*
X136798095Y-107560238D02*
X136786190Y-107548333D01*
X136762380Y-107536428D01*
X136726666Y-107536428D01*
X136702857Y-107548333D01*
X136690952Y-107572142D01*
X136690952Y-107703095D01*
X136536190Y-107703095D02*
X136560000Y-107691190D01*
X136571904Y-107679285D01*
X136583809Y-107655476D01*
X136583809Y-107584047D01*
X136571904Y-107560238D01*
X136560000Y-107548333D01*
X136536190Y-107536428D01*
X136500476Y-107536428D01*
X136476666Y-107548333D01*
X136464761Y-107560238D01*
X136452857Y-107584047D01*
X136452857Y-107655476D01*
X136464761Y-107679285D01*
X136476666Y-107691190D01*
X136500476Y-107703095D01*
X136536190Y-107703095D01*
X136155238Y-107703095D02*
X136155238Y-107536428D01*
X136155238Y-107453095D02*
X136167142Y-107465000D01*
X136155238Y-107476904D01*
X136143333Y-107465000D01*
X136155238Y-107453095D01*
X136155238Y-107476904D01*
X135929047Y-107703095D02*
X135929047Y-107453095D01*
X135929047Y-107691190D02*
X135952857Y-107703095D01*
X136000476Y-107703095D01*
X136024285Y-107691190D01*
X136036190Y-107679285D01*
X136048095Y-107655476D01*
X136048095Y-107584047D01*
X136036190Y-107560238D01*
X136024285Y-107548333D01*
X136000476Y-107536428D01*
X135952857Y-107536428D01*
X135929047Y-107548333D01*
X135714761Y-107691190D02*
X135738571Y-107703095D01*
X135786190Y-107703095D01*
X135810000Y-107691190D01*
X135821904Y-107667380D01*
X135821904Y-107572142D01*
X135810000Y-107548333D01*
X135786190Y-107536428D01*
X135738571Y-107536428D01*
X135714761Y-107548333D01*
X135702857Y-107572142D01*
X135702857Y-107595952D01*
X135821904Y-107619761D01*
X135488571Y-107703095D02*
X135488571Y-107572142D01*
X135500476Y-107548333D01*
X135524285Y-107536428D01*
X135571904Y-107536428D01*
X135595714Y-107548333D01*
X135488571Y-107691190D02*
X135512380Y-107703095D01*
X135571904Y-107703095D01*
X135595714Y-107691190D01*
X135607619Y-107667380D01*
X135607619Y-107643571D01*
X135595714Y-107619761D01*
X135571904Y-107607857D01*
X135512380Y-107607857D01*
X135488571Y-107595952D01*
X135202857Y-107536428D02*
X135155238Y-107703095D01*
X135107619Y-107584047D01*
X135060000Y-107703095D01*
X135012380Y-107536428D01*
X134917142Y-107703095D02*
X134917142Y-107453095D01*
X134810000Y-107703095D02*
X134810000Y-107572142D01*
X134821904Y-107548333D01*
X134845714Y-107536428D01*
X134881428Y-107536428D01*
X134905238Y-107548333D01*
X134917142Y-107560238D01*
X134583809Y-107703095D02*
X134583809Y-107572142D01*
X134595714Y-107548333D01*
X134619523Y-107536428D01*
X134667142Y-107536428D01*
X134690952Y-107548333D01*
X134583809Y-107691190D02*
X134607619Y-107703095D01*
X134667142Y-107703095D01*
X134690952Y-107691190D01*
X134702857Y-107667380D01*
X134702857Y-107643571D01*
X134690952Y-107619761D01*
X134667142Y-107607857D01*
X134607619Y-107607857D01*
X134583809Y-107595952D01*
X134500476Y-107536428D02*
X134405238Y-107536428D01*
X134464761Y-107453095D02*
X134464761Y-107667380D01*
X134452857Y-107691190D01*
X134429047Y-107703095D01*
X134405238Y-107703095D01*
X134131428Y-107703095D02*
X134131428Y-107453095D01*
X134000476Y-107453095D02*
X134024285Y-107500714D01*
X133893333Y-107703095D02*
X133893333Y-107536428D01*
X133893333Y-107560238D02*
X133881428Y-107548333D01*
X133857619Y-107536428D01*
X133821904Y-107536428D01*
X133798095Y-107548333D01*
X133786190Y-107572142D01*
X133786190Y-107703095D01*
X133786190Y-107572142D02*
X133774285Y-107548333D01*
X133750476Y-107536428D01*
X133714761Y-107536428D01*
X133690952Y-107548333D01*
X133679047Y-107572142D01*
X133679047Y-107703095D01*
X133262380Y-107703095D02*
X133262380Y-107453095D01*
X133262380Y-107691190D02*
X133286190Y-107703095D01*
X133333809Y-107703095D01*
X133357619Y-107691190D01*
X133369523Y-107679285D01*
X133381428Y-107655476D01*
X133381428Y-107584047D01*
X133369523Y-107560238D01*
X133357619Y-107548333D01*
X133333809Y-107536428D01*
X133286190Y-107536428D01*
X133262380Y-107548333D01*
X133107619Y-107703095D02*
X133131428Y-107691190D01*
X133143333Y-107679285D01*
X133155238Y-107655476D01*
X133155238Y-107584047D01*
X133143333Y-107560238D01*
X133131428Y-107548333D01*
X133107619Y-107536428D01*
X133071904Y-107536428D01*
X133048095Y-107548333D01*
X133036190Y-107560238D01*
X133024285Y-107584047D01*
X133024285Y-107655476D01*
X133036190Y-107679285D01*
X133048095Y-107691190D01*
X133071904Y-107703095D01*
X133107619Y-107703095D01*
X132917142Y-107703095D02*
X132917142Y-107536428D01*
X132917142Y-107453095D02*
X132929047Y-107465000D01*
X132917142Y-107476904D01*
X132905238Y-107465000D01*
X132917142Y-107453095D01*
X132917142Y-107476904D01*
X132798095Y-107536428D02*
X132798095Y-107703095D01*
X132798095Y-107560238D02*
X132786190Y-107548333D01*
X132762380Y-107536428D01*
X132726666Y-107536428D01*
X132702857Y-107548333D01*
X132690952Y-107572142D01*
X132690952Y-107703095D01*
X132464761Y-107536428D02*
X132464761Y-107738809D01*
X132476666Y-107762619D01*
X132488571Y-107774523D01*
X132512380Y-107786428D01*
X132548095Y-107786428D01*
X132571904Y-107774523D01*
X132464761Y-107691190D02*
X132488571Y-107703095D01*
X132536190Y-107703095D01*
X132560000Y-107691190D01*
X132571904Y-107679285D01*
X132583809Y-107655476D01*
X132583809Y-107584047D01*
X132571904Y-107560238D01*
X132560000Y-107548333D01*
X132536190Y-107536428D01*
X132488571Y-107536428D01*
X132464761Y-107548333D01*
D11*
X155580000Y-108000000D02*
X155590000Y-92360000D01*
X132210000Y-107990000D02*
X155580000Y-108000000D01*
X132210000Y-92350000D02*
X132210000Y-107990000D01*
D12*
X197926231Y-97066805D02*
X197219125Y-96359698D01*
X197555842Y-96696416D02*
X197151781Y-97100477D01*
X197522170Y-97470866D02*
X196815064Y-96763759D01*
X197084438Y-97908599D02*
X197118109Y-97807583D01*
X197118109Y-97740240D01*
X197084438Y-97639225D01*
X196882407Y-97437194D01*
X196781392Y-97403522D01*
X196714048Y-97403522D01*
X196613033Y-97437194D01*
X196512018Y-97538209D01*
X196478346Y-97639225D01*
X196478346Y-97706568D01*
X196512018Y-97807583D01*
X196714048Y-98009614D01*
X196815064Y-98043286D01*
X196882407Y-98043286D01*
X196983422Y-98009614D01*
X197084438Y-97908599D01*
X196444674Y-98548362D02*
X196478346Y-98447347D01*
X196444674Y-98346331D01*
X195838583Y-97740240D01*
X195771239Y-98278988D02*
X196074285Y-98918751D01*
X195434522Y-98615705D02*
X196074285Y-98918751D01*
X196309987Y-99019766D01*
X196377331Y-99019766D01*
X196478346Y-98986095D01*
X195636552Y-99356484D02*
X195165148Y-98885079D01*
X194929446Y-98649377D02*
X194996789Y-98649377D01*
X194996789Y-98716721D01*
X194929446Y-98716721D01*
X194929446Y-98649377D01*
X194996789Y-98716721D01*
X195198820Y-99794217D02*
X195232491Y-99693201D01*
X195232491Y-99625858D01*
X195198820Y-99524843D01*
X194996789Y-99322812D01*
X194895774Y-99289140D01*
X194828430Y-99289140D01*
X194727415Y-99322812D01*
X194626400Y-99423827D01*
X194592728Y-99524843D01*
X194592728Y-99592186D01*
X194626400Y-99693201D01*
X194828430Y-99895232D01*
X194929446Y-99928904D01*
X194996789Y-99928904D01*
X195097804Y-99895232D01*
X195198820Y-99794217D01*
X194289682Y-99760545D02*
X194020308Y-100029919D01*
X193952965Y-99625858D02*
X194559056Y-100231949D01*
X194592728Y-100332965D01*
X194559056Y-100433980D01*
X194491713Y-100501324D01*
X193346873Y-101646163D02*
X193750934Y-101242102D01*
X193548904Y-101444133D02*
X192841797Y-100737026D01*
X193010156Y-100770698D01*
X193144843Y-100770698D01*
X193245858Y-100737026D01*
X192538751Y-101646163D02*
X192572423Y-101545148D01*
X192572423Y-101477804D01*
X192538751Y-101376789D01*
X192505079Y-101343117D01*
X192404064Y-101309446D01*
X192336721Y-101309446D01*
X192235705Y-101343117D01*
X192101018Y-101477804D01*
X192067347Y-101578820D01*
X192067347Y-101646163D01*
X192101018Y-101747178D01*
X192134690Y-101780850D01*
X192235705Y-101814522D01*
X192303049Y-101814522D01*
X192404064Y-101780850D01*
X192538751Y-101646163D01*
X192639766Y-101612491D01*
X192707110Y-101612491D01*
X192808125Y-101646163D01*
X192942812Y-101780850D01*
X192976484Y-101881865D01*
X192976484Y-101949209D01*
X192942812Y-102050224D01*
X192808125Y-102184911D01*
X192707110Y-102218583D01*
X192639766Y-102218583D01*
X192538751Y-102184911D01*
X192404064Y-102050224D01*
X192370392Y-101949209D01*
X192370392Y-101881865D01*
X192404064Y-101780850D01*
X191528599Y-102050224D02*
X191461255Y-102117568D01*
X191427583Y-102218583D01*
X191427583Y-102285926D01*
X191461255Y-102386942D01*
X191562270Y-102555300D01*
X191730629Y-102723659D01*
X191898988Y-102824674D01*
X192000003Y-102858346D01*
X192067347Y-102858346D01*
X192168362Y-102824674D01*
X192235705Y-102757331D01*
X192269377Y-102656316D01*
X192269377Y-102588972D01*
X192235705Y-102487957D01*
X192134690Y-102319598D01*
X191966331Y-102151239D01*
X191797973Y-102050224D01*
X191696957Y-102016552D01*
X191629614Y-102016552D01*
X191528599Y-102050224D01*
X191326568Y-103666468D02*
X191730629Y-103262407D01*
X191528599Y-103464438D02*
X190821492Y-102757331D01*
X190989851Y-102791003D01*
X191124538Y-102791003D01*
X191225553Y-102757331D01*
X190181729Y-103397094D02*
X190114385Y-103464438D01*
X190080713Y-103565453D01*
X190080713Y-103632796D01*
X190114385Y-103733812D01*
X190215400Y-103902170D01*
X190383759Y-104070529D01*
X190552118Y-104171544D01*
X190653133Y-104205216D01*
X190720477Y-104205216D01*
X190821492Y-104171544D01*
X190888835Y-104104201D01*
X190922507Y-104003186D01*
X190922507Y-103935842D01*
X190888835Y-103834827D01*
X190787820Y-103666468D01*
X190619461Y-103498109D01*
X190451103Y-103397094D01*
X190350087Y-103363422D01*
X190282744Y-103363422D01*
X190181729Y-103397094D01*
X196937965Y-99041653D02*
X196971637Y-98940638D01*
X197072652Y-98839622D01*
X197207339Y-98772279D01*
X197342026Y-98772279D01*
X197443042Y-98805951D01*
X197611400Y-98906966D01*
X197712416Y-99007981D01*
X197813431Y-99176340D01*
X197847103Y-99277355D01*
X197847103Y-99412042D01*
X197779759Y-99546729D01*
X197712416Y-99614073D01*
X197577729Y-99681416D01*
X197510385Y-99681416D01*
X197274683Y-99445714D01*
X197409370Y-99311027D01*
X197173668Y-100152821D02*
X197207339Y-100051805D01*
X197207339Y-99984462D01*
X197173668Y-99883447D01*
X196971637Y-99681416D01*
X196870622Y-99647744D01*
X196803278Y-99647744D01*
X196702263Y-99681416D01*
X196601248Y-99782431D01*
X196567576Y-99883447D01*
X196567576Y-99950790D01*
X196601248Y-100051805D01*
X196803278Y-100253836D01*
X196904294Y-100287508D01*
X196971637Y-100287508D01*
X197072652Y-100253836D01*
X197173668Y-100152821D01*
X196331874Y-100927271D02*
X196432889Y-100893599D01*
X196567576Y-100758912D01*
X196601248Y-100657897D01*
X196567576Y-100556882D01*
X196298202Y-100287508D01*
X196197187Y-100253836D01*
X196096172Y-100287508D01*
X195961485Y-100422195D01*
X195927813Y-100523210D01*
X195961485Y-100624225D01*
X196028828Y-100691569D01*
X196432889Y-100422195D01*
X196028828Y-101230317D02*
X195995156Y-101331332D01*
X195860469Y-101466019D01*
X195759454Y-101499691D01*
X195658439Y-101466019D01*
X195624767Y-101432347D01*
X195591095Y-101331332D01*
X195624767Y-101230317D01*
X195725782Y-101129301D01*
X195759454Y-101028286D01*
X195725782Y-100927271D01*
X195692111Y-100893599D01*
X195591095Y-100859927D01*
X195490080Y-100893599D01*
X195389065Y-100994614D01*
X195355393Y-101095630D01*
X194917660Y-102408828D02*
X194210553Y-101701721D01*
X194614614Y-102711874D02*
X194244225Y-102341485D01*
X194210553Y-102240469D01*
X194244225Y-102139454D01*
X194345240Y-102038439D01*
X194446256Y-102004767D01*
X194513599Y-102004767D01*
X193974851Y-103284294D02*
X194075866Y-103250622D01*
X194210553Y-103115935D01*
X194244225Y-103014920D01*
X194210553Y-102913904D01*
X193941179Y-102644530D01*
X193840164Y-102610859D01*
X193739149Y-102644530D01*
X193604462Y-102779217D01*
X193570790Y-102880233D01*
X193604462Y-102981248D01*
X193671805Y-103048591D01*
X194075866Y-102779217D01*
X193671805Y-103654683D02*
X193200401Y-103183278D01*
X193335088Y-103317965D02*
X193234073Y-103284294D01*
X193166729Y-103284294D01*
X193065714Y-103317965D01*
X192998370Y-103385309D01*
X192931027Y-104328118D02*
X193032042Y-104294446D01*
X193166729Y-104159759D01*
X193200401Y-104058744D01*
X193166729Y-103957729D01*
X192897355Y-103688355D01*
X192796340Y-103654683D01*
X192695325Y-103688355D01*
X192560638Y-103823042D01*
X192526966Y-103924057D01*
X192560638Y-104025072D01*
X192627981Y-104092416D01*
X193032042Y-103823042D01*
D11*
%TO.C,D56*%
X156310000Y-73715000D02*
X156310000Y-76000000D01*
X154840000Y-73715000D02*
X156310000Y-73715000D01*
X154840000Y-76000000D02*
X154840000Y-73715000D01*
%TO.C,D30*%
X254715000Y-37880000D02*
X254715000Y-35595000D01*
X254715000Y-35595000D02*
X256185000Y-35595000D01*
X256185000Y-35595000D02*
X256185000Y-37880000D01*
%TO.C,D58*%
X194485000Y-73715000D02*
X194485000Y-76000000D01*
X193015000Y-73715000D02*
X194485000Y-73715000D01*
X193015000Y-76000000D02*
X193015000Y-73715000D01*
%TO.C,D51*%
X47760000Y-73715000D02*
X47760000Y-76000000D01*
X46290000Y-73715000D02*
X47760000Y-73715000D01*
X46290000Y-76000000D02*
X46290000Y-73715000D01*
%TO.C,D28*%
X218135000Y-35615000D02*
X218135000Y-37900000D01*
X216665000Y-35615000D02*
X218135000Y-35615000D01*
X216665000Y-37900000D02*
X216665000Y-35615000D01*
%TO.C,Reset1*%
X180580000Y-105150000D02*
X181070000Y-105640000D01*
X177680000Y-105150000D02*
X180580000Y-105150000D01*
X177680000Y-105150000D02*
X177190000Y-105640000D01*
X177680000Y-110590000D02*
X180580000Y-110590000D01*
X177680000Y-110590000D02*
X177190000Y-110100000D01*
X181850000Y-106830000D02*
X181850000Y-108910000D01*
X180580000Y-110590000D02*
X181070000Y-110100000D01*
X176410000Y-106830000D02*
X176410000Y-108910000D01*
%TO.C,D71*%
X277860000Y-92490000D02*
X277860000Y-94775000D01*
X276390000Y-92490000D02*
X277860000Y-92490000D01*
X276390000Y-94775000D02*
X276390000Y-92490000D01*
%TO.C,D70*%
X253560000Y-92490000D02*
X253560000Y-94775000D01*
X252090000Y-92490000D02*
X253560000Y-92490000D01*
X252090000Y-94775000D02*
X252090000Y-92490000D01*
%TO.C,D69*%
X249735000Y-92490000D02*
X249735000Y-94775000D01*
X248265000Y-92490000D02*
X249735000Y-92490000D01*
X248265000Y-94775000D02*
X248265000Y-92490000D01*
%TO.C,D68*%
X160635000Y-92490000D02*
X160635000Y-94775000D01*
X159165000Y-92490000D02*
X160635000Y-92490000D01*
X159165000Y-94775000D02*
X159165000Y-92490000D01*
%TO.C,D67*%
X89265000Y-105360000D02*
X89265000Y-103075000D01*
X90735000Y-105360000D02*
X89265000Y-105360000D01*
X90735000Y-103075000D02*
X90735000Y-105360000D01*
%TO.C,D66*%
X47915000Y-110435000D02*
X47915000Y-108150000D01*
X49385000Y-110435000D02*
X47915000Y-110435000D01*
X49385000Y-108150000D02*
X49385000Y-110435000D01*
%TO.C,D65*%
X45290000Y-110435000D02*
X45290000Y-108150000D01*
X46760000Y-110435000D02*
X45290000Y-110435000D01*
X46760000Y-108150000D02*
X46760000Y-110435000D01*
%TO.C,D64*%
X287035000Y-73715000D02*
X287035000Y-76000000D01*
X285565000Y-73715000D02*
X287035000Y-73715000D01*
X285565000Y-76000000D02*
X285565000Y-73715000D01*
%TO.C,D62*%
X284860000Y-73715000D02*
X284860000Y-76000000D01*
X283390000Y-73715000D02*
X284860000Y-73715000D01*
X283390000Y-76000000D02*
X283390000Y-73715000D01*
%TO.C,D61*%
X235110000Y-73715000D02*
X235110000Y-76000000D01*
X233640000Y-73715000D02*
X235110000Y-73715000D01*
X233640000Y-76000000D02*
X233640000Y-73715000D01*
%TO.C,D60*%
X232510000Y-73715000D02*
X232510000Y-76000000D01*
X231040000Y-73715000D02*
X232510000Y-73715000D01*
X231040000Y-76000000D02*
X231040000Y-73715000D01*
%TO.C,D59*%
X196935000Y-73715000D02*
X196935000Y-76000000D01*
X195465000Y-73715000D02*
X196935000Y-73715000D01*
X195465000Y-76000000D02*
X195465000Y-73715000D01*
%TO.C,D57*%
X158835000Y-73715000D02*
X158835000Y-76000000D01*
X157365000Y-73715000D02*
X158835000Y-73715000D01*
X157365000Y-76000000D02*
X157365000Y-73715000D01*
%TO.C,D55*%
X120710000Y-73715000D02*
X120710000Y-76000000D01*
X119240000Y-73715000D02*
X120710000Y-73715000D01*
X119240000Y-76000000D02*
X119240000Y-73715000D01*
%TO.C,D54*%
X118235000Y-73715000D02*
X118235000Y-76000000D01*
X116765000Y-73715000D02*
X118235000Y-73715000D01*
X116765000Y-76000000D02*
X116765000Y-73715000D01*
%TO.C,D53*%
X82410000Y-73715000D02*
X82410000Y-76000000D01*
X80940000Y-73715000D02*
X82410000Y-73715000D01*
X80940000Y-76000000D02*
X80940000Y-73715000D01*
%TO.C,D52*%
X80410000Y-73715000D02*
X80410000Y-76000000D01*
X78940000Y-73715000D02*
X80410000Y-73715000D01*
X78940000Y-76000000D02*
X78940000Y-73715000D01*
%TO.C,D49*%
X45105000Y-73740000D02*
X45105000Y-76025000D01*
X43635000Y-73740000D02*
X45105000Y-73740000D01*
X43635000Y-76025000D02*
X43635000Y-73740000D01*
%TO.C,D47*%
X292635000Y-68668000D02*
X292635000Y-66383000D01*
X294105000Y-68668000D02*
X292635000Y-68668000D01*
X294105000Y-66383000D02*
X294105000Y-68668000D01*
%TO.C,D46*%
X259515000Y-72860000D02*
X259515000Y-70575000D01*
X260985000Y-72860000D02*
X259515000Y-72860000D01*
X260985000Y-70575000D02*
X260985000Y-72860000D01*
%TO.C,D45*%
X243115000Y-72860000D02*
X243115000Y-70575000D01*
X244585000Y-72860000D02*
X243115000Y-72860000D01*
X244585000Y-70575000D02*
X244585000Y-72860000D01*
%TO.C,D44*%
X240565000Y-72860000D02*
X240565000Y-70575000D01*
X242035000Y-72860000D02*
X240565000Y-72860000D01*
X242035000Y-70575000D02*
X242035000Y-72860000D01*
%TO.C,D43*%
X205040000Y-72860000D02*
X205040000Y-70575000D01*
X206510000Y-72860000D02*
X205040000Y-72860000D01*
X206510000Y-70575000D02*
X206510000Y-72860000D01*
%TO.C,D42*%
X202440000Y-72860000D02*
X202440000Y-70575000D01*
X203910000Y-72860000D02*
X202440000Y-72860000D01*
X203910000Y-70575000D02*
X203910000Y-72860000D01*
%TO.C,D41*%
X166915000Y-72860000D02*
X166915000Y-70575000D01*
X168385000Y-72860000D02*
X166915000Y-72860000D01*
X168385000Y-70575000D02*
X168385000Y-72860000D01*
%TO.C,D40*%
X164415000Y-72860000D02*
X164415000Y-70575000D01*
X165885000Y-72860000D02*
X164415000Y-72860000D01*
X165885000Y-70575000D02*
X165885000Y-72860000D01*
%TO.C,D39*%
X128790000Y-72835000D02*
X128790000Y-70550000D01*
X130260000Y-72835000D02*
X128790000Y-72835000D01*
X130260000Y-70550000D02*
X130260000Y-72835000D01*
%TO.C,D38*%
X109790000Y-72835000D02*
X109790000Y-70550000D01*
X111260000Y-72835000D02*
X109790000Y-72835000D01*
X111260000Y-70550000D02*
X111260000Y-72835000D01*
%TO.C,D37*%
X107215000Y-72835000D02*
X107215000Y-70550000D01*
X108685000Y-72835000D02*
X107215000Y-72835000D01*
X108685000Y-70550000D02*
X108685000Y-72835000D01*
%TO.C,D36*%
X71640000Y-72835000D02*
X71640000Y-70550000D01*
X73110000Y-72835000D02*
X71640000Y-72835000D01*
X73110000Y-70550000D02*
X73110000Y-72835000D01*
%TO.C,D35*%
X69265000Y-72835000D02*
X69265000Y-70550000D01*
X70735000Y-72835000D02*
X69265000Y-72835000D01*
X70735000Y-70550000D02*
X70735000Y-72835000D01*
%TO.C,D33*%
X37290000Y-72935000D02*
X37290000Y-70650000D01*
X38760000Y-72935000D02*
X37290000Y-72935000D01*
X38760000Y-70650000D02*
X38760000Y-72935000D01*
%TO.C,D32*%
X286200000Y-38335000D02*
X283915000Y-38335000D01*
X283915000Y-38335000D02*
X283915000Y-36865000D01*
X283915000Y-36865000D02*
X286200000Y-36865000D01*
%TO.C,D31*%
X257740000Y-37880000D02*
X257740000Y-35595000D01*
X257740000Y-35595000D02*
X259210000Y-35595000D01*
X259210000Y-35595000D02*
X259210000Y-37880000D01*
%TO.C,D29*%
X221160000Y-35615000D02*
X221160000Y-37900000D01*
X219690000Y-35615000D02*
X221160000Y-35615000D01*
X219690000Y-37900000D02*
X219690000Y-35615000D01*
%TO.C,D27*%
X182910000Y-35640000D02*
X182910000Y-37925000D01*
X181440000Y-35640000D02*
X182910000Y-35640000D01*
X181440000Y-37925000D02*
X181440000Y-35640000D01*
%TO.C,D26*%
X180135000Y-35615000D02*
X180135000Y-37900000D01*
X178665000Y-35615000D02*
X180135000Y-35615000D01*
X178665000Y-37900000D02*
X178665000Y-35615000D01*
%TO.C,D25*%
X144785000Y-35615000D02*
X144785000Y-37900000D01*
X143315000Y-35615000D02*
X144785000Y-35615000D01*
X143315000Y-37900000D02*
X143315000Y-35615000D01*
%TO.C,D24*%
X142010000Y-35615000D02*
X142010000Y-37900000D01*
X140540000Y-35615000D02*
X142010000Y-35615000D01*
X140540000Y-37900000D02*
X140540000Y-35615000D01*
%TO.C,D23*%
X106760000Y-35595000D02*
X106760000Y-37880000D01*
X105290000Y-35595000D02*
X106760000Y-35595000D01*
X105290000Y-37880000D02*
X105290000Y-35595000D01*
%TO.C,D22*%
X104010000Y-35590000D02*
X104010000Y-37875000D01*
X102540000Y-35590000D02*
X104010000Y-35590000D01*
X102540000Y-37875000D02*
X102540000Y-35590000D01*
%TO.C,D21*%
X68610000Y-35615000D02*
X68610000Y-37900000D01*
X67140000Y-35615000D02*
X68610000Y-35615000D01*
X67140000Y-37900000D02*
X67140000Y-35615000D01*
%TO.C,D20*%
X65885000Y-35590000D02*
X65885000Y-37875000D01*
X64415000Y-35590000D02*
X65885000Y-35590000D01*
X64415000Y-37875000D02*
X64415000Y-35590000D01*
%TO.C,D19*%
X33225000Y-37605000D02*
X33225000Y-39890000D01*
X31755000Y-37605000D02*
X33225000Y-37605000D01*
X31755000Y-39890000D02*
X31755000Y-37605000D01*
%TO.C,D18*%
X286115000Y-35140000D02*
X286115000Y-32855000D01*
X287585000Y-35140000D02*
X286115000Y-35140000D01*
X287585000Y-32855000D02*
X287585000Y-35140000D01*
%TO.C,D16*%
X283465000Y-35135000D02*
X283465000Y-32850000D01*
X284935000Y-35135000D02*
X283465000Y-35135000D01*
X284935000Y-32850000D02*
X284935000Y-35135000D01*
%TO.C,D15*%
X247965000Y-35135000D02*
X247965000Y-32850000D01*
X249435000Y-35135000D02*
X247965000Y-35135000D01*
X249435000Y-32850000D02*
X249435000Y-35135000D01*
%TO.C,D14*%
X245390000Y-35140000D02*
X245390000Y-32855000D01*
X246860000Y-35140000D02*
X245390000Y-35140000D01*
X246860000Y-32855000D02*
X246860000Y-35140000D01*
%TO.C,D13*%
X209790000Y-35140000D02*
X209790000Y-32855000D01*
X211260000Y-35140000D02*
X209790000Y-35140000D01*
X211260000Y-32855000D02*
X211260000Y-35140000D01*
%TO.C,D12*%
X207290000Y-35140000D02*
X207290000Y-32855000D01*
X208760000Y-35140000D02*
X207290000Y-35140000D01*
X208760000Y-32855000D02*
X208760000Y-35140000D01*
%TO.C,D11*%
X171740000Y-35135000D02*
X171740000Y-32850000D01*
X173210000Y-35135000D02*
X171740000Y-35135000D01*
X173210000Y-32850000D02*
X173210000Y-35135000D01*
%TO.C,D10*%
X169190000Y-35135000D02*
X169190000Y-32850000D01*
X170660000Y-35135000D02*
X169190000Y-35135000D01*
X170660000Y-32850000D02*
X170660000Y-35135000D01*
%TO.C,D9*%
X133640000Y-35135000D02*
X133640000Y-32850000D01*
X135110000Y-35135000D02*
X133640000Y-35135000D01*
X135110000Y-32850000D02*
X135110000Y-35135000D01*
%TO.C,D8*%
X131065000Y-35135000D02*
X131065000Y-32850000D01*
X132535000Y-35135000D02*
X131065000Y-35135000D01*
X132535000Y-32850000D02*
X132535000Y-35135000D01*
%TO.C,D7*%
X95540000Y-35135000D02*
X95540000Y-32850000D01*
X97010000Y-35135000D02*
X95540000Y-35135000D01*
X97010000Y-32850000D02*
X97010000Y-35135000D01*
%TO.C,D6*%
X93040000Y-35135000D02*
X93040000Y-32850000D01*
X94510000Y-35135000D02*
X93040000Y-35135000D01*
X94510000Y-32850000D02*
X94510000Y-35135000D01*
%TO.C,D5*%
X57440000Y-35140000D02*
X57440000Y-32855000D01*
X58910000Y-35140000D02*
X57440000Y-35140000D01*
X58910000Y-32855000D02*
X58910000Y-35140000D01*
%TO.C,D4*%
X54915000Y-35140000D02*
X54915000Y-32855000D01*
X56385000Y-35140000D02*
X54915000Y-35140000D01*
X56385000Y-32855000D02*
X56385000Y-35140000D01*
%TO.C,D3*%
X30126000Y-35140000D02*
X30126000Y-32855000D01*
X31596000Y-35140000D02*
X30126000Y-35140000D01*
X31596000Y-32855000D02*
X31596000Y-35140000D01*
%TO.C,R7*%
X205042742Y-104182500D02*
X205517258Y-104182500D01*
X205042742Y-103137500D02*
X205517258Y-103137500D01*
%TO.C,R6*%
X205537258Y-104857500D02*
X205062742Y-104857500D01*
X205537258Y-105902500D02*
X205062742Y-105902500D01*
%TO.C,R5*%
X33640500Y-30560742D02*
X33640500Y-31035258D01*
X34685500Y-30560742D02*
X34685500Y-31035258D01*
%TO.C,R4*%
X41133500Y-30496742D02*
X41133500Y-30971258D01*
X42178500Y-30496742D02*
X42178500Y-30971258D01*
%TO.C,R3*%
X134057500Y-96352742D02*
X134057500Y-96827258D01*
X135102500Y-96352742D02*
X135102500Y-96827258D01*
%TO.C,R2*%
X154163500Y-93742742D02*
X154163500Y-94217258D01*
X155208500Y-93742742D02*
X155208500Y-94217258D01*
%TO.C,R1*%
X147463742Y-100725500D02*
X147938258Y-100725500D01*
X147463742Y-99680500D02*
X147938258Y-99680500D01*
%TO.C,U4*%
X36236000Y-31507000D02*
X36236000Y-29707000D01*
X39456000Y-29707000D02*
X39456000Y-32157000D01*
%TO.C,U3*%
X207170039Y-98485010D02*
X206462932Y-97777903D01*
X207170039Y-98485010D02*
X206462932Y-99192117D01*
X197624097Y-88939068D02*
X196916990Y-88231961D01*
X196916990Y-88231961D02*
X196209883Y-88939068D01*
X194442117Y-111212932D02*
X193735010Y-111920039D01*
X184189068Y-100959883D02*
X183481961Y-101666990D01*
X184189068Y-102374097D02*
X183481961Y-101666990D01*
X193027903Y-111212932D02*
X193735010Y-111920039D01*
%TO.C,U2*%
X139370000Y-101330000D02*
X139370000Y-103130000D01*
X136150000Y-103130000D02*
X136150000Y-100680000D01*
%TO.C,U1*%
X149901000Y-98055000D02*
X149901000Y-96255000D01*
X153121000Y-96255000D02*
X153121000Y-98705000D01*
%TO.C,Q1*%
X138100000Y-97310000D02*
X139030000Y-97310000D01*
X141260000Y-97310000D02*
X140330000Y-97310000D01*
X141260000Y-97310000D02*
X141260000Y-99470000D01*
X138100000Y-97310000D02*
X138100000Y-98770000D01*
%TO.C,J1*%
X32892000Y-17558000D02*
X32892000Y-15658000D01*
X32892000Y-21458000D02*
X32892000Y-19458000D01*
X42292000Y-17558000D02*
X42292000Y-15658000D01*
X42292000Y-21458000D02*
X42292000Y-19458000D01*
X32892000Y-15658000D02*
X42292000Y-15658000D01*
%TO.C,D2*%
X137660000Y-99670000D02*
X135660000Y-99670000D01*
X135660000Y-99670000D02*
X135660000Y-95770000D01*
X137660000Y-99670000D02*
X137660000Y-95770000D01*
%TO.C,D1*%
X148534000Y-96028000D02*
X148534000Y-98713000D01*
X148534000Y-98713000D02*
X146614000Y-98713000D01*
X146614000Y-98713000D02*
X146614000Y-96028000D01*
%TO.C,C1*%
X147958748Y-94505000D02*
X148481252Y-94505000D01*
X147958748Y-93035000D02*
X148481252Y-93035000D01*
%TO.C,D56*%
D12*
X154597380Y-73985714D02*
X153597380Y-73985714D01*
X153597380Y-74223809D01*
X153645000Y-74366666D01*
X153740238Y-74461904D01*
X153835476Y-74509523D01*
X154025952Y-74557142D01*
X154168809Y-74557142D01*
X154359285Y-74509523D01*
X154454523Y-74461904D01*
X154549761Y-74366666D01*
X154597380Y-74223809D01*
X154597380Y-73985714D01*
X153597380Y-75461904D02*
X153597380Y-74985714D01*
X154073571Y-74938095D01*
X154025952Y-74985714D01*
X153978333Y-75080952D01*
X153978333Y-75319047D01*
X154025952Y-75414285D01*
X154073571Y-75461904D01*
X154168809Y-75509523D01*
X154406904Y-75509523D01*
X154502142Y-75461904D01*
X154549761Y-75414285D01*
X154597380Y-75319047D01*
X154597380Y-75080952D01*
X154549761Y-74985714D01*
X154502142Y-74938095D01*
X153597380Y-76366666D02*
X153597380Y-76176190D01*
X153645000Y-76080952D01*
X153692619Y-76033333D01*
X153835476Y-75938095D01*
X154025952Y-75890476D01*
X154406904Y-75890476D01*
X154502142Y-75938095D01*
X154549761Y-75985714D01*
X154597380Y-76080952D01*
X154597380Y-76271428D01*
X154549761Y-76366666D01*
X154502142Y-76414285D01*
X154406904Y-76461904D01*
X154168809Y-76461904D01*
X154073571Y-76414285D01*
X154025952Y-76366666D01*
X153978333Y-76271428D01*
X153978333Y-76080952D01*
X154025952Y-75985714D01*
X154073571Y-75938095D01*
X154168809Y-75890476D01*
%TO.C,D30*%
X254472380Y-35865714D02*
X253472380Y-35865714D01*
X253472380Y-36103809D01*
X253520000Y-36246666D01*
X253615238Y-36341904D01*
X253710476Y-36389523D01*
X253900952Y-36437142D01*
X254043809Y-36437142D01*
X254234285Y-36389523D01*
X254329523Y-36341904D01*
X254424761Y-36246666D01*
X254472380Y-36103809D01*
X254472380Y-35865714D01*
X253472380Y-36770476D02*
X253472380Y-37389523D01*
X253853333Y-37056190D01*
X253853333Y-37199047D01*
X253900952Y-37294285D01*
X253948571Y-37341904D01*
X254043809Y-37389523D01*
X254281904Y-37389523D01*
X254377142Y-37341904D01*
X254424761Y-37294285D01*
X254472380Y-37199047D01*
X254472380Y-36913333D01*
X254424761Y-36818095D01*
X254377142Y-36770476D01*
X253472380Y-38008571D02*
X253472380Y-38103809D01*
X253520000Y-38199047D01*
X253567619Y-38246666D01*
X253662857Y-38294285D01*
X253853333Y-38341904D01*
X254091428Y-38341904D01*
X254281904Y-38294285D01*
X254377142Y-38246666D01*
X254424761Y-38199047D01*
X254472380Y-38103809D01*
X254472380Y-38008571D01*
X254424761Y-37913333D01*
X254377142Y-37865714D01*
X254281904Y-37818095D01*
X254091428Y-37770476D01*
X253853333Y-37770476D01*
X253662857Y-37818095D01*
X253567619Y-37865714D01*
X253520000Y-37913333D01*
X253472380Y-38008571D01*
%TO.C,D58*%
X192772380Y-73985714D02*
X191772380Y-73985714D01*
X191772380Y-74223809D01*
X191820000Y-74366666D01*
X191915238Y-74461904D01*
X192010476Y-74509523D01*
X192200952Y-74557142D01*
X192343809Y-74557142D01*
X192534285Y-74509523D01*
X192629523Y-74461904D01*
X192724761Y-74366666D01*
X192772380Y-74223809D01*
X192772380Y-73985714D01*
X191772380Y-75461904D02*
X191772380Y-74985714D01*
X192248571Y-74938095D01*
X192200952Y-74985714D01*
X192153333Y-75080952D01*
X192153333Y-75319047D01*
X192200952Y-75414285D01*
X192248571Y-75461904D01*
X192343809Y-75509523D01*
X192581904Y-75509523D01*
X192677142Y-75461904D01*
X192724761Y-75414285D01*
X192772380Y-75319047D01*
X192772380Y-75080952D01*
X192724761Y-74985714D01*
X192677142Y-74938095D01*
X192200952Y-76080952D02*
X192153333Y-75985714D01*
X192105714Y-75938095D01*
X192010476Y-75890476D01*
X191962857Y-75890476D01*
X191867619Y-75938095D01*
X191820000Y-75985714D01*
X191772380Y-76080952D01*
X191772380Y-76271428D01*
X191820000Y-76366666D01*
X191867619Y-76414285D01*
X191962857Y-76461904D01*
X192010476Y-76461904D01*
X192105714Y-76414285D01*
X192153333Y-76366666D01*
X192200952Y-76271428D01*
X192200952Y-76080952D01*
X192248571Y-75985714D01*
X192296190Y-75938095D01*
X192391428Y-75890476D01*
X192581904Y-75890476D01*
X192677142Y-75938095D01*
X192724761Y-75985714D01*
X192772380Y-76080952D01*
X192772380Y-76271428D01*
X192724761Y-76366666D01*
X192677142Y-76414285D01*
X192581904Y-76461904D01*
X192391428Y-76461904D01*
X192296190Y-76414285D01*
X192248571Y-76366666D01*
X192200952Y-76271428D01*
%TO.C,D51*%
X46047380Y-73985714D02*
X45047380Y-73985714D01*
X45047380Y-74223809D01*
X45095000Y-74366666D01*
X45190238Y-74461904D01*
X45285476Y-74509523D01*
X45475952Y-74557142D01*
X45618809Y-74557142D01*
X45809285Y-74509523D01*
X45904523Y-74461904D01*
X45999761Y-74366666D01*
X46047380Y-74223809D01*
X46047380Y-73985714D01*
X45047380Y-75461904D02*
X45047380Y-74985714D01*
X45523571Y-74938095D01*
X45475952Y-74985714D01*
X45428333Y-75080952D01*
X45428333Y-75319047D01*
X45475952Y-75414285D01*
X45523571Y-75461904D01*
X45618809Y-75509523D01*
X45856904Y-75509523D01*
X45952142Y-75461904D01*
X45999761Y-75414285D01*
X46047380Y-75319047D01*
X46047380Y-75080952D01*
X45999761Y-74985714D01*
X45952142Y-74938095D01*
X46047380Y-76461904D02*
X46047380Y-75890476D01*
X46047380Y-76176190D02*
X45047380Y-76176190D01*
X45190238Y-76080952D01*
X45285476Y-75985714D01*
X45333095Y-75890476D01*
%TO.C,D28*%
X216422380Y-35885714D02*
X215422380Y-35885714D01*
X215422380Y-36123809D01*
X215470000Y-36266666D01*
X215565238Y-36361904D01*
X215660476Y-36409523D01*
X215850952Y-36457142D01*
X215993809Y-36457142D01*
X216184285Y-36409523D01*
X216279523Y-36361904D01*
X216374761Y-36266666D01*
X216422380Y-36123809D01*
X216422380Y-35885714D01*
X215517619Y-36838095D02*
X215470000Y-36885714D01*
X215422380Y-36980952D01*
X215422380Y-37219047D01*
X215470000Y-37314285D01*
X215517619Y-37361904D01*
X215612857Y-37409523D01*
X215708095Y-37409523D01*
X215850952Y-37361904D01*
X216422380Y-36790476D01*
X216422380Y-37409523D01*
X215850952Y-37980952D02*
X215803333Y-37885714D01*
X215755714Y-37838095D01*
X215660476Y-37790476D01*
X215612857Y-37790476D01*
X215517619Y-37838095D01*
X215470000Y-37885714D01*
X215422380Y-37980952D01*
X215422380Y-38171428D01*
X215470000Y-38266666D01*
X215517619Y-38314285D01*
X215612857Y-38361904D01*
X215660476Y-38361904D01*
X215755714Y-38314285D01*
X215803333Y-38266666D01*
X215850952Y-38171428D01*
X215850952Y-37980952D01*
X215898571Y-37885714D01*
X215946190Y-37838095D01*
X216041428Y-37790476D01*
X216231904Y-37790476D01*
X216327142Y-37838095D01*
X216374761Y-37885714D01*
X216422380Y-37980952D01*
X216422380Y-38171428D01*
X216374761Y-38266666D01*
X216327142Y-38314285D01*
X216231904Y-38361904D01*
X216041428Y-38361904D01*
X215946190Y-38314285D01*
X215898571Y-38266666D01*
X215850952Y-38171428D01*
%TO.C,Reset1*%
X180844285Y-111922380D02*
X181177619Y-111446190D01*
X181415714Y-111922380D02*
X181415714Y-110922380D01*
X181034761Y-110922380D01*
X180939523Y-110970000D01*
X180891904Y-111017619D01*
X180844285Y-111112857D01*
X180844285Y-111255714D01*
X180891904Y-111350952D01*
X180939523Y-111398571D01*
X181034761Y-111446190D01*
X181415714Y-111446190D01*
X180034761Y-111874761D02*
X180130000Y-111922380D01*
X180320476Y-111922380D01*
X180415714Y-111874761D01*
X180463333Y-111779523D01*
X180463333Y-111398571D01*
X180415714Y-111303333D01*
X180320476Y-111255714D01*
X180130000Y-111255714D01*
X180034761Y-111303333D01*
X179987142Y-111398571D01*
X179987142Y-111493809D01*
X180463333Y-111589047D01*
X179606190Y-111874761D02*
X179510952Y-111922380D01*
X179320476Y-111922380D01*
X179225238Y-111874761D01*
X179177619Y-111779523D01*
X179177619Y-111731904D01*
X179225238Y-111636666D01*
X179320476Y-111589047D01*
X179463333Y-111589047D01*
X179558571Y-111541428D01*
X179606190Y-111446190D01*
X179606190Y-111398571D01*
X179558571Y-111303333D01*
X179463333Y-111255714D01*
X179320476Y-111255714D01*
X179225238Y-111303333D01*
X178368095Y-111874761D02*
X178463333Y-111922380D01*
X178653809Y-111922380D01*
X178749047Y-111874761D01*
X178796666Y-111779523D01*
X178796666Y-111398571D01*
X178749047Y-111303333D01*
X178653809Y-111255714D01*
X178463333Y-111255714D01*
X178368095Y-111303333D01*
X178320476Y-111398571D01*
X178320476Y-111493809D01*
X178796666Y-111589047D01*
X178034761Y-111255714D02*
X177653809Y-111255714D01*
X177891904Y-110922380D02*
X177891904Y-111779523D01*
X177844285Y-111874761D01*
X177749047Y-111922380D01*
X177653809Y-111922380D01*
X176796666Y-111922380D02*
X177368095Y-111922380D01*
X177082380Y-111922380D02*
X177082380Y-110922380D01*
X177177619Y-111065238D01*
X177272857Y-111160476D01*
X177368095Y-111208095D01*
%TO.C,D71*%
X276147380Y-92760714D02*
X275147380Y-92760714D01*
X275147380Y-92998809D01*
X275195000Y-93141666D01*
X275290238Y-93236904D01*
X275385476Y-93284523D01*
X275575952Y-93332142D01*
X275718809Y-93332142D01*
X275909285Y-93284523D01*
X276004523Y-93236904D01*
X276099761Y-93141666D01*
X276147380Y-92998809D01*
X276147380Y-92760714D01*
X275147380Y-93665476D02*
X275147380Y-94332142D01*
X276147380Y-93903571D01*
X276147380Y-95236904D02*
X276147380Y-94665476D01*
X276147380Y-94951190D02*
X275147380Y-94951190D01*
X275290238Y-94855952D01*
X275385476Y-94760714D01*
X275433095Y-94665476D01*
%TO.C,D70*%
X251847380Y-92760714D02*
X250847380Y-92760714D01*
X250847380Y-92998809D01*
X250895000Y-93141666D01*
X250990238Y-93236904D01*
X251085476Y-93284523D01*
X251275952Y-93332142D01*
X251418809Y-93332142D01*
X251609285Y-93284523D01*
X251704523Y-93236904D01*
X251799761Y-93141666D01*
X251847380Y-92998809D01*
X251847380Y-92760714D01*
X250847380Y-93665476D02*
X250847380Y-94332142D01*
X251847380Y-93903571D01*
X250847380Y-94903571D02*
X250847380Y-94998809D01*
X250895000Y-95094047D01*
X250942619Y-95141666D01*
X251037857Y-95189285D01*
X251228333Y-95236904D01*
X251466428Y-95236904D01*
X251656904Y-95189285D01*
X251752142Y-95141666D01*
X251799761Y-95094047D01*
X251847380Y-94998809D01*
X251847380Y-94903571D01*
X251799761Y-94808333D01*
X251752142Y-94760714D01*
X251656904Y-94713095D01*
X251466428Y-94665476D01*
X251228333Y-94665476D01*
X251037857Y-94713095D01*
X250942619Y-94760714D01*
X250895000Y-94808333D01*
X250847380Y-94903571D01*
%TO.C,D69*%
X248022380Y-92760714D02*
X247022380Y-92760714D01*
X247022380Y-92998809D01*
X247070000Y-93141666D01*
X247165238Y-93236904D01*
X247260476Y-93284523D01*
X247450952Y-93332142D01*
X247593809Y-93332142D01*
X247784285Y-93284523D01*
X247879523Y-93236904D01*
X247974761Y-93141666D01*
X248022380Y-92998809D01*
X248022380Y-92760714D01*
X247022380Y-94189285D02*
X247022380Y-93998809D01*
X247070000Y-93903571D01*
X247117619Y-93855952D01*
X247260476Y-93760714D01*
X247450952Y-93713095D01*
X247831904Y-93713095D01*
X247927142Y-93760714D01*
X247974761Y-93808333D01*
X248022380Y-93903571D01*
X248022380Y-94094047D01*
X247974761Y-94189285D01*
X247927142Y-94236904D01*
X247831904Y-94284523D01*
X247593809Y-94284523D01*
X247498571Y-94236904D01*
X247450952Y-94189285D01*
X247403333Y-94094047D01*
X247403333Y-93903571D01*
X247450952Y-93808333D01*
X247498571Y-93760714D01*
X247593809Y-93713095D01*
X248022380Y-94760714D02*
X248022380Y-94951190D01*
X247974761Y-95046428D01*
X247927142Y-95094047D01*
X247784285Y-95189285D01*
X247593809Y-95236904D01*
X247212857Y-95236904D01*
X247117619Y-95189285D01*
X247070000Y-95141666D01*
X247022380Y-95046428D01*
X247022380Y-94855952D01*
X247070000Y-94760714D01*
X247117619Y-94713095D01*
X247212857Y-94665476D01*
X247450952Y-94665476D01*
X247546190Y-94713095D01*
X247593809Y-94760714D01*
X247641428Y-94855952D01*
X247641428Y-95046428D01*
X247593809Y-95141666D01*
X247546190Y-95189285D01*
X247450952Y-95236904D01*
%TO.C,D68*%
X158922380Y-92760714D02*
X157922380Y-92760714D01*
X157922380Y-92998809D01*
X157970000Y-93141666D01*
X158065238Y-93236904D01*
X158160476Y-93284523D01*
X158350952Y-93332142D01*
X158493809Y-93332142D01*
X158684285Y-93284523D01*
X158779523Y-93236904D01*
X158874761Y-93141666D01*
X158922380Y-92998809D01*
X158922380Y-92760714D01*
X157922380Y-94189285D02*
X157922380Y-93998809D01*
X157970000Y-93903571D01*
X158017619Y-93855952D01*
X158160476Y-93760714D01*
X158350952Y-93713095D01*
X158731904Y-93713095D01*
X158827142Y-93760714D01*
X158874761Y-93808333D01*
X158922380Y-93903571D01*
X158922380Y-94094047D01*
X158874761Y-94189285D01*
X158827142Y-94236904D01*
X158731904Y-94284523D01*
X158493809Y-94284523D01*
X158398571Y-94236904D01*
X158350952Y-94189285D01*
X158303333Y-94094047D01*
X158303333Y-93903571D01*
X158350952Y-93808333D01*
X158398571Y-93760714D01*
X158493809Y-93713095D01*
X158350952Y-94855952D02*
X158303333Y-94760714D01*
X158255714Y-94713095D01*
X158160476Y-94665476D01*
X158112857Y-94665476D01*
X158017619Y-94713095D01*
X157970000Y-94760714D01*
X157922380Y-94855952D01*
X157922380Y-95046428D01*
X157970000Y-95141666D01*
X158017619Y-95189285D01*
X158112857Y-95236904D01*
X158160476Y-95236904D01*
X158255714Y-95189285D01*
X158303333Y-95141666D01*
X158350952Y-95046428D01*
X158350952Y-94855952D01*
X158398571Y-94760714D01*
X158446190Y-94713095D01*
X158541428Y-94665476D01*
X158731904Y-94665476D01*
X158827142Y-94713095D01*
X158874761Y-94760714D01*
X158922380Y-94855952D01*
X158922380Y-95046428D01*
X158874761Y-95141666D01*
X158827142Y-95189285D01*
X158731904Y-95236904D01*
X158541428Y-95236904D01*
X158446190Y-95189285D01*
X158398571Y-95141666D01*
X158350952Y-95046428D01*
%TO.C,D67*%
X91882380Y-102660714D02*
X90882380Y-102660714D01*
X90882380Y-102898809D01*
X90930000Y-103041666D01*
X91025238Y-103136904D01*
X91120476Y-103184523D01*
X91310952Y-103232142D01*
X91453809Y-103232142D01*
X91644285Y-103184523D01*
X91739523Y-103136904D01*
X91834761Y-103041666D01*
X91882380Y-102898809D01*
X91882380Y-102660714D01*
X90882380Y-104089285D02*
X90882380Y-103898809D01*
X90930000Y-103803571D01*
X90977619Y-103755952D01*
X91120476Y-103660714D01*
X91310952Y-103613095D01*
X91691904Y-103613095D01*
X91787142Y-103660714D01*
X91834761Y-103708333D01*
X91882380Y-103803571D01*
X91882380Y-103994047D01*
X91834761Y-104089285D01*
X91787142Y-104136904D01*
X91691904Y-104184523D01*
X91453809Y-104184523D01*
X91358571Y-104136904D01*
X91310952Y-104089285D01*
X91263333Y-103994047D01*
X91263333Y-103803571D01*
X91310952Y-103708333D01*
X91358571Y-103660714D01*
X91453809Y-103613095D01*
X90882380Y-104517857D02*
X90882380Y-105184523D01*
X91882380Y-104755952D01*
%TO.C,D66*%
X50532380Y-107735714D02*
X49532380Y-107735714D01*
X49532380Y-107973809D01*
X49580000Y-108116666D01*
X49675238Y-108211904D01*
X49770476Y-108259523D01*
X49960952Y-108307142D01*
X50103809Y-108307142D01*
X50294285Y-108259523D01*
X50389523Y-108211904D01*
X50484761Y-108116666D01*
X50532380Y-107973809D01*
X50532380Y-107735714D01*
X49532380Y-109164285D02*
X49532380Y-108973809D01*
X49580000Y-108878571D01*
X49627619Y-108830952D01*
X49770476Y-108735714D01*
X49960952Y-108688095D01*
X50341904Y-108688095D01*
X50437142Y-108735714D01*
X50484761Y-108783333D01*
X50532380Y-108878571D01*
X50532380Y-109069047D01*
X50484761Y-109164285D01*
X50437142Y-109211904D01*
X50341904Y-109259523D01*
X50103809Y-109259523D01*
X50008571Y-109211904D01*
X49960952Y-109164285D01*
X49913333Y-109069047D01*
X49913333Y-108878571D01*
X49960952Y-108783333D01*
X50008571Y-108735714D01*
X50103809Y-108688095D01*
X49532380Y-110116666D02*
X49532380Y-109926190D01*
X49580000Y-109830952D01*
X49627619Y-109783333D01*
X49770476Y-109688095D01*
X49960952Y-109640476D01*
X50341904Y-109640476D01*
X50437142Y-109688095D01*
X50484761Y-109735714D01*
X50532380Y-109830952D01*
X50532380Y-110021428D01*
X50484761Y-110116666D01*
X50437142Y-110164285D01*
X50341904Y-110211904D01*
X50103809Y-110211904D01*
X50008571Y-110164285D01*
X49960952Y-110116666D01*
X49913333Y-110021428D01*
X49913333Y-109830952D01*
X49960952Y-109735714D01*
X50008571Y-109688095D01*
X50103809Y-109640476D01*
%TO.C,D65*%
X47907380Y-107735714D02*
X46907380Y-107735714D01*
X46907380Y-107973809D01*
X46955000Y-108116666D01*
X47050238Y-108211904D01*
X47145476Y-108259523D01*
X47335952Y-108307142D01*
X47478809Y-108307142D01*
X47669285Y-108259523D01*
X47764523Y-108211904D01*
X47859761Y-108116666D01*
X47907380Y-107973809D01*
X47907380Y-107735714D01*
X46907380Y-109164285D02*
X46907380Y-108973809D01*
X46955000Y-108878571D01*
X47002619Y-108830952D01*
X47145476Y-108735714D01*
X47335952Y-108688095D01*
X47716904Y-108688095D01*
X47812142Y-108735714D01*
X47859761Y-108783333D01*
X47907380Y-108878571D01*
X47907380Y-109069047D01*
X47859761Y-109164285D01*
X47812142Y-109211904D01*
X47716904Y-109259523D01*
X47478809Y-109259523D01*
X47383571Y-109211904D01*
X47335952Y-109164285D01*
X47288333Y-109069047D01*
X47288333Y-108878571D01*
X47335952Y-108783333D01*
X47383571Y-108735714D01*
X47478809Y-108688095D01*
X46907380Y-110164285D02*
X46907380Y-109688095D01*
X47383571Y-109640476D01*
X47335952Y-109688095D01*
X47288333Y-109783333D01*
X47288333Y-110021428D01*
X47335952Y-110116666D01*
X47383571Y-110164285D01*
X47478809Y-110211904D01*
X47716904Y-110211904D01*
X47812142Y-110164285D01*
X47859761Y-110116666D01*
X47907380Y-110021428D01*
X47907380Y-109783333D01*
X47859761Y-109688095D01*
X47812142Y-109640476D01*
%TO.C,D64*%
X285322380Y-73985714D02*
X284322380Y-73985714D01*
X284322380Y-74223809D01*
X284370000Y-74366666D01*
X284465238Y-74461904D01*
X284560476Y-74509523D01*
X284750952Y-74557142D01*
X284893809Y-74557142D01*
X285084285Y-74509523D01*
X285179523Y-74461904D01*
X285274761Y-74366666D01*
X285322380Y-74223809D01*
X285322380Y-73985714D01*
X284322380Y-75414285D02*
X284322380Y-75223809D01*
X284370000Y-75128571D01*
X284417619Y-75080952D01*
X284560476Y-74985714D01*
X284750952Y-74938095D01*
X285131904Y-74938095D01*
X285227142Y-74985714D01*
X285274761Y-75033333D01*
X285322380Y-75128571D01*
X285322380Y-75319047D01*
X285274761Y-75414285D01*
X285227142Y-75461904D01*
X285131904Y-75509523D01*
X284893809Y-75509523D01*
X284798571Y-75461904D01*
X284750952Y-75414285D01*
X284703333Y-75319047D01*
X284703333Y-75128571D01*
X284750952Y-75033333D01*
X284798571Y-74985714D01*
X284893809Y-74938095D01*
X284655714Y-76366666D02*
X285322380Y-76366666D01*
X284274761Y-76128571D02*
X284989047Y-75890476D01*
X284989047Y-76509523D01*
%TO.C,D62*%
X283147380Y-73985714D02*
X282147380Y-73985714D01*
X282147380Y-74223809D01*
X282195000Y-74366666D01*
X282290238Y-74461904D01*
X282385476Y-74509523D01*
X282575952Y-74557142D01*
X282718809Y-74557142D01*
X282909285Y-74509523D01*
X283004523Y-74461904D01*
X283099761Y-74366666D01*
X283147380Y-74223809D01*
X283147380Y-73985714D01*
X282147380Y-75414285D02*
X282147380Y-75223809D01*
X282195000Y-75128571D01*
X282242619Y-75080952D01*
X282385476Y-74985714D01*
X282575952Y-74938095D01*
X282956904Y-74938095D01*
X283052142Y-74985714D01*
X283099761Y-75033333D01*
X283147380Y-75128571D01*
X283147380Y-75319047D01*
X283099761Y-75414285D01*
X283052142Y-75461904D01*
X282956904Y-75509523D01*
X282718809Y-75509523D01*
X282623571Y-75461904D01*
X282575952Y-75414285D01*
X282528333Y-75319047D01*
X282528333Y-75128571D01*
X282575952Y-75033333D01*
X282623571Y-74985714D01*
X282718809Y-74938095D01*
X282242619Y-75890476D02*
X282195000Y-75938095D01*
X282147380Y-76033333D01*
X282147380Y-76271428D01*
X282195000Y-76366666D01*
X282242619Y-76414285D01*
X282337857Y-76461904D01*
X282433095Y-76461904D01*
X282575952Y-76414285D01*
X283147380Y-75842857D01*
X283147380Y-76461904D01*
%TO.C,D61*%
X233397380Y-73985714D02*
X232397380Y-73985714D01*
X232397380Y-74223809D01*
X232445000Y-74366666D01*
X232540238Y-74461904D01*
X232635476Y-74509523D01*
X232825952Y-74557142D01*
X232968809Y-74557142D01*
X233159285Y-74509523D01*
X233254523Y-74461904D01*
X233349761Y-74366666D01*
X233397380Y-74223809D01*
X233397380Y-73985714D01*
X232397380Y-75414285D02*
X232397380Y-75223809D01*
X232445000Y-75128571D01*
X232492619Y-75080952D01*
X232635476Y-74985714D01*
X232825952Y-74938095D01*
X233206904Y-74938095D01*
X233302142Y-74985714D01*
X233349761Y-75033333D01*
X233397380Y-75128571D01*
X233397380Y-75319047D01*
X233349761Y-75414285D01*
X233302142Y-75461904D01*
X233206904Y-75509523D01*
X232968809Y-75509523D01*
X232873571Y-75461904D01*
X232825952Y-75414285D01*
X232778333Y-75319047D01*
X232778333Y-75128571D01*
X232825952Y-75033333D01*
X232873571Y-74985714D01*
X232968809Y-74938095D01*
X233397380Y-76461904D02*
X233397380Y-75890476D01*
X233397380Y-76176190D02*
X232397380Y-76176190D01*
X232540238Y-76080952D01*
X232635476Y-75985714D01*
X232683095Y-75890476D01*
%TO.C,D60*%
X230797380Y-73985714D02*
X229797380Y-73985714D01*
X229797380Y-74223809D01*
X229845000Y-74366666D01*
X229940238Y-74461904D01*
X230035476Y-74509523D01*
X230225952Y-74557142D01*
X230368809Y-74557142D01*
X230559285Y-74509523D01*
X230654523Y-74461904D01*
X230749761Y-74366666D01*
X230797380Y-74223809D01*
X230797380Y-73985714D01*
X229797380Y-75414285D02*
X229797380Y-75223809D01*
X229845000Y-75128571D01*
X229892619Y-75080952D01*
X230035476Y-74985714D01*
X230225952Y-74938095D01*
X230606904Y-74938095D01*
X230702142Y-74985714D01*
X230749761Y-75033333D01*
X230797380Y-75128571D01*
X230797380Y-75319047D01*
X230749761Y-75414285D01*
X230702142Y-75461904D01*
X230606904Y-75509523D01*
X230368809Y-75509523D01*
X230273571Y-75461904D01*
X230225952Y-75414285D01*
X230178333Y-75319047D01*
X230178333Y-75128571D01*
X230225952Y-75033333D01*
X230273571Y-74985714D01*
X230368809Y-74938095D01*
X229797380Y-76128571D02*
X229797380Y-76223809D01*
X229845000Y-76319047D01*
X229892619Y-76366666D01*
X229987857Y-76414285D01*
X230178333Y-76461904D01*
X230416428Y-76461904D01*
X230606904Y-76414285D01*
X230702142Y-76366666D01*
X230749761Y-76319047D01*
X230797380Y-76223809D01*
X230797380Y-76128571D01*
X230749761Y-76033333D01*
X230702142Y-75985714D01*
X230606904Y-75938095D01*
X230416428Y-75890476D01*
X230178333Y-75890476D01*
X229987857Y-75938095D01*
X229892619Y-75985714D01*
X229845000Y-76033333D01*
X229797380Y-76128571D01*
%TO.C,D59*%
X195222380Y-73985714D02*
X194222380Y-73985714D01*
X194222380Y-74223809D01*
X194270000Y-74366666D01*
X194365238Y-74461904D01*
X194460476Y-74509523D01*
X194650952Y-74557142D01*
X194793809Y-74557142D01*
X194984285Y-74509523D01*
X195079523Y-74461904D01*
X195174761Y-74366666D01*
X195222380Y-74223809D01*
X195222380Y-73985714D01*
X194222380Y-75461904D02*
X194222380Y-74985714D01*
X194698571Y-74938095D01*
X194650952Y-74985714D01*
X194603333Y-75080952D01*
X194603333Y-75319047D01*
X194650952Y-75414285D01*
X194698571Y-75461904D01*
X194793809Y-75509523D01*
X195031904Y-75509523D01*
X195127142Y-75461904D01*
X195174761Y-75414285D01*
X195222380Y-75319047D01*
X195222380Y-75080952D01*
X195174761Y-74985714D01*
X195127142Y-74938095D01*
X195222380Y-75985714D02*
X195222380Y-76176190D01*
X195174761Y-76271428D01*
X195127142Y-76319047D01*
X194984285Y-76414285D01*
X194793809Y-76461904D01*
X194412857Y-76461904D01*
X194317619Y-76414285D01*
X194270000Y-76366666D01*
X194222380Y-76271428D01*
X194222380Y-76080952D01*
X194270000Y-75985714D01*
X194317619Y-75938095D01*
X194412857Y-75890476D01*
X194650952Y-75890476D01*
X194746190Y-75938095D01*
X194793809Y-75985714D01*
X194841428Y-76080952D01*
X194841428Y-76271428D01*
X194793809Y-76366666D01*
X194746190Y-76414285D01*
X194650952Y-76461904D01*
%TO.C,D57*%
X157122380Y-73985714D02*
X156122380Y-73985714D01*
X156122380Y-74223809D01*
X156170000Y-74366666D01*
X156265238Y-74461904D01*
X156360476Y-74509523D01*
X156550952Y-74557142D01*
X156693809Y-74557142D01*
X156884285Y-74509523D01*
X156979523Y-74461904D01*
X157074761Y-74366666D01*
X157122380Y-74223809D01*
X157122380Y-73985714D01*
X156122380Y-75461904D02*
X156122380Y-74985714D01*
X156598571Y-74938095D01*
X156550952Y-74985714D01*
X156503333Y-75080952D01*
X156503333Y-75319047D01*
X156550952Y-75414285D01*
X156598571Y-75461904D01*
X156693809Y-75509523D01*
X156931904Y-75509523D01*
X157027142Y-75461904D01*
X157074761Y-75414285D01*
X157122380Y-75319047D01*
X157122380Y-75080952D01*
X157074761Y-74985714D01*
X157027142Y-74938095D01*
X156122380Y-75842857D02*
X156122380Y-76509523D01*
X157122380Y-76080952D01*
%TO.C,D55*%
X118997380Y-73985714D02*
X117997380Y-73985714D01*
X117997380Y-74223809D01*
X118045000Y-74366666D01*
X118140238Y-74461904D01*
X118235476Y-74509523D01*
X118425952Y-74557142D01*
X118568809Y-74557142D01*
X118759285Y-74509523D01*
X118854523Y-74461904D01*
X118949761Y-74366666D01*
X118997380Y-74223809D01*
X118997380Y-73985714D01*
X117997380Y-75461904D02*
X117997380Y-74985714D01*
X118473571Y-74938095D01*
X118425952Y-74985714D01*
X118378333Y-75080952D01*
X118378333Y-75319047D01*
X118425952Y-75414285D01*
X118473571Y-75461904D01*
X118568809Y-75509523D01*
X118806904Y-75509523D01*
X118902142Y-75461904D01*
X118949761Y-75414285D01*
X118997380Y-75319047D01*
X118997380Y-75080952D01*
X118949761Y-74985714D01*
X118902142Y-74938095D01*
X117997380Y-76414285D02*
X117997380Y-75938095D01*
X118473571Y-75890476D01*
X118425952Y-75938095D01*
X118378333Y-76033333D01*
X118378333Y-76271428D01*
X118425952Y-76366666D01*
X118473571Y-76414285D01*
X118568809Y-76461904D01*
X118806904Y-76461904D01*
X118902142Y-76414285D01*
X118949761Y-76366666D01*
X118997380Y-76271428D01*
X118997380Y-76033333D01*
X118949761Y-75938095D01*
X118902142Y-75890476D01*
%TO.C,D54*%
X116522380Y-73985714D02*
X115522380Y-73985714D01*
X115522380Y-74223809D01*
X115570000Y-74366666D01*
X115665238Y-74461904D01*
X115760476Y-74509523D01*
X115950952Y-74557142D01*
X116093809Y-74557142D01*
X116284285Y-74509523D01*
X116379523Y-74461904D01*
X116474761Y-74366666D01*
X116522380Y-74223809D01*
X116522380Y-73985714D01*
X115522380Y-75461904D02*
X115522380Y-74985714D01*
X115998571Y-74938095D01*
X115950952Y-74985714D01*
X115903333Y-75080952D01*
X115903333Y-75319047D01*
X115950952Y-75414285D01*
X115998571Y-75461904D01*
X116093809Y-75509523D01*
X116331904Y-75509523D01*
X116427142Y-75461904D01*
X116474761Y-75414285D01*
X116522380Y-75319047D01*
X116522380Y-75080952D01*
X116474761Y-74985714D01*
X116427142Y-74938095D01*
X115855714Y-76366666D02*
X116522380Y-76366666D01*
X115474761Y-76128571D02*
X116189047Y-75890476D01*
X116189047Y-76509523D01*
%TO.C,D53*%
X80697380Y-73985714D02*
X79697380Y-73985714D01*
X79697380Y-74223809D01*
X79745000Y-74366666D01*
X79840238Y-74461904D01*
X79935476Y-74509523D01*
X80125952Y-74557142D01*
X80268809Y-74557142D01*
X80459285Y-74509523D01*
X80554523Y-74461904D01*
X80649761Y-74366666D01*
X80697380Y-74223809D01*
X80697380Y-73985714D01*
X79697380Y-75461904D02*
X79697380Y-74985714D01*
X80173571Y-74938095D01*
X80125952Y-74985714D01*
X80078333Y-75080952D01*
X80078333Y-75319047D01*
X80125952Y-75414285D01*
X80173571Y-75461904D01*
X80268809Y-75509523D01*
X80506904Y-75509523D01*
X80602142Y-75461904D01*
X80649761Y-75414285D01*
X80697380Y-75319047D01*
X80697380Y-75080952D01*
X80649761Y-74985714D01*
X80602142Y-74938095D01*
X79697380Y-75842857D02*
X79697380Y-76461904D01*
X80078333Y-76128571D01*
X80078333Y-76271428D01*
X80125952Y-76366666D01*
X80173571Y-76414285D01*
X80268809Y-76461904D01*
X80506904Y-76461904D01*
X80602142Y-76414285D01*
X80649761Y-76366666D01*
X80697380Y-76271428D01*
X80697380Y-75985714D01*
X80649761Y-75890476D01*
X80602142Y-75842857D01*
%TO.C,D52*%
X78697380Y-73985714D02*
X77697380Y-73985714D01*
X77697380Y-74223809D01*
X77745000Y-74366666D01*
X77840238Y-74461904D01*
X77935476Y-74509523D01*
X78125952Y-74557142D01*
X78268809Y-74557142D01*
X78459285Y-74509523D01*
X78554523Y-74461904D01*
X78649761Y-74366666D01*
X78697380Y-74223809D01*
X78697380Y-73985714D01*
X77697380Y-75461904D02*
X77697380Y-74985714D01*
X78173571Y-74938095D01*
X78125952Y-74985714D01*
X78078333Y-75080952D01*
X78078333Y-75319047D01*
X78125952Y-75414285D01*
X78173571Y-75461904D01*
X78268809Y-75509523D01*
X78506904Y-75509523D01*
X78602142Y-75461904D01*
X78649761Y-75414285D01*
X78697380Y-75319047D01*
X78697380Y-75080952D01*
X78649761Y-74985714D01*
X78602142Y-74938095D01*
X77792619Y-75890476D02*
X77745000Y-75938095D01*
X77697380Y-76033333D01*
X77697380Y-76271428D01*
X77745000Y-76366666D01*
X77792619Y-76414285D01*
X77887857Y-76461904D01*
X77983095Y-76461904D01*
X78125952Y-76414285D01*
X78697380Y-75842857D01*
X78697380Y-76461904D01*
%TO.C,D49*%
X43392380Y-74010714D02*
X42392380Y-74010714D01*
X42392380Y-74248809D01*
X42440000Y-74391666D01*
X42535238Y-74486904D01*
X42630476Y-74534523D01*
X42820952Y-74582142D01*
X42963809Y-74582142D01*
X43154285Y-74534523D01*
X43249523Y-74486904D01*
X43344761Y-74391666D01*
X43392380Y-74248809D01*
X43392380Y-74010714D01*
X42725714Y-75439285D02*
X43392380Y-75439285D01*
X42344761Y-75201190D02*
X43059047Y-74963095D01*
X43059047Y-75582142D01*
X43392380Y-76010714D02*
X43392380Y-76201190D01*
X43344761Y-76296428D01*
X43297142Y-76344047D01*
X43154285Y-76439285D01*
X42963809Y-76486904D01*
X42582857Y-76486904D01*
X42487619Y-76439285D01*
X42440000Y-76391666D01*
X42392380Y-76296428D01*
X42392380Y-76105952D01*
X42440000Y-76010714D01*
X42487619Y-75963095D01*
X42582857Y-75915476D01*
X42820952Y-75915476D01*
X42916190Y-75963095D01*
X42963809Y-76010714D01*
X43011428Y-76105952D01*
X43011428Y-76296428D01*
X42963809Y-76391666D01*
X42916190Y-76439285D01*
X42820952Y-76486904D01*
%TO.C,D47*%
X295252380Y-65968714D02*
X294252380Y-65968714D01*
X294252380Y-66206809D01*
X294300000Y-66349666D01*
X294395238Y-66444904D01*
X294490476Y-66492523D01*
X294680952Y-66540142D01*
X294823809Y-66540142D01*
X295014285Y-66492523D01*
X295109523Y-66444904D01*
X295204761Y-66349666D01*
X295252380Y-66206809D01*
X295252380Y-65968714D01*
X294585714Y-67397285D02*
X295252380Y-67397285D01*
X294204761Y-67159190D02*
X294919047Y-66921095D01*
X294919047Y-67540142D01*
X294252380Y-67825857D02*
X294252380Y-68492523D01*
X295252380Y-68063952D01*
%TO.C,D46*%
X262132380Y-70160714D02*
X261132380Y-70160714D01*
X261132380Y-70398809D01*
X261180000Y-70541666D01*
X261275238Y-70636904D01*
X261370476Y-70684523D01*
X261560952Y-70732142D01*
X261703809Y-70732142D01*
X261894285Y-70684523D01*
X261989523Y-70636904D01*
X262084761Y-70541666D01*
X262132380Y-70398809D01*
X262132380Y-70160714D01*
X261465714Y-71589285D02*
X262132380Y-71589285D01*
X261084761Y-71351190D02*
X261799047Y-71113095D01*
X261799047Y-71732142D01*
X261132380Y-72541666D02*
X261132380Y-72351190D01*
X261180000Y-72255952D01*
X261227619Y-72208333D01*
X261370476Y-72113095D01*
X261560952Y-72065476D01*
X261941904Y-72065476D01*
X262037142Y-72113095D01*
X262084761Y-72160714D01*
X262132380Y-72255952D01*
X262132380Y-72446428D01*
X262084761Y-72541666D01*
X262037142Y-72589285D01*
X261941904Y-72636904D01*
X261703809Y-72636904D01*
X261608571Y-72589285D01*
X261560952Y-72541666D01*
X261513333Y-72446428D01*
X261513333Y-72255952D01*
X261560952Y-72160714D01*
X261608571Y-72113095D01*
X261703809Y-72065476D01*
%TO.C,D45*%
X245732380Y-70160714D02*
X244732380Y-70160714D01*
X244732380Y-70398809D01*
X244780000Y-70541666D01*
X244875238Y-70636904D01*
X244970476Y-70684523D01*
X245160952Y-70732142D01*
X245303809Y-70732142D01*
X245494285Y-70684523D01*
X245589523Y-70636904D01*
X245684761Y-70541666D01*
X245732380Y-70398809D01*
X245732380Y-70160714D01*
X245065714Y-71589285D02*
X245732380Y-71589285D01*
X244684761Y-71351190D02*
X245399047Y-71113095D01*
X245399047Y-71732142D01*
X244732380Y-72589285D02*
X244732380Y-72113095D01*
X245208571Y-72065476D01*
X245160952Y-72113095D01*
X245113333Y-72208333D01*
X245113333Y-72446428D01*
X245160952Y-72541666D01*
X245208571Y-72589285D01*
X245303809Y-72636904D01*
X245541904Y-72636904D01*
X245637142Y-72589285D01*
X245684761Y-72541666D01*
X245732380Y-72446428D01*
X245732380Y-72208333D01*
X245684761Y-72113095D01*
X245637142Y-72065476D01*
%TO.C,D44*%
X243182380Y-70160714D02*
X242182380Y-70160714D01*
X242182380Y-70398809D01*
X242230000Y-70541666D01*
X242325238Y-70636904D01*
X242420476Y-70684523D01*
X242610952Y-70732142D01*
X242753809Y-70732142D01*
X242944285Y-70684523D01*
X243039523Y-70636904D01*
X243134761Y-70541666D01*
X243182380Y-70398809D01*
X243182380Y-70160714D01*
X242515714Y-71589285D02*
X243182380Y-71589285D01*
X242134761Y-71351190D02*
X242849047Y-71113095D01*
X242849047Y-71732142D01*
X242515714Y-72541666D02*
X243182380Y-72541666D01*
X242134761Y-72303571D02*
X242849047Y-72065476D01*
X242849047Y-72684523D01*
%TO.C,D43*%
X207657380Y-70160714D02*
X206657380Y-70160714D01*
X206657380Y-70398809D01*
X206705000Y-70541666D01*
X206800238Y-70636904D01*
X206895476Y-70684523D01*
X207085952Y-70732142D01*
X207228809Y-70732142D01*
X207419285Y-70684523D01*
X207514523Y-70636904D01*
X207609761Y-70541666D01*
X207657380Y-70398809D01*
X207657380Y-70160714D01*
X206990714Y-71589285D02*
X207657380Y-71589285D01*
X206609761Y-71351190D02*
X207324047Y-71113095D01*
X207324047Y-71732142D01*
X206657380Y-72017857D02*
X206657380Y-72636904D01*
X207038333Y-72303571D01*
X207038333Y-72446428D01*
X207085952Y-72541666D01*
X207133571Y-72589285D01*
X207228809Y-72636904D01*
X207466904Y-72636904D01*
X207562142Y-72589285D01*
X207609761Y-72541666D01*
X207657380Y-72446428D01*
X207657380Y-72160714D01*
X207609761Y-72065476D01*
X207562142Y-72017857D01*
%TO.C,D42*%
X205057380Y-70160714D02*
X204057380Y-70160714D01*
X204057380Y-70398809D01*
X204105000Y-70541666D01*
X204200238Y-70636904D01*
X204295476Y-70684523D01*
X204485952Y-70732142D01*
X204628809Y-70732142D01*
X204819285Y-70684523D01*
X204914523Y-70636904D01*
X205009761Y-70541666D01*
X205057380Y-70398809D01*
X205057380Y-70160714D01*
X204390714Y-71589285D02*
X205057380Y-71589285D01*
X204009761Y-71351190D02*
X204724047Y-71113095D01*
X204724047Y-71732142D01*
X204152619Y-72065476D02*
X204105000Y-72113095D01*
X204057380Y-72208333D01*
X204057380Y-72446428D01*
X204105000Y-72541666D01*
X204152619Y-72589285D01*
X204247857Y-72636904D01*
X204343095Y-72636904D01*
X204485952Y-72589285D01*
X205057380Y-72017857D01*
X205057380Y-72636904D01*
%TO.C,D41*%
X169532380Y-70160714D02*
X168532380Y-70160714D01*
X168532380Y-70398809D01*
X168580000Y-70541666D01*
X168675238Y-70636904D01*
X168770476Y-70684523D01*
X168960952Y-70732142D01*
X169103809Y-70732142D01*
X169294285Y-70684523D01*
X169389523Y-70636904D01*
X169484761Y-70541666D01*
X169532380Y-70398809D01*
X169532380Y-70160714D01*
X168865714Y-71589285D02*
X169532380Y-71589285D01*
X168484761Y-71351190D02*
X169199047Y-71113095D01*
X169199047Y-71732142D01*
X169532380Y-72636904D02*
X169532380Y-72065476D01*
X169532380Y-72351190D02*
X168532380Y-72351190D01*
X168675238Y-72255952D01*
X168770476Y-72160714D01*
X168818095Y-72065476D01*
%TO.C,D40*%
X167032380Y-70160714D02*
X166032380Y-70160714D01*
X166032380Y-70398809D01*
X166080000Y-70541666D01*
X166175238Y-70636904D01*
X166270476Y-70684523D01*
X166460952Y-70732142D01*
X166603809Y-70732142D01*
X166794285Y-70684523D01*
X166889523Y-70636904D01*
X166984761Y-70541666D01*
X167032380Y-70398809D01*
X167032380Y-70160714D01*
X166365714Y-71589285D02*
X167032380Y-71589285D01*
X165984761Y-71351190D02*
X166699047Y-71113095D01*
X166699047Y-71732142D01*
X166032380Y-72303571D02*
X166032380Y-72398809D01*
X166080000Y-72494047D01*
X166127619Y-72541666D01*
X166222857Y-72589285D01*
X166413333Y-72636904D01*
X166651428Y-72636904D01*
X166841904Y-72589285D01*
X166937142Y-72541666D01*
X166984761Y-72494047D01*
X167032380Y-72398809D01*
X167032380Y-72303571D01*
X166984761Y-72208333D01*
X166937142Y-72160714D01*
X166841904Y-72113095D01*
X166651428Y-72065476D01*
X166413333Y-72065476D01*
X166222857Y-72113095D01*
X166127619Y-72160714D01*
X166080000Y-72208333D01*
X166032380Y-72303571D01*
%TO.C,D39*%
X131407380Y-70135714D02*
X130407380Y-70135714D01*
X130407380Y-70373809D01*
X130455000Y-70516666D01*
X130550238Y-70611904D01*
X130645476Y-70659523D01*
X130835952Y-70707142D01*
X130978809Y-70707142D01*
X131169285Y-70659523D01*
X131264523Y-70611904D01*
X131359761Y-70516666D01*
X131407380Y-70373809D01*
X131407380Y-70135714D01*
X130407380Y-71040476D02*
X130407380Y-71659523D01*
X130788333Y-71326190D01*
X130788333Y-71469047D01*
X130835952Y-71564285D01*
X130883571Y-71611904D01*
X130978809Y-71659523D01*
X131216904Y-71659523D01*
X131312142Y-71611904D01*
X131359761Y-71564285D01*
X131407380Y-71469047D01*
X131407380Y-71183333D01*
X131359761Y-71088095D01*
X131312142Y-71040476D01*
X131407380Y-72135714D02*
X131407380Y-72326190D01*
X131359761Y-72421428D01*
X131312142Y-72469047D01*
X131169285Y-72564285D01*
X130978809Y-72611904D01*
X130597857Y-72611904D01*
X130502619Y-72564285D01*
X130455000Y-72516666D01*
X130407380Y-72421428D01*
X130407380Y-72230952D01*
X130455000Y-72135714D01*
X130502619Y-72088095D01*
X130597857Y-72040476D01*
X130835952Y-72040476D01*
X130931190Y-72088095D01*
X130978809Y-72135714D01*
X131026428Y-72230952D01*
X131026428Y-72421428D01*
X130978809Y-72516666D01*
X130931190Y-72564285D01*
X130835952Y-72611904D01*
%TO.C,D38*%
X112407380Y-70135714D02*
X111407380Y-70135714D01*
X111407380Y-70373809D01*
X111455000Y-70516666D01*
X111550238Y-70611904D01*
X111645476Y-70659523D01*
X111835952Y-70707142D01*
X111978809Y-70707142D01*
X112169285Y-70659523D01*
X112264523Y-70611904D01*
X112359761Y-70516666D01*
X112407380Y-70373809D01*
X112407380Y-70135714D01*
X111407380Y-71040476D02*
X111407380Y-71659523D01*
X111788333Y-71326190D01*
X111788333Y-71469047D01*
X111835952Y-71564285D01*
X111883571Y-71611904D01*
X111978809Y-71659523D01*
X112216904Y-71659523D01*
X112312142Y-71611904D01*
X112359761Y-71564285D01*
X112407380Y-71469047D01*
X112407380Y-71183333D01*
X112359761Y-71088095D01*
X112312142Y-71040476D01*
X111835952Y-72230952D02*
X111788333Y-72135714D01*
X111740714Y-72088095D01*
X111645476Y-72040476D01*
X111597857Y-72040476D01*
X111502619Y-72088095D01*
X111455000Y-72135714D01*
X111407380Y-72230952D01*
X111407380Y-72421428D01*
X111455000Y-72516666D01*
X111502619Y-72564285D01*
X111597857Y-72611904D01*
X111645476Y-72611904D01*
X111740714Y-72564285D01*
X111788333Y-72516666D01*
X111835952Y-72421428D01*
X111835952Y-72230952D01*
X111883571Y-72135714D01*
X111931190Y-72088095D01*
X112026428Y-72040476D01*
X112216904Y-72040476D01*
X112312142Y-72088095D01*
X112359761Y-72135714D01*
X112407380Y-72230952D01*
X112407380Y-72421428D01*
X112359761Y-72516666D01*
X112312142Y-72564285D01*
X112216904Y-72611904D01*
X112026428Y-72611904D01*
X111931190Y-72564285D01*
X111883571Y-72516666D01*
X111835952Y-72421428D01*
%TO.C,D37*%
X109832380Y-70135714D02*
X108832380Y-70135714D01*
X108832380Y-70373809D01*
X108880000Y-70516666D01*
X108975238Y-70611904D01*
X109070476Y-70659523D01*
X109260952Y-70707142D01*
X109403809Y-70707142D01*
X109594285Y-70659523D01*
X109689523Y-70611904D01*
X109784761Y-70516666D01*
X109832380Y-70373809D01*
X109832380Y-70135714D01*
X108832380Y-71040476D02*
X108832380Y-71659523D01*
X109213333Y-71326190D01*
X109213333Y-71469047D01*
X109260952Y-71564285D01*
X109308571Y-71611904D01*
X109403809Y-71659523D01*
X109641904Y-71659523D01*
X109737142Y-71611904D01*
X109784761Y-71564285D01*
X109832380Y-71469047D01*
X109832380Y-71183333D01*
X109784761Y-71088095D01*
X109737142Y-71040476D01*
X108832380Y-71992857D02*
X108832380Y-72659523D01*
X109832380Y-72230952D01*
%TO.C,D36*%
X74257380Y-70135714D02*
X73257380Y-70135714D01*
X73257380Y-70373809D01*
X73305000Y-70516666D01*
X73400238Y-70611904D01*
X73495476Y-70659523D01*
X73685952Y-70707142D01*
X73828809Y-70707142D01*
X74019285Y-70659523D01*
X74114523Y-70611904D01*
X74209761Y-70516666D01*
X74257380Y-70373809D01*
X74257380Y-70135714D01*
X73257380Y-71040476D02*
X73257380Y-71659523D01*
X73638333Y-71326190D01*
X73638333Y-71469047D01*
X73685952Y-71564285D01*
X73733571Y-71611904D01*
X73828809Y-71659523D01*
X74066904Y-71659523D01*
X74162142Y-71611904D01*
X74209761Y-71564285D01*
X74257380Y-71469047D01*
X74257380Y-71183333D01*
X74209761Y-71088095D01*
X74162142Y-71040476D01*
X73257380Y-72516666D02*
X73257380Y-72326190D01*
X73305000Y-72230952D01*
X73352619Y-72183333D01*
X73495476Y-72088095D01*
X73685952Y-72040476D01*
X74066904Y-72040476D01*
X74162142Y-72088095D01*
X74209761Y-72135714D01*
X74257380Y-72230952D01*
X74257380Y-72421428D01*
X74209761Y-72516666D01*
X74162142Y-72564285D01*
X74066904Y-72611904D01*
X73828809Y-72611904D01*
X73733571Y-72564285D01*
X73685952Y-72516666D01*
X73638333Y-72421428D01*
X73638333Y-72230952D01*
X73685952Y-72135714D01*
X73733571Y-72088095D01*
X73828809Y-72040476D01*
%TO.C,D35*%
X71882380Y-70135714D02*
X70882380Y-70135714D01*
X70882380Y-70373809D01*
X70930000Y-70516666D01*
X71025238Y-70611904D01*
X71120476Y-70659523D01*
X71310952Y-70707142D01*
X71453809Y-70707142D01*
X71644285Y-70659523D01*
X71739523Y-70611904D01*
X71834761Y-70516666D01*
X71882380Y-70373809D01*
X71882380Y-70135714D01*
X70882380Y-71040476D02*
X70882380Y-71659523D01*
X71263333Y-71326190D01*
X71263333Y-71469047D01*
X71310952Y-71564285D01*
X71358571Y-71611904D01*
X71453809Y-71659523D01*
X71691904Y-71659523D01*
X71787142Y-71611904D01*
X71834761Y-71564285D01*
X71882380Y-71469047D01*
X71882380Y-71183333D01*
X71834761Y-71088095D01*
X71787142Y-71040476D01*
X70882380Y-72564285D02*
X70882380Y-72088095D01*
X71358571Y-72040476D01*
X71310952Y-72088095D01*
X71263333Y-72183333D01*
X71263333Y-72421428D01*
X71310952Y-72516666D01*
X71358571Y-72564285D01*
X71453809Y-72611904D01*
X71691904Y-72611904D01*
X71787142Y-72564285D01*
X71834761Y-72516666D01*
X71882380Y-72421428D01*
X71882380Y-72183333D01*
X71834761Y-72088095D01*
X71787142Y-72040476D01*
%TO.C,D33*%
X39907380Y-70235714D02*
X38907380Y-70235714D01*
X38907380Y-70473809D01*
X38955000Y-70616666D01*
X39050238Y-70711904D01*
X39145476Y-70759523D01*
X39335952Y-70807142D01*
X39478809Y-70807142D01*
X39669285Y-70759523D01*
X39764523Y-70711904D01*
X39859761Y-70616666D01*
X39907380Y-70473809D01*
X39907380Y-70235714D01*
X38907380Y-71140476D02*
X38907380Y-71759523D01*
X39288333Y-71426190D01*
X39288333Y-71569047D01*
X39335952Y-71664285D01*
X39383571Y-71711904D01*
X39478809Y-71759523D01*
X39716904Y-71759523D01*
X39812142Y-71711904D01*
X39859761Y-71664285D01*
X39907380Y-71569047D01*
X39907380Y-71283333D01*
X39859761Y-71188095D01*
X39812142Y-71140476D01*
X38907380Y-72092857D02*
X38907380Y-72711904D01*
X39288333Y-72378571D01*
X39288333Y-72521428D01*
X39335952Y-72616666D01*
X39383571Y-72664285D01*
X39478809Y-72711904D01*
X39716904Y-72711904D01*
X39812142Y-72664285D01*
X39859761Y-72616666D01*
X39907380Y-72521428D01*
X39907380Y-72235714D01*
X39859761Y-72140476D01*
X39812142Y-72092857D01*
%TO.C,D32*%
X286614285Y-39482380D02*
X286614285Y-38482380D01*
X286376190Y-38482380D01*
X286233333Y-38530000D01*
X286138095Y-38625238D01*
X286090476Y-38720476D01*
X286042857Y-38910952D01*
X286042857Y-39053809D01*
X286090476Y-39244285D01*
X286138095Y-39339523D01*
X286233333Y-39434761D01*
X286376190Y-39482380D01*
X286614285Y-39482380D01*
X285709523Y-38482380D02*
X285090476Y-38482380D01*
X285423809Y-38863333D01*
X285280952Y-38863333D01*
X285185714Y-38910952D01*
X285138095Y-38958571D01*
X285090476Y-39053809D01*
X285090476Y-39291904D01*
X285138095Y-39387142D01*
X285185714Y-39434761D01*
X285280952Y-39482380D01*
X285566666Y-39482380D01*
X285661904Y-39434761D01*
X285709523Y-39387142D01*
X284709523Y-38577619D02*
X284661904Y-38530000D01*
X284566666Y-38482380D01*
X284328571Y-38482380D01*
X284233333Y-38530000D01*
X284185714Y-38577619D01*
X284138095Y-38672857D01*
X284138095Y-38768095D01*
X284185714Y-38910952D01*
X284757142Y-39482380D01*
X284138095Y-39482380D01*
%TO.C,D31*%
X257497380Y-35865714D02*
X256497380Y-35865714D01*
X256497380Y-36103809D01*
X256545000Y-36246666D01*
X256640238Y-36341904D01*
X256735476Y-36389523D01*
X256925952Y-36437142D01*
X257068809Y-36437142D01*
X257259285Y-36389523D01*
X257354523Y-36341904D01*
X257449761Y-36246666D01*
X257497380Y-36103809D01*
X257497380Y-35865714D01*
X256497380Y-36770476D02*
X256497380Y-37389523D01*
X256878333Y-37056190D01*
X256878333Y-37199047D01*
X256925952Y-37294285D01*
X256973571Y-37341904D01*
X257068809Y-37389523D01*
X257306904Y-37389523D01*
X257402142Y-37341904D01*
X257449761Y-37294285D01*
X257497380Y-37199047D01*
X257497380Y-36913333D01*
X257449761Y-36818095D01*
X257402142Y-36770476D01*
X257497380Y-38341904D02*
X257497380Y-37770476D01*
X257497380Y-38056190D02*
X256497380Y-38056190D01*
X256640238Y-37960952D01*
X256735476Y-37865714D01*
X256783095Y-37770476D01*
%TO.C,D29*%
X219447380Y-35885714D02*
X218447380Y-35885714D01*
X218447380Y-36123809D01*
X218495000Y-36266666D01*
X218590238Y-36361904D01*
X218685476Y-36409523D01*
X218875952Y-36457142D01*
X219018809Y-36457142D01*
X219209285Y-36409523D01*
X219304523Y-36361904D01*
X219399761Y-36266666D01*
X219447380Y-36123809D01*
X219447380Y-35885714D01*
X218542619Y-36838095D02*
X218495000Y-36885714D01*
X218447380Y-36980952D01*
X218447380Y-37219047D01*
X218495000Y-37314285D01*
X218542619Y-37361904D01*
X218637857Y-37409523D01*
X218733095Y-37409523D01*
X218875952Y-37361904D01*
X219447380Y-36790476D01*
X219447380Y-37409523D01*
X219447380Y-37885714D02*
X219447380Y-38076190D01*
X219399761Y-38171428D01*
X219352142Y-38219047D01*
X219209285Y-38314285D01*
X219018809Y-38361904D01*
X218637857Y-38361904D01*
X218542619Y-38314285D01*
X218495000Y-38266666D01*
X218447380Y-38171428D01*
X218447380Y-37980952D01*
X218495000Y-37885714D01*
X218542619Y-37838095D01*
X218637857Y-37790476D01*
X218875952Y-37790476D01*
X218971190Y-37838095D01*
X219018809Y-37885714D01*
X219066428Y-37980952D01*
X219066428Y-38171428D01*
X219018809Y-38266666D01*
X218971190Y-38314285D01*
X218875952Y-38361904D01*
%TO.C,D27*%
X181197380Y-35910714D02*
X180197380Y-35910714D01*
X180197380Y-36148809D01*
X180245000Y-36291666D01*
X180340238Y-36386904D01*
X180435476Y-36434523D01*
X180625952Y-36482142D01*
X180768809Y-36482142D01*
X180959285Y-36434523D01*
X181054523Y-36386904D01*
X181149761Y-36291666D01*
X181197380Y-36148809D01*
X181197380Y-35910714D01*
X180292619Y-36863095D02*
X180245000Y-36910714D01*
X180197380Y-37005952D01*
X180197380Y-37244047D01*
X180245000Y-37339285D01*
X180292619Y-37386904D01*
X180387857Y-37434523D01*
X180483095Y-37434523D01*
X180625952Y-37386904D01*
X181197380Y-36815476D01*
X181197380Y-37434523D01*
X180197380Y-37767857D02*
X180197380Y-38434523D01*
X181197380Y-38005952D01*
%TO.C,D26*%
X178422380Y-35885714D02*
X177422380Y-35885714D01*
X177422380Y-36123809D01*
X177470000Y-36266666D01*
X177565238Y-36361904D01*
X177660476Y-36409523D01*
X177850952Y-36457142D01*
X177993809Y-36457142D01*
X178184285Y-36409523D01*
X178279523Y-36361904D01*
X178374761Y-36266666D01*
X178422380Y-36123809D01*
X178422380Y-35885714D01*
X177517619Y-36838095D02*
X177470000Y-36885714D01*
X177422380Y-36980952D01*
X177422380Y-37219047D01*
X177470000Y-37314285D01*
X177517619Y-37361904D01*
X177612857Y-37409523D01*
X177708095Y-37409523D01*
X177850952Y-37361904D01*
X178422380Y-36790476D01*
X178422380Y-37409523D01*
X177422380Y-38266666D02*
X177422380Y-38076190D01*
X177470000Y-37980952D01*
X177517619Y-37933333D01*
X177660476Y-37838095D01*
X177850952Y-37790476D01*
X178231904Y-37790476D01*
X178327142Y-37838095D01*
X178374761Y-37885714D01*
X178422380Y-37980952D01*
X178422380Y-38171428D01*
X178374761Y-38266666D01*
X178327142Y-38314285D01*
X178231904Y-38361904D01*
X177993809Y-38361904D01*
X177898571Y-38314285D01*
X177850952Y-38266666D01*
X177803333Y-38171428D01*
X177803333Y-37980952D01*
X177850952Y-37885714D01*
X177898571Y-37838095D01*
X177993809Y-37790476D01*
%TO.C,D25*%
X143072380Y-35885714D02*
X142072380Y-35885714D01*
X142072380Y-36123809D01*
X142120000Y-36266666D01*
X142215238Y-36361904D01*
X142310476Y-36409523D01*
X142500952Y-36457142D01*
X142643809Y-36457142D01*
X142834285Y-36409523D01*
X142929523Y-36361904D01*
X143024761Y-36266666D01*
X143072380Y-36123809D01*
X143072380Y-35885714D01*
X142167619Y-36838095D02*
X142120000Y-36885714D01*
X142072380Y-36980952D01*
X142072380Y-37219047D01*
X142120000Y-37314285D01*
X142167619Y-37361904D01*
X142262857Y-37409523D01*
X142358095Y-37409523D01*
X142500952Y-37361904D01*
X143072380Y-36790476D01*
X143072380Y-37409523D01*
X142072380Y-38314285D02*
X142072380Y-37838095D01*
X142548571Y-37790476D01*
X142500952Y-37838095D01*
X142453333Y-37933333D01*
X142453333Y-38171428D01*
X142500952Y-38266666D01*
X142548571Y-38314285D01*
X142643809Y-38361904D01*
X142881904Y-38361904D01*
X142977142Y-38314285D01*
X143024761Y-38266666D01*
X143072380Y-38171428D01*
X143072380Y-37933333D01*
X143024761Y-37838095D01*
X142977142Y-37790476D01*
%TO.C,D24*%
X140297380Y-35885714D02*
X139297380Y-35885714D01*
X139297380Y-36123809D01*
X139345000Y-36266666D01*
X139440238Y-36361904D01*
X139535476Y-36409523D01*
X139725952Y-36457142D01*
X139868809Y-36457142D01*
X140059285Y-36409523D01*
X140154523Y-36361904D01*
X140249761Y-36266666D01*
X140297380Y-36123809D01*
X140297380Y-35885714D01*
X139392619Y-36838095D02*
X139345000Y-36885714D01*
X139297380Y-36980952D01*
X139297380Y-37219047D01*
X139345000Y-37314285D01*
X139392619Y-37361904D01*
X139487857Y-37409523D01*
X139583095Y-37409523D01*
X139725952Y-37361904D01*
X140297380Y-36790476D01*
X140297380Y-37409523D01*
X139630714Y-38266666D02*
X140297380Y-38266666D01*
X139249761Y-38028571D02*
X139964047Y-37790476D01*
X139964047Y-38409523D01*
%TO.C,D23*%
X105047380Y-35865714D02*
X104047380Y-35865714D01*
X104047380Y-36103809D01*
X104095000Y-36246666D01*
X104190238Y-36341904D01*
X104285476Y-36389523D01*
X104475952Y-36437142D01*
X104618809Y-36437142D01*
X104809285Y-36389523D01*
X104904523Y-36341904D01*
X104999761Y-36246666D01*
X105047380Y-36103809D01*
X105047380Y-35865714D01*
X104142619Y-36818095D02*
X104095000Y-36865714D01*
X104047380Y-36960952D01*
X104047380Y-37199047D01*
X104095000Y-37294285D01*
X104142619Y-37341904D01*
X104237857Y-37389523D01*
X104333095Y-37389523D01*
X104475952Y-37341904D01*
X105047380Y-36770476D01*
X105047380Y-37389523D01*
X104047380Y-37722857D02*
X104047380Y-38341904D01*
X104428333Y-38008571D01*
X104428333Y-38151428D01*
X104475952Y-38246666D01*
X104523571Y-38294285D01*
X104618809Y-38341904D01*
X104856904Y-38341904D01*
X104952142Y-38294285D01*
X104999761Y-38246666D01*
X105047380Y-38151428D01*
X105047380Y-37865714D01*
X104999761Y-37770476D01*
X104952142Y-37722857D01*
%TO.C,D22*%
X102297380Y-35860714D02*
X101297380Y-35860714D01*
X101297380Y-36098809D01*
X101345000Y-36241666D01*
X101440238Y-36336904D01*
X101535476Y-36384523D01*
X101725952Y-36432142D01*
X101868809Y-36432142D01*
X102059285Y-36384523D01*
X102154523Y-36336904D01*
X102249761Y-36241666D01*
X102297380Y-36098809D01*
X102297380Y-35860714D01*
X101392619Y-36813095D02*
X101345000Y-36860714D01*
X101297380Y-36955952D01*
X101297380Y-37194047D01*
X101345000Y-37289285D01*
X101392619Y-37336904D01*
X101487857Y-37384523D01*
X101583095Y-37384523D01*
X101725952Y-37336904D01*
X102297380Y-36765476D01*
X102297380Y-37384523D01*
X101392619Y-37765476D02*
X101345000Y-37813095D01*
X101297380Y-37908333D01*
X101297380Y-38146428D01*
X101345000Y-38241666D01*
X101392619Y-38289285D01*
X101487857Y-38336904D01*
X101583095Y-38336904D01*
X101725952Y-38289285D01*
X102297380Y-37717857D01*
X102297380Y-38336904D01*
%TO.C,D21*%
X66897380Y-35885714D02*
X65897380Y-35885714D01*
X65897380Y-36123809D01*
X65945000Y-36266666D01*
X66040238Y-36361904D01*
X66135476Y-36409523D01*
X66325952Y-36457142D01*
X66468809Y-36457142D01*
X66659285Y-36409523D01*
X66754523Y-36361904D01*
X66849761Y-36266666D01*
X66897380Y-36123809D01*
X66897380Y-35885714D01*
X65992619Y-36838095D02*
X65945000Y-36885714D01*
X65897380Y-36980952D01*
X65897380Y-37219047D01*
X65945000Y-37314285D01*
X65992619Y-37361904D01*
X66087857Y-37409523D01*
X66183095Y-37409523D01*
X66325952Y-37361904D01*
X66897380Y-36790476D01*
X66897380Y-37409523D01*
X66897380Y-38361904D02*
X66897380Y-37790476D01*
X66897380Y-38076190D02*
X65897380Y-38076190D01*
X66040238Y-37980952D01*
X66135476Y-37885714D01*
X66183095Y-37790476D01*
%TO.C,D20*%
X64172380Y-35860714D02*
X63172380Y-35860714D01*
X63172380Y-36098809D01*
X63220000Y-36241666D01*
X63315238Y-36336904D01*
X63410476Y-36384523D01*
X63600952Y-36432142D01*
X63743809Y-36432142D01*
X63934285Y-36384523D01*
X64029523Y-36336904D01*
X64124761Y-36241666D01*
X64172380Y-36098809D01*
X64172380Y-35860714D01*
X63267619Y-36813095D02*
X63220000Y-36860714D01*
X63172380Y-36955952D01*
X63172380Y-37194047D01*
X63220000Y-37289285D01*
X63267619Y-37336904D01*
X63362857Y-37384523D01*
X63458095Y-37384523D01*
X63600952Y-37336904D01*
X64172380Y-36765476D01*
X64172380Y-37384523D01*
X63172380Y-38003571D02*
X63172380Y-38098809D01*
X63220000Y-38194047D01*
X63267619Y-38241666D01*
X63362857Y-38289285D01*
X63553333Y-38336904D01*
X63791428Y-38336904D01*
X63981904Y-38289285D01*
X64077142Y-38241666D01*
X64124761Y-38194047D01*
X64172380Y-38098809D01*
X64172380Y-38003571D01*
X64124761Y-37908333D01*
X64077142Y-37860714D01*
X63981904Y-37813095D01*
X63791428Y-37765476D01*
X63553333Y-37765476D01*
X63362857Y-37813095D01*
X63267619Y-37860714D01*
X63220000Y-37908333D01*
X63172380Y-38003571D01*
%TO.C,D19*%
X31512380Y-37875714D02*
X30512380Y-37875714D01*
X30512380Y-38113809D01*
X30560000Y-38256666D01*
X30655238Y-38351904D01*
X30750476Y-38399523D01*
X30940952Y-38447142D01*
X31083809Y-38447142D01*
X31274285Y-38399523D01*
X31369523Y-38351904D01*
X31464761Y-38256666D01*
X31512380Y-38113809D01*
X31512380Y-37875714D01*
X31512380Y-39399523D02*
X31512380Y-38828095D01*
X31512380Y-39113809D02*
X30512380Y-39113809D01*
X30655238Y-39018571D01*
X30750476Y-38923333D01*
X30798095Y-38828095D01*
X31512380Y-39875714D02*
X31512380Y-40066190D01*
X31464761Y-40161428D01*
X31417142Y-40209047D01*
X31274285Y-40304285D01*
X31083809Y-40351904D01*
X30702857Y-40351904D01*
X30607619Y-40304285D01*
X30560000Y-40256666D01*
X30512380Y-40161428D01*
X30512380Y-39970952D01*
X30560000Y-39875714D01*
X30607619Y-39828095D01*
X30702857Y-39780476D01*
X30940952Y-39780476D01*
X31036190Y-39828095D01*
X31083809Y-39875714D01*
X31131428Y-39970952D01*
X31131428Y-40161428D01*
X31083809Y-40256666D01*
X31036190Y-40304285D01*
X30940952Y-40351904D01*
%TO.C,D18*%
X288732380Y-32440714D02*
X287732380Y-32440714D01*
X287732380Y-32678809D01*
X287780000Y-32821666D01*
X287875238Y-32916904D01*
X287970476Y-32964523D01*
X288160952Y-33012142D01*
X288303809Y-33012142D01*
X288494285Y-32964523D01*
X288589523Y-32916904D01*
X288684761Y-32821666D01*
X288732380Y-32678809D01*
X288732380Y-32440714D01*
X288732380Y-33964523D02*
X288732380Y-33393095D01*
X288732380Y-33678809D02*
X287732380Y-33678809D01*
X287875238Y-33583571D01*
X287970476Y-33488333D01*
X288018095Y-33393095D01*
X288160952Y-34535952D02*
X288113333Y-34440714D01*
X288065714Y-34393095D01*
X287970476Y-34345476D01*
X287922857Y-34345476D01*
X287827619Y-34393095D01*
X287780000Y-34440714D01*
X287732380Y-34535952D01*
X287732380Y-34726428D01*
X287780000Y-34821666D01*
X287827619Y-34869285D01*
X287922857Y-34916904D01*
X287970476Y-34916904D01*
X288065714Y-34869285D01*
X288113333Y-34821666D01*
X288160952Y-34726428D01*
X288160952Y-34535952D01*
X288208571Y-34440714D01*
X288256190Y-34393095D01*
X288351428Y-34345476D01*
X288541904Y-34345476D01*
X288637142Y-34393095D01*
X288684761Y-34440714D01*
X288732380Y-34535952D01*
X288732380Y-34726428D01*
X288684761Y-34821666D01*
X288637142Y-34869285D01*
X288541904Y-34916904D01*
X288351428Y-34916904D01*
X288256190Y-34869285D01*
X288208571Y-34821666D01*
X288160952Y-34726428D01*
%TO.C,D16*%
X286082380Y-32435714D02*
X285082380Y-32435714D01*
X285082380Y-32673809D01*
X285130000Y-32816666D01*
X285225238Y-32911904D01*
X285320476Y-32959523D01*
X285510952Y-33007142D01*
X285653809Y-33007142D01*
X285844285Y-32959523D01*
X285939523Y-32911904D01*
X286034761Y-32816666D01*
X286082380Y-32673809D01*
X286082380Y-32435714D01*
X286082380Y-33959523D02*
X286082380Y-33388095D01*
X286082380Y-33673809D02*
X285082380Y-33673809D01*
X285225238Y-33578571D01*
X285320476Y-33483333D01*
X285368095Y-33388095D01*
X285082380Y-34816666D02*
X285082380Y-34626190D01*
X285130000Y-34530952D01*
X285177619Y-34483333D01*
X285320476Y-34388095D01*
X285510952Y-34340476D01*
X285891904Y-34340476D01*
X285987142Y-34388095D01*
X286034761Y-34435714D01*
X286082380Y-34530952D01*
X286082380Y-34721428D01*
X286034761Y-34816666D01*
X285987142Y-34864285D01*
X285891904Y-34911904D01*
X285653809Y-34911904D01*
X285558571Y-34864285D01*
X285510952Y-34816666D01*
X285463333Y-34721428D01*
X285463333Y-34530952D01*
X285510952Y-34435714D01*
X285558571Y-34388095D01*
X285653809Y-34340476D01*
%TO.C,D15*%
X250582380Y-32435714D02*
X249582380Y-32435714D01*
X249582380Y-32673809D01*
X249630000Y-32816666D01*
X249725238Y-32911904D01*
X249820476Y-32959523D01*
X250010952Y-33007142D01*
X250153809Y-33007142D01*
X250344285Y-32959523D01*
X250439523Y-32911904D01*
X250534761Y-32816666D01*
X250582380Y-32673809D01*
X250582380Y-32435714D01*
X250582380Y-33959523D02*
X250582380Y-33388095D01*
X250582380Y-33673809D02*
X249582380Y-33673809D01*
X249725238Y-33578571D01*
X249820476Y-33483333D01*
X249868095Y-33388095D01*
X249582380Y-34864285D02*
X249582380Y-34388095D01*
X250058571Y-34340476D01*
X250010952Y-34388095D01*
X249963333Y-34483333D01*
X249963333Y-34721428D01*
X250010952Y-34816666D01*
X250058571Y-34864285D01*
X250153809Y-34911904D01*
X250391904Y-34911904D01*
X250487142Y-34864285D01*
X250534761Y-34816666D01*
X250582380Y-34721428D01*
X250582380Y-34483333D01*
X250534761Y-34388095D01*
X250487142Y-34340476D01*
%TO.C,D14*%
X248007380Y-32440714D02*
X247007380Y-32440714D01*
X247007380Y-32678809D01*
X247055000Y-32821666D01*
X247150238Y-32916904D01*
X247245476Y-32964523D01*
X247435952Y-33012142D01*
X247578809Y-33012142D01*
X247769285Y-32964523D01*
X247864523Y-32916904D01*
X247959761Y-32821666D01*
X248007380Y-32678809D01*
X248007380Y-32440714D01*
X248007380Y-33964523D02*
X248007380Y-33393095D01*
X248007380Y-33678809D02*
X247007380Y-33678809D01*
X247150238Y-33583571D01*
X247245476Y-33488333D01*
X247293095Y-33393095D01*
X247340714Y-34821666D02*
X248007380Y-34821666D01*
X246959761Y-34583571D02*
X247674047Y-34345476D01*
X247674047Y-34964523D01*
%TO.C,D13*%
X212407380Y-32440714D02*
X211407380Y-32440714D01*
X211407380Y-32678809D01*
X211455000Y-32821666D01*
X211550238Y-32916904D01*
X211645476Y-32964523D01*
X211835952Y-33012142D01*
X211978809Y-33012142D01*
X212169285Y-32964523D01*
X212264523Y-32916904D01*
X212359761Y-32821666D01*
X212407380Y-32678809D01*
X212407380Y-32440714D01*
X212407380Y-33964523D02*
X212407380Y-33393095D01*
X212407380Y-33678809D02*
X211407380Y-33678809D01*
X211550238Y-33583571D01*
X211645476Y-33488333D01*
X211693095Y-33393095D01*
X211407380Y-34297857D02*
X211407380Y-34916904D01*
X211788333Y-34583571D01*
X211788333Y-34726428D01*
X211835952Y-34821666D01*
X211883571Y-34869285D01*
X211978809Y-34916904D01*
X212216904Y-34916904D01*
X212312142Y-34869285D01*
X212359761Y-34821666D01*
X212407380Y-34726428D01*
X212407380Y-34440714D01*
X212359761Y-34345476D01*
X212312142Y-34297857D01*
%TO.C,D12*%
X209907380Y-32440714D02*
X208907380Y-32440714D01*
X208907380Y-32678809D01*
X208955000Y-32821666D01*
X209050238Y-32916904D01*
X209145476Y-32964523D01*
X209335952Y-33012142D01*
X209478809Y-33012142D01*
X209669285Y-32964523D01*
X209764523Y-32916904D01*
X209859761Y-32821666D01*
X209907380Y-32678809D01*
X209907380Y-32440714D01*
X209907380Y-33964523D02*
X209907380Y-33393095D01*
X209907380Y-33678809D02*
X208907380Y-33678809D01*
X209050238Y-33583571D01*
X209145476Y-33488333D01*
X209193095Y-33393095D01*
X209002619Y-34345476D02*
X208955000Y-34393095D01*
X208907380Y-34488333D01*
X208907380Y-34726428D01*
X208955000Y-34821666D01*
X209002619Y-34869285D01*
X209097857Y-34916904D01*
X209193095Y-34916904D01*
X209335952Y-34869285D01*
X209907380Y-34297857D01*
X209907380Y-34916904D01*
%TO.C,D11*%
X174357380Y-32435714D02*
X173357380Y-32435714D01*
X173357380Y-32673809D01*
X173405000Y-32816666D01*
X173500238Y-32911904D01*
X173595476Y-32959523D01*
X173785952Y-33007142D01*
X173928809Y-33007142D01*
X174119285Y-32959523D01*
X174214523Y-32911904D01*
X174309761Y-32816666D01*
X174357380Y-32673809D01*
X174357380Y-32435714D01*
X174357380Y-33959523D02*
X174357380Y-33388095D01*
X174357380Y-33673809D02*
X173357380Y-33673809D01*
X173500238Y-33578571D01*
X173595476Y-33483333D01*
X173643095Y-33388095D01*
X174357380Y-34911904D02*
X174357380Y-34340476D01*
X174357380Y-34626190D02*
X173357380Y-34626190D01*
X173500238Y-34530952D01*
X173595476Y-34435714D01*
X173643095Y-34340476D01*
%TO.C,D10*%
X171807380Y-32435714D02*
X170807380Y-32435714D01*
X170807380Y-32673809D01*
X170855000Y-32816666D01*
X170950238Y-32911904D01*
X171045476Y-32959523D01*
X171235952Y-33007142D01*
X171378809Y-33007142D01*
X171569285Y-32959523D01*
X171664523Y-32911904D01*
X171759761Y-32816666D01*
X171807380Y-32673809D01*
X171807380Y-32435714D01*
X171807380Y-33959523D02*
X171807380Y-33388095D01*
X171807380Y-33673809D02*
X170807380Y-33673809D01*
X170950238Y-33578571D01*
X171045476Y-33483333D01*
X171093095Y-33388095D01*
X170807380Y-34578571D02*
X170807380Y-34673809D01*
X170855000Y-34769047D01*
X170902619Y-34816666D01*
X170997857Y-34864285D01*
X171188333Y-34911904D01*
X171426428Y-34911904D01*
X171616904Y-34864285D01*
X171712142Y-34816666D01*
X171759761Y-34769047D01*
X171807380Y-34673809D01*
X171807380Y-34578571D01*
X171759761Y-34483333D01*
X171712142Y-34435714D01*
X171616904Y-34388095D01*
X171426428Y-34340476D01*
X171188333Y-34340476D01*
X170997857Y-34388095D01*
X170902619Y-34435714D01*
X170855000Y-34483333D01*
X170807380Y-34578571D01*
%TO.C,D9*%
X136257380Y-32911904D02*
X135257380Y-32911904D01*
X135257380Y-33150000D01*
X135305000Y-33292857D01*
X135400238Y-33388095D01*
X135495476Y-33435714D01*
X135685952Y-33483333D01*
X135828809Y-33483333D01*
X136019285Y-33435714D01*
X136114523Y-33388095D01*
X136209761Y-33292857D01*
X136257380Y-33150000D01*
X136257380Y-32911904D01*
X136257380Y-33959523D02*
X136257380Y-34150000D01*
X136209761Y-34245238D01*
X136162142Y-34292857D01*
X136019285Y-34388095D01*
X135828809Y-34435714D01*
X135447857Y-34435714D01*
X135352619Y-34388095D01*
X135305000Y-34340476D01*
X135257380Y-34245238D01*
X135257380Y-34054761D01*
X135305000Y-33959523D01*
X135352619Y-33911904D01*
X135447857Y-33864285D01*
X135685952Y-33864285D01*
X135781190Y-33911904D01*
X135828809Y-33959523D01*
X135876428Y-34054761D01*
X135876428Y-34245238D01*
X135828809Y-34340476D01*
X135781190Y-34388095D01*
X135685952Y-34435714D01*
%TO.C,D8*%
X133682380Y-32911904D02*
X132682380Y-32911904D01*
X132682380Y-33150000D01*
X132730000Y-33292857D01*
X132825238Y-33388095D01*
X132920476Y-33435714D01*
X133110952Y-33483333D01*
X133253809Y-33483333D01*
X133444285Y-33435714D01*
X133539523Y-33388095D01*
X133634761Y-33292857D01*
X133682380Y-33150000D01*
X133682380Y-32911904D01*
X133110952Y-34054761D02*
X133063333Y-33959523D01*
X133015714Y-33911904D01*
X132920476Y-33864285D01*
X132872857Y-33864285D01*
X132777619Y-33911904D01*
X132730000Y-33959523D01*
X132682380Y-34054761D01*
X132682380Y-34245238D01*
X132730000Y-34340476D01*
X132777619Y-34388095D01*
X132872857Y-34435714D01*
X132920476Y-34435714D01*
X133015714Y-34388095D01*
X133063333Y-34340476D01*
X133110952Y-34245238D01*
X133110952Y-34054761D01*
X133158571Y-33959523D01*
X133206190Y-33911904D01*
X133301428Y-33864285D01*
X133491904Y-33864285D01*
X133587142Y-33911904D01*
X133634761Y-33959523D01*
X133682380Y-34054761D01*
X133682380Y-34245238D01*
X133634761Y-34340476D01*
X133587142Y-34388095D01*
X133491904Y-34435714D01*
X133301428Y-34435714D01*
X133206190Y-34388095D01*
X133158571Y-34340476D01*
X133110952Y-34245238D01*
%TO.C,D7*%
X98157380Y-32911904D02*
X97157380Y-32911904D01*
X97157380Y-33150000D01*
X97205000Y-33292857D01*
X97300238Y-33388095D01*
X97395476Y-33435714D01*
X97585952Y-33483333D01*
X97728809Y-33483333D01*
X97919285Y-33435714D01*
X98014523Y-33388095D01*
X98109761Y-33292857D01*
X98157380Y-33150000D01*
X98157380Y-32911904D01*
X97157380Y-33816666D02*
X97157380Y-34483333D01*
X98157380Y-34054761D01*
%TO.C,D6*%
X95657380Y-32911904D02*
X94657380Y-32911904D01*
X94657380Y-33150000D01*
X94705000Y-33292857D01*
X94800238Y-33388095D01*
X94895476Y-33435714D01*
X95085952Y-33483333D01*
X95228809Y-33483333D01*
X95419285Y-33435714D01*
X95514523Y-33388095D01*
X95609761Y-33292857D01*
X95657380Y-33150000D01*
X95657380Y-32911904D01*
X94657380Y-34340476D02*
X94657380Y-34150000D01*
X94705000Y-34054761D01*
X94752619Y-34007142D01*
X94895476Y-33911904D01*
X95085952Y-33864285D01*
X95466904Y-33864285D01*
X95562142Y-33911904D01*
X95609761Y-33959523D01*
X95657380Y-34054761D01*
X95657380Y-34245238D01*
X95609761Y-34340476D01*
X95562142Y-34388095D01*
X95466904Y-34435714D01*
X95228809Y-34435714D01*
X95133571Y-34388095D01*
X95085952Y-34340476D01*
X95038333Y-34245238D01*
X95038333Y-34054761D01*
X95085952Y-33959523D01*
X95133571Y-33911904D01*
X95228809Y-33864285D01*
%TO.C,D5*%
X60057380Y-32916904D02*
X59057380Y-32916904D01*
X59057380Y-33155000D01*
X59105000Y-33297857D01*
X59200238Y-33393095D01*
X59295476Y-33440714D01*
X59485952Y-33488333D01*
X59628809Y-33488333D01*
X59819285Y-33440714D01*
X59914523Y-33393095D01*
X60009761Y-33297857D01*
X60057380Y-33155000D01*
X60057380Y-32916904D01*
X59057380Y-34393095D02*
X59057380Y-33916904D01*
X59533571Y-33869285D01*
X59485952Y-33916904D01*
X59438333Y-34012142D01*
X59438333Y-34250238D01*
X59485952Y-34345476D01*
X59533571Y-34393095D01*
X59628809Y-34440714D01*
X59866904Y-34440714D01*
X59962142Y-34393095D01*
X60009761Y-34345476D01*
X60057380Y-34250238D01*
X60057380Y-34012142D01*
X60009761Y-33916904D01*
X59962142Y-33869285D01*
%TO.C,D4*%
X57532380Y-32916904D02*
X56532380Y-32916904D01*
X56532380Y-33155000D01*
X56580000Y-33297857D01*
X56675238Y-33393095D01*
X56770476Y-33440714D01*
X56960952Y-33488333D01*
X57103809Y-33488333D01*
X57294285Y-33440714D01*
X57389523Y-33393095D01*
X57484761Y-33297857D01*
X57532380Y-33155000D01*
X57532380Y-32916904D01*
X56865714Y-34345476D02*
X57532380Y-34345476D01*
X56484761Y-34107380D02*
X57199047Y-33869285D01*
X57199047Y-34488333D01*
%TO.C,D3*%
X32743380Y-32916904D02*
X31743380Y-32916904D01*
X31743380Y-33155000D01*
X31791000Y-33297857D01*
X31886238Y-33393095D01*
X31981476Y-33440714D01*
X32171952Y-33488333D01*
X32314809Y-33488333D01*
X32505285Y-33440714D01*
X32600523Y-33393095D01*
X32695761Y-33297857D01*
X32743380Y-33155000D01*
X32743380Y-32916904D01*
X31743380Y-33821666D02*
X31743380Y-34440714D01*
X32124333Y-34107380D01*
X32124333Y-34250238D01*
X32171952Y-34345476D01*
X32219571Y-34393095D01*
X32314809Y-34440714D01*
X32552904Y-34440714D01*
X32648142Y-34393095D01*
X32695761Y-34345476D01*
X32743380Y-34250238D01*
X32743380Y-33964523D01*
X32695761Y-33869285D01*
X32648142Y-33821666D01*
%TO.C,R7*%
X205446666Y-105542380D02*
X205780000Y-105066190D01*
X206018095Y-105542380D02*
X206018095Y-104542380D01*
X205637142Y-104542380D01*
X205541904Y-104590000D01*
X205494285Y-104637619D01*
X205446666Y-104732857D01*
X205446666Y-104875714D01*
X205494285Y-104970952D01*
X205541904Y-105018571D01*
X205637142Y-105066190D01*
X206018095Y-105066190D01*
X205113333Y-104542380D02*
X204446666Y-104542380D01*
X204875238Y-105542380D01*
%TO.C,R6*%
X205466666Y-104402380D02*
X205800000Y-103926190D01*
X206038095Y-104402380D02*
X206038095Y-103402380D01*
X205657142Y-103402380D01*
X205561904Y-103450000D01*
X205514285Y-103497619D01*
X205466666Y-103592857D01*
X205466666Y-103735714D01*
X205514285Y-103830952D01*
X205561904Y-103878571D01*
X205657142Y-103926190D01*
X206038095Y-103926190D01*
X204609523Y-103402380D02*
X204800000Y-103402380D01*
X204895238Y-103450000D01*
X204942857Y-103497619D01*
X205038095Y-103640476D01*
X205085714Y-103830952D01*
X205085714Y-104211904D01*
X205038095Y-104307142D01*
X204990476Y-104354761D01*
X204895238Y-104402380D01*
X204704761Y-104402380D01*
X204609523Y-104354761D01*
X204561904Y-104307142D01*
X204514285Y-104211904D01*
X204514285Y-103973809D01*
X204561904Y-103878571D01*
X204609523Y-103830952D01*
X204704761Y-103783333D01*
X204895238Y-103783333D01*
X204990476Y-103830952D01*
X205038095Y-103878571D01*
X205085714Y-103973809D01*
%TO.C,R5*%
X33185380Y-30631333D02*
X32709190Y-30298000D01*
X33185380Y-30059904D02*
X32185380Y-30059904D01*
X32185380Y-30440857D01*
X32233000Y-30536095D01*
X32280619Y-30583714D01*
X32375857Y-30631333D01*
X32518714Y-30631333D01*
X32613952Y-30583714D01*
X32661571Y-30536095D01*
X32709190Y-30440857D01*
X32709190Y-30059904D01*
X32185380Y-31536095D02*
X32185380Y-31059904D01*
X32661571Y-31012285D01*
X32613952Y-31059904D01*
X32566333Y-31155142D01*
X32566333Y-31393238D01*
X32613952Y-31488476D01*
X32661571Y-31536095D01*
X32756809Y-31583714D01*
X32994904Y-31583714D01*
X33090142Y-31536095D01*
X33137761Y-31488476D01*
X33185380Y-31393238D01*
X33185380Y-31155142D01*
X33137761Y-31059904D01*
X33090142Y-31012285D01*
%TO.C,R4*%
X40678380Y-30567333D02*
X40202190Y-30234000D01*
X40678380Y-29995904D02*
X39678380Y-29995904D01*
X39678380Y-30376857D01*
X39726000Y-30472095D01*
X39773619Y-30519714D01*
X39868857Y-30567333D01*
X40011714Y-30567333D01*
X40106952Y-30519714D01*
X40154571Y-30472095D01*
X40202190Y-30376857D01*
X40202190Y-29995904D01*
X40011714Y-31424476D02*
X40678380Y-31424476D01*
X39630761Y-31186380D02*
X40345047Y-30948285D01*
X40345047Y-31567333D01*
%TO.C,R3*%
X133602380Y-96423333D02*
X133126190Y-96090000D01*
X133602380Y-95851904D02*
X132602380Y-95851904D01*
X132602380Y-96232857D01*
X132650000Y-96328095D01*
X132697619Y-96375714D01*
X132792857Y-96423333D01*
X132935714Y-96423333D01*
X133030952Y-96375714D01*
X133078571Y-96328095D01*
X133126190Y-96232857D01*
X133126190Y-95851904D01*
X132602380Y-96756666D02*
X132602380Y-97375714D01*
X132983333Y-97042380D01*
X132983333Y-97185238D01*
X133030952Y-97280476D01*
X133078571Y-97328095D01*
X133173809Y-97375714D01*
X133411904Y-97375714D01*
X133507142Y-97328095D01*
X133554761Y-97280476D01*
X133602380Y-97185238D01*
X133602380Y-96899523D01*
X133554761Y-96804285D01*
X133507142Y-96756666D01*
%TO.C,R2*%
X153708380Y-93813333D02*
X153232190Y-93480000D01*
X153708380Y-93241904D02*
X152708380Y-93241904D01*
X152708380Y-93622857D01*
X152756000Y-93718095D01*
X152803619Y-93765714D01*
X152898857Y-93813333D01*
X153041714Y-93813333D01*
X153136952Y-93765714D01*
X153184571Y-93718095D01*
X153232190Y-93622857D01*
X153232190Y-93241904D01*
X152803619Y-94194285D02*
X152756000Y-94241904D01*
X152708380Y-94337142D01*
X152708380Y-94575238D01*
X152756000Y-94670476D01*
X152803619Y-94718095D01*
X152898857Y-94765714D01*
X152994095Y-94765714D01*
X153136952Y-94718095D01*
X153708380Y-94146666D01*
X153708380Y-94765714D01*
%TO.C,R1*%
X147867666Y-102085380D02*
X148201000Y-101609190D01*
X148439095Y-102085380D02*
X148439095Y-101085380D01*
X148058142Y-101085380D01*
X147962904Y-101133000D01*
X147915285Y-101180619D01*
X147867666Y-101275857D01*
X147867666Y-101418714D01*
X147915285Y-101513952D01*
X147962904Y-101561571D01*
X148058142Y-101609190D01*
X148439095Y-101609190D01*
X146915285Y-102085380D02*
X147486714Y-102085380D01*
X147201000Y-102085380D02*
X147201000Y-101085380D01*
X147296238Y-101228238D01*
X147391476Y-101323476D01*
X147486714Y-101371095D01*
%TO.C,U4*%
X40198380Y-29845095D02*
X41007904Y-29845095D01*
X41103142Y-29892714D01*
X41150761Y-29940333D01*
X41198380Y-30035571D01*
X41198380Y-30226047D01*
X41150761Y-30321285D01*
X41103142Y-30368904D01*
X41007904Y-30416523D01*
X40198380Y-30416523D01*
X40531714Y-31321285D02*
X41198380Y-31321285D01*
X40150761Y-31083190D02*
X40865047Y-30845095D01*
X40865047Y-31464142D01*
%TO.C,U3*%
X206999996Y-95843460D02*
X206427576Y-96415880D01*
X206326561Y-96449552D01*
X206259217Y-96449552D01*
X206158202Y-96415880D01*
X206023515Y-96281193D01*
X205989843Y-96180178D01*
X205989843Y-96112834D01*
X206023515Y-96011819D01*
X206595935Y-95439399D01*
X206326561Y-95170025D02*
X205888828Y-94732293D01*
X205855156Y-95237369D01*
X205754141Y-95136354D01*
X205653126Y-95102682D01*
X205585782Y-95102682D01*
X205484767Y-95136354D01*
X205316408Y-95304712D01*
X205282736Y-95405728D01*
X205282736Y-95473071D01*
X205316408Y-95574086D01*
X205518439Y-95776117D01*
X205619454Y-95809789D01*
X205686797Y-95809789D01*
%TO.C,U2*%
X134312380Y-101468095D02*
X135121904Y-101468095D01*
X135217142Y-101515714D01*
X135264761Y-101563333D01*
X135312380Y-101658571D01*
X135312380Y-101849047D01*
X135264761Y-101944285D01*
X135217142Y-101991904D01*
X135121904Y-102039523D01*
X134312380Y-102039523D01*
X134407619Y-102468095D02*
X134360000Y-102515714D01*
X134312380Y-102610952D01*
X134312380Y-102849047D01*
X134360000Y-102944285D01*
X134407619Y-102991904D01*
X134502857Y-103039523D01*
X134598095Y-103039523D01*
X134740952Y-102991904D01*
X135312380Y-102420476D01*
X135312380Y-103039523D01*
%TO.C,U1*%
X153863380Y-96393095D02*
X154672904Y-96393095D01*
X154768142Y-96440714D01*
X154815761Y-96488333D01*
X154863380Y-96583571D01*
X154863380Y-96774047D01*
X154815761Y-96869285D01*
X154768142Y-96916904D01*
X154672904Y-96964523D01*
X153863380Y-96964523D01*
X154863380Y-97964523D02*
X154863380Y-97393095D01*
X154863380Y-97678809D02*
X153863380Y-97678809D01*
X154006238Y-97583571D01*
X154101476Y-97488333D01*
X154149095Y-97393095D01*
%TO.C,Q1*%
X142727619Y-97974761D02*
X142680000Y-97879523D01*
X142584761Y-97784285D01*
X142441904Y-97641428D01*
X142394285Y-97546190D01*
X142394285Y-97450952D01*
X142632380Y-97498571D02*
X142584761Y-97403333D01*
X142489523Y-97308095D01*
X142299047Y-97260476D01*
X141965714Y-97260476D01*
X141775238Y-97308095D01*
X141680000Y-97403333D01*
X141632380Y-97498571D01*
X141632380Y-97689047D01*
X141680000Y-97784285D01*
X141775238Y-97879523D01*
X141965714Y-97927142D01*
X142299047Y-97927142D01*
X142489523Y-97879523D01*
X142584761Y-97784285D01*
X142632380Y-97689047D01*
X142632380Y-97498571D01*
X142632380Y-98879523D02*
X142632380Y-98308095D01*
X142632380Y-98593809D02*
X141632380Y-98593809D01*
X141775238Y-98498571D01*
X141870476Y-98403333D01*
X141918095Y-98308095D01*
%TO.C,J1*%
X37925333Y-24655380D02*
X37925333Y-25369666D01*
X37972952Y-25512523D01*
X38068190Y-25607761D01*
X38211047Y-25655380D01*
X38306285Y-25655380D01*
X36925333Y-25655380D02*
X37496761Y-25655380D01*
X37211047Y-25655380D02*
X37211047Y-24655380D01*
X37306285Y-24798238D01*
X37401523Y-24893476D01*
X37496761Y-24941095D01*
%TO.C,D2*%
X139112380Y-96681904D02*
X138112380Y-96681904D01*
X138112380Y-96920000D01*
X138160000Y-97062857D01*
X138255238Y-97158095D01*
X138350476Y-97205714D01*
X138540952Y-97253333D01*
X138683809Y-97253333D01*
X138874285Y-97205714D01*
X138969523Y-97158095D01*
X139064761Y-97062857D01*
X139112380Y-96920000D01*
X139112380Y-96681904D01*
X138207619Y-97634285D02*
X138160000Y-97681904D01*
X138112380Y-97777142D01*
X138112380Y-98015238D01*
X138160000Y-98110476D01*
X138207619Y-98158095D01*
X138302857Y-98205714D01*
X138398095Y-98205714D01*
X138540952Y-98158095D01*
X139112380Y-97586666D01*
X139112380Y-98205714D01*
%TO.C,D1*%
X149676380Y-96289904D02*
X148676380Y-96289904D01*
X148676380Y-96528000D01*
X148724000Y-96670857D01*
X148819238Y-96766095D01*
X148914476Y-96813714D01*
X149104952Y-96861333D01*
X149247809Y-96861333D01*
X149438285Y-96813714D01*
X149533523Y-96766095D01*
X149628761Y-96670857D01*
X149676380Y-96528000D01*
X149676380Y-96289904D01*
X149676380Y-97813714D02*
X149676380Y-97242285D01*
X149676380Y-97528000D02*
X148676380Y-97528000D01*
X148819238Y-97432761D01*
X148914476Y-97337523D01*
X148962095Y-97242285D01*
%TO.C,C1*%
X148386666Y-95807142D02*
X148434285Y-95854761D01*
X148577142Y-95902380D01*
X148672380Y-95902380D01*
X148815238Y-95854761D01*
X148910476Y-95759523D01*
X148958095Y-95664285D01*
X149005714Y-95473809D01*
X149005714Y-95330952D01*
X148958095Y-95140476D01*
X148910476Y-95045238D01*
X148815238Y-94950000D01*
X148672380Y-94902380D01*
X148577142Y-94902380D01*
X148434285Y-94950000D01*
X148386666Y-94997619D01*
X147434285Y-95902380D02*
X148005714Y-95902380D01*
X147720000Y-95902380D02*
X147720000Y-94902380D01*
X147815238Y-95045238D01*
X147910476Y-95140476D01*
X148005714Y-95188095D01*
%TD*%
M02*
