%TF.GenerationSoftware,KiCad,Pcbnew,5.1.10*%
%TF.CreationDate,2021-06-01T22:10:04+02:00*%
%TF.ProjectId,ptm-60nrf,70746d2d-3630-46e7-9266-2e6b69636164,rev?*%
%TF.SameCoordinates,Original*%
%TF.FileFunction,Legend,Top*%
%TF.FilePolarity,Positive*%
%FSLAX46Y46*%
G04 Gerber Fmt 4.6, Leading zero omitted, Abs format (unit mm)*
G04 Created by KiCad (PCBNEW 5.1.10) date 2021-06-01 22:10:04*
%MOMM*%
%LPD*%
G01*
G04 APERTURE LIST*
%ADD10C,0.150000*%
%ADD11C,0.120000*%
%ADD12C,0.010000*%
G04 APERTURE END LIST*
D10*
X209950000Y-98880000D02*
X196530000Y-85460000D01*
X206430000Y-102400000D02*
X209950000Y-98880000D01*
X193000000Y-88980000D02*
X206430000Y-102400000D01*
X196530000Y-85460000D02*
X193000000Y-88980000D01*
X199134428Y-90306686D02*
X199201771Y-90441373D01*
X199201771Y-90508717D01*
X199168099Y-90609732D01*
X199067084Y-90710748D01*
X198966069Y-90744419D01*
X198898725Y-90744419D01*
X198797710Y-90710748D01*
X198528336Y-90441373D01*
X199235443Y-89734267D01*
X199471145Y-89969969D01*
X199504817Y-90070984D01*
X199504817Y-90138328D01*
X199471145Y-90239343D01*
X199403802Y-90306686D01*
X199302787Y-90340358D01*
X199235443Y-90340358D01*
X199134428Y-90306686D01*
X198898725Y-90070984D01*
X199572161Y-91485198D02*
X199235443Y-91148480D01*
X199942550Y-90441373D01*
X200178252Y-91350511D02*
X200413954Y-91586213D01*
X200144580Y-92057618D02*
X199807863Y-91720900D01*
X200514970Y-91013793D01*
X200851687Y-91350511D01*
X201289420Y-93202457D02*
X201659809Y-92832068D01*
X201693481Y-92731053D01*
X201659809Y-92630037D01*
X201525122Y-92495350D01*
X201424107Y-92461679D01*
X201323092Y-93168785D02*
X201222076Y-93135114D01*
X201053718Y-92966755D01*
X201020046Y-92865740D01*
X201053718Y-92764724D01*
X201121061Y-92697381D01*
X201222076Y-92663709D01*
X201323092Y-92697381D01*
X201491450Y-92865740D01*
X201592466Y-92899411D01*
X202097542Y-93067770D02*
X201626137Y-93539175D01*
X202030198Y-93135114D02*
X202097542Y-93135114D01*
X202198557Y-93168785D01*
X202299572Y-93269801D01*
X202333244Y-93370816D01*
X202299572Y-93471831D01*
X201929183Y-93842220D01*
X202636290Y-93606518D02*
X202905664Y-93875892D01*
X202973007Y-93471831D02*
X202366916Y-94077923D01*
X202333244Y-94178938D01*
X202366916Y-94279953D01*
X202434259Y-94347297D01*
X202973007Y-94818701D02*
X202871992Y-94785029D01*
X202737305Y-94650342D01*
X202703633Y-94549327D01*
X202737305Y-94448312D01*
X203006679Y-94178938D01*
X203107694Y-94145266D01*
X203208710Y-94178938D01*
X203343397Y-94313625D01*
X203377068Y-94414640D01*
X203343397Y-94515655D01*
X203276053Y-94582999D01*
X202871992Y-94313625D01*
X203747458Y-94717686D02*
X203276053Y-95189090D01*
X203680114Y-94785029D02*
X203747458Y-94785029D01*
X203848473Y-94818701D01*
X203949488Y-94919716D01*
X203983160Y-95020732D01*
X203949488Y-95121747D01*
X203579099Y-95492136D01*
X204387221Y-95357449D02*
X203915816Y-95828854D01*
X204319877Y-95424793D02*
X204387221Y-95424793D01*
X204488236Y-95458464D01*
X204589251Y-95559480D01*
X204622923Y-95660495D01*
X204589251Y-95761510D01*
X204218862Y-96131900D01*
X204858626Y-96771663D02*
X205229015Y-96401274D01*
X205262687Y-96300258D01*
X205229015Y-96199243D01*
X205094328Y-96064556D01*
X204993313Y-96030884D01*
X204892297Y-96737991D02*
X204791282Y-96704319D01*
X204622923Y-96535961D01*
X204589251Y-96434945D01*
X204622923Y-96333930D01*
X204690267Y-96266587D01*
X204791282Y-96232915D01*
X204892297Y-96266587D01*
X205060656Y-96434945D01*
X205161671Y-96468617D01*
X197142744Y-91389233D02*
X197849851Y-90682126D01*
X197479461Y-91187203D02*
X197412118Y-91658607D01*
X197883522Y-91187203D02*
X197344774Y-91187203D01*
X198018209Y-92197355D02*
X197917194Y-92163683D01*
X197782507Y-92028996D01*
X197748835Y-91927981D01*
X197782507Y-91826966D01*
X198051881Y-91557592D01*
X198152896Y-91523920D01*
X198253912Y-91557592D01*
X198388599Y-91692279D01*
X198422270Y-91793294D01*
X198388599Y-91894309D01*
X198321255Y-91961653D01*
X197917194Y-91692279D01*
X198624301Y-92803447D02*
X198523286Y-92769775D01*
X198388599Y-92635088D01*
X198354927Y-92534073D01*
X198388599Y-92433057D01*
X198657973Y-92163683D01*
X198758988Y-92130012D01*
X198860003Y-92163683D01*
X198994690Y-92298370D01*
X199028362Y-92399386D01*
X198994690Y-92500401D01*
X198927347Y-92567744D01*
X198523286Y-92298370D01*
X199398751Y-92702431D02*
X198691644Y-93409538D01*
X199365079Y-92736103D02*
X199466095Y-92769775D01*
X199600782Y-92904462D01*
X199634453Y-93005477D01*
X199634453Y-93072821D01*
X199600782Y-93173836D01*
X199398751Y-93375866D01*
X199297736Y-93409538D01*
X199230392Y-93409538D01*
X199129377Y-93375866D01*
X198994690Y-93241179D01*
X198961018Y-93140164D01*
X199668125Y-93914614D02*
X199634453Y-93813599D01*
X199634453Y-93746256D01*
X199668125Y-93645240D01*
X199870156Y-93443210D01*
X199971171Y-93409538D01*
X200038514Y-93409538D01*
X200139530Y-93443210D01*
X200240545Y-93544225D01*
X200274217Y-93645240D01*
X200274217Y-93712584D01*
X200240545Y-93813599D01*
X200038514Y-94015630D01*
X199937499Y-94049301D01*
X199870156Y-94049301D01*
X199769140Y-94015630D01*
X199668125Y-93914614D01*
X200981324Y-94285004D02*
X200509919Y-94756408D01*
X200678278Y-93981958D02*
X200307888Y-94352347D01*
X200274217Y-94453363D01*
X200307888Y-94554378D01*
X200408904Y-94655393D01*
X200509919Y-94689065D01*
X200577262Y-94689065D01*
X201217026Y-94520706D02*
X201486400Y-94790080D01*
X201553743Y-94386019D02*
X200947652Y-94992111D01*
X200913980Y-95093126D01*
X200947652Y-95194141D01*
X201014995Y-95261485D01*
X202193507Y-95497187D02*
X202563896Y-95867576D01*
X201722102Y-95968591D01*
X202092491Y-96338981D01*
X202462881Y-96709370D02*
X202429209Y-96608355D01*
X202429209Y-96541011D01*
X202462881Y-96439996D01*
X202664911Y-96237965D01*
X202765926Y-96204294D01*
X202833270Y-96204294D01*
X202934285Y-96237965D01*
X203035300Y-96338981D01*
X203068972Y-96439996D01*
X203068972Y-96507339D01*
X203035300Y-96608355D01*
X202833270Y-96810385D01*
X202732255Y-96844057D01*
X202664911Y-96844057D01*
X202563896Y-96810385D01*
X202462881Y-96709370D01*
X203473033Y-96776713D02*
X203001629Y-97248118D01*
X203405690Y-96844057D02*
X203473033Y-96844057D01*
X203574048Y-96877729D01*
X203675064Y-96978744D01*
X203708735Y-97079759D01*
X203675064Y-97180774D01*
X203304674Y-97551164D01*
X203944438Y-98123583D02*
X203843422Y-98089912D01*
X203708735Y-97955225D01*
X203675064Y-97854209D01*
X203708735Y-97753194D01*
X203978109Y-97483820D01*
X204079125Y-97450148D01*
X204180140Y-97483820D01*
X204314827Y-97618507D01*
X204348499Y-97719522D01*
X204314827Y-97820538D01*
X204247483Y-97887881D01*
X203843422Y-97618507D01*
X173398095Y-102180000D02*
X173302857Y-102132380D01*
X173160000Y-102132380D01*
X173017142Y-102180000D01*
X172921904Y-102275238D01*
X172874285Y-102370476D01*
X172826666Y-102560952D01*
X172826666Y-102703809D01*
X172874285Y-102894285D01*
X172921904Y-102989523D01*
X173017142Y-103084761D01*
X173160000Y-103132380D01*
X173255238Y-103132380D01*
X173398095Y-103084761D01*
X173445714Y-103037142D01*
X173445714Y-102703809D01*
X173255238Y-102703809D01*
X173874285Y-103132380D02*
X173874285Y-102132380D01*
X174445714Y-103132380D01*
X174445714Y-102132380D01*
X174921904Y-103132380D02*
X174921904Y-102132380D01*
X175160000Y-102132380D01*
X175302857Y-102180000D01*
X175398095Y-102275238D01*
X175445714Y-102370476D01*
X175493333Y-102560952D01*
X175493333Y-102703809D01*
X175445714Y-102894285D01*
X175398095Y-102989523D01*
X175302857Y-103084761D01*
X175160000Y-103132380D01*
X174921904Y-103132380D01*
X172822857Y-100564761D02*
X172965714Y-100612380D01*
X173203809Y-100612380D01*
X173299047Y-100564761D01*
X173346666Y-100517142D01*
X173394285Y-100421904D01*
X173394285Y-100326666D01*
X173346666Y-100231428D01*
X173299047Y-100183809D01*
X173203809Y-100136190D01*
X173013333Y-100088571D01*
X172918095Y-100040952D01*
X172870476Y-99993333D01*
X172822857Y-99898095D01*
X172822857Y-99802857D01*
X172870476Y-99707619D01*
X172918095Y-99660000D01*
X173013333Y-99612380D01*
X173251428Y-99612380D01*
X173394285Y-99660000D01*
X173727619Y-99612380D02*
X173965714Y-100612380D01*
X174156190Y-99898095D01*
X174346666Y-100612380D01*
X174584761Y-99612380D01*
X175537142Y-100517142D02*
X175489523Y-100564761D01*
X175346666Y-100612380D01*
X175251428Y-100612380D01*
X175108571Y-100564761D01*
X175013333Y-100469523D01*
X174965714Y-100374285D01*
X174918095Y-100183809D01*
X174918095Y-100040952D01*
X174965714Y-99850476D01*
X175013333Y-99755238D01*
X175108571Y-99660000D01*
X175251428Y-99612380D01*
X175346666Y-99612380D01*
X175489523Y-99660000D01*
X175537142Y-99707619D01*
X172822857Y-98054761D02*
X172965714Y-98102380D01*
X173203809Y-98102380D01*
X173299047Y-98054761D01*
X173346666Y-98007142D01*
X173394285Y-97911904D01*
X173394285Y-97816666D01*
X173346666Y-97721428D01*
X173299047Y-97673809D01*
X173203809Y-97626190D01*
X173013333Y-97578571D01*
X172918095Y-97530952D01*
X172870476Y-97483333D01*
X172822857Y-97388095D01*
X172822857Y-97292857D01*
X172870476Y-97197619D01*
X172918095Y-97150000D01*
X173013333Y-97102380D01*
X173251428Y-97102380D01*
X173394285Y-97150000D01*
X173727619Y-97102380D02*
X173965714Y-98102380D01*
X174156190Y-97388095D01*
X174346666Y-98102380D01*
X174584761Y-97102380D01*
X174965714Y-98102380D02*
X174965714Y-97102380D01*
X175203809Y-97102380D01*
X175346666Y-97150000D01*
X175441904Y-97245238D01*
X175489523Y-97340476D01*
X175537142Y-97530952D01*
X175537142Y-97673809D01*
X175489523Y-97864285D01*
X175441904Y-97959523D01*
X175346666Y-98054761D01*
X175203809Y-98102380D01*
X174965714Y-98102380D01*
X122344285Y-95210714D02*
X122344285Y-96210714D01*
X122344285Y-95258333D02*
X122439523Y-95210714D01*
X122630000Y-95210714D01*
X122725238Y-95258333D01*
X122772857Y-95305952D01*
X122820476Y-95401190D01*
X122820476Y-95686904D01*
X122772857Y-95782142D01*
X122725238Y-95829761D01*
X122630000Y-95877380D01*
X122439523Y-95877380D01*
X122344285Y-95829761D01*
X123106190Y-95210714D02*
X123487142Y-95210714D01*
X123249047Y-94877380D02*
X123249047Y-95734523D01*
X123296666Y-95829761D01*
X123391904Y-95877380D01*
X123487142Y-95877380D01*
X123820476Y-95877380D02*
X123820476Y-95210714D01*
X123820476Y-95305952D02*
X123868095Y-95258333D01*
X123963333Y-95210714D01*
X124106190Y-95210714D01*
X124201428Y-95258333D01*
X124249047Y-95353571D01*
X124249047Y-95877380D01*
X124249047Y-95353571D02*
X124296666Y-95258333D01*
X124391904Y-95210714D01*
X124534761Y-95210714D01*
X124630000Y-95258333D01*
X124677619Y-95353571D01*
X124677619Y-95877380D01*
X125153809Y-95496428D02*
X125915714Y-95496428D01*
X126820476Y-94877380D02*
X126630000Y-94877380D01*
X126534761Y-94925000D01*
X126487142Y-94972619D01*
X126391904Y-95115476D01*
X126344285Y-95305952D01*
X126344285Y-95686904D01*
X126391904Y-95782142D01*
X126439523Y-95829761D01*
X126534761Y-95877380D01*
X126725238Y-95877380D01*
X126820476Y-95829761D01*
X126868095Y-95782142D01*
X126915714Y-95686904D01*
X126915714Y-95448809D01*
X126868095Y-95353571D01*
X126820476Y-95305952D01*
X126725238Y-95258333D01*
X126534761Y-95258333D01*
X126439523Y-95305952D01*
X126391904Y-95353571D01*
X126344285Y-95448809D01*
X127534761Y-94877380D02*
X127630000Y-94877380D01*
X127725238Y-94925000D01*
X127772857Y-94972619D01*
X127820476Y-95067857D01*
X127868095Y-95258333D01*
X127868095Y-95496428D01*
X127820476Y-95686904D01*
X127772857Y-95782142D01*
X127725238Y-95829761D01*
X127630000Y-95877380D01*
X127534761Y-95877380D01*
X127439523Y-95829761D01*
X127391904Y-95782142D01*
X127344285Y-95686904D01*
X127296666Y-95496428D01*
X127296666Y-95258333D01*
X127344285Y-95067857D01*
X127391904Y-94972619D01*
X127439523Y-94925000D01*
X127534761Y-94877380D01*
X128296666Y-95210714D02*
X128296666Y-95877380D01*
X128296666Y-95305952D02*
X128344285Y-95258333D01*
X128439523Y-95210714D01*
X128582380Y-95210714D01*
X128677619Y-95258333D01*
X128725238Y-95353571D01*
X128725238Y-95877380D01*
X129201428Y-95877380D02*
X129201428Y-95210714D01*
X129201428Y-95401190D02*
X129249047Y-95305952D01*
X129296666Y-95258333D01*
X129391904Y-95210714D01*
X129487142Y-95210714D01*
X129677619Y-95210714D02*
X130058571Y-95210714D01*
X129820476Y-95877380D02*
X129820476Y-95020238D01*
X129868095Y-94925000D01*
X129963333Y-94877380D01*
X130058571Y-94877380D01*
X112249047Y-97003571D02*
X112391904Y-97051190D01*
X112439523Y-97098809D01*
X112487142Y-97194047D01*
X112487142Y-97336904D01*
X112439523Y-97432142D01*
X112391904Y-97479761D01*
X112296666Y-97527380D01*
X111915714Y-97527380D01*
X111915714Y-96527380D01*
X112249047Y-96527380D01*
X112344285Y-96575000D01*
X112391904Y-96622619D01*
X112439523Y-96717857D01*
X112439523Y-96813095D01*
X112391904Y-96908333D01*
X112344285Y-96955952D01*
X112249047Y-97003571D01*
X111915714Y-97003571D01*
X113058571Y-97527380D02*
X112963333Y-97479761D01*
X112915714Y-97384523D01*
X112915714Y-96527380D01*
X113868095Y-96860714D02*
X113868095Y-97527380D01*
X113439523Y-96860714D02*
X113439523Y-97384523D01*
X113487142Y-97479761D01*
X113582380Y-97527380D01*
X113725238Y-97527380D01*
X113820476Y-97479761D01*
X113868095Y-97432142D01*
X114725238Y-97479761D02*
X114630000Y-97527380D01*
X114439523Y-97527380D01*
X114344285Y-97479761D01*
X114296666Y-97384523D01*
X114296666Y-97003571D01*
X114344285Y-96908333D01*
X114439523Y-96860714D01*
X114630000Y-96860714D01*
X114725238Y-96908333D01*
X114772857Y-97003571D01*
X114772857Y-97098809D01*
X114296666Y-97194047D01*
X115058571Y-96860714D02*
X115439523Y-96860714D01*
X115201428Y-96527380D02*
X115201428Y-97384523D01*
X115249047Y-97479761D01*
X115344285Y-97527380D01*
X115439523Y-97527380D01*
X115915714Y-97527380D02*
X115820476Y-97479761D01*
X115772857Y-97432142D01*
X115725238Y-97336904D01*
X115725238Y-97051190D01*
X115772857Y-96955952D01*
X115820476Y-96908333D01*
X115915714Y-96860714D01*
X116058571Y-96860714D01*
X116153809Y-96908333D01*
X116201428Y-96955952D01*
X116249047Y-97051190D01*
X116249047Y-97336904D01*
X116201428Y-97432142D01*
X116153809Y-97479761D01*
X116058571Y-97527380D01*
X115915714Y-97527380D01*
X116820476Y-97527380D02*
X116725238Y-97479761D01*
X116677619Y-97432142D01*
X116630000Y-97336904D01*
X116630000Y-97051190D01*
X116677619Y-96955952D01*
X116725238Y-96908333D01*
X116820476Y-96860714D01*
X116963333Y-96860714D01*
X117058571Y-96908333D01*
X117106190Y-96955952D01*
X117153809Y-97051190D01*
X117153809Y-97336904D01*
X117106190Y-97432142D01*
X117058571Y-97479761D01*
X116963333Y-97527380D01*
X116820476Y-97527380D01*
X117439523Y-96860714D02*
X117820476Y-96860714D01*
X117582380Y-96527380D02*
X117582380Y-97384523D01*
X117630000Y-97479761D01*
X117725238Y-97527380D01*
X117820476Y-97527380D01*
X118153809Y-97527380D02*
X118153809Y-96527380D01*
X118582380Y-97527380D02*
X118582380Y-97003571D01*
X118534761Y-96908333D01*
X118439523Y-96860714D01*
X118296666Y-96860714D01*
X118201428Y-96908333D01*
X118153809Y-96955952D01*
X120249047Y-97479761D02*
X120153809Y-97527380D01*
X119963333Y-97527380D01*
X119868095Y-97479761D01*
X119820476Y-97432142D01*
X119772857Y-97336904D01*
X119772857Y-97051190D01*
X119820476Y-96955952D01*
X119868095Y-96908333D01*
X119963333Y-96860714D01*
X120153809Y-96860714D01*
X120249047Y-96908333D01*
X120820476Y-97527380D02*
X120725238Y-97479761D01*
X120677619Y-97432142D01*
X120630000Y-97336904D01*
X120630000Y-97051190D01*
X120677619Y-96955952D01*
X120725238Y-96908333D01*
X120820476Y-96860714D01*
X120963333Y-96860714D01*
X121058571Y-96908333D01*
X121106190Y-96955952D01*
X121153809Y-97051190D01*
X121153809Y-97336904D01*
X121106190Y-97432142D01*
X121058571Y-97479761D01*
X120963333Y-97527380D01*
X120820476Y-97527380D01*
X121582380Y-97527380D02*
X121582380Y-96860714D01*
X121582380Y-96955952D02*
X121630000Y-96908333D01*
X121725238Y-96860714D01*
X121868095Y-96860714D01*
X121963333Y-96908333D01*
X122010952Y-97003571D01*
X122010952Y-97527380D01*
X122010952Y-97003571D02*
X122058571Y-96908333D01*
X122153809Y-96860714D01*
X122296666Y-96860714D01*
X122391904Y-96908333D01*
X122439523Y-97003571D01*
X122439523Y-97527380D01*
X122915714Y-96860714D02*
X122915714Y-97860714D01*
X122915714Y-96908333D02*
X123010952Y-96860714D01*
X123201428Y-96860714D01*
X123296666Y-96908333D01*
X123344285Y-96955952D01*
X123391904Y-97051190D01*
X123391904Y-97336904D01*
X123344285Y-97432142D01*
X123296666Y-97479761D01*
X123201428Y-97527380D01*
X123010952Y-97527380D01*
X122915714Y-97479761D01*
X124249047Y-97527380D02*
X124249047Y-97003571D01*
X124201428Y-96908333D01*
X124106190Y-96860714D01*
X123915714Y-96860714D01*
X123820476Y-96908333D01*
X124249047Y-97479761D02*
X124153809Y-97527380D01*
X123915714Y-97527380D01*
X123820476Y-97479761D01*
X123772857Y-97384523D01*
X123772857Y-97289285D01*
X123820476Y-97194047D01*
X123915714Y-97146428D01*
X124153809Y-97146428D01*
X124249047Y-97098809D01*
X124582380Y-96860714D02*
X124963333Y-96860714D01*
X124725238Y-96527380D02*
X124725238Y-97384523D01*
X124772857Y-97479761D01*
X124868095Y-97527380D01*
X124963333Y-97527380D01*
X125296666Y-97527380D02*
X125296666Y-96860714D01*
X125296666Y-96527380D02*
X125249047Y-96575000D01*
X125296666Y-96622619D01*
X125344285Y-96575000D01*
X125296666Y-96527380D01*
X125296666Y-96622619D01*
X125772857Y-97527380D02*
X125772857Y-96527380D01*
X125772857Y-96908333D02*
X125868095Y-96860714D01*
X126058571Y-96860714D01*
X126153809Y-96908333D01*
X126201428Y-96955952D01*
X126249047Y-97051190D01*
X126249047Y-97336904D01*
X126201428Y-97432142D01*
X126153809Y-97479761D01*
X126058571Y-97527380D01*
X125868095Y-97527380D01*
X125772857Y-97479761D01*
X126820476Y-97527380D02*
X126725238Y-97479761D01*
X126677619Y-97384523D01*
X126677619Y-96527380D01*
X127582380Y-97479761D02*
X127487142Y-97527380D01*
X127296666Y-97527380D01*
X127201428Y-97479761D01*
X127153809Y-97384523D01*
X127153809Y-97003571D01*
X127201428Y-96908333D01*
X127296666Y-96860714D01*
X127487142Y-96860714D01*
X127582380Y-96908333D01*
X127630000Y-97003571D01*
X127630000Y-97098809D01*
X127153809Y-97194047D01*
X128677619Y-96860714D02*
X129058571Y-96860714D01*
X128820476Y-96527380D02*
X128820476Y-97384523D01*
X128868095Y-97479761D01*
X128963333Y-97527380D01*
X129058571Y-97527380D01*
X129391904Y-97527380D02*
X129391904Y-96860714D01*
X129391904Y-97051190D02*
X129439523Y-96955952D01*
X129487142Y-96908333D01*
X129582380Y-96860714D01*
X129677619Y-96860714D01*
X130439523Y-97527380D02*
X130439523Y-97003571D01*
X130391904Y-96908333D01*
X130296666Y-96860714D01*
X130106190Y-96860714D01*
X130010952Y-96908333D01*
X130439523Y-97479761D02*
X130344285Y-97527380D01*
X130106190Y-97527380D01*
X130010952Y-97479761D01*
X129963333Y-97384523D01*
X129963333Y-97289285D01*
X130010952Y-97194047D01*
X130106190Y-97146428D01*
X130344285Y-97146428D01*
X130439523Y-97098809D01*
X130820476Y-96860714D02*
X131058571Y-97527380D01*
X131296666Y-96860714D02*
X131058571Y-97527380D01*
X130963333Y-97765476D01*
X130915714Y-97813095D01*
X130820476Y-97860714D01*
X132439523Y-97527380D02*
X132439523Y-96860714D01*
X132439523Y-96955952D02*
X132487142Y-96908333D01*
X132582380Y-96860714D01*
X132725238Y-96860714D01*
X132820476Y-96908333D01*
X132868095Y-97003571D01*
X132868095Y-97527380D01*
X132868095Y-97003571D02*
X132915714Y-96908333D01*
X133010952Y-96860714D01*
X133153809Y-96860714D01*
X133249047Y-96908333D01*
X133296666Y-97003571D01*
X133296666Y-97527380D01*
X133915714Y-97527380D02*
X133820476Y-97479761D01*
X133772857Y-97432142D01*
X133725238Y-97336904D01*
X133725238Y-97051190D01*
X133772857Y-96955952D01*
X133820476Y-96908333D01*
X133915714Y-96860714D01*
X134058571Y-96860714D01*
X134153809Y-96908333D01*
X134201428Y-96955952D01*
X134249047Y-97051190D01*
X134249047Y-97336904D01*
X134201428Y-97432142D01*
X134153809Y-97479761D01*
X134058571Y-97527380D01*
X133915714Y-97527380D01*
X135106190Y-96860714D02*
X135106190Y-97527380D01*
X134677619Y-96860714D02*
X134677619Y-97384523D01*
X134725238Y-97479761D01*
X134820476Y-97527380D01*
X134963333Y-97527380D01*
X135058571Y-97479761D01*
X135106190Y-97432142D01*
X135582380Y-96860714D02*
X135582380Y-97527380D01*
X135582380Y-96955952D02*
X135630000Y-96908333D01*
X135725238Y-96860714D01*
X135868095Y-96860714D01*
X135963333Y-96908333D01*
X136010952Y-97003571D01*
X136010952Y-97527380D01*
X136344285Y-96860714D02*
X136725238Y-96860714D01*
X136487142Y-96527380D02*
X136487142Y-97384523D01*
X136534761Y-97479761D01*
X136630000Y-97527380D01*
X136725238Y-97527380D01*
X137820476Y-97527380D02*
X137820476Y-96527380D01*
X138201428Y-96527380D01*
X138296666Y-96575000D01*
X138344285Y-96622619D01*
X138391904Y-96717857D01*
X138391904Y-96860714D01*
X138344285Y-96955952D01*
X138296666Y-97003571D01*
X138201428Y-97051190D01*
X137820476Y-97051190D01*
X139391904Y-97432142D02*
X139344285Y-97479761D01*
X139201428Y-97527380D01*
X139106190Y-97527380D01*
X138963333Y-97479761D01*
X138868095Y-97384523D01*
X138820476Y-97289285D01*
X138772857Y-97098809D01*
X138772857Y-96955952D01*
X138820476Y-96765476D01*
X138868095Y-96670238D01*
X138963333Y-96575000D01*
X139106190Y-96527380D01*
X139201428Y-96527380D01*
X139344285Y-96575000D01*
X139391904Y-96622619D01*
X140153809Y-97003571D02*
X140296666Y-97051190D01*
X140344285Y-97098809D01*
X140391904Y-97194047D01*
X140391904Y-97336904D01*
X140344285Y-97432142D01*
X140296666Y-97479761D01*
X140201428Y-97527380D01*
X139820476Y-97527380D01*
X139820476Y-96527380D01*
X140153809Y-96527380D01*
X140249047Y-96575000D01*
X140296666Y-96622619D01*
X140344285Y-96717857D01*
X140344285Y-96813095D01*
X140296666Y-96908333D01*
X140249047Y-96955952D01*
X140153809Y-97003571D01*
X139820476Y-97003571D01*
X124422380Y-104197380D02*
X124422380Y-103197380D01*
X124803333Y-103197380D01*
X124898571Y-103245000D01*
X124946190Y-103292619D01*
X124993809Y-103387857D01*
X124993809Y-103530714D01*
X124946190Y-103625952D01*
X124898571Y-103673571D01*
X124803333Y-103721190D01*
X124422380Y-103721190D01*
X125898571Y-104197380D02*
X125422380Y-104197380D01*
X125422380Y-103197380D01*
X126184285Y-103911666D02*
X126660476Y-103911666D01*
X126089047Y-104197380D02*
X126422380Y-103197380D01*
X126755714Y-104197380D01*
X127660476Y-104102142D02*
X127612857Y-104149761D01*
X127470000Y-104197380D01*
X127374761Y-104197380D01*
X127231904Y-104149761D01*
X127136666Y-104054523D01*
X127089047Y-103959285D01*
X127041428Y-103768809D01*
X127041428Y-103625952D01*
X127089047Y-103435476D01*
X127136666Y-103340238D01*
X127231904Y-103245000D01*
X127374761Y-103197380D01*
X127470000Y-103197380D01*
X127612857Y-103245000D01*
X127660476Y-103292619D01*
X128089047Y-103673571D02*
X128422380Y-103673571D01*
X128565238Y-104197380D02*
X128089047Y-104197380D01*
X128089047Y-103197380D01*
X128565238Y-103197380D01*
X121660476Y-105323571D02*
X121803333Y-105371190D01*
X121850952Y-105418809D01*
X121898571Y-105514047D01*
X121898571Y-105656904D01*
X121850952Y-105752142D01*
X121803333Y-105799761D01*
X121708095Y-105847380D01*
X121327142Y-105847380D01*
X121327142Y-104847380D01*
X121660476Y-104847380D01*
X121755714Y-104895000D01*
X121803333Y-104942619D01*
X121850952Y-105037857D01*
X121850952Y-105133095D01*
X121803333Y-105228333D01*
X121755714Y-105275952D01*
X121660476Y-105323571D01*
X121327142Y-105323571D01*
X122279523Y-105561666D02*
X122755714Y-105561666D01*
X122184285Y-105847380D02*
X122517619Y-104847380D01*
X122850952Y-105847380D01*
X123041428Y-104847380D02*
X123612857Y-104847380D01*
X123327142Y-105847380D02*
X123327142Y-104847380D01*
X123803333Y-104847380D02*
X124374761Y-104847380D01*
X124089047Y-105847380D02*
X124089047Y-104847380D01*
X124708095Y-105323571D02*
X125041428Y-105323571D01*
X125184285Y-105847380D02*
X124708095Y-105847380D01*
X124708095Y-104847380D01*
X125184285Y-104847380D01*
X126184285Y-105847380D02*
X125850952Y-105371190D01*
X125612857Y-105847380D02*
X125612857Y-104847380D01*
X125993809Y-104847380D01*
X126089047Y-104895000D01*
X126136666Y-104942619D01*
X126184285Y-105037857D01*
X126184285Y-105180714D01*
X126136666Y-105275952D01*
X126089047Y-105323571D01*
X125993809Y-105371190D01*
X125612857Y-105371190D01*
X126803333Y-105371190D02*
X126803333Y-105847380D01*
X126470000Y-104847380D02*
X126803333Y-105371190D01*
X127136666Y-104847380D01*
X128231904Y-105847380D02*
X128231904Y-104847380D01*
X128231904Y-105323571D02*
X128803333Y-105323571D01*
X128803333Y-105847380D02*
X128803333Y-104847380D01*
X129279523Y-105323571D02*
X129612857Y-105323571D01*
X129755714Y-105847380D02*
X129279523Y-105847380D01*
X129279523Y-104847380D01*
X129755714Y-104847380D01*
X130755714Y-105847380D02*
X130422380Y-105371190D01*
X130184285Y-105847380D02*
X130184285Y-104847380D01*
X130565238Y-104847380D01*
X130660476Y-104895000D01*
X130708095Y-104942619D01*
X130755714Y-105037857D01*
X130755714Y-105180714D01*
X130708095Y-105275952D01*
X130660476Y-105323571D01*
X130565238Y-105371190D01*
X130184285Y-105371190D01*
X131184285Y-105323571D02*
X131517619Y-105323571D01*
X131660476Y-105847380D02*
X131184285Y-105847380D01*
X131184285Y-104847380D01*
X131660476Y-104847380D01*
D11*
X142060000Y-110360000D02*
X110780000Y-110360000D01*
X142080000Y-98050000D02*
X142070000Y-110370000D01*
X110770000Y-98050000D02*
X142080000Y-98050000D01*
D10*
X110780000Y-98060000D02*
X110790000Y-110340000D01*
D12*
%TO.C,G\u002A\u002A\u002A*%
G36*
X228726943Y-101074801D02*
G01*
X228743667Y-101170999D01*
X228726077Y-101256962D01*
X228677178Y-101265007D01*
X228616667Y-101210834D01*
X228585385Y-101142836D01*
X228616280Y-101084300D01*
X228680692Y-101041235D01*
X228726943Y-101074801D01*
G37*
X228726943Y-101074801D02*
X228743667Y-101170999D01*
X228726077Y-101256962D01*
X228677178Y-101265007D01*
X228616667Y-101210834D01*
X228585385Y-101142836D01*
X228616280Y-101084300D01*
X228680692Y-101041235D01*
X228726943Y-101074801D01*
G36*
X227081722Y-100852849D02*
G01*
X227219634Y-100880560D01*
X227347180Y-100920105D01*
X227434580Y-100965255D01*
X227442934Y-100972667D01*
X227463262Y-101038718D01*
X227458977Y-101147031D01*
X227455886Y-101165338D01*
X227435784Y-101253038D01*
X227402250Y-101297940D01*
X227331351Y-101314373D01*
X227203143Y-101316667D01*
X227042269Y-101305439D01*
X226941686Y-101267925D01*
X226908728Y-101239250D01*
X226856536Y-101137616D01*
X226851518Y-101098020D01*
X226974367Y-101098020D01*
X226981754Y-101128194D01*
X227037873Y-101172689D01*
X227136469Y-101189729D01*
X227239950Y-101179390D01*
X227310726Y-101141745D01*
X227319122Y-101127523D01*
X227318671Y-101059403D01*
X227302485Y-101040358D01*
X227267781Y-101051026D01*
X227262000Y-101081335D01*
X227240208Y-101139755D01*
X227193927Y-101136915D01*
X227151801Y-101077475D01*
X227147266Y-101062667D01*
X227099873Y-100992247D01*
X227031318Y-100983173D01*
X226985581Y-101022361D01*
X226974367Y-101098020D01*
X226851518Y-101098020D01*
X226840662Y-101012363D01*
X226862578Y-100901373D01*
X226893924Y-100857841D01*
X226963226Y-100843200D01*
X227081722Y-100852849D01*
G37*
X227081722Y-100852849D02*
X227219634Y-100880560D01*
X227347180Y-100920105D01*
X227434580Y-100965255D01*
X227442934Y-100972667D01*
X227463262Y-101038718D01*
X227458977Y-101147031D01*
X227455886Y-101165338D01*
X227435784Y-101253038D01*
X227402250Y-101297940D01*
X227331351Y-101314373D01*
X227203143Y-101316667D01*
X227042269Y-101305439D01*
X226941686Y-101267925D01*
X226908728Y-101239250D01*
X226856536Y-101137616D01*
X226851518Y-101098020D01*
X226974367Y-101098020D01*
X226981754Y-101128194D01*
X227037873Y-101172689D01*
X227136469Y-101189729D01*
X227239950Y-101179390D01*
X227310726Y-101141745D01*
X227319122Y-101127523D01*
X227318671Y-101059403D01*
X227302485Y-101040358D01*
X227267781Y-101051026D01*
X227262000Y-101081335D01*
X227240208Y-101139755D01*
X227193927Y-101136915D01*
X227151801Y-101077475D01*
X227147266Y-101062667D01*
X227099873Y-100992247D01*
X227031318Y-100983173D01*
X226985581Y-101022361D01*
X226974367Y-101098020D01*
X226851518Y-101098020D01*
X226840662Y-101012363D01*
X226862578Y-100901373D01*
X226893924Y-100857841D01*
X226963226Y-100843200D01*
X227081722Y-100852849D01*
G36*
X228457594Y-100801994D02*
G01*
X228483992Y-100859731D01*
X228455800Y-100901800D01*
X228417679Y-100979950D01*
X228405000Y-101070046D01*
X228443399Y-101181269D01*
X228548458Y-101262591D01*
X228704971Y-101305705D01*
X228841297Y-101308401D01*
X228954183Y-101294266D01*
X229005598Y-101263518D01*
X229018729Y-101200650D01*
X229018834Y-101189667D01*
X229005692Y-101129374D01*
X228957254Y-101079727D01*
X228860005Y-101033330D01*
X228700425Y-100982790D01*
X228582234Y-100950820D01*
X228548762Y-100911453D01*
X228555972Y-100888795D01*
X228617892Y-100860042D01*
X228728640Y-100861474D01*
X228859899Y-100888392D01*
X228983351Y-100936097D01*
X229036335Y-100968502D01*
X229120149Y-101070700D01*
X229161115Y-101201657D01*
X229152151Y-101327265D01*
X229122372Y-101382932D01*
X229040840Y-101425200D01*
X228905199Y-101442732D01*
X228741986Y-101436567D01*
X228577741Y-101407743D01*
X228439002Y-101357298D01*
X228436750Y-101356118D01*
X228340783Y-101299000D01*
X228294144Y-101239762D01*
X228279156Y-101146193D01*
X228278000Y-101066839D01*
X228293527Y-100916374D01*
X228334583Y-100814367D01*
X228392883Y-100773036D01*
X228457594Y-100801994D01*
G37*
X228457594Y-100801994D02*
X228483992Y-100859731D01*
X228455800Y-100901800D01*
X228417679Y-100979950D01*
X228405000Y-101070046D01*
X228443399Y-101181269D01*
X228548458Y-101262591D01*
X228704971Y-101305705D01*
X228841297Y-101308401D01*
X228954183Y-101294266D01*
X229005598Y-101263518D01*
X229018729Y-101200650D01*
X229018834Y-101189667D01*
X229005692Y-101129374D01*
X228957254Y-101079727D01*
X228860005Y-101033330D01*
X228700425Y-100982790D01*
X228582234Y-100950820D01*
X228548762Y-100911453D01*
X228555972Y-100888795D01*
X228617892Y-100860042D01*
X228728640Y-100861474D01*
X228859899Y-100888392D01*
X228983351Y-100936097D01*
X229036335Y-100968502D01*
X229120149Y-101070700D01*
X229161115Y-101201657D01*
X229152151Y-101327265D01*
X229122372Y-101382932D01*
X229040840Y-101425200D01*
X228905199Y-101442732D01*
X228741986Y-101436567D01*
X228577741Y-101407743D01*
X228439002Y-101357298D01*
X228436750Y-101356118D01*
X228340783Y-101299000D01*
X228294144Y-101239762D01*
X228279156Y-101146193D01*
X228278000Y-101066839D01*
X228293527Y-100916374D01*
X228334583Y-100814367D01*
X228392883Y-100773036D01*
X228457594Y-100801994D01*
G36*
X228297357Y-102329747D02*
G01*
X228298015Y-102330803D01*
X228298595Y-102394812D01*
X228267867Y-102498675D01*
X228218943Y-102610170D01*
X228164936Y-102697073D01*
X228138775Y-102722118D01*
X228066450Y-102740071D01*
X227941015Y-102748812D01*
X227793543Y-102748182D01*
X227655105Y-102738023D01*
X227579500Y-102724980D01*
X227446342Y-102668874D01*
X227334106Y-102581925D01*
X227257046Y-102481878D01*
X227229416Y-102386477D01*
X227255768Y-102321965D01*
X227301503Y-102313114D01*
X227347653Y-102381425D01*
X227426450Y-102493740D01*
X227550792Y-102567042D01*
X227736436Y-102609342D01*
X227812476Y-102617740D01*
X228052922Y-102639543D01*
X228122785Y-102464938D01*
X228187314Y-102336554D01*
X228245178Y-102291740D01*
X228297357Y-102329747D01*
G37*
X228297357Y-102329747D02*
X228298015Y-102330803D01*
X228298595Y-102394812D01*
X228267867Y-102498675D01*
X228218943Y-102610170D01*
X228164936Y-102697073D01*
X228138775Y-102722118D01*
X228066450Y-102740071D01*
X227941015Y-102748812D01*
X227793543Y-102748182D01*
X227655105Y-102738023D01*
X227579500Y-102724980D01*
X227446342Y-102668874D01*
X227334106Y-102581925D01*
X227257046Y-102481878D01*
X227229416Y-102386477D01*
X227255768Y-102321965D01*
X227301503Y-102313114D01*
X227347653Y-102381425D01*
X227426450Y-102493740D01*
X227550792Y-102567042D01*
X227736436Y-102609342D01*
X227812476Y-102617740D01*
X228052922Y-102639543D01*
X228122785Y-102464938D01*
X228187314Y-102336554D01*
X228245178Y-102291740D01*
X228297357Y-102329747D01*
G36*
X234596384Y-100000916D02*
G01*
X234640318Y-100104951D01*
X234666635Y-100238328D01*
X234670334Y-100310086D01*
X234660703Y-100449962D01*
X234630899Y-100509696D01*
X234579554Y-100491703D01*
X234571556Y-100484111D01*
X234552339Y-100426147D01*
X234543413Y-100322855D01*
X234543334Y-100311995D01*
X234529714Y-100184821D01*
X234497078Y-100081672D01*
X234474375Y-99988679D01*
X234492179Y-99953888D01*
X234543961Y-99944478D01*
X234596384Y-100000916D01*
G37*
X234596384Y-100000916D02*
X234640318Y-100104951D01*
X234666635Y-100238328D01*
X234670334Y-100310086D01*
X234660703Y-100449962D01*
X234630899Y-100509696D01*
X234579554Y-100491703D01*
X234571556Y-100484111D01*
X234552339Y-100426147D01*
X234543413Y-100322855D01*
X234543334Y-100311995D01*
X234529714Y-100184821D01*
X234497078Y-100081672D01*
X234474375Y-99988679D01*
X234492179Y-99953888D01*
X234543961Y-99944478D01*
X234596384Y-100000916D01*
G36*
X233340934Y-100406186D02*
G01*
X233373923Y-100522091D01*
X233374120Y-100522917D01*
X233372936Y-100612528D01*
X233328207Y-100646642D01*
X233259222Y-100611111D01*
X233234334Y-100543458D01*
X233235204Y-100449253D01*
X233259659Y-100376153D01*
X233270408Y-100365975D01*
X233309718Y-100359125D01*
X233340934Y-100406186D01*
G37*
X233340934Y-100406186D02*
X233373923Y-100522091D01*
X233374120Y-100522917D01*
X233372936Y-100612528D01*
X233328207Y-100646642D01*
X233259222Y-100611111D01*
X233234334Y-100543458D01*
X233235204Y-100449253D01*
X233259659Y-100376153D01*
X233270408Y-100365975D01*
X233309718Y-100359125D01*
X233340934Y-100406186D01*
G36*
X234128215Y-100021116D02*
G01*
X234157022Y-100118180D01*
X234170553Y-100194834D01*
X234194266Y-100351875D01*
X234219463Y-100498698D01*
X234228274Y-100544084D01*
X234236544Y-100647489D01*
X234211456Y-100680583D01*
X234164131Y-100645097D01*
X234105692Y-100542759D01*
X234097481Y-100523734D01*
X234064666Y-100407509D01*
X234047745Y-100270618D01*
X234046655Y-100137913D01*
X234061335Y-100034250D01*
X234091722Y-99984483D01*
X234098834Y-99983167D01*
X234128215Y-100021116D01*
G37*
X234128215Y-100021116D02*
X234157022Y-100118180D01*
X234170553Y-100194834D01*
X234194266Y-100351875D01*
X234219463Y-100498698D01*
X234228274Y-100544084D01*
X234236544Y-100647489D01*
X234211456Y-100680583D01*
X234164131Y-100645097D01*
X234105692Y-100542759D01*
X234097481Y-100523734D01*
X234064666Y-100407509D01*
X234047745Y-100270618D01*
X234046655Y-100137913D01*
X234061335Y-100034250D01*
X234091722Y-99984483D01*
X234098834Y-99983167D01*
X234128215Y-100021116D01*
G36*
X233877624Y-100488262D02*
G01*
X233909091Y-100574342D01*
X233912637Y-100590339D01*
X233945751Y-100701306D01*
X233986378Y-100776538D01*
X233988456Y-100778722D01*
X234032728Y-100848787D01*
X234005974Y-100888826D01*
X233972809Y-100893334D01*
X233906059Y-100860839D01*
X233842733Y-100790236D01*
X233801939Y-100690129D01*
X233790252Y-100580015D01*
X233807635Y-100491743D01*
X233843098Y-100458101D01*
X233877624Y-100488262D01*
G37*
X233877624Y-100488262D02*
X233909091Y-100574342D01*
X233912637Y-100590339D01*
X233945751Y-100701306D01*
X233986378Y-100776538D01*
X233988456Y-100778722D01*
X234032728Y-100848787D01*
X234005974Y-100888826D01*
X233972809Y-100893334D01*
X233906059Y-100860839D01*
X233842733Y-100790236D01*
X233801939Y-100690129D01*
X233790252Y-100580015D01*
X233807635Y-100491743D01*
X233843098Y-100458101D01*
X233877624Y-100488262D01*
G36*
X234857190Y-100749987D02*
G01*
X234934509Y-100796866D01*
X234994964Y-100860853D01*
X235009000Y-100899895D01*
X234980724Y-100934617D01*
X234914187Y-100922503D01*
X234836829Y-100870121D01*
X234822304Y-100855203D01*
X234777503Y-100782939D01*
X234797243Y-100745223D01*
X234857190Y-100749987D01*
G37*
X234857190Y-100749987D02*
X234934509Y-100796866D01*
X234994964Y-100860853D01*
X235009000Y-100899895D01*
X234980724Y-100934617D01*
X234914187Y-100922503D01*
X234836829Y-100870121D01*
X234822304Y-100855203D01*
X234777503Y-100782939D01*
X234797243Y-100745223D01*
X234857190Y-100749987D01*
G36*
X234215008Y-100938600D02*
G01*
X234232295Y-100958512D01*
X234277675Y-101034132D01*
X234289334Y-101070758D01*
X234260236Y-101103495D01*
X234199044Y-101097444D01*
X234144910Y-101059561D01*
X234136087Y-101043527D01*
X234126621Y-100960115D01*
X234159873Y-100919002D01*
X234215008Y-100938600D01*
G37*
X234215008Y-100938600D02*
X234232295Y-100958512D01*
X234277675Y-101034132D01*
X234289334Y-101070758D01*
X234260236Y-101103495D01*
X234199044Y-101097444D01*
X234144910Y-101059561D01*
X234136087Y-101043527D01*
X234126621Y-100960115D01*
X234159873Y-100919002D01*
X234215008Y-100938600D01*
G36*
X233511440Y-100964492D02*
G01*
X233511542Y-101025876D01*
X233526643Y-101041073D01*
X233567890Y-101095090D01*
X233569667Y-101107499D01*
X233539107Y-101142711D01*
X233475375Y-101140645D01*
X233420398Y-101103125D01*
X233418989Y-101100938D01*
X233423821Y-101040128D01*
X233464788Y-100984521D01*
X233510360Y-100949296D01*
X233511440Y-100964492D01*
G37*
X233511440Y-100964492D02*
X233511542Y-101025876D01*
X233526643Y-101041073D01*
X233567890Y-101095090D01*
X233569667Y-101107499D01*
X233539107Y-101142711D01*
X233475375Y-101140645D01*
X233420398Y-101103125D01*
X233418989Y-101100938D01*
X233423821Y-101040128D01*
X233464788Y-100984521D01*
X233510360Y-100949296D01*
X233511440Y-100964492D01*
G36*
X235454384Y-101255593D02*
G01*
X235506893Y-101380167D01*
X235548121Y-101495673D01*
X235580699Y-101581250D01*
X235584860Y-101642372D01*
X235544341Y-101655334D01*
X235488792Y-101618957D01*
X235419279Y-101523015D01*
X235375162Y-101440541D01*
X235319168Y-101314631D01*
X235301813Y-101243688D01*
X235319883Y-101209081D01*
X235334029Y-101202087D01*
X235400195Y-101198847D01*
X235454384Y-101255593D01*
G37*
X235454384Y-101255593D02*
X235506893Y-101380167D01*
X235548121Y-101495673D01*
X235580699Y-101581250D01*
X235584860Y-101642372D01*
X235544341Y-101655334D01*
X235488792Y-101618957D01*
X235419279Y-101523015D01*
X235375162Y-101440541D01*
X235319168Y-101314631D01*
X235301813Y-101243688D01*
X235319883Y-101209081D01*
X235334029Y-101202087D01*
X235400195Y-101198847D01*
X235454384Y-101255593D01*
G36*
X233757592Y-101356969D02*
G01*
X233762021Y-101360539D01*
X233802182Y-101426615D01*
X233821483Y-101519742D01*
X233817888Y-101606537D01*
X233789359Y-101653617D01*
X233780005Y-101655334D01*
X233732330Y-101620634D01*
X233713415Y-101581250D01*
X233672596Y-101477122D01*
X233652110Y-101435046D01*
X233639729Y-101360100D01*
X233683093Y-101328514D01*
X233757592Y-101356969D01*
G37*
X233757592Y-101356969D02*
X233762021Y-101360539D01*
X233802182Y-101426615D01*
X233821483Y-101519742D01*
X233817888Y-101606537D01*
X233789359Y-101653617D01*
X233780005Y-101655334D01*
X233732330Y-101620634D01*
X233713415Y-101581250D01*
X233672596Y-101477122D01*
X233652110Y-101435046D01*
X233639729Y-101360100D01*
X233683093Y-101328514D01*
X233757592Y-101356969D01*
G36*
X234708215Y-101470049D02*
G01*
X234756685Y-101528610D01*
X234813881Y-101611889D01*
X234838706Y-101665490D01*
X234838726Y-101665917D01*
X234810629Y-101696620D01*
X234745984Y-101687123D01*
X234678961Y-101643776D01*
X234670781Y-101634706D01*
X234639928Y-101546306D01*
X234647057Y-101497399D01*
X234672622Y-101453795D01*
X234708215Y-101470049D01*
G37*
X234708215Y-101470049D02*
X234756685Y-101528610D01*
X234813881Y-101611889D01*
X234838706Y-101665490D01*
X234838726Y-101665917D01*
X234810629Y-101696620D01*
X234745984Y-101687123D01*
X234678961Y-101643776D01*
X234670781Y-101634706D01*
X234639928Y-101546306D01*
X234647057Y-101497399D01*
X234672622Y-101453795D01*
X234708215Y-101470049D01*
G36*
X235817536Y-102103637D02*
G01*
X235877271Y-102179847D01*
X235898067Y-102250789D01*
X235873355Y-102289025D01*
X235862228Y-102290334D01*
X235809675Y-102262062D01*
X235752248Y-102208334D01*
X235703372Y-102126513D01*
X235710101Y-102072647D01*
X235760175Y-102066396D01*
X235817536Y-102103637D01*
G37*
X235817536Y-102103637D02*
X235877271Y-102179847D01*
X235898067Y-102250789D01*
X235873355Y-102289025D01*
X235862228Y-102290334D01*
X235809675Y-102262062D01*
X235752248Y-102208334D01*
X235703372Y-102126513D01*
X235710101Y-102072647D01*
X235760175Y-102066396D01*
X235817536Y-102103637D01*
G36*
X234797035Y-102099649D02*
G01*
X234829405Y-102154029D01*
X234838523Y-102236740D01*
X234824562Y-102308822D01*
X234796005Y-102332667D01*
X234744453Y-102298837D01*
X234727976Y-102269167D01*
X234718576Y-102187419D01*
X234741476Y-102118660D01*
X234783832Y-102094414D01*
X234797035Y-102099649D01*
G37*
X234797035Y-102099649D02*
X234829405Y-102154029D01*
X234838523Y-102236740D01*
X234824562Y-102308822D01*
X234796005Y-102332667D01*
X234744453Y-102298837D01*
X234727976Y-102269167D01*
X234718576Y-102187419D01*
X234741476Y-102118660D01*
X234783832Y-102094414D01*
X234797035Y-102099649D01*
G36*
X235188971Y-102121239D02*
G01*
X235198311Y-102208573D01*
X235191460Y-102368037D01*
X235188590Y-102406750D01*
X235171402Y-102566189D01*
X235147956Y-102650117D01*
X235114041Y-102667664D01*
X235079556Y-102643111D01*
X235056187Y-102574968D01*
X235049270Y-102456767D01*
X235056826Y-102321084D01*
X235076880Y-102200499D01*
X235107451Y-102127588D01*
X235111065Y-102124128D01*
X235160776Y-102096327D01*
X235188971Y-102121239D01*
G37*
X235188971Y-102121239D02*
X235198311Y-102208573D01*
X235191460Y-102368037D01*
X235188590Y-102406750D01*
X235171402Y-102566189D01*
X235147956Y-102650117D01*
X235114041Y-102667664D01*
X235079556Y-102643111D01*
X235056187Y-102574968D01*
X235049270Y-102456767D01*
X235056826Y-102321084D01*
X235076880Y-102200499D01*
X235107451Y-102127588D01*
X235111065Y-102124128D01*
X235160776Y-102096327D01*
X235188971Y-102121239D01*
G36*
X235009000Y-102692500D02*
G01*
X234987834Y-102713667D01*
X234966667Y-102692500D01*
X234987834Y-102671334D01*
X235009000Y-102692500D01*
G37*
X235009000Y-102692500D02*
X234987834Y-102713667D01*
X234966667Y-102692500D01*
X234987834Y-102671334D01*
X235009000Y-102692500D01*
G36*
X236112592Y-102821308D02*
G01*
X236146882Y-102873767D01*
X236146386Y-102937435D01*
X236112165Y-102967667D01*
X236054832Y-102936895D01*
X236046167Y-102925334D01*
X236037885Y-102862552D01*
X236071481Y-102818505D01*
X236112592Y-102821308D01*
G37*
X236112592Y-102821308D02*
X236146882Y-102873767D01*
X236146386Y-102937435D01*
X236112165Y-102967667D01*
X236054832Y-102936895D01*
X236046167Y-102925334D01*
X236037885Y-102862552D01*
X236071481Y-102818505D01*
X236112592Y-102821308D01*
G36*
X233966365Y-101915040D02*
G01*
X234017190Y-102020050D01*
X234079124Y-102195543D01*
X234137404Y-102361012D01*
X234198291Y-102512188D01*
X234244772Y-102609001D01*
X234284215Y-102695023D01*
X234336109Y-102829650D01*
X234392076Y-102988139D01*
X234443739Y-103145746D01*
X234482721Y-103277728D01*
X234500645Y-103359342D01*
X234501000Y-103365822D01*
X234474364Y-103390933D01*
X234417413Y-103369598D01*
X234383185Y-103338084D01*
X234348573Y-103270741D01*
X234303520Y-103150524D01*
X234267633Y-103036484D01*
X234214923Y-102876148D01*
X234155970Y-102728278D01*
X234120220Y-102655484D01*
X234062315Y-102535892D01*
X234002775Y-102384301D01*
X233948628Y-102223181D01*
X233906901Y-102075002D01*
X233884622Y-101962235D01*
X233886974Y-101909645D01*
X233924386Y-101880360D01*
X233966365Y-101915040D01*
G37*
X233966365Y-101915040D02*
X234017190Y-102020050D01*
X234079124Y-102195543D01*
X234137404Y-102361012D01*
X234198291Y-102512188D01*
X234244772Y-102609001D01*
X234284215Y-102695023D01*
X234336109Y-102829650D01*
X234392076Y-102988139D01*
X234443739Y-103145746D01*
X234482721Y-103277728D01*
X234500645Y-103359342D01*
X234501000Y-103365822D01*
X234474364Y-103390933D01*
X234417413Y-103369598D01*
X234383185Y-103338084D01*
X234348573Y-103270741D01*
X234303520Y-103150524D01*
X234267633Y-103036484D01*
X234214923Y-102876148D01*
X234155970Y-102728278D01*
X234120220Y-102655484D01*
X234062315Y-102535892D01*
X234002775Y-102384301D01*
X233948628Y-102223181D01*
X233906901Y-102075002D01*
X233884622Y-101962235D01*
X233886974Y-101909645D01*
X233924386Y-101880360D01*
X233966365Y-101915040D01*
G36*
X235173856Y-103220362D02*
G01*
X235234087Y-103287895D01*
X235294833Y-103379090D01*
X235337849Y-103467701D01*
X235347667Y-103512414D01*
X235326849Y-103558319D01*
X235272369Y-103538293D01*
X235196188Y-103457725D01*
X235181216Y-103437382D01*
X235109554Y-103317647D01*
X235099648Y-103240628D01*
X235132384Y-103202735D01*
X235173856Y-103220362D01*
G37*
X235173856Y-103220362D02*
X235234087Y-103287895D01*
X235294833Y-103379090D01*
X235337849Y-103467701D01*
X235347667Y-103512414D01*
X235326849Y-103558319D01*
X235272369Y-103538293D01*
X235196188Y-103457725D01*
X235181216Y-103437382D01*
X235109554Y-103317647D01*
X235099648Y-103240628D01*
X235132384Y-103202735D01*
X235173856Y-103220362D01*
G36*
X236075991Y-103351806D02*
G01*
X236117424Y-103466603D01*
X236149263Y-103605923D01*
X236179833Y-103752663D01*
X236207390Y-103870298D01*
X236223003Y-103924454D01*
X236210857Y-103969838D01*
X236157307Y-103985150D01*
X236102886Y-103961647D01*
X236095700Y-103951917D01*
X236068885Y-103876343D01*
X236040684Y-103751632D01*
X236015985Y-103607782D01*
X235999676Y-103474789D01*
X235996644Y-103382647D01*
X235999997Y-103364567D01*
X236036384Y-103317043D01*
X236075991Y-103351806D01*
G37*
X236075991Y-103351806D02*
X236117424Y-103466603D01*
X236149263Y-103605923D01*
X236179833Y-103752663D01*
X236207390Y-103870298D01*
X236223003Y-103924454D01*
X236210857Y-103969838D01*
X236157307Y-103985150D01*
X236102886Y-103961647D01*
X236095700Y-103951917D01*
X236068885Y-103876343D01*
X236040684Y-103751632D01*
X236015985Y-103607782D01*
X235999676Y-103474789D01*
X235996644Y-103382647D01*
X235999997Y-103364567D01*
X236036384Y-103317043D01*
X236075991Y-103351806D01*
G36*
X234632318Y-103791148D02*
G01*
X234672436Y-103877439D01*
X234712691Y-103991172D01*
X234743255Y-104104907D01*
X234754358Y-104184750D01*
X234737375Y-104237147D01*
X234694096Y-104225097D01*
X234639224Y-104158227D01*
X234602296Y-104085171D01*
X234560393Y-103946165D01*
X234555226Y-103832527D01*
X234586804Y-103766593D01*
X234602161Y-103759740D01*
X234632318Y-103791148D01*
G37*
X234632318Y-103791148D02*
X234672436Y-103877439D01*
X234712691Y-103991172D01*
X234743255Y-104104907D01*
X234754358Y-104184750D01*
X234737375Y-104237147D01*
X234694096Y-104225097D01*
X234639224Y-104158227D01*
X234602296Y-104085171D01*
X234560393Y-103946165D01*
X234555226Y-103832527D01*
X234586804Y-103766593D01*
X234602161Y-103759740D01*
X234632318Y-103791148D01*
G36*
X236197259Y-104472308D02*
G01*
X236229890Y-104526136D01*
X236233906Y-104601058D01*
X236210258Y-104654854D01*
X236193005Y-104661000D01*
X236141120Y-104627259D01*
X236125754Y-104599527D01*
X236120053Y-104522698D01*
X236151931Y-104471369D01*
X236197259Y-104472308D01*
G37*
X236197259Y-104472308D02*
X236229890Y-104526136D01*
X236233906Y-104601058D01*
X236210258Y-104654854D01*
X236193005Y-104661000D01*
X236141120Y-104627259D01*
X236125754Y-104599527D01*
X236120053Y-104522698D01*
X236151931Y-104471369D01*
X236197259Y-104472308D01*
G36*
X235335986Y-104084875D02*
G01*
X235361320Y-104136119D01*
X235400746Y-104240830D01*
X235445013Y-104371090D01*
X235484868Y-104498980D01*
X235511061Y-104596582D01*
X235516377Y-104629250D01*
X235491104Y-104659998D01*
X235434587Y-104640716D01*
X235399556Y-104608084D01*
X235352354Y-104524599D01*
X235314776Y-104412725D01*
X235289176Y-104291842D01*
X235277908Y-104181331D01*
X235283328Y-104100573D01*
X235307789Y-104068946D01*
X235335986Y-104084875D01*
G37*
X235335986Y-104084875D02*
X235361320Y-104136119D01*
X235400746Y-104240830D01*
X235445013Y-104371090D01*
X235484868Y-104498980D01*
X235511061Y-104596582D01*
X235516377Y-104629250D01*
X235491104Y-104659998D01*
X235434587Y-104640716D01*
X235399556Y-104608084D01*
X235352354Y-104524599D01*
X235314776Y-104412725D01*
X235289176Y-104291842D01*
X235277908Y-104181331D01*
X235283328Y-104100573D01*
X235307789Y-104068946D01*
X235335986Y-104084875D01*
G36*
X234858101Y-104640836D02*
G01*
X234925678Y-104703334D01*
X234983037Y-104786682D01*
X235008034Y-104840399D01*
X235008059Y-104840917D01*
X234982328Y-104874214D01*
X234920189Y-104861605D01*
X234849502Y-104812304D01*
X234821293Y-104779141D01*
X234780307Y-104685196D01*
X234799179Y-104634299D01*
X234858101Y-104640836D01*
G37*
X234858101Y-104640836D02*
X234925678Y-104703334D01*
X234983037Y-104786682D01*
X235008034Y-104840399D01*
X235008059Y-104840917D01*
X234982328Y-104874214D01*
X234920189Y-104861605D01*
X234849502Y-104812304D01*
X234821293Y-104779141D01*
X234780307Y-104685196D01*
X234799179Y-104634299D01*
X234858101Y-104640836D01*
G36*
X236388602Y-105172128D02*
G01*
X236439694Y-105232495D01*
X236448334Y-105258850D01*
X236417375Y-105291701D01*
X236353605Y-105289738D01*
X236300685Y-105254489D01*
X236300167Y-105253667D01*
X236288726Y-105185278D01*
X236330359Y-105151611D01*
X236388602Y-105172128D01*
G37*
X236388602Y-105172128D02*
X236439694Y-105232495D01*
X236448334Y-105258850D01*
X236417375Y-105291701D01*
X236353605Y-105289738D01*
X236300685Y-105254489D01*
X236300167Y-105253667D01*
X236288726Y-105185278D01*
X236330359Y-105151611D01*
X236388602Y-105172128D01*
G36*
X235647850Y-105251152D02*
G01*
X235708003Y-105319011D01*
X235786487Y-105424337D01*
X235805705Y-105482549D01*
X235767058Y-105505590D01*
X235730156Y-105507667D01*
X235646161Y-105473484D01*
X235599896Y-105419692D01*
X235572885Y-105322027D01*
X235579265Y-105262787D01*
X235605262Y-105228401D01*
X235647850Y-105251152D01*
G37*
X235647850Y-105251152D02*
X235708003Y-105319011D01*
X235786487Y-105424337D01*
X235805705Y-105482549D01*
X235767058Y-105505590D01*
X235730156Y-105507667D01*
X235646161Y-105473484D01*
X235599896Y-105419692D01*
X235572885Y-105322027D01*
X235579265Y-105262787D01*
X235605262Y-105228401D01*
X235647850Y-105251152D01*
G36*
X215717198Y-99087686D02*
G01*
X215819001Y-99170885D01*
X215907568Y-99288639D01*
X216037341Y-99461177D01*
X216171959Y-99604845D01*
X216296272Y-99705632D01*
X216395126Y-99749523D01*
X216406800Y-99750334D01*
X216503330Y-99722348D01*
X216608504Y-99654016D01*
X216619167Y-99644500D01*
X216751979Y-99561078D01*
X216890165Y-99537669D01*
X217009926Y-99574835D01*
X217068013Y-99633917D01*
X217107836Y-99712374D01*
X217161308Y-99836895D01*
X217218485Y-99981603D01*
X217269425Y-100120619D01*
X217304184Y-100228063D01*
X217313667Y-100273263D01*
X217290451Y-100303032D01*
X217236727Y-100279290D01*
X217176378Y-100213412D01*
X217171194Y-100205417D01*
X217119385Y-100101982D01*
X217067700Y-99968119D01*
X217058868Y-99940834D01*
X216995378Y-99773099D01*
X216928648Y-99685407D01*
X216849431Y-99673347D01*
X216748477Y-99732508D01*
X216703834Y-99771500D01*
X216576098Y-99853363D01*
X216415931Y-99877334D01*
X216302607Y-99867534D01*
X216212039Y-99827203D01*
X216112164Y-99739945D01*
X216077679Y-99704361D01*
X215960172Y-99569934D01*
X215849175Y-99425596D01*
X215807551Y-99364133D01*
X215739471Y-99269678D01*
X215686054Y-99219067D01*
X215670272Y-99216466D01*
X215639588Y-99260275D01*
X215580913Y-99363835D01*
X215503237Y-99510735D01*
X215431710Y-99651944D01*
X215335440Y-99845589D01*
X215269862Y-99974864D01*
X215227307Y-100050880D01*
X215200107Y-100084744D01*
X215180592Y-100087568D01*
X215161094Y-100070459D01*
X215150453Y-100059386D01*
X215141799Y-99993369D01*
X215177796Y-99862556D01*
X215256261Y-99672685D01*
X215375014Y-99429495D01*
X215428807Y-99327000D01*
X215530401Y-99165079D01*
X215623765Y-99085529D01*
X215717198Y-99087686D01*
G37*
X215717198Y-99087686D02*
X215819001Y-99170885D01*
X215907568Y-99288639D01*
X216037341Y-99461177D01*
X216171959Y-99604845D01*
X216296272Y-99705632D01*
X216395126Y-99749523D01*
X216406800Y-99750334D01*
X216503330Y-99722348D01*
X216608504Y-99654016D01*
X216619167Y-99644500D01*
X216751979Y-99561078D01*
X216890165Y-99537669D01*
X217009926Y-99574835D01*
X217068013Y-99633917D01*
X217107836Y-99712374D01*
X217161308Y-99836895D01*
X217218485Y-99981603D01*
X217269425Y-100120619D01*
X217304184Y-100228063D01*
X217313667Y-100273263D01*
X217290451Y-100303032D01*
X217236727Y-100279290D01*
X217176378Y-100213412D01*
X217171194Y-100205417D01*
X217119385Y-100101982D01*
X217067700Y-99968119D01*
X217058868Y-99940834D01*
X216995378Y-99773099D01*
X216928648Y-99685407D01*
X216849431Y-99673347D01*
X216748477Y-99732508D01*
X216703834Y-99771500D01*
X216576098Y-99853363D01*
X216415931Y-99877334D01*
X216302607Y-99867534D01*
X216212039Y-99827203D01*
X216112164Y-99739945D01*
X216077679Y-99704361D01*
X215960172Y-99569934D01*
X215849175Y-99425596D01*
X215807551Y-99364133D01*
X215739471Y-99269678D01*
X215686054Y-99219067D01*
X215670272Y-99216466D01*
X215639588Y-99260275D01*
X215580913Y-99363835D01*
X215503237Y-99510735D01*
X215431710Y-99651944D01*
X215335440Y-99845589D01*
X215269862Y-99974864D01*
X215227307Y-100050880D01*
X215200107Y-100084744D01*
X215180592Y-100087568D01*
X215161094Y-100070459D01*
X215150453Y-100059386D01*
X215141799Y-99993369D01*
X215177796Y-99862556D01*
X215256261Y-99672685D01*
X215375014Y-99429495D01*
X215428807Y-99327000D01*
X215530401Y-99165079D01*
X215623765Y-99085529D01*
X215717198Y-99087686D01*
G36*
X211651902Y-97735916D02*
G01*
X211768880Y-97769470D01*
X211782106Y-97775417D01*
X211917239Y-97830201D01*
X212043167Y-97869073D01*
X212147379Y-97900125D01*
X212212500Y-97929727D01*
X212275762Y-97956224D01*
X212389175Y-97990825D01*
X212519902Y-98024857D01*
X212635108Y-98049649D01*
X212694357Y-98057000D01*
X212725489Y-98019712D01*
X212747547Y-97927974D01*
X212749695Y-97907949D01*
X212772732Y-97790543D01*
X212806427Y-97753950D01*
X212839473Y-97797214D01*
X212860414Y-97917304D01*
X212868633Y-98003646D01*
X212888075Y-98063135D01*
X212933201Y-98103211D01*
X213018470Y-98131315D01*
X213158341Y-98154886D01*
X213367274Y-98181366D01*
X213375556Y-98182381D01*
X213635378Y-98208354D01*
X213882412Y-98222369D01*
X214101185Y-98224526D01*
X214276225Y-98214925D01*
X214392059Y-98193669D01*
X214426533Y-98175534D01*
X214490803Y-98146225D01*
X214536064Y-98176586D01*
X214543419Y-98241617D01*
X214516147Y-98294075D01*
X214484437Y-98321872D01*
X214434635Y-98340078D01*
X214352828Y-98349602D01*
X214225101Y-98351356D01*
X214037540Y-98346252D01*
X213842724Y-98338183D01*
X213606304Y-98325722D01*
X213384748Y-98310464D01*
X213199321Y-98294119D01*
X213071286Y-98278397D01*
X213048584Y-98274332D01*
X212868667Y-98237702D01*
X212868299Y-99110434D01*
X212865755Y-99525864D01*
X212858388Y-99859403D01*
X212846016Y-100113700D01*
X212828458Y-100291404D01*
X212805532Y-100395164D01*
X212778104Y-100427667D01*
X212736996Y-100399314D01*
X212736203Y-100395917D01*
X212735095Y-100346576D01*
X212734822Y-100224234D01*
X212735336Y-100040549D01*
X212736590Y-99807183D01*
X212738537Y-99535794D01*
X212740705Y-99283483D01*
X212750671Y-98202800D01*
X212481586Y-98147315D01*
X212335858Y-98113761D01*
X212222483Y-98081242D01*
X212170167Y-98059086D01*
X212100821Y-98026276D01*
X212000834Y-97996073D01*
X211865258Y-97954729D01*
X211746834Y-97908026D01*
X211621649Y-97862059D01*
X211514000Y-97837207D01*
X211434345Y-97812857D01*
X211408167Y-97781834D01*
X211444323Y-97742565D01*
X211534642Y-97727104D01*
X211651902Y-97735916D01*
G37*
X211651902Y-97735916D02*
X211768880Y-97769470D01*
X211782106Y-97775417D01*
X211917239Y-97830201D01*
X212043167Y-97869073D01*
X212147379Y-97900125D01*
X212212500Y-97929727D01*
X212275762Y-97956224D01*
X212389175Y-97990825D01*
X212519902Y-98024857D01*
X212635108Y-98049649D01*
X212694357Y-98057000D01*
X212725489Y-98019712D01*
X212747547Y-97927974D01*
X212749695Y-97907949D01*
X212772732Y-97790543D01*
X212806427Y-97753950D01*
X212839473Y-97797214D01*
X212860414Y-97917304D01*
X212868633Y-98003646D01*
X212888075Y-98063135D01*
X212933201Y-98103211D01*
X213018470Y-98131315D01*
X213158341Y-98154886D01*
X213367274Y-98181366D01*
X213375556Y-98182381D01*
X213635378Y-98208354D01*
X213882412Y-98222369D01*
X214101185Y-98224526D01*
X214276225Y-98214925D01*
X214392059Y-98193669D01*
X214426533Y-98175534D01*
X214490803Y-98146225D01*
X214536064Y-98176586D01*
X214543419Y-98241617D01*
X214516147Y-98294075D01*
X214484437Y-98321872D01*
X214434635Y-98340078D01*
X214352828Y-98349602D01*
X214225101Y-98351356D01*
X214037540Y-98346252D01*
X213842724Y-98338183D01*
X213606304Y-98325722D01*
X213384748Y-98310464D01*
X213199321Y-98294119D01*
X213071286Y-98278397D01*
X213048584Y-98274332D01*
X212868667Y-98237702D01*
X212868299Y-99110434D01*
X212865755Y-99525864D01*
X212858388Y-99859403D01*
X212846016Y-100113700D01*
X212828458Y-100291404D01*
X212805532Y-100395164D01*
X212778104Y-100427667D01*
X212736996Y-100399314D01*
X212736203Y-100395917D01*
X212735095Y-100346576D01*
X212734822Y-100224234D01*
X212735336Y-100040549D01*
X212736590Y-99807183D01*
X212738537Y-99535794D01*
X212740705Y-99283483D01*
X212750671Y-98202800D01*
X212481586Y-98147315D01*
X212335858Y-98113761D01*
X212222483Y-98081242D01*
X212170167Y-98059086D01*
X212100821Y-98026276D01*
X212000834Y-97996073D01*
X211865258Y-97954729D01*
X211746834Y-97908026D01*
X211621649Y-97862059D01*
X211514000Y-97837207D01*
X211434345Y-97812857D01*
X211408167Y-97781834D01*
X211444323Y-97742565D01*
X211534642Y-97727104D01*
X211651902Y-97735916D01*
G36*
X213919632Y-99102198D02*
G01*
X214104517Y-99140271D01*
X214307246Y-99227655D01*
X214494087Y-99346517D01*
X214630591Y-99478078D01*
X214688776Y-99571417D01*
X214719653Y-99677001D01*
X214730738Y-99825599D01*
X214731334Y-99890440D01*
X214727189Y-100049404D01*
X214708348Y-100155307D01*
X214665198Y-100239604D01*
X214599948Y-100320360D01*
X214500084Y-100417893D01*
X214405044Y-100461364D01*
X214300977Y-100470000D01*
X214216024Y-100463998D01*
X214140359Y-100438429D01*
X214055767Y-100381946D01*
X213944038Y-100283204D01*
X213839696Y-100182638D01*
X213546000Y-99895276D01*
X213546000Y-99840137D01*
X213660788Y-99840137D01*
X213919337Y-100091568D01*
X214083599Y-100239055D01*
X214211767Y-100320323D01*
X214316866Y-100338114D01*
X214411923Y-100295173D01*
X214494737Y-100212752D01*
X214579111Y-100057557D01*
X214611281Y-99874219D01*
X214590847Y-99692698D01*
X214517412Y-99542953D01*
X214503847Y-99527270D01*
X214363750Y-99411284D01*
X214185971Y-99310756D01*
X214009088Y-99245944D01*
X213946214Y-99234445D01*
X213845947Y-99250310D01*
X213771537Y-99328199D01*
X213718012Y-99475972D01*
X213687852Y-99642685D01*
X213660788Y-99840137D01*
X213546000Y-99840137D01*
X213546000Y-99638565D01*
X213555844Y-99461536D01*
X213591164Y-99332100D01*
X213644300Y-99238011D01*
X213718814Y-99144896D01*
X213795607Y-99106118D01*
X213914620Y-99101976D01*
X213919632Y-99102198D01*
G37*
X213919632Y-99102198D02*
X214104517Y-99140271D01*
X214307246Y-99227655D01*
X214494087Y-99346517D01*
X214630591Y-99478078D01*
X214688776Y-99571417D01*
X214719653Y-99677001D01*
X214730738Y-99825599D01*
X214731334Y-99890440D01*
X214727189Y-100049404D01*
X214708348Y-100155307D01*
X214665198Y-100239604D01*
X214599948Y-100320360D01*
X214500084Y-100417893D01*
X214405044Y-100461364D01*
X214300977Y-100470000D01*
X214216024Y-100463998D01*
X214140359Y-100438429D01*
X214055767Y-100381946D01*
X213944038Y-100283204D01*
X213839696Y-100182638D01*
X213546000Y-99895276D01*
X213546000Y-99840137D01*
X213660788Y-99840137D01*
X213919337Y-100091568D01*
X214083599Y-100239055D01*
X214211767Y-100320323D01*
X214316866Y-100338114D01*
X214411923Y-100295173D01*
X214494737Y-100212752D01*
X214579111Y-100057557D01*
X214611281Y-99874219D01*
X214590847Y-99692698D01*
X214517412Y-99542953D01*
X214503847Y-99527270D01*
X214363750Y-99411284D01*
X214185971Y-99310756D01*
X214009088Y-99245944D01*
X213946214Y-99234445D01*
X213845947Y-99250310D01*
X213771537Y-99328199D01*
X213718012Y-99475972D01*
X213687852Y-99642685D01*
X213660788Y-99840137D01*
X213546000Y-99840137D01*
X213546000Y-99638565D01*
X213555844Y-99461536D01*
X213591164Y-99332100D01*
X213644300Y-99238011D01*
X213718814Y-99144896D01*
X213795607Y-99106118D01*
X213914620Y-99101976D01*
X213919632Y-99102198D01*
G36*
X219573344Y-97642242D02*
G01*
X219692168Y-97664219D01*
X219754167Y-97699620D01*
X219752971Y-97735295D01*
X219682209Y-97758094D01*
X219630713Y-97760667D01*
X219482694Y-97794223D01*
X219315883Y-97884252D01*
X219155329Y-98014795D01*
X219056451Y-98126527D01*
X218985896Y-98219825D01*
X218935113Y-98285882D01*
X218931996Y-98289834D01*
X218872939Y-98386848D01*
X218813408Y-98517736D01*
X218768483Y-98645636D01*
X218753000Y-98727392D01*
X218737799Y-98835205D01*
X218713615Y-98917080D01*
X218695545Y-98977880D01*
X218712648Y-99011068D01*
X218782301Y-99028465D01*
X218893531Y-99039470D01*
X219074751Y-99074098D01*
X219278105Y-99142391D01*
X219477451Y-99232474D01*
X219646651Y-99332476D01*
X219759563Y-99430521D01*
X219762477Y-99434156D01*
X219830268Y-99565181D01*
X219853667Y-99690459D01*
X219844908Y-99822903D01*
X219822302Y-99969803D01*
X219791352Y-100107209D01*
X219757563Y-100211172D01*
X219726439Y-100257740D01*
X219723159Y-100258334D01*
X219687521Y-100292092D01*
X219684334Y-100314199D01*
X219654769Y-100378491D01*
X219583116Y-100458012D01*
X219578178Y-100462366D01*
X219502179Y-100514184D01*
X219407329Y-100542572D01*
X219267078Y-100553673D01*
X219179260Y-100554667D01*
X219012519Y-100550115D01*
X218901417Y-100531578D01*
X218817191Y-100491729D01*
X218759448Y-100447763D01*
X218658477Y-100324734D01*
X218584097Y-100143519D01*
X218533321Y-99894972D01*
X218511069Y-99686834D01*
X218488593Y-99525839D01*
X218453592Y-99423632D01*
X218431455Y-99398980D01*
X218379586Y-99346171D01*
X218388198Y-99269385D01*
X218441223Y-99178834D01*
X218647167Y-99178834D01*
X218651052Y-99538667D01*
X218667316Y-99842592D01*
X218707706Y-100086991D01*
X218770344Y-100264088D01*
X218850515Y-100364168D01*
X218952504Y-100404008D01*
X219101281Y-100425739D01*
X219161330Y-100427667D01*
X219305545Y-100419741D01*
X219403900Y-100386665D01*
X219494458Y-100314492D01*
X219508809Y-100300345D01*
X219601741Y-100166369D01*
X219672402Y-99988622D01*
X219712067Y-99799898D01*
X219712011Y-99632993D01*
X219699838Y-99582338D01*
X219633563Y-99493575D01*
X219505919Y-99399695D01*
X219338760Y-99311142D01*
X219153940Y-99238363D01*
X218973314Y-99191802D01*
X218858834Y-99180382D01*
X218647167Y-99178834D01*
X218441223Y-99178834D01*
X218449792Y-99164202D01*
X218505809Y-99060812D01*
X218558694Y-98911650D01*
X218613232Y-98701785D01*
X218646982Y-98548848D01*
X218700575Y-98410317D01*
X218801453Y-98240131D01*
X218932564Y-98061673D01*
X219076852Y-97898326D01*
X219206759Y-97781351D01*
X219337899Y-97690810D01*
X219442437Y-97648160D01*
X219553167Y-97640959D01*
X219573344Y-97642242D01*
G37*
X219573344Y-97642242D02*
X219692168Y-97664219D01*
X219754167Y-97699620D01*
X219752971Y-97735295D01*
X219682209Y-97758094D01*
X219630713Y-97760667D01*
X219482694Y-97794223D01*
X219315883Y-97884252D01*
X219155329Y-98014795D01*
X219056451Y-98126527D01*
X218985896Y-98219825D01*
X218935113Y-98285882D01*
X218931996Y-98289834D01*
X218872939Y-98386848D01*
X218813408Y-98517736D01*
X218768483Y-98645636D01*
X218753000Y-98727392D01*
X218737799Y-98835205D01*
X218713615Y-98917080D01*
X218695545Y-98977880D01*
X218712648Y-99011068D01*
X218782301Y-99028465D01*
X218893531Y-99039470D01*
X219074751Y-99074098D01*
X219278105Y-99142391D01*
X219477451Y-99232474D01*
X219646651Y-99332476D01*
X219759563Y-99430521D01*
X219762477Y-99434156D01*
X219830268Y-99565181D01*
X219853667Y-99690459D01*
X219844908Y-99822903D01*
X219822302Y-99969803D01*
X219791352Y-100107209D01*
X219757563Y-100211172D01*
X219726439Y-100257740D01*
X219723159Y-100258334D01*
X219687521Y-100292092D01*
X219684334Y-100314199D01*
X219654769Y-100378491D01*
X219583116Y-100458012D01*
X219578178Y-100462366D01*
X219502179Y-100514184D01*
X219407329Y-100542572D01*
X219267078Y-100553673D01*
X219179260Y-100554667D01*
X219012519Y-100550115D01*
X218901417Y-100531578D01*
X218817191Y-100491729D01*
X218759448Y-100447763D01*
X218658477Y-100324734D01*
X218584097Y-100143519D01*
X218533321Y-99894972D01*
X218511069Y-99686834D01*
X218488593Y-99525839D01*
X218453592Y-99423632D01*
X218431455Y-99398980D01*
X218379586Y-99346171D01*
X218388198Y-99269385D01*
X218441223Y-99178834D01*
X218647167Y-99178834D01*
X218651052Y-99538667D01*
X218667316Y-99842592D01*
X218707706Y-100086991D01*
X218770344Y-100264088D01*
X218850515Y-100364168D01*
X218952504Y-100404008D01*
X219101281Y-100425739D01*
X219161330Y-100427667D01*
X219305545Y-100419741D01*
X219403900Y-100386665D01*
X219494458Y-100314492D01*
X219508809Y-100300345D01*
X219601741Y-100166369D01*
X219672402Y-99988622D01*
X219712067Y-99799898D01*
X219712011Y-99632993D01*
X219699838Y-99582338D01*
X219633563Y-99493575D01*
X219505919Y-99399695D01*
X219338760Y-99311142D01*
X219153940Y-99238363D01*
X218973314Y-99191802D01*
X218858834Y-99180382D01*
X218647167Y-99178834D01*
X218441223Y-99178834D01*
X218449792Y-99164202D01*
X218505809Y-99060812D01*
X218558694Y-98911650D01*
X218613232Y-98701785D01*
X218646982Y-98548848D01*
X218700575Y-98410317D01*
X218801453Y-98240131D01*
X218932564Y-98061673D01*
X219076852Y-97898326D01*
X219206759Y-97781351D01*
X219337899Y-97690810D01*
X219442437Y-97648160D01*
X219553167Y-97640959D01*
X219573344Y-97642242D01*
G36*
X221151313Y-98064691D02*
G01*
X221240258Y-98091841D01*
X221282678Y-98134095D01*
X221269044Y-98171327D01*
X221207813Y-98184000D01*
X221090487Y-98214373D01*
X220952149Y-98308430D01*
X220787485Y-98470579D01*
X220613440Y-98677050D01*
X220460563Y-98883855D01*
X220360925Y-99062308D01*
X220304245Y-99240035D01*
X220280239Y-99444662D01*
X220277236Y-99580393D01*
X220289165Y-99782698D01*
X220332398Y-99950268D01*
X220386995Y-100072353D01*
X220497294Y-100245545D01*
X220634603Y-100367299D01*
X220814781Y-100446141D01*
X221053682Y-100490597D01*
X221185410Y-100501709D01*
X221535577Y-100523555D01*
X221690148Y-100359194D01*
X221793362Y-100238710D01*
X221915382Y-100080822D01*
X222029797Y-99919707D01*
X222029824Y-99919667D01*
X222125315Y-99770529D01*
X222184115Y-99650387D01*
X222218173Y-99524724D01*
X222239434Y-99359025D01*
X222244948Y-99298145D01*
X222274966Y-98951791D01*
X222125703Y-98756306D01*
X221979619Y-98581531D01*
X221845863Y-98465999D01*
X221699986Y-98392691D01*
X221541006Y-98349350D01*
X221371356Y-98306214D01*
X221279094Y-98264588D01*
X221266863Y-98226115D01*
X221305381Y-98202681D01*
X221407284Y-98193998D01*
X221554187Y-98215902D01*
X221715618Y-98260606D01*
X221861108Y-98320322D01*
X221931656Y-98362730D01*
X222025315Y-98447341D01*
X222139762Y-98571878D01*
X222231834Y-98685688D01*
X222404482Y-98914359D01*
X222374853Y-99318001D01*
X222358528Y-99511511D01*
X222337863Y-99647801D01*
X222304398Y-99754214D01*
X222249674Y-99858097D01*
X222170252Y-99979405D01*
X221892388Y-100348849D01*
X221681560Y-100581775D01*
X221611948Y-100609477D01*
X221481655Y-100627561D01*
X221314174Y-100635546D01*
X221132995Y-100632952D01*
X220961610Y-100619297D01*
X220842497Y-100598950D01*
X220597151Y-100498689D01*
X220391908Y-100331093D01*
X220241353Y-100109557D01*
X220199629Y-100008600D01*
X220170408Y-99866137D01*
X220155574Y-99670920D01*
X220154823Y-99453576D01*
X220167855Y-99244733D01*
X220194367Y-99075018D01*
X220209348Y-99023056D01*
X220276203Y-98890116D01*
X220388122Y-98721874D01*
X220527804Y-98540294D01*
X220677951Y-98367341D01*
X220821265Y-98224980D01*
X220871031Y-98182920D01*
X221023395Y-98087187D01*
X221149389Y-98064473D01*
X221151313Y-98064691D01*
G37*
X221151313Y-98064691D02*
X221240258Y-98091841D01*
X221282678Y-98134095D01*
X221269044Y-98171327D01*
X221207813Y-98184000D01*
X221090487Y-98214373D01*
X220952149Y-98308430D01*
X220787485Y-98470579D01*
X220613440Y-98677050D01*
X220460563Y-98883855D01*
X220360925Y-99062308D01*
X220304245Y-99240035D01*
X220280239Y-99444662D01*
X220277236Y-99580393D01*
X220289165Y-99782698D01*
X220332398Y-99950268D01*
X220386995Y-100072353D01*
X220497294Y-100245545D01*
X220634603Y-100367299D01*
X220814781Y-100446141D01*
X221053682Y-100490597D01*
X221185410Y-100501709D01*
X221535577Y-100523555D01*
X221690148Y-100359194D01*
X221793362Y-100238710D01*
X221915382Y-100080822D01*
X222029797Y-99919707D01*
X222029824Y-99919667D01*
X222125315Y-99770529D01*
X222184115Y-99650387D01*
X222218173Y-99524724D01*
X222239434Y-99359025D01*
X222244948Y-99298145D01*
X222274966Y-98951791D01*
X222125703Y-98756306D01*
X221979619Y-98581531D01*
X221845863Y-98465999D01*
X221699986Y-98392691D01*
X221541006Y-98349350D01*
X221371356Y-98306214D01*
X221279094Y-98264588D01*
X221266863Y-98226115D01*
X221305381Y-98202681D01*
X221407284Y-98193998D01*
X221554187Y-98215902D01*
X221715618Y-98260606D01*
X221861108Y-98320322D01*
X221931656Y-98362730D01*
X222025315Y-98447341D01*
X222139762Y-98571878D01*
X222231834Y-98685688D01*
X222404482Y-98914359D01*
X222374853Y-99318001D01*
X222358528Y-99511511D01*
X222337863Y-99647801D01*
X222304398Y-99754214D01*
X222249674Y-99858097D01*
X222170252Y-99979405D01*
X221892388Y-100348849D01*
X221681560Y-100581775D01*
X221611948Y-100609477D01*
X221481655Y-100627561D01*
X221314174Y-100635546D01*
X221132995Y-100632952D01*
X220961610Y-100619297D01*
X220842497Y-100598950D01*
X220597151Y-100498689D01*
X220391908Y-100331093D01*
X220241353Y-100109557D01*
X220199629Y-100008600D01*
X220170408Y-99866137D01*
X220155574Y-99670920D01*
X220154823Y-99453576D01*
X220167855Y-99244733D01*
X220194367Y-99075018D01*
X220209348Y-99023056D01*
X220276203Y-98890116D01*
X220388122Y-98721874D01*
X220527804Y-98540294D01*
X220677951Y-98367341D01*
X220821265Y-98224980D01*
X220871031Y-98182920D01*
X221023395Y-98087187D01*
X221149389Y-98064473D01*
X221151313Y-98064691D01*
G36*
X226105887Y-97000891D02*
G01*
X226226394Y-97164611D01*
X226253769Y-97210334D01*
X226332547Y-97359769D01*
X226389912Y-97495008D01*
X226414321Y-97588538D01*
X226414505Y-97593450D01*
X226431401Y-97693103D01*
X226459645Y-97745711D01*
X226484376Y-97805376D01*
X226513070Y-97927524D01*
X226541006Y-98090418D01*
X226552129Y-98171673D01*
X226600302Y-98553323D01*
X226793568Y-98472566D01*
X226926655Y-98413813D01*
X227038718Y-98359052D01*
X227071500Y-98340846D01*
X227152732Y-98318441D01*
X227312053Y-98299763D01*
X227542946Y-98285358D01*
X227838894Y-98275771D01*
X227851256Y-98275511D01*
X228111426Y-98270811D01*
X228302209Y-98270061D01*
X228438850Y-98274678D01*
X228536592Y-98286080D01*
X228610678Y-98305684D01*
X228676351Y-98334908D01*
X228714806Y-98355819D01*
X228831601Y-98412676D01*
X228909293Y-98423011D01*
X228961058Y-98401916D01*
X229061345Y-98365562D01*
X229163178Y-98353333D01*
X229296961Y-98315191D01*
X229444030Y-98209943D01*
X229592615Y-98051359D01*
X229730946Y-97853207D01*
X229847254Y-97629257D01*
X229900893Y-97490266D01*
X229984197Y-97293535D01*
X230084786Y-97136143D01*
X230191037Y-97032957D01*
X230285279Y-96998667D01*
X230386240Y-97024391D01*
X230494927Y-97086544D01*
X230498259Y-97089134D01*
X230563945Y-97149020D01*
X230595474Y-97213508D01*
X230601532Y-97311979D01*
X230595240Y-97417217D01*
X230566567Y-97592706D01*
X230512224Y-97788941D01*
X230468758Y-97904381D01*
X230380042Y-98087688D01*
X230274410Y-98274432D01*
X230163268Y-98447615D01*
X230058021Y-98590240D01*
X229970075Y-98685311D01*
X229925256Y-98714355D01*
X229858847Y-98752422D01*
X229844334Y-98779520D01*
X229810586Y-98815754D01*
X229788458Y-98819000D01*
X229724115Y-98845394D01*
X229630598Y-98911438D01*
X229597451Y-98939646D01*
X229514788Y-99017567D01*
X229488114Y-99068571D01*
X229509856Y-99121669D01*
X229539418Y-99161896D01*
X229690726Y-99388038D01*
X229783099Y-99599520D01*
X229829048Y-99827114D01*
X229834584Y-99887917D01*
X229848332Y-100040024D01*
X229866246Y-100126019D01*
X229895769Y-100164391D01*
X229944344Y-100173632D01*
X229949595Y-100173667D01*
X230066358Y-100204925D01*
X230205447Y-100286509D01*
X230339581Y-100400135D01*
X230411941Y-100483528D01*
X230451591Y-100548340D01*
X230478796Y-100628463D01*
X230496606Y-100742024D01*
X230508076Y-100907154D01*
X230514934Y-101095204D01*
X230512359Y-101496593D01*
X230476899Y-101843506D01*
X230405371Y-102160749D01*
X230360315Y-102301169D01*
X230320389Y-102434479D01*
X230315747Y-102520959D01*
X230342308Y-102586344D01*
X230376615Y-102683099D01*
X230394098Y-102814202D01*
X230394667Y-102840092D01*
X230399371Y-102948810D01*
X230426544Y-102997225D01*
X230495776Y-103009652D01*
X230531554Y-103010000D01*
X230642018Y-102991628D01*
X230791467Y-102943858D01*
X230923137Y-102888160D01*
X231167237Y-102781037D01*
X231427684Y-102682733D01*
X231672140Y-102604730D01*
X231834000Y-102564751D01*
X232087015Y-102485880D01*
X232339851Y-102357063D01*
X232404622Y-102314566D01*
X232611655Y-102178902D01*
X232784435Y-102088374D01*
X232950780Y-102030536D01*
X233115454Y-101996550D01*
X233239623Y-101971982D01*
X233326087Y-101946439D01*
X233345780Y-101935665D01*
X233341425Y-101887308D01*
X233304767Y-101783878D01*
X233243133Y-101645122D01*
X233221784Y-101601397D01*
X233102523Y-101359734D01*
X233016189Y-101173272D01*
X232957466Y-101021675D01*
X232921037Y-100884609D01*
X232901583Y-100741738D01*
X232893788Y-100572725D01*
X232893371Y-100510876D01*
X233019151Y-100510876D01*
X233021132Y-100630777D01*
X233029073Y-100736110D01*
X233046769Y-100838147D01*
X233078014Y-100948159D01*
X233126605Y-101077417D01*
X233196335Y-101237193D01*
X233291001Y-101438757D01*
X233414397Y-101693381D01*
X233570319Y-102012336D01*
X233582046Y-102036334D01*
X233749835Y-102389625D01*
X233876343Y-102677999D01*
X233960577Y-102899052D01*
X234001546Y-103050383D01*
X234001862Y-103052334D01*
X234031401Y-103241417D01*
X234062306Y-103444974D01*
X234073126Y-103518000D01*
X234104871Y-103669448D01*
X234158561Y-103862966D01*
X234223915Y-104062330D01*
X234240627Y-104108186D01*
X234300720Y-104279161D01*
X234346753Y-104429106D01*
X234371595Y-104533974D01*
X234374000Y-104557866D01*
X234386803Y-104640972D01*
X234420702Y-104777396D01*
X234468928Y-104940507D01*
X234479834Y-104974405D01*
X234530207Y-105140491D01*
X234567572Y-105286115D01*
X234585130Y-105384222D01*
X234585667Y-105395639D01*
X234603686Y-105482335D01*
X234650815Y-105614588D01*
X234713581Y-105756727D01*
X234790195Y-105902371D01*
X234848797Y-105980107D01*
X234899341Y-106001945D01*
X234914665Y-105999320D01*
X235003678Y-105977933D01*
X235128598Y-105952933D01*
X235152190Y-105948661D01*
X235251019Y-105925312D01*
X235273418Y-105901272D01*
X235250615Y-105882577D01*
X235188032Y-105815132D01*
X235138574Y-105708520D01*
X235112597Y-105596036D01*
X235120456Y-105510975D01*
X235130459Y-105496274D01*
X235173378Y-105488335D01*
X235223492Y-105553390D01*
X235244580Y-105595422D01*
X235320253Y-105756749D01*
X235374914Y-105856421D01*
X235427167Y-105907611D01*
X235495613Y-105923491D01*
X235598855Y-105917233D01*
X235686334Y-105908224D01*
X235857717Y-105888336D01*
X236018211Y-105864615D01*
X236109667Y-105847197D01*
X236225060Y-105823603D01*
X236390106Y-105793369D01*
X236570770Y-105762707D01*
X236585917Y-105760255D01*
X236914000Y-105707357D01*
X236913739Y-105342928D01*
X236905052Y-105113778D01*
X236880566Y-104943202D01*
X236853906Y-104864311D01*
X236798782Y-104733125D01*
X236730837Y-104529264D01*
X236653228Y-104263198D01*
X236569107Y-103945398D01*
X236531161Y-103793167D01*
X236483032Y-103611053D01*
X236415710Y-103375654D01*
X236337148Y-103113881D01*
X236255296Y-102852646D01*
X236231989Y-102780557D01*
X236158551Y-102551443D01*
X236093070Y-102340101D01*
X236040931Y-102164445D01*
X236007521Y-102042394D01*
X235999603Y-102007506D01*
X235971396Y-101904865D01*
X235938361Y-101844950D01*
X235935534Y-101842868D01*
X235900881Y-101784599D01*
X235898000Y-101759923D01*
X235881241Y-101691246D01*
X235837824Y-101574641D01*
X235791250Y-101466797D01*
X235727970Y-101316327D01*
X235678105Y-101176089D01*
X235658782Y-101104828D01*
X235629699Y-101007099D01*
X235596199Y-100953454D01*
X235562174Y-100895614D01*
X235559334Y-100870923D01*
X235544931Y-100805359D01*
X235500309Y-100686341D01*
X235423346Y-100509075D01*
X235311921Y-100268768D01*
X235163913Y-99960627D01*
X235084181Y-99797277D01*
X234827141Y-99272720D01*
X234441820Y-99301566D01*
X234117465Y-99326353D01*
X233865413Y-99348760D01*
X233673537Y-99372730D01*
X233529711Y-99402209D01*
X233421807Y-99441141D01*
X233337700Y-99493469D01*
X233265262Y-99563139D01*
X233192366Y-99654093D01*
X233140136Y-99724935D01*
X233087436Y-99801357D01*
X233052814Y-99871792D01*
X233032483Y-99956306D01*
X233022658Y-100074968D01*
X233019551Y-100247845D01*
X233019334Y-100365137D01*
X233019151Y-100510876D01*
X232893371Y-100510876D01*
X232892335Y-100357237D01*
X232892334Y-100341420D01*
X232892334Y-99800270D01*
X233054634Y-99595385D01*
X233152958Y-99476044D01*
X233240084Y-99378434D01*
X233285654Y-99333905D01*
X233356653Y-99305681D01*
X233494478Y-99274737D01*
X233681436Y-99243370D01*
X233899834Y-99213877D01*
X234131980Y-99188555D01*
X234360181Y-99169701D01*
X234566744Y-99159612D01*
X234636314Y-99158553D01*
X234919795Y-99157667D01*
X235193832Y-99718584D01*
X235358755Y-100058761D01*
X235487101Y-100329625D01*
X235581428Y-100536941D01*
X235644293Y-100686474D01*
X235678255Y-100783990D01*
X235686334Y-100828590D01*
X235709047Y-100897771D01*
X235723199Y-100911121D01*
X235756881Y-100965206D01*
X235785782Y-101062495D01*
X235817877Y-101172636D01*
X235873275Y-101320029D01*
X235918250Y-101424463D01*
X235975494Y-101558990D01*
X236014238Y-101667993D01*
X236025000Y-101717590D01*
X236048151Y-101787058D01*
X236062534Y-101800534D01*
X236095270Y-101854498D01*
X236124555Y-101954728D01*
X236126603Y-101965173D01*
X236148834Y-102054309D01*
X236192440Y-102205855D01*
X236252036Y-102401895D01*
X236322236Y-102624513D01*
X236358989Y-102738223D01*
X236440308Y-102994244D01*
X236520656Y-103258638D01*
X236592083Y-103504493D01*
X236646634Y-103704897D01*
X236658203Y-103750834D01*
X236738487Y-104070796D01*
X236806194Y-104322071D01*
X236865566Y-104518950D01*
X236920851Y-104675724D01*
X236963403Y-104778323D01*
X237002352Y-104883986D01*
X237025116Y-105001424D01*
X237034314Y-105154028D01*
X237032562Y-105365190D01*
X237031888Y-105390346D01*
X237019834Y-105821545D01*
X236850500Y-105856896D01*
X236575654Y-105908743D01*
X236255289Y-105958398D01*
X235873932Y-106008146D01*
X235644000Y-106035081D01*
X235427636Y-106060694D01*
X235229805Y-106086032D01*
X235072397Y-106108169D01*
X234977355Y-106124169D01*
X234834763Y-106127297D01*
X234771527Y-106096482D01*
X234708371Y-106017799D01*
X234632417Y-105887334D01*
X234557051Y-105733268D01*
X234495662Y-105583779D01*
X234461639Y-105467047D01*
X234458667Y-105437973D01*
X234445826Y-105352456D01*
X234411836Y-105214075D01*
X234363494Y-105049887D01*
X234352834Y-105016738D01*
X234302484Y-104850935D01*
X234265126Y-104705884D01*
X234247546Y-104608493D01*
X234247000Y-104597137D01*
X234230173Y-104500661D01*
X234181942Y-104337254D01*
X234105684Y-104117176D01*
X234004776Y-103850689D01*
X233984104Y-103798202D01*
X233935799Y-103676237D01*
X233615150Y-103707419D01*
X233433576Y-103723871D01*
X233202554Y-103743088D01*
X232957115Y-103762219D01*
X232807667Y-103773170D01*
X232472874Y-103799500D01*
X232211760Y-103826661D01*
X232013347Y-103856854D01*
X231866660Y-103892284D01*
X231760720Y-103935152D01*
X231684552Y-103987662D01*
X231669957Y-104001468D01*
X231632127Y-104042313D01*
X231601751Y-104087637D01*
X231576944Y-104148181D01*
X231555821Y-104234688D01*
X231536497Y-104357898D01*
X231517085Y-104528552D01*
X231495702Y-104757393D01*
X231470461Y-105055161D01*
X231457602Y-105211334D01*
X231428541Y-105533919D01*
X231398496Y-105785332D01*
X231363929Y-105979029D01*
X231321302Y-106128466D01*
X231267077Y-106247098D01*
X231197715Y-106348382D01*
X231141782Y-106412415D01*
X231007845Y-106532062D01*
X230836342Y-106654350D01*
X230691000Y-106738579D01*
X230534647Y-106821068D01*
X230392567Y-106902444D01*
X230298353Y-106963153D01*
X230218479Y-107047419D01*
X230129870Y-107178221D01*
X230048531Y-107326691D01*
X229990468Y-107463960D01*
X229971334Y-107553028D01*
X229930667Y-107638669D01*
X229815075Y-107716138D01*
X229634171Y-107781940D01*
X229397566Y-107832582D01*
X229114873Y-107864570D01*
X229114084Y-107864626D01*
X228743667Y-107890866D01*
X228743667Y-108047106D01*
X228757534Y-108164648D01*
X228795348Y-108340384D01*
X228851429Y-108553194D01*
X228920099Y-108781959D01*
X228995677Y-109005558D01*
X229017042Y-109063667D01*
X229072640Y-109211834D01*
X229388424Y-109224079D01*
X229580367Y-109224941D01*
X229704848Y-109201086D01*
X229778223Y-109139740D01*
X229816852Y-109028130D01*
X229835351Y-108875081D01*
X229840129Y-108756429D01*
X229827491Y-108652577D01*
X229790465Y-108537883D01*
X229722079Y-108386704D01*
X229678682Y-108298869D01*
X229593090Y-108115034D01*
X229545746Y-107983761D01*
X229539711Y-107913868D01*
X229543209Y-107908525D01*
X229587883Y-107915506D01*
X229655721Y-107989793D01*
X229738979Y-108119868D01*
X229829914Y-108294211D01*
X229886804Y-108419604D01*
X229944663Y-108582806D01*
X229967303Y-108741149D01*
X229963864Y-108912534D01*
X229944108Y-109101554D01*
X229903696Y-109228794D01*
X229828148Y-109306189D01*
X229702983Y-109345676D01*
X229513720Y-109359191D01*
X229421000Y-109360000D01*
X229231159Y-109356632D01*
X229107160Y-109344409D01*
X229030370Y-109320153D01*
X228986676Y-109285917D01*
X228941265Y-109209578D01*
X228884972Y-109079264D01*
X228829655Y-108922556D01*
X228827434Y-108915500D01*
X228771140Y-108736736D01*
X228715480Y-108561611D01*
X228675652Y-108437771D01*
X228636997Y-108272721D01*
X228617305Y-108098323D01*
X228616667Y-108068844D01*
X228611084Y-107963544D01*
X228585092Y-107889774D01*
X228524822Y-107838908D01*
X228416408Y-107802322D01*
X228245982Y-107771390D01*
X228106891Y-107751781D01*
X227817461Y-107708347D01*
X227589850Y-107662568D01*
X227401289Y-107608427D01*
X227229009Y-107539906D01*
X227135000Y-107494942D01*
X226956342Y-107405367D01*
X226836509Y-107355011D01*
X226763767Y-107352350D01*
X226726383Y-107405859D01*
X226712624Y-107524014D01*
X226710754Y-107715290D01*
X226710737Y-107801397D01*
X226706771Y-108039146D01*
X226694338Y-108212338D01*
X226671023Y-108340870D01*
X226634412Y-108444634D01*
X226632049Y-108449834D01*
X226529463Y-108628435D01*
X226417580Y-108729285D01*
X226287443Y-108759301D01*
X226237305Y-108754576D01*
X226125144Y-108737187D01*
X225963589Y-108712939D01*
X225787057Y-108686996D01*
X225782184Y-108686288D01*
X225608827Y-108656627D01*
X225490425Y-108620445D01*
X225397479Y-108565190D01*
X225305934Y-108483640D01*
X225188871Y-108346140D01*
X225150697Y-108239244D01*
X225191397Y-108162859D01*
X225242323Y-108135696D01*
X225344832Y-108076808D01*
X225397850Y-108028288D01*
X225463740Y-107967585D01*
X225574479Y-107882585D01*
X225676934Y-107811365D01*
X225906280Y-107643114D01*
X226072121Y-107480865D01*
X226192168Y-107306698D01*
X226211353Y-107270602D01*
X226280295Y-107171420D01*
X226336985Y-107146813D01*
X226366921Y-107193169D01*
X226355686Y-107306556D01*
X226307534Y-107399118D01*
X226210143Y-107524034D01*
X226081416Y-107662084D01*
X225939259Y-107794046D01*
X225803346Y-107899500D01*
X225692123Y-107984187D01*
X225568117Y-108091134D01*
X225535414Y-108121750D01*
X225435787Y-108204279D01*
X225350165Y-108253382D01*
X225324279Y-108259334D01*
X225295148Y-108274926D01*
X225325520Y-108328064D01*
X225376594Y-108384691D01*
X225508539Y-108484432D01*
X225677085Y-108531694D01*
X225691430Y-108533530D01*
X225861298Y-108558928D01*
X226043550Y-108593135D01*
X226088421Y-108602885D01*
X226237056Y-108624889D01*
X226341276Y-108602006D01*
X226422554Y-108522005D01*
X226502359Y-108372657D01*
X226505779Y-108365167D01*
X226542389Y-108263206D01*
X226566041Y-108137182D01*
X226579028Y-107967679D01*
X226583642Y-107735282D01*
X226583737Y-107704740D01*
X226584667Y-107213646D01*
X226087250Y-106960003D01*
X225873832Y-106855499D01*
X225660888Y-106758680D01*
X225473156Y-106680361D01*
X225335834Y-106631494D01*
X225174243Y-106583806D01*
X225023938Y-106539354D01*
X224944931Y-106515922D01*
X224839029Y-106459928D01*
X224721461Y-106362308D01*
X224613424Y-106245649D01*
X224536117Y-106132535D01*
X224510334Y-106052879D01*
X224489004Y-105975036D01*
X224468000Y-105952167D01*
X224434397Y-105893404D01*
X224425667Y-105829464D01*
X224386795Y-105735324D01*
X224279024Y-105668662D01*
X224115617Y-105636524D01*
X224058906Y-105634667D01*
X223959875Y-105639652D01*
X223925054Y-105667619D01*
X223934058Y-105738084D01*
X223937308Y-105751084D01*
X223975547Y-105933070D01*
X223989993Y-106072003D01*
X223982928Y-106159699D01*
X223956639Y-106187975D01*
X223913408Y-106148646D01*
X223857282Y-106037760D01*
X223782029Y-105916168D01*
X223682566Y-105820258D01*
X223675250Y-105815510D01*
X223499154Y-105694593D01*
X223359066Y-105576353D01*
X223268454Y-105473496D01*
X223240335Y-105405167D01*
X223250478Y-105370084D01*
X223499244Y-105370084D01*
X223508556Y-105470961D01*
X223551201Y-105506893D01*
X223563017Y-105507667D01*
X223607181Y-105492288D01*
X223604338Y-105486500D01*
X223917667Y-105486500D01*
X223938834Y-105507667D01*
X223960000Y-105486500D01*
X223938834Y-105465334D01*
X223917667Y-105486500D01*
X223604338Y-105486500D01*
X223588739Y-105454750D01*
X223579138Y-105437111D01*
X224228111Y-105437111D01*
X224233922Y-105462278D01*
X224256334Y-105465334D01*
X224291179Y-105449844D01*
X224284556Y-105437111D01*
X224234316Y-105432045D01*
X224228111Y-105437111D01*
X223579138Y-105437111D01*
X223542245Y-105369333D01*
X223524966Y-105317167D01*
X223523248Y-105313663D01*
X223975869Y-105313663D01*
X223977754Y-105327865D01*
X224040634Y-105339777D01*
X224127448Y-105309277D01*
X224201810Y-105253370D01*
X224226145Y-105211797D01*
X224275033Y-105142670D01*
X224322094Y-105126667D01*
X224421765Y-105093551D01*
X224542290Y-105008006D01*
X224661859Y-104890736D01*
X224758664Y-104762444D01*
X224803948Y-104669238D01*
X224836431Y-104522937D01*
X224814883Y-104437486D01*
X224737653Y-104407212D01*
X224727593Y-104407000D01*
X224631522Y-104385409D01*
X224555851Y-104334116D01*
X224523240Y-104273337D01*
X224537092Y-104237041D01*
X224612222Y-104211315D01*
X224664092Y-104229636D01*
X224763813Y-104276576D01*
X224859584Y-104316871D01*
X224942460Y-104366955D01*
X224973395Y-104448633D01*
X224976000Y-104506756D01*
X224937271Y-104732921D01*
X224819282Y-104942782D01*
X224643616Y-105121407D01*
X224515155Y-105240983D01*
X224445019Y-105341802D01*
X224418154Y-105439695D01*
X224421567Y-105558765D01*
X224472379Y-105627473D01*
X224477031Y-105630482D01*
X224536443Y-105707019D01*
X224552667Y-105780694D01*
X224568328Y-105870188D01*
X224595000Y-105909834D01*
X224632841Y-105970601D01*
X224637334Y-106003586D01*
X224670686Y-106105223D01*
X224754852Y-106220496D01*
X224865995Y-106323097D01*
X224980277Y-106386716D01*
X224986116Y-106388543D01*
X225103575Y-106423320D01*
X225261561Y-106469877D01*
X225378167Y-106504135D01*
X225511193Y-106550432D01*
X225686902Y-106624620D01*
X225911938Y-106729869D01*
X226192944Y-106869355D01*
X226536563Y-107046251D01*
X226775167Y-107171461D01*
X227053417Y-107312788D01*
X227284120Y-107415795D01*
X227490121Y-107489211D01*
X227694263Y-107541764D01*
X227797157Y-107561936D01*
X228073709Y-107611441D01*
X228278812Y-107646882D01*
X228424271Y-107669591D01*
X228521892Y-107680902D01*
X228583481Y-107682149D01*
X228620842Y-107674666D01*
X228645782Y-107659787D01*
X228647916Y-107658052D01*
X228699626Y-107644304D01*
X228728737Y-107688821D01*
X228753277Y-107726045D01*
X228803212Y-107745060D01*
X228897345Y-107748449D01*
X229054474Y-107738797D01*
X229078488Y-107736882D01*
X229270693Y-107713167D01*
X229461573Y-107676322D01*
X229604969Y-107635877D01*
X229738924Y-107576411D01*
X229817009Y-107507336D01*
X229864030Y-107412667D01*
X229942896Y-107208047D01*
X230018333Y-107054831D01*
X230106390Y-106935670D01*
X230223115Y-106833218D01*
X230384557Y-106730126D01*
X230606765Y-106609045D01*
X230608116Y-106608334D01*
X230775099Y-106506959D01*
X230935096Y-106387597D01*
X231045865Y-106283904D01*
X231118225Y-106192337D01*
X231174929Y-106091851D01*
X231219377Y-105968793D01*
X231254969Y-105809512D01*
X231285105Y-105600354D01*
X231313186Y-105327667D01*
X231328805Y-105147834D01*
X231356950Y-104813135D01*
X231380207Y-104552069D01*
X231400603Y-104353886D01*
X231420160Y-104207833D01*
X231440903Y-104103161D01*
X231464856Y-104029118D01*
X231494044Y-103974953D01*
X231530489Y-103929914D01*
X231564731Y-103894731D01*
X231631165Y-103837874D01*
X231711680Y-103792240D01*
X231817979Y-103755351D01*
X231961764Y-103724728D01*
X232154738Y-103697894D01*
X232408602Y-103672371D01*
X232735060Y-103645681D01*
X232744167Y-103644984D01*
X233090162Y-103617895D01*
X233360549Y-103595012D01*
X233564220Y-103575206D01*
X233710065Y-103557347D01*
X233806974Y-103540307D01*
X233863838Y-103522956D01*
X233889549Y-103504166D01*
X233892120Y-103499191D01*
X233892614Y-103427390D01*
X233870606Y-103296378D01*
X233831483Y-103126885D01*
X233780630Y-102939643D01*
X233723434Y-102755382D01*
X233665280Y-102594833D01*
X233644041Y-102544334D01*
X233578925Y-102396261D01*
X233521020Y-102262295D01*
X233493658Y-102197425D01*
X233453048Y-102123616D01*
X233394366Y-102097893D01*
X233285891Y-102106044D01*
X233017750Y-102162720D01*
X232781557Y-102259810D01*
X232604215Y-102365422D01*
X232456340Y-102453924D01*
X232284953Y-102543191D01*
X232112883Y-102622803D01*
X231962959Y-102682344D01*
X231858012Y-102711397D01*
X231843248Y-102712662D01*
X231752928Y-102729712D01*
X231607791Y-102773440D01*
X231430233Y-102835796D01*
X231242654Y-102908730D01*
X231067452Y-102984190D01*
X231003000Y-103014674D01*
X230832508Y-103089352D01*
X230692497Y-103124800D01*
X230543960Y-103130164D01*
X230516167Y-103128805D01*
X230288834Y-103115834D01*
X230275931Y-102914750D01*
X230258212Y-102781021D01*
X230229997Y-102720971D01*
X230196099Y-102738314D01*
X230163493Y-102827959D01*
X230127067Y-102924425D01*
X230061102Y-103060643D01*
X229992350Y-103185317D01*
X229849893Y-103428384D01*
X229984697Y-103441442D01*
X230083180Y-103465246D01*
X230118306Y-103519697D01*
X230119500Y-103539167D01*
X230096464Y-103600840D01*
X230016623Y-103651791D01*
X229918639Y-103687334D01*
X229803316Y-103728789D01*
X229730564Y-103764547D01*
X229717556Y-103778309D01*
X229755085Y-103820172D01*
X229858486Y-103881768D01*
X230013255Y-103956218D01*
X230204888Y-104036638D01*
X230418884Y-104116148D01*
X230457679Y-104129499D01*
X230663782Y-104205929D01*
X230792369Y-104269425D01*
X230849095Y-104322902D01*
X230852366Y-104332917D01*
X230836369Y-104394282D01*
X230783230Y-104407000D01*
X230701690Y-104419129D01*
X230568894Y-104450885D01*
X230417832Y-104494128D01*
X230184049Y-104590770D01*
X229996086Y-104717340D01*
X229865781Y-104863001D01*
X229804969Y-105016912D01*
X229802000Y-105057983D01*
X229819788Y-105171742D01*
X229862862Y-105251355D01*
X229865500Y-105253667D01*
X229923798Y-105337128D01*
X229899578Y-105426573D01*
X229848526Y-105482706D01*
X229785072Y-105574513D01*
X229741539Y-105697181D01*
X229740279Y-105703573D01*
X229699064Y-105810010D01*
X229639632Y-105839484D01*
X229576534Y-105793101D01*
X229528662Y-105687495D01*
X229494843Y-105594953D01*
X229465761Y-105550652D01*
X229463132Y-105550000D01*
X229434003Y-105585612D01*
X229385497Y-105676531D01*
X229328214Y-105798882D01*
X229272752Y-105928791D01*
X229229713Y-106042381D01*
X229209696Y-106115779D01*
X229209334Y-106121654D01*
X229189237Y-106182927D01*
X229177584Y-106192056D01*
X229140584Y-106235327D01*
X229084446Y-106327910D01*
X229059102Y-106375500D01*
X228975679Y-106499163D01*
X228894008Y-106544711D01*
X228889768Y-106544834D01*
X228854396Y-106539628D01*
X228831391Y-106514470D01*
X228818637Y-106455050D01*
X228814020Y-106347057D01*
X228815426Y-106176180D01*
X228817828Y-106058000D01*
X228821377Y-105850977D01*
X228820255Y-105717411D01*
X228813069Y-105646156D01*
X228798428Y-105626065D01*
X228774938Y-105645992D01*
X228767582Y-105655834D01*
X228622269Y-105850722D01*
X228511578Y-105978337D01*
X228426418Y-106043912D01*
X228357696Y-106052684D01*
X228296322Y-106009886D01*
X228252941Y-105952167D01*
X228154236Y-105865035D01*
X228032838Y-105854430D01*
X227907042Y-105920417D01*
X227803102Y-106007983D01*
X227727877Y-106071042D01*
X227619028Y-106134401D01*
X227540299Y-106118874D01*
X227493367Y-106025320D01*
X227481999Y-105944971D01*
X227439267Y-105756343D01*
X227340922Y-105630178D01*
X227183355Y-105563279D01*
X227036456Y-105550000D01*
X226777282Y-105585297D01*
X226514214Y-105681760D01*
X226282053Y-105825252D01*
X226214635Y-105883876D01*
X226123289Y-105963681D01*
X226053695Y-106010516D01*
X226037217Y-106015667D01*
X225977725Y-105986013D01*
X225971979Y-105916226D01*
X226010930Y-105848806D01*
X226066509Y-105748540D01*
X226089160Y-105650390D01*
X226085307Y-105566334D01*
X226041112Y-105528791D01*
X225956500Y-105515288D01*
X225825185Y-105526746D01*
X225761838Y-105574672D01*
X225696588Y-105617725D01*
X225634349Y-105602161D01*
X225611000Y-105545788D01*
X225634135Y-105485808D01*
X225690327Y-105396420D01*
X225695335Y-105389536D01*
X225760073Y-105265921D01*
X225801110Y-105118502D01*
X225814924Y-104974706D01*
X225797993Y-104861955D01*
X225768693Y-104818197D01*
X225730704Y-104769599D01*
X225721789Y-104690266D01*
X225739036Y-104555167D01*
X225760939Y-104383075D01*
X225775197Y-104187738D01*
X225777810Y-104101412D01*
X225772036Y-103956643D01*
X225748129Y-103888701D01*
X225701938Y-103897776D01*
X225629310Y-103984056D01*
X225547500Y-104111915D01*
X225460695Y-104231839D01*
X225382980Y-104298419D01*
X225325913Y-104306785D01*
X225301055Y-104252070D01*
X225302302Y-104215179D01*
X225343072Y-103999570D01*
X225401291Y-103804237D01*
X225549281Y-103804237D01*
X225551583Y-103837363D01*
X225586764Y-103814790D01*
X225609643Y-103794395D01*
X225709554Y-103743559D01*
X225787426Y-103736848D01*
X225831109Y-103746591D01*
X225859537Y-103771265D01*
X225875984Y-103826304D01*
X225883723Y-103927142D01*
X225886029Y-104089214D01*
X225886167Y-104202380D01*
X225888982Y-104390560D01*
X225896595Y-104546663D01*
X225907757Y-104651674D01*
X225917917Y-104685685D01*
X225939739Y-104751217D01*
X225948436Y-104871633D01*
X225944399Y-105018235D01*
X225928022Y-105162329D01*
X225910289Y-105243363D01*
X225889060Y-105336179D01*
X225907199Y-105373681D01*
X225976572Y-105380667D01*
X226123542Y-105406905D01*
X226218148Y-105478557D01*
X226246000Y-105567771D01*
X226246000Y-105667229D01*
X226481365Y-105545115D01*
X226636274Y-105474095D01*
X226777857Y-105436794D01*
X226947938Y-105423659D01*
X227016116Y-105423000D01*
X227175402Y-105425446D01*
X227277883Y-105439132D01*
X227351406Y-105473584D01*
X227423816Y-105538327D01*
X227458085Y-105574181D01*
X227547056Y-105689824D01*
X227596258Y-105796986D01*
X227600667Y-105828181D01*
X227613155Y-105908840D01*
X227656247Y-105922309D01*
X227738390Y-105868452D01*
X227787166Y-105825167D01*
X227934203Y-105738614D01*
X228097962Y-105719872D01*
X228251622Y-105769608D01*
X228307884Y-105812189D01*
X228406724Y-105905045D01*
X228479404Y-105801606D01*
X228545879Y-105705301D01*
X228633359Y-105576483D01*
X228679626Y-105507667D01*
X228771264Y-105381269D01*
X228838496Y-105318265D01*
X228884604Y-105322739D01*
X228912869Y-105398770D01*
X228926574Y-105550443D01*
X228928999Y-105781837D01*
X228928663Y-105817432D01*
X228926821Y-106028271D01*
X228928079Y-106165177D01*
X228934308Y-106238872D01*
X228947384Y-106260081D01*
X228969179Y-106239526D01*
X228995234Y-106198432D01*
X229045903Y-106100561D01*
X229112562Y-105953266D01*
X229181732Y-105786493D01*
X229189233Y-105767434D01*
X229283070Y-105564480D01*
X229375661Y-105434657D01*
X229463434Y-105381105D01*
X229542816Y-105406963D01*
X229567600Y-105434865D01*
X229612691Y-105483211D01*
X229654800Y-105466754D01*
X229687821Y-105432223D01*
X229731001Y-105345956D01*
X229715840Y-105295033D01*
X229675741Y-105165991D01*
X229678922Y-105001611D01*
X229721393Y-104836794D01*
X229780658Y-104728493D01*
X229871082Y-104642746D01*
X230010676Y-104545201D01*
X230173587Y-104450335D01*
X230333964Y-104372625D01*
X230465954Y-104326548D01*
X230510193Y-104319956D01*
X230513189Y-104307435D01*
X230449055Y-104276888D01*
X230331665Y-104234918D01*
X230331167Y-104234755D01*
X230038192Y-104121877D01*
X229806743Y-103996069D01*
X229644783Y-103862479D01*
X229564882Y-103739493D01*
X229529145Y-103748912D01*
X229447762Y-103787040D01*
X229437882Y-103792149D01*
X229336337Y-103820973D01*
X229170855Y-103841735D01*
X228961815Y-103854102D01*
X228729592Y-103857737D01*
X228494565Y-103852306D01*
X228277111Y-103837473D01*
X228103862Y-103814089D01*
X227769636Y-103737606D01*
X227389725Y-103627267D01*
X226991278Y-103492380D01*
X226601446Y-103342253D01*
X226247381Y-103186194D01*
X226186981Y-103156930D01*
X225979794Y-103054840D01*
X225859573Y-103191170D01*
X225785158Y-103283779D01*
X225742538Y-103352726D01*
X225738676Y-103366500D01*
X225712687Y-103427140D01*
X225678708Y-103472333D01*
X225628936Y-103556319D01*
X225582194Y-103677757D01*
X225575008Y-103702547D01*
X225549281Y-103804237D01*
X225401291Y-103804237D01*
X225417610Y-103749488D01*
X225513424Y-103499820D01*
X225618020Y-103285454D01*
X225659732Y-103217084D01*
X225828863Y-102962453D01*
X225812657Y-102946500D01*
X226046017Y-102946500D01*
X226241258Y-103039010D01*
X226583080Y-103190056D01*
X226957624Y-103336912D01*
X227339958Y-103470979D01*
X227705150Y-103583658D01*
X228028269Y-103666349D01*
X228108667Y-103683125D01*
X228253654Y-103702531D01*
X228444447Y-103715788D01*
X228659084Y-103722804D01*
X228875601Y-103723486D01*
X229072036Y-103717743D01*
X229226424Y-103705483D01*
X229312931Y-103688183D01*
X229408920Y-103618554D01*
X229467427Y-103529433D01*
X229522070Y-103400229D01*
X229572740Y-103292319D01*
X229622950Y-103169406D01*
X229616563Y-103093949D01*
X229548062Y-103045883D01*
X229500428Y-103029338D01*
X229393519Y-102970197D01*
X229295832Y-102853011D01*
X229250782Y-102777605D01*
X229150712Y-102629676D01*
X229056031Y-102550863D01*
X229033771Y-102543085D01*
X228967523Y-102512328D01*
X228934106Y-102443855D01*
X228921149Y-102341563D01*
X228898925Y-102213663D01*
X228855760Y-102164228D01*
X228847066Y-102163334D01*
X228792286Y-102141386D01*
X228786000Y-102124101D01*
X228747349Y-102064142D01*
X228646120Y-102008854D01*
X228504403Y-101963120D01*
X228344288Y-101931820D01*
X228187863Y-101919837D01*
X228057218Y-101932053D01*
X228003692Y-101951207D01*
X227894859Y-101984459D01*
X227815157Y-101982473D01*
X227735251Y-101979708D01*
X227704044Y-101997974D01*
X227643905Y-102027635D01*
X227537928Y-102035742D01*
X227421634Y-102024179D01*
X227330542Y-101994830D01*
X227307755Y-101976956D01*
X227237308Y-101937138D01*
X227119533Y-101908263D01*
X227071706Y-101902724D01*
X226958256Y-101900557D01*
X226919032Y-101916948D01*
X226925302Y-101928235D01*
X226963147Y-101983779D01*
X226935941Y-102014897D01*
X226837780Y-102023528D01*
X226669334Y-102012260D01*
X226373000Y-101983060D01*
X226373000Y-102113942D01*
X226354583Y-102242690D01*
X226306692Y-102414215D01*
X226240367Y-102596949D01*
X226166648Y-102759325D01*
X226118852Y-102840667D01*
X226046017Y-102946500D01*
X225812657Y-102946500D01*
X225617165Y-102754068D01*
X225506350Y-102636874D01*
X225420410Y-102531027D01*
X225378381Y-102460342D01*
X225340402Y-102395887D01*
X225296080Y-102373353D01*
X225272511Y-102405352D01*
X225272334Y-102410983D01*
X225236340Y-102444301D01*
X225141884Y-102497354D01*
X225009249Y-102558776D01*
X225006423Y-102559979D01*
X224735555Y-102701701D01*
X224533539Y-102872505D01*
X224385941Y-103086235D01*
X224329864Y-103208942D01*
X224283766Y-103363589D01*
X224241242Y-103577029D01*
X224205951Y-103823387D01*
X224181556Y-104076789D01*
X224171716Y-104311362D01*
X224171667Y-104327071D01*
X224159170Y-104482173D01*
X224125990Y-104680715D01*
X224078591Y-104885939D01*
X224064392Y-104937045D01*
X224019337Y-105101936D01*
X223988405Y-105233901D01*
X223975869Y-105313663D01*
X223523248Y-105313663D01*
X223509888Y-105286417D01*
X223500731Y-105339347D01*
X223499244Y-105370084D01*
X223250478Y-105370084D01*
X223267745Y-105310361D01*
X223310105Y-105246737D01*
X223357311Y-105160679D01*
X223374690Y-105105500D01*
X223706000Y-105105500D01*
X223727167Y-105126667D01*
X223748334Y-105105500D01*
X223727167Y-105084334D01*
X223706000Y-105105500D01*
X223374690Y-105105500D01*
X223398963Y-105028437D01*
X223414198Y-104952528D01*
X223428505Y-104814585D01*
X223417026Y-104695350D01*
X223374008Y-104556901D01*
X223341895Y-104475958D01*
X223279852Y-104292182D01*
X223215079Y-104041794D01*
X223151418Y-103742594D01*
X223092712Y-103412380D01*
X223050017Y-103123892D01*
X223029863Y-103002174D01*
X223002373Y-102944359D01*
X222952470Y-102930038D01*
X222909278Y-102933392D01*
X222834166Y-102955392D01*
X222786065Y-103014898D01*
X222746424Y-103135031D01*
X222745907Y-103137000D01*
X222674559Y-103398511D01*
X222607497Y-103624229D01*
X222548793Y-103801630D01*
X222502519Y-103918193D01*
X222479127Y-103957473D01*
X222425347Y-103977579D01*
X222372513Y-103924217D01*
X222317294Y-103792952D01*
X222290445Y-103706118D01*
X222248667Y-103564981D01*
X222191997Y-103378357D01*
X222131151Y-103181457D01*
X222117247Y-103137000D01*
X222046051Y-102896146D01*
X221979210Y-102644992D01*
X221921178Y-102402904D01*
X221877000Y-102192073D01*
X222019339Y-102192073D01*
X222036708Y-102309602D01*
X222071861Y-102474215D01*
X222120277Y-102669928D01*
X222177435Y-102880757D01*
X222238814Y-103090717D01*
X222299892Y-103283824D01*
X222356147Y-103444093D01*
X222403059Y-103555539D01*
X222436106Y-103602179D01*
X222438680Y-103602667D01*
X222466631Y-103565911D01*
X222502861Y-103473206D01*
X222518078Y-103422750D01*
X222561718Y-103261653D01*
X222604194Y-103098619D01*
X222610110Y-103075167D01*
X222659786Y-102921945D01*
X222723258Y-102836466D01*
X222816985Y-102801846D01*
X222879999Y-102798334D01*
X223017298Y-102798334D01*
X222982493Y-102618417D01*
X222960706Y-102502188D01*
X222947452Y-102424609D01*
X222945844Y-102411992D01*
X222906595Y-102393973D01*
X222807768Y-102376126D01*
X222721750Y-102366860D01*
X222642546Y-102351996D01*
X223083383Y-102351996D01*
X223094558Y-102459692D01*
X223113696Y-102571940D01*
X223144848Y-102754210D01*
X223170301Y-102943534D01*
X223179014Y-103031167D01*
X223192692Y-103161100D01*
X223214927Y-103327448D01*
X223242707Y-103512284D01*
X223273017Y-103697683D01*
X223302843Y-103865719D01*
X223329171Y-103998465D01*
X223348986Y-104077996D01*
X223357445Y-104092333D01*
X223359755Y-104046375D01*
X223353609Y-103934598D01*
X223340253Y-103775293D01*
X223326565Y-103638548D01*
X223279315Y-103215798D01*
X223236212Y-102875472D01*
X223196878Y-102615449D01*
X223160934Y-102433607D01*
X223128002Y-102327826D01*
X223097703Y-102295982D01*
X223088071Y-102301485D01*
X223083383Y-102351996D01*
X222642546Y-102351996D01*
X222547116Y-102334087D01*
X222356799Y-102271555D01*
X222271391Y-102233422D01*
X222148082Y-102175692D01*
X222057922Y-102141578D01*
X222024276Y-102137614D01*
X222019339Y-102192073D01*
X221877000Y-102192073D01*
X221876407Y-102189247D01*
X221849350Y-102023383D01*
X221843334Y-101945726D01*
X221859998Y-101837436D01*
X221906947Y-101807638D01*
X221979614Y-101858002D01*
X222004125Y-101886923D01*
X222116086Y-101987324D01*
X222281602Y-102087435D01*
X222470801Y-102172526D01*
X222653811Y-102227865D01*
X222716264Y-102238114D01*
X222896601Y-102258440D01*
X222904006Y-102142167D01*
X223028667Y-102142167D01*
X223049834Y-102163334D01*
X223071000Y-102142167D01*
X223049834Y-102121000D01*
X223028667Y-102142167D01*
X222904006Y-102142167D01*
X222909717Y-102052518D01*
X222933285Y-101907334D01*
X222977042Y-101839059D01*
X223035906Y-101843793D01*
X223104796Y-101917637D01*
X223178631Y-102056693D01*
X223252330Y-102257061D01*
X223274822Y-102332667D01*
X223314888Y-102511954D01*
X223356009Y-102767025D01*
X223396985Y-103089027D01*
X223436616Y-103469107D01*
X223452666Y-103645000D01*
X223475198Y-103875836D01*
X223501229Y-104101841D01*
X223527370Y-104295533D01*
X223548114Y-104419132D01*
X223576822Y-104549994D01*
X223598315Y-104607211D01*
X223618357Y-104600806D01*
X223633327Y-104567299D01*
X223664435Y-104501044D01*
X223696155Y-104509324D01*
X223724733Y-104545356D01*
X223762384Y-104630026D01*
X223796128Y-104761334D01*
X223808761Y-104837294D01*
X223831428Y-104955117D01*
X223857995Y-105015556D01*
X223874332Y-105016438D01*
X223914094Y-104940196D01*
X223956075Y-104803805D01*
X223995120Y-104631464D01*
X224026075Y-104447369D01*
X224043784Y-104275718D01*
X224046052Y-104210390D01*
X224062243Y-103886051D01*
X224103862Y-103556544D01*
X224165662Y-103259216D01*
X224193250Y-103162739D01*
X224317048Y-102907115D01*
X224512809Y-102686102D01*
X224771660Y-102509143D01*
X224839114Y-102475700D01*
X224979625Y-102406014D01*
X225096320Y-102340396D01*
X225152994Y-102301540D01*
X225195425Y-102255426D01*
X225196745Y-102204419D01*
X225155390Y-102117907D01*
X225142411Y-102094630D01*
X225100855Y-101972759D01*
X225072610Y-101795077D01*
X225058113Y-101586757D01*
X225058049Y-101542017D01*
X225186664Y-101542017D01*
X225195371Y-101741121D01*
X225218780Y-101914433D01*
X225254267Y-102029829D01*
X225324090Y-102125721D01*
X225399453Y-102163332D01*
X225399936Y-102163334D01*
X225479033Y-102185368D01*
X225516593Y-102234232D01*
X225493847Y-102284070D01*
X225489604Y-102286870D01*
X225479141Y-102337055D01*
X225516338Y-102426904D01*
X225588286Y-102536922D01*
X225682081Y-102647611D01*
X225784813Y-102739474D01*
X225793289Y-102745608D01*
X225927847Y-102841050D01*
X226001296Y-102745608D01*
X226081529Y-102602258D01*
X226152724Y-102405974D01*
X226206054Y-102188489D01*
X226232693Y-101981537D01*
X226233911Y-101909334D01*
X226239380Y-101730128D01*
X226265538Y-101620179D01*
X226310567Y-101585241D01*
X226333592Y-101593641D01*
X226361953Y-101649443D01*
X226373000Y-101742499D01*
X226380267Y-101823237D01*
X226418445Y-101858494D01*
X226512098Y-101866901D01*
X226537150Y-101867000D01*
X226661131Y-101851235D01*
X226746372Y-101811562D01*
X226753091Y-101804596D01*
X226824367Y-101772874D01*
X226948025Y-101761395D01*
X227094809Y-101767969D01*
X227235458Y-101790410D01*
X227340713Y-101826530D01*
X227372500Y-101850909D01*
X227462377Y-101904070D01*
X227572499Y-101890416D01*
X227664477Y-101824324D01*
X227726509Y-101767654D01*
X227775729Y-101773902D01*
X227815002Y-101805915D01*
X227880437Y-101846898D01*
X227919948Y-101821786D01*
X227977096Y-101797811D01*
X228093600Y-101788039D01*
X228245628Y-101790911D01*
X228409348Y-101804871D01*
X228560928Y-101828359D01*
X228676538Y-101859819D01*
X228705362Y-101873131D01*
X228842596Y-101965412D01*
X228956125Y-102068543D01*
X229026527Y-102163050D01*
X229040000Y-102208650D01*
X229075568Y-102276363D01*
X229124667Y-102302600D01*
X229194015Y-102353523D01*
X229210275Y-102402787D01*
X229236083Y-102490798D01*
X229294000Y-102586667D01*
X229352591Y-102674752D01*
X229377719Y-102738599D01*
X229377726Y-102738856D01*
X229415576Y-102816879D01*
X229503535Y-102883532D01*
X229607851Y-102915805D01*
X229636726Y-102915407D01*
X229703839Y-102918321D01*
X229736686Y-102961599D01*
X229751873Y-103067298D01*
X229751972Y-103068495D01*
X229749857Y-103185792D01*
X229727591Y-103268174D01*
X229720222Y-103278045D01*
X229678997Y-103342625D01*
X229675000Y-103362843D01*
X229692242Y-103373389D01*
X229737539Y-103322847D01*
X229801244Y-103225940D01*
X229873713Y-103097390D01*
X229945300Y-102951920D01*
X229947763Y-102946500D01*
X230013940Y-102800805D01*
X230070942Y-102675972D01*
X230102348Y-102607834D01*
X230133536Y-102528985D01*
X230181254Y-102394811D01*
X230236539Y-102230724D01*
X230251629Y-102184500D01*
X230309200Y-101961970D01*
X230352955Y-101703675D01*
X230381732Y-101430306D01*
X230394372Y-101162554D01*
X230389713Y-100921113D01*
X230366596Y-100726672D01*
X230338837Y-100629677D01*
X230279799Y-100532092D01*
X230194857Y-100441228D01*
X230099200Y-100365963D01*
X230008015Y-100315176D01*
X229936490Y-100297744D01*
X229899812Y-100322544D01*
X229904874Y-100376008D01*
X229907350Y-100395788D01*
X229895582Y-100411661D01*
X229861573Y-100423968D01*
X229797327Y-100433050D01*
X229694850Y-100439250D01*
X229546144Y-100442908D01*
X229343215Y-100444367D01*
X229078067Y-100443967D01*
X228742703Y-100442051D01*
X228415476Y-100439633D01*
X228043948Y-100435455D01*
X227680584Y-100428946D01*
X227338742Y-100420522D01*
X227031778Y-100410599D01*
X226773050Y-100399595D01*
X226575914Y-100387925D01*
X226478834Y-100379255D01*
X226289792Y-100357890D01*
X226125497Y-100339987D01*
X226008740Y-100327996D01*
X225970834Y-100324648D01*
X225902532Y-100350415D01*
X225796253Y-100422857D01*
X225670527Y-100525603D01*
X225543888Y-100642281D01*
X225434869Y-100756522D01*
X225362002Y-100851952D01*
X225351026Y-100872167D01*
X225298648Y-100974683D01*
X225249973Y-101062667D01*
X225213844Y-101175519D01*
X225192781Y-101344393D01*
X225186664Y-101542017D01*
X225058049Y-101542017D01*
X225057803Y-101372969D01*
X225072118Y-101178885D01*
X225101496Y-101029676D01*
X225122973Y-100978000D01*
X225183787Y-100866409D01*
X225223509Y-100786453D01*
X225270728Y-100720705D01*
X225364460Y-100615787D01*
X225488467Y-100489370D01*
X225558358Y-100422102D01*
X225696208Y-100289638D01*
X225783127Y-100194734D01*
X226013167Y-100194734D01*
X226224834Y-100229737D01*
X226315826Y-100238669D01*
X226480304Y-100248476D01*
X226707098Y-100258742D01*
X226985038Y-100269047D01*
X227302952Y-100278976D01*
X227649671Y-100288110D01*
X227981667Y-100295396D01*
X228339824Y-100302668D01*
X228674956Y-100309789D01*
X228976724Y-100316515D01*
X229234793Y-100322603D01*
X229438825Y-100327809D01*
X229578482Y-100331890D01*
X229642440Y-100334527D01*
X229711457Y-100335197D01*
X229742318Y-100309643D01*
X229745325Y-100236644D01*
X229735929Y-100141917D01*
X229711937Y-99925437D01*
X229691126Y-99770769D01*
X229666166Y-99655716D01*
X229629730Y-99558078D01*
X229574487Y-99455657D01*
X229493111Y-99326252D01*
X229438939Y-99242334D01*
X229358341Y-99110869D01*
X229269587Y-98957049D01*
X229240140Y-98903667D01*
X229171791Y-98796051D01*
X229087375Y-98710673D01*
X228964426Y-98628606D01*
X228823839Y-98552931D01*
X228682029Y-98480334D01*
X229053110Y-98480334D01*
X229215888Y-98651449D01*
X229306029Y-98755900D01*
X229365142Y-98842984D01*
X229378667Y-98880101D01*
X229403889Y-98894855D01*
X229473612Y-98847997D01*
X229499387Y-98824866D01*
X229624200Y-98724203D01*
X229759461Y-98636352D01*
X229763971Y-98633878D01*
X229892739Y-98535082D01*
X230029610Y-98384058D01*
X230152231Y-98207578D01*
X230210263Y-98099334D01*
X230338974Y-97813194D01*
X230425760Y-97590855D01*
X230472278Y-97423532D01*
X230480185Y-97302437D01*
X230451140Y-97218785D01*
X230386800Y-97163790D01*
X230386772Y-97163775D01*
X230317695Y-97139534D01*
X230259971Y-97165394D01*
X230196371Y-97236369D01*
X230112875Y-97366583D01*
X230050320Y-97506667D01*
X229887830Y-97875507D01*
X229657553Y-98200147D01*
X229595541Y-98267388D01*
X229477118Y-98383043D01*
X229388010Y-98447658D01*
X229303437Y-98475327D01*
X229221161Y-98480334D01*
X229053110Y-98480334D01*
X228682029Y-98480334D01*
X228510834Y-98392695D01*
X227871660Y-98404764D01*
X227597721Y-98413196D01*
X227384591Y-98426638D01*
X227240251Y-98444397D01*
X227173160Y-98465378D01*
X227096639Y-98507462D01*
X226977619Y-98553562D01*
X226936299Y-98566615D01*
X226801173Y-98620982D01*
X226672163Y-98696339D01*
X226566336Y-98779046D01*
X226500761Y-98855464D01*
X226492505Y-98911952D01*
X226497049Y-98917649D01*
X226540886Y-98987107D01*
X226511500Y-99021180D01*
X226446122Y-99015698D01*
X226372727Y-99014199D01*
X226320195Y-99067823D01*
X226291124Y-99127525D01*
X226238578Y-99247348D01*
X226171189Y-99398854D01*
X226136632Y-99475829D01*
X226073778Y-99661663D01*
X226033387Y-99871103D01*
X226027047Y-99941446D01*
X226013167Y-100194734D01*
X225783127Y-100194734D01*
X225784561Y-100193169D01*
X225836454Y-100111611D01*
X225864928Y-100023882D01*
X225883021Y-99908900D01*
X225884879Y-99894151D01*
X225913224Y-99744842D01*
X225961219Y-99565595D01*
X226020580Y-99381021D01*
X226083024Y-99215732D01*
X226140270Y-99094339D01*
X226167641Y-99053950D01*
X226201081Y-98987619D01*
X226168400Y-98925884D01*
X226062664Y-98859665D01*
X225995571Y-98828668D01*
X225869167Y-98769566D01*
X225787230Y-98712339D01*
X225729730Y-98633659D01*
X225676640Y-98510200D01*
X225643380Y-98418459D01*
X225585923Y-98156080D01*
X225584662Y-98110058D01*
X225709481Y-98110058D01*
X225775460Y-98392663D01*
X225831368Y-98530507D01*
X225894836Y-98616956D01*
X225993152Y-98682955D01*
X226061210Y-98716681D01*
X226189393Y-98777186D01*
X226263932Y-98806108D01*
X226308724Y-98805863D01*
X226347663Y-98778868D01*
X226380250Y-98748939D01*
X226441091Y-98643571D01*
X226457347Y-98526689D01*
X226449708Y-98384889D01*
X226430117Y-98217739D01*
X226402804Y-98049561D01*
X226371998Y-97904677D01*
X226341926Y-97807410D01*
X226328212Y-97783950D01*
X226296920Y-97713136D01*
X226288334Y-97640937D01*
X226268897Y-97562516D01*
X226219094Y-97438057D01*
X226151684Y-97294380D01*
X226079428Y-97158304D01*
X226015086Y-97056651D01*
X226003077Y-97041353D01*
X225970232Y-97055167D01*
X225917092Y-97143994D01*
X225846968Y-97301538D01*
X225791846Y-97443167D01*
X225710060Y-97775924D01*
X225709481Y-98110058D01*
X225584662Y-98110058D01*
X225577690Y-97855612D01*
X225615256Y-97545273D01*
X225695199Y-97253280D01*
X225814094Y-97007854D01*
X225814615Y-97007047D01*
X225900838Y-96922499D01*
X225997649Y-96920317D01*
X226105887Y-97000891D01*
G37*
X226105887Y-97000891D02*
X226226394Y-97164611D01*
X226253769Y-97210334D01*
X226332547Y-97359769D01*
X226389912Y-97495008D01*
X226414321Y-97588538D01*
X226414505Y-97593450D01*
X226431401Y-97693103D01*
X226459645Y-97745711D01*
X226484376Y-97805376D01*
X226513070Y-97927524D01*
X226541006Y-98090418D01*
X226552129Y-98171673D01*
X226600302Y-98553323D01*
X226793568Y-98472566D01*
X226926655Y-98413813D01*
X227038718Y-98359052D01*
X227071500Y-98340846D01*
X227152732Y-98318441D01*
X227312053Y-98299763D01*
X227542946Y-98285358D01*
X227838894Y-98275771D01*
X227851256Y-98275511D01*
X228111426Y-98270811D01*
X228302209Y-98270061D01*
X228438850Y-98274678D01*
X228536592Y-98286080D01*
X228610678Y-98305684D01*
X228676351Y-98334908D01*
X228714806Y-98355819D01*
X228831601Y-98412676D01*
X228909293Y-98423011D01*
X228961058Y-98401916D01*
X229061345Y-98365562D01*
X229163178Y-98353333D01*
X229296961Y-98315191D01*
X229444030Y-98209943D01*
X229592615Y-98051359D01*
X229730946Y-97853207D01*
X229847254Y-97629257D01*
X229900893Y-97490266D01*
X229984197Y-97293535D01*
X230084786Y-97136143D01*
X230191037Y-97032957D01*
X230285279Y-96998667D01*
X230386240Y-97024391D01*
X230494927Y-97086544D01*
X230498259Y-97089134D01*
X230563945Y-97149020D01*
X230595474Y-97213508D01*
X230601532Y-97311979D01*
X230595240Y-97417217D01*
X230566567Y-97592706D01*
X230512224Y-97788941D01*
X230468758Y-97904381D01*
X230380042Y-98087688D01*
X230274410Y-98274432D01*
X230163268Y-98447615D01*
X230058021Y-98590240D01*
X229970075Y-98685311D01*
X229925256Y-98714355D01*
X229858847Y-98752422D01*
X229844334Y-98779520D01*
X229810586Y-98815754D01*
X229788458Y-98819000D01*
X229724115Y-98845394D01*
X229630598Y-98911438D01*
X229597451Y-98939646D01*
X229514788Y-99017567D01*
X229488114Y-99068571D01*
X229509856Y-99121669D01*
X229539418Y-99161896D01*
X229690726Y-99388038D01*
X229783099Y-99599520D01*
X229829048Y-99827114D01*
X229834584Y-99887917D01*
X229848332Y-100040024D01*
X229866246Y-100126019D01*
X229895769Y-100164391D01*
X229944344Y-100173632D01*
X229949595Y-100173667D01*
X230066358Y-100204925D01*
X230205447Y-100286509D01*
X230339581Y-100400135D01*
X230411941Y-100483528D01*
X230451591Y-100548340D01*
X230478796Y-100628463D01*
X230496606Y-100742024D01*
X230508076Y-100907154D01*
X230514934Y-101095204D01*
X230512359Y-101496593D01*
X230476899Y-101843506D01*
X230405371Y-102160749D01*
X230360315Y-102301169D01*
X230320389Y-102434479D01*
X230315747Y-102520959D01*
X230342308Y-102586344D01*
X230376615Y-102683099D01*
X230394098Y-102814202D01*
X230394667Y-102840092D01*
X230399371Y-102948810D01*
X230426544Y-102997225D01*
X230495776Y-103009652D01*
X230531554Y-103010000D01*
X230642018Y-102991628D01*
X230791467Y-102943858D01*
X230923137Y-102888160D01*
X231167237Y-102781037D01*
X231427684Y-102682733D01*
X231672140Y-102604730D01*
X231834000Y-102564751D01*
X232087015Y-102485880D01*
X232339851Y-102357063D01*
X232404622Y-102314566D01*
X232611655Y-102178902D01*
X232784435Y-102088374D01*
X232950780Y-102030536D01*
X233115454Y-101996550D01*
X233239623Y-101971982D01*
X233326087Y-101946439D01*
X233345780Y-101935665D01*
X233341425Y-101887308D01*
X233304767Y-101783878D01*
X233243133Y-101645122D01*
X233221784Y-101601397D01*
X233102523Y-101359734D01*
X233016189Y-101173272D01*
X232957466Y-101021675D01*
X232921037Y-100884609D01*
X232901583Y-100741738D01*
X232893788Y-100572725D01*
X232893371Y-100510876D01*
X233019151Y-100510876D01*
X233021132Y-100630777D01*
X233029073Y-100736110D01*
X233046769Y-100838147D01*
X233078014Y-100948159D01*
X233126605Y-101077417D01*
X233196335Y-101237193D01*
X233291001Y-101438757D01*
X233414397Y-101693381D01*
X233570319Y-102012336D01*
X233582046Y-102036334D01*
X233749835Y-102389625D01*
X233876343Y-102677999D01*
X233960577Y-102899052D01*
X234001546Y-103050383D01*
X234001862Y-103052334D01*
X234031401Y-103241417D01*
X234062306Y-103444974D01*
X234073126Y-103518000D01*
X234104871Y-103669448D01*
X234158561Y-103862966D01*
X234223915Y-104062330D01*
X234240627Y-104108186D01*
X234300720Y-104279161D01*
X234346753Y-104429106D01*
X234371595Y-104533974D01*
X234374000Y-104557866D01*
X234386803Y-104640972D01*
X234420702Y-104777396D01*
X234468928Y-104940507D01*
X234479834Y-104974405D01*
X234530207Y-105140491D01*
X234567572Y-105286115D01*
X234585130Y-105384222D01*
X234585667Y-105395639D01*
X234603686Y-105482335D01*
X234650815Y-105614588D01*
X234713581Y-105756727D01*
X234790195Y-105902371D01*
X234848797Y-105980107D01*
X234899341Y-106001945D01*
X234914665Y-105999320D01*
X235003678Y-105977933D01*
X235128598Y-105952933D01*
X235152190Y-105948661D01*
X235251019Y-105925312D01*
X235273418Y-105901272D01*
X235250615Y-105882577D01*
X235188032Y-105815132D01*
X235138574Y-105708520D01*
X235112597Y-105596036D01*
X235120456Y-105510975D01*
X235130459Y-105496274D01*
X235173378Y-105488335D01*
X235223492Y-105553390D01*
X235244580Y-105595422D01*
X235320253Y-105756749D01*
X235374914Y-105856421D01*
X235427167Y-105907611D01*
X235495613Y-105923491D01*
X235598855Y-105917233D01*
X235686334Y-105908224D01*
X235857717Y-105888336D01*
X236018211Y-105864615D01*
X236109667Y-105847197D01*
X236225060Y-105823603D01*
X236390106Y-105793369D01*
X236570770Y-105762707D01*
X236585917Y-105760255D01*
X236914000Y-105707357D01*
X236913739Y-105342928D01*
X236905052Y-105113778D01*
X236880566Y-104943202D01*
X236853906Y-104864311D01*
X236798782Y-104733125D01*
X236730837Y-104529264D01*
X236653228Y-104263198D01*
X236569107Y-103945398D01*
X236531161Y-103793167D01*
X236483032Y-103611053D01*
X236415710Y-103375654D01*
X236337148Y-103113881D01*
X236255296Y-102852646D01*
X236231989Y-102780557D01*
X236158551Y-102551443D01*
X236093070Y-102340101D01*
X236040931Y-102164445D01*
X236007521Y-102042394D01*
X235999603Y-102007506D01*
X235971396Y-101904865D01*
X235938361Y-101844950D01*
X235935534Y-101842868D01*
X235900881Y-101784599D01*
X235898000Y-101759923D01*
X235881241Y-101691246D01*
X235837824Y-101574641D01*
X235791250Y-101466797D01*
X235727970Y-101316327D01*
X235678105Y-101176089D01*
X235658782Y-101104828D01*
X235629699Y-101007099D01*
X235596199Y-100953454D01*
X235562174Y-100895614D01*
X235559334Y-100870923D01*
X235544931Y-100805359D01*
X235500309Y-100686341D01*
X235423346Y-100509075D01*
X235311921Y-100268768D01*
X235163913Y-99960627D01*
X235084181Y-99797277D01*
X234827141Y-99272720D01*
X234441820Y-99301566D01*
X234117465Y-99326353D01*
X233865413Y-99348760D01*
X233673537Y-99372730D01*
X233529711Y-99402209D01*
X233421807Y-99441141D01*
X233337700Y-99493469D01*
X233265262Y-99563139D01*
X233192366Y-99654093D01*
X233140136Y-99724935D01*
X233087436Y-99801357D01*
X233052814Y-99871792D01*
X233032483Y-99956306D01*
X233022658Y-100074968D01*
X233019551Y-100247845D01*
X233019334Y-100365137D01*
X233019151Y-100510876D01*
X232893371Y-100510876D01*
X232892335Y-100357237D01*
X232892334Y-100341420D01*
X232892334Y-99800270D01*
X233054634Y-99595385D01*
X233152958Y-99476044D01*
X233240084Y-99378434D01*
X233285654Y-99333905D01*
X233356653Y-99305681D01*
X233494478Y-99274737D01*
X233681436Y-99243370D01*
X233899834Y-99213877D01*
X234131980Y-99188555D01*
X234360181Y-99169701D01*
X234566744Y-99159612D01*
X234636314Y-99158553D01*
X234919795Y-99157667D01*
X235193832Y-99718584D01*
X235358755Y-100058761D01*
X235487101Y-100329625D01*
X235581428Y-100536941D01*
X235644293Y-100686474D01*
X235678255Y-100783990D01*
X235686334Y-100828590D01*
X235709047Y-100897771D01*
X235723199Y-100911121D01*
X235756881Y-100965206D01*
X235785782Y-101062495D01*
X235817877Y-101172636D01*
X235873275Y-101320029D01*
X235918250Y-101424463D01*
X235975494Y-101558990D01*
X236014238Y-101667993D01*
X236025000Y-101717590D01*
X236048151Y-101787058D01*
X236062534Y-101800534D01*
X236095270Y-101854498D01*
X236124555Y-101954728D01*
X236126603Y-101965173D01*
X236148834Y-102054309D01*
X236192440Y-102205855D01*
X236252036Y-102401895D01*
X236322236Y-102624513D01*
X236358989Y-102738223D01*
X236440308Y-102994244D01*
X236520656Y-103258638D01*
X236592083Y-103504493D01*
X236646634Y-103704897D01*
X236658203Y-103750834D01*
X236738487Y-104070796D01*
X236806194Y-104322071D01*
X236865566Y-104518950D01*
X236920851Y-104675724D01*
X236963403Y-104778323D01*
X237002352Y-104883986D01*
X237025116Y-105001424D01*
X237034314Y-105154028D01*
X237032562Y-105365190D01*
X237031888Y-105390346D01*
X237019834Y-105821545D01*
X236850500Y-105856896D01*
X236575654Y-105908743D01*
X236255289Y-105958398D01*
X235873932Y-106008146D01*
X235644000Y-106035081D01*
X235427636Y-106060694D01*
X235229805Y-106086032D01*
X235072397Y-106108169D01*
X234977355Y-106124169D01*
X234834763Y-106127297D01*
X234771527Y-106096482D01*
X234708371Y-106017799D01*
X234632417Y-105887334D01*
X234557051Y-105733268D01*
X234495662Y-105583779D01*
X234461639Y-105467047D01*
X234458667Y-105437973D01*
X234445826Y-105352456D01*
X234411836Y-105214075D01*
X234363494Y-105049887D01*
X234352834Y-105016738D01*
X234302484Y-104850935D01*
X234265126Y-104705884D01*
X234247546Y-104608493D01*
X234247000Y-104597137D01*
X234230173Y-104500661D01*
X234181942Y-104337254D01*
X234105684Y-104117176D01*
X234004776Y-103850689D01*
X233984104Y-103798202D01*
X233935799Y-103676237D01*
X233615150Y-103707419D01*
X233433576Y-103723871D01*
X233202554Y-103743088D01*
X232957115Y-103762219D01*
X232807667Y-103773170D01*
X232472874Y-103799500D01*
X232211760Y-103826661D01*
X232013347Y-103856854D01*
X231866660Y-103892284D01*
X231760720Y-103935152D01*
X231684552Y-103987662D01*
X231669957Y-104001468D01*
X231632127Y-104042313D01*
X231601751Y-104087637D01*
X231576944Y-104148181D01*
X231555821Y-104234688D01*
X231536497Y-104357898D01*
X231517085Y-104528552D01*
X231495702Y-104757393D01*
X231470461Y-105055161D01*
X231457602Y-105211334D01*
X231428541Y-105533919D01*
X231398496Y-105785332D01*
X231363929Y-105979029D01*
X231321302Y-106128466D01*
X231267077Y-106247098D01*
X231197715Y-106348382D01*
X231141782Y-106412415D01*
X231007845Y-106532062D01*
X230836342Y-106654350D01*
X230691000Y-106738579D01*
X230534647Y-106821068D01*
X230392567Y-106902444D01*
X230298353Y-106963153D01*
X230218479Y-107047419D01*
X230129870Y-107178221D01*
X230048531Y-107326691D01*
X229990468Y-107463960D01*
X229971334Y-107553028D01*
X229930667Y-107638669D01*
X229815075Y-107716138D01*
X229634171Y-107781940D01*
X229397566Y-107832582D01*
X229114873Y-107864570D01*
X229114084Y-107864626D01*
X228743667Y-107890866D01*
X228743667Y-108047106D01*
X228757534Y-108164648D01*
X228795348Y-108340384D01*
X228851429Y-108553194D01*
X228920099Y-108781959D01*
X228995677Y-109005558D01*
X229017042Y-109063667D01*
X229072640Y-109211834D01*
X229388424Y-109224079D01*
X229580367Y-109224941D01*
X229704848Y-109201086D01*
X229778223Y-109139740D01*
X229816852Y-109028130D01*
X229835351Y-108875081D01*
X229840129Y-108756429D01*
X229827491Y-108652577D01*
X229790465Y-108537883D01*
X229722079Y-108386704D01*
X229678682Y-108298869D01*
X229593090Y-108115034D01*
X229545746Y-107983761D01*
X229539711Y-107913868D01*
X229543209Y-107908525D01*
X229587883Y-107915506D01*
X229655721Y-107989793D01*
X229738979Y-108119868D01*
X229829914Y-108294211D01*
X229886804Y-108419604D01*
X229944663Y-108582806D01*
X229967303Y-108741149D01*
X229963864Y-108912534D01*
X229944108Y-109101554D01*
X229903696Y-109228794D01*
X229828148Y-109306189D01*
X229702983Y-109345676D01*
X229513720Y-109359191D01*
X229421000Y-109360000D01*
X229231159Y-109356632D01*
X229107160Y-109344409D01*
X229030370Y-109320153D01*
X228986676Y-109285917D01*
X228941265Y-109209578D01*
X228884972Y-109079264D01*
X228829655Y-108922556D01*
X228827434Y-108915500D01*
X228771140Y-108736736D01*
X228715480Y-108561611D01*
X228675652Y-108437771D01*
X228636997Y-108272721D01*
X228617305Y-108098323D01*
X228616667Y-108068844D01*
X228611084Y-107963544D01*
X228585092Y-107889774D01*
X228524822Y-107838908D01*
X228416408Y-107802322D01*
X228245982Y-107771390D01*
X228106891Y-107751781D01*
X227817461Y-107708347D01*
X227589850Y-107662568D01*
X227401289Y-107608427D01*
X227229009Y-107539906D01*
X227135000Y-107494942D01*
X226956342Y-107405367D01*
X226836509Y-107355011D01*
X226763767Y-107352350D01*
X226726383Y-107405859D01*
X226712624Y-107524014D01*
X226710754Y-107715290D01*
X226710737Y-107801397D01*
X226706771Y-108039146D01*
X226694338Y-108212338D01*
X226671023Y-108340870D01*
X226634412Y-108444634D01*
X226632049Y-108449834D01*
X226529463Y-108628435D01*
X226417580Y-108729285D01*
X226287443Y-108759301D01*
X226237305Y-108754576D01*
X226125144Y-108737187D01*
X225963589Y-108712939D01*
X225787057Y-108686996D01*
X225782184Y-108686288D01*
X225608827Y-108656627D01*
X225490425Y-108620445D01*
X225397479Y-108565190D01*
X225305934Y-108483640D01*
X225188871Y-108346140D01*
X225150697Y-108239244D01*
X225191397Y-108162859D01*
X225242323Y-108135696D01*
X225344832Y-108076808D01*
X225397850Y-108028288D01*
X225463740Y-107967585D01*
X225574479Y-107882585D01*
X225676934Y-107811365D01*
X225906280Y-107643114D01*
X226072121Y-107480865D01*
X226192168Y-107306698D01*
X226211353Y-107270602D01*
X226280295Y-107171420D01*
X226336985Y-107146813D01*
X226366921Y-107193169D01*
X226355686Y-107306556D01*
X226307534Y-107399118D01*
X226210143Y-107524034D01*
X226081416Y-107662084D01*
X225939259Y-107794046D01*
X225803346Y-107899500D01*
X225692123Y-107984187D01*
X225568117Y-108091134D01*
X225535414Y-108121750D01*
X225435787Y-108204279D01*
X225350165Y-108253382D01*
X225324279Y-108259334D01*
X225295148Y-108274926D01*
X225325520Y-108328064D01*
X225376594Y-108384691D01*
X225508539Y-108484432D01*
X225677085Y-108531694D01*
X225691430Y-108533530D01*
X225861298Y-108558928D01*
X226043550Y-108593135D01*
X226088421Y-108602885D01*
X226237056Y-108624889D01*
X226341276Y-108602006D01*
X226422554Y-108522005D01*
X226502359Y-108372657D01*
X226505779Y-108365167D01*
X226542389Y-108263206D01*
X226566041Y-108137182D01*
X226579028Y-107967679D01*
X226583642Y-107735282D01*
X226583737Y-107704740D01*
X226584667Y-107213646D01*
X226087250Y-106960003D01*
X225873832Y-106855499D01*
X225660888Y-106758680D01*
X225473156Y-106680361D01*
X225335834Y-106631494D01*
X225174243Y-106583806D01*
X225023938Y-106539354D01*
X224944931Y-106515922D01*
X224839029Y-106459928D01*
X224721461Y-106362308D01*
X224613424Y-106245649D01*
X224536117Y-106132535D01*
X224510334Y-106052879D01*
X224489004Y-105975036D01*
X224468000Y-105952167D01*
X224434397Y-105893404D01*
X224425667Y-105829464D01*
X224386795Y-105735324D01*
X224279024Y-105668662D01*
X224115617Y-105636524D01*
X224058906Y-105634667D01*
X223959875Y-105639652D01*
X223925054Y-105667619D01*
X223934058Y-105738084D01*
X223937308Y-105751084D01*
X223975547Y-105933070D01*
X223989993Y-106072003D01*
X223982928Y-106159699D01*
X223956639Y-106187975D01*
X223913408Y-106148646D01*
X223857282Y-106037760D01*
X223782029Y-105916168D01*
X223682566Y-105820258D01*
X223675250Y-105815510D01*
X223499154Y-105694593D01*
X223359066Y-105576353D01*
X223268454Y-105473496D01*
X223240335Y-105405167D01*
X223250478Y-105370084D01*
X223499244Y-105370084D01*
X223508556Y-105470961D01*
X223551201Y-105506893D01*
X223563017Y-105507667D01*
X223607181Y-105492288D01*
X223604338Y-105486500D01*
X223917667Y-105486500D01*
X223938834Y-105507667D01*
X223960000Y-105486500D01*
X223938834Y-105465334D01*
X223917667Y-105486500D01*
X223604338Y-105486500D01*
X223588739Y-105454750D01*
X223579138Y-105437111D01*
X224228111Y-105437111D01*
X224233922Y-105462278D01*
X224256334Y-105465334D01*
X224291179Y-105449844D01*
X224284556Y-105437111D01*
X224234316Y-105432045D01*
X224228111Y-105437111D01*
X223579138Y-105437111D01*
X223542245Y-105369333D01*
X223524966Y-105317167D01*
X223523248Y-105313663D01*
X223975869Y-105313663D01*
X223977754Y-105327865D01*
X224040634Y-105339777D01*
X224127448Y-105309277D01*
X224201810Y-105253370D01*
X224226145Y-105211797D01*
X224275033Y-105142670D01*
X224322094Y-105126667D01*
X224421765Y-105093551D01*
X224542290Y-105008006D01*
X224661859Y-104890736D01*
X224758664Y-104762444D01*
X224803948Y-104669238D01*
X224836431Y-104522937D01*
X224814883Y-104437486D01*
X224737653Y-104407212D01*
X224727593Y-104407000D01*
X224631522Y-104385409D01*
X224555851Y-104334116D01*
X224523240Y-104273337D01*
X224537092Y-104237041D01*
X224612222Y-104211315D01*
X224664092Y-104229636D01*
X224763813Y-104276576D01*
X224859584Y-104316871D01*
X224942460Y-104366955D01*
X224973395Y-104448633D01*
X224976000Y-104506756D01*
X224937271Y-104732921D01*
X224819282Y-104942782D01*
X224643616Y-105121407D01*
X224515155Y-105240983D01*
X224445019Y-105341802D01*
X224418154Y-105439695D01*
X224421567Y-105558765D01*
X224472379Y-105627473D01*
X224477031Y-105630482D01*
X224536443Y-105707019D01*
X224552667Y-105780694D01*
X224568328Y-105870188D01*
X224595000Y-105909834D01*
X224632841Y-105970601D01*
X224637334Y-106003586D01*
X224670686Y-106105223D01*
X224754852Y-106220496D01*
X224865995Y-106323097D01*
X224980277Y-106386716D01*
X224986116Y-106388543D01*
X225103575Y-106423320D01*
X225261561Y-106469877D01*
X225378167Y-106504135D01*
X225511193Y-106550432D01*
X225686902Y-106624620D01*
X225911938Y-106729869D01*
X226192944Y-106869355D01*
X226536563Y-107046251D01*
X226775167Y-107171461D01*
X227053417Y-107312788D01*
X227284120Y-107415795D01*
X227490121Y-107489211D01*
X227694263Y-107541764D01*
X227797157Y-107561936D01*
X228073709Y-107611441D01*
X228278812Y-107646882D01*
X228424271Y-107669591D01*
X228521892Y-107680902D01*
X228583481Y-107682149D01*
X228620842Y-107674666D01*
X228645782Y-107659787D01*
X228647916Y-107658052D01*
X228699626Y-107644304D01*
X228728737Y-107688821D01*
X228753277Y-107726045D01*
X228803212Y-107745060D01*
X228897345Y-107748449D01*
X229054474Y-107738797D01*
X229078488Y-107736882D01*
X229270693Y-107713167D01*
X229461573Y-107676322D01*
X229604969Y-107635877D01*
X229738924Y-107576411D01*
X229817009Y-107507336D01*
X229864030Y-107412667D01*
X229942896Y-107208047D01*
X230018333Y-107054831D01*
X230106390Y-106935670D01*
X230223115Y-106833218D01*
X230384557Y-106730126D01*
X230606765Y-106609045D01*
X230608116Y-106608334D01*
X230775099Y-106506959D01*
X230935096Y-106387597D01*
X231045865Y-106283904D01*
X231118225Y-106192337D01*
X231174929Y-106091851D01*
X231219377Y-105968793D01*
X231254969Y-105809512D01*
X231285105Y-105600354D01*
X231313186Y-105327667D01*
X231328805Y-105147834D01*
X231356950Y-104813135D01*
X231380207Y-104552069D01*
X231400603Y-104353886D01*
X231420160Y-104207833D01*
X231440903Y-104103161D01*
X231464856Y-104029118D01*
X231494044Y-103974953D01*
X231530489Y-103929914D01*
X231564731Y-103894731D01*
X231631165Y-103837874D01*
X231711680Y-103792240D01*
X231817979Y-103755351D01*
X231961764Y-103724728D01*
X232154738Y-103697894D01*
X232408602Y-103672371D01*
X232735060Y-103645681D01*
X232744167Y-103644984D01*
X233090162Y-103617895D01*
X233360549Y-103595012D01*
X233564220Y-103575206D01*
X233710065Y-103557347D01*
X233806974Y-103540307D01*
X233863838Y-103522956D01*
X233889549Y-103504166D01*
X233892120Y-103499191D01*
X233892614Y-103427390D01*
X233870606Y-103296378D01*
X233831483Y-103126885D01*
X233780630Y-102939643D01*
X233723434Y-102755382D01*
X233665280Y-102594833D01*
X233644041Y-102544334D01*
X233578925Y-102396261D01*
X233521020Y-102262295D01*
X233493658Y-102197425D01*
X233453048Y-102123616D01*
X233394366Y-102097893D01*
X233285891Y-102106044D01*
X233017750Y-102162720D01*
X232781557Y-102259810D01*
X232604215Y-102365422D01*
X232456340Y-102453924D01*
X232284953Y-102543191D01*
X232112883Y-102622803D01*
X231962959Y-102682344D01*
X231858012Y-102711397D01*
X231843248Y-102712662D01*
X231752928Y-102729712D01*
X231607791Y-102773440D01*
X231430233Y-102835796D01*
X231242654Y-102908730D01*
X231067452Y-102984190D01*
X231003000Y-103014674D01*
X230832508Y-103089352D01*
X230692497Y-103124800D01*
X230543960Y-103130164D01*
X230516167Y-103128805D01*
X230288834Y-103115834D01*
X230275931Y-102914750D01*
X230258212Y-102781021D01*
X230229997Y-102720971D01*
X230196099Y-102738314D01*
X230163493Y-102827959D01*
X230127067Y-102924425D01*
X230061102Y-103060643D01*
X229992350Y-103185317D01*
X229849893Y-103428384D01*
X229984697Y-103441442D01*
X230083180Y-103465246D01*
X230118306Y-103519697D01*
X230119500Y-103539167D01*
X230096464Y-103600840D01*
X230016623Y-103651791D01*
X229918639Y-103687334D01*
X229803316Y-103728789D01*
X229730564Y-103764547D01*
X229717556Y-103778309D01*
X229755085Y-103820172D01*
X229858486Y-103881768D01*
X230013255Y-103956218D01*
X230204888Y-104036638D01*
X230418884Y-104116148D01*
X230457679Y-104129499D01*
X230663782Y-104205929D01*
X230792369Y-104269425D01*
X230849095Y-104322902D01*
X230852366Y-104332917D01*
X230836369Y-104394282D01*
X230783230Y-104407000D01*
X230701690Y-104419129D01*
X230568894Y-104450885D01*
X230417832Y-104494128D01*
X230184049Y-104590770D01*
X229996086Y-104717340D01*
X229865781Y-104863001D01*
X229804969Y-105016912D01*
X229802000Y-105057983D01*
X229819788Y-105171742D01*
X229862862Y-105251355D01*
X229865500Y-105253667D01*
X229923798Y-105337128D01*
X229899578Y-105426573D01*
X229848526Y-105482706D01*
X229785072Y-105574513D01*
X229741539Y-105697181D01*
X229740279Y-105703573D01*
X229699064Y-105810010D01*
X229639632Y-105839484D01*
X229576534Y-105793101D01*
X229528662Y-105687495D01*
X229494843Y-105594953D01*
X229465761Y-105550652D01*
X229463132Y-105550000D01*
X229434003Y-105585612D01*
X229385497Y-105676531D01*
X229328214Y-105798882D01*
X229272752Y-105928791D01*
X229229713Y-106042381D01*
X229209696Y-106115779D01*
X229209334Y-106121654D01*
X229189237Y-106182927D01*
X229177584Y-106192056D01*
X229140584Y-106235327D01*
X229084446Y-106327910D01*
X229059102Y-106375500D01*
X228975679Y-106499163D01*
X228894008Y-106544711D01*
X228889768Y-106544834D01*
X228854396Y-106539628D01*
X228831391Y-106514470D01*
X228818637Y-106455050D01*
X228814020Y-106347057D01*
X228815426Y-106176180D01*
X228817828Y-106058000D01*
X228821377Y-105850977D01*
X228820255Y-105717411D01*
X228813069Y-105646156D01*
X228798428Y-105626065D01*
X228774938Y-105645992D01*
X228767582Y-105655834D01*
X228622269Y-105850722D01*
X228511578Y-105978337D01*
X228426418Y-106043912D01*
X228357696Y-106052684D01*
X228296322Y-106009886D01*
X228252941Y-105952167D01*
X228154236Y-105865035D01*
X228032838Y-105854430D01*
X227907042Y-105920417D01*
X227803102Y-106007983D01*
X227727877Y-106071042D01*
X227619028Y-106134401D01*
X227540299Y-106118874D01*
X227493367Y-106025320D01*
X227481999Y-105944971D01*
X227439267Y-105756343D01*
X227340922Y-105630178D01*
X227183355Y-105563279D01*
X227036456Y-105550000D01*
X226777282Y-105585297D01*
X226514214Y-105681760D01*
X226282053Y-105825252D01*
X226214635Y-105883876D01*
X226123289Y-105963681D01*
X226053695Y-106010516D01*
X226037217Y-106015667D01*
X225977725Y-105986013D01*
X225971979Y-105916226D01*
X226010930Y-105848806D01*
X226066509Y-105748540D01*
X226089160Y-105650390D01*
X226085307Y-105566334D01*
X226041112Y-105528791D01*
X225956500Y-105515288D01*
X225825185Y-105526746D01*
X225761838Y-105574672D01*
X225696588Y-105617725D01*
X225634349Y-105602161D01*
X225611000Y-105545788D01*
X225634135Y-105485808D01*
X225690327Y-105396420D01*
X225695335Y-105389536D01*
X225760073Y-105265921D01*
X225801110Y-105118502D01*
X225814924Y-104974706D01*
X225797993Y-104861955D01*
X225768693Y-104818197D01*
X225730704Y-104769599D01*
X225721789Y-104690266D01*
X225739036Y-104555167D01*
X225760939Y-104383075D01*
X225775197Y-104187738D01*
X225777810Y-104101412D01*
X225772036Y-103956643D01*
X225748129Y-103888701D01*
X225701938Y-103897776D01*
X225629310Y-103984056D01*
X225547500Y-104111915D01*
X225460695Y-104231839D01*
X225382980Y-104298419D01*
X225325913Y-104306785D01*
X225301055Y-104252070D01*
X225302302Y-104215179D01*
X225343072Y-103999570D01*
X225401291Y-103804237D01*
X225549281Y-103804237D01*
X225551583Y-103837363D01*
X225586764Y-103814790D01*
X225609643Y-103794395D01*
X225709554Y-103743559D01*
X225787426Y-103736848D01*
X225831109Y-103746591D01*
X225859537Y-103771265D01*
X225875984Y-103826304D01*
X225883723Y-103927142D01*
X225886029Y-104089214D01*
X225886167Y-104202380D01*
X225888982Y-104390560D01*
X225896595Y-104546663D01*
X225907757Y-104651674D01*
X225917917Y-104685685D01*
X225939739Y-104751217D01*
X225948436Y-104871633D01*
X225944399Y-105018235D01*
X225928022Y-105162329D01*
X225910289Y-105243363D01*
X225889060Y-105336179D01*
X225907199Y-105373681D01*
X225976572Y-105380667D01*
X226123542Y-105406905D01*
X226218148Y-105478557D01*
X226246000Y-105567771D01*
X226246000Y-105667229D01*
X226481365Y-105545115D01*
X226636274Y-105474095D01*
X226777857Y-105436794D01*
X226947938Y-105423659D01*
X227016116Y-105423000D01*
X227175402Y-105425446D01*
X227277883Y-105439132D01*
X227351406Y-105473584D01*
X227423816Y-105538327D01*
X227458085Y-105574181D01*
X227547056Y-105689824D01*
X227596258Y-105796986D01*
X227600667Y-105828181D01*
X227613155Y-105908840D01*
X227656247Y-105922309D01*
X227738390Y-105868452D01*
X227787166Y-105825167D01*
X227934203Y-105738614D01*
X228097962Y-105719872D01*
X228251622Y-105769608D01*
X228307884Y-105812189D01*
X228406724Y-105905045D01*
X228479404Y-105801606D01*
X228545879Y-105705301D01*
X228633359Y-105576483D01*
X228679626Y-105507667D01*
X228771264Y-105381269D01*
X228838496Y-105318265D01*
X228884604Y-105322739D01*
X228912869Y-105398770D01*
X228926574Y-105550443D01*
X228928999Y-105781837D01*
X228928663Y-105817432D01*
X228926821Y-106028271D01*
X228928079Y-106165177D01*
X228934308Y-106238872D01*
X228947384Y-106260081D01*
X228969179Y-106239526D01*
X228995234Y-106198432D01*
X229045903Y-106100561D01*
X229112562Y-105953266D01*
X229181732Y-105786493D01*
X229189233Y-105767434D01*
X229283070Y-105564480D01*
X229375661Y-105434657D01*
X229463434Y-105381105D01*
X229542816Y-105406963D01*
X229567600Y-105434865D01*
X229612691Y-105483211D01*
X229654800Y-105466754D01*
X229687821Y-105432223D01*
X229731001Y-105345956D01*
X229715840Y-105295033D01*
X229675741Y-105165991D01*
X229678922Y-105001611D01*
X229721393Y-104836794D01*
X229780658Y-104728493D01*
X229871082Y-104642746D01*
X230010676Y-104545201D01*
X230173587Y-104450335D01*
X230333964Y-104372625D01*
X230465954Y-104326548D01*
X230510193Y-104319956D01*
X230513189Y-104307435D01*
X230449055Y-104276888D01*
X230331665Y-104234918D01*
X230331167Y-104234755D01*
X230038192Y-104121877D01*
X229806743Y-103996069D01*
X229644783Y-103862479D01*
X229564882Y-103739493D01*
X229529145Y-103748912D01*
X229447762Y-103787040D01*
X229437882Y-103792149D01*
X229336337Y-103820973D01*
X229170855Y-103841735D01*
X228961815Y-103854102D01*
X228729592Y-103857737D01*
X228494565Y-103852306D01*
X228277111Y-103837473D01*
X228103862Y-103814089D01*
X227769636Y-103737606D01*
X227389725Y-103627267D01*
X226991278Y-103492380D01*
X226601446Y-103342253D01*
X226247381Y-103186194D01*
X226186981Y-103156930D01*
X225979794Y-103054840D01*
X225859573Y-103191170D01*
X225785158Y-103283779D01*
X225742538Y-103352726D01*
X225738676Y-103366500D01*
X225712687Y-103427140D01*
X225678708Y-103472333D01*
X225628936Y-103556319D01*
X225582194Y-103677757D01*
X225575008Y-103702547D01*
X225549281Y-103804237D01*
X225401291Y-103804237D01*
X225417610Y-103749488D01*
X225513424Y-103499820D01*
X225618020Y-103285454D01*
X225659732Y-103217084D01*
X225828863Y-102962453D01*
X225812657Y-102946500D01*
X226046017Y-102946500D01*
X226241258Y-103039010D01*
X226583080Y-103190056D01*
X226957624Y-103336912D01*
X227339958Y-103470979D01*
X227705150Y-103583658D01*
X228028269Y-103666349D01*
X228108667Y-103683125D01*
X228253654Y-103702531D01*
X228444447Y-103715788D01*
X228659084Y-103722804D01*
X228875601Y-103723486D01*
X229072036Y-103717743D01*
X229226424Y-103705483D01*
X229312931Y-103688183D01*
X229408920Y-103618554D01*
X229467427Y-103529433D01*
X229522070Y-103400229D01*
X229572740Y-103292319D01*
X229622950Y-103169406D01*
X229616563Y-103093949D01*
X229548062Y-103045883D01*
X229500428Y-103029338D01*
X229393519Y-102970197D01*
X229295832Y-102853011D01*
X229250782Y-102777605D01*
X229150712Y-102629676D01*
X229056031Y-102550863D01*
X229033771Y-102543085D01*
X228967523Y-102512328D01*
X228934106Y-102443855D01*
X228921149Y-102341563D01*
X228898925Y-102213663D01*
X228855760Y-102164228D01*
X228847066Y-102163334D01*
X228792286Y-102141386D01*
X228786000Y-102124101D01*
X228747349Y-102064142D01*
X228646120Y-102008854D01*
X228504403Y-101963120D01*
X228344288Y-101931820D01*
X228187863Y-101919837D01*
X228057218Y-101932053D01*
X228003692Y-101951207D01*
X227894859Y-101984459D01*
X227815157Y-101982473D01*
X227735251Y-101979708D01*
X227704044Y-101997974D01*
X227643905Y-102027635D01*
X227537928Y-102035742D01*
X227421634Y-102024179D01*
X227330542Y-101994830D01*
X227307755Y-101976956D01*
X227237308Y-101937138D01*
X227119533Y-101908263D01*
X227071706Y-101902724D01*
X226958256Y-101900557D01*
X226919032Y-101916948D01*
X226925302Y-101928235D01*
X226963147Y-101983779D01*
X226935941Y-102014897D01*
X226837780Y-102023528D01*
X226669334Y-102012260D01*
X226373000Y-101983060D01*
X226373000Y-102113942D01*
X226354583Y-102242690D01*
X226306692Y-102414215D01*
X226240367Y-102596949D01*
X226166648Y-102759325D01*
X226118852Y-102840667D01*
X226046017Y-102946500D01*
X225812657Y-102946500D01*
X225617165Y-102754068D01*
X225506350Y-102636874D01*
X225420410Y-102531027D01*
X225378381Y-102460342D01*
X225340402Y-102395887D01*
X225296080Y-102373353D01*
X225272511Y-102405352D01*
X225272334Y-102410983D01*
X225236340Y-102444301D01*
X225141884Y-102497354D01*
X225009249Y-102558776D01*
X225006423Y-102559979D01*
X224735555Y-102701701D01*
X224533539Y-102872505D01*
X224385941Y-103086235D01*
X224329864Y-103208942D01*
X224283766Y-103363589D01*
X224241242Y-103577029D01*
X224205951Y-103823387D01*
X224181556Y-104076789D01*
X224171716Y-104311362D01*
X224171667Y-104327071D01*
X224159170Y-104482173D01*
X224125990Y-104680715D01*
X224078591Y-104885939D01*
X224064392Y-104937045D01*
X224019337Y-105101936D01*
X223988405Y-105233901D01*
X223975869Y-105313663D01*
X223523248Y-105313663D01*
X223509888Y-105286417D01*
X223500731Y-105339347D01*
X223499244Y-105370084D01*
X223250478Y-105370084D01*
X223267745Y-105310361D01*
X223310105Y-105246737D01*
X223357311Y-105160679D01*
X223374690Y-105105500D01*
X223706000Y-105105500D01*
X223727167Y-105126667D01*
X223748334Y-105105500D01*
X223727167Y-105084334D01*
X223706000Y-105105500D01*
X223374690Y-105105500D01*
X223398963Y-105028437D01*
X223414198Y-104952528D01*
X223428505Y-104814585D01*
X223417026Y-104695350D01*
X223374008Y-104556901D01*
X223341895Y-104475958D01*
X223279852Y-104292182D01*
X223215079Y-104041794D01*
X223151418Y-103742594D01*
X223092712Y-103412380D01*
X223050017Y-103123892D01*
X223029863Y-103002174D01*
X223002373Y-102944359D01*
X222952470Y-102930038D01*
X222909278Y-102933392D01*
X222834166Y-102955392D01*
X222786065Y-103014898D01*
X222746424Y-103135031D01*
X222745907Y-103137000D01*
X222674559Y-103398511D01*
X222607497Y-103624229D01*
X222548793Y-103801630D01*
X222502519Y-103918193D01*
X222479127Y-103957473D01*
X222425347Y-103977579D01*
X222372513Y-103924217D01*
X222317294Y-103792952D01*
X222290445Y-103706118D01*
X222248667Y-103564981D01*
X222191997Y-103378357D01*
X222131151Y-103181457D01*
X222117247Y-103137000D01*
X222046051Y-102896146D01*
X221979210Y-102644992D01*
X221921178Y-102402904D01*
X221877000Y-102192073D01*
X222019339Y-102192073D01*
X222036708Y-102309602D01*
X222071861Y-102474215D01*
X222120277Y-102669928D01*
X222177435Y-102880757D01*
X222238814Y-103090717D01*
X222299892Y-103283824D01*
X222356147Y-103444093D01*
X222403059Y-103555539D01*
X222436106Y-103602179D01*
X222438680Y-103602667D01*
X222466631Y-103565911D01*
X222502861Y-103473206D01*
X222518078Y-103422750D01*
X222561718Y-103261653D01*
X222604194Y-103098619D01*
X222610110Y-103075167D01*
X222659786Y-102921945D01*
X222723258Y-102836466D01*
X222816985Y-102801846D01*
X222879999Y-102798334D01*
X223017298Y-102798334D01*
X222982493Y-102618417D01*
X222960706Y-102502188D01*
X222947452Y-102424609D01*
X222945844Y-102411992D01*
X222906595Y-102393973D01*
X222807768Y-102376126D01*
X222721750Y-102366860D01*
X222642546Y-102351996D01*
X223083383Y-102351996D01*
X223094558Y-102459692D01*
X223113696Y-102571940D01*
X223144848Y-102754210D01*
X223170301Y-102943534D01*
X223179014Y-103031167D01*
X223192692Y-103161100D01*
X223214927Y-103327448D01*
X223242707Y-103512284D01*
X223273017Y-103697683D01*
X223302843Y-103865719D01*
X223329171Y-103998465D01*
X223348986Y-104077996D01*
X223357445Y-104092333D01*
X223359755Y-104046375D01*
X223353609Y-103934598D01*
X223340253Y-103775293D01*
X223326565Y-103638548D01*
X223279315Y-103215798D01*
X223236212Y-102875472D01*
X223196878Y-102615449D01*
X223160934Y-102433607D01*
X223128002Y-102327826D01*
X223097703Y-102295982D01*
X223088071Y-102301485D01*
X223083383Y-102351996D01*
X222642546Y-102351996D01*
X222547116Y-102334087D01*
X222356799Y-102271555D01*
X222271391Y-102233422D01*
X222148082Y-102175692D01*
X222057922Y-102141578D01*
X222024276Y-102137614D01*
X222019339Y-102192073D01*
X221877000Y-102192073D01*
X221876407Y-102189247D01*
X221849350Y-102023383D01*
X221843334Y-101945726D01*
X221859998Y-101837436D01*
X221906947Y-101807638D01*
X221979614Y-101858002D01*
X222004125Y-101886923D01*
X222116086Y-101987324D01*
X222281602Y-102087435D01*
X222470801Y-102172526D01*
X222653811Y-102227865D01*
X222716264Y-102238114D01*
X222896601Y-102258440D01*
X222904006Y-102142167D01*
X223028667Y-102142167D01*
X223049834Y-102163334D01*
X223071000Y-102142167D01*
X223049834Y-102121000D01*
X223028667Y-102142167D01*
X222904006Y-102142167D01*
X222909717Y-102052518D01*
X222933285Y-101907334D01*
X222977042Y-101839059D01*
X223035906Y-101843793D01*
X223104796Y-101917637D01*
X223178631Y-102056693D01*
X223252330Y-102257061D01*
X223274822Y-102332667D01*
X223314888Y-102511954D01*
X223356009Y-102767025D01*
X223396985Y-103089027D01*
X223436616Y-103469107D01*
X223452666Y-103645000D01*
X223475198Y-103875836D01*
X223501229Y-104101841D01*
X223527370Y-104295533D01*
X223548114Y-104419132D01*
X223576822Y-104549994D01*
X223598315Y-104607211D01*
X223618357Y-104600806D01*
X223633327Y-104567299D01*
X223664435Y-104501044D01*
X223696155Y-104509324D01*
X223724733Y-104545356D01*
X223762384Y-104630026D01*
X223796128Y-104761334D01*
X223808761Y-104837294D01*
X223831428Y-104955117D01*
X223857995Y-105015556D01*
X223874332Y-105016438D01*
X223914094Y-104940196D01*
X223956075Y-104803805D01*
X223995120Y-104631464D01*
X224026075Y-104447369D01*
X224043784Y-104275718D01*
X224046052Y-104210390D01*
X224062243Y-103886051D01*
X224103862Y-103556544D01*
X224165662Y-103259216D01*
X224193250Y-103162739D01*
X224317048Y-102907115D01*
X224512809Y-102686102D01*
X224771660Y-102509143D01*
X224839114Y-102475700D01*
X224979625Y-102406014D01*
X225096320Y-102340396D01*
X225152994Y-102301540D01*
X225195425Y-102255426D01*
X225196745Y-102204419D01*
X225155390Y-102117907D01*
X225142411Y-102094630D01*
X225100855Y-101972759D01*
X225072610Y-101795077D01*
X225058113Y-101586757D01*
X225058049Y-101542017D01*
X225186664Y-101542017D01*
X225195371Y-101741121D01*
X225218780Y-101914433D01*
X225254267Y-102029829D01*
X225324090Y-102125721D01*
X225399453Y-102163332D01*
X225399936Y-102163334D01*
X225479033Y-102185368D01*
X225516593Y-102234232D01*
X225493847Y-102284070D01*
X225489604Y-102286870D01*
X225479141Y-102337055D01*
X225516338Y-102426904D01*
X225588286Y-102536922D01*
X225682081Y-102647611D01*
X225784813Y-102739474D01*
X225793289Y-102745608D01*
X225927847Y-102841050D01*
X226001296Y-102745608D01*
X226081529Y-102602258D01*
X226152724Y-102405974D01*
X226206054Y-102188489D01*
X226232693Y-101981537D01*
X226233911Y-101909334D01*
X226239380Y-101730128D01*
X226265538Y-101620179D01*
X226310567Y-101585241D01*
X226333592Y-101593641D01*
X226361953Y-101649443D01*
X226373000Y-101742499D01*
X226380267Y-101823237D01*
X226418445Y-101858494D01*
X226512098Y-101866901D01*
X226537150Y-101867000D01*
X226661131Y-101851235D01*
X226746372Y-101811562D01*
X226753091Y-101804596D01*
X226824367Y-101772874D01*
X226948025Y-101761395D01*
X227094809Y-101767969D01*
X227235458Y-101790410D01*
X227340713Y-101826530D01*
X227372500Y-101850909D01*
X227462377Y-101904070D01*
X227572499Y-101890416D01*
X227664477Y-101824324D01*
X227726509Y-101767654D01*
X227775729Y-101773902D01*
X227815002Y-101805915D01*
X227880437Y-101846898D01*
X227919948Y-101821786D01*
X227977096Y-101797811D01*
X228093600Y-101788039D01*
X228245628Y-101790911D01*
X228409348Y-101804871D01*
X228560928Y-101828359D01*
X228676538Y-101859819D01*
X228705362Y-101873131D01*
X228842596Y-101965412D01*
X228956125Y-102068543D01*
X229026527Y-102163050D01*
X229040000Y-102208650D01*
X229075568Y-102276363D01*
X229124667Y-102302600D01*
X229194015Y-102353523D01*
X229210275Y-102402787D01*
X229236083Y-102490798D01*
X229294000Y-102586667D01*
X229352591Y-102674752D01*
X229377719Y-102738599D01*
X229377726Y-102738856D01*
X229415576Y-102816879D01*
X229503535Y-102883532D01*
X229607851Y-102915805D01*
X229636726Y-102915407D01*
X229703839Y-102918321D01*
X229736686Y-102961599D01*
X229751873Y-103067298D01*
X229751972Y-103068495D01*
X229749857Y-103185792D01*
X229727591Y-103268174D01*
X229720222Y-103278045D01*
X229678997Y-103342625D01*
X229675000Y-103362843D01*
X229692242Y-103373389D01*
X229737539Y-103322847D01*
X229801244Y-103225940D01*
X229873713Y-103097390D01*
X229945300Y-102951920D01*
X229947763Y-102946500D01*
X230013940Y-102800805D01*
X230070942Y-102675972D01*
X230102348Y-102607834D01*
X230133536Y-102528985D01*
X230181254Y-102394811D01*
X230236539Y-102230724D01*
X230251629Y-102184500D01*
X230309200Y-101961970D01*
X230352955Y-101703675D01*
X230381732Y-101430306D01*
X230394372Y-101162554D01*
X230389713Y-100921113D01*
X230366596Y-100726672D01*
X230338837Y-100629677D01*
X230279799Y-100532092D01*
X230194857Y-100441228D01*
X230099200Y-100365963D01*
X230008015Y-100315176D01*
X229936490Y-100297744D01*
X229899812Y-100322544D01*
X229904874Y-100376008D01*
X229907350Y-100395788D01*
X229895582Y-100411661D01*
X229861573Y-100423968D01*
X229797327Y-100433050D01*
X229694850Y-100439250D01*
X229546144Y-100442908D01*
X229343215Y-100444367D01*
X229078067Y-100443967D01*
X228742703Y-100442051D01*
X228415476Y-100439633D01*
X228043948Y-100435455D01*
X227680584Y-100428946D01*
X227338742Y-100420522D01*
X227031778Y-100410599D01*
X226773050Y-100399595D01*
X226575914Y-100387925D01*
X226478834Y-100379255D01*
X226289792Y-100357890D01*
X226125497Y-100339987D01*
X226008740Y-100327996D01*
X225970834Y-100324648D01*
X225902532Y-100350415D01*
X225796253Y-100422857D01*
X225670527Y-100525603D01*
X225543888Y-100642281D01*
X225434869Y-100756522D01*
X225362002Y-100851952D01*
X225351026Y-100872167D01*
X225298648Y-100974683D01*
X225249973Y-101062667D01*
X225213844Y-101175519D01*
X225192781Y-101344393D01*
X225186664Y-101542017D01*
X225058049Y-101542017D01*
X225057803Y-101372969D01*
X225072118Y-101178885D01*
X225101496Y-101029676D01*
X225122973Y-100978000D01*
X225183787Y-100866409D01*
X225223509Y-100786453D01*
X225270728Y-100720705D01*
X225364460Y-100615787D01*
X225488467Y-100489370D01*
X225558358Y-100422102D01*
X225696208Y-100289638D01*
X225783127Y-100194734D01*
X226013167Y-100194734D01*
X226224834Y-100229737D01*
X226315826Y-100238669D01*
X226480304Y-100248476D01*
X226707098Y-100258742D01*
X226985038Y-100269047D01*
X227302952Y-100278976D01*
X227649671Y-100288110D01*
X227981667Y-100295396D01*
X228339824Y-100302668D01*
X228674956Y-100309789D01*
X228976724Y-100316515D01*
X229234793Y-100322603D01*
X229438825Y-100327809D01*
X229578482Y-100331890D01*
X229642440Y-100334527D01*
X229711457Y-100335197D01*
X229742318Y-100309643D01*
X229745325Y-100236644D01*
X229735929Y-100141917D01*
X229711937Y-99925437D01*
X229691126Y-99770769D01*
X229666166Y-99655716D01*
X229629730Y-99558078D01*
X229574487Y-99455657D01*
X229493111Y-99326252D01*
X229438939Y-99242334D01*
X229358341Y-99110869D01*
X229269587Y-98957049D01*
X229240140Y-98903667D01*
X229171791Y-98796051D01*
X229087375Y-98710673D01*
X228964426Y-98628606D01*
X228823839Y-98552931D01*
X228682029Y-98480334D01*
X229053110Y-98480334D01*
X229215888Y-98651449D01*
X229306029Y-98755900D01*
X229365142Y-98842984D01*
X229378667Y-98880101D01*
X229403889Y-98894855D01*
X229473612Y-98847997D01*
X229499387Y-98824866D01*
X229624200Y-98724203D01*
X229759461Y-98636352D01*
X229763971Y-98633878D01*
X229892739Y-98535082D01*
X230029610Y-98384058D01*
X230152231Y-98207578D01*
X230210263Y-98099334D01*
X230338974Y-97813194D01*
X230425760Y-97590855D01*
X230472278Y-97423532D01*
X230480185Y-97302437D01*
X230451140Y-97218785D01*
X230386800Y-97163790D01*
X230386772Y-97163775D01*
X230317695Y-97139534D01*
X230259971Y-97165394D01*
X230196371Y-97236369D01*
X230112875Y-97366583D01*
X230050320Y-97506667D01*
X229887830Y-97875507D01*
X229657553Y-98200147D01*
X229595541Y-98267388D01*
X229477118Y-98383043D01*
X229388010Y-98447658D01*
X229303437Y-98475327D01*
X229221161Y-98480334D01*
X229053110Y-98480334D01*
X228682029Y-98480334D01*
X228510834Y-98392695D01*
X227871660Y-98404764D01*
X227597721Y-98413196D01*
X227384591Y-98426638D01*
X227240251Y-98444397D01*
X227173160Y-98465378D01*
X227096639Y-98507462D01*
X226977619Y-98553562D01*
X226936299Y-98566615D01*
X226801173Y-98620982D01*
X226672163Y-98696339D01*
X226566336Y-98779046D01*
X226500761Y-98855464D01*
X226492505Y-98911952D01*
X226497049Y-98917649D01*
X226540886Y-98987107D01*
X226511500Y-99021180D01*
X226446122Y-99015698D01*
X226372727Y-99014199D01*
X226320195Y-99067823D01*
X226291124Y-99127525D01*
X226238578Y-99247348D01*
X226171189Y-99398854D01*
X226136632Y-99475829D01*
X226073778Y-99661663D01*
X226033387Y-99871103D01*
X226027047Y-99941446D01*
X226013167Y-100194734D01*
X225783127Y-100194734D01*
X225784561Y-100193169D01*
X225836454Y-100111611D01*
X225864928Y-100023882D01*
X225883021Y-99908900D01*
X225884879Y-99894151D01*
X225913224Y-99744842D01*
X225961219Y-99565595D01*
X226020580Y-99381021D01*
X226083024Y-99215732D01*
X226140270Y-99094339D01*
X226167641Y-99053950D01*
X226201081Y-98987619D01*
X226168400Y-98925884D01*
X226062664Y-98859665D01*
X225995571Y-98828668D01*
X225869167Y-98769566D01*
X225787230Y-98712339D01*
X225729730Y-98633659D01*
X225676640Y-98510200D01*
X225643380Y-98418459D01*
X225585923Y-98156080D01*
X225584662Y-98110058D01*
X225709481Y-98110058D01*
X225775460Y-98392663D01*
X225831368Y-98530507D01*
X225894836Y-98616956D01*
X225993152Y-98682955D01*
X226061210Y-98716681D01*
X226189393Y-98777186D01*
X226263932Y-98806108D01*
X226308724Y-98805863D01*
X226347663Y-98778868D01*
X226380250Y-98748939D01*
X226441091Y-98643571D01*
X226457347Y-98526689D01*
X226449708Y-98384889D01*
X226430117Y-98217739D01*
X226402804Y-98049561D01*
X226371998Y-97904677D01*
X226341926Y-97807410D01*
X226328212Y-97783950D01*
X226296920Y-97713136D01*
X226288334Y-97640937D01*
X226268897Y-97562516D01*
X226219094Y-97438057D01*
X226151684Y-97294380D01*
X226079428Y-97158304D01*
X226015086Y-97056651D01*
X226003077Y-97041353D01*
X225970232Y-97055167D01*
X225917092Y-97143994D01*
X225846968Y-97301538D01*
X225791846Y-97443167D01*
X225710060Y-97775924D01*
X225709481Y-98110058D01*
X225584662Y-98110058D01*
X225577690Y-97855612D01*
X225615256Y-97545273D01*
X225695199Y-97253280D01*
X225814094Y-97007854D01*
X225814615Y-97007047D01*
X225900838Y-96922499D01*
X225997649Y-96920317D01*
X226105887Y-97000891D01*
D11*
%TO.C,J4*%
X176343000Y-98806000D02*
X179003000Y-98806000D01*
X176343000Y-98806000D02*
X176343000Y-103946000D01*
X176343000Y-103946000D02*
X179003000Y-103946000D01*
X179003000Y-98806000D02*
X179003000Y-103946000D01*
X179003000Y-96206000D02*
X179003000Y-97536000D01*
X177673000Y-96206000D02*
X179003000Y-96206000D01*
%TO.C,J2*%
X149040000Y-106625000D02*
X150920000Y-106625000D01*
X152090000Y-102155000D02*
X151040000Y-102155000D01*
X152090000Y-104655000D02*
X152090000Y-102155000D01*
X148920000Y-102155000D02*
X148920000Y-101165000D01*
X147870000Y-102155000D02*
X148920000Y-102155000D01*
X147870000Y-104655000D02*
X147870000Y-102155000D01*
%TO.C,J4*%
D10*
X177339666Y-94658380D02*
X177339666Y-95372666D01*
X177292047Y-95515523D01*
X177196809Y-95610761D01*
X177053952Y-95658380D01*
X176958714Y-95658380D01*
X178244428Y-94991714D02*
X178244428Y-95658380D01*
X178006333Y-94610761D02*
X177768238Y-95325047D01*
X178387285Y-95325047D01*
%TO.C,J2*%
X149646666Y-99412380D02*
X149646666Y-100126666D01*
X149599047Y-100269523D01*
X149503809Y-100364761D01*
X149360952Y-100412380D01*
X149265714Y-100412380D01*
X150075238Y-99507619D02*
X150122857Y-99460000D01*
X150218095Y-99412380D01*
X150456190Y-99412380D01*
X150551428Y-99460000D01*
X150599047Y-99507619D01*
X150646666Y-99602857D01*
X150646666Y-99698095D01*
X150599047Y-99840952D01*
X150027619Y-100412380D01*
X150646666Y-100412380D01*
%TD*%
M02*
