M48
; DRILL file {KiCad 5.1.10} date Thu Jun  3 16:37:07 2021
; FORMAT={-:-/ absolute / metric / decimal}
; #@! TF.CreationDate,2021-06-03T16:37:07+02:00
; #@! TF.GenerationSoftware,Kicad,Pcbnew,5.1.10
; #@! TF.FileFunction,Plated,1,2,PTH
FMAT,2
METRIC
T1C0.400
T2C0.600
T3C1.000
T4C1.040
T5C1.470
T6C2.499
%
G90
G05
T1
X30.87Y-35.86
X34.17Y-33.32
X34.45Y-37.25
X37.83Y-33.32
X37.846Y-26.416
X37.846Y-31.707
X40.067Y-25.19
X41.65Y-33.33
X42.64Y-67.35
X44.29Y-36.26
X44.5Y-37.65
X53.18Y-74.1
X53.23Y-72.76
X63.25Y-72.8
X63.25Y-74.075
X80.62Y-81.35
X93.0Y-93.775
X93.1Y-88.5
X118.77Y-81.28
X136.725Y-58.725
X142.866Y-102.859
X143.49Y-99.58
X144.9Y-93.68
X145.9Y-79.225
X147.35Y-69.525
X147.375Y-60.925
X150.114Y-99.478
X156.88Y-81.34
X160.37Y-98.15
X161.925Y-88.5
X161.95Y-92.95
X170.025Y-107.05
X171.9Y-94.54
X183.99Y-94.96
X184.83Y-93.98
X186.58Y-107.9
X187.586Y-108.35
X187.99Y-95.84
X188.047Y-94.07
X188.573Y-100.818
X188.772Y-108.254
X188.862Y-109.25
X189.351Y-100.041
X189.68Y-94.12
X189.862Y-109.715
X190.129Y-99.263
X190.669Y-89.643
X190.736Y-90.641
X190.75Y-91.68
X190.86Y-110.165
X190.907Y-98.485
X191.684Y-97.707
X192.462Y-96.929
X193.24Y-96.152
X193.42Y-90.29
X194.018Y-95.374
X194.584Y-106.829
X194.796Y-94.596
X195.236Y-34.125
X195.25Y-36.675
X195.361Y-106.051
X196.139Y-105.273
X196.34Y-110.89
X196.917Y-104.495
X197.695Y-103.718
X198.473Y-102.94
X199.25Y-102.162
X200.028Y-101.384
X200.225Y-72.025
X200.806Y-100.606
X205.775Y-106.732
X207.69Y-87.33
X212.775Y-110.432
X213.12Y-99.5
X214.475Y-98.95
X228.36Y-103.92
X239.656Y-95.216
X244.384Y-95.404
X256.95Y-103.09
X273.933Y-95.763
X282.32Y-57.15
X286.45Y-96.579
X287.4Y-50.66
T3
X173.43Y-94.54
X173.43Y-97.08
X173.43Y-99.62
X173.43Y-102.16
T4
X291.343Y-60.954
X293.883Y-60.954
T5
X24.511Y-24.765
X26.899Y-62.864
X26.899Y-81.914
X29.274Y-43.814
X29.274Y-100.965
X30.861Y-22.225
X31.668Y-62.864
X33.249Y-60.325
X33.249Y-79.374
X35.624Y-41.274
X35.624Y-98.424
X36.449Y-81.914
X38.018Y-60.325
X42.799Y-79.374
X43.561Y-24.765
X48.323Y-81.915
X49.911Y-22.225
X53.086Y-43.815
X53.086Y-100.965
X54.673Y-79.375
X57.848Y-62.865
X59.436Y-41.275
X59.436Y-98.425
X62.611Y-24.765
X64.198Y-60.325
X67.353Y-81.909
X68.961Y-22.225
X72.116Y-43.809
X73.703Y-79.369
X76.878Y-62.859
X76.897Y-100.965
X78.466Y-41.269
X81.661Y-24.765
X83.228Y-60.319
X83.248Y-98.424
X86.403Y-81.909
X88.011Y-22.225
X91.166Y-43.809
X92.753Y-79.369
X95.928Y-62.859
X97.516Y-41.269
X100.711Y-24.765
X102.278Y-60.319
X105.453Y-81.909
X107.061Y-22.225
X110.216Y-43.809
X111.803Y-79.369
X114.978Y-62.859
X116.566Y-41.269
X119.761Y-24.765
X121.328Y-60.319
X124.503Y-81.909
X126.111Y-22.225
X129.266Y-43.809
X130.853Y-79.369
X134.028Y-62.859
X135.616Y-41.269
X138.811Y-24.765
X140.378Y-60.319
X143.553Y-81.909
X145.161Y-22.225
X148.316Y-43.809
X149.903Y-79.369
X153.078Y-62.859
X154.666Y-41.269
X157.861Y-24.765
X157.861Y-100.965
X159.428Y-60.319
X162.603Y-81.909
X164.211Y-22.225
X164.211Y-98.425
X167.366Y-43.809
X168.953Y-79.369
X172.128Y-62.859
X173.716Y-41.269
X176.911Y-24.765
X178.478Y-60.319
X181.653Y-81.909
X183.261Y-22.225
X186.416Y-43.809
X188.003Y-79.369
X191.178Y-62.859
X192.766Y-41.269
X195.961Y-24.765
X197.528Y-60.319
X200.703Y-81.909
X202.311Y-22.225
X205.466Y-43.809
X207.053Y-79.369
X210.228Y-62.859
X211.816Y-41.269
X215.011Y-24.765
X216.578Y-60.319
X219.753Y-81.909
X221.361Y-22.225
X224.516Y-43.809
X226.103Y-79.369
X229.278Y-62.859
X230.866Y-41.269
X234.061Y-24.765
X235.628Y-60.319
X238.803Y-81.909
X238.822Y-100.965
X240.411Y-22.225
X243.566Y-43.809
X245.153Y-79.369
X245.172Y-98.425
X248.328Y-62.859
X249.916Y-41.269
X253.111Y-24.765
X254.678Y-60.319
X259.461Y-22.225
X262.616Y-43.809
X262.636Y-100.965
X265.049Y-81.915
X267.378Y-62.859
X268.966Y-41.269
X268.986Y-98.425
X271.399Y-79.375
X272.161Y-24.765
X273.728Y-60.319
X274.574Y-81.915
X278.511Y-22.225
X279.253Y-62.859
X280.924Y-79.375
X281.686Y-24.765
X285.603Y-60.319
X286.416Y-43.809
X286.45Y-100.965
X288.036Y-22.225
X288.803Y-53.334
X291.211Y-24.765
X291.211Y-81.915
X292.766Y-41.269
X292.799Y-98.425
X295.153Y-50.794
X297.561Y-22.225
X297.561Y-79.375
T2
G00X33.272Y-18.208
M15
G01X33.272Y-18.808
M16
G05
G00X33.272Y-22.138
M15
G01X33.272Y-23.238
M16
G05
G00X41.912Y-18.208
M15
G01X41.912Y-18.808
M16
G05
G00X41.912Y-22.138
M15
G01X41.912Y-23.238
M16
G05
T6
G00X17.4Y-75.07
M15
G01X21.9Y-75.07
M16
G05
G00X43.969Y-46.46
M15
G01X46.471Y-46.46
M16
G05
G00X146.109Y-65.38
M15
G01X148.611Y-65.38
M16
G05
G00X276.609Y-46.21
M15
G01X279.111Y-46.21
M16
G05
G00X301.19Y-75.0
M15
G01X305.69Y-75.0
M16
G05
T0
M30
