%TF.GenerationSoftware,KiCad,Pcbnew,5.1.10*%
%TF.CreationDate,2021-06-16T22:45:42+02:00*%
%TF.ProjectId,ptm-60nrf,70746d2d-3630-46e7-9266-2e6b69636164,rev?*%
%TF.SameCoordinates,Original*%
%TF.FileFunction,Legend,Top*%
%TF.FilePolarity,Positive*%
%FSLAX46Y46*%
G04 Gerber Fmt 4.6, Leading zero omitted, Abs format (unit mm)*
G04 Created by KiCad (PCBNEW 5.1.10) date 2021-06-16 22:45:42*
%MOMM*%
%LPD*%
G01*
G04 APERTURE LIST*
%ADD10C,0.400000*%
%ADD11C,0.150000*%
%ADD12C,0.120000*%
%ADD13C,0.010000*%
G04 APERTURE END LIST*
D10*
X151258095Y-105622857D02*
X152781904Y-105622857D01*
X144998095Y-105642857D02*
X146521904Y-105642857D01*
X145760000Y-106404761D02*
X145760000Y-104880952D01*
D11*
X230686666Y-97862380D02*
X231020000Y-98862380D01*
X231353333Y-97862380D01*
X231686666Y-98862380D02*
X231686666Y-97862380D01*
X231924761Y-97862380D01*
X232067619Y-97910000D01*
X232162857Y-98005238D01*
X232210476Y-98100476D01*
X232258095Y-98290952D01*
X232258095Y-98433809D01*
X232210476Y-98624285D01*
X232162857Y-98719523D01*
X232067619Y-98814761D01*
X231924761Y-98862380D01*
X231686666Y-98862380D01*
X232686666Y-98862380D02*
X232686666Y-97862380D01*
X232924761Y-97862380D01*
X233067619Y-97910000D01*
X233162857Y-98005238D01*
X233210476Y-98100476D01*
X233258095Y-98290952D01*
X233258095Y-98433809D01*
X233210476Y-98624285D01*
X233162857Y-98719523D01*
X233067619Y-98814761D01*
X232924761Y-98862380D01*
X232686666Y-98862380D01*
X231188095Y-105530000D02*
X231092857Y-105482380D01*
X230950000Y-105482380D01*
X230807142Y-105530000D01*
X230711904Y-105625238D01*
X230664285Y-105720476D01*
X230616666Y-105910952D01*
X230616666Y-106053809D01*
X230664285Y-106244285D01*
X230711904Y-106339523D01*
X230807142Y-106434761D01*
X230950000Y-106482380D01*
X231045238Y-106482380D01*
X231188095Y-106434761D01*
X231235714Y-106387142D01*
X231235714Y-106053809D01*
X231045238Y-106053809D01*
X231664285Y-106482380D02*
X231664285Y-105482380D01*
X232235714Y-106482380D01*
X232235714Y-105482380D01*
X232711904Y-106482380D02*
X232711904Y-105482380D01*
X232950000Y-105482380D01*
X233092857Y-105530000D01*
X233188095Y-105625238D01*
X233235714Y-105720476D01*
X233283333Y-105910952D01*
X233283333Y-106053809D01*
X233235714Y-106244285D01*
X233188095Y-106339523D01*
X233092857Y-106434761D01*
X232950000Y-106482380D01*
X232711904Y-106482380D01*
X230642857Y-101334761D02*
X230785714Y-101382380D01*
X231023809Y-101382380D01*
X231119047Y-101334761D01*
X231166666Y-101287142D01*
X231214285Y-101191904D01*
X231214285Y-101096666D01*
X231166666Y-101001428D01*
X231119047Y-100953809D01*
X231023809Y-100906190D01*
X230833333Y-100858571D01*
X230738095Y-100810952D01*
X230690476Y-100763333D01*
X230642857Y-100668095D01*
X230642857Y-100572857D01*
X230690476Y-100477619D01*
X230738095Y-100430000D01*
X230833333Y-100382380D01*
X231071428Y-100382380D01*
X231214285Y-100430000D01*
X231547619Y-100382380D02*
X231785714Y-101382380D01*
X231976190Y-100668095D01*
X232166666Y-101382380D01*
X232404761Y-100382380D01*
X233357142Y-101287142D02*
X233309523Y-101334761D01*
X233166666Y-101382380D01*
X233071428Y-101382380D01*
X232928571Y-101334761D01*
X232833333Y-101239523D01*
X232785714Y-101144285D01*
X232738095Y-100953809D01*
X232738095Y-100810952D01*
X232785714Y-100620476D01*
X232833333Y-100525238D01*
X232928571Y-100430000D01*
X233071428Y-100382380D01*
X233166666Y-100382380D01*
X233309523Y-100430000D01*
X233357142Y-100477619D01*
X230632857Y-103904761D02*
X230775714Y-103952380D01*
X231013809Y-103952380D01*
X231109047Y-103904761D01*
X231156666Y-103857142D01*
X231204285Y-103761904D01*
X231204285Y-103666666D01*
X231156666Y-103571428D01*
X231109047Y-103523809D01*
X231013809Y-103476190D01*
X230823333Y-103428571D01*
X230728095Y-103380952D01*
X230680476Y-103333333D01*
X230632857Y-103238095D01*
X230632857Y-103142857D01*
X230680476Y-103047619D01*
X230728095Y-103000000D01*
X230823333Y-102952380D01*
X231061428Y-102952380D01*
X231204285Y-103000000D01*
X231537619Y-102952380D02*
X231775714Y-103952380D01*
X231966190Y-103238095D01*
X232156666Y-103952380D01*
X232394761Y-102952380D01*
X232775714Y-103952380D02*
X232775714Y-102952380D01*
X233013809Y-102952380D01*
X233156666Y-103000000D01*
X233251904Y-103095238D01*
X233299523Y-103190476D01*
X233347142Y-103380952D01*
X233347142Y-103523809D01*
X233299523Y-103714285D01*
X233251904Y-103809523D01*
X233156666Y-103904761D01*
X233013809Y-103952380D01*
X232775714Y-103952380D01*
X124422380Y-104197380D02*
X124422380Y-103197380D01*
X124803333Y-103197380D01*
X124898571Y-103245000D01*
X124946190Y-103292619D01*
X124993809Y-103387857D01*
X124993809Y-103530714D01*
X124946190Y-103625952D01*
X124898571Y-103673571D01*
X124803333Y-103721190D01*
X124422380Y-103721190D01*
X125898571Y-104197380D02*
X125422380Y-104197380D01*
X125422380Y-103197380D01*
X126184285Y-103911666D02*
X126660476Y-103911666D01*
X126089047Y-104197380D02*
X126422380Y-103197380D01*
X126755714Y-104197380D01*
X127660476Y-104102142D02*
X127612857Y-104149761D01*
X127470000Y-104197380D01*
X127374761Y-104197380D01*
X127231904Y-104149761D01*
X127136666Y-104054523D01*
X127089047Y-103959285D01*
X127041428Y-103768809D01*
X127041428Y-103625952D01*
X127089047Y-103435476D01*
X127136666Y-103340238D01*
X127231904Y-103245000D01*
X127374761Y-103197380D01*
X127470000Y-103197380D01*
X127612857Y-103245000D01*
X127660476Y-103292619D01*
X128089047Y-103673571D02*
X128422380Y-103673571D01*
X128565238Y-104197380D02*
X128089047Y-104197380D01*
X128089047Y-103197380D01*
X128565238Y-103197380D01*
X121660476Y-105323571D02*
X121803333Y-105371190D01*
X121850952Y-105418809D01*
X121898571Y-105514047D01*
X121898571Y-105656904D01*
X121850952Y-105752142D01*
X121803333Y-105799761D01*
X121708095Y-105847380D01*
X121327142Y-105847380D01*
X121327142Y-104847380D01*
X121660476Y-104847380D01*
X121755714Y-104895000D01*
X121803333Y-104942619D01*
X121850952Y-105037857D01*
X121850952Y-105133095D01*
X121803333Y-105228333D01*
X121755714Y-105275952D01*
X121660476Y-105323571D01*
X121327142Y-105323571D01*
X122279523Y-105561666D02*
X122755714Y-105561666D01*
X122184285Y-105847380D02*
X122517619Y-104847380D01*
X122850952Y-105847380D01*
X123041428Y-104847380D02*
X123612857Y-104847380D01*
X123327142Y-105847380D02*
X123327142Y-104847380D01*
X123803333Y-104847380D02*
X124374761Y-104847380D01*
X124089047Y-105847380D02*
X124089047Y-104847380D01*
X124708095Y-105323571D02*
X125041428Y-105323571D01*
X125184285Y-105847380D02*
X124708095Y-105847380D01*
X124708095Y-104847380D01*
X125184285Y-104847380D01*
X126184285Y-105847380D02*
X125850952Y-105371190D01*
X125612857Y-105847380D02*
X125612857Y-104847380D01*
X125993809Y-104847380D01*
X126089047Y-104895000D01*
X126136666Y-104942619D01*
X126184285Y-105037857D01*
X126184285Y-105180714D01*
X126136666Y-105275952D01*
X126089047Y-105323571D01*
X125993809Y-105371190D01*
X125612857Y-105371190D01*
X126803333Y-105371190D02*
X126803333Y-105847380D01*
X126470000Y-104847380D02*
X126803333Y-105371190D01*
X127136666Y-104847380D01*
X128231904Y-105847380D02*
X128231904Y-104847380D01*
X128231904Y-105323571D02*
X128803333Y-105323571D01*
X128803333Y-105847380D02*
X128803333Y-104847380D01*
X129279523Y-105323571D02*
X129612857Y-105323571D01*
X129755714Y-105847380D02*
X129279523Y-105847380D01*
X129279523Y-104847380D01*
X129755714Y-104847380D01*
X130755714Y-105847380D02*
X130422380Y-105371190D01*
X130184285Y-105847380D02*
X130184285Y-104847380D01*
X130565238Y-104847380D01*
X130660476Y-104895000D01*
X130708095Y-104942619D01*
X130755714Y-105037857D01*
X130755714Y-105180714D01*
X130708095Y-105275952D01*
X130660476Y-105323571D01*
X130565238Y-105371190D01*
X130184285Y-105371190D01*
X131184285Y-105323571D02*
X131517619Y-105323571D01*
X131660476Y-105847380D02*
X131184285Y-105847380D01*
X131184285Y-104847380D01*
X131660476Y-104847380D01*
D12*
X142060000Y-110360000D02*
X110780000Y-110360000D01*
X142080000Y-98050000D02*
X142070000Y-110370000D01*
X110770000Y-98050000D02*
X142080000Y-98050000D01*
D11*
X110780000Y-98060000D02*
X110790000Y-110340000D01*
D13*
%TO.C,G\u002A\u002A\u002A*%
G36*
X176186943Y-97804801D02*
G01*
X176203667Y-97900999D01*
X176186077Y-97986962D01*
X176137178Y-97995007D01*
X176076667Y-97940834D01*
X176045385Y-97872836D01*
X176076280Y-97814300D01*
X176140692Y-97771235D01*
X176186943Y-97804801D01*
G37*
X176186943Y-97804801D02*
X176203667Y-97900999D01*
X176186077Y-97986962D01*
X176137178Y-97995007D01*
X176076667Y-97940834D01*
X176045385Y-97872836D01*
X176076280Y-97814300D01*
X176140692Y-97771235D01*
X176186943Y-97804801D01*
G36*
X174541722Y-97582849D02*
G01*
X174679634Y-97610560D01*
X174807180Y-97650105D01*
X174894580Y-97695255D01*
X174902934Y-97702667D01*
X174923262Y-97768718D01*
X174918977Y-97877031D01*
X174915886Y-97895338D01*
X174895784Y-97983038D01*
X174862250Y-98027940D01*
X174791351Y-98044373D01*
X174663143Y-98046667D01*
X174502269Y-98035439D01*
X174401686Y-97997925D01*
X174368728Y-97969250D01*
X174316536Y-97867616D01*
X174311518Y-97828020D01*
X174434367Y-97828020D01*
X174441754Y-97858194D01*
X174497873Y-97902689D01*
X174596469Y-97919729D01*
X174699950Y-97909390D01*
X174770726Y-97871745D01*
X174779122Y-97857523D01*
X174778671Y-97789403D01*
X174762485Y-97770358D01*
X174727781Y-97781026D01*
X174722000Y-97811335D01*
X174700208Y-97869755D01*
X174653927Y-97866915D01*
X174611801Y-97807475D01*
X174607266Y-97792667D01*
X174559873Y-97722247D01*
X174491318Y-97713173D01*
X174445581Y-97752361D01*
X174434367Y-97828020D01*
X174311518Y-97828020D01*
X174300662Y-97742363D01*
X174322578Y-97631373D01*
X174353924Y-97587841D01*
X174423226Y-97573200D01*
X174541722Y-97582849D01*
G37*
X174541722Y-97582849D02*
X174679634Y-97610560D01*
X174807180Y-97650105D01*
X174894580Y-97695255D01*
X174902934Y-97702667D01*
X174923262Y-97768718D01*
X174918977Y-97877031D01*
X174915886Y-97895338D01*
X174895784Y-97983038D01*
X174862250Y-98027940D01*
X174791351Y-98044373D01*
X174663143Y-98046667D01*
X174502269Y-98035439D01*
X174401686Y-97997925D01*
X174368728Y-97969250D01*
X174316536Y-97867616D01*
X174311518Y-97828020D01*
X174434367Y-97828020D01*
X174441754Y-97858194D01*
X174497873Y-97902689D01*
X174596469Y-97919729D01*
X174699950Y-97909390D01*
X174770726Y-97871745D01*
X174779122Y-97857523D01*
X174778671Y-97789403D01*
X174762485Y-97770358D01*
X174727781Y-97781026D01*
X174722000Y-97811335D01*
X174700208Y-97869755D01*
X174653927Y-97866915D01*
X174611801Y-97807475D01*
X174607266Y-97792667D01*
X174559873Y-97722247D01*
X174491318Y-97713173D01*
X174445581Y-97752361D01*
X174434367Y-97828020D01*
X174311518Y-97828020D01*
X174300662Y-97742363D01*
X174322578Y-97631373D01*
X174353924Y-97587841D01*
X174423226Y-97573200D01*
X174541722Y-97582849D01*
G36*
X175917594Y-97531994D02*
G01*
X175943992Y-97589731D01*
X175915800Y-97631800D01*
X175877679Y-97709950D01*
X175865000Y-97800046D01*
X175903399Y-97911269D01*
X176008458Y-97992591D01*
X176164971Y-98035705D01*
X176301297Y-98038401D01*
X176414183Y-98024266D01*
X176465598Y-97993518D01*
X176478729Y-97930650D01*
X176478834Y-97919667D01*
X176465692Y-97859374D01*
X176417254Y-97809727D01*
X176320005Y-97763330D01*
X176160425Y-97712790D01*
X176042234Y-97680820D01*
X176008762Y-97641453D01*
X176015972Y-97618795D01*
X176077892Y-97590042D01*
X176188640Y-97591474D01*
X176319899Y-97618392D01*
X176443351Y-97666097D01*
X176496335Y-97698502D01*
X176580149Y-97800700D01*
X176621115Y-97931657D01*
X176612151Y-98057265D01*
X176582372Y-98112932D01*
X176500840Y-98155200D01*
X176365199Y-98172732D01*
X176201986Y-98166567D01*
X176037741Y-98137743D01*
X175899002Y-98087298D01*
X175896750Y-98086118D01*
X175800783Y-98029000D01*
X175754144Y-97969762D01*
X175739156Y-97876193D01*
X175738000Y-97796839D01*
X175753527Y-97646374D01*
X175794583Y-97544367D01*
X175852883Y-97503036D01*
X175917594Y-97531994D01*
G37*
X175917594Y-97531994D02*
X175943992Y-97589731D01*
X175915800Y-97631800D01*
X175877679Y-97709950D01*
X175865000Y-97800046D01*
X175903399Y-97911269D01*
X176008458Y-97992591D01*
X176164971Y-98035705D01*
X176301297Y-98038401D01*
X176414183Y-98024266D01*
X176465598Y-97993518D01*
X176478729Y-97930650D01*
X176478834Y-97919667D01*
X176465692Y-97859374D01*
X176417254Y-97809727D01*
X176320005Y-97763330D01*
X176160425Y-97712790D01*
X176042234Y-97680820D01*
X176008762Y-97641453D01*
X176015972Y-97618795D01*
X176077892Y-97590042D01*
X176188640Y-97591474D01*
X176319899Y-97618392D01*
X176443351Y-97666097D01*
X176496335Y-97698502D01*
X176580149Y-97800700D01*
X176621115Y-97931657D01*
X176612151Y-98057265D01*
X176582372Y-98112932D01*
X176500840Y-98155200D01*
X176365199Y-98172732D01*
X176201986Y-98166567D01*
X176037741Y-98137743D01*
X175899002Y-98087298D01*
X175896750Y-98086118D01*
X175800783Y-98029000D01*
X175754144Y-97969762D01*
X175739156Y-97876193D01*
X175738000Y-97796839D01*
X175753527Y-97646374D01*
X175794583Y-97544367D01*
X175852883Y-97503036D01*
X175917594Y-97531994D01*
G36*
X175757357Y-99059747D02*
G01*
X175758015Y-99060803D01*
X175758595Y-99124812D01*
X175727867Y-99228675D01*
X175678943Y-99340170D01*
X175624936Y-99427073D01*
X175598775Y-99452118D01*
X175526450Y-99470071D01*
X175401015Y-99478812D01*
X175253543Y-99478182D01*
X175115105Y-99468023D01*
X175039500Y-99454980D01*
X174906342Y-99398874D01*
X174794106Y-99311925D01*
X174717046Y-99211878D01*
X174689416Y-99116477D01*
X174715768Y-99051965D01*
X174761503Y-99043114D01*
X174807653Y-99111425D01*
X174886450Y-99223740D01*
X175010792Y-99297042D01*
X175196436Y-99339342D01*
X175272476Y-99347740D01*
X175512922Y-99369543D01*
X175582785Y-99194938D01*
X175647314Y-99066554D01*
X175705178Y-99021740D01*
X175757357Y-99059747D01*
G37*
X175757357Y-99059747D02*
X175758015Y-99060803D01*
X175758595Y-99124812D01*
X175727867Y-99228675D01*
X175678943Y-99340170D01*
X175624936Y-99427073D01*
X175598775Y-99452118D01*
X175526450Y-99470071D01*
X175401015Y-99478812D01*
X175253543Y-99478182D01*
X175115105Y-99468023D01*
X175039500Y-99454980D01*
X174906342Y-99398874D01*
X174794106Y-99311925D01*
X174717046Y-99211878D01*
X174689416Y-99116477D01*
X174715768Y-99051965D01*
X174761503Y-99043114D01*
X174807653Y-99111425D01*
X174886450Y-99223740D01*
X175010792Y-99297042D01*
X175196436Y-99339342D01*
X175272476Y-99347740D01*
X175512922Y-99369543D01*
X175582785Y-99194938D01*
X175647314Y-99066554D01*
X175705178Y-99021740D01*
X175757357Y-99059747D01*
G36*
X182056384Y-96730916D02*
G01*
X182100318Y-96834951D01*
X182126635Y-96968328D01*
X182130334Y-97040086D01*
X182120703Y-97179962D01*
X182090899Y-97239696D01*
X182039554Y-97221703D01*
X182031556Y-97214111D01*
X182012339Y-97156147D01*
X182003413Y-97052855D01*
X182003334Y-97041995D01*
X181989714Y-96914821D01*
X181957078Y-96811672D01*
X181934375Y-96718679D01*
X181952179Y-96683888D01*
X182003961Y-96674478D01*
X182056384Y-96730916D01*
G37*
X182056384Y-96730916D02*
X182100318Y-96834951D01*
X182126635Y-96968328D01*
X182130334Y-97040086D01*
X182120703Y-97179962D01*
X182090899Y-97239696D01*
X182039554Y-97221703D01*
X182031556Y-97214111D01*
X182012339Y-97156147D01*
X182003413Y-97052855D01*
X182003334Y-97041995D01*
X181989714Y-96914821D01*
X181957078Y-96811672D01*
X181934375Y-96718679D01*
X181952179Y-96683888D01*
X182003961Y-96674478D01*
X182056384Y-96730916D01*
G36*
X180800934Y-97136186D02*
G01*
X180833923Y-97252091D01*
X180834120Y-97252917D01*
X180832936Y-97342528D01*
X180788207Y-97376642D01*
X180719222Y-97341111D01*
X180694334Y-97273458D01*
X180695204Y-97179253D01*
X180719659Y-97106153D01*
X180730408Y-97095975D01*
X180769718Y-97089125D01*
X180800934Y-97136186D01*
G37*
X180800934Y-97136186D02*
X180833923Y-97252091D01*
X180834120Y-97252917D01*
X180832936Y-97342528D01*
X180788207Y-97376642D01*
X180719222Y-97341111D01*
X180694334Y-97273458D01*
X180695204Y-97179253D01*
X180719659Y-97106153D01*
X180730408Y-97095975D01*
X180769718Y-97089125D01*
X180800934Y-97136186D01*
G36*
X181588215Y-96751116D02*
G01*
X181617022Y-96848180D01*
X181630553Y-96924834D01*
X181654266Y-97081875D01*
X181679463Y-97228698D01*
X181688274Y-97274084D01*
X181696544Y-97377489D01*
X181671456Y-97410583D01*
X181624131Y-97375097D01*
X181565692Y-97272759D01*
X181557481Y-97253734D01*
X181524666Y-97137509D01*
X181507745Y-97000618D01*
X181506655Y-96867913D01*
X181521335Y-96764250D01*
X181551722Y-96714483D01*
X181558834Y-96713167D01*
X181588215Y-96751116D01*
G37*
X181588215Y-96751116D02*
X181617022Y-96848180D01*
X181630553Y-96924834D01*
X181654266Y-97081875D01*
X181679463Y-97228698D01*
X181688274Y-97274084D01*
X181696544Y-97377489D01*
X181671456Y-97410583D01*
X181624131Y-97375097D01*
X181565692Y-97272759D01*
X181557481Y-97253734D01*
X181524666Y-97137509D01*
X181507745Y-97000618D01*
X181506655Y-96867913D01*
X181521335Y-96764250D01*
X181551722Y-96714483D01*
X181558834Y-96713167D01*
X181588215Y-96751116D01*
G36*
X181337624Y-97218262D02*
G01*
X181369091Y-97304342D01*
X181372637Y-97320339D01*
X181405751Y-97431306D01*
X181446378Y-97506538D01*
X181448456Y-97508722D01*
X181492728Y-97578787D01*
X181465974Y-97618826D01*
X181432809Y-97623334D01*
X181366059Y-97590839D01*
X181302733Y-97520236D01*
X181261939Y-97420129D01*
X181250252Y-97310015D01*
X181267635Y-97221743D01*
X181303098Y-97188101D01*
X181337624Y-97218262D01*
G37*
X181337624Y-97218262D02*
X181369091Y-97304342D01*
X181372637Y-97320339D01*
X181405751Y-97431306D01*
X181446378Y-97506538D01*
X181448456Y-97508722D01*
X181492728Y-97578787D01*
X181465974Y-97618826D01*
X181432809Y-97623334D01*
X181366059Y-97590839D01*
X181302733Y-97520236D01*
X181261939Y-97420129D01*
X181250252Y-97310015D01*
X181267635Y-97221743D01*
X181303098Y-97188101D01*
X181337624Y-97218262D01*
G36*
X182317190Y-97479987D02*
G01*
X182394509Y-97526866D01*
X182454964Y-97590853D01*
X182469000Y-97629895D01*
X182440724Y-97664617D01*
X182374187Y-97652503D01*
X182296829Y-97600121D01*
X182282304Y-97585203D01*
X182237503Y-97512939D01*
X182257243Y-97475223D01*
X182317190Y-97479987D01*
G37*
X182317190Y-97479987D02*
X182394509Y-97526866D01*
X182454964Y-97590853D01*
X182469000Y-97629895D01*
X182440724Y-97664617D01*
X182374187Y-97652503D01*
X182296829Y-97600121D01*
X182282304Y-97585203D01*
X182237503Y-97512939D01*
X182257243Y-97475223D01*
X182317190Y-97479987D01*
G36*
X181675008Y-97668600D02*
G01*
X181692295Y-97688512D01*
X181737675Y-97764132D01*
X181749334Y-97800758D01*
X181720236Y-97833495D01*
X181659044Y-97827444D01*
X181604910Y-97789561D01*
X181596087Y-97773527D01*
X181586621Y-97690115D01*
X181619873Y-97649002D01*
X181675008Y-97668600D01*
G37*
X181675008Y-97668600D02*
X181692295Y-97688512D01*
X181737675Y-97764132D01*
X181749334Y-97800758D01*
X181720236Y-97833495D01*
X181659044Y-97827444D01*
X181604910Y-97789561D01*
X181596087Y-97773527D01*
X181586621Y-97690115D01*
X181619873Y-97649002D01*
X181675008Y-97668600D01*
G36*
X180971440Y-97694492D02*
G01*
X180971542Y-97755876D01*
X180986643Y-97771073D01*
X181027890Y-97825090D01*
X181029667Y-97837499D01*
X180999107Y-97872711D01*
X180935375Y-97870645D01*
X180880398Y-97833125D01*
X180878989Y-97830938D01*
X180883821Y-97770128D01*
X180924788Y-97714521D01*
X180970360Y-97679296D01*
X180971440Y-97694492D01*
G37*
X180971440Y-97694492D02*
X180971542Y-97755876D01*
X180986643Y-97771073D01*
X181027890Y-97825090D01*
X181029667Y-97837499D01*
X180999107Y-97872711D01*
X180935375Y-97870645D01*
X180880398Y-97833125D01*
X180878989Y-97830938D01*
X180883821Y-97770128D01*
X180924788Y-97714521D01*
X180970360Y-97679296D01*
X180971440Y-97694492D01*
G36*
X182914384Y-97985593D02*
G01*
X182966893Y-98110167D01*
X183008121Y-98225673D01*
X183040699Y-98311250D01*
X183044860Y-98372372D01*
X183004341Y-98385334D01*
X182948792Y-98348957D01*
X182879279Y-98253015D01*
X182835162Y-98170541D01*
X182779168Y-98044631D01*
X182761813Y-97973688D01*
X182779883Y-97939081D01*
X182794029Y-97932087D01*
X182860195Y-97928847D01*
X182914384Y-97985593D01*
G37*
X182914384Y-97985593D02*
X182966893Y-98110167D01*
X183008121Y-98225673D01*
X183040699Y-98311250D01*
X183044860Y-98372372D01*
X183004341Y-98385334D01*
X182948792Y-98348957D01*
X182879279Y-98253015D01*
X182835162Y-98170541D01*
X182779168Y-98044631D01*
X182761813Y-97973688D01*
X182779883Y-97939081D01*
X182794029Y-97932087D01*
X182860195Y-97928847D01*
X182914384Y-97985593D01*
G36*
X181217592Y-98086969D02*
G01*
X181222021Y-98090539D01*
X181262182Y-98156615D01*
X181281483Y-98249742D01*
X181277888Y-98336537D01*
X181249359Y-98383617D01*
X181240005Y-98385334D01*
X181192330Y-98350634D01*
X181173415Y-98311250D01*
X181132596Y-98207122D01*
X181112110Y-98165046D01*
X181099729Y-98090100D01*
X181143093Y-98058514D01*
X181217592Y-98086969D01*
G37*
X181217592Y-98086969D02*
X181222021Y-98090539D01*
X181262182Y-98156615D01*
X181281483Y-98249742D01*
X181277888Y-98336537D01*
X181249359Y-98383617D01*
X181240005Y-98385334D01*
X181192330Y-98350634D01*
X181173415Y-98311250D01*
X181132596Y-98207122D01*
X181112110Y-98165046D01*
X181099729Y-98090100D01*
X181143093Y-98058514D01*
X181217592Y-98086969D01*
G36*
X182168215Y-98200049D02*
G01*
X182216685Y-98258610D01*
X182273881Y-98341889D01*
X182298706Y-98395490D01*
X182298726Y-98395917D01*
X182270629Y-98426620D01*
X182205984Y-98417123D01*
X182138961Y-98373776D01*
X182130781Y-98364706D01*
X182099928Y-98276306D01*
X182107057Y-98227399D01*
X182132622Y-98183795D01*
X182168215Y-98200049D01*
G37*
X182168215Y-98200049D02*
X182216685Y-98258610D01*
X182273881Y-98341889D01*
X182298706Y-98395490D01*
X182298726Y-98395917D01*
X182270629Y-98426620D01*
X182205984Y-98417123D01*
X182138961Y-98373776D01*
X182130781Y-98364706D01*
X182099928Y-98276306D01*
X182107057Y-98227399D01*
X182132622Y-98183795D01*
X182168215Y-98200049D01*
G36*
X183277536Y-98833637D02*
G01*
X183337271Y-98909847D01*
X183358067Y-98980789D01*
X183333355Y-99019025D01*
X183322228Y-99020334D01*
X183269675Y-98992062D01*
X183212248Y-98938334D01*
X183163372Y-98856513D01*
X183170101Y-98802647D01*
X183220175Y-98796396D01*
X183277536Y-98833637D01*
G37*
X183277536Y-98833637D02*
X183337271Y-98909847D01*
X183358067Y-98980789D01*
X183333355Y-99019025D01*
X183322228Y-99020334D01*
X183269675Y-98992062D01*
X183212248Y-98938334D01*
X183163372Y-98856513D01*
X183170101Y-98802647D01*
X183220175Y-98796396D01*
X183277536Y-98833637D01*
G36*
X182257035Y-98829649D02*
G01*
X182289405Y-98884029D01*
X182298523Y-98966740D01*
X182284562Y-99038822D01*
X182256005Y-99062667D01*
X182204453Y-99028837D01*
X182187976Y-98999167D01*
X182178576Y-98917419D01*
X182201476Y-98848660D01*
X182243832Y-98824414D01*
X182257035Y-98829649D01*
G37*
X182257035Y-98829649D02*
X182289405Y-98884029D01*
X182298523Y-98966740D01*
X182284562Y-99038822D01*
X182256005Y-99062667D01*
X182204453Y-99028837D01*
X182187976Y-98999167D01*
X182178576Y-98917419D01*
X182201476Y-98848660D01*
X182243832Y-98824414D01*
X182257035Y-98829649D01*
G36*
X182648971Y-98851239D02*
G01*
X182658311Y-98938573D01*
X182651460Y-99098037D01*
X182648590Y-99136750D01*
X182631402Y-99296189D01*
X182607956Y-99380117D01*
X182574041Y-99397664D01*
X182539556Y-99373111D01*
X182516187Y-99304968D01*
X182509270Y-99186767D01*
X182516826Y-99051084D01*
X182536880Y-98930499D01*
X182567451Y-98857588D01*
X182571065Y-98854128D01*
X182620776Y-98826327D01*
X182648971Y-98851239D01*
G37*
X182648971Y-98851239D02*
X182658311Y-98938573D01*
X182651460Y-99098037D01*
X182648590Y-99136750D01*
X182631402Y-99296189D01*
X182607956Y-99380117D01*
X182574041Y-99397664D01*
X182539556Y-99373111D01*
X182516187Y-99304968D01*
X182509270Y-99186767D01*
X182516826Y-99051084D01*
X182536880Y-98930499D01*
X182567451Y-98857588D01*
X182571065Y-98854128D01*
X182620776Y-98826327D01*
X182648971Y-98851239D01*
G36*
X182469000Y-99422500D02*
G01*
X182447834Y-99443667D01*
X182426667Y-99422500D01*
X182447834Y-99401334D01*
X182469000Y-99422500D01*
G37*
X182469000Y-99422500D02*
X182447834Y-99443667D01*
X182426667Y-99422500D01*
X182447834Y-99401334D01*
X182469000Y-99422500D01*
G36*
X183572592Y-99551308D02*
G01*
X183606882Y-99603767D01*
X183606386Y-99667435D01*
X183572165Y-99697667D01*
X183514832Y-99666895D01*
X183506167Y-99655334D01*
X183497885Y-99592552D01*
X183531481Y-99548505D01*
X183572592Y-99551308D01*
G37*
X183572592Y-99551308D02*
X183606882Y-99603767D01*
X183606386Y-99667435D01*
X183572165Y-99697667D01*
X183514832Y-99666895D01*
X183506167Y-99655334D01*
X183497885Y-99592552D01*
X183531481Y-99548505D01*
X183572592Y-99551308D01*
G36*
X181426365Y-98645040D02*
G01*
X181477190Y-98750050D01*
X181539124Y-98925543D01*
X181597404Y-99091012D01*
X181658291Y-99242188D01*
X181704772Y-99339001D01*
X181744215Y-99425023D01*
X181796109Y-99559650D01*
X181852076Y-99718139D01*
X181903739Y-99875746D01*
X181942721Y-100007728D01*
X181960645Y-100089342D01*
X181961000Y-100095822D01*
X181934364Y-100120933D01*
X181877413Y-100099598D01*
X181843185Y-100068084D01*
X181808573Y-100000741D01*
X181763520Y-99880524D01*
X181727633Y-99766484D01*
X181674923Y-99606148D01*
X181615970Y-99458278D01*
X181580220Y-99385484D01*
X181522315Y-99265892D01*
X181462775Y-99114301D01*
X181408628Y-98953181D01*
X181366901Y-98805002D01*
X181344622Y-98692235D01*
X181346974Y-98639645D01*
X181384386Y-98610360D01*
X181426365Y-98645040D01*
G37*
X181426365Y-98645040D02*
X181477190Y-98750050D01*
X181539124Y-98925543D01*
X181597404Y-99091012D01*
X181658291Y-99242188D01*
X181704772Y-99339001D01*
X181744215Y-99425023D01*
X181796109Y-99559650D01*
X181852076Y-99718139D01*
X181903739Y-99875746D01*
X181942721Y-100007728D01*
X181960645Y-100089342D01*
X181961000Y-100095822D01*
X181934364Y-100120933D01*
X181877413Y-100099598D01*
X181843185Y-100068084D01*
X181808573Y-100000741D01*
X181763520Y-99880524D01*
X181727633Y-99766484D01*
X181674923Y-99606148D01*
X181615970Y-99458278D01*
X181580220Y-99385484D01*
X181522315Y-99265892D01*
X181462775Y-99114301D01*
X181408628Y-98953181D01*
X181366901Y-98805002D01*
X181344622Y-98692235D01*
X181346974Y-98639645D01*
X181384386Y-98610360D01*
X181426365Y-98645040D01*
G36*
X182633856Y-99950362D02*
G01*
X182694087Y-100017895D01*
X182754833Y-100109090D01*
X182797849Y-100197701D01*
X182807667Y-100242414D01*
X182786849Y-100288319D01*
X182732369Y-100268293D01*
X182656188Y-100187725D01*
X182641216Y-100167382D01*
X182569554Y-100047647D01*
X182559648Y-99970628D01*
X182592384Y-99932735D01*
X182633856Y-99950362D01*
G37*
X182633856Y-99950362D02*
X182694087Y-100017895D01*
X182754833Y-100109090D01*
X182797849Y-100197701D01*
X182807667Y-100242414D01*
X182786849Y-100288319D01*
X182732369Y-100268293D01*
X182656188Y-100187725D01*
X182641216Y-100167382D01*
X182569554Y-100047647D01*
X182559648Y-99970628D01*
X182592384Y-99932735D01*
X182633856Y-99950362D01*
G36*
X183535991Y-100081806D02*
G01*
X183577424Y-100196603D01*
X183609263Y-100335923D01*
X183639833Y-100482663D01*
X183667390Y-100600298D01*
X183683003Y-100654454D01*
X183670857Y-100699838D01*
X183617307Y-100715150D01*
X183562886Y-100691647D01*
X183555700Y-100681917D01*
X183528885Y-100606343D01*
X183500684Y-100481632D01*
X183475985Y-100337782D01*
X183459676Y-100204789D01*
X183456644Y-100112647D01*
X183459997Y-100094567D01*
X183496384Y-100047043D01*
X183535991Y-100081806D01*
G37*
X183535991Y-100081806D02*
X183577424Y-100196603D01*
X183609263Y-100335923D01*
X183639833Y-100482663D01*
X183667390Y-100600298D01*
X183683003Y-100654454D01*
X183670857Y-100699838D01*
X183617307Y-100715150D01*
X183562886Y-100691647D01*
X183555700Y-100681917D01*
X183528885Y-100606343D01*
X183500684Y-100481632D01*
X183475985Y-100337782D01*
X183459676Y-100204789D01*
X183456644Y-100112647D01*
X183459997Y-100094567D01*
X183496384Y-100047043D01*
X183535991Y-100081806D01*
G36*
X182092318Y-100521148D02*
G01*
X182132436Y-100607439D01*
X182172691Y-100721172D01*
X182203255Y-100834907D01*
X182214358Y-100914750D01*
X182197375Y-100967147D01*
X182154096Y-100955097D01*
X182099224Y-100888227D01*
X182062296Y-100815171D01*
X182020393Y-100676165D01*
X182015226Y-100562527D01*
X182046804Y-100496593D01*
X182062161Y-100489740D01*
X182092318Y-100521148D01*
G37*
X182092318Y-100521148D02*
X182132436Y-100607439D01*
X182172691Y-100721172D01*
X182203255Y-100834907D01*
X182214358Y-100914750D01*
X182197375Y-100967147D01*
X182154096Y-100955097D01*
X182099224Y-100888227D01*
X182062296Y-100815171D01*
X182020393Y-100676165D01*
X182015226Y-100562527D01*
X182046804Y-100496593D01*
X182062161Y-100489740D01*
X182092318Y-100521148D01*
G36*
X183657259Y-101202308D02*
G01*
X183689890Y-101256136D01*
X183693906Y-101331058D01*
X183670258Y-101384854D01*
X183653005Y-101391000D01*
X183601120Y-101357259D01*
X183585754Y-101329527D01*
X183580053Y-101252698D01*
X183611931Y-101201369D01*
X183657259Y-101202308D01*
G37*
X183657259Y-101202308D02*
X183689890Y-101256136D01*
X183693906Y-101331058D01*
X183670258Y-101384854D01*
X183653005Y-101391000D01*
X183601120Y-101357259D01*
X183585754Y-101329527D01*
X183580053Y-101252698D01*
X183611931Y-101201369D01*
X183657259Y-101202308D01*
G36*
X182795986Y-100814875D02*
G01*
X182821320Y-100866119D01*
X182860746Y-100970830D01*
X182905013Y-101101090D01*
X182944868Y-101228980D01*
X182971061Y-101326582D01*
X182976377Y-101359250D01*
X182951104Y-101389998D01*
X182894587Y-101370716D01*
X182859556Y-101338084D01*
X182812354Y-101254599D01*
X182774776Y-101142725D01*
X182749176Y-101021842D01*
X182737908Y-100911331D01*
X182743328Y-100830573D01*
X182767789Y-100798946D01*
X182795986Y-100814875D01*
G37*
X182795986Y-100814875D02*
X182821320Y-100866119D01*
X182860746Y-100970830D01*
X182905013Y-101101090D01*
X182944868Y-101228980D01*
X182971061Y-101326582D01*
X182976377Y-101359250D01*
X182951104Y-101389998D01*
X182894587Y-101370716D01*
X182859556Y-101338084D01*
X182812354Y-101254599D01*
X182774776Y-101142725D01*
X182749176Y-101021842D01*
X182737908Y-100911331D01*
X182743328Y-100830573D01*
X182767789Y-100798946D01*
X182795986Y-100814875D01*
G36*
X182318101Y-101370836D02*
G01*
X182385678Y-101433334D01*
X182443037Y-101516682D01*
X182468034Y-101570399D01*
X182468059Y-101570917D01*
X182442328Y-101604214D01*
X182380189Y-101591605D01*
X182309502Y-101542304D01*
X182281293Y-101509141D01*
X182240307Y-101415196D01*
X182259179Y-101364299D01*
X182318101Y-101370836D01*
G37*
X182318101Y-101370836D02*
X182385678Y-101433334D01*
X182443037Y-101516682D01*
X182468034Y-101570399D01*
X182468059Y-101570917D01*
X182442328Y-101604214D01*
X182380189Y-101591605D01*
X182309502Y-101542304D01*
X182281293Y-101509141D01*
X182240307Y-101415196D01*
X182259179Y-101364299D01*
X182318101Y-101370836D01*
G36*
X183848602Y-101902128D02*
G01*
X183899694Y-101962495D01*
X183908334Y-101988850D01*
X183877375Y-102021701D01*
X183813605Y-102019738D01*
X183760685Y-101984489D01*
X183760167Y-101983667D01*
X183748726Y-101915278D01*
X183790359Y-101881611D01*
X183848602Y-101902128D01*
G37*
X183848602Y-101902128D02*
X183899694Y-101962495D01*
X183908334Y-101988850D01*
X183877375Y-102021701D01*
X183813605Y-102019738D01*
X183760685Y-101984489D01*
X183760167Y-101983667D01*
X183748726Y-101915278D01*
X183790359Y-101881611D01*
X183848602Y-101902128D01*
G36*
X183107850Y-101981152D02*
G01*
X183168003Y-102049011D01*
X183246487Y-102154337D01*
X183265705Y-102212549D01*
X183227058Y-102235590D01*
X183190156Y-102237667D01*
X183106161Y-102203484D01*
X183059896Y-102149692D01*
X183032885Y-102052027D01*
X183039265Y-101992787D01*
X183065262Y-101958401D01*
X183107850Y-101981152D01*
G37*
X183107850Y-101981152D02*
X183168003Y-102049011D01*
X183246487Y-102154337D01*
X183265705Y-102212549D01*
X183227058Y-102235590D01*
X183190156Y-102237667D01*
X183106161Y-102203484D01*
X183059896Y-102149692D01*
X183032885Y-102052027D01*
X183039265Y-101992787D01*
X183065262Y-101958401D01*
X183107850Y-101981152D01*
G36*
X163177198Y-95817686D02*
G01*
X163279001Y-95900885D01*
X163367568Y-96018639D01*
X163497341Y-96191177D01*
X163631959Y-96334845D01*
X163756272Y-96435632D01*
X163855126Y-96479523D01*
X163866800Y-96480334D01*
X163963330Y-96452348D01*
X164068504Y-96384016D01*
X164079167Y-96374500D01*
X164211979Y-96291078D01*
X164350165Y-96267669D01*
X164469926Y-96304835D01*
X164528013Y-96363917D01*
X164567836Y-96442374D01*
X164621308Y-96566895D01*
X164678485Y-96711603D01*
X164729425Y-96850619D01*
X164764184Y-96958063D01*
X164773667Y-97003263D01*
X164750451Y-97033032D01*
X164696727Y-97009290D01*
X164636378Y-96943412D01*
X164631194Y-96935417D01*
X164579385Y-96831982D01*
X164527700Y-96698119D01*
X164518868Y-96670834D01*
X164455378Y-96503099D01*
X164388648Y-96415407D01*
X164309431Y-96403347D01*
X164208477Y-96462508D01*
X164163834Y-96501500D01*
X164036098Y-96583363D01*
X163875931Y-96607334D01*
X163762607Y-96597534D01*
X163672039Y-96557203D01*
X163572164Y-96469945D01*
X163537679Y-96434361D01*
X163420172Y-96299934D01*
X163309175Y-96155596D01*
X163267551Y-96094133D01*
X163199471Y-95999678D01*
X163146054Y-95949067D01*
X163130272Y-95946466D01*
X163099588Y-95990275D01*
X163040913Y-96093835D01*
X162963237Y-96240735D01*
X162891710Y-96381944D01*
X162795440Y-96575589D01*
X162729862Y-96704864D01*
X162687307Y-96780880D01*
X162660107Y-96814744D01*
X162640592Y-96817568D01*
X162621094Y-96800459D01*
X162610453Y-96789386D01*
X162601799Y-96723369D01*
X162637796Y-96592556D01*
X162716261Y-96402685D01*
X162835014Y-96159495D01*
X162888807Y-96057000D01*
X162990401Y-95895079D01*
X163083765Y-95815529D01*
X163177198Y-95817686D01*
G37*
X163177198Y-95817686D02*
X163279001Y-95900885D01*
X163367568Y-96018639D01*
X163497341Y-96191177D01*
X163631959Y-96334845D01*
X163756272Y-96435632D01*
X163855126Y-96479523D01*
X163866800Y-96480334D01*
X163963330Y-96452348D01*
X164068504Y-96384016D01*
X164079167Y-96374500D01*
X164211979Y-96291078D01*
X164350165Y-96267669D01*
X164469926Y-96304835D01*
X164528013Y-96363917D01*
X164567836Y-96442374D01*
X164621308Y-96566895D01*
X164678485Y-96711603D01*
X164729425Y-96850619D01*
X164764184Y-96958063D01*
X164773667Y-97003263D01*
X164750451Y-97033032D01*
X164696727Y-97009290D01*
X164636378Y-96943412D01*
X164631194Y-96935417D01*
X164579385Y-96831982D01*
X164527700Y-96698119D01*
X164518868Y-96670834D01*
X164455378Y-96503099D01*
X164388648Y-96415407D01*
X164309431Y-96403347D01*
X164208477Y-96462508D01*
X164163834Y-96501500D01*
X164036098Y-96583363D01*
X163875931Y-96607334D01*
X163762607Y-96597534D01*
X163672039Y-96557203D01*
X163572164Y-96469945D01*
X163537679Y-96434361D01*
X163420172Y-96299934D01*
X163309175Y-96155596D01*
X163267551Y-96094133D01*
X163199471Y-95999678D01*
X163146054Y-95949067D01*
X163130272Y-95946466D01*
X163099588Y-95990275D01*
X163040913Y-96093835D01*
X162963237Y-96240735D01*
X162891710Y-96381944D01*
X162795440Y-96575589D01*
X162729862Y-96704864D01*
X162687307Y-96780880D01*
X162660107Y-96814744D01*
X162640592Y-96817568D01*
X162621094Y-96800459D01*
X162610453Y-96789386D01*
X162601799Y-96723369D01*
X162637796Y-96592556D01*
X162716261Y-96402685D01*
X162835014Y-96159495D01*
X162888807Y-96057000D01*
X162990401Y-95895079D01*
X163083765Y-95815529D01*
X163177198Y-95817686D01*
G36*
X159111902Y-94465916D02*
G01*
X159228880Y-94499470D01*
X159242106Y-94505417D01*
X159377239Y-94560201D01*
X159503167Y-94599073D01*
X159607379Y-94630125D01*
X159672500Y-94659727D01*
X159735762Y-94686224D01*
X159849175Y-94720825D01*
X159979902Y-94754857D01*
X160095108Y-94779649D01*
X160154357Y-94787000D01*
X160185489Y-94749712D01*
X160207547Y-94657974D01*
X160209695Y-94637949D01*
X160232732Y-94520543D01*
X160266427Y-94483950D01*
X160299473Y-94527214D01*
X160320414Y-94647304D01*
X160328633Y-94733646D01*
X160348075Y-94793135D01*
X160393201Y-94833211D01*
X160478470Y-94861315D01*
X160618341Y-94884886D01*
X160827274Y-94911366D01*
X160835556Y-94912381D01*
X161095378Y-94938354D01*
X161342412Y-94952369D01*
X161561185Y-94954526D01*
X161736225Y-94944925D01*
X161852059Y-94923669D01*
X161886533Y-94905534D01*
X161950803Y-94876225D01*
X161996064Y-94906586D01*
X162003419Y-94971617D01*
X161976147Y-95024075D01*
X161944437Y-95051872D01*
X161894635Y-95070078D01*
X161812828Y-95079602D01*
X161685101Y-95081356D01*
X161497540Y-95076252D01*
X161302724Y-95068183D01*
X161066304Y-95055722D01*
X160844748Y-95040464D01*
X160659321Y-95024119D01*
X160531286Y-95008397D01*
X160508584Y-95004332D01*
X160328667Y-94967702D01*
X160328299Y-95840434D01*
X160325755Y-96255864D01*
X160318388Y-96589403D01*
X160306016Y-96843700D01*
X160288458Y-97021404D01*
X160265532Y-97125164D01*
X160238104Y-97157667D01*
X160196996Y-97129314D01*
X160196203Y-97125917D01*
X160195095Y-97076576D01*
X160194822Y-96954234D01*
X160195336Y-96770549D01*
X160196590Y-96537183D01*
X160198537Y-96265794D01*
X160200705Y-96013483D01*
X160210671Y-94932800D01*
X159941586Y-94877315D01*
X159795858Y-94843761D01*
X159682483Y-94811242D01*
X159630167Y-94789086D01*
X159560821Y-94756276D01*
X159460834Y-94726073D01*
X159325258Y-94684729D01*
X159206834Y-94638026D01*
X159081649Y-94592059D01*
X158974000Y-94567207D01*
X158894345Y-94542857D01*
X158868167Y-94511834D01*
X158904323Y-94472565D01*
X158994642Y-94457104D01*
X159111902Y-94465916D01*
G37*
X159111902Y-94465916D02*
X159228880Y-94499470D01*
X159242106Y-94505417D01*
X159377239Y-94560201D01*
X159503167Y-94599073D01*
X159607379Y-94630125D01*
X159672500Y-94659727D01*
X159735762Y-94686224D01*
X159849175Y-94720825D01*
X159979902Y-94754857D01*
X160095108Y-94779649D01*
X160154357Y-94787000D01*
X160185489Y-94749712D01*
X160207547Y-94657974D01*
X160209695Y-94637949D01*
X160232732Y-94520543D01*
X160266427Y-94483950D01*
X160299473Y-94527214D01*
X160320414Y-94647304D01*
X160328633Y-94733646D01*
X160348075Y-94793135D01*
X160393201Y-94833211D01*
X160478470Y-94861315D01*
X160618341Y-94884886D01*
X160827274Y-94911366D01*
X160835556Y-94912381D01*
X161095378Y-94938354D01*
X161342412Y-94952369D01*
X161561185Y-94954526D01*
X161736225Y-94944925D01*
X161852059Y-94923669D01*
X161886533Y-94905534D01*
X161950803Y-94876225D01*
X161996064Y-94906586D01*
X162003419Y-94971617D01*
X161976147Y-95024075D01*
X161944437Y-95051872D01*
X161894635Y-95070078D01*
X161812828Y-95079602D01*
X161685101Y-95081356D01*
X161497540Y-95076252D01*
X161302724Y-95068183D01*
X161066304Y-95055722D01*
X160844748Y-95040464D01*
X160659321Y-95024119D01*
X160531286Y-95008397D01*
X160508584Y-95004332D01*
X160328667Y-94967702D01*
X160328299Y-95840434D01*
X160325755Y-96255864D01*
X160318388Y-96589403D01*
X160306016Y-96843700D01*
X160288458Y-97021404D01*
X160265532Y-97125164D01*
X160238104Y-97157667D01*
X160196996Y-97129314D01*
X160196203Y-97125917D01*
X160195095Y-97076576D01*
X160194822Y-96954234D01*
X160195336Y-96770549D01*
X160196590Y-96537183D01*
X160198537Y-96265794D01*
X160200705Y-96013483D01*
X160210671Y-94932800D01*
X159941586Y-94877315D01*
X159795858Y-94843761D01*
X159682483Y-94811242D01*
X159630167Y-94789086D01*
X159560821Y-94756276D01*
X159460834Y-94726073D01*
X159325258Y-94684729D01*
X159206834Y-94638026D01*
X159081649Y-94592059D01*
X158974000Y-94567207D01*
X158894345Y-94542857D01*
X158868167Y-94511834D01*
X158904323Y-94472565D01*
X158994642Y-94457104D01*
X159111902Y-94465916D01*
G36*
X161379632Y-95832198D02*
G01*
X161564517Y-95870271D01*
X161767246Y-95957655D01*
X161954087Y-96076517D01*
X162090591Y-96208078D01*
X162148776Y-96301417D01*
X162179653Y-96407001D01*
X162190738Y-96555599D01*
X162191334Y-96620440D01*
X162187189Y-96779404D01*
X162168348Y-96885307D01*
X162125198Y-96969604D01*
X162059948Y-97050360D01*
X161960084Y-97147893D01*
X161865044Y-97191364D01*
X161760977Y-97200000D01*
X161676024Y-97193998D01*
X161600359Y-97168429D01*
X161515767Y-97111946D01*
X161404038Y-97013204D01*
X161299696Y-96912638D01*
X161006000Y-96625276D01*
X161006000Y-96570137D01*
X161120788Y-96570137D01*
X161379337Y-96821568D01*
X161543599Y-96969055D01*
X161671767Y-97050323D01*
X161776866Y-97068114D01*
X161871923Y-97025173D01*
X161954737Y-96942752D01*
X162039111Y-96787557D01*
X162071281Y-96604219D01*
X162050847Y-96422698D01*
X161977412Y-96272953D01*
X161963847Y-96257270D01*
X161823750Y-96141284D01*
X161645971Y-96040756D01*
X161469088Y-95975944D01*
X161406214Y-95964445D01*
X161305947Y-95980310D01*
X161231537Y-96058199D01*
X161178012Y-96205972D01*
X161147852Y-96372685D01*
X161120788Y-96570137D01*
X161006000Y-96570137D01*
X161006000Y-96368565D01*
X161015844Y-96191536D01*
X161051164Y-96062100D01*
X161104300Y-95968011D01*
X161178814Y-95874896D01*
X161255607Y-95836118D01*
X161374620Y-95831976D01*
X161379632Y-95832198D01*
G37*
X161379632Y-95832198D02*
X161564517Y-95870271D01*
X161767246Y-95957655D01*
X161954087Y-96076517D01*
X162090591Y-96208078D01*
X162148776Y-96301417D01*
X162179653Y-96407001D01*
X162190738Y-96555599D01*
X162191334Y-96620440D01*
X162187189Y-96779404D01*
X162168348Y-96885307D01*
X162125198Y-96969604D01*
X162059948Y-97050360D01*
X161960084Y-97147893D01*
X161865044Y-97191364D01*
X161760977Y-97200000D01*
X161676024Y-97193998D01*
X161600359Y-97168429D01*
X161515767Y-97111946D01*
X161404038Y-97013204D01*
X161299696Y-96912638D01*
X161006000Y-96625276D01*
X161006000Y-96570137D01*
X161120788Y-96570137D01*
X161379337Y-96821568D01*
X161543599Y-96969055D01*
X161671767Y-97050323D01*
X161776866Y-97068114D01*
X161871923Y-97025173D01*
X161954737Y-96942752D01*
X162039111Y-96787557D01*
X162071281Y-96604219D01*
X162050847Y-96422698D01*
X161977412Y-96272953D01*
X161963847Y-96257270D01*
X161823750Y-96141284D01*
X161645971Y-96040756D01*
X161469088Y-95975944D01*
X161406214Y-95964445D01*
X161305947Y-95980310D01*
X161231537Y-96058199D01*
X161178012Y-96205972D01*
X161147852Y-96372685D01*
X161120788Y-96570137D01*
X161006000Y-96570137D01*
X161006000Y-96368565D01*
X161015844Y-96191536D01*
X161051164Y-96062100D01*
X161104300Y-95968011D01*
X161178814Y-95874896D01*
X161255607Y-95836118D01*
X161374620Y-95831976D01*
X161379632Y-95832198D01*
G36*
X167033344Y-94372242D02*
G01*
X167152168Y-94394219D01*
X167214167Y-94429620D01*
X167212971Y-94465295D01*
X167142209Y-94488094D01*
X167090713Y-94490667D01*
X166942694Y-94524223D01*
X166775883Y-94614252D01*
X166615329Y-94744795D01*
X166516451Y-94856527D01*
X166445896Y-94949825D01*
X166395113Y-95015882D01*
X166391996Y-95019834D01*
X166332939Y-95116848D01*
X166273408Y-95247736D01*
X166228483Y-95375636D01*
X166213000Y-95457392D01*
X166197799Y-95565205D01*
X166173615Y-95647080D01*
X166155545Y-95707880D01*
X166172648Y-95741068D01*
X166242301Y-95758465D01*
X166353531Y-95769470D01*
X166534751Y-95804098D01*
X166738105Y-95872391D01*
X166937451Y-95962474D01*
X167106651Y-96062476D01*
X167219563Y-96160521D01*
X167222477Y-96164156D01*
X167290268Y-96295181D01*
X167313667Y-96420459D01*
X167304908Y-96552903D01*
X167282302Y-96699803D01*
X167251352Y-96837209D01*
X167217563Y-96941172D01*
X167186439Y-96987740D01*
X167183159Y-96988334D01*
X167147521Y-97022092D01*
X167144334Y-97044199D01*
X167114769Y-97108491D01*
X167043116Y-97188012D01*
X167038178Y-97192366D01*
X166962179Y-97244184D01*
X166867329Y-97272572D01*
X166727078Y-97283673D01*
X166639260Y-97284667D01*
X166472519Y-97280115D01*
X166361417Y-97261578D01*
X166277191Y-97221729D01*
X166219448Y-97177763D01*
X166118477Y-97054734D01*
X166044097Y-96873519D01*
X165993321Y-96624972D01*
X165971069Y-96416834D01*
X165948593Y-96255839D01*
X165913592Y-96153632D01*
X165891455Y-96128980D01*
X165839586Y-96076171D01*
X165848198Y-95999385D01*
X165901223Y-95908834D01*
X166107167Y-95908834D01*
X166111052Y-96268667D01*
X166127316Y-96572592D01*
X166167706Y-96816991D01*
X166230344Y-96994088D01*
X166310515Y-97094168D01*
X166412504Y-97134008D01*
X166561281Y-97155739D01*
X166621330Y-97157667D01*
X166765545Y-97149741D01*
X166863900Y-97116665D01*
X166954458Y-97044492D01*
X166968809Y-97030345D01*
X167061741Y-96896369D01*
X167132402Y-96718622D01*
X167172067Y-96529898D01*
X167172011Y-96362993D01*
X167159838Y-96312338D01*
X167093563Y-96223575D01*
X166965919Y-96129695D01*
X166798760Y-96041142D01*
X166613940Y-95968363D01*
X166433314Y-95921802D01*
X166318834Y-95910382D01*
X166107167Y-95908834D01*
X165901223Y-95908834D01*
X165909792Y-95894202D01*
X165965809Y-95790812D01*
X166018694Y-95641650D01*
X166073232Y-95431785D01*
X166106982Y-95278848D01*
X166160575Y-95140317D01*
X166261453Y-94970131D01*
X166392564Y-94791673D01*
X166536852Y-94628326D01*
X166666759Y-94511351D01*
X166797899Y-94420810D01*
X166902437Y-94378160D01*
X167013167Y-94370959D01*
X167033344Y-94372242D01*
G37*
X167033344Y-94372242D02*
X167152168Y-94394219D01*
X167214167Y-94429620D01*
X167212971Y-94465295D01*
X167142209Y-94488094D01*
X167090713Y-94490667D01*
X166942694Y-94524223D01*
X166775883Y-94614252D01*
X166615329Y-94744795D01*
X166516451Y-94856527D01*
X166445896Y-94949825D01*
X166395113Y-95015882D01*
X166391996Y-95019834D01*
X166332939Y-95116848D01*
X166273408Y-95247736D01*
X166228483Y-95375636D01*
X166213000Y-95457392D01*
X166197799Y-95565205D01*
X166173615Y-95647080D01*
X166155545Y-95707880D01*
X166172648Y-95741068D01*
X166242301Y-95758465D01*
X166353531Y-95769470D01*
X166534751Y-95804098D01*
X166738105Y-95872391D01*
X166937451Y-95962474D01*
X167106651Y-96062476D01*
X167219563Y-96160521D01*
X167222477Y-96164156D01*
X167290268Y-96295181D01*
X167313667Y-96420459D01*
X167304908Y-96552903D01*
X167282302Y-96699803D01*
X167251352Y-96837209D01*
X167217563Y-96941172D01*
X167186439Y-96987740D01*
X167183159Y-96988334D01*
X167147521Y-97022092D01*
X167144334Y-97044199D01*
X167114769Y-97108491D01*
X167043116Y-97188012D01*
X167038178Y-97192366D01*
X166962179Y-97244184D01*
X166867329Y-97272572D01*
X166727078Y-97283673D01*
X166639260Y-97284667D01*
X166472519Y-97280115D01*
X166361417Y-97261578D01*
X166277191Y-97221729D01*
X166219448Y-97177763D01*
X166118477Y-97054734D01*
X166044097Y-96873519D01*
X165993321Y-96624972D01*
X165971069Y-96416834D01*
X165948593Y-96255839D01*
X165913592Y-96153632D01*
X165891455Y-96128980D01*
X165839586Y-96076171D01*
X165848198Y-95999385D01*
X165901223Y-95908834D01*
X166107167Y-95908834D01*
X166111052Y-96268667D01*
X166127316Y-96572592D01*
X166167706Y-96816991D01*
X166230344Y-96994088D01*
X166310515Y-97094168D01*
X166412504Y-97134008D01*
X166561281Y-97155739D01*
X166621330Y-97157667D01*
X166765545Y-97149741D01*
X166863900Y-97116665D01*
X166954458Y-97044492D01*
X166968809Y-97030345D01*
X167061741Y-96896369D01*
X167132402Y-96718622D01*
X167172067Y-96529898D01*
X167172011Y-96362993D01*
X167159838Y-96312338D01*
X167093563Y-96223575D01*
X166965919Y-96129695D01*
X166798760Y-96041142D01*
X166613940Y-95968363D01*
X166433314Y-95921802D01*
X166318834Y-95910382D01*
X166107167Y-95908834D01*
X165901223Y-95908834D01*
X165909792Y-95894202D01*
X165965809Y-95790812D01*
X166018694Y-95641650D01*
X166073232Y-95431785D01*
X166106982Y-95278848D01*
X166160575Y-95140317D01*
X166261453Y-94970131D01*
X166392564Y-94791673D01*
X166536852Y-94628326D01*
X166666759Y-94511351D01*
X166797899Y-94420810D01*
X166902437Y-94378160D01*
X167013167Y-94370959D01*
X167033344Y-94372242D01*
G36*
X168611313Y-94794691D02*
G01*
X168700258Y-94821841D01*
X168742678Y-94864095D01*
X168729044Y-94901327D01*
X168667813Y-94914000D01*
X168550487Y-94944373D01*
X168412149Y-95038430D01*
X168247485Y-95200579D01*
X168073440Y-95407050D01*
X167920563Y-95613855D01*
X167820925Y-95792308D01*
X167764245Y-95970035D01*
X167740239Y-96174662D01*
X167737236Y-96310393D01*
X167749165Y-96512698D01*
X167792398Y-96680268D01*
X167846995Y-96802353D01*
X167957294Y-96975545D01*
X168094603Y-97097299D01*
X168274781Y-97176141D01*
X168513682Y-97220597D01*
X168645410Y-97231709D01*
X168995577Y-97253555D01*
X169150148Y-97089194D01*
X169253362Y-96968710D01*
X169375382Y-96810822D01*
X169489797Y-96649707D01*
X169489824Y-96649667D01*
X169585315Y-96500529D01*
X169644115Y-96380387D01*
X169678173Y-96254724D01*
X169699434Y-96089025D01*
X169704948Y-96028145D01*
X169734966Y-95681791D01*
X169585703Y-95486306D01*
X169439619Y-95311531D01*
X169305863Y-95195999D01*
X169159986Y-95122691D01*
X169001006Y-95079350D01*
X168831356Y-95036214D01*
X168739094Y-94994588D01*
X168726863Y-94956115D01*
X168765381Y-94932681D01*
X168867284Y-94923998D01*
X169014187Y-94945902D01*
X169175618Y-94990606D01*
X169321108Y-95050322D01*
X169391656Y-95092730D01*
X169485315Y-95177341D01*
X169599762Y-95301878D01*
X169691834Y-95415688D01*
X169864482Y-95644359D01*
X169834853Y-96048001D01*
X169818528Y-96241511D01*
X169797863Y-96377801D01*
X169764398Y-96484214D01*
X169709674Y-96588097D01*
X169630252Y-96709405D01*
X169352388Y-97078849D01*
X169141560Y-97311775D01*
X169071948Y-97339477D01*
X168941655Y-97357561D01*
X168774174Y-97365546D01*
X168592995Y-97362952D01*
X168421610Y-97349297D01*
X168302497Y-97328950D01*
X168057151Y-97228689D01*
X167851908Y-97061093D01*
X167701353Y-96839557D01*
X167659629Y-96738600D01*
X167630408Y-96596137D01*
X167615574Y-96400920D01*
X167614823Y-96183576D01*
X167627855Y-95974733D01*
X167654367Y-95805018D01*
X167669348Y-95753056D01*
X167736203Y-95620116D01*
X167848122Y-95451874D01*
X167987804Y-95270294D01*
X168137951Y-95097341D01*
X168281265Y-94954980D01*
X168331031Y-94912920D01*
X168483395Y-94817187D01*
X168609389Y-94794473D01*
X168611313Y-94794691D01*
G37*
X168611313Y-94794691D02*
X168700258Y-94821841D01*
X168742678Y-94864095D01*
X168729044Y-94901327D01*
X168667813Y-94914000D01*
X168550487Y-94944373D01*
X168412149Y-95038430D01*
X168247485Y-95200579D01*
X168073440Y-95407050D01*
X167920563Y-95613855D01*
X167820925Y-95792308D01*
X167764245Y-95970035D01*
X167740239Y-96174662D01*
X167737236Y-96310393D01*
X167749165Y-96512698D01*
X167792398Y-96680268D01*
X167846995Y-96802353D01*
X167957294Y-96975545D01*
X168094603Y-97097299D01*
X168274781Y-97176141D01*
X168513682Y-97220597D01*
X168645410Y-97231709D01*
X168995577Y-97253555D01*
X169150148Y-97089194D01*
X169253362Y-96968710D01*
X169375382Y-96810822D01*
X169489797Y-96649707D01*
X169489824Y-96649667D01*
X169585315Y-96500529D01*
X169644115Y-96380387D01*
X169678173Y-96254724D01*
X169699434Y-96089025D01*
X169704948Y-96028145D01*
X169734966Y-95681791D01*
X169585703Y-95486306D01*
X169439619Y-95311531D01*
X169305863Y-95195999D01*
X169159986Y-95122691D01*
X169001006Y-95079350D01*
X168831356Y-95036214D01*
X168739094Y-94994588D01*
X168726863Y-94956115D01*
X168765381Y-94932681D01*
X168867284Y-94923998D01*
X169014187Y-94945902D01*
X169175618Y-94990606D01*
X169321108Y-95050322D01*
X169391656Y-95092730D01*
X169485315Y-95177341D01*
X169599762Y-95301878D01*
X169691834Y-95415688D01*
X169864482Y-95644359D01*
X169834853Y-96048001D01*
X169818528Y-96241511D01*
X169797863Y-96377801D01*
X169764398Y-96484214D01*
X169709674Y-96588097D01*
X169630252Y-96709405D01*
X169352388Y-97078849D01*
X169141560Y-97311775D01*
X169071948Y-97339477D01*
X168941655Y-97357561D01*
X168774174Y-97365546D01*
X168592995Y-97362952D01*
X168421610Y-97349297D01*
X168302497Y-97328950D01*
X168057151Y-97228689D01*
X167851908Y-97061093D01*
X167701353Y-96839557D01*
X167659629Y-96738600D01*
X167630408Y-96596137D01*
X167615574Y-96400920D01*
X167614823Y-96183576D01*
X167627855Y-95974733D01*
X167654367Y-95805018D01*
X167669348Y-95753056D01*
X167736203Y-95620116D01*
X167848122Y-95451874D01*
X167987804Y-95270294D01*
X168137951Y-95097341D01*
X168281265Y-94954980D01*
X168331031Y-94912920D01*
X168483395Y-94817187D01*
X168609389Y-94794473D01*
X168611313Y-94794691D01*
G36*
X173565887Y-93730891D02*
G01*
X173686394Y-93894611D01*
X173713769Y-93940334D01*
X173792547Y-94089769D01*
X173849912Y-94225008D01*
X173874321Y-94318538D01*
X173874505Y-94323450D01*
X173891401Y-94423103D01*
X173919645Y-94475711D01*
X173944376Y-94535376D01*
X173973070Y-94657524D01*
X174001006Y-94820418D01*
X174012129Y-94901673D01*
X174060302Y-95283323D01*
X174253568Y-95202566D01*
X174386655Y-95143813D01*
X174498718Y-95089052D01*
X174531500Y-95070846D01*
X174612732Y-95048441D01*
X174772053Y-95029763D01*
X175002946Y-95015358D01*
X175298894Y-95005771D01*
X175311256Y-95005511D01*
X175571426Y-95000811D01*
X175762209Y-95000061D01*
X175898850Y-95004678D01*
X175996592Y-95016080D01*
X176070678Y-95035684D01*
X176136351Y-95064908D01*
X176174806Y-95085819D01*
X176291601Y-95142676D01*
X176369293Y-95153011D01*
X176421058Y-95131916D01*
X176521345Y-95095562D01*
X176623178Y-95083333D01*
X176756961Y-95045191D01*
X176904030Y-94939943D01*
X177052615Y-94781359D01*
X177190946Y-94583207D01*
X177307254Y-94359257D01*
X177360893Y-94220266D01*
X177444197Y-94023535D01*
X177544786Y-93866143D01*
X177651037Y-93762957D01*
X177745279Y-93728667D01*
X177846240Y-93754391D01*
X177954927Y-93816544D01*
X177958259Y-93819134D01*
X178023945Y-93879020D01*
X178055474Y-93943508D01*
X178061532Y-94041979D01*
X178055240Y-94147217D01*
X178026567Y-94322706D01*
X177972224Y-94518941D01*
X177928758Y-94634381D01*
X177840042Y-94817688D01*
X177734410Y-95004432D01*
X177623268Y-95177615D01*
X177518021Y-95320240D01*
X177430075Y-95415311D01*
X177385256Y-95444355D01*
X177318847Y-95482422D01*
X177304334Y-95509520D01*
X177270586Y-95545754D01*
X177248458Y-95549000D01*
X177184115Y-95575394D01*
X177090598Y-95641438D01*
X177057451Y-95669646D01*
X176974788Y-95747567D01*
X176948114Y-95798571D01*
X176969856Y-95851669D01*
X176999418Y-95891896D01*
X177150726Y-96118038D01*
X177243099Y-96329520D01*
X177289048Y-96557114D01*
X177294584Y-96617917D01*
X177308332Y-96770024D01*
X177326246Y-96856019D01*
X177355769Y-96894391D01*
X177404344Y-96903632D01*
X177409595Y-96903667D01*
X177526358Y-96934925D01*
X177665447Y-97016509D01*
X177799581Y-97130135D01*
X177871941Y-97213528D01*
X177911591Y-97278340D01*
X177938796Y-97358463D01*
X177956606Y-97472024D01*
X177968076Y-97637154D01*
X177974934Y-97825204D01*
X177972359Y-98226593D01*
X177936899Y-98573506D01*
X177865371Y-98890749D01*
X177820315Y-99031169D01*
X177780389Y-99164479D01*
X177775747Y-99250959D01*
X177802308Y-99316344D01*
X177836615Y-99413099D01*
X177854098Y-99544202D01*
X177854667Y-99570092D01*
X177859371Y-99678810D01*
X177886544Y-99727225D01*
X177955776Y-99739652D01*
X177991554Y-99740000D01*
X178102018Y-99721628D01*
X178251467Y-99673858D01*
X178383137Y-99618160D01*
X178627237Y-99511037D01*
X178887684Y-99412733D01*
X179132140Y-99334730D01*
X179294000Y-99294751D01*
X179547015Y-99215880D01*
X179799851Y-99087063D01*
X179864622Y-99044566D01*
X180071655Y-98908902D01*
X180244435Y-98818374D01*
X180410780Y-98760536D01*
X180575454Y-98726550D01*
X180699623Y-98701982D01*
X180786087Y-98676439D01*
X180805780Y-98665665D01*
X180801425Y-98617308D01*
X180764767Y-98513878D01*
X180703133Y-98375122D01*
X180681784Y-98331397D01*
X180562523Y-98089734D01*
X180476189Y-97903272D01*
X180417466Y-97751675D01*
X180381037Y-97614609D01*
X180361583Y-97471738D01*
X180353788Y-97302725D01*
X180353371Y-97240876D01*
X180479151Y-97240876D01*
X180481132Y-97360777D01*
X180489073Y-97466110D01*
X180506769Y-97568147D01*
X180538014Y-97678159D01*
X180586605Y-97807417D01*
X180656335Y-97967193D01*
X180751001Y-98168757D01*
X180874397Y-98423381D01*
X181030319Y-98742336D01*
X181042046Y-98766334D01*
X181209835Y-99119625D01*
X181336343Y-99407999D01*
X181420577Y-99629052D01*
X181461546Y-99780383D01*
X181461862Y-99782334D01*
X181491401Y-99971417D01*
X181522306Y-100174974D01*
X181533126Y-100248000D01*
X181564871Y-100399448D01*
X181618561Y-100592966D01*
X181683915Y-100792330D01*
X181700627Y-100838186D01*
X181760720Y-101009161D01*
X181806753Y-101159106D01*
X181831595Y-101263974D01*
X181834000Y-101287866D01*
X181846803Y-101370972D01*
X181880702Y-101507396D01*
X181928928Y-101670507D01*
X181939834Y-101704405D01*
X181990207Y-101870491D01*
X182027572Y-102016115D01*
X182045130Y-102114222D01*
X182045667Y-102125639D01*
X182063686Y-102212335D01*
X182110815Y-102344588D01*
X182173581Y-102486727D01*
X182250195Y-102632371D01*
X182308797Y-102710107D01*
X182359341Y-102731945D01*
X182374665Y-102729320D01*
X182463678Y-102707933D01*
X182588598Y-102682933D01*
X182612190Y-102678661D01*
X182711019Y-102655312D01*
X182733418Y-102631272D01*
X182710615Y-102612577D01*
X182648032Y-102545132D01*
X182598574Y-102438520D01*
X182572597Y-102326036D01*
X182580456Y-102240975D01*
X182590459Y-102226274D01*
X182633378Y-102218335D01*
X182683492Y-102283390D01*
X182704580Y-102325422D01*
X182780253Y-102486749D01*
X182834914Y-102586421D01*
X182887167Y-102637611D01*
X182955613Y-102653491D01*
X183058855Y-102647233D01*
X183146334Y-102638224D01*
X183317717Y-102618336D01*
X183478211Y-102594615D01*
X183569667Y-102577197D01*
X183685060Y-102553603D01*
X183850106Y-102523369D01*
X184030770Y-102492707D01*
X184045917Y-102490255D01*
X184374000Y-102437357D01*
X184373739Y-102072928D01*
X184365052Y-101843778D01*
X184340566Y-101673202D01*
X184313906Y-101594311D01*
X184258782Y-101463125D01*
X184190837Y-101259264D01*
X184113228Y-100993198D01*
X184029107Y-100675398D01*
X183991161Y-100523167D01*
X183943032Y-100341053D01*
X183875710Y-100105654D01*
X183797148Y-99843881D01*
X183715296Y-99582646D01*
X183691989Y-99510557D01*
X183618551Y-99281443D01*
X183553070Y-99070101D01*
X183500931Y-98894445D01*
X183467521Y-98772394D01*
X183459603Y-98737506D01*
X183431396Y-98634865D01*
X183398361Y-98574950D01*
X183395534Y-98572868D01*
X183360881Y-98514599D01*
X183358000Y-98489923D01*
X183341241Y-98421246D01*
X183297824Y-98304641D01*
X183251250Y-98196797D01*
X183187970Y-98046327D01*
X183138105Y-97906089D01*
X183118782Y-97834828D01*
X183089699Y-97737099D01*
X183056199Y-97683454D01*
X183022174Y-97625614D01*
X183019334Y-97600923D01*
X183004931Y-97535359D01*
X182960309Y-97416341D01*
X182883346Y-97239075D01*
X182771921Y-96998768D01*
X182623913Y-96690627D01*
X182544181Y-96527277D01*
X182287141Y-96002720D01*
X181901820Y-96031566D01*
X181577465Y-96056353D01*
X181325413Y-96078760D01*
X181133537Y-96102730D01*
X180989711Y-96132209D01*
X180881807Y-96171141D01*
X180797700Y-96223469D01*
X180725262Y-96293139D01*
X180652366Y-96384093D01*
X180600136Y-96454935D01*
X180547436Y-96531357D01*
X180512814Y-96601792D01*
X180492483Y-96686306D01*
X180482658Y-96804968D01*
X180479551Y-96977845D01*
X180479334Y-97095137D01*
X180479151Y-97240876D01*
X180353371Y-97240876D01*
X180352335Y-97087237D01*
X180352334Y-97071420D01*
X180352334Y-96530270D01*
X180514634Y-96325385D01*
X180612958Y-96206044D01*
X180700084Y-96108434D01*
X180745654Y-96063905D01*
X180816653Y-96035681D01*
X180954478Y-96004737D01*
X181141436Y-95973370D01*
X181359834Y-95943877D01*
X181591980Y-95918555D01*
X181820181Y-95899701D01*
X182026744Y-95889612D01*
X182096314Y-95888553D01*
X182379795Y-95887667D01*
X182653832Y-96448584D01*
X182818755Y-96788761D01*
X182947101Y-97059625D01*
X183041428Y-97266941D01*
X183104293Y-97416474D01*
X183138255Y-97513990D01*
X183146334Y-97558590D01*
X183169047Y-97627771D01*
X183183199Y-97641121D01*
X183216881Y-97695206D01*
X183245782Y-97792495D01*
X183277877Y-97902636D01*
X183333275Y-98050029D01*
X183378250Y-98154463D01*
X183435494Y-98288990D01*
X183474238Y-98397993D01*
X183485000Y-98447590D01*
X183508151Y-98517058D01*
X183522534Y-98530534D01*
X183555270Y-98584498D01*
X183584555Y-98684728D01*
X183586603Y-98695173D01*
X183608834Y-98784309D01*
X183652440Y-98935855D01*
X183712036Y-99131895D01*
X183782236Y-99354513D01*
X183818989Y-99468223D01*
X183900308Y-99724244D01*
X183980656Y-99988638D01*
X184052083Y-100234493D01*
X184106634Y-100434897D01*
X184118203Y-100480834D01*
X184198487Y-100800796D01*
X184266194Y-101052071D01*
X184325566Y-101248950D01*
X184380851Y-101405724D01*
X184423403Y-101508323D01*
X184462352Y-101613986D01*
X184485116Y-101731424D01*
X184494314Y-101884028D01*
X184492562Y-102095190D01*
X184491888Y-102120346D01*
X184479834Y-102551545D01*
X184310500Y-102586896D01*
X184035654Y-102638743D01*
X183715289Y-102688398D01*
X183333932Y-102738146D01*
X183104000Y-102765081D01*
X182887636Y-102790694D01*
X182689805Y-102816032D01*
X182532397Y-102838169D01*
X182437355Y-102854169D01*
X182294763Y-102857297D01*
X182231527Y-102826482D01*
X182168371Y-102747799D01*
X182092417Y-102617334D01*
X182017051Y-102463268D01*
X181955662Y-102313779D01*
X181921639Y-102197047D01*
X181918667Y-102167973D01*
X181905826Y-102082456D01*
X181871836Y-101944075D01*
X181823494Y-101779887D01*
X181812834Y-101746738D01*
X181762484Y-101580935D01*
X181725126Y-101435884D01*
X181707546Y-101338493D01*
X181707000Y-101327137D01*
X181690173Y-101230661D01*
X181641942Y-101067254D01*
X181565684Y-100847176D01*
X181464776Y-100580689D01*
X181444104Y-100528202D01*
X181395799Y-100406237D01*
X181075150Y-100437419D01*
X180893576Y-100453871D01*
X180662554Y-100473088D01*
X180417115Y-100492219D01*
X180267667Y-100503170D01*
X179932874Y-100529500D01*
X179671760Y-100556661D01*
X179473347Y-100586854D01*
X179326660Y-100622284D01*
X179220720Y-100665152D01*
X179144552Y-100717662D01*
X179129957Y-100731468D01*
X179092127Y-100772313D01*
X179061751Y-100817637D01*
X179036944Y-100878181D01*
X179015821Y-100964688D01*
X178996497Y-101087898D01*
X178977085Y-101258552D01*
X178955702Y-101487393D01*
X178930461Y-101785161D01*
X178917602Y-101941334D01*
X178888541Y-102263919D01*
X178858496Y-102515332D01*
X178823929Y-102709029D01*
X178781302Y-102858466D01*
X178727077Y-102977098D01*
X178657715Y-103078382D01*
X178601782Y-103142415D01*
X178467845Y-103262062D01*
X178296342Y-103384350D01*
X178151000Y-103468579D01*
X177994647Y-103551068D01*
X177852567Y-103632444D01*
X177758353Y-103693153D01*
X177678479Y-103777419D01*
X177589870Y-103908221D01*
X177508531Y-104056691D01*
X177450468Y-104193960D01*
X177431334Y-104283028D01*
X177390667Y-104368669D01*
X177275075Y-104446138D01*
X177094171Y-104511940D01*
X176857566Y-104562582D01*
X176574873Y-104594570D01*
X176574084Y-104594626D01*
X176203667Y-104620866D01*
X176203667Y-104777106D01*
X176217534Y-104894648D01*
X176255348Y-105070384D01*
X176311429Y-105283194D01*
X176380099Y-105511959D01*
X176455677Y-105735558D01*
X176477042Y-105793667D01*
X176532640Y-105941834D01*
X176848424Y-105954079D01*
X177040367Y-105954941D01*
X177164848Y-105931086D01*
X177238223Y-105869740D01*
X177276852Y-105758130D01*
X177295351Y-105605081D01*
X177300129Y-105486429D01*
X177287491Y-105382577D01*
X177250465Y-105267883D01*
X177182079Y-105116704D01*
X177138682Y-105028869D01*
X177053090Y-104845034D01*
X177005746Y-104713761D01*
X176999711Y-104643868D01*
X177003209Y-104638525D01*
X177047883Y-104645506D01*
X177115721Y-104719793D01*
X177198979Y-104849868D01*
X177289914Y-105024211D01*
X177346804Y-105149604D01*
X177404663Y-105312806D01*
X177427303Y-105471149D01*
X177423864Y-105642534D01*
X177404108Y-105831554D01*
X177363696Y-105958794D01*
X177288148Y-106036189D01*
X177162983Y-106075676D01*
X176973720Y-106089191D01*
X176881000Y-106090000D01*
X176691159Y-106086632D01*
X176567160Y-106074409D01*
X176490370Y-106050153D01*
X176446676Y-106015917D01*
X176401265Y-105939578D01*
X176344972Y-105809264D01*
X176289655Y-105652556D01*
X176287434Y-105645500D01*
X176231140Y-105466736D01*
X176175480Y-105291611D01*
X176135652Y-105167771D01*
X176096997Y-105002721D01*
X176077305Y-104828323D01*
X176076667Y-104798844D01*
X176071084Y-104693544D01*
X176045092Y-104619774D01*
X175984822Y-104568908D01*
X175876408Y-104532322D01*
X175705982Y-104501390D01*
X175566891Y-104481781D01*
X175277461Y-104438347D01*
X175049850Y-104392568D01*
X174861289Y-104338427D01*
X174689009Y-104269906D01*
X174595000Y-104224942D01*
X174416342Y-104135367D01*
X174296509Y-104085011D01*
X174223767Y-104082350D01*
X174186383Y-104135859D01*
X174172624Y-104254014D01*
X174170754Y-104445290D01*
X174170737Y-104531397D01*
X174166771Y-104769146D01*
X174154338Y-104942338D01*
X174131023Y-105070870D01*
X174094412Y-105174634D01*
X174092049Y-105179834D01*
X173989463Y-105358435D01*
X173877580Y-105459285D01*
X173747443Y-105489301D01*
X173697305Y-105484576D01*
X173585144Y-105467187D01*
X173423589Y-105442939D01*
X173247057Y-105416996D01*
X173242184Y-105416288D01*
X173068827Y-105386627D01*
X172950425Y-105350445D01*
X172857479Y-105295190D01*
X172765934Y-105213640D01*
X172648871Y-105076140D01*
X172610697Y-104969244D01*
X172651397Y-104892859D01*
X172702323Y-104865696D01*
X172804832Y-104806808D01*
X172857850Y-104758288D01*
X172923740Y-104697585D01*
X173034479Y-104612585D01*
X173136934Y-104541365D01*
X173366280Y-104373114D01*
X173532121Y-104210865D01*
X173652168Y-104036698D01*
X173671353Y-104000602D01*
X173740295Y-103901420D01*
X173796985Y-103876813D01*
X173826921Y-103923169D01*
X173815686Y-104036556D01*
X173767534Y-104129118D01*
X173670143Y-104254034D01*
X173541416Y-104392084D01*
X173399259Y-104524046D01*
X173263346Y-104629500D01*
X173152123Y-104714187D01*
X173028117Y-104821134D01*
X172995414Y-104851750D01*
X172895787Y-104934279D01*
X172810165Y-104983382D01*
X172784279Y-104989334D01*
X172755148Y-105004926D01*
X172785520Y-105058064D01*
X172836594Y-105114691D01*
X172968539Y-105214432D01*
X173137085Y-105261694D01*
X173151430Y-105263530D01*
X173321298Y-105288928D01*
X173503550Y-105323135D01*
X173548421Y-105332885D01*
X173697056Y-105354889D01*
X173801276Y-105332006D01*
X173882554Y-105252005D01*
X173962359Y-105102657D01*
X173965779Y-105095167D01*
X174002389Y-104993206D01*
X174026041Y-104867182D01*
X174039028Y-104697679D01*
X174043642Y-104465282D01*
X174043737Y-104434740D01*
X174044667Y-103943646D01*
X173547250Y-103690003D01*
X173333832Y-103585499D01*
X173120888Y-103488680D01*
X172933156Y-103410361D01*
X172795834Y-103361494D01*
X172634243Y-103313806D01*
X172483938Y-103269354D01*
X172404931Y-103245922D01*
X172299029Y-103189928D01*
X172181461Y-103092308D01*
X172073424Y-102975649D01*
X171996117Y-102862535D01*
X171970334Y-102782879D01*
X171949004Y-102705036D01*
X171928000Y-102682167D01*
X171894397Y-102623404D01*
X171885667Y-102559464D01*
X171846795Y-102465324D01*
X171739024Y-102398662D01*
X171575617Y-102366524D01*
X171518906Y-102364667D01*
X171419875Y-102369652D01*
X171385054Y-102397619D01*
X171394058Y-102468084D01*
X171397308Y-102481084D01*
X171435547Y-102663070D01*
X171449993Y-102802003D01*
X171442928Y-102889699D01*
X171416639Y-102917975D01*
X171373408Y-102878646D01*
X171317282Y-102767760D01*
X171242029Y-102646168D01*
X171142566Y-102550258D01*
X171135250Y-102545510D01*
X170959154Y-102424593D01*
X170819066Y-102306353D01*
X170728454Y-102203496D01*
X170700335Y-102135167D01*
X170710478Y-102100084D01*
X170959244Y-102100084D01*
X170968556Y-102200961D01*
X171011201Y-102236893D01*
X171023017Y-102237667D01*
X171067181Y-102222288D01*
X171064338Y-102216500D01*
X171377667Y-102216500D01*
X171398834Y-102237667D01*
X171420000Y-102216500D01*
X171398834Y-102195334D01*
X171377667Y-102216500D01*
X171064338Y-102216500D01*
X171048739Y-102184750D01*
X171039138Y-102167111D01*
X171688111Y-102167111D01*
X171693922Y-102192278D01*
X171716334Y-102195334D01*
X171751179Y-102179844D01*
X171744556Y-102167111D01*
X171694316Y-102162045D01*
X171688111Y-102167111D01*
X171039138Y-102167111D01*
X171002245Y-102099333D01*
X170984966Y-102047167D01*
X170983248Y-102043663D01*
X171435869Y-102043663D01*
X171437754Y-102057865D01*
X171500634Y-102069777D01*
X171587448Y-102039277D01*
X171661810Y-101983370D01*
X171686145Y-101941797D01*
X171735033Y-101872670D01*
X171782094Y-101856667D01*
X171881765Y-101823551D01*
X172002290Y-101738006D01*
X172121859Y-101620736D01*
X172218664Y-101492444D01*
X172263948Y-101399238D01*
X172296431Y-101252937D01*
X172274883Y-101167486D01*
X172197653Y-101137212D01*
X172187593Y-101137000D01*
X172091522Y-101115409D01*
X172015851Y-101064116D01*
X171983240Y-101003337D01*
X171997092Y-100967041D01*
X172072222Y-100941315D01*
X172124092Y-100959636D01*
X172223813Y-101006576D01*
X172319584Y-101046871D01*
X172402460Y-101096955D01*
X172433395Y-101178633D01*
X172436000Y-101236756D01*
X172397271Y-101462921D01*
X172279282Y-101672782D01*
X172103616Y-101851407D01*
X171975155Y-101970983D01*
X171905019Y-102071802D01*
X171878154Y-102169695D01*
X171881567Y-102288765D01*
X171932379Y-102357473D01*
X171937031Y-102360482D01*
X171996443Y-102437019D01*
X172012667Y-102510694D01*
X172028328Y-102600188D01*
X172055000Y-102639834D01*
X172092841Y-102700601D01*
X172097334Y-102733586D01*
X172130686Y-102835223D01*
X172214852Y-102950496D01*
X172325995Y-103053097D01*
X172440277Y-103116716D01*
X172446116Y-103118543D01*
X172563575Y-103153320D01*
X172721561Y-103199877D01*
X172838167Y-103234135D01*
X172971193Y-103280432D01*
X173146902Y-103354620D01*
X173371938Y-103459869D01*
X173652944Y-103599355D01*
X173996563Y-103776251D01*
X174235167Y-103901461D01*
X174513417Y-104042788D01*
X174744120Y-104145795D01*
X174950121Y-104219211D01*
X175154263Y-104271764D01*
X175257157Y-104291936D01*
X175533709Y-104341441D01*
X175738812Y-104376882D01*
X175884271Y-104399591D01*
X175981892Y-104410902D01*
X176043481Y-104412149D01*
X176080842Y-104404666D01*
X176105782Y-104389787D01*
X176107916Y-104388052D01*
X176159626Y-104374304D01*
X176188737Y-104418821D01*
X176213277Y-104456045D01*
X176263212Y-104475060D01*
X176357345Y-104478449D01*
X176514474Y-104468797D01*
X176538488Y-104466882D01*
X176730693Y-104443167D01*
X176921573Y-104406322D01*
X177064969Y-104365877D01*
X177198924Y-104306411D01*
X177277009Y-104237336D01*
X177324030Y-104142667D01*
X177402896Y-103938047D01*
X177478333Y-103784831D01*
X177566390Y-103665670D01*
X177683115Y-103563218D01*
X177844557Y-103460126D01*
X178066765Y-103339045D01*
X178068116Y-103338334D01*
X178235099Y-103236959D01*
X178395096Y-103117597D01*
X178505865Y-103013904D01*
X178578225Y-102922337D01*
X178634929Y-102821851D01*
X178679377Y-102698793D01*
X178714969Y-102539512D01*
X178745105Y-102330354D01*
X178773186Y-102057667D01*
X178788805Y-101877834D01*
X178816950Y-101543135D01*
X178840207Y-101282069D01*
X178860603Y-101083886D01*
X178880160Y-100937833D01*
X178900903Y-100833161D01*
X178924856Y-100759118D01*
X178954044Y-100704953D01*
X178990489Y-100659914D01*
X179024731Y-100624731D01*
X179091165Y-100567874D01*
X179171680Y-100522240D01*
X179277979Y-100485351D01*
X179421764Y-100454728D01*
X179614738Y-100427894D01*
X179868602Y-100402371D01*
X180195060Y-100375681D01*
X180204167Y-100374984D01*
X180550162Y-100347895D01*
X180820549Y-100325012D01*
X181024220Y-100305206D01*
X181170065Y-100287347D01*
X181266974Y-100270307D01*
X181323838Y-100252956D01*
X181349549Y-100234166D01*
X181352120Y-100229191D01*
X181352614Y-100157390D01*
X181330606Y-100026378D01*
X181291483Y-99856885D01*
X181240630Y-99669643D01*
X181183434Y-99485382D01*
X181125280Y-99324833D01*
X181104041Y-99274334D01*
X181038925Y-99126261D01*
X180981020Y-98992295D01*
X180953658Y-98927425D01*
X180913048Y-98853616D01*
X180854366Y-98827893D01*
X180745891Y-98836044D01*
X180477750Y-98892720D01*
X180241557Y-98989810D01*
X180064215Y-99095422D01*
X179916340Y-99183924D01*
X179744953Y-99273191D01*
X179572883Y-99352803D01*
X179422959Y-99412344D01*
X179318012Y-99441397D01*
X179303248Y-99442662D01*
X179212928Y-99459712D01*
X179067791Y-99503440D01*
X178890233Y-99565796D01*
X178702654Y-99638730D01*
X178527452Y-99714190D01*
X178463000Y-99744674D01*
X178292508Y-99819352D01*
X178152497Y-99854800D01*
X178003960Y-99860164D01*
X177976167Y-99858805D01*
X177748834Y-99845834D01*
X177735931Y-99644750D01*
X177718212Y-99511021D01*
X177689997Y-99450971D01*
X177656099Y-99468314D01*
X177623493Y-99557959D01*
X177587067Y-99654425D01*
X177521102Y-99790643D01*
X177452350Y-99915317D01*
X177309893Y-100158384D01*
X177444697Y-100171442D01*
X177543180Y-100195246D01*
X177578306Y-100249697D01*
X177579500Y-100269167D01*
X177556464Y-100330840D01*
X177476623Y-100381791D01*
X177378639Y-100417334D01*
X177263316Y-100458789D01*
X177190564Y-100494547D01*
X177177556Y-100508309D01*
X177215085Y-100550172D01*
X177318486Y-100611768D01*
X177473255Y-100686218D01*
X177664888Y-100766638D01*
X177878884Y-100846148D01*
X177917679Y-100859499D01*
X178123782Y-100935929D01*
X178252369Y-100999425D01*
X178309095Y-101052902D01*
X178312366Y-101062917D01*
X178296369Y-101124282D01*
X178243230Y-101137000D01*
X178161690Y-101149129D01*
X178028894Y-101180885D01*
X177877832Y-101224128D01*
X177644049Y-101320770D01*
X177456086Y-101447340D01*
X177325781Y-101593001D01*
X177264969Y-101746912D01*
X177262000Y-101787983D01*
X177279788Y-101901742D01*
X177322862Y-101981355D01*
X177325500Y-101983667D01*
X177383798Y-102067128D01*
X177359578Y-102156573D01*
X177308526Y-102212706D01*
X177245072Y-102304513D01*
X177201539Y-102427181D01*
X177200279Y-102433573D01*
X177159064Y-102540010D01*
X177099632Y-102569484D01*
X177036534Y-102523101D01*
X176988662Y-102417495D01*
X176954843Y-102324953D01*
X176925761Y-102280652D01*
X176923132Y-102280000D01*
X176894003Y-102315612D01*
X176845497Y-102406531D01*
X176788214Y-102528882D01*
X176732752Y-102658791D01*
X176689713Y-102772381D01*
X176669696Y-102845779D01*
X176669334Y-102851654D01*
X176649237Y-102912927D01*
X176637584Y-102922056D01*
X176600584Y-102965327D01*
X176544446Y-103057910D01*
X176519102Y-103105500D01*
X176435679Y-103229163D01*
X176354008Y-103274711D01*
X176349768Y-103274834D01*
X176314396Y-103269628D01*
X176291391Y-103244470D01*
X176278637Y-103185050D01*
X176274020Y-103077057D01*
X176275426Y-102906180D01*
X176277828Y-102788000D01*
X176281377Y-102580977D01*
X176280255Y-102447411D01*
X176273069Y-102376156D01*
X176258428Y-102356065D01*
X176234938Y-102375992D01*
X176227582Y-102385834D01*
X176082269Y-102580722D01*
X175971578Y-102708337D01*
X175886418Y-102773912D01*
X175817696Y-102782684D01*
X175756322Y-102739886D01*
X175712941Y-102682167D01*
X175614236Y-102595035D01*
X175492838Y-102584430D01*
X175367042Y-102650417D01*
X175263102Y-102737983D01*
X175187877Y-102801042D01*
X175079028Y-102864401D01*
X175000299Y-102848874D01*
X174953367Y-102755320D01*
X174941999Y-102674971D01*
X174899267Y-102486343D01*
X174800922Y-102360178D01*
X174643355Y-102293279D01*
X174496456Y-102280000D01*
X174237282Y-102315297D01*
X173974214Y-102411760D01*
X173742053Y-102555252D01*
X173674635Y-102613876D01*
X173583289Y-102693681D01*
X173513695Y-102740516D01*
X173497217Y-102745667D01*
X173437725Y-102716013D01*
X173431979Y-102646226D01*
X173470930Y-102578806D01*
X173526509Y-102478540D01*
X173549160Y-102380390D01*
X173545307Y-102296334D01*
X173501112Y-102258791D01*
X173416500Y-102245288D01*
X173285185Y-102256746D01*
X173221838Y-102304672D01*
X173156588Y-102347725D01*
X173094349Y-102332161D01*
X173071000Y-102275788D01*
X173094135Y-102215808D01*
X173150327Y-102126420D01*
X173155335Y-102119536D01*
X173220073Y-101995921D01*
X173261110Y-101848502D01*
X173274924Y-101704706D01*
X173257993Y-101591955D01*
X173228693Y-101548197D01*
X173190704Y-101499599D01*
X173181789Y-101420266D01*
X173199036Y-101285167D01*
X173220939Y-101113075D01*
X173235197Y-100917738D01*
X173237810Y-100831412D01*
X173232036Y-100686643D01*
X173208129Y-100618701D01*
X173161938Y-100627776D01*
X173089310Y-100714056D01*
X173007500Y-100841915D01*
X172920695Y-100961839D01*
X172842980Y-101028419D01*
X172785913Y-101036785D01*
X172761055Y-100982070D01*
X172762302Y-100945179D01*
X172803072Y-100729570D01*
X172861291Y-100534237D01*
X173009281Y-100534237D01*
X173011583Y-100567363D01*
X173046764Y-100544790D01*
X173069643Y-100524395D01*
X173169554Y-100473559D01*
X173247426Y-100466848D01*
X173291109Y-100476591D01*
X173319537Y-100501265D01*
X173335984Y-100556304D01*
X173343723Y-100657142D01*
X173346029Y-100819214D01*
X173346167Y-100932380D01*
X173348982Y-101120560D01*
X173356595Y-101276663D01*
X173367757Y-101381674D01*
X173377917Y-101415685D01*
X173399739Y-101481217D01*
X173408436Y-101601633D01*
X173404399Y-101748235D01*
X173388022Y-101892329D01*
X173370289Y-101973363D01*
X173349060Y-102066179D01*
X173367199Y-102103681D01*
X173436572Y-102110667D01*
X173583542Y-102136905D01*
X173678148Y-102208557D01*
X173706000Y-102297771D01*
X173706000Y-102397229D01*
X173941365Y-102275115D01*
X174096274Y-102204095D01*
X174237857Y-102166794D01*
X174407938Y-102153659D01*
X174476116Y-102153000D01*
X174635402Y-102155446D01*
X174737883Y-102169132D01*
X174811406Y-102203584D01*
X174883816Y-102268327D01*
X174918085Y-102304181D01*
X175007056Y-102419824D01*
X175056258Y-102526986D01*
X175060667Y-102558181D01*
X175073155Y-102638840D01*
X175116247Y-102652309D01*
X175198390Y-102598452D01*
X175247166Y-102555167D01*
X175394203Y-102468614D01*
X175557962Y-102449872D01*
X175711622Y-102499608D01*
X175767884Y-102542189D01*
X175866724Y-102635045D01*
X175939404Y-102531606D01*
X176005879Y-102435301D01*
X176093359Y-102306483D01*
X176139626Y-102237667D01*
X176231264Y-102111269D01*
X176298496Y-102048265D01*
X176344604Y-102052739D01*
X176372869Y-102128770D01*
X176386574Y-102280443D01*
X176388999Y-102511837D01*
X176388663Y-102547432D01*
X176386821Y-102758271D01*
X176388079Y-102895177D01*
X176394308Y-102968872D01*
X176407384Y-102990081D01*
X176429179Y-102969526D01*
X176455234Y-102928432D01*
X176505903Y-102830561D01*
X176572562Y-102683266D01*
X176641732Y-102516493D01*
X176649233Y-102497434D01*
X176743070Y-102294480D01*
X176835661Y-102164657D01*
X176923434Y-102111105D01*
X177002816Y-102136963D01*
X177027600Y-102164865D01*
X177072691Y-102213211D01*
X177114800Y-102196754D01*
X177147821Y-102162223D01*
X177191001Y-102075956D01*
X177175840Y-102025033D01*
X177135741Y-101895991D01*
X177138922Y-101731611D01*
X177181393Y-101566794D01*
X177240658Y-101458493D01*
X177331082Y-101372746D01*
X177470676Y-101275201D01*
X177633587Y-101180335D01*
X177793964Y-101102625D01*
X177925954Y-101056548D01*
X177970193Y-101049956D01*
X177973189Y-101037435D01*
X177909055Y-101006888D01*
X177791665Y-100964918D01*
X177791167Y-100964755D01*
X177498192Y-100851877D01*
X177266743Y-100726069D01*
X177104783Y-100592479D01*
X177024882Y-100469493D01*
X176989145Y-100478912D01*
X176907762Y-100517040D01*
X176897882Y-100522149D01*
X176796337Y-100550973D01*
X176630855Y-100571735D01*
X176421815Y-100584102D01*
X176189592Y-100587737D01*
X175954565Y-100582306D01*
X175737111Y-100567473D01*
X175563862Y-100544089D01*
X175229636Y-100467606D01*
X174849725Y-100357267D01*
X174451278Y-100222380D01*
X174061446Y-100072253D01*
X173707381Y-99916194D01*
X173646981Y-99886930D01*
X173439794Y-99784840D01*
X173319573Y-99921170D01*
X173245158Y-100013779D01*
X173202538Y-100082726D01*
X173198676Y-100096500D01*
X173172687Y-100157140D01*
X173138708Y-100202333D01*
X173088936Y-100286319D01*
X173042194Y-100407757D01*
X173035008Y-100432547D01*
X173009281Y-100534237D01*
X172861291Y-100534237D01*
X172877610Y-100479488D01*
X172973424Y-100229820D01*
X173078020Y-100015454D01*
X173119732Y-99947084D01*
X173288863Y-99692453D01*
X173272657Y-99676500D01*
X173506017Y-99676500D01*
X173701258Y-99769010D01*
X174043080Y-99920056D01*
X174417624Y-100066912D01*
X174799958Y-100200979D01*
X175165150Y-100313658D01*
X175488269Y-100396349D01*
X175568667Y-100413125D01*
X175713654Y-100432531D01*
X175904447Y-100445788D01*
X176119084Y-100452804D01*
X176335601Y-100453486D01*
X176532036Y-100447743D01*
X176686424Y-100435483D01*
X176772931Y-100418183D01*
X176868920Y-100348554D01*
X176927427Y-100259433D01*
X176982070Y-100130229D01*
X177032740Y-100022319D01*
X177082950Y-99899406D01*
X177076563Y-99823949D01*
X177008062Y-99775883D01*
X176960428Y-99759338D01*
X176853519Y-99700197D01*
X176755832Y-99583011D01*
X176710782Y-99507605D01*
X176610712Y-99359676D01*
X176516031Y-99280863D01*
X176493771Y-99273085D01*
X176427523Y-99242328D01*
X176394106Y-99173855D01*
X176381149Y-99071563D01*
X176358925Y-98943663D01*
X176315760Y-98894228D01*
X176307066Y-98893334D01*
X176252286Y-98871386D01*
X176246000Y-98854101D01*
X176207349Y-98794142D01*
X176106120Y-98738854D01*
X175964403Y-98693120D01*
X175804288Y-98661820D01*
X175647863Y-98649837D01*
X175517218Y-98662053D01*
X175463692Y-98681207D01*
X175354859Y-98714459D01*
X175275157Y-98712473D01*
X175195251Y-98709708D01*
X175164044Y-98727974D01*
X175103905Y-98757635D01*
X174997928Y-98765742D01*
X174881634Y-98754179D01*
X174790542Y-98724830D01*
X174767755Y-98706956D01*
X174697308Y-98667138D01*
X174579533Y-98638263D01*
X174531706Y-98632724D01*
X174418256Y-98630557D01*
X174379032Y-98646948D01*
X174385302Y-98658235D01*
X174423147Y-98713779D01*
X174395941Y-98744897D01*
X174297780Y-98753528D01*
X174129334Y-98742260D01*
X173833000Y-98713060D01*
X173833000Y-98843942D01*
X173814583Y-98972690D01*
X173766692Y-99144215D01*
X173700367Y-99326949D01*
X173626648Y-99489325D01*
X173578852Y-99570667D01*
X173506017Y-99676500D01*
X173272657Y-99676500D01*
X173077165Y-99484068D01*
X172966350Y-99366874D01*
X172880410Y-99261027D01*
X172838381Y-99190342D01*
X172800402Y-99125887D01*
X172756080Y-99103353D01*
X172732511Y-99135352D01*
X172732334Y-99140983D01*
X172696340Y-99174301D01*
X172601884Y-99227354D01*
X172469249Y-99288776D01*
X172466423Y-99289979D01*
X172195555Y-99431701D01*
X171993539Y-99602505D01*
X171845941Y-99816235D01*
X171789864Y-99938942D01*
X171743766Y-100093589D01*
X171701242Y-100307029D01*
X171665951Y-100553387D01*
X171641556Y-100806789D01*
X171631716Y-101041362D01*
X171631667Y-101057071D01*
X171619170Y-101212173D01*
X171585990Y-101410715D01*
X171538591Y-101615939D01*
X171524392Y-101667045D01*
X171479337Y-101831936D01*
X171448405Y-101963901D01*
X171435869Y-102043663D01*
X170983248Y-102043663D01*
X170969888Y-102016417D01*
X170960731Y-102069347D01*
X170959244Y-102100084D01*
X170710478Y-102100084D01*
X170727745Y-102040361D01*
X170770105Y-101976737D01*
X170817311Y-101890679D01*
X170834690Y-101835500D01*
X171166000Y-101835500D01*
X171187167Y-101856667D01*
X171208334Y-101835500D01*
X171187167Y-101814334D01*
X171166000Y-101835500D01*
X170834690Y-101835500D01*
X170858963Y-101758437D01*
X170874198Y-101682528D01*
X170888505Y-101544585D01*
X170877026Y-101425350D01*
X170834008Y-101286901D01*
X170801895Y-101205958D01*
X170739852Y-101022182D01*
X170675079Y-100771794D01*
X170611418Y-100472594D01*
X170552712Y-100142380D01*
X170510017Y-99853892D01*
X170489863Y-99732174D01*
X170462373Y-99674359D01*
X170412470Y-99660038D01*
X170369278Y-99663392D01*
X170294166Y-99685392D01*
X170246065Y-99744898D01*
X170206424Y-99865031D01*
X170205907Y-99867000D01*
X170134559Y-100128511D01*
X170067497Y-100354229D01*
X170008793Y-100531630D01*
X169962519Y-100648193D01*
X169939127Y-100687473D01*
X169885347Y-100707579D01*
X169832513Y-100654217D01*
X169777294Y-100522952D01*
X169750445Y-100436118D01*
X169708667Y-100294981D01*
X169651997Y-100108357D01*
X169591151Y-99911457D01*
X169577247Y-99867000D01*
X169506051Y-99626146D01*
X169439210Y-99374992D01*
X169381178Y-99132904D01*
X169337000Y-98922073D01*
X169479339Y-98922073D01*
X169496708Y-99039602D01*
X169531861Y-99204215D01*
X169580277Y-99399928D01*
X169637435Y-99610757D01*
X169698814Y-99820717D01*
X169759892Y-100013824D01*
X169816147Y-100174093D01*
X169863059Y-100285539D01*
X169896106Y-100332179D01*
X169898680Y-100332667D01*
X169926631Y-100295911D01*
X169962861Y-100203206D01*
X169978078Y-100152750D01*
X170021718Y-99991653D01*
X170064194Y-99828619D01*
X170070110Y-99805167D01*
X170119786Y-99651945D01*
X170183258Y-99566466D01*
X170276985Y-99531846D01*
X170339999Y-99528334D01*
X170477298Y-99528334D01*
X170442493Y-99348417D01*
X170420706Y-99232188D01*
X170407452Y-99154609D01*
X170405844Y-99141992D01*
X170366595Y-99123973D01*
X170267768Y-99106126D01*
X170181750Y-99096860D01*
X170102546Y-99081996D01*
X170543383Y-99081996D01*
X170554558Y-99189692D01*
X170573696Y-99301940D01*
X170604848Y-99484210D01*
X170630301Y-99673534D01*
X170639014Y-99761167D01*
X170652692Y-99891100D01*
X170674927Y-100057448D01*
X170702707Y-100242284D01*
X170733017Y-100427683D01*
X170762843Y-100595719D01*
X170789171Y-100728465D01*
X170808986Y-100807996D01*
X170817445Y-100822333D01*
X170819755Y-100776375D01*
X170813609Y-100664598D01*
X170800253Y-100505293D01*
X170786565Y-100368548D01*
X170739315Y-99945798D01*
X170696212Y-99605472D01*
X170656878Y-99345449D01*
X170620934Y-99163607D01*
X170588002Y-99057826D01*
X170557703Y-99025982D01*
X170548071Y-99031485D01*
X170543383Y-99081996D01*
X170102546Y-99081996D01*
X170007116Y-99064087D01*
X169816799Y-99001555D01*
X169731391Y-98963422D01*
X169608082Y-98905692D01*
X169517922Y-98871578D01*
X169484276Y-98867614D01*
X169479339Y-98922073D01*
X169337000Y-98922073D01*
X169336407Y-98919247D01*
X169309350Y-98753383D01*
X169303334Y-98675726D01*
X169319998Y-98567436D01*
X169366947Y-98537638D01*
X169439614Y-98588002D01*
X169464125Y-98616923D01*
X169576086Y-98717324D01*
X169741602Y-98817435D01*
X169930801Y-98902526D01*
X170113811Y-98957865D01*
X170176264Y-98968114D01*
X170356601Y-98988440D01*
X170364006Y-98872167D01*
X170488667Y-98872167D01*
X170509834Y-98893334D01*
X170531000Y-98872167D01*
X170509834Y-98851000D01*
X170488667Y-98872167D01*
X170364006Y-98872167D01*
X170369717Y-98782518D01*
X170393285Y-98637334D01*
X170437042Y-98569059D01*
X170495906Y-98573793D01*
X170564796Y-98647637D01*
X170638631Y-98786693D01*
X170712330Y-98987061D01*
X170734822Y-99062667D01*
X170774888Y-99241954D01*
X170816009Y-99497025D01*
X170856985Y-99819027D01*
X170896616Y-100199107D01*
X170912666Y-100375000D01*
X170935198Y-100605836D01*
X170961229Y-100831841D01*
X170987370Y-101025533D01*
X171008114Y-101149132D01*
X171036822Y-101279994D01*
X171058315Y-101337211D01*
X171078357Y-101330806D01*
X171093327Y-101297299D01*
X171124435Y-101231044D01*
X171156155Y-101239324D01*
X171184733Y-101275356D01*
X171222384Y-101360026D01*
X171256128Y-101491334D01*
X171268761Y-101567294D01*
X171291428Y-101685117D01*
X171317995Y-101745556D01*
X171334332Y-101746438D01*
X171374094Y-101670196D01*
X171416075Y-101533805D01*
X171455120Y-101361464D01*
X171486075Y-101177369D01*
X171503784Y-101005718D01*
X171506052Y-100940390D01*
X171522243Y-100616051D01*
X171563862Y-100286544D01*
X171625662Y-99989216D01*
X171653250Y-99892739D01*
X171777048Y-99637115D01*
X171972809Y-99416102D01*
X172231660Y-99239143D01*
X172299114Y-99205700D01*
X172439625Y-99136014D01*
X172556320Y-99070396D01*
X172612994Y-99031540D01*
X172655425Y-98985426D01*
X172656745Y-98934419D01*
X172615390Y-98847907D01*
X172602411Y-98824630D01*
X172560855Y-98702759D01*
X172532610Y-98525077D01*
X172518113Y-98316757D01*
X172518049Y-98272017D01*
X172646664Y-98272017D01*
X172655371Y-98471121D01*
X172678780Y-98644433D01*
X172714267Y-98759829D01*
X172784090Y-98855721D01*
X172859453Y-98893332D01*
X172859936Y-98893334D01*
X172939033Y-98915368D01*
X172976593Y-98964232D01*
X172953847Y-99014070D01*
X172949604Y-99016870D01*
X172939141Y-99067055D01*
X172976338Y-99156904D01*
X173048286Y-99266922D01*
X173142081Y-99377611D01*
X173244813Y-99469474D01*
X173253289Y-99475608D01*
X173387847Y-99571050D01*
X173461296Y-99475608D01*
X173541529Y-99332258D01*
X173612724Y-99135974D01*
X173666054Y-98918489D01*
X173692693Y-98711537D01*
X173693911Y-98639334D01*
X173699380Y-98460128D01*
X173725538Y-98350179D01*
X173770567Y-98315241D01*
X173793592Y-98323641D01*
X173821953Y-98379443D01*
X173833000Y-98472499D01*
X173840267Y-98553237D01*
X173878445Y-98588494D01*
X173972098Y-98596901D01*
X173997150Y-98597000D01*
X174121131Y-98581235D01*
X174206372Y-98541562D01*
X174213091Y-98534596D01*
X174284367Y-98502874D01*
X174408025Y-98491395D01*
X174554809Y-98497969D01*
X174695458Y-98520410D01*
X174800713Y-98556530D01*
X174832500Y-98580909D01*
X174922377Y-98634070D01*
X175032499Y-98620416D01*
X175124477Y-98554324D01*
X175186509Y-98497654D01*
X175235729Y-98503902D01*
X175275002Y-98535915D01*
X175340437Y-98576898D01*
X175379948Y-98551786D01*
X175437096Y-98527811D01*
X175553600Y-98518039D01*
X175705628Y-98520911D01*
X175869348Y-98534871D01*
X176020928Y-98558359D01*
X176136538Y-98589819D01*
X176165362Y-98603131D01*
X176302596Y-98695412D01*
X176416125Y-98798543D01*
X176486527Y-98893050D01*
X176500000Y-98938650D01*
X176535568Y-99006363D01*
X176584667Y-99032600D01*
X176654015Y-99083523D01*
X176670275Y-99132787D01*
X176696083Y-99220798D01*
X176754000Y-99316667D01*
X176812591Y-99404752D01*
X176837719Y-99468599D01*
X176837726Y-99468856D01*
X176875576Y-99546879D01*
X176963535Y-99613532D01*
X177067851Y-99645805D01*
X177096726Y-99645407D01*
X177163839Y-99648321D01*
X177196686Y-99691599D01*
X177211873Y-99797298D01*
X177211972Y-99798495D01*
X177209857Y-99915792D01*
X177187591Y-99998174D01*
X177180222Y-100008045D01*
X177138997Y-100072625D01*
X177135000Y-100092843D01*
X177152242Y-100103389D01*
X177197539Y-100052847D01*
X177261244Y-99955940D01*
X177333713Y-99827390D01*
X177405300Y-99681920D01*
X177407763Y-99676500D01*
X177473940Y-99530805D01*
X177530942Y-99405972D01*
X177562348Y-99337834D01*
X177593536Y-99258985D01*
X177641254Y-99124811D01*
X177696539Y-98960724D01*
X177711629Y-98914500D01*
X177769200Y-98691970D01*
X177812955Y-98433675D01*
X177841732Y-98160306D01*
X177854372Y-97892554D01*
X177849713Y-97651113D01*
X177826596Y-97456672D01*
X177798837Y-97359677D01*
X177739799Y-97262092D01*
X177654857Y-97171228D01*
X177559200Y-97095963D01*
X177468015Y-97045176D01*
X177396490Y-97027744D01*
X177359812Y-97052544D01*
X177364874Y-97106008D01*
X177367350Y-97125788D01*
X177355582Y-97141661D01*
X177321573Y-97153968D01*
X177257327Y-97163050D01*
X177154850Y-97169250D01*
X177006144Y-97172908D01*
X176803215Y-97174367D01*
X176538067Y-97173967D01*
X176202703Y-97172051D01*
X175875476Y-97169633D01*
X175503948Y-97165455D01*
X175140584Y-97158946D01*
X174798742Y-97150522D01*
X174491778Y-97140599D01*
X174233050Y-97129595D01*
X174035914Y-97117925D01*
X173938834Y-97109255D01*
X173749792Y-97087890D01*
X173585497Y-97069987D01*
X173468740Y-97057996D01*
X173430834Y-97054648D01*
X173362532Y-97080415D01*
X173256253Y-97152857D01*
X173130527Y-97255603D01*
X173003888Y-97372281D01*
X172894869Y-97486522D01*
X172822002Y-97581952D01*
X172811026Y-97602167D01*
X172758648Y-97704683D01*
X172709973Y-97792667D01*
X172673844Y-97905519D01*
X172652781Y-98074393D01*
X172646664Y-98272017D01*
X172518049Y-98272017D01*
X172517803Y-98102969D01*
X172532118Y-97908885D01*
X172561496Y-97759676D01*
X172582973Y-97708000D01*
X172643787Y-97596409D01*
X172683509Y-97516453D01*
X172730728Y-97450705D01*
X172824460Y-97345787D01*
X172948467Y-97219370D01*
X173018358Y-97152102D01*
X173156208Y-97019638D01*
X173243127Y-96924734D01*
X173473167Y-96924734D01*
X173684834Y-96959737D01*
X173775826Y-96968669D01*
X173940304Y-96978476D01*
X174167098Y-96988742D01*
X174445038Y-96999047D01*
X174762952Y-97008976D01*
X175109671Y-97018110D01*
X175441667Y-97025396D01*
X175799824Y-97032668D01*
X176134956Y-97039789D01*
X176436724Y-97046515D01*
X176694793Y-97052603D01*
X176898825Y-97057809D01*
X177038482Y-97061890D01*
X177102440Y-97064527D01*
X177171457Y-97065197D01*
X177202318Y-97039643D01*
X177205325Y-96966644D01*
X177195929Y-96871917D01*
X177171937Y-96655437D01*
X177151126Y-96500769D01*
X177126166Y-96385716D01*
X177089730Y-96288078D01*
X177034487Y-96185657D01*
X176953111Y-96056252D01*
X176898939Y-95972334D01*
X176818341Y-95840869D01*
X176729587Y-95687049D01*
X176700140Y-95633667D01*
X176631791Y-95526051D01*
X176547375Y-95440673D01*
X176424426Y-95358606D01*
X176283839Y-95282931D01*
X176142029Y-95210334D01*
X176513110Y-95210334D01*
X176675888Y-95381449D01*
X176766029Y-95485900D01*
X176825142Y-95572984D01*
X176838667Y-95610101D01*
X176863889Y-95624855D01*
X176933612Y-95577997D01*
X176959387Y-95554866D01*
X177084200Y-95454203D01*
X177219461Y-95366352D01*
X177223971Y-95363878D01*
X177352739Y-95265082D01*
X177489610Y-95114058D01*
X177612231Y-94937578D01*
X177670263Y-94829334D01*
X177798974Y-94543194D01*
X177885760Y-94320855D01*
X177932278Y-94153532D01*
X177940185Y-94032437D01*
X177911140Y-93948785D01*
X177846800Y-93893790D01*
X177846772Y-93893775D01*
X177777695Y-93869534D01*
X177719971Y-93895394D01*
X177656371Y-93966369D01*
X177572875Y-94096583D01*
X177510320Y-94236667D01*
X177347830Y-94605507D01*
X177117553Y-94930147D01*
X177055541Y-94997388D01*
X176937118Y-95113043D01*
X176848010Y-95177658D01*
X176763437Y-95205327D01*
X176681161Y-95210334D01*
X176513110Y-95210334D01*
X176142029Y-95210334D01*
X175970834Y-95122695D01*
X175331660Y-95134764D01*
X175057721Y-95143196D01*
X174844591Y-95156638D01*
X174700251Y-95174397D01*
X174633160Y-95195378D01*
X174556639Y-95237462D01*
X174437619Y-95283562D01*
X174396299Y-95296615D01*
X174261173Y-95350982D01*
X174132163Y-95426339D01*
X174026336Y-95509046D01*
X173960761Y-95585464D01*
X173952505Y-95641952D01*
X173957049Y-95647649D01*
X174000886Y-95717107D01*
X173971500Y-95751180D01*
X173906122Y-95745698D01*
X173832727Y-95744199D01*
X173780195Y-95797823D01*
X173751124Y-95857525D01*
X173698578Y-95977348D01*
X173631189Y-96128854D01*
X173596632Y-96205829D01*
X173533778Y-96391663D01*
X173493387Y-96601103D01*
X173487047Y-96671446D01*
X173473167Y-96924734D01*
X173243127Y-96924734D01*
X173244561Y-96923169D01*
X173296454Y-96841611D01*
X173324928Y-96753882D01*
X173343021Y-96638900D01*
X173344879Y-96624151D01*
X173373224Y-96474842D01*
X173421219Y-96295595D01*
X173480580Y-96111021D01*
X173543024Y-95945732D01*
X173600270Y-95824339D01*
X173627641Y-95783950D01*
X173661081Y-95717619D01*
X173628400Y-95655884D01*
X173522664Y-95589665D01*
X173455571Y-95558668D01*
X173329167Y-95499566D01*
X173247230Y-95442339D01*
X173189730Y-95363659D01*
X173136640Y-95240200D01*
X173103380Y-95148459D01*
X173045923Y-94886080D01*
X173044662Y-94840058D01*
X173169481Y-94840058D01*
X173235460Y-95122663D01*
X173291368Y-95260507D01*
X173354836Y-95346956D01*
X173453152Y-95412955D01*
X173521210Y-95446681D01*
X173649393Y-95507186D01*
X173723932Y-95536108D01*
X173768724Y-95535863D01*
X173807663Y-95508868D01*
X173840250Y-95478939D01*
X173901091Y-95373571D01*
X173917347Y-95256689D01*
X173909708Y-95114889D01*
X173890117Y-94947739D01*
X173862804Y-94779561D01*
X173831998Y-94634677D01*
X173801926Y-94537410D01*
X173788212Y-94513950D01*
X173756920Y-94443136D01*
X173748334Y-94370937D01*
X173728897Y-94292516D01*
X173679094Y-94168057D01*
X173611684Y-94024380D01*
X173539428Y-93888304D01*
X173475086Y-93786651D01*
X173463077Y-93771353D01*
X173430232Y-93785167D01*
X173377092Y-93873994D01*
X173306968Y-94031538D01*
X173251846Y-94173167D01*
X173170060Y-94505924D01*
X173169481Y-94840058D01*
X173044662Y-94840058D01*
X173037690Y-94585612D01*
X173075256Y-94275273D01*
X173155199Y-93983280D01*
X173274094Y-93737854D01*
X173274615Y-93737047D01*
X173360838Y-93652499D01*
X173457649Y-93650317D01*
X173565887Y-93730891D01*
G37*
X173565887Y-93730891D02*
X173686394Y-93894611D01*
X173713769Y-93940334D01*
X173792547Y-94089769D01*
X173849912Y-94225008D01*
X173874321Y-94318538D01*
X173874505Y-94323450D01*
X173891401Y-94423103D01*
X173919645Y-94475711D01*
X173944376Y-94535376D01*
X173973070Y-94657524D01*
X174001006Y-94820418D01*
X174012129Y-94901673D01*
X174060302Y-95283323D01*
X174253568Y-95202566D01*
X174386655Y-95143813D01*
X174498718Y-95089052D01*
X174531500Y-95070846D01*
X174612732Y-95048441D01*
X174772053Y-95029763D01*
X175002946Y-95015358D01*
X175298894Y-95005771D01*
X175311256Y-95005511D01*
X175571426Y-95000811D01*
X175762209Y-95000061D01*
X175898850Y-95004678D01*
X175996592Y-95016080D01*
X176070678Y-95035684D01*
X176136351Y-95064908D01*
X176174806Y-95085819D01*
X176291601Y-95142676D01*
X176369293Y-95153011D01*
X176421058Y-95131916D01*
X176521345Y-95095562D01*
X176623178Y-95083333D01*
X176756961Y-95045191D01*
X176904030Y-94939943D01*
X177052615Y-94781359D01*
X177190946Y-94583207D01*
X177307254Y-94359257D01*
X177360893Y-94220266D01*
X177444197Y-94023535D01*
X177544786Y-93866143D01*
X177651037Y-93762957D01*
X177745279Y-93728667D01*
X177846240Y-93754391D01*
X177954927Y-93816544D01*
X177958259Y-93819134D01*
X178023945Y-93879020D01*
X178055474Y-93943508D01*
X178061532Y-94041979D01*
X178055240Y-94147217D01*
X178026567Y-94322706D01*
X177972224Y-94518941D01*
X177928758Y-94634381D01*
X177840042Y-94817688D01*
X177734410Y-95004432D01*
X177623268Y-95177615D01*
X177518021Y-95320240D01*
X177430075Y-95415311D01*
X177385256Y-95444355D01*
X177318847Y-95482422D01*
X177304334Y-95509520D01*
X177270586Y-95545754D01*
X177248458Y-95549000D01*
X177184115Y-95575394D01*
X177090598Y-95641438D01*
X177057451Y-95669646D01*
X176974788Y-95747567D01*
X176948114Y-95798571D01*
X176969856Y-95851669D01*
X176999418Y-95891896D01*
X177150726Y-96118038D01*
X177243099Y-96329520D01*
X177289048Y-96557114D01*
X177294584Y-96617917D01*
X177308332Y-96770024D01*
X177326246Y-96856019D01*
X177355769Y-96894391D01*
X177404344Y-96903632D01*
X177409595Y-96903667D01*
X177526358Y-96934925D01*
X177665447Y-97016509D01*
X177799581Y-97130135D01*
X177871941Y-97213528D01*
X177911591Y-97278340D01*
X177938796Y-97358463D01*
X177956606Y-97472024D01*
X177968076Y-97637154D01*
X177974934Y-97825204D01*
X177972359Y-98226593D01*
X177936899Y-98573506D01*
X177865371Y-98890749D01*
X177820315Y-99031169D01*
X177780389Y-99164479D01*
X177775747Y-99250959D01*
X177802308Y-99316344D01*
X177836615Y-99413099D01*
X177854098Y-99544202D01*
X177854667Y-99570092D01*
X177859371Y-99678810D01*
X177886544Y-99727225D01*
X177955776Y-99739652D01*
X177991554Y-99740000D01*
X178102018Y-99721628D01*
X178251467Y-99673858D01*
X178383137Y-99618160D01*
X178627237Y-99511037D01*
X178887684Y-99412733D01*
X179132140Y-99334730D01*
X179294000Y-99294751D01*
X179547015Y-99215880D01*
X179799851Y-99087063D01*
X179864622Y-99044566D01*
X180071655Y-98908902D01*
X180244435Y-98818374D01*
X180410780Y-98760536D01*
X180575454Y-98726550D01*
X180699623Y-98701982D01*
X180786087Y-98676439D01*
X180805780Y-98665665D01*
X180801425Y-98617308D01*
X180764767Y-98513878D01*
X180703133Y-98375122D01*
X180681784Y-98331397D01*
X180562523Y-98089734D01*
X180476189Y-97903272D01*
X180417466Y-97751675D01*
X180381037Y-97614609D01*
X180361583Y-97471738D01*
X180353788Y-97302725D01*
X180353371Y-97240876D01*
X180479151Y-97240876D01*
X180481132Y-97360777D01*
X180489073Y-97466110D01*
X180506769Y-97568147D01*
X180538014Y-97678159D01*
X180586605Y-97807417D01*
X180656335Y-97967193D01*
X180751001Y-98168757D01*
X180874397Y-98423381D01*
X181030319Y-98742336D01*
X181042046Y-98766334D01*
X181209835Y-99119625D01*
X181336343Y-99407999D01*
X181420577Y-99629052D01*
X181461546Y-99780383D01*
X181461862Y-99782334D01*
X181491401Y-99971417D01*
X181522306Y-100174974D01*
X181533126Y-100248000D01*
X181564871Y-100399448D01*
X181618561Y-100592966D01*
X181683915Y-100792330D01*
X181700627Y-100838186D01*
X181760720Y-101009161D01*
X181806753Y-101159106D01*
X181831595Y-101263974D01*
X181834000Y-101287866D01*
X181846803Y-101370972D01*
X181880702Y-101507396D01*
X181928928Y-101670507D01*
X181939834Y-101704405D01*
X181990207Y-101870491D01*
X182027572Y-102016115D01*
X182045130Y-102114222D01*
X182045667Y-102125639D01*
X182063686Y-102212335D01*
X182110815Y-102344588D01*
X182173581Y-102486727D01*
X182250195Y-102632371D01*
X182308797Y-102710107D01*
X182359341Y-102731945D01*
X182374665Y-102729320D01*
X182463678Y-102707933D01*
X182588598Y-102682933D01*
X182612190Y-102678661D01*
X182711019Y-102655312D01*
X182733418Y-102631272D01*
X182710615Y-102612577D01*
X182648032Y-102545132D01*
X182598574Y-102438520D01*
X182572597Y-102326036D01*
X182580456Y-102240975D01*
X182590459Y-102226274D01*
X182633378Y-102218335D01*
X182683492Y-102283390D01*
X182704580Y-102325422D01*
X182780253Y-102486749D01*
X182834914Y-102586421D01*
X182887167Y-102637611D01*
X182955613Y-102653491D01*
X183058855Y-102647233D01*
X183146334Y-102638224D01*
X183317717Y-102618336D01*
X183478211Y-102594615D01*
X183569667Y-102577197D01*
X183685060Y-102553603D01*
X183850106Y-102523369D01*
X184030770Y-102492707D01*
X184045917Y-102490255D01*
X184374000Y-102437357D01*
X184373739Y-102072928D01*
X184365052Y-101843778D01*
X184340566Y-101673202D01*
X184313906Y-101594311D01*
X184258782Y-101463125D01*
X184190837Y-101259264D01*
X184113228Y-100993198D01*
X184029107Y-100675398D01*
X183991161Y-100523167D01*
X183943032Y-100341053D01*
X183875710Y-100105654D01*
X183797148Y-99843881D01*
X183715296Y-99582646D01*
X183691989Y-99510557D01*
X183618551Y-99281443D01*
X183553070Y-99070101D01*
X183500931Y-98894445D01*
X183467521Y-98772394D01*
X183459603Y-98737506D01*
X183431396Y-98634865D01*
X183398361Y-98574950D01*
X183395534Y-98572868D01*
X183360881Y-98514599D01*
X183358000Y-98489923D01*
X183341241Y-98421246D01*
X183297824Y-98304641D01*
X183251250Y-98196797D01*
X183187970Y-98046327D01*
X183138105Y-97906089D01*
X183118782Y-97834828D01*
X183089699Y-97737099D01*
X183056199Y-97683454D01*
X183022174Y-97625614D01*
X183019334Y-97600923D01*
X183004931Y-97535359D01*
X182960309Y-97416341D01*
X182883346Y-97239075D01*
X182771921Y-96998768D01*
X182623913Y-96690627D01*
X182544181Y-96527277D01*
X182287141Y-96002720D01*
X181901820Y-96031566D01*
X181577465Y-96056353D01*
X181325413Y-96078760D01*
X181133537Y-96102730D01*
X180989711Y-96132209D01*
X180881807Y-96171141D01*
X180797700Y-96223469D01*
X180725262Y-96293139D01*
X180652366Y-96384093D01*
X180600136Y-96454935D01*
X180547436Y-96531357D01*
X180512814Y-96601792D01*
X180492483Y-96686306D01*
X180482658Y-96804968D01*
X180479551Y-96977845D01*
X180479334Y-97095137D01*
X180479151Y-97240876D01*
X180353371Y-97240876D01*
X180352335Y-97087237D01*
X180352334Y-97071420D01*
X180352334Y-96530270D01*
X180514634Y-96325385D01*
X180612958Y-96206044D01*
X180700084Y-96108434D01*
X180745654Y-96063905D01*
X180816653Y-96035681D01*
X180954478Y-96004737D01*
X181141436Y-95973370D01*
X181359834Y-95943877D01*
X181591980Y-95918555D01*
X181820181Y-95899701D01*
X182026744Y-95889612D01*
X182096314Y-95888553D01*
X182379795Y-95887667D01*
X182653832Y-96448584D01*
X182818755Y-96788761D01*
X182947101Y-97059625D01*
X183041428Y-97266941D01*
X183104293Y-97416474D01*
X183138255Y-97513990D01*
X183146334Y-97558590D01*
X183169047Y-97627771D01*
X183183199Y-97641121D01*
X183216881Y-97695206D01*
X183245782Y-97792495D01*
X183277877Y-97902636D01*
X183333275Y-98050029D01*
X183378250Y-98154463D01*
X183435494Y-98288990D01*
X183474238Y-98397993D01*
X183485000Y-98447590D01*
X183508151Y-98517058D01*
X183522534Y-98530534D01*
X183555270Y-98584498D01*
X183584555Y-98684728D01*
X183586603Y-98695173D01*
X183608834Y-98784309D01*
X183652440Y-98935855D01*
X183712036Y-99131895D01*
X183782236Y-99354513D01*
X183818989Y-99468223D01*
X183900308Y-99724244D01*
X183980656Y-99988638D01*
X184052083Y-100234493D01*
X184106634Y-100434897D01*
X184118203Y-100480834D01*
X184198487Y-100800796D01*
X184266194Y-101052071D01*
X184325566Y-101248950D01*
X184380851Y-101405724D01*
X184423403Y-101508323D01*
X184462352Y-101613986D01*
X184485116Y-101731424D01*
X184494314Y-101884028D01*
X184492562Y-102095190D01*
X184491888Y-102120346D01*
X184479834Y-102551545D01*
X184310500Y-102586896D01*
X184035654Y-102638743D01*
X183715289Y-102688398D01*
X183333932Y-102738146D01*
X183104000Y-102765081D01*
X182887636Y-102790694D01*
X182689805Y-102816032D01*
X182532397Y-102838169D01*
X182437355Y-102854169D01*
X182294763Y-102857297D01*
X182231527Y-102826482D01*
X182168371Y-102747799D01*
X182092417Y-102617334D01*
X182017051Y-102463268D01*
X181955662Y-102313779D01*
X181921639Y-102197047D01*
X181918667Y-102167973D01*
X181905826Y-102082456D01*
X181871836Y-101944075D01*
X181823494Y-101779887D01*
X181812834Y-101746738D01*
X181762484Y-101580935D01*
X181725126Y-101435884D01*
X181707546Y-101338493D01*
X181707000Y-101327137D01*
X181690173Y-101230661D01*
X181641942Y-101067254D01*
X181565684Y-100847176D01*
X181464776Y-100580689D01*
X181444104Y-100528202D01*
X181395799Y-100406237D01*
X181075150Y-100437419D01*
X180893576Y-100453871D01*
X180662554Y-100473088D01*
X180417115Y-100492219D01*
X180267667Y-100503170D01*
X179932874Y-100529500D01*
X179671760Y-100556661D01*
X179473347Y-100586854D01*
X179326660Y-100622284D01*
X179220720Y-100665152D01*
X179144552Y-100717662D01*
X179129957Y-100731468D01*
X179092127Y-100772313D01*
X179061751Y-100817637D01*
X179036944Y-100878181D01*
X179015821Y-100964688D01*
X178996497Y-101087898D01*
X178977085Y-101258552D01*
X178955702Y-101487393D01*
X178930461Y-101785161D01*
X178917602Y-101941334D01*
X178888541Y-102263919D01*
X178858496Y-102515332D01*
X178823929Y-102709029D01*
X178781302Y-102858466D01*
X178727077Y-102977098D01*
X178657715Y-103078382D01*
X178601782Y-103142415D01*
X178467845Y-103262062D01*
X178296342Y-103384350D01*
X178151000Y-103468579D01*
X177994647Y-103551068D01*
X177852567Y-103632444D01*
X177758353Y-103693153D01*
X177678479Y-103777419D01*
X177589870Y-103908221D01*
X177508531Y-104056691D01*
X177450468Y-104193960D01*
X177431334Y-104283028D01*
X177390667Y-104368669D01*
X177275075Y-104446138D01*
X177094171Y-104511940D01*
X176857566Y-104562582D01*
X176574873Y-104594570D01*
X176574084Y-104594626D01*
X176203667Y-104620866D01*
X176203667Y-104777106D01*
X176217534Y-104894648D01*
X176255348Y-105070384D01*
X176311429Y-105283194D01*
X176380099Y-105511959D01*
X176455677Y-105735558D01*
X176477042Y-105793667D01*
X176532640Y-105941834D01*
X176848424Y-105954079D01*
X177040367Y-105954941D01*
X177164848Y-105931086D01*
X177238223Y-105869740D01*
X177276852Y-105758130D01*
X177295351Y-105605081D01*
X177300129Y-105486429D01*
X177287491Y-105382577D01*
X177250465Y-105267883D01*
X177182079Y-105116704D01*
X177138682Y-105028869D01*
X177053090Y-104845034D01*
X177005746Y-104713761D01*
X176999711Y-104643868D01*
X177003209Y-104638525D01*
X177047883Y-104645506D01*
X177115721Y-104719793D01*
X177198979Y-104849868D01*
X177289914Y-105024211D01*
X177346804Y-105149604D01*
X177404663Y-105312806D01*
X177427303Y-105471149D01*
X177423864Y-105642534D01*
X177404108Y-105831554D01*
X177363696Y-105958794D01*
X177288148Y-106036189D01*
X177162983Y-106075676D01*
X176973720Y-106089191D01*
X176881000Y-106090000D01*
X176691159Y-106086632D01*
X176567160Y-106074409D01*
X176490370Y-106050153D01*
X176446676Y-106015917D01*
X176401265Y-105939578D01*
X176344972Y-105809264D01*
X176289655Y-105652556D01*
X176287434Y-105645500D01*
X176231140Y-105466736D01*
X176175480Y-105291611D01*
X176135652Y-105167771D01*
X176096997Y-105002721D01*
X176077305Y-104828323D01*
X176076667Y-104798844D01*
X176071084Y-104693544D01*
X176045092Y-104619774D01*
X175984822Y-104568908D01*
X175876408Y-104532322D01*
X175705982Y-104501390D01*
X175566891Y-104481781D01*
X175277461Y-104438347D01*
X175049850Y-104392568D01*
X174861289Y-104338427D01*
X174689009Y-104269906D01*
X174595000Y-104224942D01*
X174416342Y-104135367D01*
X174296509Y-104085011D01*
X174223767Y-104082350D01*
X174186383Y-104135859D01*
X174172624Y-104254014D01*
X174170754Y-104445290D01*
X174170737Y-104531397D01*
X174166771Y-104769146D01*
X174154338Y-104942338D01*
X174131023Y-105070870D01*
X174094412Y-105174634D01*
X174092049Y-105179834D01*
X173989463Y-105358435D01*
X173877580Y-105459285D01*
X173747443Y-105489301D01*
X173697305Y-105484576D01*
X173585144Y-105467187D01*
X173423589Y-105442939D01*
X173247057Y-105416996D01*
X173242184Y-105416288D01*
X173068827Y-105386627D01*
X172950425Y-105350445D01*
X172857479Y-105295190D01*
X172765934Y-105213640D01*
X172648871Y-105076140D01*
X172610697Y-104969244D01*
X172651397Y-104892859D01*
X172702323Y-104865696D01*
X172804832Y-104806808D01*
X172857850Y-104758288D01*
X172923740Y-104697585D01*
X173034479Y-104612585D01*
X173136934Y-104541365D01*
X173366280Y-104373114D01*
X173532121Y-104210865D01*
X173652168Y-104036698D01*
X173671353Y-104000602D01*
X173740295Y-103901420D01*
X173796985Y-103876813D01*
X173826921Y-103923169D01*
X173815686Y-104036556D01*
X173767534Y-104129118D01*
X173670143Y-104254034D01*
X173541416Y-104392084D01*
X173399259Y-104524046D01*
X173263346Y-104629500D01*
X173152123Y-104714187D01*
X173028117Y-104821134D01*
X172995414Y-104851750D01*
X172895787Y-104934279D01*
X172810165Y-104983382D01*
X172784279Y-104989334D01*
X172755148Y-105004926D01*
X172785520Y-105058064D01*
X172836594Y-105114691D01*
X172968539Y-105214432D01*
X173137085Y-105261694D01*
X173151430Y-105263530D01*
X173321298Y-105288928D01*
X173503550Y-105323135D01*
X173548421Y-105332885D01*
X173697056Y-105354889D01*
X173801276Y-105332006D01*
X173882554Y-105252005D01*
X173962359Y-105102657D01*
X173965779Y-105095167D01*
X174002389Y-104993206D01*
X174026041Y-104867182D01*
X174039028Y-104697679D01*
X174043642Y-104465282D01*
X174043737Y-104434740D01*
X174044667Y-103943646D01*
X173547250Y-103690003D01*
X173333832Y-103585499D01*
X173120888Y-103488680D01*
X172933156Y-103410361D01*
X172795834Y-103361494D01*
X172634243Y-103313806D01*
X172483938Y-103269354D01*
X172404931Y-103245922D01*
X172299029Y-103189928D01*
X172181461Y-103092308D01*
X172073424Y-102975649D01*
X171996117Y-102862535D01*
X171970334Y-102782879D01*
X171949004Y-102705036D01*
X171928000Y-102682167D01*
X171894397Y-102623404D01*
X171885667Y-102559464D01*
X171846795Y-102465324D01*
X171739024Y-102398662D01*
X171575617Y-102366524D01*
X171518906Y-102364667D01*
X171419875Y-102369652D01*
X171385054Y-102397619D01*
X171394058Y-102468084D01*
X171397308Y-102481084D01*
X171435547Y-102663070D01*
X171449993Y-102802003D01*
X171442928Y-102889699D01*
X171416639Y-102917975D01*
X171373408Y-102878646D01*
X171317282Y-102767760D01*
X171242029Y-102646168D01*
X171142566Y-102550258D01*
X171135250Y-102545510D01*
X170959154Y-102424593D01*
X170819066Y-102306353D01*
X170728454Y-102203496D01*
X170700335Y-102135167D01*
X170710478Y-102100084D01*
X170959244Y-102100084D01*
X170968556Y-102200961D01*
X171011201Y-102236893D01*
X171023017Y-102237667D01*
X171067181Y-102222288D01*
X171064338Y-102216500D01*
X171377667Y-102216500D01*
X171398834Y-102237667D01*
X171420000Y-102216500D01*
X171398834Y-102195334D01*
X171377667Y-102216500D01*
X171064338Y-102216500D01*
X171048739Y-102184750D01*
X171039138Y-102167111D01*
X171688111Y-102167111D01*
X171693922Y-102192278D01*
X171716334Y-102195334D01*
X171751179Y-102179844D01*
X171744556Y-102167111D01*
X171694316Y-102162045D01*
X171688111Y-102167111D01*
X171039138Y-102167111D01*
X171002245Y-102099333D01*
X170984966Y-102047167D01*
X170983248Y-102043663D01*
X171435869Y-102043663D01*
X171437754Y-102057865D01*
X171500634Y-102069777D01*
X171587448Y-102039277D01*
X171661810Y-101983370D01*
X171686145Y-101941797D01*
X171735033Y-101872670D01*
X171782094Y-101856667D01*
X171881765Y-101823551D01*
X172002290Y-101738006D01*
X172121859Y-101620736D01*
X172218664Y-101492444D01*
X172263948Y-101399238D01*
X172296431Y-101252937D01*
X172274883Y-101167486D01*
X172197653Y-101137212D01*
X172187593Y-101137000D01*
X172091522Y-101115409D01*
X172015851Y-101064116D01*
X171983240Y-101003337D01*
X171997092Y-100967041D01*
X172072222Y-100941315D01*
X172124092Y-100959636D01*
X172223813Y-101006576D01*
X172319584Y-101046871D01*
X172402460Y-101096955D01*
X172433395Y-101178633D01*
X172436000Y-101236756D01*
X172397271Y-101462921D01*
X172279282Y-101672782D01*
X172103616Y-101851407D01*
X171975155Y-101970983D01*
X171905019Y-102071802D01*
X171878154Y-102169695D01*
X171881567Y-102288765D01*
X171932379Y-102357473D01*
X171937031Y-102360482D01*
X171996443Y-102437019D01*
X172012667Y-102510694D01*
X172028328Y-102600188D01*
X172055000Y-102639834D01*
X172092841Y-102700601D01*
X172097334Y-102733586D01*
X172130686Y-102835223D01*
X172214852Y-102950496D01*
X172325995Y-103053097D01*
X172440277Y-103116716D01*
X172446116Y-103118543D01*
X172563575Y-103153320D01*
X172721561Y-103199877D01*
X172838167Y-103234135D01*
X172971193Y-103280432D01*
X173146902Y-103354620D01*
X173371938Y-103459869D01*
X173652944Y-103599355D01*
X173996563Y-103776251D01*
X174235167Y-103901461D01*
X174513417Y-104042788D01*
X174744120Y-104145795D01*
X174950121Y-104219211D01*
X175154263Y-104271764D01*
X175257157Y-104291936D01*
X175533709Y-104341441D01*
X175738812Y-104376882D01*
X175884271Y-104399591D01*
X175981892Y-104410902D01*
X176043481Y-104412149D01*
X176080842Y-104404666D01*
X176105782Y-104389787D01*
X176107916Y-104388052D01*
X176159626Y-104374304D01*
X176188737Y-104418821D01*
X176213277Y-104456045D01*
X176263212Y-104475060D01*
X176357345Y-104478449D01*
X176514474Y-104468797D01*
X176538488Y-104466882D01*
X176730693Y-104443167D01*
X176921573Y-104406322D01*
X177064969Y-104365877D01*
X177198924Y-104306411D01*
X177277009Y-104237336D01*
X177324030Y-104142667D01*
X177402896Y-103938047D01*
X177478333Y-103784831D01*
X177566390Y-103665670D01*
X177683115Y-103563218D01*
X177844557Y-103460126D01*
X178066765Y-103339045D01*
X178068116Y-103338334D01*
X178235099Y-103236959D01*
X178395096Y-103117597D01*
X178505865Y-103013904D01*
X178578225Y-102922337D01*
X178634929Y-102821851D01*
X178679377Y-102698793D01*
X178714969Y-102539512D01*
X178745105Y-102330354D01*
X178773186Y-102057667D01*
X178788805Y-101877834D01*
X178816950Y-101543135D01*
X178840207Y-101282069D01*
X178860603Y-101083886D01*
X178880160Y-100937833D01*
X178900903Y-100833161D01*
X178924856Y-100759118D01*
X178954044Y-100704953D01*
X178990489Y-100659914D01*
X179024731Y-100624731D01*
X179091165Y-100567874D01*
X179171680Y-100522240D01*
X179277979Y-100485351D01*
X179421764Y-100454728D01*
X179614738Y-100427894D01*
X179868602Y-100402371D01*
X180195060Y-100375681D01*
X180204167Y-100374984D01*
X180550162Y-100347895D01*
X180820549Y-100325012D01*
X181024220Y-100305206D01*
X181170065Y-100287347D01*
X181266974Y-100270307D01*
X181323838Y-100252956D01*
X181349549Y-100234166D01*
X181352120Y-100229191D01*
X181352614Y-100157390D01*
X181330606Y-100026378D01*
X181291483Y-99856885D01*
X181240630Y-99669643D01*
X181183434Y-99485382D01*
X181125280Y-99324833D01*
X181104041Y-99274334D01*
X181038925Y-99126261D01*
X180981020Y-98992295D01*
X180953658Y-98927425D01*
X180913048Y-98853616D01*
X180854366Y-98827893D01*
X180745891Y-98836044D01*
X180477750Y-98892720D01*
X180241557Y-98989810D01*
X180064215Y-99095422D01*
X179916340Y-99183924D01*
X179744953Y-99273191D01*
X179572883Y-99352803D01*
X179422959Y-99412344D01*
X179318012Y-99441397D01*
X179303248Y-99442662D01*
X179212928Y-99459712D01*
X179067791Y-99503440D01*
X178890233Y-99565796D01*
X178702654Y-99638730D01*
X178527452Y-99714190D01*
X178463000Y-99744674D01*
X178292508Y-99819352D01*
X178152497Y-99854800D01*
X178003960Y-99860164D01*
X177976167Y-99858805D01*
X177748834Y-99845834D01*
X177735931Y-99644750D01*
X177718212Y-99511021D01*
X177689997Y-99450971D01*
X177656099Y-99468314D01*
X177623493Y-99557959D01*
X177587067Y-99654425D01*
X177521102Y-99790643D01*
X177452350Y-99915317D01*
X177309893Y-100158384D01*
X177444697Y-100171442D01*
X177543180Y-100195246D01*
X177578306Y-100249697D01*
X177579500Y-100269167D01*
X177556464Y-100330840D01*
X177476623Y-100381791D01*
X177378639Y-100417334D01*
X177263316Y-100458789D01*
X177190564Y-100494547D01*
X177177556Y-100508309D01*
X177215085Y-100550172D01*
X177318486Y-100611768D01*
X177473255Y-100686218D01*
X177664888Y-100766638D01*
X177878884Y-100846148D01*
X177917679Y-100859499D01*
X178123782Y-100935929D01*
X178252369Y-100999425D01*
X178309095Y-101052902D01*
X178312366Y-101062917D01*
X178296369Y-101124282D01*
X178243230Y-101137000D01*
X178161690Y-101149129D01*
X178028894Y-101180885D01*
X177877832Y-101224128D01*
X177644049Y-101320770D01*
X177456086Y-101447340D01*
X177325781Y-101593001D01*
X177264969Y-101746912D01*
X177262000Y-101787983D01*
X177279788Y-101901742D01*
X177322862Y-101981355D01*
X177325500Y-101983667D01*
X177383798Y-102067128D01*
X177359578Y-102156573D01*
X177308526Y-102212706D01*
X177245072Y-102304513D01*
X177201539Y-102427181D01*
X177200279Y-102433573D01*
X177159064Y-102540010D01*
X177099632Y-102569484D01*
X177036534Y-102523101D01*
X176988662Y-102417495D01*
X176954843Y-102324953D01*
X176925761Y-102280652D01*
X176923132Y-102280000D01*
X176894003Y-102315612D01*
X176845497Y-102406531D01*
X176788214Y-102528882D01*
X176732752Y-102658791D01*
X176689713Y-102772381D01*
X176669696Y-102845779D01*
X176669334Y-102851654D01*
X176649237Y-102912927D01*
X176637584Y-102922056D01*
X176600584Y-102965327D01*
X176544446Y-103057910D01*
X176519102Y-103105500D01*
X176435679Y-103229163D01*
X176354008Y-103274711D01*
X176349768Y-103274834D01*
X176314396Y-103269628D01*
X176291391Y-103244470D01*
X176278637Y-103185050D01*
X176274020Y-103077057D01*
X176275426Y-102906180D01*
X176277828Y-102788000D01*
X176281377Y-102580977D01*
X176280255Y-102447411D01*
X176273069Y-102376156D01*
X176258428Y-102356065D01*
X176234938Y-102375992D01*
X176227582Y-102385834D01*
X176082269Y-102580722D01*
X175971578Y-102708337D01*
X175886418Y-102773912D01*
X175817696Y-102782684D01*
X175756322Y-102739886D01*
X175712941Y-102682167D01*
X175614236Y-102595035D01*
X175492838Y-102584430D01*
X175367042Y-102650417D01*
X175263102Y-102737983D01*
X175187877Y-102801042D01*
X175079028Y-102864401D01*
X175000299Y-102848874D01*
X174953367Y-102755320D01*
X174941999Y-102674971D01*
X174899267Y-102486343D01*
X174800922Y-102360178D01*
X174643355Y-102293279D01*
X174496456Y-102280000D01*
X174237282Y-102315297D01*
X173974214Y-102411760D01*
X173742053Y-102555252D01*
X173674635Y-102613876D01*
X173583289Y-102693681D01*
X173513695Y-102740516D01*
X173497217Y-102745667D01*
X173437725Y-102716013D01*
X173431979Y-102646226D01*
X173470930Y-102578806D01*
X173526509Y-102478540D01*
X173549160Y-102380390D01*
X173545307Y-102296334D01*
X173501112Y-102258791D01*
X173416500Y-102245288D01*
X173285185Y-102256746D01*
X173221838Y-102304672D01*
X173156588Y-102347725D01*
X173094349Y-102332161D01*
X173071000Y-102275788D01*
X173094135Y-102215808D01*
X173150327Y-102126420D01*
X173155335Y-102119536D01*
X173220073Y-101995921D01*
X173261110Y-101848502D01*
X173274924Y-101704706D01*
X173257993Y-101591955D01*
X173228693Y-101548197D01*
X173190704Y-101499599D01*
X173181789Y-101420266D01*
X173199036Y-101285167D01*
X173220939Y-101113075D01*
X173235197Y-100917738D01*
X173237810Y-100831412D01*
X173232036Y-100686643D01*
X173208129Y-100618701D01*
X173161938Y-100627776D01*
X173089310Y-100714056D01*
X173007500Y-100841915D01*
X172920695Y-100961839D01*
X172842980Y-101028419D01*
X172785913Y-101036785D01*
X172761055Y-100982070D01*
X172762302Y-100945179D01*
X172803072Y-100729570D01*
X172861291Y-100534237D01*
X173009281Y-100534237D01*
X173011583Y-100567363D01*
X173046764Y-100544790D01*
X173069643Y-100524395D01*
X173169554Y-100473559D01*
X173247426Y-100466848D01*
X173291109Y-100476591D01*
X173319537Y-100501265D01*
X173335984Y-100556304D01*
X173343723Y-100657142D01*
X173346029Y-100819214D01*
X173346167Y-100932380D01*
X173348982Y-101120560D01*
X173356595Y-101276663D01*
X173367757Y-101381674D01*
X173377917Y-101415685D01*
X173399739Y-101481217D01*
X173408436Y-101601633D01*
X173404399Y-101748235D01*
X173388022Y-101892329D01*
X173370289Y-101973363D01*
X173349060Y-102066179D01*
X173367199Y-102103681D01*
X173436572Y-102110667D01*
X173583542Y-102136905D01*
X173678148Y-102208557D01*
X173706000Y-102297771D01*
X173706000Y-102397229D01*
X173941365Y-102275115D01*
X174096274Y-102204095D01*
X174237857Y-102166794D01*
X174407938Y-102153659D01*
X174476116Y-102153000D01*
X174635402Y-102155446D01*
X174737883Y-102169132D01*
X174811406Y-102203584D01*
X174883816Y-102268327D01*
X174918085Y-102304181D01*
X175007056Y-102419824D01*
X175056258Y-102526986D01*
X175060667Y-102558181D01*
X175073155Y-102638840D01*
X175116247Y-102652309D01*
X175198390Y-102598452D01*
X175247166Y-102555167D01*
X175394203Y-102468614D01*
X175557962Y-102449872D01*
X175711622Y-102499608D01*
X175767884Y-102542189D01*
X175866724Y-102635045D01*
X175939404Y-102531606D01*
X176005879Y-102435301D01*
X176093359Y-102306483D01*
X176139626Y-102237667D01*
X176231264Y-102111269D01*
X176298496Y-102048265D01*
X176344604Y-102052739D01*
X176372869Y-102128770D01*
X176386574Y-102280443D01*
X176388999Y-102511837D01*
X176388663Y-102547432D01*
X176386821Y-102758271D01*
X176388079Y-102895177D01*
X176394308Y-102968872D01*
X176407384Y-102990081D01*
X176429179Y-102969526D01*
X176455234Y-102928432D01*
X176505903Y-102830561D01*
X176572562Y-102683266D01*
X176641732Y-102516493D01*
X176649233Y-102497434D01*
X176743070Y-102294480D01*
X176835661Y-102164657D01*
X176923434Y-102111105D01*
X177002816Y-102136963D01*
X177027600Y-102164865D01*
X177072691Y-102213211D01*
X177114800Y-102196754D01*
X177147821Y-102162223D01*
X177191001Y-102075956D01*
X177175840Y-102025033D01*
X177135741Y-101895991D01*
X177138922Y-101731611D01*
X177181393Y-101566794D01*
X177240658Y-101458493D01*
X177331082Y-101372746D01*
X177470676Y-101275201D01*
X177633587Y-101180335D01*
X177793964Y-101102625D01*
X177925954Y-101056548D01*
X177970193Y-101049956D01*
X177973189Y-101037435D01*
X177909055Y-101006888D01*
X177791665Y-100964918D01*
X177791167Y-100964755D01*
X177498192Y-100851877D01*
X177266743Y-100726069D01*
X177104783Y-100592479D01*
X177024882Y-100469493D01*
X176989145Y-100478912D01*
X176907762Y-100517040D01*
X176897882Y-100522149D01*
X176796337Y-100550973D01*
X176630855Y-100571735D01*
X176421815Y-100584102D01*
X176189592Y-100587737D01*
X175954565Y-100582306D01*
X175737111Y-100567473D01*
X175563862Y-100544089D01*
X175229636Y-100467606D01*
X174849725Y-100357267D01*
X174451278Y-100222380D01*
X174061446Y-100072253D01*
X173707381Y-99916194D01*
X173646981Y-99886930D01*
X173439794Y-99784840D01*
X173319573Y-99921170D01*
X173245158Y-100013779D01*
X173202538Y-100082726D01*
X173198676Y-100096500D01*
X173172687Y-100157140D01*
X173138708Y-100202333D01*
X173088936Y-100286319D01*
X173042194Y-100407757D01*
X173035008Y-100432547D01*
X173009281Y-100534237D01*
X172861291Y-100534237D01*
X172877610Y-100479488D01*
X172973424Y-100229820D01*
X173078020Y-100015454D01*
X173119732Y-99947084D01*
X173288863Y-99692453D01*
X173272657Y-99676500D01*
X173506017Y-99676500D01*
X173701258Y-99769010D01*
X174043080Y-99920056D01*
X174417624Y-100066912D01*
X174799958Y-100200979D01*
X175165150Y-100313658D01*
X175488269Y-100396349D01*
X175568667Y-100413125D01*
X175713654Y-100432531D01*
X175904447Y-100445788D01*
X176119084Y-100452804D01*
X176335601Y-100453486D01*
X176532036Y-100447743D01*
X176686424Y-100435483D01*
X176772931Y-100418183D01*
X176868920Y-100348554D01*
X176927427Y-100259433D01*
X176982070Y-100130229D01*
X177032740Y-100022319D01*
X177082950Y-99899406D01*
X177076563Y-99823949D01*
X177008062Y-99775883D01*
X176960428Y-99759338D01*
X176853519Y-99700197D01*
X176755832Y-99583011D01*
X176710782Y-99507605D01*
X176610712Y-99359676D01*
X176516031Y-99280863D01*
X176493771Y-99273085D01*
X176427523Y-99242328D01*
X176394106Y-99173855D01*
X176381149Y-99071563D01*
X176358925Y-98943663D01*
X176315760Y-98894228D01*
X176307066Y-98893334D01*
X176252286Y-98871386D01*
X176246000Y-98854101D01*
X176207349Y-98794142D01*
X176106120Y-98738854D01*
X175964403Y-98693120D01*
X175804288Y-98661820D01*
X175647863Y-98649837D01*
X175517218Y-98662053D01*
X175463692Y-98681207D01*
X175354859Y-98714459D01*
X175275157Y-98712473D01*
X175195251Y-98709708D01*
X175164044Y-98727974D01*
X175103905Y-98757635D01*
X174997928Y-98765742D01*
X174881634Y-98754179D01*
X174790542Y-98724830D01*
X174767755Y-98706956D01*
X174697308Y-98667138D01*
X174579533Y-98638263D01*
X174531706Y-98632724D01*
X174418256Y-98630557D01*
X174379032Y-98646948D01*
X174385302Y-98658235D01*
X174423147Y-98713779D01*
X174395941Y-98744897D01*
X174297780Y-98753528D01*
X174129334Y-98742260D01*
X173833000Y-98713060D01*
X173833000Y-98843942D01*
X173814583Y-98972690D01*
X173766692Y-99144215D01*
X173700367Y-99326949D01*
X173626648Y-99489325D01*
X173578852Y-99570667D01*
X173506017Y-99676500D01*
X173272657Y-99676500D01*
X173077165Y-99484068D01*
X172966350Y-99366874D01*
X172880410Y-99261027D01*
X172838381Y-99190342D01*
X172800402Y-99125887D01*
X172756080Y-99103353D01*
X172732511Y-99135352D01*
X172732334Y-99140983D01*
X172696340Y-99174301D01*
X172601884Y-99227354D01*
X172469249Y-99288776D01*
X172466423Y-99289979D01*
X172195555Y-99431701D01*
X171993539Y-99602505D01*
X171845941Y-99816235D01*
X171789864Y-99938942D01*
X171743766Y-100093589D01*
X171701242Y-100307029D01*
X171665951Y-100553387D01*
X171641556Y-100806789D01*
X171631716Y-101041362D01*
X171631667Y-101057071D01*
X171619170Y-101212173D01*
X171585990Y-101410715D01*
X171538591Y-101615939D01*
X171524392Y-101667045D01*
X171479337Y-101831936D01*
X171448405Y-101963901D01*
X171435869Y-102043663D01*
X170983248Y-102043663D01*
X170969888Y-102016417D01*
X170960731Y-102069347D01*
X170959244Y-102100084D01*
X170710478Y-102100084D01*
X170727745Y-102040361D01*
X170770105Y-101976737D01*
X170817311Y-101890679D01*
X170834690Y-101835500D01*
X171166000Y-101835500D01*
X171187167Y-101856667D01*
X171208334Y-101835500D01*
X171187167Y-101814334D01*
X171166000Y-101835500D01*
X170834690Y-101835500D01*
X170858963Y-101758437D01*
X170874198Y-101682528D01*
X170888505Y-101544585D01*
X170877026Y-101425350D01*
X170834008Y-101286901D01*
X170801895Y-101205958D01*
X170739852Y-101022182D01*
X170675079Y-100771794D01*
X170611418Y-100472594D01*
X170552712Y-100142380D01*
X170510017Y-99853892D01*
X170489863Y-99732174D01*
X170462373Y-99674359D01*
X170412470Y-99660038D01*
X170369278Y-99663392D01*
X170294166Y-99685392D01*
X170246065Y-99744898D01*
X170206424Y-99865031D01*
X170205907Y-99867000D01*
X170134559Y-100128511D01*
X170067497Y-100354229D01*
X170008793Y-100531630D01*
X169962519Y-100648193D01*
X169939127Y-100687473D01*
X169885347Y-100707579D01*
X169832513Y-100654217D01*
X169777294Y-100522952D01*
X169750445Y-100436118D01*
X169708667Y-100294981D01*
X169651997Y-100108357D01*
X169591151Y-99911457D01*
X169577247Y-99867000D01*
X169506051Y-99626146D01*
X169439210Y-99374992D01*
X169381178Y-99132904D01*
X169337000Y-98922073D01*
X169479339Y-98922073D01*
X169496708Y-99039602D01*
X169531861Y-99204215D01*
X169580277Y-99399928D01*
X169637435Y-99610757D01*
X169698814Y-99820717D01*
X169759892Y-100013824D01*
X169816147Y-100174093D01*
X169863059Y-100285539D01*
X169896106Y-100332179D01*
X169898680Y-100332667D01*
X169926631Y-100295911D01*
X169962861Y-100203206D01*
X169978078Y-100152750D01*
X170021718Y-99991653D01*
X170064194Y-99828619D01*
X170070110Y-99805167D01*
X170119786Y-99651945D01*
X170183258Y-99566466D01*
X170276985Y-99531846D01*
X170339999Y-99528334D01*
X170477298Y-99528334D01*
X170442493Y-99348417D01*
X170420706Y-99232188D01*
X170407452Y-99154609D01*
X170405844Y-99141992D01*
X170366595Y-99123973D01*
X170267768Y-99106126D01*
X170181750Y-99096860D01*
X170102546Y-99081996D01*
X170543383Y-99081996D01*
X170554558Y-99189692D01*
X170573696Y-99301940D01*
X170604848Y-99484210D01*
X170630301Y-99673534D01*
X170639014Y-99761167D01*
X170652692Y-99891100D01*
X170674927Y-100057448D01*
X170702707Y-100242284D01*
X170733017Y-100427683D01*
X170762843Y-100595719D01*
X170789171Y-100728465D01*
X170808986Y-100807996D01*
X170817445Y-100822333D01*
X170819755Y-100776375D01*
X170813609Y-100664598D01*
X170800253Y-100505293D01*
X170786565Y-100368548D01*
X170739315Y-99945798D01*
X170696212Y-99605472D01*
X170656878Y-99345449D01*
X170620934Y-99163607D01*
X170588002Y-99057826D01*
X170557703Y-99025982D01*
X170548071Y-99031485D01*
X170543383Y-99081996D01*
X170102546Y-99081996D01*
X170007116Y-99064087D01*
X169816799Y-99001555D01*
X169731391Y-98963422D01*
X169608082Y-98905692D01*
X169517922Y-98871578D01*
X169484276Y-98867614D01*
X169479339Y-98922073D01*
X169337000Y-98922073D01*
X169336407Y-98919247D01*
X169309350Y-98753383D01*
X169303334Y-98675726D01*
X169319998Y-98567436D01*
X169366947Y-98537638D01*
X169439614Y-98588002D01*
X169464125Y-98616923D01*
X169576086Y-98717324D01*
X169741602Y-98817435D01*
X169930801Y-98902526D01*
X170113811Y-98957865D01*
X170176264Y-98968114D01*
X170356601Y-98988440D01*
X170364006Y-98872167D01*
X170488667Y-98872167D01*
X170509834Y-98893334D01*
X170531000Y-98872167D01*
X170509834Y-98851000D01*
X170488667Y-98872167D01*
X170364006Y-98872167D01*
X170369717Y-98782518D01*
X170393285Y-98637334D01*
X170437042Y-98569059D01*
X170495906Y-98573793D01*
X170564796Y-98647637D01*
X170638631Y-98786693D01*
X170712330Y-98987061D01*
X170734822Y-99062667D01*
X170774888Y-99241954D01*
X170816009Y-99497025D01*
X170856985Y-99819027D01*
X170896616Y-100199107D01*
X170912666Y-100375000D01*
X170935198Y-100605836D01*
X170961229Y-100831841D01*
X170987370Y-101025533D01*
X171008114Y-101149132D01*
X171036822Y-101279994D01*
X171058315Y-101337211D01*
X171078357Y-101330806D01*
X171093327Y-101297299D01*
X171124435Y-101231044D01*
X171156155Y-101239324D01*
X171184733Y-101275356D01*
X171222384Y-101360026D01*
X171256128Y-101491334D01*
X171268761Y-101567294D01*
X171291428Y-101685117D01*
X171317995Y-101745556D01*
X171334332Y-101746438D01*
X171374094Y-101670196D01*
X171416075Y-101533805D01*
X171455120Y-101361464D01*
X171486075Y-101177369D01*
X171503784Y-101005718D01*
X171506052Y-100940390D01*
X171522243Y-100616051D01*
X171563862Y-100286544D01*
X171625662Y-99989216D01*
X171653250Y-99892739D01*
X171777048Y-99637115D01*
X171972809Y-99416102D01*
X172231660Y-99239143D01*
X172299114Y-99205700D01*
X172439625Y-99136014D01*
X172556320Y-99070396D01*
X172612994Y-99031540D01*
X172655425Y-98985426D01*
X172656745Y-98934419D01*
X172615390Y-98847907D01*
X172602411Y-98824630D01*
X172560855Y-98702759D01*
X172532610Y-98525077D01*
X172518113Y-98316757D01*
X172518049Y-98272017D01*
X172646664Y-98272017D01*
X172655371Y-98471121D01*
X172678780Y-98644433D01*
X172714267Y-98759829D01*
X172784090Y-98855721D01*
X172859453Y-98893332D01*
X172859936Y-98893334D01*
X172939033Y-98915368D01*
X172976593Y-98964232D01*
X172953847Y-99014070D01*
X172949604Y-99016870D01*
X172939141Y-99067055D01*
X172976338Y-99156904D01*
X173048286Y-99266922D01*
X173142081Y-99377611D01*
X173244813Y-99469474D01*
X173253289Y-99475608D01*
X173387847Y-99571050D01*
X173461296Y-99475608D01*
X173541529Y-99332258D01*
X173612724Y-99135974D01*
X173666054Y-98918489D01*
X173692693Y-98711537D01*
X173693911Y-98639334D01*
X173699380Y-98460128D01*
X173725538Y-98350179D01*
X173770567Y-98315241D01*
X173793592Y-98323641D01*
X173821953Y-98379443D01*
X173833000Y-98472499D01*
X173840267Y-98553237D01*
X173878445Y-98588494D01*
X173972098Y-98596901D01*
X173997150Y-98597000D01*
X174121131Y-98581235D01*
X174206372Y-98541562D01*
X174213091Y-98534596D01*
X174284367Y-98502874D01*
X174408025Y-98491395D01*
X174554809Y-98497969D01*
X174695458Y-98520410D01*
X174800713Y-98556530D01*
X174832500Y-98580909D01*
X174922377Y-98634070D01*
X175032499Y-98620416D01*
X175124477Y-98554324D01*
X175186509Y-98497654D01*
X175235729Y-98503902D01*
X175275002Y-98535915D01*
X175340437Y-98576898D01*
X175379948Y-98551786D01*
X175437096Y-98527811D01*
X175553600Y-98518039D01*
X175705628Y-98520911D01*
X175869348Y-98534871D01*
X176020928Y-98558359D01*
X176136538Y-98589819D01*
X176165362Y-98603131D01*
X176302596Y-98695412D01*
X176416125Y-98798543D01*
X176486527Y-98893050D01*
X176500000Y-98938650D01*
X176535568Y-99006363D01*
X176584667Y-99032600D01*
X176654015Y-99083523D01*
X176670275Y-99132787D01*
X176696083Y-99220798D01*
X176754000Y-99316667D01*
X176812591Y-99404752D01*
X176837719Y-99468599D01*
X176837726Y-99468856D01*
X176875576Y-99546879D01*
X176963535Y-99613532D01*
X177067851Y-99645805D01*
X177096726Y-99645407D01*
X177163839Y-99648321D01*
X177196686Y-99691599D01*
X177211873Y-99797298D01*
X177211972Y-99798495D01*
X177209857Y-99915792D01*
X177187591Y-99998174D01*
X177180222Y-100008045D01*
X177138997Y-100072625D01*
X177135000Y-100092843D01*
X177152242Y-100103389D01*
X177197539Y-100052847D01*
X177261244Y-99955940D01*
X177333713Y-99827390D01*
X177405300Y-99681920D01*
X177407763Y-99676500D01*
X177473940Y-99530805D01*
X177530942Y-99405972D01*
X177562348Y-99337834D01*
X177593536Y-99258985D01*
X177641254Y-99124811D01*
X177696539Y-98960724D01*
X177711629Y-98914500D01*
X177769200Y-98691970D01*
X177812955Y-98433675D01*
X177841732Y-98160306D01*
X177854372Y-97892554D01*
X177849713Y-97651113D01*
X177826596Y-97456672D01*
X177798837Y-97359677D01*
X177739799Y-97262092D01*
X177654857Y-97171228D01*
X177559200Y-97095963D01*
X177468015Y-97045176D01*
X177396490Y-97027744D01*
X177359812Y-97052544D01*
X177364874Y-97106008D01*
X177367350Y-97125788D01*
X177355582Y-97141661D01*
X177321573Y-97153968D01*
X177257327Y-97163050D01*
X177154850Y-97169250D01*
X177006144Y-97172908D01*
X176803215Y-97174367D01*
X176538067Y-97173967D01*
X176202703Y-97172051D01*
X175875476Y-97169633D01*
X175503948Y-97165455D01*
X175140584Y-97158946D01*
X174798742Y-97150522D01*
X174491778Y-97140599D01*
X174233050Y-97129595D01*
X174035914Y-97117925D01*
X173938834Y-97109255D01*
X173749792Y-97087890D01*
X173585497Y-97069987D01*
X173468740Y-97057996D01*
X173430834Y-97054648D01*
X173362532Y-97080415D01*
X173256253Y-97152857D01*
X173130527Y-97255603D01*
X173003888Y-97372281D01*
X172894869Y-97486522D01*
X172822002Y-97581952D01*
X172811026Y-97602167D01*
X172758648Y-97704683D01*
X172709973Y-97792667D01*
X172673844Y-97905519D01*
X172652781Y-98074393D01*
X172646664Y-98272017D01*
X172518049Y-98272017D01*
X172517803Y-98102969D01*
X172532118Y-97908885D01*
X172561496Y-97759676D01*
X172582973Y-97708000D01*
X172643787Y-97596409D01*
X172683509Y-97516453D01*
X172730728Y-97450705D01*
X172824460Y-97345787D01*
X172948467Y-97219370D01*
X173018358Y-97152102D01*
X173156208Y-97019638D01*
X173243127Y-96924734D01*
X173473167Y-96924734D01*
X173684834Y-96959737D01*
X173775826Y-96968669D01*
X173940304Y-96978476D01*
X174167098Y-96988742D01*
X174445038Y-96999047D01*
X174762952Y-97008976D01*
X175109671Y-97018110D01*
X175441667Y-97025396D01*
X175799824Y-97032668D01*
X176134956Y-97039789D01*
X176436724Y-97046515D01*
X176694793Y-97052603D01*
X176898825Y-97057809D01*
X177038482Y-97061890D01*
X177102440Y-97064527D01*
X177171457Y-97065197D01*
X177202318Y-97039643D01*
X177205325Y-96966644D01*
X177195929Y-96871917D01*
X177171937Y-96655437D01*
X177151126Y-96500769D01*
X177126166Y-96385716D01*
X177089730Y-96288078D01*
X177034487Y-96185657D01*
X176953111Y-96056252D01*
X176898939Y-95972334D01*
X176818341Y-95840869D01*
X176729587Y-95687049D01*
X176700140Y-95633667D01*
X176631791Y-95526051D01*
X176547375Y-95440673D01*
X176424426Y-95358606D01*
X176283839Y-95282931D01*
X176142029Y-95210334D01*
X176513110Y-95210334D01*
X176675888Y-95381449D01*
X176766029Y-95485900D01*
X176825142Y-95572984D01*
X176838667Y-95610101D01*
X176863889Y-95624855D01*
X176933612Y-95577997D01*
X176959387Y-95554866D01*
X177084200Y-95454203D01*
X177219461Y-95366352D01*
X177223971Y-95363878D01*
X177352739Y-95265082D01*
X177489610Y-95114058D01*
X177612231Y-94937578D01*
X177670263Y-94829334D01*
X177798974Y-94543194D01*
X177885760Y-94320855D01*
X177932278Y-94153532D01*
X177940185Y-94032437D01*
X177911140Y-93948785D01*
X177846800Y-93893790D01*
X177846772Y-93893775D01*
X177777695Y-93869534D01*
X177719971Y-93895394D01*
X177656371Y-93966369D01*
X177572875Y-94096583D01*
X177510320Y-94236667D01*
X177347830Y-94605507D01*
X177117553Y-94930147D01*
X177055541Y-94997388D01*
X176937118Y-95113043D01*
X176848010Y-95177658D01*
X176763437Y-95205327D01*
X176681161Y-95210334D01*
X176513110Y-95210334D01*
X176142029Y-95210334D01*
X175970834Y-95122695D01*
X175331660Y-95134764D01*
X175057721Y-95143196D01*
X174844591Y-95156638D01*
X174700251Y-95174397D01*
X174633160Y-95195378D01*
X174556639Y-95237462D01*
X174437619Y-95283562D01*
X174396299Y-95296615D01*
X174261173Y-95350982D01*
X174132163Y-95426339D01*
X174026336Y-95509046D01*
X173960761Y-95585464D01*
X173952505Y-95641952D01*
X173957049Y-95647649D01*
X174000886Y-95717107D01*
X173971500Y-95751180D01*
X173906122Y-95745698D01*
X173832727Y-95744199D01*
X173780195Y-95797823D01*
X173751124Y-95857525D01*
X173698578Y-95977348D01*
X173631189Y-96128854D01*
X173596632Y-96205829D01*
X173533778Y-96391663D01*
X173493387Y-96601103D01*
X173487047Y-96671446D01*
X173473167Y-96924734D01*
X173243127Y-96924734D01*
X173244561Y-96923169D01*
X173296454Y-96841611D01*
X173324928Y-96753882D01*
X173343021Y-96638900D01*
X173344879Y-96624151D01*
X173373224Y-96474842D01*
X173421219Y-96295595D01*
X173480580Y-96111021D01*
X173543024Y-95945732D01*
X173600270Y-95824339D01*
X173627641Y-95783950D01*
X173661081Y-95717619D01*
X173628400Y-95655884D01*
X173522664Y-95589665D01*
X173455571Y-95558668D01*
X173329167Y-95499566D01*
X173247230Y-95442339D01*
X173189730Y-95363659D01*
X173136640Y-95240200D01*
X173103380Y-95148459D01*
X173045923Y-94886080D01*
X173044662Y-94840058D01*
X173169481Y-94840058D01*
X173235460Y-95122663D01*
X173291368Y-95260507D01*
X173354836Y-95346956D01*
X173453152Y-95412955D01*
X173521210Y-95446681D01*
X173649393Y-95507186D01*
X173723932Y-95536108D01*
X173768724Y-95535863D01*
X173807663Y-95508868D01*
X173840250Y-95478939D01*
X173901091Y-95373571D01*
X173917347Y-95256689D01*
X173909708Y-95114889D01*
X173890117Y-94947739D01*
X173862804Y-94779561D01*
X173831998Y-94634677D01*
X173801926Y-94537410D01*
X173788212Y-94513950D01*
X173756920Y-94443136D01*
X173748334Y-94370937D01*
X173728897Y-94292516D01*
X173679094Y-94168057D01*
X173611684Y-94024380D01*
X173539428Y-93888304D01*
X173475086Y-93786651D01*
X173463077Y-93771353D01*
X173430232Y-93785167D01*
X173377092Y-93873994D01*
X173306968Y-94031538D01*
X173251846Y-94173167D01*
X173170060Y-94505924D01*
X173169481Y-94840058D01*
X173044662Y-94840058D01*
X173037690Y-94585612D01*
X173075256Y-94275273D01*
X173155199Y-93983280D01*
X173274094Y-93737854D01*
X173274615Y-93737047D01*
X173360838Y-93652499D01*
X173457649Y-93650317D01*
X173565887Y-93730891D01*
D12*
%TO.C,SW1*%
X28320000Y-27820000D02*
X28320000Y-26820000D01*
X27820000Y-27320000D02*
X28820000Y-27320000D01*
X31820000Y-21220000D02*
X34220000Y-21220000D01*
X27020000Y-21220000D02*
X29620000Y-21220000D01*
X22420000Y-21220000D02*
X24820000Y-21220000D01*
X24220000Y-34520000D02*
X24520000Y-34820000D01*
X24220000Y-35120000D02*
X24220000Y-34520000D01*
X24520000Y-34820000D02*
X24220000Y-35120000D01*
X22420000Y-33420000D02*
X34220000Y-33420000D01*
X22420000Y-29320000D02*
X22420000Y-33420000D01*
X34220000Y-29320000D02*
X34220000Y-33420000D01*
X34220000Y-21220000D02*
X34220000Y-25320000D01*
X22420000Y-25320000D02*
X22420000Y-21220000D01*
X31320000Y-27320000D02*
G75*
G03*
X31320000Y-27320000I-3000000J0D01*
G01*
%TO.C,J4*%
X229705000Y-104745000D02*
X227045000Y-104745000D01*
X229705000Y-104745000D02*
X229705000Y-97065000D01*
X229705000Y-97065000D02*
X227045000Y-97065000D01*
X227045000Y-104745000D02*
X227045000Y-97065000D01*
X227045000Y-107345000D02*
X227045000Y-106015000D01*
X228375000Y-107345000D02*
X227045000Y-107345000D01*
%TO.C,J2*%
X146770000Y-102865000D02*
X146770000Y-100365000D01*
X146770000Y-100365000D02*
X147820000Y-100365000D01*
X147820000Y-100365000D02*
X147820000Y-99375000D01*
X150990000Y-102865000D02*
X150990000Y-100365000D01*
X150990000Y-100365000D02*
X149940000Y-100365000D01*
X147940000Y-104835000D02*
X149820000Y-104835000D01*
%TO.C,SW1*%
D11*
X21524761Y-33353333D02*
X21572380Y-33210476D01*
X21572380Y-32972380D01*
X21524761Y-32877142D01*
X21477142Y-32829523D01*
X21381904Y-32781904D01*
X21286666Y-32781904D01*
X21191428Y-32829523D01*
X21143809Y-32877142D01*
X21096190Y-32972380D01*
X21048571Y-33162857D01*
X21000952Y-33258095D01*
X20953333Y-33305714D01*
X20858095Y-33353333D01*
X20762857Y-33353333D01*
X20667619Y-33305714D01*
X20620000Y-33258095D01*
X20572380Y-33162857D01*
X20572380Y-32924761D01*
X20620000Y-32781904D01*
X20572380Y-32448571D02*
X21572380Y-32210476D01*
X20858095Y-32020000D01*
X21572380Y-31829523D01*
X20572380Y-31591428D01*
X21572380Y-30686666D02*
X21572380Y-31258095D01*
X21572380Y-30972380D02*
X20572380Y-30972380D01*
X20715238Y-31067619D01*
X20810476Y-31162857D01*
X20858095Y-31258095D01*
%TO.C,J4*%
X228046666Y-95882380D02*
X228046666Y-96596666D01*
X227999047Y-96739523D01*
X227903809Y-96834761D01*
X227760952Y-96882380D01*
X227665714Y-96882380D01*
X228951428Y-96215714D02*
X228951428Y-96882380D01*
X228713333Y-95834761D02*
X228475238Y-96549047D01*
X229094285Y-96549047D01*
%TO.C,J2*%
X148356666Y-101672380D02*
X148356666Y-102386666D01*
X148309047Y-102529523D01*
X148213809Y-102624761D01*
X148070952Y-102672380D01*
X147975714Y-102672380D01*
X148785238Y-101767619D02*
X148832857Y-101720000D01*
X148928095Y-101672380D01*
X149166190Y-101672380D01*
X149261428Y-101720000D01*
X149309047Y-101767619D01*
X149356666Y-101862857D01*
X149356666Y-101958095D01*
X149309047Y-102100952D01*
X148737619Y-102672380D01*
X149356666Y-102672380D01*
X148141904Y-106058571D02*
X148284761Y-106106190D01*
X148332380Y-106153809D01*
X148380000Y-106249047D01*
X148380000Y-106391904D01*
X148332380Y-106487142D01*
X148284761Y-106534761D01*
X148189523Y-106582380D01*
X147808571Y-106582380D01*
X147808571Y-105582380D01*
X148141904Y-105582380D01*
X148237142Y-105630000D01*
X148284761Y-105677619D01*
X148332380Y-105772857D01*
X148332380Y-105868095D01*
X148284761Y-105963333D01*
X148237142Y-106010952D01*
X148141904Y-106058571D01*
X147808571Y-106058571D01*
X148760952Y-106296666D02*
X149237142Y-106296666D01*
X148665714Y-106582380D02*
X148999047Y-105582380D01*
X149332380Y-106582380D01*
X149522857Y-105582380D02*
X150094285Y-105582380D01*
X149808571Y-106582380D02*
X149808571Y-105582380D01*
%TD*%
M02*
