%TF.GenerationSoftware,KiCad,Pcbnew,5.1.10*%
%TF.CreationDate,2021-06-01T23:41:42+02:00*%
%TF.ProjectId,ptm-60nrf,70746d2d-3630-46e7-9266-2e6b69636164,rev?*%
%TF.SameCoordinates,Original*%
%TF.FileFunction,Soldermask,Bot*%
%TF.FilePolarity,Negative*%
%FSLAX46Y46*%
G04 Gerber Fmt 4.6, Leading zero omitted, Abs format (unit mm)*
G04 Created by KiCad (PCBNEW 5.1.10) date 2021-06-01 23:41:42*
%MOMM*%
%LPD*%
G01*
G04 APERTURE LIST*
%ADD10C,0.040000*%
%ADD11C,0.090000*%
%ADD12C,0.050000*%
%ADD13C,0.150000*%
%ADD14R,1.800000X1.100000*%
%ADD15C,2.250000*%
%ADD16C,3.987800*%
%ADD17C,1.750000*%
%ADD18C,3.048000*%
%ADD19O,1.700000X1.700000*%
%ADD20R,1.700000X1.700000*%
%ADD21C,7.000240*%
%ADD22O,9.999980X5.001260*%
%ADD23R,0.650000X1.060000*%
%ADD24R,1.905000X1.905000*%
%ADD25C,1.905000*%
%ADD26R,0.600000X1.200000*%
%ADD27C,0.100000*%
%ADD28R,1.060000X0.650000*%
%ADD29R,0.800000X0.900000*%
%ADD30R,0.600000X1.450000*%
%ADD31R,0.300000X1.450000*%
%ADD32O,1.000000X2.100000*%
%ADD33C,0.650000*%
%ADD34O,1.000000X1.600000*%
%ADD35R,0.900000X1.200000*%
G04 APERTURE END LIST*
D10*
X301915000Y-109081666D02*
X301931666Y-109131666D01*
X301948333Y-109148333D01*
X301981666Y-109165000D01*
X302031666Y-109165000D01*
X302065000Y-109148333D01*
X302081666Y-109131666D01*
X302098333Y-109098333D01*
X302098333Y-108965000D01*
X301748333Y-108965000D01*
X301748333Y-109081666D01*
X301765000Y-109115000D01*
X301781666Y-109131666D01*
X301815000Y-109148333D01*
X301848333Y-109148333D01*
X301881666Y-109131666D01*
X301898333Y-109115000D01*
X301915000Y-109081666D01*
X301915000Y-108965000D01*
X301748333Y-109265000D02*
X301748333Y-109465000D01*
X302098333Y-109365000D02*
X301748333Y-109365000D01*
X301748333Y-109548333D02*
X302098333Y-109631666D01*
X301848333Y-109698333D01*
X302098333Y-109765000D01*
X301748333Y-109848333D01*
D11*
X300611785Y-100668571D02*
X299861785Y-100668571D01*
X300397500Y-100918571D01*
X299861785Y-101168571D01*
X300611785Y-101168571D01*
X300611785Y-101847142D02*
X300218928Y-101847142D01*
X300147500Y-101811428D01*
X300111785Y-101740000D01*
X300111785Y-101597142D01*
X300147500Y-101525714D01*
X300576071Y-101847142D02*
X300611785Y-101775714D01*
X300611785Y-101597142D01*
X300576071Y-101525714D01*
X300504642Y-101490000D01*
X300433214Y-101490000D01*
X300361785Y-101525714D01*
X300326071Y-101597142D01*
X300326071Y-101775714D01*
X300290357Y-101847142D01*
X300611785Y-102525714D02*
X299861785Y-102525714D01*
X300576071Y-102525714D02*
X300611785Y-102454285D01*
X300611785Y-102311428D01*
X300576071Y-102240000D01*
X300540357Y-102204285D01*
X300468928Y-102168571D01*
X300254642Y-102168571D01*
X300183214Y-102204285D01*
X300147500Y-102240000D01*
X300111785Y-102311428D01*
X300111785Y-102454285D01*
X300147500Y-102525714D01*
X300576071Y-103168571D02*
X300611785Y-103097142D01*
X300611785Y-102954285D01*
X300576071Y-102882857D01*
X300504642Y-102847142D01*
X300218928Y-102847142D01*
X300147500Y-102882857D01*
X300111785Y-102954285D01*
X300111785Y-103097142D01*
X300147500Y-103168571D01*
X300218928Y-103204285D01*
X300290357Y-103204285D01*
X300361785Y-102847142D01*
X300111785Y-104025714D02*
X300611785Y-104168571D01*
X300254642Y-104311428D01*
X300611785Y-104454285D01*
X300111785Y-104597142D01*
X300611785Y-104882857D02*
X300111785Y-104882857D01*
X299861785Y-104882857D02*
X299897500Y-104847142D01*
X299933214Y-104882857D01*
X299897500Y-104918571D01*
X299861785Y-104882857D01*
X299933214Y-104882857D01*
X300111785Y-105132857D02*
X300111785Y-105418571D01*
X299861785Y-105240000D02*
X300504642Y-105240000D01*
X300576071Y-105275714D01*
X300611785Y-105347142D01*
X300611785Y-105418571D01*
X300611785Y-105668571D02*
X299861785Y-105668571D01*
X300611785Y-105990000D02*
X300218928Y-105990000D01*
X300147500Y-105954285D01*
X300111785Y-105882857D01*
X300111785Y-105775714D01*
X300147500Y-105704285D01*
X300183214Y-105668571D01*
X300611785Y-106918571D02*
X299861785Y-106918571D01*
X300611785Y-107347142D02*
X300183214Y-107025714D01*
X299861785Y-107347142D02*
X300290357Y-106918571D01*
X300611785Y-107668571D02*
X300111785Y-107668571D01*
X299861785Y-107668571D02*
X299897500Y-107632857D01*
X299933214Y-107668571D01*
X299897500Y-107704285D01*
X299861785Y-107668571D01*
X299933214Y-107668571D01*
X300540357Y-108454285D02*
X300576071Y-108418571D01*
X300611785Y-108311428D01*
X300611785Y-108240000D01*
X300576071Y-108132857D01*
X300504642Y-108061428D01*
X300433214Y-108025714D01*
X300290357Y-107990000D01*
X300183214Y-107990000D01*
X300040357Y-108025714D01*
X299968928Y-108061428D01*
X299897500Y-108132857D01*
X299861785Y-108240000D01*
X299861785Y-108311428D01*
X299897500Y-108418571D01*
X299933214Y-108454285D01*
X300397500Y-108740000D02*
X300397500Y-109097142D01*
X300611785Y-108668571D02*
X299861785Y-108918571D01*
X300611785Y-109168571D01*
X300611785Y-109418571D02*
X299861785Y-109418571D01*
X299861785Y-109597142D01*
X299897500Y-109704285D01*
X299968928Y-109775714D01*
X300040357Y-109811428D01*
X300183214Y-109847142D01*
X300290357Y-109847142D01*
X300433214Y-109811428D01*
X300504642Y-109775714D01*
X300576071Y-109704285D01*
X300611785Y-109597142D01*
X300611785Y-109418571D01*
X301076785Y-101865000D02*
X301076785Y-102007857D01*
X301112500Y-102079285D01*
X301183928Y-102150714D01*
X301326785Y-102186428D01*
X301576785Y-102186428D01*
X301719642Y-102150714D01*
X301791071Y-102079285D01*
X301826785Y-102007857D01*
X301826785Y-101865000D01*
X301791071Y-101793571D01*
X301719642Y-101722142D01*
X301576785Y-101686428D01*
X301326785Y-101686428D01*
X301183928Y-101722142D01*
X301112500Y-101793571D01*
X301076785Y-101865000D01*
X301326785Y-102507857D02*
X301826785Y-102507857D01*
X301398214Y-102507857D02*
X301362500Y-102543571D01*
X301326785Y-102615000D01*
X301326785Y-102722142D01*
X301362500Y-102793571D01*
X301433928Y-102829285D01*
X301826785Y-102829285D01*
X301612500Y-103722142D02*
X301612500Y-104079285D01*
X301826785Y-103650714D02*
X301076785Y-103900714D01*
X301826785Y-104150714D01*
X301826785Y-104400714D02*
X301326785Y-104400714D01*
X301469642Y-104400714D02*
X301398214Y-104436428D01*
X301362500Y-104472142D01*
X301326785Y-104543571D01*
X301326785Y-104615000D01*
X301791071Y-105186428D02*
X301826785Y-105115000D01*
X301826785Y-104972142D01*
X301791071Y-104900714D01*
X301755357Y-104865000D01*
X301683928Y-104829285D01*
X301469642Y-104829285D01*
X301398214Y-104865000D01*
X301362500Y-104900714D01*
X301326785Y-104972142D01*
X301326785Y-105115000D01*
X301362500Y-105186428D01*
X301826785Y-105507857D02*
X301076785Y-105507857D01*
X301826785Y-105829285D02*
X301433928Y-105829285D01*
X301362500Y-105793571D01*
X301326785Y-105722142D01*
X301326785Y-105615000D01*
X301362500Y-105543571D01*
X301398214Y-105507857D01*
X301826785Y-106543571D02*
X301826785Y-106186428D01*
X301076785Y-106186428D01*
X301826785Y-106793571D02*
X301326785Y-106793571D01*
X301076785Y-106793571D02*
X301112500Y-106757857D01*
X301148214Y-106793571D01*
X301112500Y-106829285D01*
X301076785Y-106793571D01*
X301148214Y-106793571D01*
X301326785Y-107150714D02*
X301826785Y-107150714D01*
X301398214Y-107150714D02*
X301362500Y-107186428D01*
X301326785Y-107257857D01*
X301326785Y-107365000D01*
X301362500Y-107436428D01*
X301433928Y-107472142D01*
X301826785Y-107472142D01*
X301326785Y-108150714D02*
X301826785Y-108150714D01*
X301326785Y-107829285D02*
X301719642Y-107829285D01*
X301791071Y-107865000D01*
X301826785Y-107936428D01*
X301826785Y-108043571D01*
X301791071Y-108115000D01*
X301755357Y-108150714D01*
X301826785Y-108436428D02*
X301326785Y-108829285D01*
X301326785Y-108436428D02*
X301826785Y-108829285D01*
D12*
X20320714Y-27532083D02*
X20308809Y-27521666D01*
X20296904Y-27535059D01*
X20308809Y-27545476D01*
X20320714Y-27532083D01*
X20296904Y-27535059D01*
X20320714Y-27413035D02*
X20308809Y-27402619D01*
X20296904Y-27416011D01*
X20308809Y-27426428D01*
X20320714Y-27413035D01*
X20296904Y-27416011D01*
X20320714Y-27293988D02*
X20308809Y-27283571D01*
X20296904Y-27296964D01*
X20308809Y-27307380D01*
X20320714Y-27293988D01*
X20296904Y-27296964D01*
X20296904Y-26987440D02*
X20463571Y-26966607D01*
X20546904Y-26956190D02*
X20535000Y-26969583D01*
X20523095Y-26959166D01*
X20535000Y-26945773D01*
X20546904Y-26956190D01*
X20523095Y-26959166D01*
X20463571Y-26847559D02*
X20296904Y-26868392D01*
X20439761Y-26850535D02*
X20451666Y-26837142D01*
X20463571Y-26811845D01*
X20463571Y-26776130D01*
X20451666Y-26753809D01*
X20427857Y-26744880D01*
X20296904Y-26761250D01*
X20463571Y-26514226D02*
X20261190Y-26539523D01*
X20237380Y-26554404D01*
X20225476Y-26567797D01*
X20213571Y-26593095D01*
X20213571Y-26628809D01*
X20225476Y-26651130D01*
X20308809Y-26533571D02*
X20296904Y-26558869D01*
X20296904Y-26606488D01*
X20308809Y-26628809D01*
X20320714Y-26639226D01*
X20344523Y-26648154D01*
X20415952Y-26639226D01*
X20439761Y-26624345D01*
X20451666Y-26610952D01*
X20463571Y-26585654D01*
X20463571Y-26538035D01*
X20451666Y-26515714D01*
X20308809Y-26319285D02*
X20296904Y-26344583D01*
X20296904Y-26392202D01*
X20308809Y-26414523D01*
X20332619Y-26423452D01*
X20427857Y-26411547D01*
X20451666Y-26396666D01*
X20463571Y-26371369D01*
X20463571Y-26323750D01*
X20451666Y-26301428D01*
X20427857Y-26292500D01*
X20404047Y-26295476D01*
X20380238Y-26417500D01*
X20463571Y-26180892D02*
X20296904Y-26201726D01*
X20439761Y-26183869D02*
X20451666Y-26170476D01*
X20463571Y-26145178D01*
X20463571Y-26109464D01*
X20451666Y-26087142D01*
X20427857Y-26078214D01*
X20296904Y-26094583D01*
X20308809Y-25985952D02*
X20296904Y-25963630D01*
X20296904Y-25916011D01*
X20308809Y-25890714D01*
X20332619Y-25875833D01*
X20344523Y-25874345D01*
X20368333Y-25883273D01*
X20380238Y-25905595D01*
X20380238Y-25941309D01*
X20392142Y-25963630D01*
X20415952Y-25972559D01*
X20427857Y-25971071D01*
X20451666Y-25956190D01*
X20463571Y-25930892D01*
X20463571Y-25895178D01*
X20451666Y-25872857D01*
X20463571Y-25788035D02*
X20463571Y-25692797D01*
X20546904Y-25741904D02*
X20332619Y-25768690D01*
X20308809Y-25759761D01*
X20296904Y-25737440D01*
X20296904Y-25713630D01*
X20296904Y-25523154D02*
X20427857Y-25506785D01*
X20451666Y-25515714D01*
X20463571Y-25538035D01*
X20463571Y-25585654D01*
X20451666Y-25610952D01*
X20308809Y-25521666D02*
X20296904Y-25546964D01*
X20296904Y-25606488D01*
X20308809Y-25628809D01*
X20332619Y-25637738D01*
X20356428Y-25634761D01*
X20380238Y-25619880D01*
X20392142Y-25594583D01*
X20392142Y-25535059D01*
X20404047Y-25509761D01*
X20296904Y-25296964D02*
X20546904Y-25265714D01*
X20308809Y-25295476D02*
X20296904Y-25320773D01*
X20296904Y-25368392D01*
X20308809Y-25390714D01*
X20320714Y-25401130D01*
X20344523Y-25410059D01*
X20415952Y-25401130D01*
X20439761Y-25386250D01*
X20451666Y-25372857D01*
X20463571Y-25347559D01*
X20463571Y-25299940D01*
X20451666Y-25277619D01*
X20463571Y-24990416D02*
X20296904Y-24951726D01*
X20463571Y-24871369D01*
X20451666Y-24777619D02*
X20463571Y-24752321D01*
X20463571Y-24704702D01*
X20451666Y-24682380D01*
X20427857Y-24673452D01*
X20308809Y-24581190D02*
X20296904Y-24606488D01*
X20296904Y-24654107D01*
X20308809Y-24676428D01*
X20332619Y-24685357D01*
X20427857Y-24673452D01*
X20451666Y-24658571D01*
X20463571Y-24633273D01*
X20463571Y-24585654D01*
X20451666Y-24563333D01*
X20427857Y-24554404D01*
X20404047Y-24557380D01*
X20392142Y-24677916D01*
X20392142Y-24761250D01*
X20380238Y-24786547D01*
X20356428Y-24801428D01*
X20332619Y-24804404D01*
X20308809Y-24795476D01*
X20296904Y-24773154D01*
X20296904Y-24725535D01*
X20308809Y-24700238D01*
X20332619Y-24685357D01*
X20463571Y-24442797D02*
X20296904Y-24463630D01*
X20439761Y-24445773D02*
X20451666Y-24432380D01*
X20463571Y-24407083D01*
X20463571Y-24371369D01*
X20451666Y-24349047D01*
X20427857Y-24340119D01*
X20296904Y-24356488D01*
X20296904Y-24130297D02*
X20427857Y-24113928D01*
X20451666Y-24122857D01*
X20463571Y-24145178D01*
X20463571Y-24192797D01*
X20451666Y-24218095D01*
X20308809Y-24128809D02*
X20296904Y-24154107D01*
X20296904Y-24213630D01*
X20308809Y-24235952D01*
X20332619Y-24244880D01*
X20356428Y-24241904D01*
X20380238Y-24227023D01*
X20392142Y-24201726D01*
X20392142Y-24142202D01*
X20404047Y-24116904D01*
X20296904Y-24011250D02*
X20463571Y-23990416D01*
X20415952Y-23996369D02*
X20439761Y-23981488D01*
X20451666Y-23968095D01*
X20463571Y-23942797D01*
X20463571Y-23918988D01*
X20308809Y-23759761D02*
X20296904Y-23785059D01*
X20296904Y-23832678D01*
X20308809Y-23855000D01*
X20332619Y-23863928D01*
X20427857Y-23852023D01*
X20451666Y-23837142D01*
X20463571Y-23811845D01*
X20463571Y-23764226D01*
X20451666Y-23741904D01*
X20427857Y-23732976D01*
X20404047Y-23735952D01*
X20380238Y-23857976D01*
X20308809Y-23462142D02*
X20296904Y-23439821D01*
X20296904Y-23392202D01*
X20308809Y-23366904D01*
X20332619Y-23352023D01*
X20344523Y-23350535D01*
X20368333Y-23359464D01*
X20380238Y-23381785D01*
X20380238Y-23417500D01*
X20392142Y-23439821D01*
X20415952Y-23448750D01*
X20427857Y-23447261D01*
X20451666Y-23432380D01*
X20463571Y-23407083D01*
X20463571Y-23371369D01*
X20451666Y-23349047D01*
X20463571Y-23228511D02*
X20249285Y-23255297D01*
X20225476Y-23270178D01*
X20213571Y-23295476D01*
X20213571Y-23307380D01*
X20546904Y-23218095D02*
X20535000Y-23231488D01*
X20523095Y-23221071D01*
X20535000Y-23207678D01*
X20546904Y-23218095D01*
X20523095Y-23221071D01*
X20296904Y-23023154D02*
X20427857Y-23006785D01*
X20451666Y-23015714D01*
X20463571Y-23038035D01*
X20463571Y-23085654D01*
X20451666Y-23110952D01*
X20308809Y-23021666D02*
X20296904Y-23046964D01*
X20296904Y-23106488D01*
X20308809Y-23128809D01*
X20332619Y-23137738D01*
X20356428Y-23134761D01*
X20380238Y-23119880D01*
X20392142Y-23094583D01*
X20392142Y-23035059D01*
X20404047Y-23009761D01*
X20296904Y-22796964D02*
X20427857Y-22780595D01*
X20451666Y-22789523D01*
X20463571Y-22811845D01*
X20463571Y-22859464D01*
X20451666Y-22884761D01*
X20308809Y-22795476D02*
X20296904Y-22820773D01*
X20296904Y-22880297D01*
X20308809Y-22902619D01*
X20332619Y-22911547D01*
X20356428Y-22908571D01*
X20380238Y-22893690D01*
X20392142Y-22868392D01*
X20392142Y-22808869D01*
X20404047Y-22783571D01*
D13*
X134866190Y-106682380D02*
X134866190Y-105682380D01*
X134485238Y-105682380D01*
X134390000Y-105730000D01*
X134342380Y-105777619D01*
X134294761Y-105872857D01*
X134294761Y-106015714D01*
X134342380Y-106110952D01*
X134390000Y-106158571D01*
X134485238Y-106206190D01*
X134866190Y-106206190D01*
X133723333Y-106682380D02*
X133818571Y-106634761D01*
X133866190Y-106587142D01*
X133913809Y-106491904D01*
X133913809Y-106206190D01*
X133866190Y-106110952D01*
X133818571Y-106063333D01*
X133723333Y-106015714D01*
X133580476Y-106015714D01*
X133485238Y-106063333D01*
X133437619Y-106110952D01*
X133390000Y-106206190D01*
X133390000Y-106491904D01*
X133437619Y-106587142D01*
X133485238Y-106634761D01*
X133580476Y-106682380D01*
X133723333Y-106682380D01*
X133056666Y-106015714D02*
X132866190Y-106682380D01*
X132675714Y-106206190D01*
X132485238Y-106682380D01*
X132294761Y-106015714D01*
X131532857Y-106634761D02*
X131628095Y-106682380D01*
X131818571Y-106682380D01*
X131913809Y-106634761D01*
X131961428Y-106539523D01*
X131961428Y-106158571D01*
X131913809Y-106063333D01*
X131818571Y-106015714D01*
X131628095Y-106015714D01*
X131532857Y-106063333D01*
X131485238Y-106158571D01*
X131485238Y-106253809D01*
X131961428Y-106349047D01*
X131056666Y-106682380D02*
X131056666Y-106015714D01*
X131056666Y-106206190D02*
X131009047Y-106110952D01*
X130961428Y-106063333D01*
X130866190Y-106015714D01*
X130770952Y-106015714D01*
D14*
%TO.C,Reset1*%
X182230000Y-106020000D03*
X176030000Y-106020000D03*
X182230000Y-109720000D03*
X176030000Y-109720000D03*
%TD*%
D15*
%TO.C,MX66*%
X164211000Y-98425000D03*
D16*
X161671000Y-103505000D03*
D15*
X157861000Y-100965000D03*
D17*
X156591000Y-103505000D03*
X166751000Y-103505000D03*
D18*
X104521000Y-110490000D03*
X218821000Y-110490000D03*
D16*
X104521000Y-95250000D03*
X218821000Y-95250000D03*
%TD*%
%TO.C,D71*%
G36*
G01*
X293118250Y-108362000D02*
X292605750Y-108362000D01*
G75*
G02*
X292387000Y-108143250I0J218750D01*
G01*
X292387000Y-107705750D01*
G75*
G02*
X292605750Y-107487000I218750J0D01*
G01*
X293118250Y-107487000D01*
G75*
G02*
X293337000Y-107705750I0J-218750D01*
G01*
X293337000Y-108143250D01*
G75*
G02*
X293118250Y-108362000I-218750J0D01*
G01*
G37*
G36*
G01*
X293118250Y-109937000D02*
X292605750Y-109937000D01*
G75*
G02*
X292387000Y-109718250I0J218750D01*
G01*
X292387000Y-109280750D01*
G75*
G02*
X292605750Y-109062000I218750J0D01*
G01*
X293118250Y-109062000D01*
G75*
G02*
X293337000Y-109280750I0J-218750D01*
G01*
X293337000Y-109718250D01*
G75*
G02*
X293118250Y-109937000I-218750J0D01*
G01*
G37*
%TD*%
%TO.C,D70*%
G36*
G01*
X269242250Y-108489000D02*
X268729750Y-108489000D01*
G75*
G02*
X268511000Y-108270250I0J218750D01*
G01*
X268511000Y-107832750D01*
G75*
G02*
X268729750Y-107614000I218750J0D01*
G01*
X269242250Y-107614000D01*
G75*
G02*
X269461000Y-107832750I0J-218750D01*
G01*
X269461000Y-108270250D01*
G75*
G02*
X269242250Y-108489000I-218750J0D01*
G01*
G37*
G36*
G01*
X269242250Y-110064000D02*
X268729750Y-110064000D01*
G75*
G02*
X268511000Y-109845250I0J218750D01*
G01*
X268511000Y-109407750D01*
G75*
G02*
X268729750Y-109189000I218750J0D01*
G01*
X269242250Y-109189000D01*
G75*
G02*
X269461000Y-109407750I0J-218750D01*
G01*
X269461000Y-109845250D01*
G75*
G02*
X269242250Y-110064000I-218750J0D01*
G01*
G37*
%TD*%
%TO.C,D69*%
G36*
G01*
X245366250Y-108616000D02*
X244853750Y-108616000D01*
G75*
G02*
X244635000Y-108397250I0J218750D01*
G01*
X244635000Y-107959750D01*
G75*
G02*
X244853750Y-107741000I218750J0D01*
G01*
X245366250Y-107741000D01*
G75*
G02*
X245585000Y-107959750I0J-218750D01*
G01*
X245585000Y-108397250D01*
G75*
G02*
X245366250Y-108616000I-218750J0D01*
G01*
G37*
G36*
G01*
X245366250Y-110191000D02*
X244853750Y-110191000D01*
G75*
G02*
X244635000Y-109972250I0J218750D01*
G01*
X244635000Y-109534750D01*
G75*
G02*
X244853750Y-109316000I218750J0D01*
G01*
X245366250Y-109316000D01*
G75*
G02*
X245585000Y-109534750I0J-218750D01*
G01*
X245585000Y-109972250D01*
G75*
G02*
X245366250Y-110191000I-218750J0D01*
G01*
G37*
%TD*%
%TO.C,D68*%
G36*
G01*
X164467250Y-108616000D02*
X163954750Y-108616000D01*
G75*
G02*
X163736000Y-108397250I0J218750D01*
G01*
X163736000Y-107959750D01*
G75*
G02*
X163954750Y-107741000I218750J0D01*
G01*
X164467250Y-107741000D01*
G75*
G02*
X164686000Y-107959750I0J-218750D01*
G01*
X164686000Y-108397250D01*
G75*
G02*
X164467250Y-108616000I-218750J0D01*
G01*
G37*
G36*
G01*
X164467250Y-110191000D02*
X163954750Y-110191000D01*
G75*
G02*
X163736000Y-109972250I0J218750D01*
G01*
X163736000Y-109534750D01*
G75*
G02*
X163954750Y-109316000I218750J0D01*
G01*
X164467250Y-109316000D01*
G75*
G02*
X164686000Y-109534750I0J-218750D01*
G01*
X164686000Y-109972250D01*
G75*
G02*
X164467250Y-110191000I-218750J0D01*
G01*
G37*
%TD*%
%TO.C,D67*%
G36*
G01*
X83568250Y-108616000D02*
X83055750Y-108616000D01*
G75*
G02*
X82837000Y-108397250I0J218750D01*
G01*
X82837000Y-107959750D01*
G75*
G02*
X83055750Y-107741000I218750J0D01*
G01*
X83568250Y-107741000D01*
G75*
G02*
X83787000Y-107959750I0J-218750D01*
G01*
X83787000Y-108397250D01*
G75*
G02*
X83568250Y-108616000I-218750J0D01*
G01*
G37*
G36*
G01*
X83568250Y-110191000D02*
X83055750Y-110191000D01*
G75*
G02*
X82837000Y-109972250I0J218750D01*
G01*
X82837000Y-109534750D01*
G75*
G02*
X83055750Y-109316000I218750J0D01*
G01*
X83568250Y-109316000D01*
G75*
G02*
X83787000Y-109534750I0J-218750D01*
G01*
X83787000Y-109972250D01*
G75*
G02*
X83568250Y-110191000I-218750J0D01*
G01*
G37*
%TD*%
%TO.C,D66*%
G36*
G01*
X59692250Y-108616000D02*
X59179750Y-108616000D01*
G75*
G02*
X58961000Y-108397250I0J218750D01*
G01*
X58961000Y-107959750D01*
G75*
G02*
X59179750Y-107741000I218750J0D01*
G01*
X59692250Y-107741000D01*
G75*
G02*
X59911000Y-107959750I0J-218750D01*
G01*
X59911000Y-108397250D01*
G75*
G02*
X59692250Y-108616000I-218750J0D01*
G01*
G37*
G36*
G01*
X59692250Y-110191000D02*
X59179750Y-110191000D01*
G75*
G02*
X58961000Y-109972250I0J218750D01*
G01*
X58961000Y-109534750D01*
G75*
G02*
X59179750Y-109316000I218750J0D01*
G01*
X59692250Y-109316000D01*
G75*
G02*
X59911000Y-109534750I0J-218750D01*
G01*
X59911000Y-109972250D01*
G75*
G02*
X59692250Y-110191000I-218750J0D01*
G01*
G37*
%TD*%
%TO.C,D65*%
G36*
G01*
X35816250Y-108616000D02*
X35303750Y-108616000D01*
G75*
G02*
X35085000Y-108397250I0J218750D01*
G01*
X35085000Y-107959750D01*
G75*
G02*
X35303750Y-107741000I218750J0D01*
G01*
X35816250Y-107741000D01*
G75*
G02*
X36035000Y-107959750I0J-218750D01*
G01*
X36035000Y-108397250D01*
G75*
G02*
X35816250Y-108616000I-218750J0D01*
G01*
G37*
G36*
G01*
X35816250Y-110191000D02*
X35303750Y-110191000D01*
G75*
G02*
X35085000Y-109972250I0J218750D01*
G01*
X35085000Y-109534750D01*
G75*
G02*
X35303750Y-109316000I218750J0D01*
G01*
X35816250Y-109316000D01*
G75*
G02*
X36035000Y-109534750I0J-218750D01*
G01*
X36035000Y-109972250D01*
G75*
G02*
X35816250Y-110191000I-218750J0D01*
G01*
G37*
%TD*%
%TO.C,D64*%
G36*
G01*
X297944250Y-90455000D02*
X297431750Y-90455000D01*
G75*
G02*
X297213000Y-90236250I0J218750D01*
G01*
X297213000Y-89798750D01*
G75*
G02*
X297431750Y-89580000I218750J0D01*
G01*
X297944250Y-89580000D01*
G75*
G02*
X298163000Y-89798750I0J-218750D01*
G01*
X298163000Y-90236250D01*
G75*
G02*
X297944250Y-90455000I-218750J0D01*
G01*
G37*
G36*
G01*
X297944250Y-92030000D02*
X297431750Y-92030000D01*
G75*
G02*
X297213000Y-91811250I0J218750D01*
G01*
X297213000Y-91373750D01*
G75*
G02*
X297431750Y-91155000I218750J0D01*
G01*
X297944250Y-91155000D01*
G75*
G02*
X298163000Y-91373750I0J-218750D01*
G01*
X298163000Y-91811250D01*
G75*
G02*
X297944250Y-92030000I-218750J0D01*
G01*
G37*
%TD*%
%TO.C,D62*%
G36*
G01*
X260098250Y-90455000D02*
X259585750Y-90455000D01*
G75*
G02*
X259367000Y-90236250I0J218750D01*
G01*
X259367000Y-89798750D01*
G75*
G02*
X259585750Y-89580000I218750J0D01*
G01*
X260098250Y-89580000D01*
G75*
G02*
X260317000Y-89798750I0J-218750D01*
G01*
X260317000Y-90236250D01*
G75*
G02*
X260098250Y-90455000I-218750J0D01*
G01*
G37*
G36*
G01*
X260098250Y-92030000D02*
X259585750Y-92030000D01*
G75*
G02*
X259367000Y-91811250I0J218750D01*
G01*
X259367000Y-91373750D01*
G75*
G02*
X259585750Y-91155000I218750J0D01*
G01*
X260098250Y-91155000D01*
G75*
G02*
X260317000Y-91373750I0J-218750D01*
G01*
X260317000Y-91811250D01*
G75*
G02*
X260098250Y-92030000I-218750J0D01*
G01*
G37*
%TD*%
%TO.C,D61*%
G36*
G01*
X245366250Y-90455000D02*
X244853750Y-90455000D01*
G75*
G02*
X244635000Y-90236250I0J218750D01*
G01*
X244635000Y-89798750D01*
G75*
G02*
X244853750Y-89580000I218750J0D01*
G01*
X245366250Y-89580000D01*
G75*
G02*
X245585000Y-89798750I0J-218750D01*
G01*
X245585000Y-90236250D01*
G75*
G02*
X245366250Y-90455000I-218750J0D01*
G01*
G37*
G36*
G01*
X245366250Y-92030000D02*
X244853750Y-92030000D01*
G75*
G02*
X244635000Y-91811250I0J218750D01*
G01*
X244635000Y-91373750D01*
G75*
G02*
X244853750Y-91155000I218750J0D01*
G01*
X245366250Y-91155000D01*
G75*
G02*
X245585000Y-91373750I0J-218750D01*
G01*
X245585000Y-91811250D01*
G75*
G02*
X245366250Y-92030000I-218750J0D01*
G01*
G37*
%TD*%
%TO.C,D60*%
G36*
G01*
X226316250Y-90455000D02*
X225803750Y-90455000D01*
G75*
G02*
X225585000Y-90236250I0J218750D01*
G01*
X225585000Y-89798750D01*
G75*
G02*
X225803750Y-89580000I218750J0D01*
G01*
X226316250Y-89580000D01*
G75*
G02*
X226535000Y-89798750I0J-218750D01*
G01*
X226535000Y-90236250D01*
G75*
G02*
X226316250Y-90455000I-218750J0D01*
G01*
G37*
G36*
G01*
X226316250Y-92030000D02*
X225803750Y-92030000D01*
G75*
G02*
X225585000Y-91811250I0J218750D01*
G01*
X225585000Y-91373750D01*
G75*
G02*
X225803750Y-91155000I218750J0D01*
G01*
X226316250Y-91155000D01*
G75*
G02*
X226535000Y-91373750I0J-218750D01*
G01*
X226535000Y-91811250D01*
G75*
G02*
X226316250Y-92030000I-218750J0D01*
G01*
G37*
%TD*%
%TO.C,D59*%
G36*
G01*
X208916250Y-90350000D02*
X208403750Y-90350000D01*
G75*
G02*
X208185000Y-90131250I0J218750D01*
G01*
X208185000Y-89693750D01*
G75*
G02*
X208403750Y-89475000I218750J0D01*
G01*
X208916250Y-89475000D01*
G75*
G02*
X209135000Y-89693750I0J-218750D01*
G01*
X209135000Y-90131250D01*
G75*
G02*
X208916250Y-90350000I-218750J0D01*
G01*
G37*
G36*
G01*
X208916250Y-91925000D02*
X208403750Y-91925000D01*
G75*
G02*
X208185000Y-91706250I0J218750D01*
G01*
X208185000Y-91268750D01*
G75*
G02*
X208403750Y-91050000I218750J0D01*
G01*
X208916250Y-91050000D01*
G75*
G02*
X209135000Y-91268750I0J-218750D01*
G01*
X209135000Y-91706250D01*
G75*
G02*
X208916250Y-91925000I-218750J0D01*
G01*
G37*
%TD*%
%TO.C,D58*%
G36*
G01*
X188216250Y-90455000D02*
X187703750Y-90455000D01*
G75*
G02*
X187485000Y-90236250I0J218750D01*
G01*
X187485000Y-89798750D01*
G75*
G02*
X187703750Y-89580000I218750J0D01*
G01*
X188216250Y-89580000D01*
G75*
G02*
X188435000Y-89798750I0J-218750D01*
G01*
X188435000Y-90236250D01*
G75*
G02*
X188216250Y-90455000I-218750J0D01*
G01*
G37*
G36*
G01*
X188216250Y-92030000D02*
X187703750Y-92030000D01*
G75*
G02*
X187485000Y-91811250I0J218750D01*
G01*
X187485000Y-91373750D01*
G75*
G02*
X187703750Y-91155000I218750J0D01*
G01*
X188216250Y-91155000D01*
G75*
G02*
X188435000Y-91373750I0J-218750D01*
G01*
X188435000Y-91811250D01*
G75*
G02*
X188216250Y-92030000I-218750J0D01*
G01*
G37*
%TD*%
%TO.C,D57*%
G36*
G01*
X169166250Y-90455000D02*
X168653750Y-90455000D01*
G75*
G02*
X168435000Y-90236250I0J218750D01*
G01*
X168435000Y-89798750D01*
G75*
G02*
X168653750Y-89580000I218750J0D01*
G01*
X169166250Y-89580000D01*
G75*
G02*
X169385000Y-89798750I0J-218750D01*
G01*
X169385000Y-90236250D01*
G75*
G02*
X169166250Y-90455000I-218750J0D01*
G01*
G37*
G36*
G01*
X169166250Y-92030000D02*
X168653750Y-92030000D01*
G75*
G02*
X168435000Y-91811250I0J218750D01*
G01*
X168435000Y-91373750D01*
G75*
G02*
X168653750Y-91155000I218750J0D01*
G01*
X169166250Y-91155000D01*
G75*
G02*
X169385000Y-91373750I0J-218750D01*
G01*
X169385000Y-91811250D01*
G75*
G02*
X169166250Y-92030000I-218750J0D01*
G01*
G37*
%TD*%
%TO.C,D56*%
G36*
G01*
X150116250Y-90455000D02*
X149603750Y-90455000D01*
G75*
G02*
X149385000Y-90236250I0J218750D01*
G01*
X149385000Y-89798750D01*
G75*
G02*
X149603750Y-89580000I218750J0D01*
G01*
X150116250Y-89580000D01*
G75*
G02*
X150335000Y-89798750I0J-218750D01*
G01*
X150335000Y-90236250D01*
G75*
G02*
X150116250Y-90455000I-218750J0D01*
G01*
G37*
G36*
G01*
X150116250Y-92030000D02*
X149603750Y-92030000D01*
G75*
G02*
X149385000Y-91811250I0J218750D01*
G01*
X149385000Y-91373750D01*
G75*
G02*
X149603750Y-91155000I218750J0D01*
G01*
X150116250Y-91155000D01*
G75*
G02*
X150335000Y-91373750I0J-218750D01*
G01*
X150335000Y-91811250D01*
G75*
G02*
X150116250Y-92030000I-218750J0D01*
G01*
G37*
%TD*%
%TO.C,D55*%
G36*
G01*
X131066250Y-90455000D02*
X130553750Y-90455000D01*
G75*
G02*
X130335000Y-90236250I0J218750D01*
G01*
X130335000Y-89798750D01*
G75*
G02*
X130553750Y-89580000I218750J0D01*
G01*
X131066250Y-89580000D01*
G75*
G02*
X131285000Y-89798750I0J-218750D01*
G01*
X131285000Y-90236250D01*
G75*
G02*
X131066250Y-90455000I-218750J0D01*
G01*
G37*
G36*
G01*
X131066250Y-92030000D02*
X130553750Y-92030000D01*
G75*
G02*
X130335000Y-91811250I0J218750D01*
G01*
X130335000Y-91373750D01*
G75*
G02*
X130553750Y-91155000I218750J0D01*
G01*
X131066250Y-91155000D01*
G75*
G02*
X131285000Y-91373750I0J-218750D01*
G01*
X131285000Y-91811250D01*
G75*
G02*
X131066250Y-92030000I-218750J0D01*
G01*
G37*
%TD*%
%TO.C,D54*%
G36*
G01*
X112016250Y-90455000D02*
X111503750Y-90455000D01*
G75*
G02*
X111285000Y-90236250I0J218750D01*
G01*
X111285000Y-89798750D01*
G75*
G02*
X111503750Y-89580000I218750J0D01*
G01*
X112016250Y-89580000D01*
G75*
G02*
X112235000Y-89798750I0J-218750D01*
G01*
X112235000Y-90236250D01*
G75*
G02*
X112016250Y-90455000I-218750J0D01*
G01*
G37*
G36*
G01*
X112016250Y-92030000D02*
X111503750Y-92030000D01*
G75*
G02*
X111285000Y-91811250I0J218750D01*
G01*
X111285000Y-91373750D01*
G75*
G02*
X111503750Y-91155000I218750J0D01*
G01*
X112016250Y-91155000D01*
G75*
G02*
X112235000Y-91373750I0J-218750D01*
G01*
X112235000Y-91811250D01*
G75*
G02*
X112016250Y-92030000I-218750J0D01*
G01*
G37*
%TD*%
%TO.C,D53*%
G36*
G01*
X92966250Y-90455000D02*
X92453750Y-90455000D01*
G75*
G02*
X92235000Y-90236250I0J218750D01*
G01*
X92235000Y-89798750D01*
G75*
G02*
X92453750Y-89580000I218750J0D01*
G01*
X92966250Y-89580000D01*
G75*
G02*
X93185000Y-89798750I0J-218750D01*
G01*
X93185000Y-90236250D01*
G75*
G02*
X92966250Y-90455000I-218750J0D01*
G01*
G37*
G36*
G01*
X92966250Y-92030000D02*
X92453750Y-92030000D01*
G75*
G02*
X92235000Y-91811250I0J218750D01*
G01*
X92235000Y-91373750D01*
G75*
G02*
X92453750Y-91155000I218750J0D01*
G01*
X92966250Y-91155000D01*
G75*
G02*
X93185000Y-91373750I0J-218750D01*
G01*
X93185000Y-91811250D01*
G75*
G02*
X92966250Y-92030000I-218750J0D01*
G01*
G37*
%TD*%
%TO.C,D52*%
G36*
G01*
X73916250Y-90455000D02*
X73403750Y-90455000D01*
G75*
G02*
X73185000Y-90236250I0J218750D01*
G01*
X73185000Y-89798750D01*
G75*
G02*
X73403750Y-89580000I218750J0D01*
G01*
X73916250Y-89580000D01*
G75*
G02*
X74135000Y-89798750I0J-218750D01*
G01*
X74135000Y-90236250D01*
G75*
G02*
X73916250Y-90455000I-218750J0D01*
G01*
G37*
G36*
G01*
X73916250Y-92030000D02*
X73403750Y-92030000D01*
G75*
G02*
X73185000Y-91811250I0J218750D01*
G01*
X73185000Y-91373750D01*
G75*
G02*
X73403750Y-91155000I218750J0D01*
G01*
X73916250Y-91155000D01*
G75*
G02*
X74135000Y-91373750I0J-218750D01*
G01*
X74135000Y-91811250D01*
G75*
G02*
X73916250Y-92030000I-218750J0D01*
G01*
G37*
%TD*%
%TO.C,D51*%
G36*
G01*
X59311250Y-90455000D02*
X58798750Y-90455000D01*
G75*
G02*
X58580000Y-90236250I0J218750D01*
G01*
X58580000Y-89798750D01*
G75*
G02*
X58798750Y-89580000I218750J0D01*
G01*
X59311250Y-89580000D01*
G75*
G02*
X59530000Y-89798750I0J-218750D01*
G01*
X59530000Y-90236250D01*
G75*
G02*
X59311250Y-90455000I-218750J0D01*
G01*
G37*
G36*
G01*
X59311250Y-92030000D02*
X58798750Y-92030000D01*
G75*
G02*
X58580000Y-91811250I0J218750D01*
G01*
X58580000Y-91373750D01*
G75*
G02*
X58798750Y-91155000I218750J0D01*
G01*
X59311250Y-91155000D01*
G75*
G02*
X59530000Y-91373750I0J-218750D01*
G01*
X59530000Y-91811250D01*
G75*
G02*
X59311250Y-92030000I-218750J0D01*
G01*
G37*
%TD*%
%TO.C,D49*%
G36*
G01*
X35562250Y-90328000D02*
X35049750Y-90328000D01*
G75*
G02*
X34831000Y-90109250I0J218750D01*
G01*
X34831000Y-89671750D01*
G75*
G02*
X35049750Y-89453000I218750J0D01*
G01*
X35562250Y-89453000D01*
G75*
G02*
X35781000Y-89671750I0J-218750D01*
G01*
X35781000Y-90109250D01*
G75*
G02*
X35562250Y-90328000I-218750J0D01*
G01*
G37*
G36*
G01*
X35562250Y-91903000D02*
X35049750Y-91903000D01*
G75*
G02*
X34831000Y-91684250I0J218750D01*
G01*
X34831000Y-91246750D01*
G75*
G02*
X35049750Y-91028000I218750J0D01*
G01*
X35562250Y-91028000D01*
G75*
G02*
X35781000Y-91246750I0J-218750D01*
G01*
X35781000Y-91684250D01*
G75*
G02*
X35562250Y-91903000I-218750J0D01*
G01*
G37*
%TD*%
%TO.C,D47*%
G36*
G01*
X293626250Y-66833000D02*
X293113750Y-66833000D01*
G75*
G02*
X292895000Y-66614250I0J218750D01*
G01*
X292895000Y-66176750D01*
G75*
G02*
X293113750Y-65958000I218750J0D01*
G01*
X293626250Y-65958000D01*
G75*
G02*
X293845000Y-66176750I0J-218750D01*
G01*
X293845000Y-66614250D01*
G75*
G02*
X293626250Y-66833000I-218750J0D01*
G01*
G37*
G36*
G01*
X293626250Y-68408000D02*
X293113750Y-68408000D01*
G75*
G02*
X292895000Y-68189250I0J218750D01*
G01*
X292895000Y-67751750D01*
G75*
G02*
X293113750Y-67533000I218750J0D01*
G01*
X293626250Y-67533000D01*
G75*
G02*
X293845000Y-67751750I0J-218750D01*
G01*
X293845000Y-68189250D01*
G75*
G02*
X293626250Y-68408000I-218750J0D01*
G01*
G37*
%TD*%
%TO.C,D46*%
G36*
G01*
X276608250Y-71405000D02*
X276095750Y-71405000D01*
G75*
G02*
X275877000Y-71186250I0J218750D01*
G01*
X275877000Y-70748750D01*
G75*
G02*
X276095750Y-70530000I218750J0D01*
G01*
X276608250Y-70530000D01*
G75*
G02*
X276827000Y-70748750I0J-218750D01*
G01*
X276827000Y-71186250D01*
G75*
G02*
X276608250Y-71405000I-218750J0D01*
G01*
G37*
G36*
G01*
X276608250Y-72980000D02*
X276095750Y-72980000D01*
G75*
G02*
X275877000Y-72761250I0J218750D01*
G01*
X275877000Y-72323750D01*
G75*
G02*
X276095750Y-72105000I218750J0D01*
G01*
X276608250Y-72105000D01*
G75*
G02*
X276827000Y-72323750I0J-218750D01*
G01*
X276827000Y-72761250D01*
G75*
G02*
X276608250Y-72980000I-218750J0D01*
G01*
G37*
%TD*%
%TO.C,D45*%
G36*
G01*
X255018250Y-71660000D02*
X254505750Y-71660000D01*
G75*
G02*
X254287000Y-71441250I0J218750D01*
G01*
X254287000Y-71003750D01*
G75*
G02*
X254505750Y-70785000I218750J0D01*
G01*
X255018250Y-70785000D01*
G75*
G02*
X255237000Y-71003750I0J-218750D01*
G01*
X255237000Y-71441250D01*
G75*
G02*
X255018250Y-71660000I-218750J0D01*
G01*
G37*
G36*
G01*
X255018250Y-73235000D02*
X254505750Y-73235000D01*
G75*
G02*
X254287000Y-73016250I0J218750D01*
G01*
X254287000Y-72578750D01*
G75*
G02*
X254505750Y-72360000I218750J0D01*
G01*
X255018250Y-72360000D01*
G75*
G02*
X255237000Y-72578750I0J-218750D01*
G01*
X255237000Y-73016250D01*
G75*
G02*
X255018250Y-73235000I-218750J0D01*
G01*
G37*
%TD*%
%TO.C,D44*%
G36*
G01*
X235968250Y-71660000D02*
X235455750Y-71660000D01*
G75*
G02*
X235237000Y-71441250I0J218750D01*
G01*
X235237000Y-71003750D01*
G75*
G02*
X235455750Y-70785000I218750J0D01*
G01*
X235968250Y-70785000D01*
G75*
G02*
X236187000Y-71003750I0J-218750D01*
G01*
X236187000Y-71441250D01*
G75*
G02*
X235968250Y-71660000I-218750J0D01*
G01*
G37*
G36*
G01*
X235968250Y-73235000D02*
X235455750Y-73235000D01*
G75*
G02*
X235237000Y-73016250I0J218750D01*
G01*
X235237000Y-72578750D01*
G75*
G02*
X235455750Y-72360000I218750J0D01*
G01*
X235968250Y-72360000D01*
G75*
G02*
X236187000Y-72578750I0J-218750D01*
G01*
X236187000Y-73016250D01*
G75*
G02*
X235968250Y-73235000I-218750J0D01*
G01*
G37*
%TD*%
%TO.C,D43*%
G36*
G01*
X216918250Y-71660000D02*
X216405750Y-71660000D01*
G75*
G02*
X216187000Y-71441250I0J218750D01*
G01*
X216187000Y-71003750D01*
G75*
G02*
X216405750Y-70785000I218750J0D01*
G01*
X216918250Y-70785000D01*
G75*
G02*
X217137000Y-71003750I0J-218750D01*
G01*
X217137000Y-71441250D01*
G75*
G02*
X216918250Y-71660000I-218750J0D01*
G01*
G37*
G36*
G01*
X216918250Y-73235000D02*
X216405750Y-73235000D01*
G75*
G02*
X216187000Y-73016250I0J218750D01*
G01*
X216187000Y-72578750D01*
G75*
G02*
X216405750Y-72360000I218750J0D01*
G01*
X216918250Y-72360000D01*
G75*
G02*
X217137000Y-72578750I0J-218750D01*
G01*
X217137000Y-73016250D01*
G75*
G02*
X216918250Y-73235000I-218750J0D01*
G01*
G37*
%TD*%
%TO.C,D42*%
G36*
G01*
X197868250Y-71660000D02*
X197355750Y-71660000D01*
G75*
G02*
X197137000Y-71441250I0J218750D01*
G01*
X197137000Y-71003750D01*
G75*
G02*
X197355750Y-70785000I218750J0D01*
G01*
X197868250Y-70785000D01*
G75*
G02*
X198087000Y-71003750I0J-218750D01*
G01*
X198087000Y-71441250D01*
G75*
G02*
X197868250Y-71660000I-218750J0D01*
G01*
G37*
G36*
G01*
X197868250Y-73235000D02*
X197355750Y-73235000D01*
G75*
G02*
X197137000Y-73016250I0J218750D01*
G01*
X197137000Y-72578750D01*
G75*
G02*
X197355750Y-72360000I218750J0D01*
G01*
X197868250Y-72360000D01*
G75*
G02*
X198087000Y-72578750I0J-218750D01*
G01*
X198087000Y-73016250D01*
G75*
G02*
X197868250Y-73235000I-218750J0D01*
G01*
G37*
%TD*%
%TO.C,D41*%
G36*
G01*
X178818250Y-71660000D02*
X178305750Y-71660000D01*
G75*
G02*
X178087000Y-71441250I0J218750D01*
G01*
X178087000Y-71003750D01*
G75*
G02*
X178305750Y-70785000I218750J0D01*
G01*
X178818250Y-70785000D01*
G75*
G02*
X179037000Y-71003750I0J-218750D01*
G01*
X179037000Y-71441250D01*
G75*
G02*
X178818250Y-71660000I-218750J0D01*
G01*
G37*
G36*
G01*
X178818250Y-73235000D02*
X178305750Y-73235000D01*
G75*
G02*
X178087000Y-73016250I0J218750D01*
G01*
X178087000Y-72578750D01*
G75*
G02*
X178305750Y-72360000I218750J0D01*
G01*
X178818250Y-72360000D01*
G75*
G02*
X179037000Y-72578750I0J-218750D01*
G01*
X179037000Y-73016250D01*
G75*
G02*
X178818250Y-73235000I-218750J0D01*
G01*
G37*
%TD*%
%TO.C,D40*%
G36*
G01*
X159768250Y-71660000D02*
X159255750Y-71660000D01*
G75*
G02*
X159037000Y-71441250I0J218750D01*
G01*
X159037000Y-71003750D01*
G75*
G02*
X159255750Y-70785000I218750J0D01*
G01*
X159768250Y-70785000D01*
G75*
G02*
X159987000Y-71003750I0J-218750D01*
G01*
X159987000Y-71441250D01*
G75*
G02*
X159768250Y-71660000I-218750J0D01*
G01*
G37*
G36*
G01*
X159768250Y-73235000D02*
X159255750Y-73235000D01*
G75*
G02*
X159037000Y-73016250I0J218750D01*
G01*
X159037000Y-72578750D01*
G75*
G02*
X159255750Y-72360000I218750J0D01*
G01*
X159768250Y-72360000D01*
G75*
G02*
X159987000Y-72578750I0J-218750D01*
G01*
X159987000Y-73016250D01*
G75*
G02*
X159768250Y-73235000I-218750J0D01*
G01*
G37*
%TD*%
%TO.C,D39*%
G36*
G01*
X140718250Y-71660000D02*
X140205750Y-71660000D01*
G75*
G02*
X139987000Y-71441250I0J218750D01*
G01*
X139987000Y-71003750D01*
G75*
G02*
X140205750Y-70785000I218750J0D01*
G01*
X140718250Y-70785000D01*
G75*
G02*
X140937000Y-71003750I0J-218750D01*
G01*
X140937000Y-71441250D01*
G75*
G02*
X140718250Y-71660000I-218750J0D01*
G01*
G37*
G36*
G01*
X140718250Y-73235000D02*
X140205750Y-73235000D01*
G75*
G02*
X139987000Y-73016250I0J218750D01*
G01*
X139987000Y-72578750D01*
G75*
G02*
X140205750Y-72360000I218750J0D01*
G01*
X140718250Y-72360000D01*
G75*
G02*
X140937000Y-72578750I0J-218750D01*
G01*
X140937000Y-73016250D01*
G75*
G02*
X140718250Y-73235000I-218750J0D01*
G01*
G37*
%TD*%
%TO.C,D38*%
G36*
G01*
X121668250Y-71660000D02*
X121155750Y-71660000D01*
G75*
G02*
X120937000Y-71441250I0J218750D01*
G01*
X120937000Y-71003750D01*
G75*
G02*
X121155750Y-70785000I218750J0D01*
G01*
X121668250Y-70785000D01*
G75*
G02*
X121887000Y-71003750I0J-218750D01*
G01*
X121887000Y-71441250D01*
G75*
G02*
X121668250Y-71660000I-218750J0D01*
G01*
G37*
G36*
G01*
X121668250Y-73235000D02*
X121155750Y-73235000D01*
G75*
G02*
X120937000Y-73016250I0J218750D01*
G01*
X120937000Y-72578750D01*
G75*
G02*
X121155750Y-72360000I218750J0D01*
G01*
X121668250Y-72360000D01*
G75*
G02*
X121887000Y-72578750I0J-218750D01*
G01*
X121887000Y-73016250D01*
G75*
G02*
X121668250Y-73235000I-218750J0D01*
G01*
G37*
%TD*%
%TO.C,D37*%
G36*
G01*
X102618250Y-71660000D02*
X102105750Y-71660000D01*
G75*
G02*
X101887000Y-71441250I0J218750D01*
G01*
X101887000Y-71003750D01*
G75*
G02*
X102105750Y-70785000I218750J0D01*
G01*
X102618250Y-70785000D01*
G75*
G02*
X102837000Y-71003750I0J-218750D01*
G01*
X102837000Y-71441250D01*
G75*
G02*
X102618250Y-71660000I-218750J0D01*
G01*
G37*
G36*
G01*
X102618250Y-73235000D02*
X102105750Y-73235000D01*
G75*
G02*
X101887000Y-73016250I0J218750D01*
G01*
X101887000Y-72578750D01*
G75*
G02*
X102105750Y-72360000I218750J0D01*
G01*
X102618250Y-72360000D01*
G75*
G02*
X102837000Y-72578750I0J-218750D01*
G01*
X102837000Y-73016250D01*
G75*
G02*
X102618250Y-73235000I-218750J0D01*
G01*
G37*
%TD*%
%TO.C,D36*%
G36*
G01*
X83568250Y-71660000D02*
X83055750Y-71660000D01*
G75*
G02*
X82837000Y-71441250I0J218750D01*
G01*
X82837000Y-71003750D01*
G75*
G02*
X83055750Y-70785000I218750J0D01*
G01*
X83568250Y-70785000D01*
G75*
G02*
X83787000Y-71003750I0J-218750D01*
G01*
X83787000Y-71441250D01*
G75*
G02*
X83568250Y-71660000I-218750J0D01*
G01*
G37*
G36*
G01*
X83568250Y-73235000D02*
X83055750Y-73235000D01*
G75*
G02*
X82837000Y-73016250I0J218750D01*
G01*
X82837000Y-72578750D01*
G75*
G02*
X83055750Y-72360000I218750J0D01*
G01*
X83568250Y-72360000D01*
G75*
G02*
X83787000Y-72578750I0J-218750D01*
G01*
X83787000Y-73016250D01*
G75*
G02*
X83568250Y-73235000I-218750J0D01*
G01*
G37*
%TD*%
%TO.C,D35*%
G36*
G01*
X64518250Y-71660000D02*
X64005750Y-71660000D01*
G75*
G02*
X63787000Y-71441250I0J218750D01*
G01*
X63787000Y-71003750D01*
G75*
G02*
X64005750Y-70785000I218750J0D01*
G01*
X64518250Y-70785000D01*
G75*
G02*
X64737000Y-71003750I0J-218750D01*
G01*
X64737000Y-71441250D01*
G75*
G02*
X64518250Y-71660000I-218750J0D01*
G01*
G37*
G36*
G01*
X64518250Y-73235000D02*
X64005750Y-73235000D01*
G75*
G02*
X63787000Y-73016250I0J218750D01*
G01*
X63787000Y-72578750D01*
G75*
G02*
X64005750Y-72360000I218750J0D01*
G01*
X64518250Y-72360000D01*
G75*
G02*
X64737000Y-72578750I0J-218750D01*
G01*
X64737000Y-73016250D01*
G75*
G02*
X64518250Y-73235000I-218750J0D01*
G01*
G37*
%TD*%
%TO.C,D33*%
G36*
G01*
X38286250Y-71640000D02*
X37773750Y-71640000D01*
G75*
G02*
X37555000Y-71421250I0J218750D01*
G01*
X37555000Y-70983750D01*
G75*
G02*
X37773750Y-70765000I218750J0D01*
G01*
X38286250Y-70765000D01*
G75*
G02*
X38505000Y-70983750I0J-218750D01*
G01*
X38505000Y-71421250D01*
G75*
G02*
X38286250Y-71640000I-218750J0D01*
G01*
G37*
G36*
G01*
X38286250Y-73215000D02*
X37773750Y-73215000D01*
G75*
G02*
X37555000Y-72996250I0J218750D01*
G01*
X37555000Y-72558750D01*
G75*
G02*
X37773750Y-72340000I218750J0D01*
G01*
X38286250Y-72340000D01*
G75*
G02*
X38505000Y-72558750I0J-218750D01*
G01*
X38505000Y-72996250D01*
G75*
G02*
X38286250Y-73215000I-218750J0D01*
G01*
G37*
%TD*%
%TO.C,D32*%
G36*
G01*
X281815250Y-52482000D02*
X281302750Y-52482000D01*
G75*
G02*
X281084000Y-52263250I0J218750D01*
G01*
X281084000Y-51825750D01*
G75*
G02*
X281302750Y-51607000I218750J0D01*
G01*
X281815250Y-51607000D01*
G75*
G02*
X282034000Y-51825750I0J-218750D01*
G01*
X282034000Y-52263250D01*
G75*
G02*
X281815250Y-52482000I-218750J0D01*
G01*
G37*
G36*
G01*
X281815250Y-54057000D02*
X281302750Y-54057000D01*
G75*
G02*
X281084000Y-53838250I0J218750D01*
G01*
X281084000Y-53400750D01*
G75*
G02*
X281302750Y-53182000I218750J0D01*
G01*
X281815250Y-53182000D01*
G75*
G02*
X282034000Y-53400750I0J-218750D01*
G01*
X282034000Y-53838250D01*
G75*
G02*
X281815250Y-54057000I-218750J0D01*
G01*
G37*
%TD*%
%TO.C,D31*%
G36*
G01*
X269242250Y-52482000D02*
X268729750Y-52482000D01*
G75*
G02*
X268511000Y-52263250I0J218750D01*
G01*
X268511000Y-51825750D01*
G75*
G02*
X268729750Y-51607000I218750J0D01*
G01*
X269242250Y-51607000D01*
G75*
G02*
X269461000Y-51825750I0J-218750D01*
G01*
X269461000Y-52263250D01*
G75*
G02*
X269242250Y-52482000I-218750J0D01*
G01*
G37*
G36*
G01*
X269242250Y-54057000D02*
X268729750Y-54057000D01*
G75*
G02*
X268511000Y-53838250I0J218750D01*
G01*
X268511000Y-53400750D01*
G75*
G02*
X268729750Y-53182000I218750J0D01*
G01*
X269242250Y-53182000D01*
G75*
G02*
X269461000Y-53400750I0J-218750D01*
G01*
X269461000Y-53838250D01*
G75*
G02*
X269242250Y-54057000I-218750J0D01*
G01*
G37*
%TD*%
%TO.C,D30*%
G36*
G01*
X250192250Y-52482000D02*
X249679750Y-52482000D01*
G75*
G02*
X249461000Y-52263250I0J218750D01*
G01*
X249461000Y-51825750D01*
G75*
G02*
X249679750Y-51607000I218750J0D01*
G01*
X250192250Y-51607000D01*
G75*
G02*
X250411000Y-51825750I0J-218750D01*
G01*
X250411000Y-52263250D01*
G75*
G02*
X250192250Y-52482000I-218750J0D01*
G01*
G37*
G36*
G01*
X250192250Y-54057000D02*
X249679750Y-54057000D01*
G75*
G02*
X249461000Y-53838250I0J218750D01*
G01*
X249461000Y-53400750D01*
G75*
G02*
X249679750Y-53182000I218750J0D01*
G01*
X250192250Y-53182000D01*
G75*
G02*
X250411000Y-53400750I0J-218750D01*
G01*
X250411000Y-53838250D01*
G75*
G02*
X250192250Y-54057000I-218750J0D01*
G01*
G37*
%TD*%
%TO.C,D29*%
G36*
G01*
X231142250Y-52482000D02*
X230629750Y-52482000D01*
G75*
G02*
X230411000Y-52263250I0J218750D01*
G01*
X230411000Y-51825750D01*
G75*
G02*
X230629750Y-51607000I218750J0D01*
G01*
X231142250Y-51607000D01*
G75*
G02*
X231361000Y-51825750I0J-218750D01*
G01*
X231361000Y-52263250D01*
G75*
G02*
X231142250Y-52482000I-218750J0D01*
G01*
G37*
G36*
G01*
X231142250Y-54057000D02*
X230629750Y-54057000D01*
G75*
G02*
X230411000Y-53838250I0J218750D01*
G01*
X230411000Y-53400750D01*
G75*
G02*
X230629750Y-53182000I218750J0D01*
G01*
X231142250Y-53182000D01*
G75*
G02*
X231361000Y-53400750I0J-218750D01*
G01*
X231361000Y-53838250D01*
G75*
G02*
X231142250Y-54057000I-218750J0D01*
G01*
G37*
%TD*%
%TO.C,D28*%
G36*
G01*
X212092250Y-52482000D02*
X211579750Y-52482000D01*
G75*
G02*
X211361000Y-52263250I0J218750D01*
G01*
X211361000Y-51825750D01*
G75*
G02*
X211579750Y-51607000I218750J0D01*
G01*
X212092250Y-51607000D01*
G75*
G02*
X212311000Y-51825750I0J-218750D01*
G01*
X212311000Y-52263250D01*
G75*
G02*
X212092250Y-52482000I-218750J0D01*
G01*
G37*
G36*
G01*
X212092250Y-54057000D02*
X211579750Y-54057000D01*
G75*
G02*
X211361000Y-53838250I0J218750D01*
G01*
X211361000Y-53400750D01*
G75*
G02*
X211579750Y-53182000I218750J0D01*
G01*
X212092250Y-53182000D01*
G75*
G02*
X212311000Y-53400750I0J-218750D01*
G01*
X212311000Y-53838250D01*
G75*
G02*
X212092250Y-54057000I-218750J0D01*
G01*
G37*
%TD*%
%TO.C,D27*%
G36*
G01*
X193042250Y-52482000D02*
X192529750Y-52482000D01*
G75*
G02*
X192311000Y-52263250I0J218750D01*
G01*
X192311000Y-51825750D01*
G75*
G02*
X192529750Y-51607000I218750J0D01*
G01*
X193042250Y-51607000D01*
G75*
G02*
X193261000Y-51825750I0J-218750D01*
G01*
X193261000Y-52263250D01*
G75*
G02*
X193042250Y-52482000I-218750J0D01*
G01*
G37*
G36*
G01*
X193042250Y-54057000D02*
X192529750Y-54057000D01*
G75*
G02*
X192311000Y-53838250I0J218750D01*
G01*
X192311000Y-53400750D01*
G75*
G02*
X192529750Y-53182000I218750J0D01*
G01*
X193042250Y-53182000D01*
G75*
G02*
X193261000Y-53400750I0J-218750D01*
G01*
X193261000Y-53838250D01*
G75*
G02*
X193042250Y-54057000I-218750J0D01*
G01*
G37*
%TD*%
%TO.C,D26*%
G36*
G01*
X173992250Y-52482000D02*
X173479750Y-52482000D01*
G75*
G02*
X173261000Y-52263250I0J218750D01*
G01*
X173261000Y-51825750D01*
G75*
G02*
X173479750Y-51607000I218750J0D01*
G01*
X173992250Y-51607000D01*
G75*
G02*
X174211000Y-51825750I0J-218750D01*
G01*
X174211000Y-52263250D01*
G75*
G02*
X173992250Y-52482000I-218750J0D01*
G01*
G37*
G36*
G01*
X173992250Y-54057000D02*
X173479750Y-54057000D01*
G75*
G02*
X173261000Y-53838250I0J218750D01*
G01*
X173261000Y-53400750D01*
G75*
G02*
X173479750Y-53182000I218750J0D01*
G01*
X173992250Y-53182000D01*
G75*
G02*
X174211000Y-53400750I0J-218750D01*
G01*
X174211000Y-53838250D01*
G75*
G02*
X173992250Y-54057000I-218750J0D01*
G01*
G37*
%TD*%
%TO.C,D25*%
G36*
G01*
X154942250Y-52482000D02*
X154429750Y-52482000D01*
G75*
G02*
X154211000Y-52263250I0J218750D01*
G01*
X154211000Y-51825750D01*
G75*
G02*
X154429750Y-51607000I218750J0D01*
G01*
X154942250Y-51607000D01*
G75*
G02*
X155161000Y-51825750I0J-218750D01*
G01*
X155161000Y-52263250D01*
G75*
G02*
X154942250Y-52482000I-218750J0D01*
G01*
G37*
G36*
G01*
X154942250Y-54057000D02*
X154429750Y-54057000D01*
G75*
G02*
X154211000Y-53838250I0J218750D01*
G01*
X154211000Y-53400750D01*
G75*
G02*
X154429750Y-53182000I218750J0D01*
G01*
X154942250Y-53182000D01*
G75*
G02*
X155161000Y-53400750I0J-218750D01*
G01*
X155161000Y-53838250D01*
G75*
G02*
X154942250Y-54057000I-218750J0D01*
G01*
G37*
%TD*%
%TO.C,D24*%
G36*
G01*
X135892250Y-52482000D02*
X135379750Y-52482000D01*
G75*
G02*
X135161000Y-52263250I0J218750D01*
G01*
X135161000Y-51825750D01*
G75*
G02*
X135379750Y-51607000I218750J0D01*
G01*
X135892250Y-51607000D01*
G75*
G02*
X136111000Y-51825750I0J-218750D01*
G01*
X136111000Y-52263250D01*
G75*
G02*
X135892250Y-52482000I-218750J0D01*
G01*
G37*
G36*
G01*
X135892250Y-54057000D02*
X135379750Y-54057000D01*
G75*
G02*
X135161000Y-53838250I0J218750D01*
G01*
X135161000Y-53400750D01*
G75*
G02*
X135379750Y-53182000I218750J0D01*
G01*
X135892250Y-53182000D01*
G75*
G02*
X136111000Y-53400750I0J-218750D01*
G01*
X136111000Y-53838250D01*
G75*
G02*
X135892250Y-54057000I-218750J0D01*
G01*
G37*
%TD*%
%TO.C,D23*%
G36*
G01*
X116842250Y-52482000D02*
X116329750Y-52482000D01*
G75*
G02*
X116111000Y-52263250I0J218750D01*
G01*
X116111000Y-51825750D01*
G75*
G02*
X116329750Y-51607000I218750J0D01*
G01*
X116842250Y-51607000D01*
G75*
G02*
X117061000Y-51825750I0J-218750D01*
G01*
X117061000Y-52263250D01*
G75*
G02*
X116842250Y-52482000I-218750J0D01*
G01*
G37*
G36*
G01*
X116842250Y-54057000D02*
X116329750Y-54057000D01*
G75*
G02*
X116111000Y-53838250I0J218750D01*
G01*
X116111000Y-53400750D01*
G75*
G02*
X116329750Y-53182000I218750J0D01*
G01*
X116842250Y-53182000D01*
G75*
G02*
X117061000Y-53400750I0J-218750D01*
G01*
X117061000Y-53838250D01*
G75*
G02*
X116842250Y-54057000I-218750J0D01*
G01*
G37*
%TD*%
%TO.C,D22*%
G36*
G01*
X97792250Y-52482000D02*
X97279750Y-52482000D01*
G75*
G02*
X97061000Y-52263250I0J218750D01*
G01*
X97061000Y-51825750D01*
G75*
G02*
X97279750Y-51607000I218750J0D01*
G01*
X97792250Y-51607000D01*
G75*
G02*
X98011000Y-51825750I0J-218750D01*
G01*
X98011000Y-52263250D01*
G75*
G02*
X97792250Y-52482000I-218750J0D01*
G01*
G37*
G36*
G01*
X97792250Y-54057000D02*
X97279750Y-54057000D01*
G75*
G02*
X97061000Y-53838250I0J218750D01*
G01*
X97061000Y-53400750D01*
G75*
G02*
X97279750Y-53182000I218750J0D01*
G01*
X97792250Y-53182000D01*
G75*
G02*
X98011000Y-53400750I0J-218750D01*
G01*
X98011000Y-53838250D01*
G75*
G02*
X97792250Y-54057000I-218750J0D01*
G01*
G37*
%TD*%
%TO.C,D21*%
G36*
G01*
X78742250Y-52482000D02*
X78229750Y-52482000D01*
G75*
G02*
X78011000Y-52263250I0J218750D01*
G01*
X78011000Y-51825750D01*
G75*
G02*
X78229750Y-51607000I218750J0D01*
G01*
X78742250Y-51607000D01*
G75*
G02*
X78961000Y-51825750I0J-218750D01*
G01*
X78961000Y-52263250D01*
G75*
G02*
X78742250Y-52482000I-218750J0D01*
G01*
G37*
G36*
G01*
X78742250Y-54057000D02*
X78229750Y-54057000D01*
G75*
G02*
X78011000Y-53838250I0J218750D01*
G01*
X78011000Y-53400750D01*
G75*
G02*
X78229750Y-53182000I218750J0D01*
G01*
X78742250Y-53182000D01*
G75*
G02*
X78961000Y-53400750I0J-218750D01*
G01*
X78961000Y-53838250D01*
G75*
G02*
X78742250Y-54057000I-218750J0D01*
G01*
G37*
%TD*%
%TO.C,D20*%
G36*
G01*
X59692250Y-52482000D02*
X59179750Y-52482000D01*
G75*
G02*
X58961000Y-52263250I0J218750D01*
G01*
X58961000Y-51825750D01*
G75*
G02*
X59179750Y-51607000I218750J0D01*
G01*
X59692250Y-51607000D01*
G75*
G02*
X59911000Y-51825750I0J-218750D01*
G01*
X59911000Y-52263250D01*
G75*
G02*
X59692250Y-52482000I-218750J0D01*
G01*
G37*
G36*
G01*
X59692250Y-54057000D02*
X59179750Y-54057000D01*
G75*
G02*
X58961000Y-53838250I0J218750D01*
G01*
X58961000Y-53400750D01*
G75*
G02*
X59179750Y-53182000I218750J0D01*
G01*
X59692250Y-53182000D01*
G75*
G02*
X59911000Y-53400750I0J-218750D01*
G01*
X59911000Y-53838250D01*
G75*
G02*
X59692250Y-54057000I-218750J0D01*
G01*
G37*
%TD*%
%TO.C,D19*%
G36*
G01*
X35886250Y-52470000D02*
X35373750Y-52470000D01*
G75*
G02*
X35155000Y-52251250I0J218750D01*
G01*
X35155000Y-51813750D01*
G75*
G02*
X35373750Y-51595000I218750J0D01*
G01*
X35886250Y-51595000D01*
G75*
G02*
X36105000Y-51813750I0J-218750D01*
G01*
X36105000Y-52251250D01*
G75*
G02*
X35886250Y-52470000I-218750J0D01*
G01*
G37*
G36*
G01*
X35886250Y-54045000D02*
X35373750Y-54045000D01*
G75*
G02*
X35155000Y-53826250I0J218750D01*
G01*
X35155000Y-53388750D01*
G75*
G02*
X35373750Y-53170000I218750J0D01*
G01*
X35886250Y-53170000D01*
G75*
G02*
X36105000Y-53388750I0J-218750D01*
G01*
X36105000Y-53826250D01*
G75*
G02*
X35886250Y-54045000I-218750J0D01*
G01*
G37*
%TD*%
%TO.C,D18*%
G36*
G01*
X290070250Y-33305000D02*
X289557750Y-33305000D01*
G75*
G02*
X289339000Y-33086250I0J218750D01*
G01*
X289339000Y-32648750D01*
G75*
G02*
X289557750Y-32430000I218750J0D01*
G01*
X290070250Y-32430000D01*
G75*
G02*
X290289000Y-32648750I0J-218750D01*
G01*
X290289000Y-33086250D01*
G75*
G02*
X290070250Y-33305000I-218750J0D01*
G01*
G37*
G36*
G01*
X290070250Y-34880000D02*
X289557750Y-34880000D01*
G75*
G02*
X289339000Y-34661250I0J218750D01*
G01*
X289339000Y-34223750D01*
G75*
G02*
X289557750Y-34005000I218750J0D01*
G01*
X290070250Y-34005000D01*
G75*
G02*
X290289000Y-34223750I0J-218750D01*
G01*
X290289000Y-34661250D01*
G75*
G02*
X290070250Y-34880000I-218750J0D01*
G01*
G37*
%TD*%
%TO.C,D16*%
G36*
G01*
X281307250Y-33305000D02*
X280794750Y-33305000D01*
G75*
G02*
X280576000Y-33086250I0J218750D01*
G01*
X280576000Y-32648750D01*
G75*
G02*
X280794750Y-32430000I218750J0D01*
G01*
X281307250Y-32430000D01*
G75*
G02*
X281526000Y-32648750I0J-218750D01*
G01*
X281526000Y-33086250D01*
G75*
G02*
X281307250Y-33305000I-218750J0D01*
G01*
G37*
G36*
G01*
X281307250Y-34880000D02*
X280794750Y-34880000D01*
G75*
G02*
X280576000Y-34661250I0J218750D01*
G01*
X280576000Y-34223750D01*
G75*
G02*
X280794750Y-34005000I218750J0D01*
G01*
X281307250Y-34005000D01*
G75*
G02*
X281526000Y-34223750I0J-218750D01*
G01*
X281526000Y-34661250D01*
G75*
G02*
X281307250Y-34880000I-218750J0D01*
G01*
G37*
%TD*%
%TO.C,D15*%
G36*
G01*
X259717250Y-33305000D02*
X259204750Y-33305000D01*
G75*
G02*
X258986000Y-33086250I0J218750D01*
G01*
X258986000Y-32648750D01*
G75*
G02*
X259204750Y-32430000I218750J0D01*
G01*
X259717250Y-32430000D01*
G75*
G02*
X259936000Y-32648750I0J-218750D01*
G01*
X259936000Y-33086250D01*
G75*
G02*
X259717250Y-33305000I-218750J0D01*
G01*
G37*
G36*
G01*
X259717250Y-34880000D02*
X259204750Y-34880000D01*
G75*
G02*
X258986000Y-34661250I0J218750D01*
G01*
X258986000Y-34223750D01*
G75*
G02*
X259204750Y-34005000I218750J0D01*
G01*
X259717250Y-34005000D01*
G75*
G02*
X259936000Y-34223750I0J-218750D01*
G01*
X259936000Y-34661250D01*
G75*
G02*
X259717250Y-34880000I-218750J0D01*
G01*
G37*
%TD*%
%TO.C,D14*%
G36*
G01*
X240667250Y-33305000D02*
X240154750Y-33305000D01*
G75*
G02*
X239936000Y-33086250I0J218750D01*
G01*
X239936000Y-32648750D01*
G75*
G02*
X240154750Y-32430000I218750J0D01*
G01*
X240667250Y-32430000D01*
G75*
G02*
X240886000Y-32648750I0J-218750D01*
G01*
X240886000Y-33086250D01*
G75*
G02*
X240667250Y-33305000I-218750J0D01*
G01*
G37*
G36*
G01*
X240667250Y-34880000D02*
X240154750Y-34880000D01*
G75*
G02*
X239936000Y-34661250I0J218750D01*
G01*
X239936000Y-34223750D01*
G75*
G02*
X240154750Y-34005000I218750J0D01*
G01*
X240667250Y-34005000D01*
G75*
G02*
X240886000Y-34223750I0J-218750D01*
G01*
X240886000Y-34661250D01*
G75*
G02*
X240667250Y-34880000I-218750J0D01*
G01*
G37*
%TD*%
%TO.C,D13*%
G36*
G01*
X221617250Y-33305000D02*
X221104750Y-33305000D01*
G75*
G02*
X220886000Y-33086250I0J218750D01*
G01*
X220886000Y-32648750D01*
G75*
G02*
X221104750Y-32430000I218750J0D01*
G01*
X221617250Y-32430000D01*
G75*
G02*
X221836000Y-32648750I0J-218750D01*
G01*
X221836000Y-33086250D01*
G75*
G02*
X221617250Y-33305000I-218750J0D01*
G01*
G37*
G36*
G01*
X221617250Y-34880000D02*
X221104750Y-34880000D01*
G75*
G02*
X220886000Y-34661250I0J218750D01*
G01*
X220886000Y-34223750D01*
G75*
G02*
X221104750Y-34005000I218750J0D01*
G01*
X221617250Y-34005000D01*
G75*
G02*
X221836000Y-34223750I0J-218750D01*
G01*
X221836000Y-34661250D01*
G75*
G02*
X221617250Y-34880000I-218750J0D01*
G01*
G37*
%TD*%
%TO.C,D12*%
G36*
G01*
X202567250Y-33305000D02*
X202054750Y-33305000D01*
G75*
G02*
X201836000Y-33086250I0J218750D01*
G01*
X201836000Y-32648750D01*
G75*
G02*
X202054750Y-32430000I218750J0D01*
G01*
X202567250Y-32430000D01*
G75*
G02*
X202786000Y-32648750I0J-218750D01*
G01*
X202786000Y-33086250D01*
G75*
G02*
X202567250Y-33305000I-218750J0D01*
G01*
G37*
G36*
G01*
X202567250Y-34880000D02*
X202054750Y-34880000D01*
G75*
G02*
X201836000Y-34661250I0J218750D01*
G01*
X201836000Y-34223750D01*
G75*
G02*
X202054750Y-34005000I218750J0D01*
G01*
X202567250Y-34005000D01*
G75*
G02*
X202786000Y-34223750I0J-218750D01*
G01*
X202786000Y-34661250D01*
G75*
G02*
X202567250Y-34880000I-218750J0D01*
G01*
G37*
%TD*%
%TO.C,D11*%
G36*
G01*
X183517250Y-33305000D02*
X183004750Y-33305000D01*
G75*
G02*
X182786000Y-33086250I0J218750D01*
G01*
X182786000Y-32648750D01*
G75*
G02*
X183004750Y-32430000I218750J0D01*
G01*
X183517250Y-32430000D01*
G75*
G02*
X183736000Y-32648750I0J-218750D01*
G01*
X183736000Y-33086250D01*
G75*
G02*
X183517250Y-33305000I-218750J0D01*
G01*
G37*
G36*
G01*
X183517250Y-34880000D02*
X183004750Y-34880000D01*
G75*
G02*
X182786000Y-34661250I0J218750D01*
G01*
X182786000Y-34223750D01*
G75*
G02*
X183004750Y-34005000I218750J0D01*
G01*
X183517250Y-34005000D01*
G75*
G02*
X183736000Y-34223750I0J-218750D01*
G01*
X183736000Y-34661250D01*
G75*
G02*
X183517250Y-34880000I-218750J0D01*
G01*
G37*
%TD*%
%TO.C,D10*%
G36*
G01*
X164467250Y-33305000D02*
X163954750Y-33305000D01*
G75*
G02*
X163736000Y-33086250I0J218750D01*
G01*
X163736000Y-32648750D01*
G75*
G02*
X163954750Y-32430000I218750J0D01*
G01*
X164467250Y-32430000D01*
G75*
G02*
X164686000Y-32648750I0J-218750D01*
G01*
X164686000Y-33086250D01*
G75*
G02*
X164467250Y-33305000I-218750J0D01*
G01*
G37*
G36*
G01*
X164467250Y-34880000D02*
X163954750Y-34880000D01*
G75*
G02*
X163736000Y-34661250I0J218750D01*
G01*
X163736000Y-34223750D01*
G75*
G02*
X163954750Y-34005000I218750J0D01*
G01*
X164467250Y-34005000D01*
G75*
G02*
X164686000Y-34223750I0J-218750D01*
G01*
X164686000Y-34661250D01*
G75*
G02*
X164467250Y-34880000I-218750J0D01*
G01*
G37*
%TD*%
%TO.C,D9*%
G36*
G01*
X145417250Y-33305000D02*
X144904750Y-33305000D01*
G75*
G02*
X144686000Y-33086250I0J218750D01*
G01*
X144686000Y-32648750D01*
G75*
G02*
X144904750Y-32430000I218750J0D01*
G01*
X145417250Y-32430000D01*
G75*
G02*
X145636000Y-32648750I0J-218750D01*
G01*
X145636000Y-33086250D01*
G75*
G02*
X145417250Y-33305000I-218750J0D01*
G01*
G37*
G36*
G01*
X145417250Y-34880000D02*
X144904750Y-34880000D01*
G75*
G02*
X144686000Y-34661250I0J218750D01*
G01*
X144686000Y-34223750D01*
G75*
G02*
X144904750Y-34005000I218750J0D01*
G01*
X145417250Y-34005000D01*
G75*
G02*
X145636000Y-34223750I0J-218750D01*
G01*
X145636000Y-34661250D01*
G75*
G02*
X145417250Y-34880000I-218750J0D01*
G01*
G37*
%TD*%
%TO.C,D8*%
G36*
G01*
X126367250Y-33305000D02*
X125854750Y-33305000D01*
G75*
G02*
X125636000Y-33086250I0J218750D01*
G01*
X125636000Y-32648750D01*
G75*
G02*
X125854750Y-32430000I218750J0D01*
G01*
X126367250Y-32430000D01*
G75*
G02*
X126586000Y-32648750I0J-218750D01*
G01*
X126586000Y-33086250D01*
G75*
G02*
X126367250Y-33305000I-218750J0D01*
G01*
G37*
G36*
G01*
X126367250Y-34880000D02*
X125854750Y-34880000D01*
G75*
G02*
X125636000Y-34661250I0J218750D01*
G01*
X125636000Y-34223750D01*
G75*
G02*
X125854750Y-34005000I218750J0D01*
G01*
X126367250Y-34005000D01*
G75*
G02*
X126586000Y-34223750I0J-218750D01*
G01*
X126586000Y-34661250D01*
G75*
G02*
X126367250Y-34880000I-218750J0D01*
G01*
G37*
%TD*%
%TO.C,D7*%
G36*
G01*
X107317250Y-33305000D02*
X106804750Y-33305000D01*
G75*
G02*
X106586000Y-33086250I0J218750D01*
G01*
X106586000Y-32648750D01*
G75*
G02*
X106804750Y-32430000I218750J0D01*
G01*
X107317250Y-32430000D01*
G75*
G02*
X107536000Y-32648750I0J-218750D01*
G01*
X107536000Y-33086250D01*
G75*
G02*
X107317250Y-33305000I-218750J0D01*
G01*
G37*
G36*
G01*
X107317250Y-34880000D02*
X106804750Y-34880000D01*
G75*
G02*
X106586000Y-34661250I0J218750D01*
G01*
X106586000Y-34223750D01*
G75*
G02*
X106804750Y-34005000I218750J0D01*
G01*
X107317250Y-34005000D01*
G75*
G02*
X107536000Y-34223750I0J-218750D01*
G01*
X107536000Y-34661250D01*
G75*
G02*
X107317250Y-34880000I-218750J0D01*
G01*
G37*
%TD*%
%TO.C,D6*%
G36*
G01*
X88267250Y-33305000D02*
X87754750Y-33305000D01*
G75*
G02*
X87536000Y-33086250I0J218750D01*
G01*
X87536000Y-32648750D01*
G75*
G02*
X87754750Y-32430000I218750J0D01*
G01*
X88267250Y-32430000D01*
G75*
G02*
X88486000Y-32648750I0J-218750D01*
G01*
X88486000Y-33086250D01*
G75*
G02*
X88267250Y-33305000I-218750J0D01*
G01*
G37*
G36*
G01*
X88267250Y-34880000D02*
X87754750Y-34880000D01*
G75*
G02*
X87536000Y-34661250I0J218750D01*
G01*
X87536000Y-34223750D01*
G75*
G02*
X87754750Y-34005000I218750J0D01*
G01*
X88267250Y-34005000D01*
G75*
G02*
X88486000Y-34223750I0J-218750D01*
G01*
X88486000Y-34661250D01*
G75*
G02*
X88267250Y-34880000I-218750J0D01*
G01*
G37*
%TD*%
%TO.C,D5*%
G36*
G01*
X69217250Y-33305000D02*
X68704750Y-33305000D01*
G75*
G02*
X68486000Y-33086250I0J218750D01*
G01*
X68486000Y-32648750D01*
G75*
G02*
X68704750Y-32430000I218750J0D01*
G01*
X69217250Y-32430000D01*
G75*
G02*
X69436000Y-32648750I0J-218750D01*
G01*
X69436000Y-33086250D01*
G75*
G02*
X69217250Y-33305000I-218750J0D01*
G01*
G37*
G36*
G01*
X69217250Y-34880000D02*
X68704750Y-34880000D01*
G75*
G02*
X68486000Y-34661250I0J218750D01*
G01*
X68486000Y-34223750D01*
G75*
G02*
X68704750Y-34005000I218750J0D01*
G01*
X69217250Y-34005000D01*
G75*
G02*
X69436000Y-34223750I0J-218750D01*
G01*
X69436000Y-34661250D01*
G75*
G02*
X69217250Y-34880000I-218750J0D01*
G01*
G37*
%TD*%
%TO.C,D4*%
G36*
G01*
X50167250Y-33305000D02*
X49654750Y-33305000D01*
G75*
G02*
X49436000Y-33086250I0J218750D01*
G01*
X49436000Y-32648750D01*
G75*
G02*
X49654750Y-32430000I218750J0D01*
G01*
X50167250Y-32430000D01*
G75*
G02*
X50386000Y-32648750I0J-218750D01*
G01*
X50386000Y-33086250D01*
G75*
G02*
X50167250Y-33305000I-218750J0D01*
G01*
G37*
G36*
G01*
X50167250Y-34880000D02*
X49654750Y-34880000D01*
G75*
G02*
X49436000Y-34661250I0J218750D01*
G01*
X49436000Y-34223750D01*
G75*
G02*
X49654750Y-34005000I218750J0D01*
G01*
X50167250Y-34005000D01*
G75*
G02*
X50386000Y-34223750I0J-218750D01*
G01*
X50386000Y-34661250D01*
G75*
G02*
X50167250Y-34880000I-218750J0D01*
G01*
G37*
%TD*%
%TO.C,D3*%
G36*
G01*
X31117250Y-33305000D02*
X30604750Y-33305000D01*
G75*
G02*
X30386000Y-33086250I0J218750D01*
G01*
X30386000Y-32648750D01*
G75*
G02*
X30604750Y-32430000I218750J0D01*
G01*
X31117250Y-32430000D01*
G75*
G02*
X31336000Y-32648750I0J-218750D01*
G01*
X31336000Y-33086250D01*
G75*
G02*
X31117250Y-33305000I-218750J0D01*
G01*
G37*
G36*
G01*
X31117250Y-34880000D02*
X30604750Y-34880000D01*
G75*
G02*
X30386000Y-34661250I0J218750D01*
G01*
X30386000Y-34223750D01*
G75*
G02*
X30604750Y-34005000I218750J0D01*
G01*
X31117250Y-34005000D01*
G75*
G02*
X31336000Y-34223750I0J-218750D01*
G01*
X31336000Y-34661250D01*
G75*
G02*
X31117250Y-34880000I-218750J0D01*
G01*
G37*
%TD*%
D19*
%TO.C,J4*%
X177673000Y-102616000D03*
X177673000Y-100076000D03*
D20*
X177673000Y-97536000D03*
%TD*%
D21*
%TO.C,HOLE*%
X45212000Y-46482000D03*
%TD*%
%TO.C,HOLE*%
X210566000Y-103632000D03*
%TD*%
%TO.C,HOLE*%
X277876000Y-46228000D03*
%TD*%
%TO.C,HOLE*%
X147347000Y-65405000D03*
%TD*%
D22*
%TO.C,HOLE*%
X303403000Y-74930000D03*
%TD*%
%TO.C,HOLE*%
X19685000Y-75057000D03*
%TD*%
%TO.C,R7*%
G36*
G01*
X205705000Y-103935000D02*
X205705000Y-103385000D01*
G75*
G02*
X205905000Y-103185000I200000J0D01*
G01*
X206305000Y-103185000D01*
G75*
G02*
X206505000Y-103385000I0J-200000D01*
G01*
X206505000Y-103935000D01*
G75*
G02*
X206305000Y-104135000I-200000J0D01*
G01*
X205905000Y-104135000D01*
G75*
G02*
X205705000Y-103935000I0J200000D01*
G01*
G37*
G36*
G01*
X204055000Y-103935000D02*
X204055000Y-103385000D01*
G75*
G02*
X204255000Y-103185000I200000J0D01*
G01*
X204655000Y-103185000D01*
G75*
G02*
X204855000Y-103385000I0J-200000D01*
G01*
X204855000Y-103935000D01*
G75*
G02*
X204655000Y-104135000I-200000J0D01*
G01*
X204255000Y-104135000D01*
G75*
G02*
X204055000Y-103935000I0J200000D01*
G01*
G37*
%TD*%
%TO.C,R6*%
G36*
G01*
X204875000Y-105105000D02*
X204875000Y-105655000D01*
G75*
G02*
X204675000Y-105855000I-200000J0D01*
G01*
X204275000Y-105855000D01*
G75*
G02*
X204075000Y-105655000I0J200000D01*
G01*
X204075000Y-105105000D01*
G75*
G02*
X204275000Y-104905000I200000J0D01*
G01*
X204675000Y-104905000D01*
G75*
G02*
X204875000Y-105105000I0J-200000D01*
G01*
G37*
G36*
G01*
X206525000Y-105105000D02*
X206525000Y-105655000D01*
G75*
G02*
X206325000Y-105855000I-200000J0D01*
G01*
X205925000Y-105855000D01*
G75*
G02*
X205725000Y-105655000I0J200000D01*
G01*
X205725000Y-105105000D01*
G75*
G02*
X205925000Y-104905000I200000J0D01*
G01*
X206325000Y-104905000D01*
G75*
G02*
X206525000Y-105105000I0J-200000D01*
G01*
G37*
%TD*%
%TO.C,R5*%
G36*
G01*
X33888000Y-31223000D02*
X34438000Y-31223000D01*
G75*
G02*
X34638000Y-31423000I0J-200000D01*
G01*
X34638000Y-31823000D01*
G75*
G02*
X34438000Y-32023000I-200000J0D01*
G01*
X33888000Y-32023000D01*
G75*
G02*
X33688000Y-31823000I0J200000D01*
G01*
X33688000Y-31423000D01*
G75*
G02*
X33888000Y-31223000I200000J0D01*
G01*
G37*
G36*
G01*
X33888000Y-29573000D02*
X34438000Y-29573000D01*
G75*
G02*
X34638000Y-29773000I0J-200000D01*
G01*
X34638000Y-30173000D01*
G75*
G02*
X34438000Y-30373000I-200000J0D01*
G01*
X33888000Y-30373000D01*
G75*
G02*
X33688000Y-30173000I0J200000D01*
G01*
X33688000Y-29773000D01*
G75*
G02*
X33888000Y-29573000I200000J0D01*
G01*
G37*
%TD*%
%TO.C,R4*%
G36*
G01*
X41381000Y-31159000D02*
X41931000Y-31159000D01*
G75*
G02*
X42131000Y-31359000I0J-200000D01*
G01*
X42131000Y-31759000D01*
G75*
G02*
X41931000Y-31959000I-200000J0D01*
G01*
X41381000Y-31959000D01*
G75*
G02*
X41181000Y-31759000I0J200000D01*
G01*
X41181000Y-31359000D01*
G75*
G02*
X41381000Y-31159000I200000J0D01*
G01*
G37*
G36*
G01*
X41381000Y-29509000D02*
X41931000Y-29509000D01*
G75*
G02*
X42131000Y-29709000I0J-200000D01*
G01*
X42131000Y-30109000D01*
G75*
G02*
X41931000Y-30309000I-200000J0D01*
G01*
X41381000Y-30309000D01*
G75*
G02*
X41181000Y-30109000I0J200000D01*
G01*
X41181000Y-29709000D01*
G75*
G02*
X41381000Y-29509000I200000J0D01*
G01*
G37*
%TD*%
%TO.C,R3*%
G36*
G01*
X134133000Y-96222000D02*
X133583000Y-96222000D01*
G75*
G02*
X133383000Y-96022000I0J200000D01*
G01*
X133383000Y-95622000D01*
G75*
G02*
X133583000Y-95422000I200000J0D01*
G01*
X134133000Y-95422000D01*
G75*
G02*
X134333000Y-95622000I0J-200000D01*
G01*
X134333000Y-96022000D01*
G75*
G02*
X134133000Y-96222000I-200000J0D01*
G01*
G37*
G36*
G01*
X134133000Y-97872000D02*
X133583000Y-97872000D01*
G75*
G02*
X133383000Y-97672000I0J200000D01*
G01*
X133383000Y-97272000D01*
G75*
G02*
X133583000Y-97072000I200000J0D01*
G01*
X134133000Y-97072000D01*
G75*
G02*
X134333000Y-97272000I0J-200000D01*
G01*
X134333000Y-97672000D01*
G75*
G02*
X134133000Y-97872000I-200000J0D01*
G01*
G37*
%TD*%
%TO.C,R2*%
G36*
G01*
X154411000Y-94405000D02*
X154961000Y-94405000D01*
G75*
G02*
X155161000Y-94605000I0J-200000D01*
G01*
X155161000Y-95005000D01*
G75*
G02*
X154961000Y-95205000I-200000J0D01*
G01*
X154411000Y-95205000D01*
G75*
G02*
X154211000Y-95005000I0J200000D01*
G01*
X154211000Y-94605000D01*
G75*
G02*
X154411000Y-94405000I200000J0D01*
G01*
G37*
G36*
G01*
X154411000Y-92755000D02*
X154961000Y-92755000D01*
G75*
G02*
X155161000Y-92955000I0J-200000D01*
G01*
X155161000Y-93355000D01*
G75*
G02*
X154961000Y-93555000I-200000J0D01*
G01*
X154411000Y-93555000D01*
G75*
G02*
X154211000Y-93355000I0J200000D01*
G01*
X154211000Y-92955000D01*
G75*
G02*
X154411000Y-92755000I200000J0D01*
G01*
G37*
%TD*%
%TO.C,R1*%
G36*
G01*
X148126000Y-100478000D02*
X148126000Y-99928000D01*
G75*
G02*
X148326000Y-99728000I200000J0D01*
G01*
X148726000Y-99728000D01*
G75*
G02*
X148926000Y-99928000I0J-200000D01*
G01*
X148926000Y-100478000D01*
G75*
G02*
X148726000Y-100678000I-200000J0D01*
G01*
X148326000Y-100678000D01*
G75*
G02*
X148126000Y-100478000I0J200000D01*
G01*
G37*
G36*
G01*
X146476000Y-100478000D02*
X146476000Y-99928000D01*
G75*
G02*
X146676000Y-99728000I200000J0D01*
G01*
X147076000Y-99728000D01*
G75*
G02*
X147276000Y-99928000I0J-200000D01*
G01*
X147276000Y-100478000D01*
G75*
G02*
X147076000Y-100678000I-200000J0D01*
G01*
X146676000Y-100678000D01*
G75*
G02*
X146476000Y-100478000I0J200000D01*
G01*
G37*
%TD*%
D23*
%TO.C,U4*%
X37846000Y-29507000D03*
X38796000Y-29507000D03*
X36896000Y-29507000D03*
X36896000Y-31707000D03*
X37846000Y-31707000D03*
X38796000Y-31707000D03*
%TD*%
D16*
%TO.C,MX46*%
X284358054Y-43935542D03*
X284358054Y-67811542D03*
D18*
X299598054Y-43935542D03*
X299598054Y-67811542D03*
D17*
X297693054Y-55873542D03*
X287533054Y-55873542D03*
D24*
X293883054Y-60953542D03*
D25*
X291343054Y-60953542D03*
D15*
X288803054Y-53333542D03*
D16*
X292613054Y-55873542D03*
D15*
X295153054Y-50793542D03*
%TD*%
%TO.C,MX48*%
X42799250Y-79374500D03*
D16*
X40259250Y-84454500D03*
D15*
X36449250Y-81914500D03*
D17*
X35179250Y-84454500D03*
X45339250Y-84454500D03*
D18*
X28353000Y-77469500D03*
X52165500Y-77469500D03*
D16*
X28353000Y-92709500D03*
X52165500Y-92709500D03*
%TD*%
D15*
%TO.C,MX47*%
X33249250Y-79374500D03*
D16*
X30709250Y-84454500D03*
D15*
X26899250Y-81914500D03*
D17*
X25629250Y-84454500D03*
X35789250Y-84454500D03*
%TD*%
D15*
%TO.C,MX69*%
X292799500Y-98425000D03*
D16*
X290259500Y-103505000D03*
D15*
X286449500Y-100965000D03*
D17*
X285179500Y-103505000D03*
X295339500Y-103505000D03*
%TD*%
D15*
%TO.C,MX68*%
X268986000Y-98425000D03*
D16*
X266446000Y-103505000D03*
D15*
X262636000Y-100965000D03*
D17*
X261366000Y-103505000D03*
X271526000Y-103505000D03*
%TD*%
D15*
%TO.C,MX67*%
X245172500Y-98425000D03*
D16*
X242632500Y-103505000D03*
D15*
X238822500Y-100965000D03*
D17*
X237552500Y-103505000D03*
X247712500Y-103505000D03*
%TD*%
D15*
%TO.C,MX65*%
X83247500Y-98424500D03*
D16*
X80707500Y-103504500D03*
D15*
X76897500Y-100964500D03*
D17*
X75627500Y-103504500D03*
X85787500Y-103504500D03*
%TD*%
D15*
%TO.C,MX64*%
X59436000Y-98425000D03*
D16*
X56896000Y-103505000D03*
D15*
X53086000Y-100965000D03*
D17*
X51816000Y-103505000D03*
X61976000Y-103505000D03*
%TD*%
D15*
%TO.C,MX63*%
X35624250Y-98424500D03*
D16*
X33084250Y-103504500D03*
D15*
X29274250Y-100964500D03*
D17*
X28004250Y-103504500D03*
X38164250Y-103504500D03*
%TD*%
D15*
%TO.C,MX62*%
X297561000Y-79375000D03*
D16*
X295021000Y-84455000D03*
D15*
X291211000Y-81915000D03*
D17*
X289941000Y-84455000D03*
X300101000Y-84455000D03*
%TD*%
D15*
%TO.C,MX61*%
X280924000Y-79375000D03*
D16*
X278384000Y-84455000D03*
D15*
X274574000Y-81915000D03*
D17*
X273304000Y-84455000D03*
X283464000Y-84455000D03*
D18*
X266477750Y-77470000D03*
X290290250Y-77470000D03*
D16*
X266477750Y-92710000D03*
X290290250Y-92710000D03*
%TD*%
D15*
%TO.C,MX60*%
X271399000Y-79375000D03*
D16*
X268859000Y-84455000D03*
D15*
X265049000Y-81915000D03*
D17*
X263779000Y-84455000D03*
X273939000Y-84455000D03*
%TD*%
D15*
%TO.C,MX59*%
X245153054Y-79368542D03*
D16*
X242613054Y-84448542D03*
D15*
X238803054Y-81908542D03*
D17*
X237533054Y-84448542D03*
X247693054Y-84448542D03*
%TD*%
D15*
%TO.C,MX58*%
X226103054Y-79368542D03*
D16*
X223563054Y-84448542D03*
D15*
X219753054Y-81908542D03*
D17*
X218483054Y-84448542D03*
X228643054Y-84448542D03*
%TD*%
D15*
%TO.C,MX57*%
X207053054Y-79368542D03*
D16*
X204513054Y-84448542D03*
D15*
X200703054Y-81908542D03*
D17*
X199433054Y-84448542D03*
X209593054Y-84448542D03*
%TD*%
D15*
%TO.C,MX56*%
X188003054Y-79368542D03*
D16*
X185463054Y-84448542D03*
D15*
X181653054Y-81908542D03*
D17*
X180383054Y-84448542D03*
X190543054Y-84448542D03*
%TD*%
D15*
%TO.C,MX55*%
X168953054Y-79368542D03*
D16*
X166413054Y-84448542D03*
D15*
X162603054Y-81908542D03*
D17*
X161333054Y-84448542D03*
X171493054Y-84448542D03*
%TD*%
D15*
%TO.C,MX54*%
X149903054Y-79368542D03*
D16*
X147363054Y-84448542D03*
D15*
X143553054Y-81908542D03*
D17*
X142283054Y-84448542D03*
X152443054Y-84448542D03*
%TD*%
D15*
%TO.C,MX53*%
X130853054Y-79368542D03*
D16*
X128313054Y-84448542D03*
D15*
X124503054Y-81908542D03*
D17*
X123233054Y-84448542D03*
X133393054Y-84448542D03*
%TD*%
D15*
%TO.C,MX52*%
X111803054Y-79368542D03*
D16*
X109263054Y-84448542D03*
D15*
X105453054Y-81908542D03*
D17*
X104183054Y-84448542D03*
X114343054Y-84448542D03*
%TD*%
D15*
%TO.C,MX51*%
X92753054Y-79368542D03*
D16*
X90213054Y-84448542D03*
D15*
X86403054Y-81908542D03*
D17*
X85133054Y-84448542D03*
X95293054Y-84448542D03*
%TD*%
D15*
%TO.C,MX50*%
X73703054Y-79368542D03*
D16*
X71163054Y-84448542D03*
D15*
X67353054Y-81908542D03*
D17*
X66083054Y-84448542D03*
X76243054Y-84448542D03*
%TD*%
D15*
%TO.C,MX49*%
X54673500Y-79375000D03*
D16*
X52133500Y-84455000D03*
D15*
X48323500Y-81915000D03*
D17*
X47053500Y-84455000D03*
X57213500Y-84455000D03*
%TD*%
D15*
%TO.C,MX45*%
X285603054Y-60318542D03*
D16*
X283063054Y-65398542D03*
D15*
X279253054Y-62858542D03*
D17*
X277983054Y-65398542D03*
X288143054Y-65398542D03*
D18*
X271156804Y-58413542D03*
X294969304Y-58413542D03*
D16*
X271156804Y-73653542D03*
X294969304Y-73653542D03*
%TD*%
D15*
%TO.C,MX44*%
X273728054Y-60318542D03*
D16*
X271188054Y-65398542D03*
D15*
X267378054Y-62858542D03*
D17*
X266108054Y-65398542D03*
X276268054Y-65398542D03*
%TD*%
D15*
%TO.C,MX43*%
X254678054Y-60318542D03*
D16*
X252138054Y-65398542D03*
D15*
X248328054Y-62858542D03*
D17*
X247058054Y-65398542D03*
X257218054Y-65398542D03*
%TD*%
D15*
%TO.C,MX42*%
X235628054Y-60318542D03*
D16*
X233088054Y-65398542D03*
D15*
X229278054Y-62858542D03*
D17*
X228008054Y-65398542D03*
X238168054Y-65398542D03*
%TD*%
D15*
%TO.C,MX41*%
X216578054Y-60318542D03*
D16*
X214038054Y-65398542D03*
D15*
X210228054Y-62858542D03*
D17*
X208958054Y-65398542D03*
X219118054Y-65398542D03*
%TD*%
D15*
%TO.C,MX40*%
X197528054Y-60318542D03*
D16*
X194988054Y-65398542D03*
D15*
X191178054Y-62858542D03*
D17*
X189908054Y-65398542D03*
X200068054Y-65398542D03*
%TD*%
D15*
%TO.C,MX39*%
X178478054Y-60318542D03*
D16*
X175938054Y-65398542D03*
D15*
X172128054Y-62858542D03*
D17*
X170858054Y-65398542D03*
X181018054Y-65398542D03*
%TD*%
D15*
%TO.C,MX38*%
X159428054Y-60318542D03*
D16*
X156888054Y-65398542D03*
D15*
X153078054Y-62858542D03*
D17*
X151808054Y-65398542D03*
X161968054Y-65398542D03*
%TD*%
D15*
%TO.C,MX37*%
X140378054Y-60318542D03*
D16*
X137838054Y-65398542D03*
D15*
X134028054Y-62858542D03*
D17*
X132758054Y-65398542D03*
X142918054Y-65398542D03*
%TD*%
D15*
%TO.C,MX36*%
X121328054Y-60318542D03*
D16*
X118788054Y-65398542D03*
D15*
X114978054Y-62858542D03*
D17*
X113708054Y-65398542D03*
X123868054Y-65398542D03*
%TD*%
D15*
%TO.C,MX35*%
X102278054Y-60318542D03*
D16*
X99738054Y-65398542D03*
D15*
X95928054Y-62858542D03*
D17*
X94658054Y-65398542D03*
X104818054Y-65398542D03*
%TD*%
D15*
%TO.C,MX34*%
X83228054Y-60318542D03*
D16*
X80688054Y-65398542D03*
D15*
X76878054Y-62858542D03*
D17*
X75608054Y-65398542D03*
X85768054Y-65398542D03*
%TD*%
D15*
%TO.C,MX33*%
X64198500Y-60325000D03*
D16*
X61658500Y-65405000D03*
D15*
X57848500Y-62865000D03*
D17*
X56578500Y-65405000D03*
X66738500Y-65405000D03*
%TD*%
D15*
%TO.C,MX32*%
X38018000Y-60324500D03*
D16*
X35478000Y-65404500D03*
D15*
X31668000Y-62864500D03*
D17*
X30398000Y-65404500D03*
X40558000Y-65404500D03*
%TD*%
D15*
%TO.C,MX31*%
X33249250Y-60324500D03*
D16*
X30709250Y-65404500D03*
D15*
X26899250Y-62864500D03*
D17*
X25629250Y-65404500D03*
X35789250Y-65404500D03*
%TD*%
D15*
%TO.C,MX30*%
X292765554Y-41268542D03*
D16*
X290225554Y-46348542D03*
D15*
X286415554Y-43808542D03*
D17*
X285145554Y-46348542D03*
X295305554Y-46348542D03*
%TD*%
D15*
%TO.C,MX29*%
X268965554Y-41268542D03*
D16*
X266425554Y-46348542D03*
D15*
X262615554Y-43808542D03*
D17*
X261345554Y-46348542D03*
X271505554Y-46348542D03*
%TD*%
D15*
%TO.C,MX28*%
X249915554Y-41268542D03*
D16*
X247375554Y-46348542D03*
D15*
X243565554Y-43808542D03*
D17*
X242295554Y-46348542D03*
X252455554Y-46348542D03*
%TD*%
D15*
%TO.C,MX27*%
X230865554Y-41268542D03*
D16*
X228325554Y-46348542D03*
D15*
X224515554Y-43808542D03*
D17*
X223245554Y-46348542D03*
X233405554Y-46348542D03*
%TD*%
D15*
%TO.C,MX26*%
X211815554Y-41268542D03*
D16*
X209275554Y-46348542D03*
D15*
X205465554Y-43808542D03*
D17*
X204195554Y-46348542D03*
X214355554Y-46348542D03*
%TD*%
D15*
%TO.C,MX25*%
X192765554Y-41268542D03*
D16*
X190225554Y-46348542D03*
D15*
X186415554Y-43808542D03*
D17*
X185145554Y-46348542D03*
X195305554Y-46348542D03*
%TD*%
D15*
%TO.C,MX24*%
X173715554Y-41268542D03*
D16*
X171175554Y-46348542D03*
D15*
X167365554Y-43808542D03*
D17*
X166095554Y-46348542D03*
X176255554Y-46348542D03*
%TD*%
D15*
%TO.C,MX23*%
X154665554Y-41268542D03*
D16*
X152125554Y-46348542D03*
D15*
X148315554Y-43808542D03*
D17*
X147045554Y-46348542D03*
X157205554Y-46348542D03*
%TD*%
D15*
%TO.C,MX22*%
X135615554Y-41268542D03*
D16*
X133075554Y-46348542D03*
D15*
X129265554Y-43808542D03*
D17*
X127995554Y-46348542D03*
X138155554Y-46348542D03*
%TD*%
D15*
%TO.C,MX21*%
X116565554Y-41268542D03*
D16*
X114025554Y-46348542D03*
D15*
X110215554Y-43808542D03*
D17*
X108945554Y-46348542D03*
X119105554Y-46348542D03*
%TD*%
D15*
%TO.C,MX20*%
X97515554Y-41268542D03*
D16*
X94975554Y-46348542D03*
D15*
X91165554Y-43808542D03*
D17*
X89895554Y-46348542D03*
X100055554Y-46348542D03*
%TD*%
D15*
%TO.C,MX19*%
X78465554Y-41268542D03*
D16*
X75925554Y-46348542D03*
D15*
X72115554Y-43808542D03*
D17*
X70845554Y-46348542D03*
X81005554Y-46348542D03*
%TD*%
D15*
%TO.C,MX18*%
X59436000Y-41275000D03*
D16*
X56896000Y-46355000D03*
D15*
X53086000Y-43815000D03*
D17*
X51816000Y-46355000D03*
X61976000Y-46355000D03*
%TD*%
D15*
%TO.C,MX17*%
X35624250Y-41274500D03*
D16*
X33084250Y-46354500D03*
D15*
X29274250Y-43814500D03*
D17*
X28004250Y-46354500D03*
X38164250Y-46354500D03*
%TD*%
D15*
%TO.C,MX16*%
X297561000Y-22225000D03*
D16*
X295021000Y-27305000D03*
D15*
X291211000Y-24765000D03*
D17*
X289941000Y-27305000D03*
X300101000Y-27305000D03*
%TD*%
D15*
%TO.C,MX15*%
X288036000Y-22225000D03*
D16*
X285496000Y-27305000D03*
D15*
X281686000Y-24765000D03*
D17*
X280416000Y-27305000D03*
X290576000Y-27305000D03*
D18*
X273589750Y-20320000D03*
X297402250Y-20320000D03*
D16*
X273589750Y-35560000D03*
X297402250Y-35560000D03*
%TD*%
D15*
%TO.C,MX14*%
X278511000Y-22225000D03*
D16*
X275971000Y-27305000D03*
D15*
X272161000Y-24765000D03*
D17*
X270891000Y-27305000D03*
X281051000Y-27305000D03*
%TD*%
D15*
%TO.C,MX13*%
X259461000Y-22225000D03*
D16*
X256921000Y-27305000D03*
D15*
X253111000Y-24765000D03*
D17*
X251841000Y-27305000D03*
X262001000Y-27305000D03*
%TD*%
D15*
%TO.C,MX12*%
X240411000Y-22225000D03*
D16*
X237871000Y-27305000D03*
D15*
X234061000Y-24765000D03*
D17*
X232791000Y-27305000D03*
X242951000Y-27305000D03*
%TD*%
D15*
%TO.C,MX11*%
X221361000Y-22225000D03*
D16*
X218821000Y-27305000D03*
D15*
X215011000Y-24765000D03*
D17*
X213741000Y-27305000D03*
X223901000Y-27305000D03*
%TD*%
D15*
%TO.C,MX10*%
X202311000Y-22225000D03*
D16*
X199771000Y-27305000D03*
D15*
X195961000Y-24765000D03*
D17*
X194691000Y-27305000D03*
X204851000Y-27305000D03*
%TD*%
D15*
%TO.C,MX9*%
X183261000Y-22225000D03*
D16*
X180721000Y-27305000D03*
D15*
X176911000Y-24765000D03*
D17*
X175641000Y-27305000D03*
X185801000Y-27305000D03*
%TD*%
D15*
%TO.C,MX8*%
X164211000Y-22225000D03*
D16*
X161671000Y-27305000D03*
D15*
X157861000Y-24765000D03*
D17*
X156591000Y-27305000D03*
X166751000Y-27305000D03*
%TD*%
D15*
%TO.C,MX7*%
X145161000Y-22225000D03*
D16*
X142621000Y-27305000D03*
D15*
X138811000Y-24765000D03*
D17*
X137541000Y-27305000D03*
X147701000Y-27305000D03*
%TD*%
D15*
%TO.C,MX6*%
X126111000Y-22225000D03*
D16*
X123571000Y-27305000D03*
D15*
X119761000Y-24765000D03*
D17*
X118491000Y-27305000D03*
X128651000Y-27305000D03*
%TD*%
D15*
%TO.C,MX5*%
X107061000Y-22225000D03*
D16*
X104521000Y-27305000D03*
D15*
X100711000Y-24765000D03*
D17*
X99441000Y-27305000D03*
X109601000Y-27305000D03*
%TD*%
D15*
%TO.C,MX4*%
X88011000Y-22225000D03*
D16*
X85471000Y-27305000D03*
D15*
X81661000Y-24765000D03*
D17*
X80391000Y-27305000D03*
X90551000Y-27305000D03*
%TD*%
D15*
%TO.C,MX3*%
X68961000Y-22225000D03*
D16*
X66421000Y-27305000D03*
D15*
X62611000Y-24765000D03*
D17*
X61341000Y-27305000D03*
X71501000Y-27305000D03*
%TD*%
D15*
%TO.C,MX2*%
X49911000Y-22225000D03*
D16*
X47371000Y-27305000D03*
D15*
X43561000Y-24765000D03*
D17*
X42291000Y-27305000D03*
X52451000Y-27305000D03*
%TD*%
D15*
%TO.C,MX1*%
X30861000Y-22225000D03*
D16*
X28321000Y-27305000D03*
D15*
X24511000Y-24765000D03*
D17*
X23241000Y-27305000D03*
X33401000Y-27305000D03*
%TD*%
D26*
%TO.C,Y1*%
X184058000Y-92964000D03*
X185258000Y-92964000D03*
%TD*%
D27*
%TO.C,U3*%
G36*
X187786827Y-100527134D02*
G01*
X188281802Y-100032159D01*
X189359433Y-101109790D01*
X188864458Y-101604765D01*
X187786827Y-100527134D01*
G37*
G36*
X188564645Y-99749317D02*
G01*
X189059620Y-99254342D01*
X190137251Y-100331973D01*
X189642276Y-100826948D01*
X188564645Y-99749317D01*
G37*
G36*
X189342462Y-98971499D02*
G01*
X189837437Y-98476524D01*
X190915068Y-99554155D01*
X190420093Y-100049130D01*
X189342462Y-98971499D01*
G37*
G36*
X190120280Y-98193682D02*
G01*
X190615255Y-97698707D01*
X191692886Y-98776338D01*
X191197911Y-99271313D01*
X190120280Y-98193682D01*
G37*
G36*
X190898097Y-97415864D02*
G01*
X191393072Y-96920889D01*
X192470703Y-97998520D01*
X191975728Y-98493495D01*
X190898097Y-97415864D01*
G37*
G36*
X191675915Y-96638047D02*
G01*
X192170890Y-96143072D01*
X193248521Y-97220703D01*
X192753546Y-97715678D01*
X191675915Y-96638047D01*
G37*
G36*
X192453732Y-95860229D02*
G01*
X192948707Y-95365254D01*
X194026338Y-96442885D01*
X193531363Y-96937860D01*
X192453732Y-95860229D01*
G37*
G36*
X193231549Y-95082412D02*
G01*
X193726524Y-94587437D01*
X194804155Y-95665068D01*
X194309180Y-96160043D01*
X193231549Y-95082412D01*
G37*
G36*
X194009367Y-94304594D02*
G01*
X194504342Y-93809619D01*
X195581973Y-94887250D01*
X195086998Y-95382225D01*
X194009367Y-94304594D01*
G37*
G36*
X193797235Y-106537542D02*
G01*
X194292210Y-106042567D01*
X195369841Y-107120198D01*
X194874866Y-107615173D01*
X193797235Y-106537542D01*
G37*
G36*
X194575052Y-105759724D02*
G01*
X195070027Y-105264749D01*
X196147658Y-106342380D01*
X195652683Y-106837355D01*
X194575052Y-105759724D01*
G37*
G36*
X195352870Y-104981907D02*
G01*
X195847845Y-104486932D01*
X196925476Y-105564563D01*
X196430501Y-106059538D01*
X195352870Y-104981907D01*
G37*
G36*
X196130687Y-104204089D02*
G01*
X196625662Y-103709114D01*
X197703293Y-104786745D01*
X197208318Y-105281720D01*
X196130687Y-104204089D01*
G37*
G36*
X196908505Y-103426272D02*
G01*
X197403480Y-102931297D01*
X198481111Y-104008928D01*
X197986136Y-104503903D01*
X196908505Y-103426272D01*
G37*
G36*
X197686322Y-102648454D02*
G01*
X198181297Y-102153479D01*
X199258928Y-103231110D01*
X198763953Y-103726085D01*
X197686322Y-102648454D01*
G37*
G36*
X198464140Y-101870637D02*
G01*
X198959115Y-101375662D01*
X200036746Y-102453293D01*
X199541771Y-102948268D01*
X198464140Y-101870637D01*
G37*
G36*
X199241957Y-101092820D02*
G01*
X199736932Y-100597845D01*
X200814563Y-101675476D01*
X200319588Y-102170451D01*
X199241957Y-101092820D01*
G37*
G36*
X200019775Y-100315002D02*
G01*
X200514750Y-99820027D01*
X201592381Y-100897658D01*
X201097406Y-101392633D01*
X200019775Y-100315002D01*
G37*
G36*
X193797235Y-90981193D02*
G01*
X194292210Y-90486218D01*
X195369841Y-91563849D01*
X194874866Y-92058824D01*
X193797235Y-90981193D01*
G37*
G36*
X193019417Y-91759010D02*
G01*
X193514392Y-91264035D01*
X194592023Y-92341666D01*
X194097048Y-92836641D01*
X193019417Y-91759010D01*
G37*
G36*
X192241600Y-92536827D02*
G01*
X192736575Y-92041852D01*
X193814206Y-93119483D01*
X193319231Y-93614458D01*
X192241600Y-92536827D01*
G37*
G36*
X191463783Y-93314645D02*
G01*
X191958758Y-92819670D01*
X193036389Y-93897301D01*
X192541414Y-94392276D01*
X191463783Y-93314645D01*
G37*
G36*
X190685965Y-94092462D02*
G01*
X191180940Y-93597487D01*
X192258571Y-94675118D01*
X191763596Y-95170093D01*
X190685965Y-94092462D01*
G37*
G36*
X189908148Y-94870280D02*
G01*
X190403123Y-94375305D01*
X191480754Y-95452936D01*
X190985779Y-95947911D01*
X189908148Y-94870280D01*
G37*
G36*
X189130330Y-95648097D02*
G01*
X189625305Y-95153122D01*
X190702936Y-96230753D01*
X190207961Y-96725728D01*
X189130330Y-95648097D01*
G37*
G36*
X188352513Y-96425915D02*
G01*
X188847488Y-95930940D01*
X189925119Y-97008571D01*
X189430144Y-97503546D01*
X188352513Y-96425915D01*
G37*
G36*
X187574695Y-97203732D02*
G01*
X188069670Y-96708757D01*
X189147301Y-97786388D01*
X188652326Y-98281363D01*
X187574695Y-97203732D01*
G37*
G36*
X186796878Y-97981550D02*
G01*
X187291853Y-97486575D01*
X188369484Y-98564206D01*
X187874509Y-99059181D01*
X186796878Y-97981550D01*
G37*
G36*
X186019060Y-98759367D02*
G01*
X186514035Y-98264392D01*
X187591666Y-99342023D01*
X187096691Y-99836998D01*
X186019060Y-98759367D01*
G37*
G36*
X185241243Y-99537185D02*
G01*
X185736218Y-99042210D01*
X186813849Y-100119841D01*
X186318874Y-100614816D01*
X185241243Y-99537185D01*
G37*
G36*
X184463425Y-100315002D02*
G01*
X184958400Y-99820027D01*
X186036031Y-100897658D01*
X185541056Y-101392633D01*
X184463425Y-100315002D01*
G37*
G36*
X184781624Y-103337177D02*
G01*
X184286649Y-102842202D01*
X185364280Y-101764571D01*
X185859255Y-102259546D01*
X184781624Y-103337177D01*
G37*
G36*
X185559441Y-104114994D02*
G01*
X185064466Y-103620019D01*
X186142097Y-102542388D01*
X186637072Y-103037363D01*
X185559441Y-104114994D01*
G37*
G36*
X186337259Y-104892812D02*
G01*
X185842284Y-104397837D01*
X186919915Y-103320206D01*
X187414890Y-103815181D01*
X186337259Y-104892812D01*
G37*
G36*
X187115076Y-105670629D02*
G01*
X186620101Y-105175654D01*
X187697732Y-104098023D01*
X188192707Y-104592998D01*
X187115076Y-105670629D01*
G37*
G36*
X187892894Y-106448447D02*
G01*
X187397919Y-105953472D01*
X188475550Y-104875841D01*
X188970525Y-105370816D01*
X187892894Y-106448447D01*
G37*
G36*
X188670711Y-107226264D02*
G01*
X188175736Y-106731289D01*
X189253367Y-105653658D01*
X189748342Y-106148633D01*
X188670711Y-107226264D01*
G37*
G36*
X189448528Y-108004081D02*
G01*
X188953553Y-107509106D01*
X190031184Y-106431475D01*
X190526159Y-106926450D01*
X189448528Y-108004081D01*
G37*
G36*
X190226346Y-108781899D02*
G01*
X189731371Y-108286924D01*
X190809002Y-107209293D01*
X191303977Y-107704268D01*
X190226346Y-108781899D01*
G37*
G36*
X191004163Y-109559716D02*
G01*
X190509188Y-109064741D01*
X191586819Y-107987110D01*
X192081794Y-108482085D01*
X191004163Y-109559716D01*
G37*
G36*
X191781981Y-110337534D02*
G01*
X191287006Y-109842559D01*
X192364637Y-108764928D01*
X192859612Y-109259903D01*
X191781981Y-110337534D01*
G37*
G36*
X192559798Y-111115351D02*
G01*
X192064823Y-110620376D01*
X193142454Y-109542745D01*
X193637429Y-110037720D01*
X192559798Y-111115351D01*
G37*
G36*
X195581973Y-110443600D02*
G01*
X195086998Y-110938575D01*
X194009367Y-109860944D01*
X194504342Y-109365969D01*
X195581973Y-110443600D01*
G37*
G36*
X196359790Y-109665782D02*
G01*
X195864815Y-110160757D01*
X194787184Y-109083126D01*
X195282159Y-108588151D01*
X196359790Y-109665782D01*
G37*
G36*
X197137608Y-108887965D02*
G01*
X196642633Y-109382940D01*
X195565002Y-108305309D01*
X196059977Y-107810334D01*
X197137608Y-108887965D01*
G37*
G36*
X197915425Y-108110147D02*
G01*
X197420450Y-108605122D01*
X196342819Y-107527491D01*
X196837794Y-107032516D01*
X197915425Y-108110147D01*
G37*
G36*
X198693243Y-107332330D02*
G01*
X198198268Y-107827305D01*
X197120637Y-106749674D01*
X197615612Y-106254699D01*
X198693243Y-107332330D01*
G37*
G36*
X199471060Y-106554512D02*
G01*
X198976085Y-107049487D01*
X197898454Y-105971856D01*
X198393429Y-105476881D01*
X199471060Y-106554512D01*
G37*
G36*
X200248878Y-105776695D02*
G01*
X199753903Y-106271670D01*
X198676272Y-105194039D01*
X199171247Y-104699064D01*
X200248878Y-105776695D01*
G37*
G36*
X201026695Y-104998877D02*
G01*
X200531720Y-105493852D01*
X199454089Y-104416221D01*
X199949064Y-103921246D01*
X201026695Y-104998877D01*
G37*
G36*
X201804513Y-104221060D02*
G01*
X201309538Y-104716035D01*
X200231907Y-103638404D01*
X200726882Y-103143429D01*
X201804513Y-104221060D01*
G37*
G36*
X202582330Y-103443242D02*
G01*
X202087355Y-103938217D01*
X201009724Y-102860586D01*
X201504699Y-102365611D01*
X202582330Y-103443242D01*
G37*
G36*
X203360148Y-102665425D02*
G01*
X202865173Y-103160400D01*
X201787542Y-102082769D01*
X202282517Y-101587794D01*
X203360148Y-102665425D01*
G37*
G36*
X204137965Y-101887608D02*
G01*
X203642990Y-102382583D01*
X202565359Y-101304952D01*
X203060334Y-100809977D01*
X204137965Y-101887608D01*
G37*
G36*
X204915782Y-101109790D02*
G01*
X204420807Y-101604765D01*
X203343176Y-100527134D01*
X203838151Y-100032159D01*
X204915782Y-101109790D01*
G37*
%TD*%
D28*
%TO.C,U2*%
X139362000Y-96205000D03*
X139362000Y-98105000D03*
X141562000Y-98105000D03*
X141562000Y-97155000D03*
X141562000Y-96205000D03*
%TD*%
D23*
%TO.C,U1*%
X152461000Y-96055000D03*
X150561000Y-96055000D03*
X150561000Y-98255000D03*
X151511000Y-98255000D03*
X152461000Y-98255000D03*
%TD*%
D29*
%TO.C,Q1*%
X140589000Y-102219000D03*
X141539000Y-100219000D03*
X139639000Y-100219000D03*
%TD*%
D30*
%TO.C,J1*%
X40842000Y-23603000D03*
X40042000Y-23603000D03*
X35142000Y-23603000D03*
X34342000Y-23603000D03*
X34342000Y-23603000D03*
X35142000Y-23603000D03*
X40042000Y-23603000D03*
X40842000Y-23603000D03*
D31*
X35842000Y-23603000D03*
X36342000Y-23603000D03*
X36842000Y-23603000D03*
X37842000Y-23603000D03*
X38342000Y-23603000D03*
X38842000Y-23603000D03*
X39342000Y-23603000D03*
X37342000Y-23603000D03*
D32*
X41912000Y-22688000D03*
X33272000Y-22688000D03*
D33*
X34702000Y-22158000D03*
D34*
X33272000Y-18508000D03*
D33*
X40482000Y-22158000D03*
D34*
X41912000Y-18508000D03*
%TD*%
D35*
%TO.C,D2*%
X133859000Y-99949000D03*
X137159000Y-99949000D03*
%TD*%
%TO.C,D1*%
G36*
G01*
X148030250Y-96578000D02*
X147117750Y-96578000D01*
G75*
G02*
X146874000Y-96334250I0J243750D01*
G01*
X146874000Y-95846750D01*
G75*
G02*
X147117750Y-95603000I243750J0D01*
G01*
X148030250Y-95603000D01*
G75*
G02*
X148274000Y-95846750I0J-243750D01*
G01*
X148274000Y-96334250D01*
G75*
G02*
X148030250Y-96578000I-243750J0D01*
G01*
G37*
G36*
G01*
X148030250Y-98453000D02*
X147117750Y-98453000D01*
G75*
G02*
X146874000Y-98209250I0J243750D01*
G01*
X146874000Y-97721750D01*
G75*
G02*
X147117750Y-97478000I243750J0D01*
G01*
X148030250Y-97478000D01*
G75*
G02*
X148274000Y-97721750I0J-243750D01*
G01*
X148274000Y-98209250D01*
G75*
G02*
X148030250Y-98453000I-243750J0D01*
G01*
G37*
%TD*%
%TO.C,C1*%
G36*
G01*
X145255000Y-96578000D02*
X144305000Y-96578000D01*
G75*
G02*
X144055000Y-96328000I0J250000D01*
G01*
X144055000Y-95828000D01*
G75*
G02*
X144305000Y-95578000I250000J0D01*
G01*
X145255000Y-95578000D01*
G75*
G02*
X145505000Y-95828000I0J-250000D01*
G01*
X145505000Y-96328000D01*
G75*
G02*
X145255000Y-96578000I-250000J0D01*
G01*
G37*
G36*
G01*
X145255000Y-98478000D02*
X144305000Y-98478000D01*
G75*
G02*
X144055000Y-98228000I0J250000D01*
G01*
X144055000Y-97728000D01*
G75*
G02*
X144305000Y-97478000I250000J0D01*
G01*
X145255000Y-97478000D01*
G75*
G02*
X145505000Y-97728000I0J-250000D01*
G01*
X145505000Y-98228000D01*
G75*
G02*
X145255000Y-98478000I-250000J0D01*
G01*
G37*
%TD*%
M02*
