%TF.GenerationSoftware,KiCad,Pcbnew,6.0.0*%
%TF.CreationDate,2022-01-01T16:03:37+01:00*%
%TF.ProjectId,ptm-60nrf,70746d2d-3630-46e7-9266-2e6b69636164,rev?*%
%TF.SameCoordinates,Original*%
%TF.FileFunction,Soldermask,Top*%
%TF.FilePolarity,Negative*%
%FSLAX46Y46*%
G04 Gerber Fmt 4.6, Leading zero omitted, Abs format (unit mm)*
G04 Created by KiCad (PCBNEW 6.0.0) date 2022-01-01 16:03:37*
%MOMM*%
%LPD*%
G01*
G04 APERTURE LIST*
G04 Aperture macros list*
%AMRoundRect*
0 Rectangle with rounded corners*
0 $1 Rounding radius*
0 $2 $3 $4 $5 $6 $7 $8 $9 X,Y pos of 4 corners*
0 Add a 4 corners polygon primitive as box body*
4,1,4,$2,$3,$4,$5,$6,$7,$8,$9,$2,$3,0*
0 Add four circle primitives for the rounded corners*
1,1,$1+$1,$2,$3*
1,1,$1+$1,$4,$5*
1,1,$1+$1,$6,$7*
1,1,$1+$1,$8,$9*
0 Add four rect primitives between the rounded corners*
20,1,$1+$1,$2,$3,$4,$5,0*
20,1,$1+$1,$4,$5,$6,$7,0*
20,1,$1+$1,$6,$7,$8,$9,0*
20,1,$1+$1,$8,$9,$2,$3,0*%
G04 Aperture macros list end*
%ADD10C,0.180000*%
%ADD11C,0.150000*%
%ADD12C,0.100000*%
%ADD13C,2.000000*%
%ADD14C,3.200000*%
%ADD15R,2.000000X2.000000*%
%ADD16RoundRect,0.150000X-0.150000X-0.625000X0.150000X-0.625000X0.150000X0.625000X-0.150000X0.625000X0*%
%ADD17RoundRect,0.249999X-0.350001X-0.650001X0.350001X-0.650001X0.350001X0.650001X-0.350001X0.650001X0*%
%ADD18R,1.700000X1.700000*%
%ADD19O,1.700000X1.700000*%
%ADD20C,1.750000*%
%ADD21C,3.987800*%
%ADD22C,3.048000*%
%ADD23O,9.999980X5.001260*%
%ADD24O,7.000240X7.000240*%
%ADD25C,7.000240*%
%ADD26C,0.650000*%
%ADD27O,1.000000X1.600000*%
%ADD28O,1.000000X2.100000*%
%ADD29R,1.524000X0.700000*%
%ADD30C,1.400000*%
G04 APERTURE END LIST*
D10*
X295598571Y-111242857D02*
X295198571Y-110671428D01*
X294912857Y-111242857D02*
X294912857Y-110042857D01*
X295370000Y-110042857D01*
X295484285Y-110100000D01*
X295541428Y-110157142D01*
X295598571Y-110271428D01*
X295598571Y-110442857D01*
X295541428Y-110557142D01*
X295484285Y-110614285D01*
X295370000Y-110671428D01*
X294912857Y-110671428D01*
X296570000Y-111185714D02*
X296455714Y-111242857D01*
X296227142Y-111242857D01*
X296112857Y-111185714D01*
X296055714Y-111071428D01*
X296055714Y-110614285D01*
X296112857Y-110500000D01*
X296227142Y-110442857D01*
X296455714Y-110442857D01*
X296570000Y-110500000D01*
X296627142Y-110614285D01*
X296627142Y-110728571D01*
X296055714Y-110842857D01*
X297027142Y-110442857D02*
X297312857Y-111242857D01*
X297598571Y-110442857D01*
X298055714Y-111128571D02*
X298112857Y-111185714D01*
X298055714Y-111242857D01*
X297998571Y-111185714D01*
X298055714Y-111128571D01*
X298055714Y-111242857D01*
X299770000Y-110042857D02*
X299884285Y-110042857D01*
X299998571Y-110100000D01*
X300055714Y-110157142D01*
X300112857Y-110271428D01*
X300170000Y-110500000D01*
X300170000Y-110785714D01*
X300112857Y-111014285D01*
X300055714Y-111128571D01*
X299998571Y-111185714D01*
X299884285Y-111242857D01*
X299770000Y-111242857D01*
X299655714Y-111185714D01*
X299598571Y-111128571D01*
X299541428Y-111014285D01*
X299484285Y-110785714D01*
X299484285Y-110500000D01*
X299541428Y-110271428D01*
X299598571Y-110157142D01*
X299655714Y-110100000D01*
X299770000Y-110042857D01*
X300684285Y-111128571D02*
X300741428Y-111185714D01*
X300684285Y-111242857D01*
X300627142Y-111185714D01*
X300684285Y-111128571D01*
X300684285Y-111242857D01*
X301770000Y-110442857D02*
X301770000Y-111242857D01*
X301484285Y-109985714D02*
X301198571Y-110842857D01*
X301941428Y-110842857D01*
D11*
X122344285Y-95230714D02*
X122344285Y-96230714D01*
X122344285Y-95278333D02*
X122439523Y-95230714D01*
X122630000Y-95230714D01*
X122725238Y-95278333D01*
X122772857Y-95325952D01*
X122820476Y-95421190D01*
X122820476Y-95706904D01*
X122772857Y-95802142D01*
X122725238Y-95849761D01*
X122630000Y-95897380D01*
X122439523Y-95897380D01*
X122344285Y-95849761D01*
X123106190Y-95230714D02*
X123487142Y-95230714D01*
X123249047Y-94897380D02*
X123249047Y-95754523D01*
X123296666Y-95849761D01*
X123391904Y-95897380D01*
X123487142Y-95897380D01*
X123820476Y-95897380D02*
X123820476Y-95230714D01*
X123820476Y-95325952D02*
X123868095Y-95278333D01*
X123963333Y-95230714D01*
X124106190Y-95230714D01*
X124201428Y-95278333D01*
X124249047Y-95373571D01*
X124249047Y-95897380D01*
X124249047Y-95373571D02*
X124296666Y-95278333D01*
X124391904Y-95230714D01*
X124534761Y-95230714D01*
X124630000Y-95278333D01*
X124677619Y-95373571D01*
X124677619Y-95897380D01*
X125153809Y-95516428D02*
X125915714Y-95516428D01*
X126820476Y-94897380D02*
X126630000Y-94897380D01*
X126534761Y-94945000D01*
X126487142Y-94992619D01*
X126391904Y-95135476D01*
X126344285Y-95325952D01*
X126344285Y-95706904D01*
X126391904Y-95802142D01*
X126439523Y-95849761D01*
X126534761Y-95897380D01*
X126725238Y-95897380D01*
X126820476Y-95849761D01*
X126868095Y-95802142D01*
X126915714Y-95706904D01*
X126915714Y-95468809D01*
X126868095Y-95373571D01*
X126820476Y-95325952D01*
X126725238Y-95278333D01*
X126534761Y-95278333D01*
X126439523Y-95325952D01*
X126391904Y-95373571D01*
X126344285Y-95468809D01*
X127534761Y-94897380D02*
X127630000Y-94897380D01*
X127725238Y-94945000D01*
X127772857Y-94992619D01*
X127820476Y-95087857D01*
X127868095Y-95278333D01*
X127868095Y-95516428D01*
X127820476Y-95706904D01*
X127772857Y-95802142D01*
X127725238Y-95849761D01*
X127630000Y-95897380D01*
X127534761Y-95897380D01*
X127439523Y-95849761D01*
X127391904Y-95802142D01*
X127344285Y-95706904D01*
X127296666Y-95516428D01*
X127296666Y-95278333D01*
X127344285Y-95087857D01*
X127391904Y-94992619D01*
X127439523Y-94945000D01*
X127534761Y-94897380D01*
X128296666Y-95230714D02*
X128296666Y-95897380D01*
X128296666Y-95325952D02*
X128344285Y-95278333D01*
X128439523Y-95230714D01*
X128582380Y-95230714D01*
X128677619Y-95278333D01*
X128725238Y-95373571D01*
X128725238Y-95897380D01*
X129201428Y-95897380D02*
X129201428Y-95230714D01*
X129201428Y-95421190D02*
X129249047Y-95325952D01*
X129296666Y-95278333D01*
X129391904Y-95230714D01*
X129487142Y-95230714D01*
X129677619Y-95230714D02*
X130058571Y-95230714D01*
X129820476Y-95897380D02*
X129820476Y-95040238D01*
X129868095Y-94945000D01*
X129963333Y-94897380D01*
X130058571Y-94897380D01*
X112249047Y-96983571D02*
X112391904Y-97031190D01*
X112439523Y-97078809D01*
X112487142Y-97174047D01*
X112487142Y-97316904D01*
X112439523Y-97412142D01*
X112391904Y-97459761D01*
X112296666Y-97507380D01*
X111915714Y-97507380D01*
X111915714Y-96507380D01*
X112249047Y-96507380D01*
X112344285Y-96555000D01*
X112391904Y-96602619D01*
X112439523Y-96697857D01*
X112439523Y-96793095D01*
X112391904Y-96888333D01*
X112344285Y-96935952D01*
X112249047Y-96983571D01*
X111915714Y-96983571D01*
X113058571Y-97507380D02*
X112963333Y-97459761D01*
X112915714Y-97364523D01*
X112915714Y-96507380D01*
X113868095Y-96840714D02*
X113868095Y-97507380D01*
X113439523Y-96840714D02*
X113439523Y-97364523D01*
X113487142Y-97459761D01*
X113582380Y-97507380D01*
X113725238Y-97507380D01*
X113820476Y-97459761D01*
X113868095Y-97412142D01*
X114725238Y-97459761D02*
X114630000Y-97507380D01*
X114439523Y-97507380D01*
X114344285Y-97459761D01*
X114296666Y-97364523D01*
X114296666Y-96983571D01*
X114344285Y-96888333D01*
X114439523Y-96840714D01*
X114630000Y-96840714D01*
X114725238Y-96888333D01*
X114772857Y-96983571D01*
X114772857Y-97078809D01*
X114296666Y-97174047D01*
X115058571Y-96840714D02*
X115439523Y-96840714D01*
X115201428Y-96507380D02*
X115201428Y-97364523D01*
X115249047Y-97459761D01*
X115344285Y-97507380D01*
X115439523Y-97507380D01*
X115915714Y-97507380D02*
X115820476Y-97459761D01*
X115772857Y-97412142D01*
X115725238Y-97316904D01*
X115725238Y-97031190D01*
X115772857Y-96935952D01*
X115820476Y-96888333D01*
X115915714Y-96840714D01*
X116058571Y-96840714D01*
X116153809Y-96888333D01*
X116201428Y-96935952D01*
X116249047Y-97031190D01*
X116249047Y-97316904D01*
X116201428Y-97412142D01*
X116153809Y-97459761D01*
X116058571Y-97507380D01*
X115915714Y-97507380D01*
X116820476Y-97507380D02*
X116725238Y-97459761D01*
X116677619Y-97412142D01*
X116630000Y-97316904D01*
X116630000Y-97031190D01*
X116677619Y-96935952D01*
X116725238Y-96888333D01*
X116820476Y-96840714D01*
X116963333Y-96840714D01*
X117058571Y-96888333D01*
X117106190Y-96935952D01*
X117153809Y-97031190D01*
X117153809Y-97316904D01*
X117106190Y-97412142D01*
X117058571Y-97459761D01*
X116963333Y-97507380D01*
X116820476Y-97507380D01*
X117439523Y-96840714D02*
X117820476Y-96840714D01*
X117582380Y-96507380D02*
X117582380Y-97364523D01*
X117630000Y-97459761D01*
X117725238Y-97507380D01*
X117820476Y-97507380D01*
X118153809Y-97507380D02*
X118153809Y-96507380D01*
X118582380Y-97507380D02*
X118582380Y-96983571D01*
X118534761Y-96888333D01*
X118439523Y-96840714D01*
X118296666Y-96840714D01*
X118201428Y-96888333D01*
X118153809Y-96935952D01*
X120249047Y-97459761D02*
X120153809Y-97507380D01*
X119963333Y-97507380D01*
X119868095Y-97459761D01*
X119820476Y-97412142D01*
X119772857Y-97316904D01*
X119772857Y-97031190D01*
X119820476Y-96935952D01*
X119868095Y-96888333D01*
X119963333Y-96840714D01*
X120153809Y-96840714D01*
X120249047Y-96888333D01*
X120820476Y-97507380D02*
X120725238Y-97459761D01*
X120677619Y-97412142D01*
X120630000Y-97316904D01*
X120630000Y-97031190D01*
X120677619Y-96935952D01*
X120725238Y-96888333D01*
X120820476Y-96840714D01*
X120963333Y-96840714D01*
X121058571Y-96888333D01*
X121106190Y-96935952D01*
X121153809Y-97031190D01*
X121153809Y-97316904D01*
X121106190Y-97412142D01*
X121058571Y-97459761D01*
X120963333Y-97507380D01*
X120820476Y-97507380D01*
X121582380Y-97507380D02*
X121582380Y-96840714D01*
X121582380Y-96935952D02*
X121630000Y-96888333D01*
X121725238Y-96840714D01*
X121868095Y-96840714D01*
X121963333Y-96888333D01*
X122010952Y-96983571D01*
X122010952Y-97507380D01*
X122010952Y-96983571D02*
X122058571Y-96888333D01*
X122153809Y-96840714D01*
X122296666Y-96840714D01*
X122391904Y-96888333D01*
X122439523Y-96983571D01*
X122439523Y-97507380D01*
X122915714Y-96840714D02*
X122915714Y-97840714D01*
X122915714Y-96888333D02*
X123010952Y-96840714D01*
X123201428Y-96840714D01*
X123296666Y-96888333D01*
X123344285Y-96935952D01*
X123391904Y-97031190D01*
X123391904Y-97316904D01*
X123344285Y-97412142D01*
X123296666Y-97459761D01*
X123201428Y-97507380D01*
X123010952Y-97507380D01*
X122915714Y-97459761D01*
X124249047Y-97507380D02*
X124249047Y-96983571D01*
X124201428Y-96888333D01*
X124106190Y-96840714D01*
X123915714Y-96840714D01*
X123820476Y-96888333D01*
X124249047Y-97459761D02*
X124153809Y-97507380D01*
X123915714Y-97507380D01*
X123820476Y-97459761D01*
X123772857Y-97364523D01*
X123772857Y-97269285D01*
X123820476Y-97174047D01*
X123915714Y-97126428D01*
X124153809Y-97126428D01*
X124249047Y-97078809D01*
X124582380Y-96840714D02*
X124963333Y-96840714D01*
X124725238Y-96507380D02*
X124725238Y-97364523D01*
X124772857Y-97459761D01*
X124868095Y-97507380D01*
X124963333Y-97507380D01*
X125296666Y-97507380D02*
X125296666Y-96840714D01*
X125296666Y-96507380D02*
X125249047Y-96555000D01*
X125296666Y-96602619D01*
X125344285Y-96555000D01*
X125296666Y-96507380D01*
X125296666Y-96602619D01*
X125772857Y-97507380D02*
X125772857Y-96507380D01*
X125772857Y-96888333D02*
X125868095Y-96840714D01*
X126058571Y-96840714D01*
X126153809Y-96888333D01*
X126201428Y-96935952D01*
X126249047Y-97031190D01*
X126249047Y-97316904D01*
X126201428Y-97412142D01*
X126153809Y-97459761D01*
X126058571Y-97507380D01*
X125868095Y-97507380D01*
X125772857Y-97459761D01*
X126820476Y-97507380D02*
X126725238Y-97459761D01*
X126677619Y-97364523D01*
X126677619Y-96507380D01*
X127582380Y-97459761D02*
X127487142Y-97507380D01*
X127296666Y-97507380D01*
X127201428Y-97459761D01*
X127153809Y-97364523D01*
X127153809Y-96983571D01*
X127201428Y-96888333D01*
X127296666Y-96840714D01*
X127487142Y-96840714D01*
X127582380Y-96888333D01*
X127630000Y-96983571D01*
X127630000Y-97078809D01*
X127153809Y-97174047D01*
X128677619Y-96840714D02*
X129058571Y-96840714D01*
X128820476Y-96507380D02*
X128820476Y-97364523D01*
X128868095Y-97459761D01*
X128963333Y-97507380D01*
X129058571Y-97507380D01*
X129391904Y-97507380D02*
X129391904Y-96840714D01*
X129391904Y-97031190D02*
X129439523Y-96935952D01*
X129487142Y-96888333D01*
X129582380Y-96840714D01*
X129677619Y-96840714D01*
X130439523Y-97507380D02*
X130439523Y-96983571D01*
X130391904Y-96888333D01*
X130296666Y-96840714D01*
X130106190Y-96840714D01*
X130010952Y-96888333D01*
X130439523Y-97459761D02*
X130344285Y-97507380D01*
X130106190Y-97507380D01*
X130010952Y-97459761D01*
X129963333Y-97364523D01*
X129963333Y-97269285D01*
X130010952Y-97174047D01*
X130106190Y-97126428D01*
X130344285Y-97126428D01*
X130439523Y-97078809D01*
X130820476Y-96840714D02*
X131058571Y-97507380D01*
X131296666Y-96840714D02*
X131058571Y-97507380D01*
X130963333Y-97745476D01*
X130915714Y-97793095D01*
X130820476Y-97840714D01*
X132439523Y-97507380D02*
X132439523Y-96840714D01*
X132439523Y-96935952D02*
X132487142Y-96888333D01*
X132582380Y-96840714D01*
X132725238Y-96840714D01*
X132820476Y-96888333D01*
X132868095Y-96983571D01*
X132868095Y-97507380D01*
X132868095Y-96983571D02*
X132915714Y-96888333D01*
X133010952Y-96840714D01*
X133153809Y-96840714D01*
X133249047Y-96888333D01*
X133296666Y-96983571D01*
X133296666Y-97507380D01*
X133915714Y-97507380D02*
X133820476Y-97459761D01*
X133772857Y-97412142D01*
X133725238Y-97316904D01*
X133725238Y-97031190D01*
X133772857Y-96935952D01*
X133820476Y-96888333D01*
X133915714Y-96840714D01*
X134058571Y-96840714D01*
X134153809Y-96888333D01*
X134201428Y-96935952D01*
X134249047Y-97031190D01*
X134249047Y-97316904D01*
X134201428Y-97412142D01*
X134153809Y-97459761D01*
X134058571Y-97507380D01*
X133915714Y-97507380D01*
X135106190Y-96840714D02*
X135106190Y-97507380D01*
X134677619Y-96840714D02*
X134677619Y-97364523D01*
X134725238Y-97459761D01*
X134820476Y-97507380D01*
X134963333Y-97507380D01*
X135058571Y-97459761D01*
X135106190Y-97412142D01*
X135582380Y-96840714D02*
X135582380Y-97507380D01*
X135582380Y-96935952D02*
X135630000Y-96888333D01*
X135725238Y-96840714D01*
X135868095Y-96840714D01*
X135963333Y-96888333D01*
X136010952Y-96983571D01*
X136010952Y-97507380D01*
X136344285Y-96840714D02*
X136725238Y-96840714D01*
X136487142Y-96507380D02*
X136487142Y-97364523D01*
X136534761Y-97459761D01*
X136630000Y-97507380D01*
X136725238Y-97507380D01*
X137820476Y-97507380D02*
X137820476Y-96507380D01*
X138201428Y-96507380D01*
X138296666Y-96555000D01*
X138344285Y-96602619D01*
X138391904Y-96697857D01*
X138391904Y-96840714D01*
X138344285Y-96935952D01*
X138296666Y-96983571D01*
X138201428Y-97031190D01*
X137820476Y-97031190D01*
X139391904Y-97412142D02*
X139344285Y-97459761D01*
X139201428Y-97507380D01*
X139106190Y-97507380D01*
X138963333Y-97459761D01*
X138868095Y-97364523D01*
X138820476Y-97269285D01*
X138772857Y-97078809D01*
X138772857Y-96935952D01*
X138820476Y-96745476D01*
X138868095Y-96650238D01*
X138963333Y-96555000D01*
X139106190Y-96507380D01*
X139201428Y-96507380D01*
X139344285Y-96555000D01*
X139391904Y-96602619D01*
X140153809Y-96983571D02*
X140296666Y-97031190D01*
X140344285Y-97078809D01*
X140391904Y-97174047D01*
X140391904Y-97316904D01*
X140344285Y-97412142D01*
X140296666Y-97459761D01*
X140201428Y-97507380D01*
X139820476Y-97507380D01*
X139820476Y-96507380D01*
X140153809Y-96507380D01*
X140249047Y-96555000D01*
X140296666Y-96602619D01*
X140344285Y-96697857D01*
X140344285Y-96793095D01*
X140296666Y-96888333D01*
X140249047Y-96935952D01*
X140153809Y-96983571D01*
X139820476Y-96983571D01*
D12*
X20229047Y-21303559D02*
X20629047Y-21353559D01*
X20343333Y-21451178D01*
X20629047Y-21620226D01*
X20229047Y-21570226D01*
X20229047Y-21760702D02*
X20495714Y-21794035D01*
X20629047Y-21810702D02*
X20610000Y-21789273D01*
X20590952Y-21805940D01*
X20610000Y-21827369D01*
X20629047Y-21810702D01*
X20590952Y-21805940D01*
X20229047Y-22008321D02*
X20248095Y-21972607D01*
X20286190Y-21958321D01*
X20629047Y-22001178D01*
X20229047Y-22217845D02*
X20248095Y-22182130D01*
X20286190Y-22167845D01*
X20629047Y-22210702D01*
X20229047Y-22427369D02*
X20248095Y-22391654D01*
X20267142Y-22374988D01*
X20305238Y-22360702D01*
X20419523Y-22374988D01*
X20457619Y-22398797D01*
X20476666Y-22420226D01*
X20495714Y-22460702D01*
X20495714Y-22517845D01*
X20476666Y-22553559D01*
X20457619Y-22570226D01*
X20419523Y-22584511D01*
X20305238Y-22570226D01*
X20267142Y-22546416D01*
X20248095Y-22524988D01*
X20229047Y-22484511D01*
X20229047Y-22427369D01*
X20229047Y-22732130D02*
X20495714Y-22765464D01*
X20457619Y-22760702D02*
X20476666Y-22782130D01*
X20495714Y-22822607D01*
X20495714Y-22879750D01*
X20476666Y-22915464D01*
X20438571Y-22929750D01*
X20229047Y-22903559D01*
X20438571Y-22929750D02*
X20476666Y-22953559D01*
X20495714Y-22994035D01*
X20495714Y-23051178D01*
X20476666Y-23086892D01*
X20438571Y-23101178D01*
X20229047Y-23074988D01*
X20438571Y-23729750D02*
X20419523Y-23784511D01*
X20400476Y-23801178D01*
X20362380Y-23815464D01*
X20305238Y-23808321D01*
X20267142Y-23784511D01*
X20248095Y-23763083D01*
X20229047Y-23722607D01*
X20229047Y-23570226D01*
X20629047Y-23620226D01*
X20629047Y-23753559D01*
X20610000Y-23789273D01*
X20590952Y-23805940D01*
X20552857Y-23820226D01*
X20514761Y-23815464D01*
X20476666Y-23791654D01*
X20457619Y-23770226D01*
X20438571Y-23729750D01*
X20438571Y-23596416D01*
X20229047Y-24141654D02*
X20438571Y-24167845D01*
X20476666Y-24153559D01*
X20495714Y-24117845D01*
X20495714Y-24041654D01*
X20476666Y-24001178D01*
X20248095Y-24144035D02*
X20229047Y-24103559D01*
X20229047Y-24008321D01*
X20248095Y-23972607D01*
X20286190Y-23958321D01*
X20324285Y-23963083D01*
X20362380Y-23986892D01*
X20381428Y-24027369D01*
X20381428Y-24122607D01*
X20400476Y-24163083D01*
X20229047Y-24332130D02*
X20629047Y-24382130D01*
X20381428Y-24389273D02*
X20229047Y-24484511D01*
X20495714Y-24517845D02*
X20343333Y-24346416D01*
X20229047Y-24655940D02*
X20629047Y-24705940D01*
X20381428Y-24713083D02*
X20229047Y-24808321D01*
X20495714Y-24841654D02*
X20343333Y-24670226D01*
X20229047Y-25151178D02*
X20438571Y-25177369D01*
X20476666Y-25163083D01*
X20495714Y-25127369D01*
X20495714Y-25051178D01*
X20476666Y-25010702D01*
X20248095Y-25153559D02*
X20229047Y-25113083D01*
X20229047Y-25017845D01*
X20248095Y-24982130D01*
X20286190Y-24967845D01*
X20324285Y-24972607D01*
X20362380Y-24996416D01*
X20381428Y-25036892D01*
X20381428Y-25132130D01*
X20400476Y-25172607D01*
X20229047Y-25341654D02*
X20495714Y-25374988D01*
X20419523Y-25365464D02*
X20457619Y-25389273D01*
X20476666Y-25410702D01*
X20495714Y-25451178D01*
X20495714Y-25489273D01*
X20229047Y-25951178D02*
X20248095Y-25915464D01*
X20267142Y-25898797D01*
X20305238Y-25884511D01*
X20419523Y-25898797D01*
X20457619Y-25922607D01*
X20476666Y-25944035D01*
X20495714Y-25984511D01*
X20495714Y-26041654D01*
X20476666Y-26077369D01*
X20457619Y-26094035D01*
X20419523Y-26108321D01*
X20305238Y-26094035D01*
X20267142Y-26070226D01*
X20248095Y-26048797D01*
X20229047Y-26008321D01*
X20229047Y-25951178D01*
X20495714Y-26460702D02*
X20171904Y-26420226D01*
X20133809Y-26396416D01*
X20114761Y-26374988D01*
X20095714Y-26334511D01*
X20095714Y-26277369D01*
X20114761Y-26241654D01*
X20248095Y-26429750D02*
X20229047Y-26389273D01*
X20229047Y-26313083D01*
X20248095Y-26277369D01*
X20267142Y-26260702D01*
X20305238Y-26246416D01*
X20419523Y-26260702D01*
X20457619Y-26284511D01*
X20476666Y-26305940D01*
X20495714Y-26346416D01*
X20495714Y-26422607D01*
X20476666Y-26458321D01*
X20438571Y-27082130D02*
X20419523Y-27136892D01*
X20400476Y-27153559D01*
X20362380Y-27167845D01*
X20305238Y-27160702D01*
X20267142Y-27136892D01*
X20248095Y-27115464D01*
X20229047Y-27074988D01*
X20229047Y-26922607D01*
X20629047Y-26972607D01*
X20629047Y-27105940D01*
X20610000Y-27141654D01*
X20590952Y-27158321D01*
X20552857Y-27172607D01*
X20514761Y-27167845D01*
X20476666Y-27144035D01*
X20457619Y-27122607D01*
X20438571Y-27082130D01*
X20438571Y-26948797D01*
X20248095Y-27477369D02*
X20229047Y-27436892D01*
X20229047Y-27360702D01*
X20248095Y-27324988D01*
X20286190Y-27310702D01*
X20438571Y-27329750D01*
X20476666Y-27353559D01*
X20495714Y-27394035D01*
X20495714Y-27470226D01*
X20476666Y-27505940D01*
X20438571Y-27520226D01*
X20400476Y-27515464D01*
X20362380Y-27320226D01*
X20229047Y-27665464D02*
X20495714Y-27698797D01*
X20419523Y-27689273D02*
X20457619Y-27713083D01*
X20476666Y-27734511D01*
X20495714Y-27774988D01*
X20495714Y-27813083D01*
X20495714Y-28117845D02*
X20171904Y-28077369D01*
X20133809Y-28053559D01*
X20114761Y-28032130D01*
X20095714Y-27991654D01*
X20095714Y-27934511D01*
X20114761Y-27898797D01*
X20248095Y-28086892D02*
X20229047Y-28046416D01*
X20229047Y-27970226D01*
X20248095Y-27934511D01*
X20267142Y-27917845D01*
X20305238Y-27903559D01*
X20419523Y-27917845D01*
X20457619Y-27941654D01*
X20476666Y-27963083D01*
X20495714Y-28003559D01*
X20495714Y-28079750D01*
X20476666Y-28115464D01*
X20267142Y-28584511D02*
X20248095Y-28601178D01*
X20229047Y-28579750D01*
X20248095Y-28563083D01*
X20267142Y-28584511D01*
X20229047Y-28579750D01*
X20267142Y-28774988D02*
X20248095Y-28791654D01*
X20229047Y-28770226D01*
X20248095Y-28753559D01*
X20267142Y-28774988D01*
X20229047Y-28770226D01*
X20267142Y-28965464D02*
X20248095Y-28982130D01*
X20229047Y-28960702D01*
X20248095Y-28944035D01*
X20267142Y-28965464D01*
X20229047Y-28960702D01*
D13*
%TO.C,SW1*%
X30820000Y-20320000D03*
X25820000Y-20320000D03*
D14*
X33920000Y-27320000D03*
X22720000Y-27320000D03*
D13*
X30820000Y-34820000D03*
X28320000Y-34820000D03*
D15*
X25820000Y-34820000D03*
%TD*%
D16*
%TO.C,J2*%
X148380000Y-100150000D03*
X149380000Y-100150000D03*
D17*
X150680000Y-104025000D03*
X147080000Y-104025000D03*
%TD*%
D18*
%TO.C,J4*%
X228375000Y-106015000D03*
D19*
X228375000Y-103475000D03*
X228375000Y-100935000D03*
X228375000Y-98395000D03*
%TD*%
D20*
%TO.C,MX2*%
X52451000Y-27305000D03*
X42291000Y-27305000D03*
D21*
X47371000Y-27305000D03*
%TD*%
D20*
%TO.C,MX3*%
X71501000Y-27305000D03*
X61341000Y-27305000D03*
D21*
X66421000Y-27305000D03*
%TD*%
D20*
%TO.C,MX4*%
X90551000Y-27305000D03*
X80391000Y-27305000D03*
D21*
X85471000Y-27305000D03*
%TD*%
%TO.C,MX5*%
X104521000Y-27305000D03*
D20*
X99441000Y-27305000D03*
X109601000Y-27305000D03*
%TD*%
%TO.C,MX7*%
X147701000Y-27305000D03*
X137541000Y-27305000D03*
D21*
X142621000Y-27305000D03*
%TD*%
%TO.C,MX8*%
X161671000Y-27305000D03*
D20*
X156591000Y-27305000D03*
X166751000Y-27305000D03*
%TD*%
%TO.C,MX9*%
X185801000Y-27305000D03*
X175641000Y-27305000D03*
D21*
X180721000Y-27305000D03*
%TD*%
%TO.C,MX10*%
X199771000Y-27305000D03*
D20*
X204851000Y-27305000D03*
X194691000Y-27305000D03*
%TD*%
%TO.C,MX11*%
X223901000Y-27305000D03*
D21*
X218821000Y-27305000D03*
D20*
X213741000Y-27305000D03*
%TD*%
D21*
%TO.C,MX12*%
X237871000Y-27305000D03*
D20*
X232791000Y-27305000D03*
X242951000Y-27305000D03*
%TD*%
%TO.C,MX13*%
X262001000Y-27305000D03*
D21*
X256921000Y-27305000D03*
D20*
X251841000Y-27305000D03*
%TD*%
%TO.C,MX14*%
X281051000Y-27305000D03*
X270891000Y-27305000D03*
D21*
X275971000Y-27305000D03*
%TD*%
%TO.C,MX15*%
X273589750Y-35560000D03*
D20*
X280416000Y-27305000D03*
D22*
X273589750Y-20320000D03*
D21*
X285496000Y-27305000D03*
D20*
X290576000Y-27305000D03*
D21*
X297402250Y-35560000D03*
D22*
X297402250Y-20320000D03*
%TD*%
D20*
%TO.C,MX17*%
X38164250Y-46354500D03*
D21*
X33084250Y-46354500D03*
D20*
X28004250Y-46354500D03*
%TD*%
%TO.C,MX18*%
X51816000Y-46355000D03*
D21*
X56896000Y-46355000D03*
D20*
X61976000Y-46355000D03*
%TD*%
%TO.C,MX20*%
X89895554Y-46348542D03*
X100055554Y-46348542D03*
D21*
X94975554Y-46348542D03*
%TD*%
D20*
%TO.C,MX21*%
X119105554Y-46348542D03*
X108945554Y-46348542D03*
D21*
X114025554Y-46348542D03*
%TD*%
D20*
%TO.C,MX22*%
X127995554Y-46348542D03*
X138155554Y-46348542D03*
D21*
X133075554Y-46348542D03*
%TD*%
D20*
%TO.C,MX23*%
X147045554Y-46348542D03*
X157205554Y-46348542D03*
D21*
X152125554Y-46348542D03*
%TD*%
D20*
%TO.C,MX24*%
X166095554Y-46348542D03*
X176255554Y-46348542D03*
D21*
X171175554Y-46348542D03*
%TD*%
D20*
%TO.C,MX25*%
X185145554Y-46348542D03*
D21*
X190225554Y-46348542D03*
D20*
X195305554Y-46348542D03*
%TD*%
%TO.C,MX26*%
X204195554Y-46348542D03*
X214355554Y-46348542D03*
D21*
X209275554Y-46348542D03*
%TD*%
D20*
%TO.C,MX27*%
X223245554Y-46348542D03*
D21*
X228325554Y-46348542D03*
D20*
X233405554Y-46348542D03*
%TD*%
D21*
%TO.C,MX28*%
X247375554Y-46348542D03*
D20*
X252455554Y-46348542D03*
X242295554Y-46348542D03*
%TD*%
D21*
%TO.C,MX29*%
X266425554Y-46348542D03*
D20*
X261345554Y-46348542D03*
X271505554Y-46348542D03*
%TD*%
%TO.C,MX30*%
X295305554Y-46348542D03*
D21*
X290225554Y-46348542D03*
D20*
X285145554Y-46348542D03*
%TD*%
%TO.C,MX31*%
X25629250Y-65404500D03*
D21*
X30709250Y-65404500D03*
D20*
X35789250Y-65404500D03*
%TD*%
D21*
%TO.C,MX33*%
X61658500Y-65405000D03*
D20*
X56578500Y-65405000D03*
X66738500Y-65405000D03*
%TD*%
%TO.C,MX34*%
X85768054Y-65398542D03*
D21*
X80688054Y-65398542D03*
D20*
X75608054Y-65398542D03*
%TD*%
%TO.C,MX35*%
X94658054Y-65398542D03*
D21*
X99738054Y-65398542D03*
D20*
X104818054Y-65398542D03*
%TD*%
%TO.C,MX36*%
X123868054Y-65398542D03*
D21*
X118788054Y-65398542D03*
D20*
X113708054Y-65398542D03*
%TD*%
D21*
%TO.C,MX37*%
X137838054Y-65398542D03*
D20*
X132758054Y-65398542D03*
X142918054Y-65398542D03*
%TD*%
D21*
%TO.C,MX38*%
X156888054Y-65398542D03*
D20*
X161968054Y-65398542D03*
X151808054Y-65398542D03*
%TD*%
D21*
%TO.C,MX39*%
X175938054Y-65398542D03*
D20*
X181018054Y-65398542D03*
X170858054Y-65398542D03*
%TD*%
%TO.C,MX40*%
X200068054Y-65398542D03*
D21*
X194988054Y-65398542D03*
D20*
X189908054Y-65398542D03*
%TD*%
D21*
%TO.C,MX41*%
X214038054Y-65398542D03*
D20*
X208958054Y-65398542D03*
X219118054Y-65398542D03*
%TD*%
%TO.C,MX42*%
X238168054Y-65398542D03*
X228008054Y-65398542D03*
D21*
X233088054Y-65398542D03*
%TD*%
%TO.C,MX43*%
X252138054Y-65398542D03*
D20*
X257218054Y-65398542D03*
X247058054Y-65398542D03*
%TD*%
D21*
%TO.C,MX45*%
X283063054Y-65398542D03*
D22*
X294969304Y-58413542D03*
D20*
X277983054Y-65398542D03*
D21*
X294969304Y-73653542D03*
D22*
X271156804Y-58413542D03*
D21*
X271156804Y-73653542D03*
D20*
X288143054Y-65398542D03*
%TD*%
%TO.C,MX47*%
X35789250Y-84454500D03*
D21*
X30709250Y-84454500D03*
D20*
X25629250Y-84454500D03*
%TD*%
%TO.C,MX48*%
X35179250Y-84454500D03*
D22*
X28353000Y-77469500D03*
D21*
X28353000Y-92709500D03*
D20*
X45339250Y-84454500D03*
D21*
X40259250Y-84454500D03*
D22*
X52165500Y-77469500D03*
D21*
X52165500Y-92709500D03*
%TD*%
%TO.C,MX49*%
X52133500Y-84455000D03*
D20*
X47053500Y-84455000D03*
X57213500Y-84455000D03*
%TD*%
%TO.C,MX50*%
X76243054Y-84448542D03*
X66083054Y-84448542D03*
D21*
X71163054Y-84448542D03*
%TD*%
D20*
%TO.C,MX51*%
X85133054Y-84448542D03*
X95293054Y-84448542D03*
D21*
X90213054Y-84448542D03*
%TD*%
D20*
%TO.C,MX52*%
X114343054Y-84448542D03*
X104183054Y-84448542D03*
D21*
X109263054Y-84448542D03*
%TD*%
D20*
%TO.C,MX53*%
X133393054Y-84448542D03*
D21*
X128313054Y-84448542D03*
D20*
X123233054Y-84448542D03*
%TD*%
D21*
%TO.C,MX54*%
X147363054Y-84448542D03*
D20*
X152443054Y-84448542D03*
X142283054Y-84448542D03*
%TD*%
D21*
%TO.C,MX57*%
X204513054Y-84448542D03*
D20*
X209593054Y-84448542D03*
X199433054Y-84448542D03*
%TD*%
%TO.C,MX59*%
X237533054Y-84448542D03*
D21*
X242613054Y-84448542D03*
D20*
X247693054Y-84448542D03*
%TD*%
D21*
%TO.C,MX60*%
X268859000Y-84455000D03*
D20*
X273939000Y-84455000D03*
X263779000Y-84455000D03*
%TD*%
D21*
%TO.C,MX61*%
X266477750Y-92710000D03*
D20*
X283464000Y-84455000D03*
X273304000Y-84455000D03*
D21*
X290290250Y-92710000D03*
X278384000Y-84455000D03*
D22*
X290290250Y-77470000D03*
X266477750Y-77470000D03*
%TD*%
D21*
%TO.C,MX62*%
X295021000Y-84455000D03*
D20*
X300101000Y-84455000D03*
X289941000Y-84455000D03*
%TD*%
%TO.C,MX64*%
X61976000Y-103505000D03*
D21*
X56896000Y-103505000D03*
D20*
X51816000Y-103505000D03*
%TD*%
%TO.C,MX65*%
X75627500Y-103504500D03*
X85787500Y-103504500D03*
D21*
X80707500Y-103504500D03*
%TD*%
%TO.C,MX67*%
X242632500Y-103505000D03*
D20*
X237552500Y-103505000D03*
X247712500Y-103505000D03*
%TD*%
D21*
%TO.C,MX68*%
X266446000Y-103505000D03*
D20*
X271526000Y-103505000D03*
X261366000Y-103505000D03*
%TD*%
D21*
%TO.C,MX69*%
X290259500Y-103505000D03*
D20*
X285179500Y-103505000D03*
X295339500Y-103505000D03*
%TD*%
%TO.C,MX6*%
X128651000Y-27305000D03*
X118491000Y-27305000D03*
D21*
X123571000Y-27305000D03*
%TD*%
%TO.C,MX16*%
X295021000Y-27305000D03*
D20*
X300101000Y-27305000D03*
X289941000Y-27305000D03*
%TD*%
%TO.C,MX1*%
X33401000Y-27305000D03*
D21*
X28321000Y-27305000D03*
D20*
X23241000Y-27305000D03*
%TD*%
%TO.C,MX19*%
X81005554Y-46348542D03*
X70845554Y-46348542D03*
D21*
X75925554Y-46348542D03*
%TD*%
D20*
%TO.C,MX32*%
X40558000Y-65404500D03*
D21*
X35478000Y-65404500D03*
D20*
X30398000Y-65404500D03*
%TD*%
%TO.C,MX46*%
X297693054Y-55873542D03*
D21*
X284358054Y-67811542D03*
X292613054Y-55873542D03*
X284358054Y-43935542D03*
D22*
X299598054Y-67811542D03*
X299598054Y-43935542D03*
D20*
X287533054Y-55873542D03*
%TD*%
D21*
%TO.C,MX44*%
X271188054Y-65398542D03*
D20*
X266108054Y-65398542D03*
X276268054Y-65398542D03*
%TD*%
%TO.C,MX63*%
X38164250Y-103504500D03*
D21*
X33084250Y-103504500D03*
D20*
X28004250Y-103504500D03*
%TD*%
D23*
%TO.C,HOLE*%
X19650000Y-75070000D03*
%TD*%
D24*
%TO.C,HOLE*%
X45220000Y-46460000D03*
%TD*%
D25*
%TO.C,HOLE*%
X277860000Y-46210000D03*
%TD*%
D23*
%TO.C,HOLE*%
X303440000Y-75000000D03*
%TD*%
D21*
%TO.C,MX58*%
X223563054Y-84448542D03*
D20*
X228643054Y-84448542D03*
X218483054Y-84448542D03*
%TD*%
D21*
%TO.C,MX56*%
X185463054Y-84448542D03*
D20*
X190543054Y-84448542D03*
X180383054Y-84448542D03*
%TD*%
%TO.C,MX55*%
X161333054Y-84448542D03*
X171493054Y-84448542D03*
D21*
X166413054Y-84448542D03*
%TD*%
D25*
%TO.C,HOLE*%
X209170000Y-103720000D03*
X209170000Y-103720000D03*
%TD*%
D22*
%TO.C,MX66*%
X104530000Y-110465000D03*
D21*
X104530000Y-95225000D03*
D20*
X166760000Y-103480000D03*
D21*
X161680000Y-103480000D03*
D20*
X156600000Y-103480000D03*
D21*
X218830000Y-95225000D03*
D22*
X218830000Y-110465000D03*
%TD*%
D25*
%TO.C,HOLE*%
X147370000Y-65420000D03*
%TD*%
D26*
%TO.C,J1*%
X40482000Y-22158000D03*
X34702000Y-22158000D03*
D27*
X33272000Y-18508000D03*
X41912000Y-18508000D03*
D28*
X41912000Y-22688000D03*
X33272000Y-22688000D03*
%TD*%
D29*
%TO.C,U3*%
X191065000Y-104988000D03*
X191065000Y-103888000D03*
X191065000Y-102788000D03*
X191065000Y-101688000D03*
X191065000Y-100588000D03*
X191065000Y-99488000D03*
X191065000Y-98388000D03*
X191065000Y-97288000D03*
X191065000Y-96188000D03*
X199565000Y-104988000D03*
X199565000Y-103888000D03*
X199565000Y-102788000D03*
X199565000Y-101688000D03*
X199565000Y-100588000D03*
X199565000Y-99488000D03*
X199565000Y-98388000D03*
X199565000Y-97288000D03*
X199565000Y-96188000D03*
%TD*%
D30*
%TO.C,Reset1*%
X181520000Y-92050000D03*
X179520000Y-92050000D03*
%TD*%
M02*
