%TF.GenerationSoftware,KiCad,Pcbnew,5.1.10*%
%TF.CreationDate,2021-06-12T22:16:46+02:00*%
%TF.ProjectId,ptm-60nrf,70746d2d-3630-46e7-9266-2e6b69636164,rev?*%
%TF.SameCoordinates,Original*%
%TF.FileFunction,Soldermask,Top*%
%TF.FilePolarity,Negative*%
%FSLAX46Y46*%
G04 Gerber Fmt 4.6, Leading zero omitted, Abs format (unit mm)*
G04 Created by KiCad (PCBNEW 5.1.10) date 2021-06-12 22:16:46*
%MOMM*%
%LPD*%
G01*
G04 APERTURE LIST*
%ADD10C,0.150000*%
%ADD11C,0.050000*%
%ADD12R,2.000000X2.000000*%
%ADD13C,2.000000*%
%ADD14R,2.000000X3.200000*%
%ADD15C,3.987800*%
%ADD16C,1.750000*%
%ADD17O,1.700000X1.700000*%
%ADD18R,1.700000X1.700000*%
%ADD19O,9.999980X5.001260*%
%ADD20C,7.000240*%
%ADD21O,1.000000X2.100000*%
%ADD22C,0.650000*%
%ADD23O,1.000000X1.600000*%
%ADD24C,3.048000*%
%ADD25R,1.524000X0.700000*%
G04 APERTURE END LIST*
D10*
X296060476Y-111152380D02*
X295727142Y-110676190D01*
X295489047Y-111152380D02*
X295489047Y-110152380D01*
X295870000Y-110152380D01*
X295965238Y-110200000D01*
X296012857Y-110247619D01*
X296060476Y-110342857D01*
X296060476Y-110485714D01*
X296012857Y-110580952D01*
X295965238Y-110628571D01*
X295870000Y-110676190D01*
X295489047Y-110676190D01*
X296870000Y-111104761D02*
X296774761Y-111152380D01*
X296584285Y-111152380D01*
X296489047Y-111104761D01*
X296441428Y-111009523D01*
X296441428Y-110628571D01*
X296489047Y-110533333D01*
X296584285Y-110485714D01*
X296774761Y-110485714D01*
X296870000Y-110533333D01*
X296917619Y-110628571D01*
X296917619Y-110723809D01*
X296441428Y-110819047D01*
X297250952Y-110485714D02*
X297489047Y-111152380D01*
X297727142Y-110485714D01*
X298108095Y-111057142D02*
X298155714Y-111104761D01*
X298108095Y-111152380D01*
X298060476Y-111104761D01*
X298108095Y-111057142D01*
X298108095Y-111152380D01*
X299536666Y-110152380D02*
X299631904Y-110152380D01*
X299727142Y-110200000D01*
X299774761Y-110247619D01*
X299822380Y-110342857D01*
X299870000Y-110533333D01*
X299870000Y-110771428D01*
X299822380Y-110961904D01*
X299774761Y-111057142D01*
X299727142Y-111104761D01*
X299631904Y-111152380D01*
X299536666Y-111152380D01*
X299441428Y-111104761D01*
X299393809Y-111057142D01*
X299346190Y-110961904D01*
X299298571Y-110771428D01*
X299298571Y-110533333D01*
X299346190Y-110342857D01*
X299393809Y-110247619D01*
X299441428Y-110200000D01*
X299536666Y-110152380D01*
X300298571Y-111057142D02*
X300346190Y-111104761D01*
X300298571Y-111152380D01*
X300250952Y-111104761D01*
X300298571Y-111057142D01*
X300298571Y-111152380D01*
X301203333Y-110485714D02*
X301203333Y-111152380D01*
X300965238Y-110104761D02*
X300727142Y-110819047D01*
X301346190Y-110819047D01*
D11*
X20296904Y-22751130D02*
X20546904Y-22782380D01*
X20368333Y-22843392D01*
X20546904Y-22949047D01*
X20296904Y-22917797D01*
X20296904Y-23036845D02*
X20463571Y-23057678D01*
X20546904Y-23068095D02*
X20535000Y-23054702D01*
X20523095Y-23065119D01*
X20535000Y-23078511D01*
X20546904Y-23068095D01*
X20523095Y-23065119D01*
X20296904Y-23191607D02*
X20308809Y-23169285D01*
X20332619Y-23160357D01*
X20546904Y-23187142D01*
X20296904Y-23322559D02*
X20308809Y-23300238D01*
X20332619Y-23291309D01*
X20546904Y-23318095D01*
X20296904Y-23453511D02*
X20308809Y-23431190D01*
X20320714Y-23420773D01*
X20344523Y-23411845D01*
X20415952Y-23420773D01*
X20439761Y-23435654D01*
X20451666Y-23449047D01*
X20463571Y-23474345D01*
X20463571Y-23510059D01*
X20451666Y-23532380D01*
X20439761Y-23542797D01*
X20415952Y-23551726D01*
X20344523Y-23542797D01*
X20320714Y-23527916D01*
X20308809Y-23514523D01*
X20296904Y-23489226D01*
X20296904Y-23453511D01*
X20296904Y-23643988D02*
X20463571Y-23664821D01*
X20439761Y-23661845D02*
X20451666Y-23675238D01*
X20463571Y-23700535D01*
X20463571Y-23736250D01*
X20451666Y-23758571D01*
X20427857Y-23767500D01*
X20296904Y-23751130D01*
X20427857Y-23767500D02*
X20451666Y-23782380D01*
X20463571Y-23807678D01*
X20463571Y-23843392D01*
X20451666Y-23865714D01*
X20427857Y-23874642D01*
X20296904Y-23858273D01*
X20427857Y-24267500D02*
X20415952Y-24301726D01*
X20404047Y-24312142D01*
X20380238Y-24321071D01*
X20344523Y-24316607D01*
X20320714Y-24301726D01*
X20308809Y-24288333D01*
X20296904Y-24263035D01*
X20296904Y-24167797D01*
X20546904Y-24199047D01*
X20546904Y-24282380D01*
X20535000Y-24304702D01*
X20523095Y-24315119D01*
X20499285Y-24324047D01*
X20475476Y-24321071D01*
X20451666Y-24306190D01*
X20439761Y-24292797D01*
X20427857Y-24267500D01*
X20427857Y-24184166D01*
X20296904Y-24524940D02*
X20427857Y-24541309D01*
X20451666Y-24532380D01*
X20463571Y-24510059D01*
X20463571Y-24462440D01*
X20451666Y-24437142D01*
X20308809Y-24526428D02*
X20296904Y-24501130D01*
X20296904Y-24441607D01*
X20308809Y-24419285D01*
X20332619Y-24410357D01*
X20356428Y-24413333D01*
X20380238Y-24428214D01*
X20392142Y-24453511D01*
X20392142Y-24513035D01*
X20404047Y-24538333D01*
X20296904Y-24643988D02*
X20546904Y-24675238D01*
X20392142Y-24679702D02*
X20296904Y-24739226D01*
X20463571Y-24760059D02*
X20368333Y-24652916D01*
X20296904Y-24846369D02*
X20546904Y-24877619D01*
X20392142Y-24882083D02*
X20296904Y-24941607D01*
X20463571Y-24962440D02*
X20368333Y-24855297D01*
X20296904Y-25155892D02*
X20427857Y-25172261D01*
X20451666Y-25163333D01*
X20463571Y-25141011D01*
X20463571Y-25093392D01*
X20451666Y-25068095D01*
X20308809Y-25157380D02*
X20296904Y-25132083D01*
X20296904Y-25072559D01*
X20308809Y-25050238D01*
X20332619Y-25041309D01*
X20356428Y-25044285D01*
X20380238Y-25059166D01*
X20392142Y-25084464D01*
X20392142Y-25143988D01*
X20404047Y-25169285D01*
X20296904Y-25274940D02*
X20463571Y-25295773D01*
X20415952Y-25289821D02*
X20439761Y-25304702D01*
X20451666Y-25318095D01*
X20463571Y-25343392D01*
X20463571Y-25367202D01*
X20296904Y-25655892D02*
X20308809Y-25633571D01*
X20320714Y-25623154D01*
X20344523Y-25614226D01*
X20415952Y-25623154D01*
X20439761Y-25638035D01*
X20451666Y-25651428D01*
X20463571Y-25676726D01*
X20463571Y-25712440D01*
X20451666Y-25734761D01*
X20439761Y-25745178D01*
X20415952Y-25754107D01*
X20344523Y-25745178D01*
X20320714Y-25730297D01*
X20308809Y-25716904D01*
X20296904Y-25691607D01*
X20296904Y-25655892D01*
X20463571Y-25974345D02*
X20261190Y-25949047D01*
X20237380Y-25934166D01*
X20225476Y-25920773D01*
X20213571Y-25895476D01*
X20213571Y-25859761D01*
X20225476Y-25837440D01*
X20308809Y-25955000D02*
X20296904Y-25929702D01*
X20296904Y-25882083D01*
X20308809Y-25859761D01*
X20320714Y-25849345D01*
X20344523Y-25840416D01*
X20415952Y-25849345D01*
X20439761Y-25864226D01*
X20451666Y-25877619D01*
X20463571Y-25902916D01*
X20463571Y-25950535D01*
X20451666Y-25972857D01*
X20427857Y-26362738D02*
X20415952Y-26396964D01*
X20404047Y-26407380D01*
X20380238Y-26416309D01*
X20344523Y-26411845D01*
X20320714Y-26396964D01*
X20308809Y-26383571D01*
X20296904Y-26358273D01*
X20296904Y-26263035D01*
X20546904Y-26294285D01*
X20546904Y-26377619D01*
X20535000Y-26399940D01*
X20523095Y-26410357D01*
X20499285Y-26419285D01*
X20475476Y-26416309D01*
X20451666Y-26401428D01*
X20439761Y-26388035D01*
X20427857Y-26362738D01*
X20427857Y-26279404D01*
X20308809Y-26609761D02*
X20296904Y-26584464D01*
X20296904Y-26536845D01*
X20308809Y-26514523D01*
X20332619Y-26505595D01*
X20427857Y-26517500D01*
X20451666Y-26532380D01*
X20463571Y-26557678D01*
X20463571Y-26605297D01*
X20451666Y-26627619D01*
X20427857Y-26636547D01*
X20404047Y-26633571D01*
X20380238Y-26511547D01*
X20296904Y-26727321D02*
X20463571Y-26748154D01*
X20415952Y-26742202D02*
X20439761Y-26757083D01*
X20451666Y-26770476D01*
X20463571Y-26795773D01*
X20463571Y-26819583D01*
X20463571Y-27010059D02*
X20261190Y-26984761D01*
X20237380Y-26969880D01*
X20225476Y-26956488D01*
X20213571Y-26931190D01*
X20213571Y-26895476D01*
X20225476Y-26873154D01*
X20308809Y-26990714D02*
X20296904Y-26965416D01*
X20296904Y-26917797D01*
X20308809Y-26895476D01*
X20320714Y-26885059D01*
X20344523Y-26876130D01*
X20415952Y-26885059D01*
X20439761Y-26899940D01*
X20451666Y-26913333D01*
X20463571Y-26938630D01*
X20463571Y-26986250D01*
X20451666Y-27008571D01*
X20320714Y-27301726D02*
X20308809Y-27312142D01*
X20296904Y-27298750D01*
X20308809Y-27288333D01*
X20320714Y-27301726D01*
X20296904Y-27298750D01*
X20320714Y-27420773D02*
X20308809Y-27431190D01*
X20296904Y-27417797D01*
X20308809Y-27407380D01*
X20320714Y-27420773D01*
X20296904Y-27417797D01*
X20320714Y-27539821D02*
X20308809Y-27550238D01*
X20296904Y-27536845D01*
X20308809Y-27526428D01*
X20320714Y-27539821D01*
X20296904Y-27536845D01*
D10*
X122344285Y-95210714D02*
X122344285Y-96210714D01*
X122344285Y-95258333D02*
X122439523Y-95210714D01*
X122630000Y-95210714D01*
X122725238Y-95258333D01*
X122772857Y-95305952D01*
X122820476Y-95401190D01*
X122820476Y-95686904D01*
X122772857Y-95782142D01*
X122725238Y-95829761D01*
X122630000Y-95877380D01*
X122439523Y-95877380D01*
X122344285Y-95829761D01*
X123106190Y-95210714D02*
X123487142Y-95210714D01*
X123249047Y-94877380D02*
X123249047Y-95734523D01*
X123296666Y-95829761D01*
X123391904Y-95877380D01*
X123487142Y-95877380D01*
X123820476Y-95877380D02*
X123820476Y-95210714D01*
X123820476Y-95305952D02*
X123868095Y-95258333D01*
X123963333Y-95210714D01*
X124106190Y-95210714D01*
X124201428Y-95258333D01*
X124249047Y-95353571D01*
X124249047Y-95877380D01*
X124249047Y-95353571D02*
X124296666Y-95258333D01*
X124391904Y-95210714D01*
X124534761Y-95210714D01*
X124630000Y-95258333D01*
X124677619Y-95353571D01*
X124677619Y-95877380D01*
X125153809Y-95496428D02*
X125915714Y-95496428D01*
X126820476Y-94877380D02*
X126630000Y-94877380D01*
X126534761Y-94925000D01*
X126487142Y-94972619D01*
X126391904Y-95115476D01*
X126344285Y-95305952D01*
X126344285Y-95686904D01*
X126391904Y-95782142D01*
X126439523Y-95829761D01*
X126534761Y-95877380D01*
X126725238Y-95877380D01*
X126820476Y-95829761D01*
X126868095Y-95782142D01*
X126915714Y-95686904D01*
X126915714Y-95448809D01*
X126868095Y-95353571D01*
X126820476Y-95305952D01*
X126725238Y-95258333D01*
X126534761Y-95258333D01*
X126439523Y-95305952D01*
X126391904Y-95353571D01*
X126344285Y-95448809D01*
X127534761Y-94877380D02*
X127630000Y-94877380D01*
X127725238Y-94925000D01*
X127772857Y-94972619D01*
X127820476Y-95067857D01*
X127868095Y-95258333D01*
X127868095Y-95496428D01*
X127820476Y-95686904D01*
X127772857Y-95782142D01*
X127725238Y-95829761D01*
X127630000Y-95877380D01*
X127534761Y-95877380D01*
X127439523Y-95829761D01*
X127391904Y-95782142D01*
X127344285Y-95686904D01*
X127296666Y-95496428D01*
X127296666Y-95258333D01*
X127344285Y-95067857D01*
X127391904Y-94972619D01*
X127439523Y-94925000D01*
X127534761Y-94877380D01*
X128296666Y-95210714D02*
X128296666Y-95877380D01*
X128296666Y-95305952D02*
X128344285Y-95258333D01*
X128439523Y-95210714D01*
X128582380Y-95210714D01*
X128677619Y-95258333D01*
X128725238Y-95353571D01*
X128725238Y-95877380D01*
X129201428Y-95877380D02*
X129201428Y-95210714D01*
X129201428Y-95401190D02*
X129249047Y-95305952D01*
X129296666Y-95258333D01*
X129391904Y-95210714D01*
X129487142Y-95210714D01*
X129677619Y-95210714D02*
X130058571Y-95210714D01*
X129820476Y-95877380D02*
X129820476Y-95020238D01*
X129868095Y-94925000D01*
X129963333Y-94877380D01*
X130058571Y-94877380D01*
X112249047Y-97003571D02*
X112391904Y-97051190D01*
X112439523Y-97098809D01*
X112487142Y-97194047D01*
X112487142Y-97336904D01*
X112439523Y-97432142D01*
X112391904Y-97479761D01*
X112296666Y-97527380D01*
X111915714Y-97527380D01*
X111915714Y-96527380D01*
X112249047Y-96527380D01*
X112344285Y-96575000D01*
X112391904Y-96622619D01*
X112439523Y-96717857D01*
X112439523Y-96813095D01*
X112391904Y-96908333D01*
X112344285Y-96955952D01*
X112249047Y-97003571D01*
X111915714Y-97003571D01*
X113058571Y-97527380D02*
X112963333Y-97479761D01*
X112915714Y-97384523D01*
X112915714Y-96527380D01*
X113868095Y-96860714D02*
X113868095Y-97527380D01*
X113439523Y-96860714D02*
X113439523Y-97384523D01*
X113487142Y-97479761D01*
X113582380Y-97527380D01*
X113725238Y-97527380D01*
X113820476Y-97479761D01*
X113868095Y-97432142D01*
X114725238Y-97479761D02*
X114630000Y-97527380D01*
X114439523Y-97527380D01*
X114344285Y-97479761D01*
X114296666Y-97384523D01*
X114296666Y-97003571D01*
X114344285Y-96908333D01*
X114439523Y-96860714D01*
X114630000Y-96860714D01*
X114725238Y-96908333D01*
X114772857Y-97003571D01*
X114772857Y-97098809D01*
X114296666Y-97194047D01*
X115058571Y-96860714D02*
X115439523Y-96860714D01*
X115201428Y-96527380D02*
X115201428Y-97384523D01*
X115249047Y-97479761D01*
X115344285Y-97527380D01*
X115439523Y-97527380D01*
X115915714Y-97527380D02*
X115820476Y-97479761D01*
X115772857Y-97432142D01*
X115725238Y-97336904D01*
X115725238Y-97051190D01*
X115772857Y-96955952D01*
X115820476Y-96908333D01*
X115915714Y-96860714D01*
X116058571Y-96860714D01*
X116153809Y-96908333D01*
X116201428Y-96955952D01*
X116249047Y-97051190D01*
X116249047Y-97336904D01*
X116201428Y-97432142D01*
X116153809Y-97479761D01*
X116058571Y-97527380D01*
X115915714Y-97527380D01*
X116820476Y-97527380D02*
X116725238Y-97479761D01*
X116677619Y-97432142D01*
X116630000Y-97336904D01*
X116630000Y-97051190D01*
X116677619Y-96955952D01*
X116725238Y-96908333D01*
X116820476Y-96860714D01*
X116963333Y-96860714D01*
X117058571Y-96908333D01*
X117106190Y-96955952D01*
X117153809Y-97051190D01*
X117153809Y-97336904D01*
X117106190Y-97432142D01*
X117058571Y-97479761D01*
X116963333Y-97527380D01*
X116820476Y-97527380D01*
X117439523Y-96860714D02*
X117820476Y-96860714D01*
X117582380Y-96527380D02*
X117582380Y-97384523D01*
X117630000Y-97479761D01*
X117725238Y-97527380D01*
X117820476Y-97527380D01*
X118153809Y-97527380D02*
X118153809Y-96527380D01*
X118582380Y-97527380D02*
X118582380Y-97003571D01*
X118534761Y-96908333D01*
X118439523Y-96860714D01*
X118296666Y-96860714D01*
X118201428Y-96908333D01*
X118153809Y-96955952D01*
X120249047Y-97479761D02*
X120153809Y-97527380D01*
X119963333Y-97527380D01*
X119868095Y-97479761D01*
X119820476Y-97432142D01*
X119772857Y-97336904D01*
X119772857Y-97051190D01*
X119820476Y-96955952D01*
X119868095Y-96908333D01*
X119963333Y-96860714D01*
X120153809Y-96860714D01*
X120249047Y-96908333D01*
X120820476Y-97527380D02*
X120725238Y-97479761D01*
X120677619Y-97432142D01*
X120630000Y-97336904D01*
X120630000Y-97051190D01*
X120677619Y-96955952D01*
X120725238Y-96908333D01*
X120820476Y-96860714D01*
X120963333Y-96860714D01*
X121058571Y-96908333D01*
X121106190Y-96955952D01*
X121153809Y-97051190D01*
X121153809Y-97336904D01*
X121106190Y-97432142D01*
X121058571Y-97479761D01*
X120963333Y-97527380D01*
X120820476Y-97527380D01*
X121582380Y-97527380D02*
X121582380Y-96860714D01*
X121582380Y-96955952D02*
X121630000Y-96908333D01*
X121725238Y-96860714D01*
X121868095Y-96860714D01*
X121963333Y-96908333D01*
X122010952Y-97003571D01*
X122010952Y-97527380D01*
X122010952Y-97003571D02*
X122058571Y-96908333D01*
X122153809Y-96860714D01*
X122296666Y-96860714D01*
X122391904Y-96908333D01*
X122439523Y-97003571D01*
X122439523Y-97527380D01*
X122915714Y-96860714D02*
X122915714Y-97860714D01*
X122915714Y-96908333D02*
X123010952Y-96860714D01*
X123201428Y-96860714D01*
X123296666Y-96908333D01*
X123344285Y-96955952D01*
X123391904Y-97051190D01*
X123391904Y-97336904D01*
X123344285Y-97432142D01*
X123296666Y-97479761D01*
X123201428Y-97527380D01*
X123010952Y-97527380D01*
X122915714Y-97479761D01*
X124249047Y-97527380D02*
X124249047Y-97003571D01*
X124201428Y-96908333D01*
X124106190Y-96860714D01*
X123915714Y-96860714D01*
X123820476Y-96908333D01*
X124249047Y-97479761D02*
X124153809Y-97527380D01*
X123915714Y-97527380D01*
X123820476Y-97479761D01*
X123772857Y-97384523D01*
X123772857Y-97289285D01*
X123820476Y-97194047D01*
X123915714Y-97146428D01*
X124153809Y-97146428D01*
X124249047Y-97098809D01*
X124582380Y-96860714D02*
X124963333Y-96860714D01*
X124725238Y-96527380D02*
X124725238Y-97384523D01*
X124772857Y-97479761D01*
X124868095Y-97527380D01*
X124963333Y-97527380D01*
X125296666Y-97527380D02*
X125296666Y-96860714D01*
X125296666Y-96527380D02*
X125249047Y-96575000D01*
X125296666Y-96622619D01*
X125344285Y-96575000D01*
X125296666Y-96527380D01*
X125296666Y-96622619D01*
X125772857Y-97527380D02*
X125772857Y-96527380D01*
X125772857Y-96908333D02*
X125868095Y-96860714D01*
X126058571Y-96860714D01*
X126153809Y-96908333D01*
X126201428Y-96955952D01*
X126249047Y-97051190D01*
X126249047Y-97336904D01*
X126201428Y-97432142D01*
X126153809Y-97479761D01*
X126058571Y-97527380D01*
X125868095Y-97527380D01*
X125772857Y-97479761D01*
X126820476Y-97527380D02*
X126725238Y-97479761D01*
X126677619Y-97384523D01*
X126677619Y-96527380D01*
X127582380Y-97479761D02*
X127487142Y-97527380D01*
X127296666Y-97527380D01*
X127201428Y-97479761D01*
X127153809Y-97384523D01*
X127153809Y-97003571D01*
X127201428Y-96908333D01*
X127296666Y-96860714D01*
X127487142Y-96860714D01*
X127582380Y-96908333D01*
X127630000Y-97003571D01*
X127630000Y-97098809D01*
X127153809Y-97194047D01*
X128677619Y-96860714D02*
X129058571Y-96860714D01*
X128820476Y-96527380D02*
X128820476Y-97384523D01*
X128868095Y-97479761D01*
X128963333Y-97527380D01*
X129058571Y-97527380D01*
X129391904Y-97527380D02*
X129391904Y-96860714D01*
X129391904Y-97051190D02*
X129439523Y-96955952D01*
X129487142Y-96908333D01*
X129582380Y-96860714D01*
X129677619Y-96860714D01*
X130439523Y-97527380D02*
X130439523Y-97003571D01*
X130391904Y-96908333D01*
X130296666Y-96860714D01*
X130106190Y-96860714D01*
X130010952Y-96908333D01*
X130439523Y-97479761D02*
X130344285Y-97527380D01*
X130106190Y-97527380D01*
X130010952Y-97479761D01*
X129963333Y-97384523D01*
X129963333Y-97289285D01*
X130010952Y-97194047D01*
X130106190Y-97146428D01*
X130344285Y-97146428D01*
X130439523Y-97098809D01*
X130820476Y-96860714D02*
X131058571Y-97527380D01*
X131296666Y-96860714D02*
X131058571Y-97527380D01*
X130963333Y-97765476D01*
X130915714Y-97813095D01*
X130820476Y-97860714D01*
X132439523Y-97527380D02*
X132439523Y-96860714D01*
X132439523Y-96955952D02*
X132487142Y-96908333D01*
X132582380Y-96860714D01*
X132725238Y-96860714D01*
X132820476Y-96908333D01*
X132868095Y-97003571D01*
X132868095Y-97527380D01*
X132868095Y-97003571D02*
X132915714Y-96908333D01*
X133010952Y-96860714D01*
X133153809Y-96860714D01*
X133249047Y-96908333D01*
X133296666Y-97003571D01*
X133296666Y-97527380D01*
X133915714Y-97527380D02*
X133820476Y-97479761D01*
X133772857Y-97432142D01*
X133725238Y-97336904D01*
X133725238Y-97051190D01*
X133772857Y-96955952D01*
X133820476Y-96908333D01*
X133915714Y-96860714D01*
X134058571Y-96860714D01*
X134153809Y-96908333D01*
X134201428Y-96955952D01*
X134249047Y-97051190D01*
X134249047Y-97336904D01*
X134201428Y-97432142D01*
X134153809Y-97479761D01*
X134058571Y-97527380D01*
X133915714Y-97527380D01*
X135106190Y-96860714D02*
X135106190Y-97527380D01*
X134677619Y-96860714D02*
X134677619Y-97384523D01*
X134725238Y-97479761D01*
X134820476Y-97527380D01*
X134963333Y-97527380D01*
X135058571Y-97479761D01*
X135106190Y-97432142D01*
X135582380Y-96860714D02*
X135582380Y-97527380D01*
X135582380Y-96955952D02*
X135630000Y-96908333D01*
X135725238Y-96860714D01*
X135868095Y-96860714D01*
X135963333Y-96908333D01*
X136010952Y-97003571D01*
X136010952Y-97527380D01*
X136344285Y-96860714D02*
X136725238Y-96860714D01*
X136487142Y-96527380D02*
X136487142Y-97384523D01*
X136534761Y-97479761D01*
X136630000Y-97527380D01*
X136725238Y-97527380D01*
X137820476Y-97527380D02*
X137820476Y-96527380D01*
X138201428Y-96527380D01*
X138296666Y-96575000D01*
X138344285Y-96622619D01*
X138391904Y-96717857D01*
X138391904Y-96860714D01*
X138344285Y-96955952D01*
X138296666Y-97003571D01*
X138201428Y-97051190D01*
X137820476Y-97051190D01*
X139391904Y-97432142D02*
X139344285Y-97479761D01*
X139201428Y-97527380D01*
X139106190Y-97527380D01*
X138963333Y-97479761D01*
X138868095Y-97384523D01*
X138820476Y-97289285D01*
X138772857Y-97098809D01*
X138772857Y-96955952D01*
X138820476Y-96765476D01*
X138868095Y-96670238D01*
X138963333Y-96575000D01*
X139106190Y-96527380D01*
X139201428Y-96527380D01*
X139344285Y-96575000D01*
X139391904Y-96622619D01*
X140153809Y-97003571D02*
X140296666Y-97051190D01*
X140344285Y-97098809D01*
X140391904Y-97194047D01*
X140391904Y-97336904D01*
X140344285Y-97432142D01*
X140296666Y-97479761D01*
X140201428Y-97527380D01*
X139820476Y-97527380D01*
X139820476Y-96527380D01*
X140153809Y-96527380D01*
X140249047Y-96575000D01*
X140296666Y-96622619D01*
X140344285Y-96717857D01*
X140344285Y-96813095D01*
X140296666Y-96908333D01*
X140249047Y-96955952D01*
X140153809Y-97003571D01*
X139820476Y-97003571D01*
D12*
%TO.C,ENC*%
X25820000Y-34820000D03*
D13*
X28320000Y-34820000D03*
X30820000Y-34820000D03*
D14*
X22720000Y-27320000D03*
X33920000Y-27320000D03*
D13*
X25820000Y-20320000D03*
X30820000Y-20320000D03*
%TD*%
D15*
%TO.C,MX19*%
X75925554Y-46348542D03*
D16*
X70845554Y-46348542D03*
X81005554Y-46348542D03*
%TD*%
D15*
%TO.C,MX18*%
X56896000Y-46355000D03*
D16*
X51816000Y-46355000D03*
X61976000Y-46355000D03*
%TD*%
D15*
%TO.C,MX56*%
X185463054Y-84448542D03*
D16*
X180383054Y-84448542D03*
X190543054Y-84448542D03*
%TD*%
D17*
%TO.C,J4*%
X228375000Y-98395000D03*
X228375000Y-100935000D03*
X228375000Y-103475000D03*
D18*
X228375000Y-106015000D03*
%TD*%
D19*
%TO.C,HOLE*%
X303440000Y-75000000D03*
%TD*%
D20*
%TO.C,HOLE*%
X277860000Y-46210000D03*
%TD*%
%TO.C,HOLE*%
X147360000Y-65380000D03*
%TD*%
%TO.C,HOLE*%
X45220000Y-46460000D03*
%TD*%
D19*
%TO.C,HOLE*%
X19650000Y-75070000D03*
%TD*%
%TO.C,J2*%
G36*
G01*
X150080000Y-104675001D02*
X150080000Y-103374999D01*
G75*
G02*
X150329999Y-103125000I249999J0D01*
G01*
X151030001Y-103125000D01*
G75*
G02*
X151280000Y-103374999I0J-249999D01*
G01*
X151280000Y-104675001D01*
G75*
G02*
X151030001Y-104925000I-249999J0D01*
G01*
X150329999Y-104925000D01*
G75*
G02*
X150080000Y-104675001I0J249999D01*
G01*
G37*
G36*
G01*
X146480000Y-104675001D02*
X146480000Y-103374999D01*
G75*
G02*
X146729999Y-103125000I249999J0D01*
G01*
X147430001Y-103125000D01*
G75*
G02*
X147680000Y-103374999I0J-249999D01*
G01*
X147680000Y-104675001D01*
G75*
G02*
X147430001Y-104925000I-249999J0D01*
G01*
X146729999Y-104925000D01*
G75*
G02*
X146480000Y-104675001I0J249999D01*
G01*
G37*
G36*
G01*
X149080000Y-100775000D02*
X149080000Y-99525000D01*
G75*
G02*
X149230000Y-99375000I150000J0D01*
G01*
X149530000Y-99375000D01*
G75*
G02*
X149680000Y-99525000I0J-150000D01*
G01*
X149680000Y-100775000D01*
G75*
G02*
X149530000Y-100925000I-150000J0D01*
G01*
X149230000Y-100925000D01*
G75*
G02*
X149080000Y-100775000I0J150000D01*
G01*
G37*
G36*
G01*
X148080000Y-100775000D02*
X148080000Y-99525000D01*
G75*
G02*
X148230000Y-99375000I150000J0D01*
G01*
X148530000Y-99375000D01*
G75*
G02*
X148680000Y-99525000I0J-150000D01*
G01*
X148680000Y-100775000D01*
G75*
G02*
X148530000Y-100925000I-150000J0D01*
G01*
X148230000Y-100925000D01*
G75*
G02*
X148080000Y-100775000I0J150000D01*
G01*
G37*
%TD*%
D21*
%TO.C,J1*%
X41912000Y-22688000D03*
X33272000Y-22688000D03*
D22*
X34702000Y-22158000D03*
D23*
X33272000Y-18508000D03*
D22*
X40482000Y-22158000D03*
D23*
X41912000Y-18508000D03*
%TD*%
D15*
%TO.C,MX68*%
X266446000Y-103505000D03*
D16*
X261366000Y-103505000D03*
X271526000Y-103505000D03*
%TD*%
D15*
%TO.C,MX43*%
X252138054Y-65398542D03*
D16*
X247058054Y-65398542D03*
X257218054Y-65398542D03*
%TD*%
D15*
%TO.C,MX39*%
X175938054Y-65398542D03*
D16*
X170858054Y-65398542D03*
X181018054Y-65398542D03*
%TD*%
D15*
%TO.C,MX35*%
X99738054Y-65398542D03*
D16*
X94658054Y-65398542D03*
X104818054Y-65398542D03*
%TD*%
D15*
%TO.C,MX50*%
X71163054Y-84448542D03*
D16*
X66083054Y-84448542D03*
X76243054Y-84448542D03*
%TD*%
D15*
%TO.C,MX28*%
X247375554Y-46348542D03*
D16*
X242295554Y-46348542D03*
X252455554Y-46348542D03*
%TD*%
D15*
%TO.C,MX55*%
X166413054Y-84448542D03*
D16*
X161333054Y-84448542D03*
X171493054Y-84448542D03*
%TD*%
D15*
%TO.C,MX22*%
X133075554Y-46348542D03*
D16*
X127995554Y-46348542D03*
X138155554Y-46348542D03*
%TD*%
D15*
%TO.C,MX53*%
X128313054Y-84448542D03*
D16*
X123233054Y-84448542D03*
X133393054Y-84448542D03*
%TD*%
D15*
%TO.C,MX38*%
X156888054Y-65398542D03*
D16*
X151808054Y-65398542D03*
X161968054Y-65398542D03*
%TD*%
D15*
%TO.C,MX66*%
X161671000Y-103505000D03*
D16*
X156591000Y-103505000D03*
X166751000Y-103505000D03*
D24*
X104521000Y-110490000D03*
X218821000Y-110490000D03*
D15*
X104521000Y-95250000D03*
X218821000Y-95250000D03*
%TD*%
%TO.C,MX46*%
X284358054Y-43935542D03*
X284358054Y-67811542D03*
D24*
X299598054Y-43935542D03*
X299598054Y-67811542D03*
D16*
X297693054Y-55873542D03*
X287533054Y-55873542D03*
D15*
X292613054Y-55873542D03*
%TD*%
%TO.C,MX48*%
X40259250Y-84454500D03*
D16*
X35179250Y-84454500D03*
X45339250Y-84454500D03*
D24*
X28353000Y-77469500D03*
X52165500Y-77469500D03*
D15*
X28353000Y-92709500D03*
X52165500Y-92709500D03*
%TD*%
%TO.C,MX47*%
X30709250Y-84454500D03*
D16*
X25629250Y-84454500D03*
X35789250Y-84454500D03*
%TD*%
D15*
%TO.C,MX69*%
X290259500Y-103505000D03*
D16*
X285179500Y-103505000D03*
X295339500Y-103505000D03*
%TD*%
D15*
%TO.C,MX67*%
X242632500Y-103505000D03*
D16*
X237552500Y-103505000D03*
X247712500Y-103505000D03*
%TD*%
D15*
%TO.C,MX65*%
X80707500Y-103504500D03*
D16*
X75627500Y-103504500D03*
X85787500Y-103504500D03*
%TD*%
D15*
%TO.C,MX64*%
X56896000Y-103505000D03*
D16*
X51816000Y-103505000D03*
X61976000Y-103505000D03*
%TD*%
D15*
%TO.C,MX63*%
X33084250Y-103504500D03*
D16*
X28004250Y-103504500D03*
X38164250Y-103504500D03*
%TD*%
D15*
%TO.C,MX62*%
X295021000Y-84455000D03*
D16*
X289941000Y-84455000D03*
X300101000Y-84455000D03*
%TD*%
D15*
%TO.C,MX61*%
X278384000Y-84455000D03*
D16*
X273304000Y-84455000D03*
X283464000Y-84455000D03*
D24*
X266477750Y-77470000D03*
X290290250Y-77470000D03*
D15*
X266477750Y-92710000D03*
X290290250Y-92710000D03*
%TD*%
%TO.C,MX60*%
X268859000Y-84455000D03*
D16*
X263779000Y-84455000D03*
X273939000Y-84455000D03*
%TD*%
D15*
%TO.C,MX59*%
X242613054Y-84448542D03*
D16*
X237533054Y-84448542D03*
X247693054Y-84448542D03*
%TD*%
D15*
%TO.C,MX58*%
X223563054Y-84448542D03*
D16*
X218483054Y-84448542D03*
X228643054Y-84448542D03*
%TD*%
D15*
%TO.C,MX57*%
X204513054Y-84448542D03*
D16*
X199433054Y-84448542D03*
X209593054Y-84448542D03*
%TD*%
D15*
%TO.C,MX54*%
X147363054Y-84448542D03*
D16*
X142283054Y-84448542D03*
X152443054Y-84448542D03*
%TD*%
D15*
%TO.C,MX52*%
X109263054Y-84448542D03*
D16*
X104183054Y-84448542D03*
X114343054Y-84448542D03*
%TD*%
D15*
%TO.C,MX51*%
X90213054Y-84448542D03*
D16*
X85133054Y-84448542D03*
X95293054Y-84448542D03*
%TD*%
D15*
%TO.C,MX49*%
X52133500Y-84455000D03*
D16*
X47053500Y-84455000D03*
X57213500Y-84455000D03*
%TD*%
D15*
%TO.C,MX45*%
X283063054Y-65398542D03*
D16*
X277983054Y-65398542D03*
X288143054Y-65398542D03*
D24*
X271156804Y-58413542D03*
X294969304Y-58413542D03*
D15*
X271156804Y-73653542D03*
X294969304Y-73653542D03*
%TD*%
%TO.C,MX44*%
X271188054Y-65398542D03*
D16*
X266108054Y-65398542D03*
X276268054Y-65398542D03*
%TD*%
D15*
%TO.C,MX42*%
X233088054Y-65398542D03*
D16*
X228008054Y-65398542D03*
X238168054Y-65398542D03*
%TD*%
D15*
%TO.C,MX41*%
X214038054Y-65398542D03*
D16*
X208958054Y-65398542D03*
X219118054Y-65398542D03*
%TD*%
D15*
%TO.C,MX40*%
X194988054Y-65398542D03*
D16*
X189908054Y-65398542D03*
X200068054Y-65398542D03*
%TD*%
D15*
%TO.C,MX37*%
X137838054Y-65398542D03*
D16*
X132758054Y-65398542D03*
X142918054Y-65398542D03*
%TD*%
D15*
%TO.C,MX36*%
X118788054Y-65398542D03*
D16*
X113708054Y-65398542D03*
X123868054Y-65398542D03*
%TD*%
D15*
%TO.C,MX34*%
X80688054Y-65398542D03*
D16*
X75608054Y-65398542D03*
X85768054Y-65398542D03*
%TD*%
D15*
%TO.C,MX33*%
X61658500Y-65405000D03*
D16*
X56578500Y-65405000D03*
X66738500Y-65405000D03*
%TD*%
D15*
%TO.C,MX32*%
X35478000Y-65404500D03*
D16*
X30398000Y-65404500D03*
X40558000Y-65404500D03*
%TD*%
D15*
%TO.C,MX31*%
X30709250Y-65404500D03*
D16*
X25629250Y-65404500D03*
X35789250Y-65404500D03*
%TD*%
D15*
%TO.C,MX30*%
X290225554Y-46348542D03*
D16*
X285145554Y-46348542D03*
X295305554Y-46348542D03*
%TD*%
D15*
%TO.C,MX29*%
X266425554Y-46348542D03*
D16*
X261345554Y-46348542D03*
X271505554Y-46348542D03*
%TD*%
D15*
%TO.C,MX27*%
X228325554Y-46348542D03*
D16*
X223245554Y-46348542D03*
X233405554Y-46348542D03*
%TD*%
D15*
%TO.C,MX26*%
X209275554Y-46348542D03*
D16*
X204195554Y-46348542D03*
X214355554Y-46348542D03*
%TD*%
D15*
%TO.C,MX25*%
X190225554Y-46348542D03*
D16*
X185145554Y-46348542D03*
X195305554Y-46348542D03*
%TD*%
D15*
%TO.C,MX24*%
X171175554Y-46348542D03*
D16*
X166095554Y-46348542D03*
X176255554Y-46348542D03*
%TD*%
D15*
%TO.C,MX23*%
X152125554Y-46348542D03*
D16*
X147045554Y-46348542D03*
X157205554Y-46348542D03*
%TD*%
D15*
%TO.C,MX21*%
X114025554Y-46348542D03*
D16*
X108945554Y-46348542D03*
X119105554Y-46348542D03*
%TD*%
D15*
%TO.C,MX20*%
X94975554Y-46348542D03*
D16*
X89895554Y-46348542D03*
X100055554Y-46348542D03*
%TD*%
D15*
%TO.C,MX17*%
X33084250Y-46354500D03*
D16*
X28004250Y-46354500D03*
X38164250Y-46354500D03*
%TD*%
D15*
%TO.C,MX16*%
X295021000Y-27305000D03*
D16*
X289941000Y-27305000D03*
X300101000Y-27305000D03*
%TD*%
D15*
%TO.C,MX15*%
X285496000Y-27305000D03*
D16*
X280416000Y-27305000D03*
X290576000Y-27305000D03*
D24*
X273589750Y-20320000D03*
X297402250Y-20320000D03*
D15*
X273589750Y-35560000D03*
X297402250Y-35560000D03*
%TD*%
%TO.C,MX14*%
X275971000Y-27305000D03*
D16*
X270891000Y-27305000D03*
X281051000Y-27305000D03*
%TD*%
D15*
%TO.C,MX13*%
X256921000Y-27305000D03*
D16*
X251841000Y-27305000D03*
X262001000Y-27305000D03*
%TD*%
D15*
%TO.C,MX12*%
X237871000Y-27305000D03*
D16*
X232791000Y-27305000D03*
X242951000Y-27305000D03*
%TD*%
D15*
%TO.C,MX11*%
X218821000Y-27305000D03*
D16*
X213741000Y-27305000D03*
X223901000Y-27305000D03*
%TD*%
D15*
%TO.C,MX10*%
X199771000Y-27305000D03*
D16*
X194691000Y-27305000D03*
X204851000Y-27305000D03*
%TD*%
D15*
%TO.C,MX9*%
X180721000Y-27305000D03*
D16*
X175641000Y-27305000D03*
X185801000Y-27305000D03*
%TD*%
D15*
%TO.C,MX8*%
X161671000Y-27305000D03*
D16*
X156591000Y-27305000D03*
X166751000Y-27305000D03*
%TD*%
D15*
%TO.C,MX7*%
X142621000Y-27305000D03*
D16*
X137541000Y-27305000D03*
X147701000Y-27305000D03*
%TD*%
D15*
%TO.C,MX6*%
X123571000Y-27305000D03*
D16*
X118491000Y-27305000D03*
X128651000Y-27305000D03*
%TD*%
D15*
%TO.C,MX5*%
X104521000Y-27305000D03*
D16*
X99441000Y-27305000D03*
X109601000Y-27305000D03*
%TD*%
D15*
%TO.C,MX4*%
X85471000Y-27305000D03*
D16*
X80391000Y-27305000D03*
X90551000Y-27305000D03*
%TD*%
D15*
%TO.C,MX3*%
X66421000Y-27305000D03*
D16*
X61341000Y-27305000D03*
X71501000Y-27305000D03*
%TD*%
D15*
%TO.C,MX2*%
X47371000Y-27305000D03*
D16*
X42291000Y-27305000D03*
X52451000Y-27305000D03*
%TD*%
D15*
%TO.C,MX1*%
X28321000Y-27305000D03*
D16*
X23241000Y-27305000D03*
X33401000Y-27305000D03*
%TD*%
D25*
%TO.C,U3*%
X205175000Y-96200000D03*
X205175000Y-97300000D03*
X205175000Y-98400000D03*
X205175000Y-99500000D03*
X205175000Y-100600000D03*
X205175000Y-101700000D03*
X205175000Y-102800000D03*
X205175000Y-103900000D03*
X205175000Y-105000000D03*
X196675000Y-96200000D03*
X196675000Y-97300000D03*
X196675000Y-98400000D03*
X196675000Y-99500000D03*
X196675000Y-100600000D03*
X196675000Y-101700000D03*
X196675000Y-102800000D03*
X196675000Y-103900000D03*
X196675000Y-105000000D03*
%TD*%
M02*
